# https://github.com/mikedh/trimesh
v -0.03259001 -0.02140800 0.04478201
v -0.03259001 -0.02140800 0.04478201
v -0.03259001 -0.02140800 0.04478201
v -0.03259001 0.02429200 0.04478201
v -0.03259001 0.02429200 0.04478201
v -0.03259001 0.02429200 0.04478201
v -0.03259000 -0.02140800 0.00078201
v -0.03259000 -0.02140800 0.00078201
v -0.03259000 -0.02140800 0.00078201
v -0.03259000 0.02429200 0.00078201
v -0.03259000 0.02429200 0.00078201
v -0.03259000 0.02429200 0.00078201
v 0.02661000 -0.02140800 0.04478199
v 0.02661000 -0.02140800 0.04478199
v 0.02661000 -0.02140800 0.04478199
v 0.02661000 0.02429200 0.04478199
v 0.02661000 0.02429200 0.04478199
v 0.02661000 0.02429200 0.04478199
v 0.02661001 -0.02140800 0.00078199
v 0.02661001 -0.02140800 0.00078199
v 0.02661001 -0.02140800 0.00078199
v 0.02661001 0.02429200 0.00078199
v 0.02661001 0.02429200 0.00078199
v 0.02661001 0.02429200 0.00078199
f 1 6 11
f 8 12 22
f 20 23 16
f 14 17 4
f 9 21 15
f 24 10 5
f 11 7 1
f 22 19 8
f 16 13 20
f 4 2 14
f 15 3 9
f 5 18 24

