# https://github.com/mikedh/trimesh
v 0.00755966 -0.02355884 0.00834014
v 0.00693673 -0.02943765 0.00697125
v -0.00999619 -0.02108716 0.00342857
v -0.01000000 -0.01638564 0.00342857
v 0.00527324 -0.01500333 0.00342857
v 0.00556303 -0.01503114 0.00342857
v 0.00563244 -0.01504205 0.00342857
v 0.00558686 -0.01503488 0.00342857
v 0.00571052 -0.01505633 0.00342857
v 0.00565779 -0.01504668 0.00342857
v 0.00587832 -0.01509435 0.00342857
v 0.00576751 -0.01506922 0.00342857
v 0.00600797 -0.01513077 0.00342857
v 0.00611896 -0.01516704 0.00342857
v 0.00635268 -0.01525962 0.00342857
v 0.00632223 -0.01524636 0.00342857
v 0.00645075 -0.01530545 0.00342857
v 0.00638375 -0.01527411 0.00342857
v 0.00673554 -0.01546460 0.00342857
v 0.00662857 -0.01540134 0.00342857
v 0.00679280 -0.01550173 0.00342857
v 0.00687265 -0.01555670 0.00342857
v 0.00681735 -0.01551858 0.00342857
v 0.00713269 -0.01576466 0.00342857
v 0.00703950 -0.01568599 0.00342857
v 0.00718636 -0.01581388 0.00342857
v 0.00720671 -0.01583355 0.00342857
v 0.00736217 -0.01599355 0.00342857
v 0.00729281 -0.01592026 0.00342857
v 0.00747757 -0.01612978 0.00342857
v 0.00749495 -0.01615205 0.00342857
v 0.00766569 -0.01639381 0.00342857
v 0.00779126 -0.01661158 0.00342857
v 0.00789816 -0.01683909 0.00342857
v 0.00785587 -0.01674518 0.00342857
v 0.00798564 -0.01707476 0.00342857
v 0.00806149 -0.01735645 0.00342857
v 0.00810002 -0.01756389 0.00342857
v 0.00808850 -0.01749413 0.00342857
v 0.00812611 -0.01781391 0.00342857
v 0.00813118 -0.01806524 0.00342857
v -0.00920000 -0.01500000 0.00342857
v -0.01000000 -0.02100000 0.00342857
v 0.00517903 -0.01500111 0.00342857
v 0.00513188 -0.01500000 0.00342857
v 0.00531020 -0.01500575 0.00342857
v 0.00544272 -0.01501735 0.00342857
v 0.00538304 -0.01501053 0.00342857
v 0.00592053 -0.01510618 0.00342857
v 0.00604634 -0.01514328 0.00342857
v 0.00624397 -0.01521536 0.00342857
v 0.00649506 -0.01532841 0.00342857
v 0.00657781 -0.01537145 0.00342857
v 0.00675678 -0.01547834 0.00342857
v 0.00691618 -0.01558935 0.00342857
v 0.00699612 -0.01564955 0.00342857
v 0.00715301 -0.01578325 0.00342857
v 0.00725428 -0.01587977 0.00342857
v 0.00739841 -0.01603617 0.00342857
v 0.00753869 -0.01620953 0.00342857
v 0.00752232 -0.01618732 0.00342857
v 0.00760986 -0.01631045 0.00342857
v 0.00757822 -0.01626352 0.00342857
v 0.00769359 -0.01644058 0.00342857
v 0.00776964 -0.01657129 0.00342857
v 0.00775549 -0.01654514 0.00342857
v 0.00791634 -0.01688562 0.00342857
v 0.00805308 -0.01731693 0.00342857
v 0.00808119 -0.01745095 0.00342857
v 0.00811518 -0.01831611 0.00342857
v 0.00764269 -0.02277522 0.00342857
v 0.00684635 -0.03029060 0.00342857
v 0.00781863 -0.02109121 0.01028571
v 0.00778812 -0.02131556 0.01028571
v 0.00733398 -0.02282899 0.01028571
v 0.00755753 -0.02224742 0.01028571
v 0.00767152 -0.02185697 0.01028571
v 0.00771836 -0.02166179 0.01028571
v 0.00720739 -0.02311743 0.01028571
v 0.00714471 -0.02325106 0.01028571
v -0.00342981 -0.02769955 0.01028571
v 0.00416703 -0.02768448 0.01028571
v -0.00733093 -0.02769664 0.01028571
v -0.00739099 -0.02767926 0.01028571
v -0.00744173 -0.02764974 0.01028571
v -0.00745565 -0.02764105 0.01028571
v -0.00750534 -0.02759748 0.01028571
v -0.00751218 -0.02759112 0.01028571
v -0.00756898 -0.02752438 0.01028571
v -0.00762999 -0.02743374 0.01028571
v -0.00769690 -0.02730933 0.01028571
v -0.00774329 -0.02720839 0.01028571
v -0.00777951 -0.02711693 0.01028571
v -0.00779850 -0.02706881 0.01028571
v 0.00474280 -0.02740800 0.01028571
v 0.00447335 -0.02759768 0.01028571
v 0.00444442 -0.02761405 0.01028571
v 0.00530640 -0.02687857 0.01028571
v 0.00520196 -0.02703464 0.01028571
v 0.00570482 -0.02616951 0.01028571
v 0.00433566 -0.02765292 0.01028571
v 0.00430313 -0.02766401 0.01028571
v 0.00787012 -0.02062892 0.01028571
v -0.00993969 -0.02134202 0.01028571
v -0.01000000 -0.01638564 0.01028571
v 0.00528016 -0.01500378 0.01028571
v 0.00588596 -0.01509649 0.01028571
v 0.00601639 -0.01513349 0.01028571
v 0.00611896 -0.01516704 0.01028571
v 0.00674193 -0.01546869 0.01028571
v 0.00700397 -0.01565614 0.01028571
v 0.00726420 -0.01589004 0.01028571
v 0.00736873 -0.01600126 0.01028571
v 0.00748366 -0.01613751 0.01028571
v 0.00752528 -0.01619134 0.01028571
v 0.00758684 -0.01627608 0.01028571
v 0.00776072 -0.01655468 0.01028571
v 0.00783843 -0.01670645 0.01028571
v 0.00798564 -0.01707476 0.01028571
v 0.00805461 -0.01732408 0.01028571
v 0.00808375 -0.01746536 0.01028571
v 0.00810002 -0.01756389 0.01028571
v 0.00812611 -0.01781391 0.01028571
v -0.01000000 -0.02100000 0.01028571
v -0.00999619 -0.02108716 0.01028571
v -0.00998481 -0.02117365 0.01028571
v -0.00996593 -0.02125882 0.01028571
v -0.00920000 -0.01500000 0.01028571
v 0.00513188 -0.01500000 0.01028571
v 0.00514041 -0.01500020 0.01028571
v 0.00527347 -0.01500334 0.01028571
v 0.00538304 -0.01501053 0.01028571
v 0.00539384 -0.01501176 0.01028571
v 0.00556807 -0.01503192 0.01028571
v 0.00563703 -0.01504289 0.01028571
v 0.00571150 -0.01505653 0.01028571
v 0.00572181 -0.01505886 0.01028571
v 0.00587832 -0.01509435 0.01028571
v 0.00600945 -0.01513122 0.01028571
v 0.00630967 -0.01524089 0.01028571
v 0.00635268 -0.01525962 0.01028571
v 0.00635830 -0.01526224 0.01028571
v 0.00645291 -0.01530651 0.01028571
v 0.00646093 -0.01531067 0.01028571
v 0.00657781 -0.01537145 0.01028571
v 0.00658699 -0.01537685 0.01028571
v 0.00673808 -0.01546621 0.01028571
v 0.00679724 -0.01550478 0.01028571
v 0.00687534 -0.01555861 0.01028571
v 0.00688321 -0.01556452 0.01028571
v 0.00699612 -0.01564955 0.01028571
v 0.00713926 -0.01577061 0.01028571
v 0.00719004 -0.01581744 0.01028571
v 0.00725723 -0.01588272 0.01028571
v 0.00736217 -0.01599355 0.01028571
v 0.00748052 -0.01613348 0.01028571
v 0.00758112 -0.01626759 0.01028571
v 0.00766569 -0.01639381 0.01028571
v 0.00767073 -0.01640227 0.01028571
v 0.00775816 -0.01654995 0.01028571
v 0.00779126 -0.01661158 0.01028571
v 0.00790145 -0.01684751 0.01028571
v 0.00805308 -0.01731693 0.01028571
v 0.00808243 -0.01745755 0.01028571
v 0.00813118 -0.01806524 0.01028571
v 0.00811518 -0.01831611 0.01028571
v 0.00789850 -0.02036103 0.01028571
v 0.00802972 -0.01912271 0.01028571
v 0.00724285 -0.02304142 0.01028571
v 0.00749019 -0.02244133 0.01028571
v 0.00761795 -0.02205240 0.01028571
v 0.00775689 -0.02148369 0.01028571
v 0.00741589 -0.02263341 0.01028571
v 0.00703755 -0.02347526 0.01028571
v -0.00767564 -0.02735108 0.01028571
v -0.00773709 -0.02722248 0.01028571
v 0.00461375 -0.02751137 0.01028571
v 0.00459108 -0.02752920 0.01028571
v 0.00523749 -0.02698239 0.01028571
v 0.00536733 -0.02678299 0.01028571
v 0.00536729 -0.02678306 0.01028571
v 0.00554974 -0.02646781 0.01028571
v 0.00542725 -0.02668091 0.01028571
v 0.00783070 -0.02100090 0.01028571
v 0.00556376 -0.01503125 0.01028571
v 0.00563244 -0.01504205 0.01028571
v 0.00629551 -0.01523528 0.01028571
v 0.00679280 -0.01550173 0.01028571
v 0.00713559 -0.01576725 0.01028571
v 0.00718636 -0.01581388 0.01028571
v 0.00752232 -0.01618732 0.01028571
v 0.00789816 -0.01683909 0.01028571
v -0.00739167 -0.03600267 0.00912608
v -0.00768732 -0.03600267 0.00905189
v -0.00774329 -0.03600267 0.00902620
v -0.00779769 -0.03600267 0.00899704
v -0.00785029 -0.03600267 0.00896450
v -0.00790089 -0.03600267 0.00892869
v -0.00794928 -0.03600267 0.00888972
v -0.00799526 -0.03600267 0.00884774
v -0.00807916 -0.03600267 0.00875537
v -0.00811679 -0.03600267 0.00870524
v -0.00818253 -0.03600267 0.00859806
v -0.00821034 -0.03600267 0.00854140
v -0.00823460 -0.03600267 0.00848297
v -0.00827200 -0.03600267 0.00836169
v -0.00829393 -0.03600267 0.00823615
v -0.00830000 -0.03600267 0.00812559
v 0.00624109 -0.03600267 0.00611266
v 0.00621671 -0.03600267 0.00652501
v 0.00619557 -0.03600267 0.00666396
v 0.00613228 -0.03600267 0.00694384
v 0.00608978 -0.03600267 0.00708377
v 0.00603988 -0.03600267 0.00722296
v 0.00598254 -0.03600267 0.00736087
v 0.00591776 -0.03600267 0.00749691
v 0.00576617 -0.03600267 0.00776106
v 0.00558633 -0.03600267 0.00801079
v 0.00548647 -0.03600267 0.00812887
v 0.00538043 -0.03600267 0.00824176
v 0.00526863 -0.03600267 0.00834897
v 0.00515152 -0.03600267 0.00845010
v 0.00502960 -0.03600267 0.00854478
v 0.00490340 -0.03600267 0.00863269
v 0.00464037 -0.03600267 0.00878725
v 0.00450470 -0.03600267 0.00885357
v 0.00422797 -0.03600267 0.00896391
v 0.00408806 -0.03600267 0.00900796
v 0.00394784 -0.03600267 0.00904470
v 0.00380786 -0.03600267 0.00907428
v 0.00366859 -0.03600267 0.00909688
v 0.00353052 -0.03600267 0.00911273
v 0.00624109 -0.03600267 0.00342857
v -0.00733096 -0.03600267 0.00912983
v -0.00745215 -0.03600267 0.00911861
v -0.00751218 -0.03600267 0.00910743
v -0.00757154 -0.03600267 0.00909256
v -0.00762999 -0.03600267 0.00907403
v -0.00803856 -0.03600267 0.00880295
v -0.00815130 -0.03600267 0.00865274
v -0.00825518 -0.03600267 0.00842299
v -0.00828494 -0.03600267 0.00829931
v 0.00346437 -0.03600267 0.00911550
v 0.00623114 -0.03600267 0.00638734
v 0.00616749 -0.03600267 0.00680374
v 0.00584559 -0.03600267 0.00763050
v 0.00567967 -0.03600267 0.00788801
v 0.00477346 -0.03600267 0.00871358
v 0.00436704 -0.03600267 0.00891246
v -0.00830000 -0.03600267 0.00342857
v 0.00624109 -0.03600267 0.00517157
f 81 234 82
f 82 234 243
f 84 234 83
f 234 81 83
f 233 72 251
f 200 127 239
f 72 71 1
f 232 178 96
f 96 97 232
f 102 243 232
f 82 243 102
f 231 230 99
f 99 95 231
f 95 177 231
f 231 177 178
f 231 178 232
f 99 230 229
f 227 249 100
f 227 183 228
f 193 234 84
f 199 198 127
f 127 200 199
f 207 125 208
f 245 74 212
f 103 184 209
f 209 251 103
f 209 184 244
f 74 210 73
f 210 244 73
f 73 244 184
f 2 251 72
f 72 1 2
f 2 103 251
f 1 103 2
f 232 97 101
f 101 102 232
f 228 181 98
f 228 183 180
f 180 181 228
f 182 227 100
f 183 227 182
f 127 198 197
f 197 196 127
f 195 104 127
f 127 196 195
f 194 104 195
f 238 94 104
f 238 104 194
f 126 201 239
f 239 127 126
f 202 201 126
f 240 202 126
f 126 203 240
f 204 203 126
f 205 204 126
f 242 206 126
f 126 207 242
f 211 210 74
f 74 245 211
f 168 1 71
f 212 74 213
f 216 215 78
f 169 226 225
f 118 35 33
f 119 36 67
f 119 67 162
f 179 229 228
f 228 98 179
f 99 229 179
f 85 193 84
f 85 86 193
f 237 175 91
f 93 238 92
f 94 238 93
f 90 236 89
f 237 236 90
f 90 175 237
f 205 126 241
f 241 126 206
f 167 103 1
f 1 168 167
f 214 213 172
f 172 213 74
f 172 215 214
f 172 78 215
f 218 171 219
f 171 220 219
f 218 247 77
f 77 171 218
f 77 247 217
f 216 78 246
f 78 77 246
f 246 77 217
f 249 226 80
f 161 118 33
f 193 86 87
f 235 87 88
f 193 87 235
f 235 88 89
f 89 236 235
f 237 91 176
f 176 238 237
f 92 238 176
f 248 173 225
f 75 169 225
f 225 173 75
f 224 223 170
f 170 248 224
f 173 248 170
f 226 169 79
f 79 80 226
f 100 249 174
f 249 80 174
f 76 223 222
f 76 170 223
f 222 221 76
f 76 221 220
f 76 220 171
f 42 105 128
f 4 105 42
f 45 42 128
f 128 129 45
f 125 3 250
f 250 208 125
f 4 43 124
f 124 105 4
f 124 43 3
f 3 125 124
f 165 70 41
f 166 70 165
f 130 45 129
f 130 44 45
f 5 130 131
f 44 130 5
f 122 123 40
f 40 38 122
f 123 165 40
f 40 165 41
f 46 106 132
f 132 48 46
f 131 106 46
f 46 5 131
f 14 50 109
f 109 50 108
f 51 109 187
f 14 109 51
f 125 207 126
f 168 71 70
f 168 70 166
f 119 68 36
f 163 68 119
f 139 50 13
f 108 50 139
f 13 49 139
f 139 49 107
f 138 49 11
f 107 49 138
f 16 51 140
f 140 51 187
f 67 34 192
f 162 67 192
f 192 34 35
f 35 118 192
f 164 121 39
f 69 164 39
f 122 38 39
f 39 121 122
f 37 120 164
f 37 164 69
f 163 120 37
f 37 68 163
f 111 25 56
f 111 56 151
f 24 25 111
f 111 189 24
f 20 145 146
f 53 145 20
f 15 140 141
f 16 140 15
f 250 233 248
f 248 208 250
f 228 229 248
f 209 244 248
f 248 243 234
f 248 247 218
f 240 203 248
f 248 227 228
f 193 235 248
f 248 207 208
f 232 243 248
f 233 251 248
f 248 200 239
f 194 195 248
f 248 204 205
f 248 251 209
f 248 231 232
f 225 226 248
f 234 193 248
f 198 199 248
f 248 202 240
f 239 201 248
f 248 206 242
f 248 245 212
f 210 211 248
f 248 215 216
f 230 231 248
f 248 229 230
f 248 226 249
f 249 227 248
f 205 241 248
f 248 199 200
f 248 197 198
f 248 238 194
f 248 201 202
f 248 203 204
f 242 207 248
f 222 223 248
f 248 244 210
f 212 213 248
f 248 221 222
f 196 197 248
f 248 195 196
f 237 238 248
f 248 236 237
f 248 211 245
f 248 213 214
f 214 215 248
f 218 219 248
f 217 247 248
f 216 246 248
f 248 241 206
f 248 219 220
f 220 221 248
f 248 246 217
f 248 223 224
f 248 235 236
f 66 64 159
f 160 66 159
f 159 64 32
f 32 158 159
f 117 65 66
f 117 66 160
f 33 65 117
f 117 161 33
f 29 112 155
f 29 155 28
f 154 112 29
f 29 58 154
f 61 31 114
f 191 61 114
f 114 31 30
f 30 156 114
f 113 59 28
f 28 155 113
f 30 59 113
f 113 156 30
f 58 27 153
f 154 58 153
f 153 27 26
f 26 190 153
f 24 189 152
f 152 57 24
f 26 57 152
f 152 190 26
f 11 12 137
f 137 138 11
f 137 12 9
f 9 136 137
f 9 10 135
f 135 136 9
f 62 158 32
f 62 116 158
f 157 116 62
f 62 63 157
f 54 110 188
f 54 188 21
f 19 20 147
f 147 20 146
f 147 54 19
f 110 54 147
f 148 23 21
f 21 188 148
f 22 23 148
f 148 149 22
f 56 55 150
f 151 56 150
f 150 55 22
f 22 149 150
f 52 145 53
f 52 144 145
f 143 52 17
f 144 52 143
f 60 43 4
f 41 70 60
f 60 233 250
f 60 72 233
f 250 3 60
f 4 42 60
f 3 43 60
f 14 51 60
f 60 20 19
f 26 27 60
f 60 62 32
f 7 10 60
f 70 71 60
f 42 45 60
f 56 25 60
f 60 8 7
f 60 71 72
f 19 54 60
f 60 40 41
f 60 31 61
f 45 44 60
f 48 47 60
f 60 12 11
f 60 46 48
f 60 34 67
f 60 65 33
f 67 36 60
f 69 39 60
f 44 5 60
f 60 47 6
f 6 8 60
f 9 12 60
f 60 10 9
f 60 50 14
f 33 35 60
f 60 29 28
f 38 40 60
f 60 18 17
f 60 37 69
f 60 55 56
f 5 46 60
f 13 50 60
f 60 51 16
f 35 34 60
f 11 49 60
f 32 64 60
f 28 59 60
f 36 68 60
f 60 25 24
f 22 55 60
f 60 57 26
f 60 23 22
f 60 49 13
f 66 65 60
f 60 64 66
f 30 31 60
f 60 59 30
f 60 27 58
f 60 39 38
f 68 37 60
f 24 57 60
f 21 23 60
f 53 20 60
f 16 15 60
f 17 52 60
f 58 29 60
f 15 18 60
f 63 62 60
f 60 54 21
f 60 52 53
f 60 61 191
f 191 115 60
f 60 115 157
f 157 63 60
f 142 15 141
f 142 18 15
f 17 18 142
f 142 143 17
f 186 10 7
f 186 135 10
f 7 8 134
f 134 186 7
f 185 8 6
f 185 134 8
f 133 130 129
f 127 104 133
f 82 102 133
f 105 124 133
f 103 167 133
f 128 105 133
f 132 106 133
f 133 124 125
f 133 96 178
f 133 129 128
f 133 81 82
f 84 83 133
f 133 79 169
f 166 165 133
f 89 88 133
f 122 121 133
f 133 95 99
f 133 83 81
f 133 101 97
f 133 182 100
f 74 73 133
f 133 123 122
f 133 106 131
f 133 120 163
f 187 109 133
f 178 177 133
f 133 180 183
f 133 87 86
f 133 126 127
f 136 135 133
f 133 165 123
f 133 119 162
f 131 130 133
f 133 113 155
f 133 177 95
f 97 96 133
f 133 115 191
f 133 140 187
f 99 179 133
f 125 126 133
f 184 103 133
f 133 73 184
f 133 168 166
f 169 75 133
f 158 116 133
f 133 112 154
f 108 139 133
f 133 109 108
f 133 117 160
f 107 138 133
f 102 101 133
f 133 98 181
f 181 180 133
f 183 182 133
f 133 85 84
f 104 94 133
f 133 93 92
f 133 90 89
f 133 172 74
f 171 77 133
f 100 174 133
f 133 76 171
f 162 192 133
f 164 120 133
f 133 121 164
f 163 119 133
f 133 111 151
f 133 139 107
f 146 145 133
f 141 140 133
f 133 179 98
f 86 85 133
f 138 137 133
f 133 91 175
f 94 93 133
f 175 90 133
f 133 167 168
f 78 172 133
f 133 77 78
f 92 176 133
f 160 159 133
f 118 161 133
f 133 192 118
f 155 112 133
f 191 114 133
f 189 111 133
f 154 153 133
f 133 152 189
f 133 148 188
f 151 150 133
f 88 87 133
f 133 176 91
f 133 75 173
f 173 170 133
f 80 79 133
f 133 174 80
f 133 159 158
f 133 116 157
f 161 117 133
f 133 114 156
f 156 113 133
f 133 153 190
f 190 152 133
f 188 110 133
f 133 147 146
f 145 144 133
f 133 137 136
f 135 186 133
f 170 76 133
f 157 115 133
f 110 147 133
f 149 148 133
f 133 150 149
f 144 143 133
f 133 142 141
f 143 142 133
f 186 134 133
f 134 185 133
f 133 47 48
f 133 48 132
f 6 47 133
f 133 185 6

