# https://github.com/mikedh/trimesh
v -0.00796952 -0.02229548 -0.01833513
v 0.00270696 -0.02132693 -0.01833513
v -0.00866027 -0.02138416 -0.01833513
v -0.00866338 -0.02146933 -0.01833513
v -0.00866070 -0.02155333 -0.01833513
v -0.00865222 -0.02163551 -0.01833513
v -0.00863802 -0.02171526 -0.01833513
v -0.00861822 -0.02179197 -0.01833513
v -0.00859296 -0.02186504 -0.01833513
v -0.00856241 -0.02193394 -0.01833513
v -0.00852684 -0.02199812 -0.01833513
v -0.00848650 -0.02205711 -0.01833513
v -0.00844170 -0.02211044 -0.01833513
v -0.00839279 -0.02215773 -0.01833513
v -0.00834012 -0.02219862 -0.01833513
v -0.00828411 -0.02223277 -0.01833513
v -0.00822519 -0.02225993 -0.01833513
v -0.00816379 -0.02227992 -0.01833513
v -0.00810039 -0.02229256 -0.01833513
v -0.00803547 -0.02229775 -0.01833513
v -0.00790492 -0.02137655 -0.02002953
v -0.00791223 -0.02148060 -0.01995814
v -0.00797829 -0.02148443 -0.01995505
v -0.00791424 -0.02150916 -0.01993675
v -0.00792155 -0.02161312 -0.01985167
v -0.00798759 -0.02161669 -0.01984878
v -0.00792301 -0.02163389 -0.01983319
v -0.00793020 -0.02173617 -0.01973397
v -0.00799623 -0.02173951 -0.01973131
v -0.00793116 -0.02174987 -0.01971955
v -0.00793812 -0.02184886 -0.01960593
v -0.00800413 -0.02185198 -0.01960351
v -0.00793865 -0.02185632 -0.01959660
v -0.00794526 -0.02195033 -0.01946847
v -0.00801125 -0.02195326 -0.01946631
v -0.00795661 -0.02211178 -0.01918040
v -0.00795696 -0.02211674 -0.01916947
v -0.00802293 -0.02211936 -0.01916788
v -0.00796096 -0.02217372 -0.01902900
v -0.00796144 -0.02218045 -0.01901013
v -0.00802740 -0.02218295 -0.01900885
v -0.00796445 -0.02222327 -0.01887293
v -0.00796495 -0.02223049 -0.01884580
v -0.00803091 -0.02223289 -0.01884483
v -0.00796704 -0.02226012 -0.01871325
v -0.00796749 -0.02226651 -0.01867769
v -0.00803344 -0.02226884 -0.01867704
v -0.00796872 -0.02228402 -0.01855102
v -0.00796901 -0.02228823 -0.01850704
v -0.00803496 -0.02229052 -0.01850672
v -0.00866001 -0.02138053 -0.01842109
v -0.00866310 -0.02146538 -0.01842858
v -0.00866040 -0.02154907 -0.01843601
v -0.00865190 -0.02163095 -0.01844333
v -0.00863768 -0.02171039 -0.01845049
v -0.00861786 -0.02178680 -0.01845741
v -0.00859257 -0.02185960 -0.01846407
v -0.00856201 -0.02192822 -0.01847039
v -0.00852642 -0.02199216 -0.01847634
v -0.00848607 -0.02205091 -0.01848187
v -0.00844125 -0.02210404 -0.01848693
v -0.00839232 -0.02215114 -0.01849150
v -0.00833965 -0.02219184 -0.01849553
v -0.00828363 -0.02222585 -0.01849899
v -0.00822469 -0.02225290 -0.01850186
v -0.00816329 -0.02227279 -0.01850412
v -0.00809988 -0.02228535 -0.01850574
v -0.00809837 -0.02226381 -0.01867509
v -0.00816179 -0.02225144 -0.01867186
v -0.00822321 -0.02223184 -0.01866736
v -0.00828217 -0.02220515 -0.01866164
v -0.00833822 -0.02217158 -0.01865475
v -0.00839093 -0.02213138 -0.01864672
v -0.00843990 -0.02208486 -0.01863762
v -0.00848476 -0.02203238 -0.01862752
v -0.00852516 -0.02197432 -0.01861651
v -0.00856081 -0.02191114 -0.01860465
v -0.00859143 -0.02184331 -0.01859205
v -0.00861677 -0.02177136 -0.01857880
v -0.00863666 -0.02169582 -0.01856499
v -0.00865094 -0.02161728 -0.01855074
v -0.00865950 -0.02153632 -0.01853615
v -0.00866227 -0.02145358 -0.01852134
v -0.00865925 -0.02136967 -0.01850641
v -0.00809586 -0.02222807 -0.01884192
v -0.00815930 -0.02221604 -0.01883710
v -0.00822075 -0.02219690 -0.01883040
v -0.00827976 -0.02217083 -0.01882188
v -0.00833586 -0.02213798 -0.01881159
v -0.00838863 -0.02209863 -0.01879963
v -0.00843767 -0.02205306 -0.01878607
v -0.00848260 -0.02200164 -0.01877102
v -0.00852308 -0.02194474 -0.01875459
v -0.00855882 -0.02188281 -0.01873692
v -0.00858953 -0.02181631 -0.01871813
v -0.00861497 -0.02174574 -0.01869838
v -0.00863496 -0.02167165 -0.01867780
v -0.00864935 -0.02159461 -0.01865655
v -0.00865802 -0.02151519 -0.01863480
v -0.00866090 -0.02143400 -0.01861272
v -0.00865799 -0.02135166 -0.01859047
v -0.00809237 -0.02217840 -0.01900500
v -0.00815584 -0.02216684 -0.01899863
v -0.00821734 -0.02214837 -0.01898978
v -0.00827641 -0.02212312 -0.01897851
v -0.00833258 -0.02209129 -0.01896492
v -0.00838543 -0.02205310 -0.01894910
v -0.00843456 -0.02200887 -0.01893117
v -0.00847960 -0.02195892 -0.01891128
v -0.00852019 -0.02190364 -0.01888957
v -0.00855605 -0.02184343 -0.01886621
v -0.00858689 -0.02177877 -0.01884138
v -0.00861247 -0.02171014 -0.01881526
v -0.00863260 -0.02163808 -0.01878806
v -0.00864713 -0.02156311 -0.01875998
v -0.00865595 -0.02148582 -0.01873124
v -0.00865899 -0.02140680 -0.01870205
v -0.00865623 -0.02132664 -0.01867263
v -0.00808792 -0.02211517 -0.01916313
v -0.00815144 -0.02210422 -0.01915525
v -0.00821300 -0.02208659 -0.01914431
v -0.00827214 -0.02206240 -0.01913038
v -0.00832840 -0.02203185 -0.01911358
v -0.00838136 -0.02199516 -0.01909402
v -0.00843061 -0.02195261 -0.01907187
v -0.00847578 -0.02190455 -0.01904728
v -0.00851652 -0.02185130 -0.01902045
v -0.00855253 -0.02179330 -0.01899157
v -0.00858353 -0.02173099 -0.01896088
v -0.00860928 -0.02166483 -0.01892860
v -0.00862959 -0.02159533 -0.01889498
v -0.00864432 -0.02152301 -0.01886027
v -0.00865332 -0.02144844 -0.01882474
v -0.00865655 -0.02137217 -0.01878865
v -0.00865399 -0.02129479 -0.01875230
v -0.00795155 -0.02203984 -0.01932262
v -0.00801753 -0.02204261 -0.01932074
v -0.00808256 -0.02203886 -0.01931512
v -0.00814612 -0.02202864 -0.01930580
v -0.00820776 -0.02201201 -0.01929285
v -0.00826698 -0.02198911 -0.01927636
v -0.00832335 -0.02196009 -0.01925647
v -0.00837644 -0.02192521 -0.01923333
v -0.00842583 -0.02188471 -0.01920711
v -0.00847116 -0.02183891 -0.01917801
v -0.00851207 -0.02178814 -0.01914625
v -0.00854827 -0.02173280 -0.01911208
v -0.00857948 -0.02167332 -0.01907575
v -0.00860544 -0.02161014 -0.01903754
v -0.00862597 -0.02154373 -0.01899775
v -0.00864091 -0.02147462 -0.01895666
v -0.00865015 -0.02140331 -0.01891461
v -0.00865361 -0.02133037 -0.01887191
v -0.00865128 -0.02125634 -0.01882887
v -0.00864814 -0.02121158 -0.01890180
v -0.00865019 -0.02128170 -0.01895119
v -0.00864646 -0.02135078 -0.01900020
v -0.00863695 -0.02141827 -0.01904846
v -0.00862174 -0.02148366 -0.01909561
v -0.00860096 -0.02154646 -0.01914128
v -0.00857476 -0.02160617 -0.01918513
v -0.00854332 -0.02166237 -0.01922683
v -0.00850691 -0.02171462 -0.01926605
v -0.00846579 -0.02176250 -0.01930249
v -0.00842028 -0.02180567 -0.01933589
v -0.00837072 -0.02184379 -0.01936599
v -0.00831748 -0.02187658 -0.01939255
v -0.00826099 -0.02190378 -0.01941538
v -0.00820165 -0.02192519 -0.01943430
v -0.00813994 -0.02194064 -0.01944916
v -0.00807631 -0.02195002 -0.01945986
v -0.00806923 -0.02184932 -0.01959627
v -0.00813293 -0.02184090 -0.01958428
v -0.00819473 -0.02182678 -0.01956761
v -0.00825419 -0.02180706 -0.01954639
v -0.00831082 -0.02178190 -0.01952080
v -0.00836423 -0.02175149 -0.01949102
v -0.00841398 -0.02171606 -0.01945727
v -0.00845970 -0.02167588 -0.01941982
v -0.00850105 -0.02163126 -0.01937895
v -0.00853771 -0.02158253 -0.01933498
v -0.00856941 -0.02153007 -0.01928823
v -0.00859589 -0.02147427 -0.01923906
v -0.00861696 -0.02141557 -0.01918785
v -0.00863246 -0.02135440 -0.01913498
v -0.00864227 -0.02129123 -0.01908086
v -0.00864631 -0.02122655 -0.01902591
v -0.00864457 -0.02116084 -0.01897053
v -0.00806137 -0.02173749 -0.01972335
v -0.00812514 -0.02173013 -0.01971014
v -0.00818705 -0.02171749 -0.01969180
v -0.00824663 -0.02169965 -0.01966844
v -0.00830343 -0.02167677 -0.01964027
v -0.00835702 -0.02164900 -0.01960749
v -0.00840698 -0.02161656 -0.01957034
v -0.00845294 -0.02157970 -0.01952912
v -0.00849454 -0.02153870 -0.01948413
v -0.00853147 -0.02149387 -0.01943572
v -0.00856346 -0.02144556 -0.01938426
v -0.00859025 -0.02139412 -0.01933014
v -0.00861164 -0.02133996 -0.01927377
v -0.00862748 -0.02128348 -0.01921557
v -0.00863762 -0.02122511 -0.01915601
v -0.00864201 -0.02116530 -0.01909551
v -0.00864061 -0.02110450 -0.01903455
v -0.00805278 -0.02161537 -0.01984015
v -0.00811663 -0.02160917 -0.01982583
v -0.00817866 -0.02159814 -0.01980594
v -0.00823839 -0.02158237 -0.01978062
v -0.00829536 -0.02156195 -0.01975008
v -0.00834915 -0.02153708 -0.01971454
v -0.00839934 -0.02150790 -0.01967427
v -0.00844556 -0.02147467 -0.01962958
v -0.00848743 -0.02143763 -0.01958081
v -0.00852467 -0.02139706 -0.01952832
v -0.00855698 -0.02135327 -0.01947253
v -0.00858410 -0.02130659 -0.01941386
v -0.00860583 -0.02125739 -0.01935274
v -0.00862203 -0.02120602 -0.01928965
v -0.00863255 -0.02115290 -0.01922507
v -0.00863730 -0.02109841 -0.01915949
v -0.00863628 -0.02104298 -0.01909340
v -0.00804354 -0.02148386 -0.01994581
v -0.00810748 -0.02147892 -0.01993049
v -0.00816962 -0.02146963 -0.01990920
v -0.00822951 -0.02145606 -0.01988211
v -0.00828667 -0.02143831 -0.01984942
v -0.00834068 -0.02141654 -0.01981138
v -0.00839111 -0.02139089 -0.01976828
v -0.00843760 -0.02136156 -0.01972045
v -0.00847978 -0.02132878 -0.01966826
v -0.00851734 -0.02129279 -0.01961209
v -0.00854999 -0.02125388 -0.01955238
v -0.00857747 -0.02121233 -0.01948959
v -0.00859958 -0.02116847 -0.01942418
v -0.00861617 -0.02112261 -0.01935666
v -0.00862708 -0.02107514 -0.01928755
v -0.00863224 -0.02102637 -0.01921736
v -0.00863162 -0.02097671 -0.01914663
v -0.00790232 -0.02133960 -0.02005259
v -0.00796840 -0.02134370 -0.02004932
v -0.00803370 -0.02134394 -0.02003954
v -0.00809773 -0.02134032 -0.02002333
v -0.00816001 -0.02133288 -0.02000080
v -0.00822006 -0.02132166 -0.01997213
v -0.00827742 -0.02130677 -0.01993754
v -0.00833166 -0.02128829 -0.01989729
v -0.00838236 -0.02126639 -0.01985168
v -0.00842914 -0.02124121 -0.01980107
v -0.00847164 -0.02121297 -0.01974584
v -0.00850954 -0.02118186 -0.01968641
v -0.00854255 -0.02114814 -0.01962322
v -0.00857042 -0.02111204 -0.01955677
v -0.00859293 -0.02107385 -0.01948756
v -0.00860993 -0.02103387 -0.01941611
v -0.00862126 -0.02099240 -0.01934298
v -0.00862685 -0.02094974 -0.01926870
v -0.00862667 -0.02090622 -0.01919386
v -0.00862145 -0.02083200 -0.01923473
v -0.00862118 -0.02086904 -0.01931313
v -0.00861514 -0.02090529 -0.01939094
v -0.00860336 -0.02094045 -0.01946756
v -0.00858593 -0.02097426 -0.01954241
v -0.00856300 -0.02100646 -0.01961491
v -0.00853473 -0.02103681 -0.01968453
v -0.00850133 -0.02106508 -0.01975072
v -0.00846307 -0.02109105 -0.01981298
v -0.00842023 -0.02111451 -0.01987084
v -0.00837315 -0.02113531 -0.01992386
v -0.00832217 -0.02115328 -0.01997164
v -0.00826768 -0.02116828 -0.02001381
v -0.00821011 -0.02118019 -0.02005004
v -0.00814989 -0.02118892 -0.02008008
v -0.00808747 -0.02119441 -0.02010368
v -0.00802334 -0.02119663 -0.02012066
v -0.00795798 -0.02119554 -0.02013090
v -0.00789189 -0.02119117 -0.02013433
v 0.00270947 -0.02132668 -0.01834619
v 0.00270787 -0.02132684 -0.01834145
v 0.00270718 -0.02132691 -0.01833806
v 0.00271631 -0.02132595 -0.01835880
v 0.00271306 -0.02132630 -0.01835350
v 0.00271090 -0.02132653 -0.01834940
v 0.00288851 -0.02129907 -0.01855112
v 0.00286229 -0.02130423 -0.01852298
v 0.00278780 -0.02131680 -0.01844232
v 0.00274366 -0.02132278 -0.01839310
v 0.00272184 -0.02132534 -0.01836657
v 0.00301077 -0.02126997 -0.01868134
v 0.00304079 -0.02126155 -0.01871312
v 0.00306361 -0.02125480 -0.01873722
v 0.00319279 -0.02121115 -0.01887277
v 0.00322673 -0.02115879 -0.01902900
v 0.00322388 -0.02119924 -0.01890518
v 0.00322846 -0.02113410 -0.01909361
v 0.00323108 -0.02109686 -0.01918040
v 0.00324228 -0.02093763 -0.01946516
v 0.00323824 -0.02099511 -0.01937435
v 0.00323628 -0.02102297 -0.01932611
v 0.00327345 -0.02049424 -0.01993675
v 0.00327184 -0.02051709 -0.01991905
v 0.00326468 -0.02061896 -0.01983319
v 0.00326087 -0.02067320 -0.01978236
v 0.00325653 -0.02073495 -0.01971955
v 0.00325093 -0.02081448 -0.01962965
v 0.00324904 -0.02084140 -0.01959660
v 0.00329580 -0.02017625 -0.02013433
v 0.00329259 -0.02022199 -0.02011092
v 0.00327769 -0.02043398 -0.01998093
v 0.00328277 -0.02036162 -0.02002953
v 0.00328999 -0.02025894 -0.02009087
v 0.00393754 -0.02070552 -0.01952393
v 0.00391528 -0.02076508 -0.01946025
v 0.00380693 -0.02075312 -0.01953637
v 0.00334170 -0.02036394 -0.02002304
v 0.00334883 -0.02027690 -0.02007644
v 0.00340837 -0.02029443 -0.02005982
v 0.00340031 -0.02037975 -0.02000601
v 0.00357905 -0.02042429 -0.01994102
v 0.00351908 -0.02040993 -0.01996507
v 0.00352917 -0.02032793 -0.02001945
v 0.00408511 -0.02062580 -0.01952305
v 0.00405704 -0.02065304 -0.01951047
v 0.00395928 -0.02064312 -0.01958507
v 0.00389680 -0.02079588 -0.01942893
v 0.00386727 -0.02081998 -0.01941215
v 0.00378736 -0.02081195 -0.01946799
v 0.00427723 -0.02041909 -0.01959428
v 0.00422723 -0.02047664 -0.01957833
v 0.00414204 -0.02046198 -0.01965554
v 0.00403832 -0.02037425 -0.01979690
v 0.00412949 -0.02039246 -0.01972636
v 0.00416179 -0.02039861 -0.01969945
v 0.00378786 -0.02031773 -0.01995405
v 0.00377493 -0.02038849 -0.01990806
v 0.00376484 -0.02031206 -0.01996607
v 0.00371321 -0.02037418 -0.01993992
v 0.00372511 -0.02030205 -0.01998592
v 0.00366675 -0.02028690 -0.02001308
v 0.00365162 -0.02035932 -0.01996906
v 0.00366169 -0.02028556 -0.02001533
v 0.00359024 -0.02034389 -0.01999554
v 0.00360017 -0.02026891 -0.02004128
v 0.00347109 -0.02023182 -0.02008775
v 0.00347664 -0.02023348 -0.02008597
v 0.00340331 -0.02021109 -0.02010798
v 0.00335536 -0.02019585 -0.02012060
v 0.00351939 -0.02100816 -0.01927301
v 0.00352510 -0.02105438 -0.01917826
v 0.00350566 -0.02105348 -0.01918828
v 0.00349983 -0.02106863 -0.01915801
v 0.00364740 -0.02091334 -0.01938390
v 0.00366697 -0.02096679 -0.01928414
v 0.00363036 -0.02096433 -0.01930599
v 0.00363185 -0.02098968 -0.01925914
v 0.00361887 -0.02099795 -0.01924970
v 0.00376746 -0.02086761 -0.01939713
v 0.00366429 -0.02085883 -0.01945943
v 0.00375281 -0.02090734 -0.01934203
v 0.00373539 -0.02091981 -0.01933065
v 0.00376518 -0.02089834 -0.01935000
v 0.00402648 -0.02068193 -0.01949619
v 0.00399304 -0.02071261 -0.01947986
v 0.00393088 -0.02076722 -0.01944764
v 0.00390678 -0.02078757 -0.01943449
v 0.00376019 -0.02046432 -0.01985370
v 0.00369970 -0.02045150 -0.01988541
v 0.00363929 -0.02043815 -0.01991449
v 0.00350884 -0.02048914 -0.01990657
v 0.00337639 -0.02061789 -0.01981875
v 0.00338430 -0.02054165 -0.01988527
v 0.00349851 -0.02056540 -0.01984414
v 0.00362667 -0.02051425 -0.01985611
v 0.00336857 -0.02069078 -0.01974840
v 0.00348809 -0.02063855 -0.01977797
v 0.00361381 -0.02058748 -0.01979410
v 0.00374504 -0.02053747 -0.01979583
v 0.00339228 -0.02046221 -0.01994776
v 0.00345946 -0.02039508 -0.01998671
v 0.00346852 -0.02031143 -0.02004085
v 0.00351800 -0.02024565 -0.02007208
v 0.00353818 -0.02025147 -0.02006492
v 0.00334861 -0.02019367 -0.02012226
v 0.00333470 -0.02044808 -0.01996505
v 0.00382612 -0.02069122 -0.01960212
v 0.00369744 -0.02073965 -0.01960273
v 0.00368098 -0.02080089 -0.01953243
v 0.00357402 -0.02078854 -0.01958799
v 0.00356047 -0.02084891 -0.01951320
v 0.00345660 -0.02083791 -0.01955891
v 0.00354683 -0.02090574 -0.01943565
v 0.00344611 -0.02089717 -0.01947968
v 0.00353313 -0.02095885 -0.01935553
v 0.00343567 -0.02095258 -0.01939766
v 0.00342530 -0.02100398 -0.01931304
v 0.00341504 -0.02105124 -0.01922601
v 0.00340490 -0.02109421 -0.01913676
v 0.00345056 -0.02109530 -0.01911726
v 0.00339921 -0.02112151 -0.01907292
v 0.00359685 -0.02101171 -0.01923343
v 0.00398283 -0.02036255 -0.01983613
v 0.00402092 -0.02043992 -0.01975189
v 0.00400101 -0.02051022 -0.01969919
v 0.00411942 -0.02052979 -0.01960432
v 0.00409604 -0.02059516 -0.01955042
v 0.00398045 -0.02057798 -0.01964354
v 0.00391340 -0.02034726 -0.01988156
v 0.00389828 -0.02041540 -0.01983587
v 0.00388101 -0.02048837 -0.01978213
v 0.00386320 -0.02055874 -0.01972515
v 0.00382066 -0.02047661 -0.01981930
v 0.00383665 -0.02040224 -0.01987340
v 0.00382670 -0.02032713 -0.01993290
v 0.00336085 -0.02076015 -0.01967443
v 0.00347761 -0.02070845 -0.01970825
v 0.00360072 -0.02065769 -0.01972862
v 0.00372950 -0.02060783 -0.01973460
v 0.00416929 -0.02053980 -0.01955754
v 0.00384489 -0.02062639 -0.01966510
v 0.00371363 -0.02067527 -0.01967018
v 0.00358745 -0.02072477 -0.01965986
v 0.00346711 -0.02077496 -0.01963517
v 0.00335326 -0.02082583 -0.01959704
v 0.00334582 -0.02088767 -0.01951643
v 0.00333854 -0.02094549 -0.01943280
v 0.00333145 -0.02099915 -0.01934637
v 0.00332456 -0.02104846 -0.01925733
v 0.00331790 -0.02109327 -0.01916588
v 0.00337537 -0.02113314 -0.01905167
v 0.00336533 -0.02113794 -0.01904258
v 0.00329517 -0.02116980 -0.01897675
v 0.00348951 -0.01984588 -0.02027514
v 0.00343713 -0.01979354 -0.02029956
v 0.00347151 -0.01969253 -0.02033721
v 0.00355010 -0.01944960 -0.02041804
v 0.00357235 -0.01937779 -0.02043936
v 0.00363518 -0.01943394 -0.02041881
v 0.00359426 -0.01994694 -0.02021738
v 0.00364653 -0.01999555 -0.02018414
v 0.00355343 -0.02017988 -0.02010308
v 0.00405497 -0.02033262 -0.01982007
v 0.00364612 -0.02026800 -0.02003051
v 0.00346036 -0.02008688 -0.02016622
v 0.00341379 -0.02003864 -0.02019416
v 0.00442027 -0.02003016 -0.01981423
v 0.00452410 -0.02009197 -0.01967811
v 0.00439269 -0.02027617 -0.01963053
v 0.00350692 -0.02013397 -0.02013585
v 0.00375058 -0.02008872 -0.02010920
v 0.00385363 -0.02017619 -0.02002329
v 0.00395524 -0.02025762 -0.01992678
v 0.00354190 -0.01989703 -0.02024773
v 0.00336724 -0.01998928 -0.02021963
v 0.00343279 -0.01980608 -0.02029472
v 0.00400891 -0.01974304 -0.02021435
v 0.00390817 -0.01994387 -0.02014253
v 0.00394732 -0.01969508 -0.02025781
v 0.00385131 -0.01989750 -0.02018537
v 0.00388549 -0.01964572 -0.02029751
v 0.00369866 -0.02004282 -0.02014807
v 0.00379412 -0.01984963 -0.02022501
v 0.00378043 -0.01969880 -0.02029819
v 0.00382317 -0.01959478 -0.02033360
v 0.00365993 -0.01959429 -0.02036006
v 0.00369796 -0.01948885 -0.02039429
v 0.00358186 -0.01979844 -0.02028664
v 0.00369201 -0.01989924 -0.02022332
v 0.00350550 -0.01958953 -0.02037314
v 0.00353911 -0.01948460 -0.02040723
v 0.00359952 -0.01954006 -0.02038551
v 0.00362121 -0.01969751 -0.02032413
v 0.00373667 -0.01980030 -0.02026139
v 0.00424713 -0.02005578 -0.01991360
v 0.00430690 -0.01995729 -0.01994514
v 0.00413395 -0.01997662 -0.02002933
v 0.00418985 -0.01987682 -0.02006306
v 0.00401804 -0.01989042 -0.02013233
v 0.00406977 -0.01978926 -0.02016746
v 0.00396462 -0.01998867 -0.02009654
v 0.00407602 -0.02007339 -0.01999534
v 0.00418500 -0.02015123 -0.01988226
v 0.00429098 -0.02022175 -0.01975773
v 0.00349032 -0.01963589 -0.02035727
v -0.00783716 -0.02041283 -0.02043936
v -0.00786497 -0.02080837 -0.02030376
v -0.00790330 -0.02041780 -0.02043571
v -0.00793109 -0.02081304 -0.02030021
v -0.00796879 -0.02042066 -0.02042477
v -0.00799651 -0.02081500 -0.02028958
v -0.00803313 -0.02042139 -0.02040663
v -0.00806075 -0.02081423 -0.02027195
v -0.00809583 -0.02041998 -0.02038143
v -0.00812330 -0.02081075 -0.02024746
v -0.00815642 -0.02041643 -0.02034936
v -0.00818371 -0.02080456 -0.02021630
v -0.00821443 -0.02041080 -0.02031066
v -0.00824149 -0.02079574 -0.02017870
v -0.00826943 -0.02040310 -0.02026564
v -0.00829623 -0.02078433 -0.02013494
v -0.00832099 -0.02039340 -0.02021462
v -0.00834749 -0.02077043 -0.02008537
v -0.00836872 -0.02038177 -0.02015801
v -0.00839490 -0.02075415 -0.02003035
v -0.00841225 -0.02036832 -0.02009622
v -0.00843808 -0.02073559 -0.01997031
v -0.00845128 -0.02035313 -0.02002973
v -0.00847671 -0.02071492 -0.01990570
v -0.00848548 -0.02033631 -0.01995906
v -0.00851051 -0.02069230 -0.01983702
v -0.00851460 -0.02031800 -0.01988472
v -0.00853919 -0.02066787 -0.01976478
v -0.00853841 -0.02029835 -0.01980730
v -0.00856256 -0.02064183 -0.01968955
v -0.00855675 -0.02027749 -0.01972738
v -0.00858044 -0.02061440 -0.01961188
v -0.00856946 -0.02025559 -0.01964556
v -0.00859267 -0.02058575 -0.01953237
v -0.00857645 -0.02023282 -0.01956248
v -0.00859918 -0.02055614 -0.01945163
v -0.00857767 -0.02020933 -0.01947875
v -0.00859992 -0.02052576 -0.01937027
v 0.00791125 0.00300788 -0.02040000
v 0.00786528 -0.00045756 -0.02040000
v 0.00764919 -0.00188583 -0.02040000
v 0.00793049 0.00285425 -0.02040000
v 0.00796479 0.00038186 -0.02040000
v 0.00800897 0.00121768 -0.02040000
v 0.00799751 0.00204383 -0.02040000
v 0.00756797 -0.00189320 -0.01960838
v 0.00761190 -0.00188921 -0.01986102
v 0.00791125 0.00300788 -0.01890000
v 0.00440428 -0.00851112 -0.01740009
v 0.00460196 -0.00849319 -0.01741331
v -0.00521171 -0.00785572 -0.01740000
v -0.00772519 -0.00808373 -0.01740000
v 0.00562635 -0.01525609 -0.01845407
v 0.00600625 -0.01274503 -0.01999512
v -0.00638842 -0.00007309 -0.02400000
v -0.00628602 0.00058384 -0.02400000
v -0.00614675 0.00123693 -0.02400000
v -0.00597600 0.00186729 -0.02400000
v -0.00645339 -0.00073022 -0.02400000
v -0.00698899 -0.00834845 -0.02400000
v -0.00040683 0.00625530 -0.02400000
v -0.00034591 0.00629915 -0.02400000
v -0.00028310 0.00633660 -0.02400000
v -0.00021886 0.00636739 -0.02400000
v -0.00008803 0.00640809 -0.02400000
v 0.00016951 0.00640288 -0.02400000
v 0.00023024 0.00638351 -0.02400000
v 0.00028859 0.00635713 -0.02400000
v -0.00002240 0.00641770 -0.02400000
v 0.00004272 0.00642003 -0.02400000
v 0.00010685 0.00641508 -0.02400000
v -0.00015368 0.00639127 -0.02400000
v 0.00534392 -0.00722964 -0.02400000
v 0.00786528 -0.00045756 -0.02400000
v 0.00614547 -0.00659990 -0.02400000
v 0.00620871 -0.00650992 -0.02400000
v 0.00626957 -0.00641839 -0.02400000
v 0.00638817 -0.00622636 -0.02400000
v 0.00646805 -0.00608699 -0.02400000
v 0.00730960 -0.00412998 -0.02399996
v 0.00665165 -0.00573640 -0.02400000
v 0.00671118 -0.00561371 -0.02400000
v 0.00678280 -0.00546025 -0.02400000
v 0.00796479 0.00038186 -0.02400000
v 0.00800897 0.00121768 -0.02400000
v 0.00799751 0.00204383 -0.02400000
v 0.00798582 0.00225026 -0.02400000
v 0.00691492 -0.00516030 -0.02400000
v 0.00700767 -0.00493651 -0.02400000
v 0.00704487 -0.00484362 -0.02400000
v 0.00718094 -0.00448850 -0.02400000
v 0.00561926 -0.00713087 -0.02400000
v 0.00556418 -0.00716169 -0.02400000
v 0.00594672 -0.00684765 -0.02400000
v 0.00602353 -0.00675832 -0.02400000
v 0.00606714 -0.00670397 -0.02400000
v 0.00586137 -0.00693708 -0.02400000
v 0.00576677 -0.00702367 -0.02400000
v 0.00568921 -0.00708439 -0.02400000
v 0.00539307 -0.00722262 -0.02400000
v 0.00544437 -0.00721013 -0.02400000
v 0.00550347 -0.00718951 -0.02400000
v -0.00296794 0.00791290 -0.02240000
v -0.00673648 0.00190263 -0.02240000
v -0.00408446 0.00683101 -0.02240000
v -0.00459580 0.00621202 -0.02240000
v -0.00507080 0.00554689 -0.02240000
v -0.00550600 0.00484048 -0.02240000
v -0.00354051 0.00739936 -0.02240000
v -0.00654260 0.00252639 -0.02240000
v -0.00624459 0.00332470 -0.02240000
v -0.00589822 0.00409794 -0.02240000
v 0.00394013 0.00920406 -0.02240000
v 0.00450307 0.00890276 -0.02240000
v 0.00798582 0.00225026 -0.02240000
v 0.00793049 0.00285425 -0.02240000
v 0.00780839 0.00364304 -0.02240000
v 0.00335123 0.00943740 -0.02240000
v 0.00274068 0.00960106 -0.02240000
v 0.00211292 0.00969386 -0.02240000
v 0.00147255 0.00971511 -0.02240000
v -0.00175376 0.00876102 -0.02240000
v 0.00740293 0.00513291 -0.02240000
v 0.00763211 0.00440445 -0.02240000
v 0.00712253 0.00582311 -0.02240000
v 0.00679294 0.00647001 -0.02240000
v -0.00237090 0.00836789 -0.02240000
v 0.00641659 0.00706890 -0.02240000
v 0.00553488 0.00810552 -0.02240000
v 0.00599621 0.00761540 -0.02240000
v 0.00503595 0.00853568 -0.02240000
v -0.00112102 0.00908941 -0.02240000
v -0.00047731 0.00935067 -0.02240000
v 0.00017269 0.00954289 -0.02240000
v 0.00082423 0.00966466 -0.02240000
v 0.00568314 -0.01488069 -0.02108284
v 0.00513667 -0.01849264 -0.02010281
v 0.00677617 -0.00765619 -0.02304306
v -0.00721305 -0.00079914 -0.01890000
v -0.00712652 0.00003999 -0.01890000
v -0.00408446 0.00683101 -0.01890000
v -0.00459580 0.00621202 -0.01890000
v -0.00507080 0.00554689 -0.01890000
v -0.00354051 0.00739936 -0.01890000
v -0.00296794 0.00791290 -0.01890000
v -0.00654260 0.00252639 -0.01890000
v -0.00679007 0.00170884 -0.01890000
v -0.00698518 0.00087802 -0.01890000
v -0.00237090 0.00836789 -0.01890000
v -0.00550600 0.00484048 -0.01890000
v -0.00589822 0.00409794 -0.01890000
v -0.00624459 0.00332470 -0.01890000
v -0.00175376 0.00876102 -0.01890000
v -0.00112102 0.00908941 -0.01890000
v -0.00047731 0.00935067 -0.01890000
v 0.00679294 0.00647001 -0.01890000
v 0.00641659 0.00706890 -0.01890000
v 0.00712253 0.00582311 -0.01890000
v 0.00740293 0.00513291 -0.01890000
v 0.00763211 0.00440445 -0.01890000
v 0.00780839 0.00364304 -0.01890000
v 0.00147255 0.00971511 -0.01890000
v 0.00082423 0.00966466 -0.01890000
v 0.00017269 0.00954289 -0.01890000
v 0.00394013 0.00920406 -0.01890000
v 0.00335123 0.00943740 -0.01890000
v 0.00599621 0.00761540 -0.01890000
v 0.00553488 0.00810552 -0.01890000
v 0.00211292 0.00969386 -0.01890000
v 0.00274068 0.00960106 -0.01890000
v 0.00450307 0.00890276 -0.01890000
v 0.00503595 0.00853568 -0.01890000
v 0.00509913 -0.01870268 -0.02004593
v 0.00270896 -0.02132673 -0.01834224
v 0.00509308 -0.01873148 -0.02003815
v 0.00503222 -0.01897777 -0.01754028
v 0.00499358 -0.01910716 -0.01748781
v 0.00497548 -0.01916294 -0.01992231
v 0.00495014 -0.01923665 -0.01743522
v 0.00490187 -0.01936578 -0.01738267
v 0.00509530 -0.01872102 -0.01764412
v 0.00506611 -0.01884886 -0.01759245
v 0.00504512 -0.01893074 -0.01998449
v 0.00498991 -0.01911876 -0.01993411
v 0.00481078 -0.01957895 -0.01981202
v 0.00483599 -0.01952329 -0.01982669
v 0.00490503 -0.01935776 -0.01987047
v 0.00484877 -0.01949413 -0.01733036
v 0.00479089 -0.01962122 -0.01727846
v 0.00474267 -0.01971886 -0.01977526
v 0.00470531 -0.01979003 -0.01975662
v 0.00472830 -0.01974658 -0.01722716
v 0.00466113 -0.01986973 -0.01717666
v 0.00463865 -0.01990873 -0.01972565
v 0.00458895 -0.01999119 -0.01970422
v 0.00382359 -0.01873514 -0.02062348
v 0.00380287 -0.01883227 -0.02059519
v 0.00383892 -0.01863761 -0.02065204
v 0.00377689 -0.01892849 -0.02056731
v 0.00374577 -0.01902328 -0.02053999
v 0.00370963 -0.01911613 -0.02051338
v 0.00366860 -0.01920650 -0.02048765
v 0.00362280 -0.01929390 -0.02046292
v -0.00721305 -0.00079914 -0.02300000
v -0.00773888 -0.00827842 -0.02300000
v -0.00714086 -0.00006899 -0.02300000
v -0.00712652 0.00003999 -0.02300000
v -0.00702708 0.00066093 -0.02300000
v -0.00698518 0.00087802 -0.02300000
v -0.00687234 0.00138659 -0.02300000
v -0.00679007 0.00170884 -0.02300000
v -0.00673648 0.00190263 -0.02300000
v -0.00616586 0.00187611 -0.02396842
v -0.00617309 0.00187645 -0.02396593
v -0.00603403 0.00186998 -0.02399709
v -0.00604239 0.00187038 -0.02399619
v -0.00639794 0.00188690 -0.02383225
v -0.00641251 0.00188757 -0.02381916
v -0.00609455 0.00187280 -0.02398781
v -0.00615471 0.00187559 -0.02397207
v -0.00658261 0.00189548 -0.02360346
v -0.00659914 0.00189624 -0.02357359
v -0.00622382 0.00187880 -0.02394555
v -0.00628022 0.00188143 -0.02391668
v -0.00629771 0.00188224 -0.02390631
v -0.00633505 0.00188397 -0.02388176
v -0.00638824 0.00188644 -0.02384061
v -0.00644643 0.00188915 -0.02378603
v -0.00649203 0.00189127 -0.02373490
v -0.00651400 0.00189228 -0.02370712
v -0.00653467 0.00189324 -0.02367883
v -0.00657429 0.00189508 -0.02361767
v -0.00669974 0.00190091 -0.02330733
v -0.00671062 0.00190142 -0.02325882
v -0.00671563 0.00190165 -0.02323274
v -0.00661650 0.00189705 -0.02353947
v -0.00664652 0.00189845 -0.02347215
v -0.00666534 0.00189932 -0.02342262
v -0.00667261 0.00189965 -0.02340146
v -0.00669467 0.00190068 -0.02332730
v -0.00673411 0.00190251 -0.02307913
v -0.00673359 0.00190249 -0.02308716
v -0.00672711 0.00190219 -0.02315669
v -0.00702211 -0.00835133 -0.02399905
v -0.00705516 -0.00835393 -0.02399619
v -0.00708806 -0.00835626 -0.02399145
v -0.00712075 -0.00835831 -0.02398481
v -0.00715318 -0.00836008 -0.02397630
v -0.00718527 -0.00836155 -0.02396592
v -0.00721697 -0.00836275 -0.02395372
v -0.00724822 -0.00836364 -0.02393969
v -0.00727895 -0.00836425 -0.02392388
v -0.00730912 -0.00836456 -0.02390631
v -0.00733866 -0.00836458 -0.02388701
v -0.00736751 -0.00836430 -0.02386603
v -0.00739562 -0.00836372 -0.02384339
v -0.00742295 -0.00836286 -0.02381915
v -0.00744942 -0.00836169 -0.02379335
v -0.00747500 -0.00836025 -0.02376604
v -0.00749964 -0.00835851 -0.02373728
v -0.00752329 -0.00835648 -0.02370711
v -0.00756743 -0.00835161 -0.02364279
v -0.00760710 -0.00834566 -0.02357358
v -0.00764199 -0.00833867 -0.02350000
v -0.00767184 -0.00833069 -0.02342262
v -0.00769641 -0.00832178 -0.02334202
v -0.00771553 -0.00831204 -0.02325882
v -0.00772904 -0.00830151 -0.02317365
v -0.00773684 -0.00829027 -0.02308716
v -0.00721016 -0.00079887 -0.02308716
v -0.00720152 -0.00079809 -0.02317365
v -0.00718717 -0.00079679 -0.02325882
v -0.00716724 -0.00079498 -0.02334202
v -0.00714188 -0.00079268 -0.02342262
v -0.00711128 -0.00078990 -0.02350000
v -0.00707567 -0.00078667 -0.02357358
v -0.00703532 -0.00078301 -0.02364279
v -0.00699056 -0.00077895 -0.02370711
v -0.00694170 -0.00077452 -0.02376604
v -0.00688912 -0.00076975 -0.02381915
v -0.00683322 -0.00076468 -0.02386603
v -0.00677444 -0.00075935 -0.02390631
v -0.00671321 -0.00075379 -0.02393969
v -0.00665001 -0.00074806 -0.02396592
v -0.00658531 -0.00074219 -0.02398481
v -0.00651960 -0.00073623 -0.02399619
v -0.00686958 0.00138603 -0.02308716
v -0.00702426 0.00066064 -0.02308716
v -0.00633455 0.00127567 -0.02396592
v -0.00639492 0.00128812 -0.02393969
v -0.00627275 0.00126292 -0.02398481
v -0.00621000 0.00124997 -0.02399619
v -0.00645340 0.00130018 -0.02390631
v -0.00650955 0.00131176 -0.02386603
v -0.00656293 0.00132278 -0.02381915
v -0.00661316 0.00133313 -0.02376604
v -0.00665983 0.00134276 -0.02370711
v -0.00670259 0.00135158 -0.02364279
v -0.00674112 0.00135953 -0.02357358
v -0.00677514 0.00136654 -0.02350000
v -0.00680436 0.00137257 -0.02342262
v -0.00682859 0.00137756 -0.02334202
v -0.00684762 0.00138149 -0.02325882
v -0.00686133 0.00138432 -0.02317365
v -0.00713800 -0.00006900 -0.02308716
v -0.00712943 -0.00006905 -0.02317365
v -0.00711523 -0.00006913 -0.02325882
v -0.00709548 -0.00006924 -0.02334202
v -0.00707036 -0.00006937 -0.02342262
v -0.00704005 -0.00006954 -0.02350000
v -0.00700479 -0.00006973 -0.02357358
v -0.00696483 -0.00006995 -0.02364279
v -0.00692048 -0.00007019 -0.02370711
v -0.00687208 -0.00007046 -0.02376604
v -0.00682000 -0.00007074 -0.02381915
v -0.00676464 -0.00007104 -0.02386603
v -0.00670642 -0.00007135 -0.02390631
v -0.00664577 -0.00007169 -0.02393969
v -0.00658316 -0.00007203 -0.02396592
v -0.00651908 -0.00007238 -0.02398481
v -0.00645400 -0.00007273 -0.02399619
v -0.00701583 0.00065976 -0.02317365
v -0.00700183 0.00065830 -0.02325882
v -0.00698239 0.00065628 -0.02334202
v -0.00695765 0.00065371 -0.02342262
v -0.00692780 0.00065060 -0.02350000
v -0.00689306 0.00064699 -0.02357358
v -0.00685371 0.00064289 -0.02364279
v -0.00681003 0.00063835 -0.02370711
v -0.00676236 0.00063339 -0.02376604
v -0.00671108 0.00062805 -0.02381915
v -0.00665655 0.00062238 -0.02386603
v -0.00659921 0.00061642 -0.02390631
v -0.00653948 0.00061020 -0.02393969
v -0.00647782 0.00060380 -0.02396592
v -0.00641470 0.00059723 -0.02398481
v -0.00635061 0.00059056 -0.02399619
v 0.00499645 -0.01852452 -0.02021931
v 0.00506420 -0.01850976 -0.02016528
v 0.00392455 -0.01863705 -0.02064759
v 0.00401118 -0.01863528 -0.02063879
v 0.00409554 -0.01863239 -0.02062609
v 0.00418274 -0.01862818 -0.02060868
v 0.00426537 -0.01862305 -0.02058814
v 0.00435263 -0.01861640 -0.02056211
v 0.00443309 -0.01860913 -0.02053411
v 0.00451991 -0.01860002 -0.02049948
v 0.00459777 -0.01859073 -0.02046441
v 0.00468361 -0.01857918 -0.02042120
v 0.00475848 -0.01856797 -0.02037944
v 0.00484276 -0.01855398 -0.02032768
v 0.00491426 -0.01854094 -0.02027960
v 0.00375700 -0.01939188 -0.02042144
v 0.00389073 -0.01948476 -0.02036420
v 0.00491503 -0.01891924 -0.02011134
v 0.00479108 -0.01930649 -0.02000655
v 0.00462578 -0.01967915 -0.01990686
v 0.00452798 -0.01985781 -0.01985954
v 0.00496112 -0.01872237 -0.02016505
v 0.00480999 -0.01873849 -0.02027641
v 0.00465351 -0.01874987 -0.02037318
v 0.00449262 -0.01875651 -0.02045494
v 0.00440708 -0.01979682 -0.01998789
v 0.00428220 -0.01972858 -0.02010304
v 0.00415404 -0.01965355 -0.02020449
v 0.00402332 -0.01957213 -0.02029171
v 0.00432824 -0.01875838 -0.02052128
v 0.00416133 -0.01875546 -0.02057176
v 0.00449806 -0.01963040 -0.02003255
v 0.00436608 -0.01957479 -0.02014483
v 0.00423060 -0.01951268 -0.02024321
v 0.00409235 -0.01944444 -0.02032717
v 0.00395210 -0.01937042 -0.02039623
v 0.00381060 -0.01929099 -0.02044989
v 0.00471353 -0.01949508 -0.01995595
v 0.00457970 -0.01945887 -0.02007889
v 0.00444135 -0.01941621 -0.02018820
v 0.00429928 -0.01936739 -0.02028341
v 0.00415428 -0.01931267 -0.02036401
v 0.00400713 -0.01925237 -0.02042953
v 0.00385865 -0.01918675 -0.02047949
v 0.00465186 -0.01928309 -0.02012668
v 0.00450788 -0.01925366 -0.02023295
v 0.00435997 -0.01921838 -0.02032489
v 0.00420896 -0.01917750 -0.02040203
v 0.00405571 -0.01913121 -0.02046391
v 0.00390103 -0.01907973 -0.02051005
v 0.00485830 -0.01911424 -0.02005843
v 0.00471439 -0.01910387 -0.02017568
v 0.00456550 -0.01908789 -0.02027883
v 0.00441250 -0.01906643 -0.02036744
v 0.00425628 -0.01903962 -0.02044105
v 0.00409768 -0.01900760 -0.02049920
v 0.00393760 -0.01897051 -0.02054143
v 0.00476714 -0.01892206 -0.02022567
v 0.00461409 -0.01891970 -0.02032565
v 0.00445677 -0.01891222 -0.02041086
v 0.00429608 -0.01889969 -0.02048086
v 0.00413293 -0.01888214 -0.02053520
v 0.00396823 -0.01885965 -0.02057346
v 0.00399280 -0.01874772 -0.02060597
v 0.00217220 -0.02137545 -0.01714286
v -0.00866027 -0.02138416 -0.01714286
v -0.00866338 -0.02146933 -0.01714286
v -0.00866070 -0.02155333 -0.01714286
v -0.00865222 -0.02163551 -0.01714286
v -0.00863802 -0.02171526 -0.01714286
v -0.00861822 -0.02179197 -0.01714286
v -0.00859296 -0.02186504 -0.01714286
v -0.00852684 -0.02199812 -0.01714286
v -0.00848650 -0.02205711 -0.01714286
v -0.00839279 -0.02215773 -0.01714286
v -0.00834012 -0.02219862 -0.01714286
v -0.00828411 -0.02223277 -0.01714286
v -0.00816379 -0.02227992 -0.01714286
v -0.00810039 -0.02229256 -0.01714286
v -0.00803547 -0.02229775 -0.01714286
v 0.00341683 -0.01176265 -0.01714286
v -0.00713577 -0.01272006 -0.01714286
v 0.00548432 -0.01617865 -0.01714286
v 0.00550274 -0.01600720 -0.01714286
v 0.00551621 -0.01583326 -0.01714286
v 0.00552442 -0.01565742 -0.01714286
v 0.00552778 -0.01547566 -0.01714286
v 0.00534865 -0.01397056 -0.01714286
v 0.00552563 -0.01529145 -0.01714286
v 0.00530065 -0.01378430 -0.01714286
v 0.00518937 -0.01342044 -0.01714286
v 0.00550416 -0.01491727 -0.01714286
v 0.00491399 -0.01274980 -0.01714286
v 0.00498831 -0.01291003 -0.01714286
v 0.00548458 -0.01472882 -0.01714286
v 0.00475522 -0.01245565 -0.01714286
v 0.00483604 -0.01259894 -0.01714286
v 0.00458563 -0.01219800 -0.01714286
v 0.00545933 -0.01453829 -0.01714286
v 0.00440681 -0.01198532 -0.01714286
v 0.00449730 -0.01208544 -0.01714286
v 0.00542815 -0.01434826 -0.01714286
v 0.00381801 -0.01172661 -0.01714286
v 0.00392156 -0.01172324 -0.01714286
v 0.00412211 -0.01177585 -0.01714286
v 0.00431346 -0.01190269 -0.01714286
v 0.00539119 -0.01415889 -0.01714286
v 0.00518671 -0.01816194 -0.01714286
v 0.00546225 -0.01634067 -0.01714286
v 0.00286322 -0.02130402 -0.01714286
v 0.00284040 -0.02130787 -0.01714286
v 0.00294192 -0.02128701 -0.01714286
v 0.00305852 -0.02125626 -0.01714286
v 0.00305052 -0.02125850 -0.01714286
v 0.00306444 -0.02125450 -0.01714286
v 0.00461223 -0.01995199 -0.01714286
v 0.00458951 -0.01999020 -0.01714286
v 0.00451389 -0.02010713 -0.01714286
v 0.00443749 -0.02021582 -0.01714286
v 0.00426379 -0.02043489 -0.01714286
v 0.00407948 -0.02063125 -0.01714286
v 0.00416417 -0.02054484 -0.01714286
v 0.00417194 -0.02053690 -0.01714286
v 0.00398409 -0.02072058 -0.01714286
v 0.00398808 -0.02071693 -0.01714286
v 0.00378181 -0.02088600 -0.01714286
v 0.00388634 -0.02080441 -0.01714286
v 0.00397654 -0.02072722 -0.01714286
v 0.00358745 -0.02101734 -0.01714286
v 0.00368063 -0.02095758 -0.01714286
v 0.00367481 -0.02096138 -0.01714286
v 0.00377730 -0.02088924 -0.01714286
v 0.00377995 -0.02088735 -0.01714286
v 0.00347235 -0.02108358 -0.01714286
v 0.00346215 -0.02108879 -0.01714286
v 0.00348179 -0.02107848 -0.01714286
v 0.00358361 -0.02101974 -0.01714286
v 0.00357077 -0.02102739 -0.01714286
v 0.00317327 -0.02121826 -0.01714286
v 0.00314123 -0.02122908 -0.01714286
v 0.00318042 -0.02121552 -0.01714286
v 0.00335722 -0.02114139 -0.01714286
v 0.00337220 -0.02113459 -0.01714286
v 0.00513669 -0.01849253 -0.01714286
v 0.00509530 -0.01872100 -0.01714286
v 0.00507285 -0.01881932 -0.01714286
v 0.00499359 -0.01910715 -0.01714286
v 0.00479089 -0.01962122 -0.01714286
v 0.00473145 -0.01974029 -0.01714286
v 0.00472830 -0.01974658 -0.01714286
v 0.00466252 -0.01986720 -0.01714286
v -0.00796952 -0.02229548 -0.01714286
v -0.00856241 -0.02193394 -0.01714286
v -0.00844170 -0.02211044 -0.01714286
v -0.00822519 -0.02225993 -0.01714286
v -0.00820158 -0.01485980 -0.01714286
v -0.00727311 -0.01299373 -0.01714286
v 0.00524738 -0.01360124 -0.01714286
v 0.00551744 -0.01510748 -0.01714286
v 0.00512633 -0.01324623 -0.01714286
v 0.00505960 -0.01307351 -0.01714286
v 0.00467174 -0.01232132 -0.01714286
v 0.00402283 -0.01174049 -0.01714286
v 0.00421909 -0.01182979 -0.01714286
v 0.00539543 -0.01678235 -0.01714286
v 0.00544108 -0.01648064 -0.01714286
v 0.00297598 -0.02127892 -0.01714286
v 0.00270280 -0.02132731 -0.01714286
v 0.00443195 -0.02022358 -0.01714286
v 0.00435248 -0.02032769 -0.01714286
v 0.00426000 -0.02043926 -0.01714286
v 0.00417717 -0.02053120 -0.01714286
v 0.00407650 -0.02063414 -0.01714286
v 0.00388236 -0.02080765 -0.01714286
v 0.00379679 -0.02087450 -0.01714286
v 0.00358969 -0.02101592 -0.01714286
v 0.00325989 -0.02118456 -0.01714286
v 0.00511840 -0.01859349 -0.01714286
v 0.00506611 -0.01884885 -0.01714286
v 0.00503222 -0.01897775 -0.01714286
v 0.00495708 -0.01921596 -0.01714286
v 0.00495014 -0.01923664 -0.01714286
v 0.00490187 -0.01936577 -0.01714286
v 0.00485444 -0.01948042 -0.01714286
v 0.00484877 -0.01949413 -0.01714286
v 0.00466113 -0.01986973 -0.01714286
f 636 535 637
f 600 570 607
f 535 625 626
f 626 633 535
f 487 484 485
f 613 611 570
f 570 551 596
f 531 527 528
f 526 527 531
f 689 622 623
f 623 622 535
f 553 604 603
f 697 586 544
f 637 535 638
f 535 647 638
f 646 647 535
f 535 534 646
f 646 534 645
f 610 544 586
f 526 531 529
f 649 532 648
f 653 532 649
f 669 1005 668
f 486 484 487
f 436 435 484
f 468 485 484
f 612 570 614
f 612 613 570
f 650 533 640
f 640 533 639
f 533 641 639
f 614 570 597
f 570 596 597
f 601 549 602
f 570 600 599
f 525 531 528
f 822 821 566
f 687 622 689
f 671 1005 669
f 843 834 835
f 833 834 843
f 843 844 833
f 843 878 844
f 821 822 842
f 835 821 842
f 842 843 835
f 844 878 879
f 865 866 873
f 620 964 656
f 656 822 620
f 656 842 822
f 553 603 554
f 602 549 554
f 554 603 602
f 631 535 630
f 631 623 535
f 623 631 691
f 691 631 692
f 809 784 783
f 605 615 546
f 592 586 706
f 706 586 697
f 494 735 492
f 535 976 977
f 977 902 535
f 901 534 535
f 535 902 901
f 624 625 535
f 535 636 632
f 632 628 535
f 592 708 588
f 526 529 530
f 530 529 903
f 532 653 652
f 645 534 652
f 534 532 652
f 669 668 858
f 682 436 484
f 682 543 556
f 484 543 682
f 484 435 469
f 469 468 484
f 655 533 651
f 533 650 651
f 607 570 606
f 570 608 606
f 570 611 609
f 609 608 570
f 982 916 533
f 654 648 532
f 654 533 655
f 532 533 654
f 549 601 550
f 550 601 596
f 550 596 551
f 522 599 600
f 598 525 528
f 531 644 919
f 574 557 563
f 574 563 620
f 526 530 523
f 523 530 903
f 878 843 838
f 843 842 838
f 838 871 878
f 859 852 860
f 860 866 859
f 866 865 859
f 865 858 859
f 929 523 903
f 842 656 658
f 666 838 658
f 658 838 842
f 965 656 998
f 998 656 964
f 689 623 690
f 623 691 690
f 698 544 541
f 698 541 540
f 544 702 703
f 545 610 605
f 605 546 545
f 544 610 545
f 547 615 616
f 547 546 615
f 707 708 592
f 592 706 707
f 727 542 543
f 728 769 727
f 769 542 727
f 727 543 484
f 727 486 728
f 484 486 727
f 768 804 769
f 768 731 767
f 494 492 493
f 490 731 488
f 491 493 490
f 490 493 492
f 734 492 735
f 504 506 745
f 781 780 812
f 812 811 781
f 795 812 796
f 811 812 795
f 796 761 795
f 795 761 760
f 736 735 494
f 7 56 8
f 924 532 534
f 1 885 972
f 535 628 627
f 627 624 535
f 709 588 708
f 589 588 710
f 588 709 710
f 591 590 715
f 693 631 630
f 692 631 693
f 720 783 784
f 535 633 634
f 634 635 535
f 620 563 621
f 563 557 621
f 669 858 670
f 670 671 669
f 485 453 277
f 311 240 277
f 913 641 533
f 913 914 641
f 981 642 641
f 641 914 981
f 531 906 905
f 531 979 909
f 912 979 531
f 922 644 927
f 922 919 644
f 564 821 835
f 827 581 580
f 752 518 688
f 751 518 752
f 688 518 520
f 520 518 521
f 514 751 750
f 750 749 514
f 79 80 97
f 81 99 98
f 98 97 81
f 81 97 80
f 661 871 667
f 667 838 666
f 871 838 667
f 667 967 661
f 667 660 967
f 878 871 872
f 872 865 873
f 873 879 872
f 872 879 878
f 867 868 875
f 867 866 860
f 928 964 620
f 536 537 524
f 557 523 524
f 524 621 557
f 537 621 524
f 664 656 965
f 965 658 664
f 664 658 656
f 999 1000 666
f 1003 670 1002
f 1005 671 1004
f 808 784 809
f 808 785 784
f 808 807 785
f 809 783 810
f 783 782 810
f 781 811 810
f 810 782 781
f 810 795 794
f 811 795 810
f 699 702 544
f 544 698 699
f 697 544 696
f 544 703 696
f 616 617 555
f 555 547 616
f 538 542 769
f 769 804 538
f 802 768 767
f 801 817 802
f 731 768 730
f 488 731 730
f 739 738 496
f 767 731 732
f 731 490 732
f 733 490 492
f 492 734 733
f 733 732 490
f 767 732 733
f 746 745 506
f 508 747 746
f 746 506 508
f 744 761 743
f 759 795 760
f 794 795 759
f 496 738 737
f 737 494 496
f 737 736 494
f 697 696 772
f 772 706 697
f 772 696 703
f 534 901 923
f 923 924 534
f 701 589 700
f 589 710 700
f 780 713 712
f 712 590 589
f 712 713 590
f 705 591 704
f 591 715 704
f 704 782 705
f 781 782 704
f 704 715 781
f 590 713 714
f 714 715 590
f 781 715 714
f 714 780 781
f 714 713 780
f 694 693 630
f 786 805 787
f 721 595 591
f 591 720 721
f 721 720 784
f 783 720 719
f 705 782 719
f 719 782 783
f 719 591 705
f 719 720 591
f 594 725 724
f 724 593 594
f 620 621 619
f 619 621 537
f 619 536 620
f 619 537 536
f 507 506 504
f 509 508 507
f 508 506 507
f 742 741 500
f 500 743 742
f 839 670 858
f 839 858 865
f 839 871 661
f 661 670 839
f 865 872 839
f 839 872 871
f 671 670 663
f 663 670 1003
f 434 433 485
f 432 434 471
f 433 434 432
f 23 21 22
f 487 485 276
f 485 277 276
f 307 277 453
f 853 847 854
f 860 852 853
f 447 989 990
f 681 682 556
f 436 685 686
f 533 916 917
f 917 913 533
f 643 642 978
f 531 905 904
f 903 529 904
f 904 529 531
f 907 906 531
f 531 909 907
f 531 919 915
f 915 912 531
f 571 572 620
f 620 822 571
f 571 822 566
f 573 574 620
f 620 572 573
f 562 834 833
f 833 561 562
f 835 834 562
f 562 564 835
f 566 821 565
f 821 564 565
f 583 584 823
f 583 681 556
f 823 681 583
f 576 825 824
f 559 560 831
f 559 831 558
f 558 831 830
f 516 518 751
f 751 514 516
f 512 514 749
f 98 99 115
f 55 81 80
f 55 56 7
f 79 56 55
f 55 80 79
f 5 4 53
f 6 55 7
f 5 53 6
f 660 667 659
f 659 1000 967
f 967 660 659
f 666 1000 659
f 659 667 666
f 861 867 860
f 860 853 861
f 861 853 854
f 854 862 861
f 862 868 861
f 868 867 861
f 985 928 620
f 666 658 665
f 665 999 666
f 658 999 665
f 966 658 965
f 966 999 658
f 661 967 1001
f 1001 1002 661
f 662 670 661
f 661 1002 662
f 662 1002 670
f 771 690 691
f 771 691 692
f 689 690 788
f 690 771 788
f 788 771 805
f 754 753 788
f 788 753 687
f 788 687 689
f 807 808 791
f 757 756 791
f 774 703 702
f 774 772 703
f 775 698 540
f 775 699 698
f 702 699 775
f 775 774 702
f 548 617 618
f 548 555 617
f 803 802 819
f 804 768 803
f 768 802 803
f 819 802 818
f 818 802 817
f 817 772 818
f 818 774 819
f 772 774 818
f 488 730 729
f 728 486 729
f 729 486 488
f 729 768 769
f 729 769 728
f 729 730 768
f 800 817 801
f 800 816 817
f 763 739 740
f 740 741 763
f 773 707 706
f 706 772 773
f 773 772 817
f 777 710 709
f 813 812 780
f 9 56 57
f 9 8 56
f 925 984 532
f 711 589 701
f 711 712 589
f 692 693 770
f 770 771 692
f 693 694 770
f 770 787 805
f 805 771 770
f 770 724 725
f 694 724 770
f 594 595 717
f 249 230 231
f 249 267 268
f 268 267 503
f 503 501 268
f 501 500 498
f 498 739 496
f 740 739 498
f 498 741 740
f 498 500 741
f 268 501 269
f 269 249 268
f 673 970 675
f 968 668 1005
f 485 468 483
f 483 434 485
f 454 432 453
f 433 432 454
f 454 453 485
f 485 433 454
f 471 472 466
f 466 432 471
f 24 23 22
f 24 301 25
f 487 276 489
f 489 486 487
f 488 486 489
f 489 490 488
f 491 490 489
f 223 243 242
f 49 286 1
f 285 286 49
f 349 958 956
f 310 240 311
f 310 21 240
f 680 823 682
f 682 681 680
f 575 825 576
f 582 825 575
f 826 825 582
f 826 582 581
f 826 581 827
f 437 686 685
f 435 436 437
f 436 686 437
f 437 469 435
f 911 978 642
f 643 978 910
f 576 824 585
f 823 584 585
f 585 824 823
f 827 850 881
f 827 580 828
f 828 850 827
f 844 831 832
f 832 831 560
f 833 844 832
f 832 560 561
f 832 561 833
f 579 830 578
f 579 558 830
f 855 862 854
f 459 849 457
f 457 461 459
f 456 449 458
f 458 461 457
f 83 53 52
f 52 53 4
f 749 748 510
f 510 512 749
f 510 748 747
f 510 747 508
f 510 508 509
f 79 97 96
f 78 56 79
f 57 56 78
f 79 96 78
f 509 265 264
f 509 507 266
f 266 265 509
f 266 507 267
f 253 264 252
f 252 264 265
f 265 266 252
f 82 53 83
f 99 81 82
f 81 53 82
f 81 55 54
f 55 6 54
f 54 53 81
f 54 6 53
f 116 115 99
f 116 133 115
f 99 117 116
f 116 117 133
f 188 156 155
f 156 154 155
f 100 117 99
f 100 82 83
f 99 82 100
f 133 117 134
f 521 518 519
f 536 524 986
f 620 536 986
f 986 985 620
f 523 929 986
f 986 524 523
f 754 788 789
f 789 788 805
f 809 810 793
f 793 810 794
f 793 759 758
f 794 759 793
f 793 758 757
f 807 791 806
f 806 805 786
f 786 785 806
f 785 807 806
f 540 539 820
f 820 775 540
f 539 538 820
f 820 538 804
f 820 803 819
f 804 803 820
f 819 774 820
f 774 775 820
f 552 548 618
f 618 604 552
f 552 604 553
f 742 743 762
f 743 761 762
f 762 741 742
f 762 763 741
f 738 739 764
f 739 763 764
f 764 737 738
f 764 799 800
f 817 816 776
f 776 773 817
f 708 707 776
f 707 773 776
f 776 709 708
f 776 777 709
f 778 700 710
f 710 777 778
f 701 700 778
f 778 711 701
f 532 924 983
f 983 925 532
f 533 920 921
f 926 920 533
f 926 533 532
f 532 984 926
f 726 725 594
f 726 770 725
f 787 770 726
f 629 587 630
f 630 535 629
f 535 635 629
f 593 724 695
f 695 724 694
f 250 249 231
f 267 249 250
f 163 145 146
f 145 144 126
f 231 230 213
f 231 213 214
f 214 213 196
f 167 141 142
f 143 166 142
f 142 166 167
f 104 122 121
f 105 122 104
f 267 507 505
f 505 503 267
f 505 507 504
f 502 500 501
f 501 503 502
f 502 505 504
f 503 505 502
f 745 744 502
f 504 745 502
f 502 744 743
f 743 500 502
f 501 498 499
f 496 497 499
f 499 498 496
f 673 668 672
f 672 968 673
f 668 968 672
f 969 970 673
f 673 968 969
f 453 432 444
f 444 307 453
f 346 347 443
f 472 461 467
f 26 24 25
f 23 24 26
f 26 223 23
f 275 489 276
f 23 223 241
f 223 242 241
f 21 23 241
f 240 21 241
f 241 277 240
f 241 276 277
f 241 275 276
f 242 275 241
f 848 855 854
f 849 855 848
f 854 847 848
f 430 431 293
f 988 286 931
f 930 285 284
f 840 668 673
f 840 858 668
f 840 841 852
f 852 859 840
f 840 859 858
f 841 678 445
f 846 853 852
f 847 853 846
f 852 841 846
f 841 445 846
f 33 306 34
f 679 681 823
f 823 680 679
f 679 680 681
f 862 855 863
f 682 823 683
f 436 682 683
f 683 685 436
f 468 469 470
f 469 437 470
f 470 483 468
f 470 464 471
f 471 434 470
f 434 483 470
f 642 981 980
f 980 911 642
f 643 910 908
f 908 644 643
f 927 644 908
f 823 824 884
f 884 883 823
f 884 824 825
f 825 883 884
f 882 881 875
f 827 881 882
f 882 883 825
f 880 881 850
f 880 879 873
f 577 828 580
f 578 830 829
f 829 577 578
f 828 577 829
f 850 828 829
f 462 472 471
f 471 464 462
f 462 461 472
f 462 459 461
f 51 4 3
f 51 52 4
f 51 84 83
f 83 52 51
f 129 148 128
f 111 94 112
f 111 129 128
f 112 129 111
f 112 94 95
f 95 94 78
f 95 96 112
f 95 78 96
f 216 217 234
f 253 252 234
f 511 510 509
f 509 264 511
f 253 234 235
f 231 214 232
f 118 117 101
f 117 100 101
f 83 84 101
f 101 100 83
f 153 154 156
f 133 134 153
f 156 157 153
f 135 117 118
f 135 134 117
f 154 153 135
f 135 153 134
f 257 258 260
f 518 516 517
f 517 519 518
f 517 260 519
f 517 516 514
f 792 808 809
f 809 793 792
f 792 791 808
f 757 791 792
f 792 793 757
f 790 789 805
f 805 806 790
f 790 806 791
f 790 756 755
f 790 791 756
f 790 755 754
f 754 789 790
f 763 762 797
f 797 761 796
f 797 762 761
f 796 812 797
f 812 813 797
f 816 800 815
f 800 799 815
f 815 776 816
f 777 776 815
f 815 778 777
f 736 737 765
f 737 764 765
f 735 736 765
f 765 764 800
f 711 778 779
f 780 712 779
f 712 711 779
f 779 813 780
f 533 921 918
f 918 982 533
f 20 49 1
f 716 717 595
f 595 723 716
f 786 717 716
f 716 785 786
f 716 723 785
f 785 723 722
f 784 785 722
f 722 721 784
f 595 721 722
f 722 723 595
f 594 717 718
f 718 726 594
f 787 726 718
f 786 787 718
f 718 717 786
f 178 179 196
f 164 145 163
f 163 179 164
f 147 162 163
f 163 146 147
f 128 148 147
f 147 148 162
f 165 166 143
f 143 144 165
f 165 144 145
f 145 164 165
f 177 166 165
f 165 178 177
f 179 178 165
f 165 164 179
f 127 146 145
f 145 126 127
f 128 147 127
f 127 147 146
f 127 111 128
f 162 148 161
f 161 182 162
f 183 182 161
f 162 182 181
f 163 162 181
f 67 19 18
f 67 20 19
f 43 42 292
f 44 85 41
f 41 42 44
f 42 43 44
f 44 43 45
f 60 61 12
f 58 10 9
f 58 9 57
f 57 78 58
f 104 121 103
f 85 86 103
f 443 444 452
f 432 466 452
f 452 444 432
f 308 347 311
f 311 277 308
f 277 307 308
f 274 493 491
f 491 489 274
f 489 275 274
f 274 242 243
f 274 275 242
f 271 499 497
f 497 272 271
f 493 272 495
f 495 272 497
f 494 493 495
f 496 494 495
f 495 497 496
f 229 213 230
f 230 249 229
f 849 848 455
f 455 848 478
f 457 849 455
f 456 458 455
f 455 458 457
f 455 477 456
f 455 478 477
f 962 997 431
f 294 997 961
f 431 997 294
f 292 42 294
f 37 36 296
f 296 427 428
f 299 427 296
f 296 136 299
f 296 36 136
f 430 293 295
f 295 296 428
f 37 296 295
f 40 293 431
f 431 294 40
f 40 294 42
f 40 42 41
f 428 427 396
f 399 295 428
f 349 956 351
f 287 286 988
f 1 286 287
f 930 284 932
f 285 49 48
f 48 284 285
f 677 678 841
f 937 678 677
f 677 936 937
f 1006 936 677
f 677 676 1006
f 456 477 479
f 477 475 479
f 447 445 446
f 446 445 678
f 938 939 446
f 446 937 938
f 446 678 937
f 474 846 445
f 847 846 474
f 329 991 992
f 482 445 447
f 297 34 306
f 176 166 177
f 167 166 176
f 994 995 326
f 389 387 358
f 392 390 389
f 25 301 302
f 870 863 864
f 870 683 823
f 864 437 870
f 437 683 870
f 856 863 855
f 856 855 849
f 849 459 856
f 864 863 856
f 684 437 685
f 685 683 684
f 684 683 437
f 857 437 864
f 857 836 437
f 864 856 857
f 437 836 465
f 465 470 437
f 464 470 465
f 851 826 827
f 827 882 851
f 825 826 851
f 851 882 825
f 875 868 876
f 876 882 875
f 883 882 876
f 874 880 873
f 873 866 874
f 866 867 874
f 874 867 875
f 875 881 874
f 881 880 874
f 845 829 830
f 830 831 845
f 845 880 850
f 850 829 845
f 845 831 844
f 844 879 845
f 879 880 845
f 148 129 130
f 130 149 148
f 130 129 112
f 216 234 233
f 233 234 252
f 233 232 216
f 252 232 233
f 183 184 200
f 200 217 216
f 183 161 160
f 148 149 160
f 160 161 148
f 218 234 217
f 218 235 234
f 217 200 218
f 251 250 231
f 231 232 251
f 251 266 267
f 267 250 251
f 251 252 266
f 251 232 252
f 133 153 152
f 152 153 157
f 152 151 133
f 159 160 149
f 159 184 183
f 183 160 159
f 186 157 156
f 205 204 188
f 221 204 205
f 205 222 221
f 221 238 237
f 237 238 257
f 239 258 257
f 257 238 239
f 221 222 239
f 239 238 221
f 259 260 258
f 521 519 259
f 519 260 259
f 763 797 798
f 798 764 763
f 799 764 798
f 798 815 799
f 778 815 814
f 813 779 814
f 814 779 778
f 815 798 814
f 814 797 813
f 814 798 797
f 767 733 766
f 766 733 734
f 766 734 735
f 735 765 766
f 766 802 767
f 801 802 766
f 766 800 801
f 766 765 800
f 17 16 64
f 195 178 196
f 111 127 110
f 110 127 126
f 122 105 106
f 106 105 89
f 89 107 106
f 199 181 182
f 199 200 216
f 199 182 183
f 183 200 199
f 197 214 196
f 89 105 88
f 88 105 104
f 17 64 65
f 49 20 50
f 20 67 50
f 50 48 49
f 61 74 73
f 15 14 63
f 63 64 15
f 15 64 16
f 443 452 438
f 438 467 439
f 438 452 466
f 438 466 472
f 472 467 438
f 383 308 307
f 347 308 383
f 307 444 383
f 383 444 443
f 443 347 383
f 273 272 493
f 493 274 273
f 499 271 270
f 270 269 501
f 501 499 270
f 249 269 248
f 248 229 249
f 22 21 309
f 21 310 309
f 346 344 317
f 317 344 345
f 39 40 41
f 37 295 39
f 39 295 293
f 293 40 39
f 397 399 428
f 398 399 397
f 428 396 397
f 397 351 398
f 396 351 397
f 430 295 429
f 295 399 429
f 429 963 430
f 429 399 963
f 963 399 955
f 349 351 350
f 350 351 396
f 396 348 350
f 988 2 280
f 280 279 988
f 280 2 1
f 1 279 280
f 288 287 988
f 1 287 288
f 987 289 934
f 291 960 935
f 291 43 292
f 45 43 291
f 676 677 674
f 673 675 674
f 674 840 673
f 970 971 674
f 674 675 970
f 841 840 674
f 674 677 841
f 674 971 1006
f 1006 676 674
f 475 474 473
f 473 474 445
f 473 482 481
f 445 482 473
f 847 474 476
f 476 474 475
f 476 848 847
f 478 848 476
f 477 478 476
f 476 475 477
f 328 482 447
f 333 482 328
f 328 447 990
f 990 940 328
f 330 328 329
f 333 328 330
f 481 482 332
f 332 482 333
f 333 330 332
f 34 297 298
f 299 136 298
f 136 34 298
f 140 122 141
f 140 121 122
f 120 103 121
f 121 140 120
f 120 140 139
f 139 138 120
f 206 26 29
f 29 189 206
f 223 26 206
f 193 176 177
f 364 948 947
f 945 362 993
f 349 350 400
f 400 350 348
f 354 348 393
f 352 354 393
f 391 392 389
f 391 352 393
f 389 358 391
f 358 352 391
f 424 297 306
f 390 392 424
f 29 28 30
f 304 305 30
f 30 28 304
f 25 302 27
f 27 28 29
f 27 26 25
f 29 26 27
f 304 28 303
f 28 27 303
f 303 27 302
f 823 883 877
f 877 870 823
f 883 876 877
f 459 462 463
f 463 462 464
f 464 465 463
f 463 465 836
f 869 876 868
f 869 868 862
f 862 863 869
f 863 870 869
f 870 877 869
f 869 877 876
f 112 96 113
f 113 130 112
f 114 97 98
f 98 115 114
f 130 113 114
f 114 96 97
f 114 113 96
f 201 200 184
f 201 218 200
f 201 185 202
f 184 185 201
f 158 152 157
f 151 152 158
f 157 186 158
f 158 186 185
f 158 159 151
f 184 159 158
f 158 185 184
f 187 186 156
f 204 186 187
f 187 156 188
f 188 204 187
f 202 185 203
f 185 186 203
f 203 204 221
f 203 186 204
f 263 264 253
f 517 262 261
f 260 517 261
f 515 517 514
f 515 262 517
f 196 213 212
f 212 195 196
f 213 229 212
f 109 110 126
f 126 108 109
f 109 108 92
f 125 108 126
f 125 126 144
f 107 108 125
f 125 124 107
f 125 144 143
f 143 124 125
f 122 106 123
f 107 124 123
f 123 106 107
f 141 122 123
f 123 142 141
f 143 142 123
f 123 124 143
f 196 179 180
f 180 197 196
f 181 197 180
f 180 179 163
f 163 181 180
f 181 199 198
f 198 197 181
f 198 199 216
f 63 73 72
f 72 73 89
f 69 86 85
f 85 68 69
f 69 68 67
f 18 17 66
f 17 65 66
f 66 67 18
f 66 69 67
f 67 68 47
f 47 50 67
f 47 44 45
f 48 50 47
f 85 44 47
f 47 68 85
f 93 109 92
f 110 109 93
f 94 111 93
f 111 110 93
f 75 93 92
f 76 93 75
f 61 60 75
f 75 74 61
f 78 94 77
f 77 58 78
f 94 93 77
f 77 93 76
f 59 75 60
f 76 75 59
f 58 77 59
f 59 77 76
f 12 11 59
f 59 60 12
f 59 11 10
f 10 58 59
f 62 73 63
f 61 73 62
f 63 14 62
f 62 14 61
f 90 107 89
f 89 73 90
f 90 108 107
f 12 61 13
f 61 14 13
f 244 274 243
f 244 273 274
f 272 273 244
f 460 440 439
f 439 467 460
f 460 467 461
f 460 458 449
f 461 458 460
f 439 440 448
f 448 438 439
f 443 438 448
f 448 346 443
f 448 344 346
f 448 440 345
f 345 344 448
f 384 309 318
f 315 309 310
f 318 309 315
f 315 317 318
f 22 309 300
f 300 24 22
f 301 24 300
f 309 384 300
f 343 460 449
f 440 460 343
f 321 343 342
f 320 342 319
f 321 342 320
f 316 310 311
f 346 317 316
f 316 315 310
f 317 315 316
f 311 347 316
f 347 346 316
f 318 317 380
f 380 317 345
f 988 279 657
f 290 289 45
f 45 291 290
f 450 449 456
f 456 479 450
f 480 473 481
f 475 473 480
f 480 479 475
f 480 450 479
f 404 330 329
f 403 330 404
f 403 410 409
f 426 427 299
f 299 298 426
f 137 34 136
f 136 36 137
f 169 140 141
f 41 85 102
f 85 103 102
f 224 243 223
f 224 244 243
f 225 244 224
f 210 193 211
f 176 193 192
f 209 208 192
f 192 210 209
f 193 210 192
f 194 193 177
f 177 178 194
f 178 195 194
f 211 193 194
f 194 212 211
f 195 212 194
f 211 212 228
f 228 212 229
f 228 210 211
f 227 210 228
f 229 248 228
f 226 208 209
f 225 208 226
f 209 210 226
f 226 210 227
f 226 244 225
f 272 244 245
f 244 226 245
f 363 364 313
f 418 322 405
f 405 404 418
f 418 404 329
f 993 362 323
f 941 322 942
f 421 422 415
f 306 305 423
f 423 422 390
f 423 424 306
f 390 424 423
f 414 305 304
f 415 422 414
f 414 423 305
f 422 423 414
f 355 354 353
f 951 996 355
f 353 354 360
f 354 352 360
f 360 952 950
f 950 353 360
f 31 30 305
f 31 306 33
f 31 305 306
f 837 856 459
f 459 463 837
f 837 463 836
f 836 857 837
f 837 857 856
f 132 114 115
f 115 133 132
f 133 151 132
f 131 132 151
f 114 132 131
f 149 130 131
f 130 114 131
f 202 203 219
f 237 236 219
f 219 201 202
f 218 201 219
f 235 218 219
f 219 236 235
f 221 237 220
f 220 203 221
f 237 219 220
f 220 219 203
f 253 235 254
f 254 263 253
f 513 511 264
f 264 263 513
f 513 263 262
f 262 515 513
f 512 510 513
f 510 511 513
f 514 512 513
f 513 515 514
f 255 236 237
f 262 263 255
f 263 254 255
f 235 236 255
f 255 254 235
f 214 197 215
f 197 198 215
f 215 232 214
f 216 232 215
f 215 198 216
f 70 66 65
f 69 66 70
f 46 47 45
f 48 47 46
f 45 289 46
f 46 289 284
f 284 48 46
f 91 73 74
f 91 90 73
f 91 75 92
f 74 75 91
f 92 108 91
f 108 90 91
f 367 368 337
f 370 303 302
f 319 368 369
f 369 320 319
f 449 339 442
f 442 343 449
f 442 342 343
f 440 343 382
f 382 343 321
f 321 380 382
f 321 320 379
f 318 380 379
f 379 380 321
f 1 288 281
f 281 282 1
f 281 288 988
f 988 282 281
f 278 657 279
f 278 279 1
f 394 391 393
f 392 391 394
f 38 36 37
f 38 137 36
f 37 39 38
f 38 39 41
f 138 137 38
f 33 34 35
f 34 137 35
f 35 137 138
f 138 171 35
f 167 176 168
f 168 141 167
f 168 169 141
f 190 189 172
f 172 189 29
f 172 35 171
f 223 206 207
f 207 224 223
f 225 224 207
f 207 208 225
f 207 189 190
f 207 206 189
f 190 172 173
f 173 172 171
f 247 228 248
f 269 270 247
f 247 248 269
f 247 270 271
f 324 323 362
f 322 323 324
f 405 322 324
f 947 325 365
f 365 364 947
f 313 364 365
f 365 325 313
f 327 314 313
f 313 325 327
f 327 325 326
f 327 358 387
f 387 314 327
f 388 387 389
f 422 421 388
f 389 390 388
f 390 422 388
f 416 421 415
f 386 314 387
f 387 388 386
f 386 388 421
f 356 400 348
f 348 354 356
f 354 355 356
f 357 352 358
f 358 327 357
f 357 327 326
f 151 159 150
f 150 131 151
f 150 159 149
f 149 131 150
f 256 261 262
f 262 255 256
f 256 255 237
f 256 237 257
f 257 260 256
f 260 261 256
f 87 88 104
f 86 69 87
f 69 70 87
f 104 103 87
f 87 103 86
f 71 65 64
f 71 70 65
f 71 64 63
f 63 72 71
f 89 88 71
f 71 72 89
f 88 87 71
f 71 87 70
f 340 337 368
f 340 368 319
f 319 342 340
f 303 370 374
f 304 303 374
f 374 414 304
f 415 414 374
f 301 300 378
f 378 300 384
f 378 384 318
f 318 379 378
f 320 369 378
f 378 379 320
f 341 442 339
f 342 442 341
f 339 340 341
f 341 340 342
f 381 380 345
f 381 382 380
f 345 440 381
f 440 382 381
f 1 282 283
f 283 278 1
f 283 282 988
f 988 657 283
f 657 278 283
f 451 480 481
f 413 450 451
f 450 480 451
f 403 409 402
f 402 330 403
f 402 332 330
f 413 412 335
f 367 337 335
f 411 409 410
f 410 377 411
f 367 377 373
f 373 368 367
f 373 369 368
f 372 369 373
f 393 348 395
f 395 394 393
f 426 394 395
f 395 348 396
f 395 396 427
f 427 426 395
f 392 394 425
f 297 424 425
f 425 424 392
f 425 298 297
f 425 426 298
f 425 394 426
f 41 102 119
f 119 38 41
f 103 120 119
f 119 102 103
f 119 120 138
f 138 38 119
f 176 192 175
f 175 168 176
f 169 168 175
f 33 35 32
f 35 172 32
f 32 31 33
f 32 172 29
f 29 30 32
f 30 31 32
f 170 173 171
f 169 173 170
f 170 138 139
f 170 171 138
f 139 140 170
f 140 169 170
f 227 228 246
f 228 247 246
f 246 226 227
f 246 245 226
f 246 247 271
f 246 271 272
f 272 245 246
f 362 363 312
f 312 324 362
f 312 363 313
f 313 314 312
f 406 410 403
f 405 324 406
f 406 404 405
f 403 404 406
f 375 416 415
f 375 370 372
f 415 374 375
f 375 374 370
f 421 416 420
f 420 386 421
f 359 360 352
f 352 357 359
f 450 336 338
f 338 339 449
f 449 450 338
f 338 340 339
f 338 336 337
f 337 340 338
f 371 369 372
f 371 378 369
f 372 370 371
f 301 378 371
f 371 302 301
f 371 370 302
f 441 451 481
f 401 451 441
f 481 332 441
f 407 451 401
f 407 412 413
f 413 451 407
f 337 336 334
f 334 335 337
f 413 335 334
f 334 450 413
f 334 336 450
f 366 377 367
f 366 411 377
f 367 335 366
f 366 335 412
f 412 411 366
f 376 373 377
f 372 373 376
f 376 375 372
f 416 375 376
f 174 173 169
f 169 175 174
f 174 175 192
f 417 377 410
f 417 376 377
f 417 420 416
f 416 376 417
f 314 386 385
f 386 420 385
f 385 312 314
f 324 312 385
f 361 357 326
f 361 359 357
f 331 402 401
f 401 441 331
f 332 402 331
f 331 441 332
f 408 407 401
f 412 407 408
f 408 402 409
f 401 402 408
f 409 411 408
f 408 411 412
f 191 174 192
f 191 192 208
f 190 173 191
f 173 174 191
f 191 207 190
f 208 207 191
f 324 385 419
f 410 406 419
f 419 406 324
f 419 417 410
f 420 417 419
f 419 385 420
f 605 636 615
f 615 636 637
f 638 615 637
f 616 615 638
f 645 604 646
f 646 604 618
f 617 646 618
f 647 646 617
f 616 638 617
f 617 638 647
f 611 613 650
f 640 611 650
f 601 653 649
f 602 653 601
f 649 648 601
f 601 648 596
f 644 600 607
f 607 643 644
f 754 755 751
f 751 755 750
f 632 636 605
f 605 610 632
f 632 610 586
f 586 628 632
f 625 624 588
f 588 589 625
f 590 591 633
f 633 626 590
f 625 589 590
f 590 626 625
f 652 604 645
f 652 603 604
f 652 653 602
f 602 603 652
f 651 612 614
f 651 614 655
f 651 650 613
f 613 612 651
f 606 643 607
f 606 642 643
f 641 642 606
f 606 608 641
f 609 611 640
f 640 639 609
f 641 608 609
f 609 639 641
f 655 614 654
f 614 597 654
f 596 648 654
f 654 597 596
f 600 644 522
f 522 644 531
f 531 525 522
f 522 525 599
f 599 525 598
f 570 599 598
f 557 567 523
f 523 567 526
f 747 748 758
f 758 748 757
f 627 628 586
f 627 586 592
f 627 588 624
f 592 588 627
f 633 591 634
f 591 595 634
f 634 595 594
f 594 635 634
f 526 567 568
f 568 527 526
f 688 687 752
f 687 753 752
f 754 751 752
f 752 753 754
f 757 748 756
f 756 748 749
f 750 755 756
f 756 749 750
f 760 761 744
f 744 745 760
f 760 745 759
f 745 746 759
f 747 758 759
f 759 746 747
f 4 886 3
f 4 887 886
f 888 887 4
f 4 5 888
f 1003 1004 663
f 663 1004 671
f 570 598 569
f 569 598 528
f 527 568 569
f 528 527 569
f 888 5 889
f 5 6 889
f 889 6 7
f 7 890 889
f 891 890 7
f 7 8 891
f 19 899 898
f 898 18 19
f 629 635 594
f 594 593 629
f 695 629 593
f 587 629 695
f 695 694 630
f 630 587 695
f 931 285 930
f 931 286 285
f 556 543 577
f 542 538 577
f 540 541 577
f 553 554 577
f 577 550 551
f 577 551 570
f 544 545 577
f 577 579 578
f 541 544 577
f 577 539 540
f 574 573 577
f 577 554 549
f 561 560 577
f 543 542 577
f 549 550 577
f 557 574 577
f 577 567 557
f 577 562 561
f 577 583 556
f 577 552 553
f 577 545 546
f 546 547 577
f 576 585 577
f 577 571 566
f 577 568 567
f 570 569 577
f 566 565 577
f 577 575 576
f 577 580 581
f 581 582 577
f 547 555 577
f 577 538 539
f 572 571 577
f 577 573 572
f 577 569 568
f 564 562 577
f 577 565 564
f 577 560 559
f 584 583 577
f 559 558 577
f 555 548 577
f 582 575 577
f 577 585 584
f 558 579 577
f 548 552 577
f 892 10 973
f 9 10 892
f 892 891 8
f 8 9 892
f 972 900 20
f 1 972 20
f 20 900 899
f 899 19 20
f 975 18 898
f 975 17 18
f 962 431 430
f 430 963 962
f 961 959 294
f 294 959 292
f 351 956 954
f 954 398 351
f 2 988 885
f 2 885 1
f 987 932 289
f 289 932 284
f 446 939 989
f 989 447 446
f 622 687 259
f 259 976 535
f 535 622 259
f 3 886 259
f 259 687 688
f 688 520 259
f 259 886 976
f 188 155 259
f 258 239 259
f 259 520 521
f 259 51 3
f 118 101 259
f 259 155 154
f 259 135 118
f 84 51 259
f 259 101 84
f 154 135 259
f 259 205 188
f 222 205 259
f 259 239 222
f 17 975 897
f 897 16 17
f 15 897 896
f 16 897 15
f 894 893 11
f 12 894 11
f 973 10 11
f 11 893 973
f 955 398 954
f 955 399 398
f 291 959 960
f 292 959 291
f 940 991 328
f 991 329 328
f 400 957 958
f 400 958 349
f 895 15 896
f 14 15 895
f 13 974 894
f 13 894 12
f 13 895 974
f 14 895 13
f 363 945 944
f 362 945 363
f 944 948 363
f 948 364 363
f 947 994 325
f 325 994 326
f 992 943 418
f 418 329 992
f 941 993 323
f 323 322 941
f 942 418 943
f 322 418 942
f 950 951 355
f 355 353 950
f 933 972 885
f 933 931 930
f 976 886 933
f 933 887 888
f 933 951 950
f 933 977 976
f 979 912 933
f 964 928 933
f 885 988 933
f 933 966 965
f 933 939 938
f 982 918 933
f 933 917 916
f 933 929 903
f 965 998 933
f 961 997 933
f 902 977 933
f 933 901 902
f 933 923 901
f 1005 1004 933
f 933 959 961
f 933 918 921
f 916 982 933
f 933 968 1005
f 941 942 933
f 933 909 979
f 933 922 927
f 933 998 964
f 967 1000 933
f 933 980 981
f 933 1001 967
f 886 887 933
f 927 908 933
f 933 926 984
f 938 937 933
f 933 956 958
f 914 913 933
f 933 981 914
f 933 905 906
f 903 904 933
f 906 907 933
f 919 922 933
f 933 915 919
f 1000 999 933
f 1003 1002 933
f 933 1004 1003
f 933 986 929
f 924 923 933
f 933 895 896
f 933 983 924
f 933 936 1006
f 970 969 933
f 990 989 933
f 935 960 933
f 933 962 963
f 933 948 944
f 992 991 933
f 913 917 933
f 933 943 992
f 933 904 905
f 933 907 909
f 912 915 933
f 928 985 933
f 999 966 933
f 1002 1001 933
f 888 889 933
f 933 900 972
f 984 925 933
f 933 892 973
f 898 899 933
f 949 996 933
f 1006 971 933
f 933 955 954
f 954 956 933
f 944 945 933
f 950 952 933
f 958 957 933
f 989 939 933
f 933 940 990
f 933 953 946
f 946 995 933
f 978 911 933
f 933 910 978
f 985 986 933
f 933 889 890
f 890 891 933
f 925 983 933
f 933 921 920
f 920 926 933
f 899 900 933
f 896 897 933
f 933 969 968
f 937 936 933
f 933 971 970
f 973 893 933
f 988 931 933
f 933 957 949
f 933 994 947
f 933 991 940
f 974 895 933
f 930 932 933
f 947 948 933
f 952 953 933
f 933 993 941
f 911 980 933
f 933 908 910
f 891 892 933
f 933 975 898
f 933 893 894
f 960 959 933
f 997 962 933
f 933 932 987
f 995 994 933
f 933 996 951
f 933 897 975
f 894 974 933
f 963 955 933
f 987 934 933
f 933 945 993
f 933 942 943
f 933 291 935
f 933 290 291
f 933 934 289
f 289 290 933
f 949 957 356
f 957 400 356
f 356 996 949
f 356 355 996
f 359 953 952
f 952 360 359
f 361 995 946
f 326 995 361
f 946 953 361
f 953 359 361

