# https://github.com/mikedh/trimesh
v 0.00545721 -0.01717161 -0.01548112
v 0.00541262 -0.01744864 -0.01433097
v 0.00520584 -0.01873320 -0.01316108
v 0.00523982 -0.01852209 -0.01674591
v -0.00704564 -0.02256040 -0.01714286
v -0.00767593 -0.02175248 -0.01714286
v -0.00765712 -0.02199653 -0.01714286
v -0.00761806 -0.02214459 -0.01714286
v -0.00755907 -0.02227562 -0.01714286
v -0.00752264 -0.02233349 -0.01714286
v -0.00748195 -0.02238565 -0.01714286
v -0.00743730 -0.02243171 -0.01714286
v -0.00738903 -0.02247133 -0.01714286
v -0.00733752 -0.02250420 -0.01714286
v -0.00722634 -0.02254873 -0.01714286
v -0.00608130 -0.01302242 -0.01714286
v -0.00621461 -0.01329725 -0.01714286
v -0.00711621 -0.01517102 -0.01714286
v 0.00558529 -0.01637595 -0.01714286
v 0.00560903 -0.01621441 -0.01714286
v 0.00562955 -0.01604356 -0.01714286
v 0.00564551 -0.01587033 -0.01714286
v 0.00566329 -0.01551452 -0.01714286
v 0.00552587 -0.01402138 -0.01714286
v 0.00566489 -0.01533138 -0.01714286
v 0.00543875 -0.01365611 -0.01714286
v 0.00548480 -0.01383710 -0.01714286
v 0.00533293 -0.01330546 -0.01714286
v 0.00514482 -0.01281599 -0.01714286
v 0.00521092 -0.01297386 -0.01714286
v 0.00563766 -0.01477272 -0.01714286
v 0.00507514 -0.01266750 -0.01714286
v 0.00492750 -0.01239466 -0.01714286
v 0.00468725 -0.01206573 -0.01714286
v 0.00476960 -0.01216351 -0.01714286
v 0.00559255 -0.01439540 -0.01714286
v 0.00424028 -0.01181463 -0.01714286
v 0.00460190 -0.01198540 -0.01714286
v 0.00556182 -0.01420782 -0.01714286
v 0.00556283 -0.01651555 -0.01714286
v 0.00551438 -0.01681646 -0.01714286
v 0.00325502 -0.02130915 -0.01714286
v 0.00306658 -0.02136233 -0.01714286
v 0.00324197 -0.02131340 -0.01714286
v 0.00291666 -0.02138863 -0.01714286
v 0.00470068 -0.02002208 -0.01714286
v 0.00455463 -0.02024941 -0.01714286
v 0.00462794 -0.02013983 -0.01714286
v 0.00447324 -0.02036232 -0.01714286
v 0.00454932 -0.02025724 -0.01714286
v 0.00430592 -0.02056811 -0.01714286
v 0.00438489 -0.02047507 -0.01714286
v 0.00421010 -0.02067245 -0.01714286
v 0.00421294 -0.02066951 -0.01714286
v 0.00394479 -0.02091694 -0.01714286
v 0.00402583 -0.02084879 -0.01714286
v 0.00402960 -0.02084549 -0.01714286
v 0.00374907 -0.02106162 -0.01714286
v 0.00382944 -0.02100572 -0.01714286
v 0.00383494 -0.02100183 -0.01714286
v 0.00364731 -0.02112594 -0.01714286
v 0.00343850 -0.02123578 -0.01714286
v 0.00354411 -0.02118388 -0.01714286
v 0.00519678 -0.01875010 -0.01714286
v 0.00516709 -0.01887781 -0.01714286
v 0.00517395 -0.01884831 -0.01714286
v 0.00513299 -0.01900664 -0.01714286
v 0.00509446 -0.01913607 -0.01714286
v 0.00505144 -0.01926568 -0.01714286
v 0.00500394 -0.01939504 -0.01714286
v 0.00495195 -0.01952372 -0.01714286
v 0.00495751 -0.01950997 -0.01714286
v 0.00483477 -0.01977711 -0.01714286
v 0.00483782 -0.01977079 -0.01714286
v 0.00476978 -0.01990088 -0.01714286
v 0.00477112 -0.01989834 -0.01714286
v 0.00472260 -0.01998363 -0.01714286
v -0.00767136 -0.02166772 -0.01714286
v 0.00242136 -0.02144689 -0.01714286
v -0.00767507 -0.02183595 -0.01714286
v -0.00766879 -0.02191751 -0.01714286
v -0.00764017 -0.02207242 -0.01714286
v -0.00759095 -0.02221250 -0.01714286
v -0.00728315 -0.02253006 -0.01714286
v -0.00716752 -0.02256005 -0.01714286
v -0.00710713 -0.02256395 -0.01714286
v 0.00414373 -0.01182001 -0.01714286
v 0.00376925 -0.01186371 -0.01714286
v 0.00565659 -0.01569532 -0.01714286
v 0.00566087 -0.01514860 -0.01714286
v 0.00538825 -0.01347747 -0.01714286
v 0.00527414 -0.01313503 -0.01714286
v 0.00565222 -0.01495973 -0.01714286
v 0.00500265 -0.01252660 -0.01714286
v 0.00484969 -0.01227372 -0.01714286
v 0.00561787 -0.01458375 -0.01714286
v 0.00433430 -0.01182980 -0.01714286
v 0.00442610 -0.01186302 -0.01714286
v 0.00451540 -0.01191475 -0.01714286
v 0.00529290 -0.01819239 -0.01714286
v 0.00314023 -0.02134388 -0.01714286
v 0.00317213 -0.02133516 -0.01714286
v 0.00324947 -0.02131101 -0.01714286
v 0.00304524 -0.02136661 -0.01714286
v 0.00438850 -0.02047065 -0.01714286
v 0.00429353 -0.02058194 -0.01714286
v 0.00430093 -0.02057389 -0.01714286
v 0.00411515 -0.02076697 -0.01714286
v 0.00412231 -0.02076022 -0.01714286
v 0.00412610 -0.02075651 -0.01714286
v 0.00393061 -0.02092866 -0.01714286
v 0.00374696 -0.02106308 -0.01714286
v 0.00392635 -0.02093198 -0.01714286
v 0.00392885 -0.02093005 -0.01714286
v 0.00362881 -0.02113658 -0.01714286
v 0.00363842 -0.02113120 -0.01714286
v 0.00373121 -0.02107339 -0.01714286
v 0.00374333 -0.02106554 -0.01714286
v 0.00332707 -0.02128236 -0.01714286
v 0.00335713 -0.02127098 -0.01714286
v 0.00336384 -0.02126812 -0.01714286
v 0.00353002 -0.02119094 -0.01714286
v 0.00522081 -0.01862286 -0.01714286
v 0.00523982 -0.01852210 -0.01714286
v 0.00505831 -0.01924499 -0.01714286
v 0.00489554 -0.01965123 -0.01714286
v 0.00089050 -0.02715441 -0.01028571
v 0.00268982 -0.02613417 -0.01028571
v 0.00273688 -0.02604393 -0.01028571
v 0.00272870 -0.02605997 -0.01028571
v 0.00278796 -0.02593961 -0.01028571
v 0.00301703 -0.02544347 -0.01028571
v 0.00224574 -0.02669636 -0.01028571
v 0.00212888 -0.02682579 -0.01028571
v 0.00201857 -0.02691975 -0.01028571
v 0.00191488 -0.02697964 -0.01028571
v 0.00355944 -0.01454912 -0.01028571
v 0.00365907 -0.01454060 -0.01028571
v 0.00373667 -0.01453844 -0.01028571
v 0.00386156 -0.01454347 -0.01028571
v 0.00391089 -0.01454841 -0.01028571
v 0.00396370 -0.01455563 -0.01028571
v 0.00408089 -0.01457895 -0.01028571
v 0.00416776 -0.01460305 -0.01028571
v 0.00426030 -0.01463627 -0.01028571
v 0.00440348 -0.01470070 -0.01028571
v 0.00446630 -0.01473555 -0.01028571
v 0.00455380 -0.01479108 -0.01028571
v 0.00465455 -0.01486614 -0.01028571
v 0.00469539 -0.01490031 -0.01028571
v 0.00474393 -0.01494402 -0.01028571
v 0.00482724 -0.01502764 -0.01028571
v 0.00491080 -0.01512403 -0.01028571
v 0.00494844 -0.01517217 -0.01028571
v 0.00498741 -0.01522555 -0.01028571
v 0.00505812 -0.01533288 -0.01028571
v 0.00512502 -0.01544951 -0.01028571
v 0.00515553 -0.01550866 -0.01028571
v 0.00518538 -0.01557091 -0.01028571
v 0.00523997 -0.01569825 -0.01028571
v 0.00528804 -0.01582954 -0.01028571
v 0.00531085 -0.01590034 -0.01028571
v 0.00536768 -0.01611349 -0.01028571
v 0.00539146 -0.01622932 -0.01028571
v 0.00543768 -0.01656698 -0.01028571
v 0.00544579 -0.01668279 -0.01028571
v -0.00660782 -0.02745202 -0.01028571
v -0.00661099 -0.02743564 -0.01028571
v -0.00657899 -0.02758026 -0.01028571
v -0.00658799 -0.02754035 -0.01028571
v -0.00651445 -0.02778283 -0.01028571
v -0.00651886 -0.02777128 -0.01028571
v -0.00640440 -0.02795187 -0.01028571
v -0.00635640 -0.02797815 -0.01028571
v -0.00631564 -0.02798328 -0.01028571
v 0.00501495 -0.01991905 -0.01028571
v 0.00491578 -0.02049453 -0.01028571
v 0.00419624 -0.02268070 -0.01028571
v 0.00483674 -0.02084075 -0.01028571
v 0.00479549 -0.02100247 -0.01028571
v 0.00478682 -0.02103634 -0.01028571
v 0.00474878 -0.02117287 -0.01028571
v 0.00469877 -0.02134255 -0.01028571
v 0.00464551 -0.02151113 -0.01028571
v 0.00460786 -0.02162529 -0.01028571
v 0.00458908 -0.02167822 -0.01028571
v 0.00453850 -0.02182004 -0.01028571
v 0.00429210 -0.02245023 -0.01028571
v 0.00503789 -0.01977654 -0.01028571
v -0.00767593 -0.02175248 -0.01028571
v -0.00767507 -0.02183595 -0.01028571
v -0.00766879 -0.02191751 -0.01028571
v -0.00765712 -0.02199653 -0.01028571
v -0.00767136 -0.02166772 -0.01028571
v -0.00728649 -0.01716372 -0.01028571
v 0.00181637 -0.02701635 -0.01028571
v 0.00293871 -0.02561991 -0.01028571
v 0.00289686 -0.02571294 -0.01028571
v 0.00259965 -0.02630023 -0.01028571
v 0.00364739 -0.01454159 -0.01028571
v 0.00372769 -0.01453869 -0.01028571
v 0.00384681 -0.01454286 -0.01028571
v 0.00390533 -0.01454786 -0.01028571
v 0.00395729 -0.01455474 -0.01028571
v 0.00406749 -0.01457627 -0.01028571
v 0.00415725 -0.01460013 -0.01028571
v 0.00423680 -0.01462682 -0.01028571
v 0.00424547 -0.01462983 -0.01028571
v 0.00439989 -0.01469888 -0.01028571
v 0.00445844 -0.01473117 -0.01028571
v 0.00454415 -0.01478493 -0.01028571
v 0.00464218 -0.01485688 -0.01028571
v 0.00469126 -0.01489684 -0.01028571
v 0.00473762 -0.01493831 -0.01028571
v 0.00481818 -0.01501851 -0.01028571
v 0.00490037 -0.01511195 -0.01028571
v 0.00494474 -0.01516742 -0.01028571
v 0.00498217 -0.01521834 -0.01028571
v 0.00505057 -0.01532136 -0.01028571
v 0.00511655 -0.01543466 -0.01028571
v 0.00515264 -0.01550303 -0.01028571
v 0.00518126 -0.01556225 -0.01028571
v 0.00523425 -0.01568481 -0.01028571
v 0.00528188 -0.01581256 -0.01028571
v 0.00530875 -0.01589377 -0.01028571
v 0.00536380 -0.01609805 -0.01028571
v 0.00541006 -0.01633623 -0.01028571
v 0.00544472 -0.01666691 -0.01028571
v 0.00544996 -0.01679235 -0.01028571
v 0.00545037 -0.01680412 -0.01028571
v 0.00544802 -0.01704599 -0.01028571
v 0.00543065 -0.01729088 -0.01028571
v -0.00655602 -0.02766168 -0.01028571
v -0.00654470 -0.02769975 -0.01028571
v -0.00647968 -0.02785623 -0.01028571
v -0.00643979 -0.02791694 -0.01028571
v -0.00635924 -0.02797708 -0.01028571
v -0.00639551 -0.02795899 -0.01028571
v -0.00632154 -0.02798283 -0.01028571
v 0.00510445 -0.01936306 -0.01028571
v 0.00539838 -0.01753709 -0.01028571
v 0.00497272 -0.02018140 -0.01028571
v -0.00660362 -0.01574449 -0.01028571
v 0.00490945 -0.02052369 -0.01028571
v 0.00487937 -0.02066203 -0.01028571
v 0.00438000 -0.02223646 -0.01028571
v 0.00473204 -0.02123275 -0.01028571
v 0.00467239 -0.02142929 -0.01028571
v 0.00446300 -0.02202114 -0.01028571
f 18 195 243
f 18 243 17
f 243 16 17
f 243 137 88
f 88 16 243
f 231 232 22
f 199 48 46
f 87 88 137
f 87 138 37
f 22 232 21
f 124 242 177
f 153 35 34
f 45 196 127
f 104 196 45
f 175 5 127
f 105 199 52
f 105 49 199
f 199 49 50
f 141 37 203
f 37 140 203
f 37 139 202
f 202 140 37
f 201 139 37
f 37 138 201
f 200 87 137
f 138 87 200
f 20 21 232
f 19 20 241
f 241 20 232
f 245 66 64
f 65 66 245
f 179 65 245
f 124 177 123
f 123 177 64
f 227 36 39
f 163 24 27
f 27 226 163
f 96 165 31
f 227 165 96
f 96 36 227
f 230 231 23
f 23 25 230
f 37 142 97
f 30 160 92
f 30 29 160
f 160 29 223
f 134 135 56
f 116 135 136
f 127 5 79
f 79 45 127
f 15 174 84
f 15 85 174
f 174 85 239
f 239 85 175
f 5 175 86
f 175 85 86
f 47 48 199
f 199 50 47
f 199 46 77
f 77 75 199
f 132 71 178
f 187 70 69
f 2 241 240
f 240 1 2
f 1 241 2
f 64 177 244
f 244 245 64
f 164 39 24
f 24 163 164
f 227 39 164
f 26 226 27
f 93 228 166
f 165 228 93
f 31 165 93
f 89 231 22
f 89 23 231
f 204 37 141
f 204 142 37
f 143 97 205
f 205 97 142
f 144 97 206
f 206 97 143
f 153 34 216
f 34 152 216
f 34 38 151
f 145 209 98
f 147 99 98
f 98 208 145
f 97 208 98
f 211 99 147
f 211 148 99
f 149 38 99
f 221 32 94
f 135 116 61
f 73 131 129
f 129 130 73
f 128 76 73
f 73 130 128
f 75 76 128
f 199 75 128
f 188 71 246
f 188 178 71
f 246 71 72
f 72 70 246
f 126 71 132
f 126 198 131
f 246 70 249
f 70 187 249
f 181 182 67
f 67 65 181
f 247 68 67
f 67 182 247
f 237 14 84
f 84 174 237
f 12 236 11
f 236 10 11
f 167 7 82
f 13 14 238
f 14 237 238
f 168 193 7
f 168 7 167
f 19 241 40
f 40 241 1
f 3 1 240
f 28 225 91
f 162 26 91
f 91 225 162
f 226 26 162
f 90 93 166
f 230 25 90
f 207 97 144
f 207 208 97
f 215 152 34
f 34 151 215
f 214 38 150
f 214 151 38
f 146 98 209
f 99 148 212
f 212 149 99
f 150 38 213
f 38 149 213
f 220 33 156
f 95 156 33
f 157 221 94
f 94 33 157
f 157 33 220
f 29 32 159
f 159 223 29
f 60 113 135
f 55 56 135
f 107 133 134
f 199 133 107
f 117 118 135
f 135 61 117
f 136 196 119
f 119 120 136
f 197 126 132
f 198 126 197
f 74 131 73
f 74 126 131
f 186 187 69
f 69 185 186
f 125 185 69
f 68 185 125
f 184 68 248
f 184 185 68
f 180 65 179
f 180 181 65
f 248 68 183
f 68 247 183
f 235 9 10
f 235 10 236
f 83 9 235
f 12 13 173
f 13 238 173
f 173 236 12
f 1 100 41
f 41 40 1
f 4 100 1
f 1 3 4
f 124 100 4
f 4 176 242
f 4 242 124
f 189 3 240
f 176 4 189
f 189 4 3
f 161 28 92
f 225 28 161
f 230 90 229
f 229 90 166
f 147 98 210
f 98 146 210
f 219 95 155
f 156 95 219
f 217 35 153
f 217 154 35
f 35 154 218
f 218 95 35
f 155 95 218
f 32 221 158
f 111 55 135
f 108 109 134
f 53 54 134
f 134 54 106
f 106 107 134
f 52 199 51
f 199 107 51
f 136 122 63
f 62 122 136
f 83 235 171
f 171 8 83
f 172 8 171
f 167 82 170
f 82 169 170
f 82 8 234
f 234 8 172
f 92 160 224
f 224 161 92
f 222 159 32
f 32 158 222
f 135 118 112
f 112 58 135
f 59 60 135
f 135 58 59
f 135 113 114
f 114 111 135
f 134 56 57
f 57 108 134
f 134 109 110
f 110 53 134
f 115 116 136
f 136 63 115
f 136 120 121
f 121 62 136
f 43 196 104
f 42 119 196
f 233 169 82
f 82 234 233
f 101 102 196
f 196 43 101
f 196 102 44
f 103 42 196
f 196 44 103
f 194 195 18
f 18 78 194
f 194 78 6
f 6 190 194
f 191 190 80
f 80 190 6
f 193 192 81
f 7 193 81
f 191 80 81
f 81 192 191
f 179 245 233
f 232 231 233
f 174 239 233
f 233 175 127
f 136 135 233
f 233 228 165
f 233 243 195
f 233 212 148
f 242 176 233
f 233 241 232
f 233 137 243
f 139 201 233
f 233 190 191
f 233 165 227
f 226 162 233
f 233 133 199
f 127 196 233
f 187 186 233
f 233 231 230
f 195 194 233
f 233 234 172
f 233 214 150
f 134 133 233
f 233 135 134
f 233 196 136
f 233 129 131
f 141 203 233
f 233 202 139
f 233 200 137
f 233 180 179
f 233 235 236
f 233 177 242
f 227 164 233
f 233 244 177
f 143 205 233
f 144 206 233
f 152 215 233
f 160 223 233
f 199 128 233
f 223 159 233
f 233 203 140
f 140 202 233
f 233 201 138
f 138 200 233
f 233 194 190
f 246 249 233
f 233 173 238
f 240 241 233
f 233 168 167
f 233 163 226
f 233 189 240
f 233 204 141
f 153 216 233
f 233 209 145
f 233 211 147
f 220 156 233
f 233 239 175
f 233 219 155
f 132 178 233
f 131 198 233
f 233 188 246
f 233 184 248
f 248 183 233
f 236 173 233
f 172 171 233
f 245 244 233
f 233 164 163
f 191 192 233
f 166 228 233
f 142 204 233
f 233 205 142
f 233 206 143
f 145 208 233
f 233 216 152
f 233 207 144
f 148 211 233
f 230 229 233
f 150 213 233
f 233 157 220
f 130 129 233
f 233 128 130
f 178 188 233
f 233 197 132
f 233 249 187
f 182 181 233
f 233 247 182
f 233 237 174
f 233 238 237
f 193 168 233
f 233 192 193
f 233 162 225
f 208 207 233
f 233 215 151
f 151 214 233
f 233 146 209
f 149 212 233
f 233 213 149
f 147 210 233
f 233 217 153
f 221 157 233
f 155 218 233
f 198 197 233
f 233 186 185
f 185 184 233
f 181 180 233
f 233 183 247
f 233 158 221
f 167 170 233
f 176 189 233
f 225 161 233
f 233 229 166
f 233 210 146
f 156 219 233
f 154 217 233
f 233 218 154
f 233 224 160
f 233 171 235
f 233 170 169
f 159 222 233
f 161 224 233
f 233 222 158
f 69 70 103
f 104 45 103
f 124 123 103
f 103 38 34
f 103 87 37
f 103 39 36
f 5 86 103
f 18 17 103
f 103 78 18
f 103 72 71
f 22 21 103
f 31 93 103
f 103 89 22
f 103 79 5
f 103 17 16
f 16 88 103
f 6 78 103
f 67 68 103
f 103 80 6
f 64 66 103
f 103 65 67
f 19 40 103
f 36 96 103
f 103 30 92
f 94 32 103
f 103 105 52
f 103 46 48
f 48 47 103
f 88 87 103
f 84 14 103
f 116 115 103
f 103 20 19
f 27 24 103
f 103 26 27
f 103 34 35
f 37 97 103
f 103 90 25
f 35 95 103
f 103 106 54
f 103 15 84
f 49 105 103
f 103 50 49
f 73 76 103
f 103 77 46
f 103 13 12
f 12 11 103
f 21 20 103
f 103 66 65
f 103 123 64
f 24 39 103
f 103 100 124
f 103 96 31
f 25 23 103
f 97 98 103
f 99 38 103
f 29 30 103
f 103 33 94
f 103 32 29
f 103 98 99
f 60 59 103
f 45 79 103
f 85 15 103
f 103 86 85
f 103 47 50
f 103 76 75
f 75 77 103
f 52 51 103
f 103 74 73
f 103 14 13
f 103 9 83
f 83 8 103
f 103 125 69
f 91 26 103
f 92 28 103
f 23 89 103
f 103 41 100
f 56 55 103
f 103 61 116
f 118 117 103
f 70 72 103
f 71 126 103
f 10 9 103
f 103 11 10
f 103 82 7
f 7 81 103
f 103 28 91
f 93 90 103
f 103 95 33
f 113 60 103
f 103 121 120
f 103 114 113
f 54 53 103
f 103 117 61
f 103 110 109
f 120 119 103
f 126 74 103
f 68 125 103
f 103 8 82
f 103 81 80
f 40 41 103
f 103 112 118
f 55 111 103
f 109 108 103
f 103 57 56
f 107 106 103
f 103 51 107
f 103 63 122
f 122 62 103
f 103 43 104
f 58 112 103
f 103 59 58
f 111 114 103
f 108 57 103
f 53 110 103
f 103 115 63
f 62 121 103
f 119 42 103
f 102 101 103
f 103 101 43
f 103 44 102

