# https://github.com/mikedh/trimesh
v 0.00500166 -0.02461986 0.00000000
v 0.00363678 -0.03338171 -0.00067973
v 0.00363678 -0.03338171 0.00067973
v -0.00711621 -0.01721254 -0.00342857
v 0.00423281 -0.01470505 -0.00342857
v 0.00419216 -0.01470796 -0.00342857
v 0.00431328 -0.01470379 -0.00342857
v 0.00444371 -0.01471029 -0.00342857
v 0.00439227 -0.01470771 -0.00342857
v 0.00449452 -0.01471576 -0.00342857
v 0.00455021 -0.01472371 -0.00342857
v 0.00452783 -0.01472051 -0.00342857
v 0.00467159 -0.01474833 -0.00342857
v 0.00484325 -0.01480124 -0.00342857
v 0.00489519 -0.01482346 -0.00342857
v 0.00500832 -0.01487414 -0.00342857
v 0.00504795 -0.01489564 -0.00342857
v 0.00516561 -0.01496651 -0.00342857
v 0.00527295 -0.01504434 -0.00342857
v 0.00536684 -0.01512378 -0.00342857
v 0.00545255 -0.01520694 -0.00342857
v 0.00554246 -0.01530691 -0.00342857
v 0.00558019 -0.01535332 -0.00342857
v 0.00556713 -0.01533719 -0.00342857
v 0.00562326 -0.01540998 -0.00342857
v 0.00576879 -0.01563696 -0.00342857
v 0.00579929 -0.01569325 -0.00342857
v 0.00583285 -0.01575981 -0.00342857
v 0.00588922 -0.01588442 -0.00342857
v 0.00594229 -0.01602118 -0.00342857
v 0.00592015 -0.01596382 -0.00342857
v 0.00596520 -0.01608797 -0.00342857
v 0.00601257 -0.01625036 -0.00342857
v 0.00602670 -0.01630246 -0.00342857
v 0.00607328 -0.01652640 -0.00342857
v 0.00611477 -0.01688086 -0.00342857
v 0.00612049 -0.01699628 -0.00342857
v 0.00610552 -0.01748440 -0.00342857
v 0.00534359 -0.02242478 -0.00342857
v 0.00607476 -0.01773104 -0.00342857
v 0.00418534 -0.02986017 -0.00342857
v 0.00338996 -0.03496616 -0.00342857
v -0.00746521 -0.02172683 -0.00342857
v -0.00746900 -0.02181181 -0.00342857
v -0.00642243 -0.01579645 -0.00342857
v 0.00428199 -0.01470427 -0.00342857
v 0.00447512 -0.01471367 -0.00342857
v 0.00462477 -0.01473880 -0.00342857
v 0.00472649 -0.01476357 -0.00342857
v 0.00481290 -0.01479081 -0.00342857
v 0.00476322 -0.01477382 -0.00342857
v 0.00499574 -0.01486787 -0.00342857
v 0.00513172 -0.01494545 -0.00342857
v 0.00507554 -0.01491068 -0.00342857
v 0.00522948 -0.01501272 -0.00342857
v 0.00529950 -0.01506586 -0.00342857
v 0.00534461 -0.01510433 -0.00342857
v 0.00531404 -0.01507771 -0.00342857
v 0.00542065 -0.01517588 -0.00342857
v 0.00550564 -0.01526583 -0.00342857
v 0.00560473 -0.01538553 -0.00342857
v 0.00566928 -0.01547676 -0.00342857
v 0.00573871 -0.01558666 -0.00342857
v 0.00569603 -0.01551580 -0.00342857
v 0.00578902 -0.01567419 -0.00342857
v 0.00581815 -0.01573053 -0.00342857
v 0.00586877 -0.01583899 -0.00342857
v 0.00595763 -0.01606577 -0.00342857
v 0.00604464 -0.01638278 -0.00342857
v 0.00610461 -0.01675822 -0.00342857
v 0.00611044 -0.01682741 -0.00342857
v 0.00611861 -0.01695668 -0.00342857
v 0.00612079 -0.01723890 -0.00342857
v 0.00412917 -0.01471248 -0.00342857
v 0.00538964 -0.02212918 0.00342857
v 0.00423494 -0.02954180 0.00342857
v 0.00426002 -0.01470462 0.00342857
v 0.00435671 -0.01470594 0.00342857
v 0.00446150 -0.01471219 0.00342857
v 0.00459190 -0.01473212 0.00342857
v 0.00479159 -0.01478349 0.00342857
v 0.00484325 -0.01480124 0.00342857
v 0.00498691 -0.01486347 0.00342857
v 0.00503010 -0.01488596 0.00342857
v 0.00510795 -0.01493067 0.00342857
v 0.00528929 -0.01505755 0.00342857
v 0.00555795 -0.01532588 0.00342857
v 0.00565051 -0.01544934 0.00342857
v 0.00585442 -0.01580709 0.00342857
v 0.00590623 -0.01592807 0.00342857
v 0.00600266 -0.01621379 0.00342857
v 0.00607328 -0.01652640 0.00342857
v 0.00610782 -0.01679625 0.00342857
v 0.00612049 -0.01699628 0.00342857
v 0.00612079 -0.01723890 0.00342857
v 0.00610552 -0.01748440 0.00342857
v -0.00642243 -0.01579645 0.00342857
v -0.00746521 -0.02172683 0.00342857
v -0.00746900 -0.02181181 0.00342857
v 0.00412917 -0.01471248 0.00342857
v 0.00416380 -0.01471000 0.00342857
v 0.00423299 -0.01470505 0.00342857
v 0.00431328 -0.01470379 0.00342857
v 0.00451283 -0.01471837 0.00342857
v 0.00455092 -0.01472382 0.00342857
v 0.00470177 -0.01475671 0.00342857
v 0.00476428 -0.01477415 0.00342857
v 0.00493164 -0.01483906 0.00342857
v 0.00500832 -0.01487414 0.00342857
v 0.00507706 -0.01491156 0.00342857
v 0.00516561 -0.01496651 0.00342857
v 0.00520073 -0.01499192 0.00342857
v 0.00533084 -0.01509234 0.00342857
v 0.00539825 -0.01515410 0.00342857
v 0.00548174 -0.01523931 0.00342857
v 0.00559368 -0.01537103 0.00342857
v 0.00562521 -0.01541265 0.00342857
v 0.00571949 -0.01555475 0.00342857
v 0.00577069 -0.01564035 0.00342857
v 0.00578180 -0.01566082 0.00342857
v 0.00579929 -0.01569325 0.00342857
v 0.00580966 -0.01571374 0.00342857
v 0.00594389 -0.01602568 0.00342857
v 0.00595233 -0.01605019 0.00342857
v 0.00602670 -0.01630246 0.00342857
v 0.00603656 -0.01634661 0.00342857
v 0.00610461 -0.01675822 0.00342857
v 0.00611729 -0.01692890 0.00342857
v 0.00607476 -0.01773104 0.00342857
v -0.00711621 -0.01721254 0.00342857
v 0.00444424 -0.01471034 0.00342857
v 0.00449452 -0.01471576 0.00342857
v 0.00467159 -0.01474833 0.00342857
v 0.00527470 -0.01504571 0.00342857
v 0.00531404 -0.01507771 0.00342857
v 0.00536867 -0.01512545 0.00342857
v 0.00545255 -0.01520694 0.00342857
v 0.00554440 -0.01530923 0.00342857
v 0.00558019 -0.01535332 0.00342857
v 0.00569603 -0.01551580 0.00342857
v 0.00583468 -0.01576357 0.00342857
v 0.00588922 -0.01588442 0.00342857
v 0.00596520 -0.01608797 0.00342857
v 0.00611517 -0.01688721 0.00342857
v 0.00335730 -0.03517577 -0.00062669
v 0.00335730 -0.03517577 0.00050874
v 0.00335730 -0.03517577 -0.00334192
v -0.00734832 -0.03627556 -0.00342857
v 0.00335730 -0.03517577 -0.00342857
v 0.00335730 -0.03517577 0.00342857
v -0.00734832 -0.03627556 0.00342857
f 146 145 2
f 2 145 147
f 2 41 39
f 39 1 2
f 40 129 39
f 129 1 39
f 75 1 129
f 3 76 150
f 150 146 3
f 3 146 2
f 2 1 3
f 3 75 76
f 1 75 3
f 42 147 149
f 92 35 69
f 126 92 69
f 32 143 91
f 32 91 33
f 45 130 97
f 4 130 45
f 148 151 99
f 99 44 148
f 4 43 98
f 98 130 4
f 98 43 44
f 44 99 98
f 96 40 38
f 96 129 40
f 74 45 97
f 97 100 74
f 148 149 147
f 150 151 147
f 147 151 148
f 147 146 150
f 145 146 147
f 95 96 73
f 73 96 38
f 42 41 2
f 2 147 42
f 101 74 100
f 101 6 74
f 5 101 102
f 6 101 5
f 46 77 103
f 103 7 46
f 102 77 46
f 46 5 102
f 95 73 94
f 73 37 94
f 128 94 72
f 72 94 37
f 127 70 35
f 35 92 127
f 69 34 126
f 126 34 125
f 140 118 63
f 64 140 63
f 63 118 119
f 119 26 63
f 144 72 36
f 128 72 144
f 62 88 140
f 62 140 64
f 117 88 62
f 62 25 117
f 120 65 26
f 120 26 119
f 27 65 120
f 120 121 27
f 67 89 142
f 142 29 67
f 141 89 67
f 67 28 141
f 70 127 93
f 93 71 70
f 36 71 93
f 93 144 36
f 125 34 33
f 33 91 125
f 106 49 13
f 106 13 133
f 51 49 106
f 106 107 51
f 82 108 14
f 14 108 15
f 55 112 134
f 55 134 19
f 111 55 18
f 112 55 111
f 114 59 20
f 20 136 114
f 21 59 114
f 114 137 21
f 27 121 66
f 121 122 66
f 66 122 141
f 141 28 66
f 68 124 143
f 68 143 32
f 123 68 30
f 124 68 123
f 52 108 83
f 15 108 52
f 83 109 52
f 109 16 52
f 17 84 110
f 110 54 17
f 109 84 17
f 17 16 109
f 107 81 50
f 51 107 50
f 50 81 82
f 82 14 50
f 85 53 54
f 85 54 110
f 18 53 85
f 85 111 18
f 19 134 86
f 86 56 19
f 58 56 86
f 86 135 58
f 87 24 22
f 22 138 87
f 23 24 87
f 87 139 23
f 22 60 115
f 115 138 22
f 21 137 115
f 115 60 21
f 30 31 90
f 90 123 30
f 90 29 142
f 90 31 29
f 78 7 103
f 78 9 7
f 47 79 132
f 132 10 47
f 8 9 131
f 9 78 131
f 131 47 8
f 79 47 131
f 133 13 48
f 48 80 133
f 105 80 48
f 48 11 105
f 132 104 12
f 12 10 132
f 12 104 105
f 105 11 12
f 113 75 129
f 113 96 95
f 113 98 99
f 113 151 150
f 130 98 113
f 97 130 113
f 113 99 151
f 150 76 113
f 142 89 113
f 113 100 97
f 125 91 113
f 129 96 113
f 113 126 125
f 113 101 100
f 82 81 113
f 76 75 113
f 103 77 113
f 119 118 113
f 113 77 102
f 113 86 134
f 113 127 92
f 113 88 117
f 102 101 113
f 95 94 113
f 113 93 127
f 143 124 113
f 123 90 113
f 140 88 113
f 113 118 140
f 79 131 113
f 113 94 128
f 128 144 113
f 92 126 113
f 113 106 133
f 113 108 82
f 133 80 113
f 113 104 132
f 113 120 119
f 113 89 141
f 141 122 113
f 113 91 143
f 113 109 83
f 110 84 113
f 134 112 113
f 113 87 138
f 121 120 113
f 113 122 121
f 144 93 113
f 138 115 113
f 113 114 136
f 113 84 109
f 113 81 107
f 107 106 113
f 83 108 113
f 132 79 113
f 112 111 113
f 113 85 110
f 117 116 113
f 137 114 113
f 124 123 113
f 113 90 142
f 113 78 103
f 105 104 113
f 113 80 105
f 111 85 113
f 135 86 113
f 113 116 139
f 139 87 113
f 113 115 137
f 113 131 78
f 113 136 20
f 20 57 113
f 113 57 58
f 58 135 113
f 61 43 4
f 4 45 61
f 61 149 148
f 38 40 61
f 148 44 61
f 61 17 54
f 61 73 38
f 44 43 61
f 40 39 61
f 36 72 61
f 13 49 61
f 61 46 7
f 45 74 61
f 61 39 41
f 61 42 149
f 69 35 61
f 20 59 61
f 74 6 61
f 41 42 61
f 61 37 73
f 61 65 27
f 32 33 61
f 64 63 61
f 6 5 61
f 35 70 61
f 61 71 36
f 61 34 69
f 54 53 61
f 61 47 10
f 19 56 61
f 5 46 61
f 61 72 37
f 61 67 29
f 27 66 61
f 51 50 61
f 61 62 64
f 22 24 61
f 26 65 61
f 61 63 26
f 61 60 22
f 70 71 61
f 29 31 61
f 61 49 51
f 15 52 61
f 7 9 61
f 61 53 18
f 61 55 19
f 25 62 61
f 10 12 61
f 61 59 21
f 28 67 61
f 61 33 34
f 61 68 32
f 61 14 15
f 61 57 20
f 18 55 61
f 61 56 58
f 61 24 23
f 21 60 61
f 61 66 28
f 61 31 30
f 30 68 61
f 61 52 16
f 16 17 61
f 61 50 14
f 61 9 8
f 61 48 13
f 58 57 61
f 8 47 61
f 11 48 61
f 61 12 11
f 117 25 61
f 61 116 117
f 139 116 61
f 23 139 61

