# https://github.com/mikedh/trimesh
v -0.00882824 -0.07726864 0.00438402
v -0.00866963 -0.07683917 0.00454091
v -0.01112384 -0.07715667 0.00453941
v -0.00928897 -0.07200316 0.00584549
v -0.01067263 -0.07217989 0.00584549
v -0.01095329 -0.07527551 0.00513522
v -0.00718119 -0.07299964 0.00558214
v -0.00928540 -0.07196373 0.00585304
v -0.00734196 -0.07340430 0.00549453
v -0.00790540 -0.07483731 0.00514881
v -0.00792201 -0.07487997 0.00513755
v -0.00818635 -0.07556324 0.00494826
v -0.00677657 -0.07198743 0.00578526
v -0.00662370 -0.07160697 0.00585629
v -0.00873263 -0.06586671 0.00674769
v -0.00520566 -0.06811400 0.00640352
v -0.00402373 -0.06523506 0.00675116
v -0.00256121 -0.05901913 0.00732727
v -0.00258202 -0.05902140 0.00732730
v -0.00260603 -0.05902257 0.00732745
v -0.00262446 -0.05902236 0.00732766
v -0.00265005 -0.05902046 0.00732808
v -0.00266087 -0.05901908 0.00732830
v -0.00269292 -0.05901285 0.00732913
v -0.00270132 -0.05901067 0.00732940
v -0.00273432 -0.05899977 0.00733062
v -0.00274047 -0.05899730 0.00733088
v -0.00277395 -0.05898132 0.00733252
v -0.00277800 -0.05897907 0.00733274
v -0.00281150 -0.05895765 0.00733481
v -0.00281352 -0.05895618 0.00733495
v -0.00284669 -0.05892894 0.00733749
v -0.00287798 -0.05889684 0.00734039
v -0.00287925 -0.05889538 0.00734052
v -0.00290505 -0.05886274 0.00734341
v -0.00290895 -0.05885726 0.00734389
v -0.00324016 -0.05838334 0.00738485
v -0.00110348 -0.05818768 0.00737877
v -0.00145275 -0.05902712 0.00731512
v -0.00210297 -0.05863778 0.00735321
v -0.00211058 -0.05865187 0.00735216
v -0.00213272 -0.05869012 0.00734933
v -0.00214249 -0.05870584 0.00734817
v -0.00216491 -0.05873959 0.00734570
v -0.00217708 -0.05875667 0.00734446
v -0.00219943 -0.05878601 0.00734233
v -0.00221409 -0.05880396 0.00734104
v -0.00223606 -0.05882907 0.00733925
v -0.00225326 -0.05884737 0.00733795
v -0.00227442 -0.05886834 0.00733648
v -0.00229427 -0.05888656 0.00733522
v -0.00231421 -0.05890353 0.00733406
v -0.00233683 -0.05892124 0.00733286
v -0.00236758 -0.05894284 0.00733143
v -0.00238060 -0.05895115 0.00733090
v -0.00240989 -0.05896810 0.00732983
v -0.00242526 -0.05897606 0.00732934
v -0.00247048 -0.05899579 0.00732822
v -0.00251591 -0.05901018 0.00732752
v -0.00253906 -0.05901543 0.00732734
v -0.00702166 -0.06207981 0.00711312
v -0.00840532 -0.06225654 0.00711312
v -0.01102210 -0.07603446 0.00491473
v -0.00846680 -0.07629854 0.00472321
v -0.00822715 -0.07566947 0.00491721
v -0.01122685 -0.07829282 0.00407783
v -0.00909844 -0.07801869 0.00407887
v -0.00902656 -0.07781644 0.00416554
v -0.00945634 -0.07907010 0.00356054
v -0.01130708 -0.07917776 0.00363432
v -0.00941204 -0.07893467 0.00363491
v -0.01127370 -0.07880960 0.00383006
v -0.00930654 -0.07861919 0.00379855
v -0.00920069 -0.07831063 0.00394720
v -0.00692947 -0.06040058 0.00725587
v -0.00891098 -0.06717483 0.00658882
v -0.00842674 -0.06225928 0.00711263
v -0.00846537 -0.06226421 0.00710933
v -0.00867328 -0.06229077 0.00703476
v -0.00864112 -0.06228666 0.00705300
v -0.00859317 -0.06228054 0.00707540
v -0.00858373 -0.06227933 0.00707916
v -0.00852500 -0.06227183 0.00709798
v -0.00851057 -0.06226999 0.00710143
v -0.00891892 -0.06723021 0.00658154
v -0.00931538 -0.07160306 0.00591801
v -0.00931100 -0.07164612 0.00591092
v -0.01129516 -0.07881214 0.00382963
v -0.01179354 -0.07701092 0.00361780
v -0.01177917 -0.07684241 0.00362495
v -0.01155141 -0.07444377 0.00452292
v -0.01136173 -0.07226791 0.00491810
v -0.01155631 -0.07443001 0.00446186
v -0.01136355 -0.07226814 0.00488016
v -0.01155836 -0.07441687 0.00440498
v -0.01136446 -0.07226826 0.00482781
v -0.01150487 -0.07449296 0.00475698
v -0.01132138 -0.07226276 0.00518139
v -0.01152043 -0.07448164 0.00470049
v -0.01133347 -0.07226430 0.00512904
v -0.01153342 -0.07446964 0.00464250
v -0.01134008 -0.07226514 0.00509563
v -0.01154376 -0.07445700 0.00458324
v -0.01135358 -0.07226687 0.00500763
v -0.01135405 -0.07226693 0.00500374
v -0.01141860 -0.07453067 0.00496387
v -0.01123605 -0.07225186 0.00541845
v -0.01144358 -0.07452244 0.00491540
v -0.01126162 -0.07225512 0.00536176
v -0.01146635 -0.07451339 0.00486463
v -0.01126912 -0.07225608 0.00534343
v -0.01148682 -0.07450355 0.00481176
v -0.01129765 -0.07225973 0.00526421
v -0.01130245 -0.07226034 0.00524898
v -0.01133156 -0.07455016 0.00509377
v -0.01115755 -0.07224183 0.00555372
v -0.01136249 -0.07454454 0.00505317
v -0.01118364 -0.07224516 0.00551391
v -0.01139151 -0.07453805 0.00500987
v -0.01119875 -0.07224709 0.00548872
v -0.01121172 -0.07224875 0.00546572
v -0.01119191 -0.07456340 0.00522573
v -0.01101406 -0.07222350 0.00571296
v -0.01122893 -0.07456149 0.00519753
v -0.01105339 -0.07222853 0.00567754
v -0.01126464 -0.07455864 0.00516607
v -0.01106483 -0.07222999 0.00566621
v -0.01129890 -0.07455486 0.00513145
v -0.01111279 -0.07223611 0.00561302
v -0.01112187 -0.07223727 0.00560180
v -0.01107448 -0.07456351 0.00528990
v -0.01090567 -0.07220966 0.00578604
v -0.01111453 -0.07456441 0.00527198
v -0.01094065 -0.07221413 0.00576604
v -0.01115373 -0.07456438 0.00525057
v -0.01096088 -0.07221671 0.00575298
v -0.01097937 -0.07221907 0.00574002
v -0.01095074 -0.07455535 0.00532233
v -0.01077795 -0.07219334 0.00583363
v -0.01099242 -0.07455897 0.00531510
v -0.01079078 -0.07219498 0.00583054
v -0.01103372 -0.07456170 0.00530429
v -0.01084884 -0.07220240 0.00581194
v -0.01086055 -0.07220389 0.00580724
v -0.01094883 -0.07460508 0.00531044
v -0.01069412 -0.07218264 0.00584500
v -0.01073191 -0.07218746 0.00584175
v -0.01126101 -0.07818611 0.00412590
v -0.01116657 -0.07721140 0.00451956
v -0.01127684 -0.07815215 0.00413960
v -0.01119446 -0.07724359 0.00450598
v -0.01131842 -0.07815464 0.00413276
v -0.01123608 -0.07724647 0.00449898
v -0.01135956 -0.07815568 0.00412253
v -0.01127728 -0.07724809 0.00448851
v -0.01140011 -0.07815523 0.00410892
v -0.01131790 -0.07724843 0.00447459
v -0.01143991 -0.07815333 0.00409196
v -0.01135778 -0.07724748 0.00445724
v -0.01147880 -0.07814993 0.00407170
v -0.01139678 -0.07724525 0.00443650
v -0.01151664 -0.07814505 0.00404819
v -0.01143474 -0.07724172 0.00441245
v -0.01155326 -0.07813873 0.00402151
v -0.01147149 -0.07723691 0.00438515
v -0.01158852 -0.07813095 0.00399173
v -0.01150691 -0.07723083 0.00435469
v -0.01162229 -0.07812175 0.00395897
v -0.01154085 -0.07722350 0.00432117
v -0.01165441 -0.07811113 0.00392331
v -0.01157316 -0.07721493 0.00428469
v -0.01168476 -0.07809916 0.00388489
v -0.01160371 -0.07720515 0.00424538
v -0.01171317 -0.07808589 0.00384392
v -0.01163233 -0.07719421 0.00420346
v -0.01173960 -0.07807130 0.00380038
v -0.01165898 -0.07718211 0.00415892
v -0.01176390 -0.07805548 0.00375451
v -0.01168352 -0.07716890 0.00411199
v -0.01178595 -0.07803847 0.00370648
v -0.01170582 -0.07715465 0.00406284
v -0.01180566 -0.07802035 0.00365644
v -0.01172579 -0.07713938 0.00401165
v -0.01182294 -0.07800117 0.00360460
v -0.01174334 -0.07712315 0.00395861
v -0.01183769 -0.07798099 0.00355114
v -0.01175837 -0.07710603 0.00390392
v -0.01184985 -0.07795990 0.00349627
v -0.01177081 -0.07708808 0.00384777
v -0.01185935 -0.07793798 0.00344018
v -0.01178060 -0.07706935 0.00379039
v -0.01178769 -0.07704993 0.00373200
v -0.01179202 -0.07702990 0.00367287
v -0.01162463 -0.07933621 0.00344783
v -0.01158702 -0.07934356 0.00347007
v -0.01154832 -0.07934911 0.00348923
v -0.01150869 -0.07935282 0.00350528
v -0.01146827 -0.07935470 0.00351815
v -0.01142722 -0.07935476 0.00352783
v -0.01138571 -0.07935299 0.00353430
v -0.01134388 -0.07934943 0.00353755
v -0.01133701 -0.07881589 0.00382628
v -0.01137856 -0.07881801 0.00381962
v -0.01141966 -0.07881850 0.00380964
v -0.01146014 -0.07881734 0.00379637
v -0.01149986 -0.07881453 0.00377984
v -0.01153865 -0.07881005 0.00376009
v -0.01157637 -0.07880395 0.00373717
v -0.01161286 -0.07879619 0.00371116
v -0.01164798 -0.07878683 0.00368213
v -0.01168159 -0.07877588 0.00365019
v -0.01171355 -0.07876338 0.00361543
v -0.01174371 -0.07874937 0.00357798
v -0.01177192 -0.07873391 0.00353804
v -0.01179814 -0.07871701 0.00349560
v -0.01182222 -0.07869876 0.00345088
v -0.01104431 -0.07603715 0.00491423
v -0.01108547 -0.07604138 0.00491068
v -0.01112712 -0.07604465 0.00490356
v -0.01116837 -0.07604685 0.00489289
v -0.01120906 -0.07604796 0.00487870
v -0.01124903 -0.07604798 0.00486102
v -0.01128814 -0.07604690 0.00483990
v -0.01132621 -0.07604472 0.00481540
v -0.01136311 -0.07604142 0.00478759
v -0.01139868 -0.07603704 0.00475655
v -0.01143278 -0.07603156 0.00472240
v -0.01146528 -0.07602502 0.00468524
v -0.01149603 -0.07601742 0.00464519
v -0.01152485 -0.07600882 0.00460248
v -0.01155174 -0.07599920 0.00455710
v -0.01157651 -0.07598860 0.00450929
v -0.01159906 -0.07597707 0.00445922
v -0.01161929 -0.07596465 0.00440707
v -0.01163710 -0.07595137 0.00435303
v -0.01165241 -0.07593730 0.00429731
v -0.01166513 -0.07592246 0.00424011
v -0.01167521 -0.07590693 0.00418165
v -0.01168260 -0.07589075 0.00412216
v -0.01168722 -0.07587401 0.00406192
v -0.01168902 -0.07585809 0.00400582
v -0.01161686 -0.07505218 0.00418564
v 0.00095257 -0.05801097 0.00438737
v 0.00090852 -0.05824085 0.00438737
v 0.00090278 -0.05826666 0.00438737
v 0.00084516 -0.05849444 0.00438737
v 0.00083788 -0.05852007 0.00438737
v 0.00076714 -0.05874404 0.00438737
v 0.00075836 -0.05876926 0.00438737
v 0.00067505 -0.05898772 0.00438737
v 0.00066482 -0.05901234 0.00438737
v 0.00076068 -0.05874132 0.00463775
v 0.00083843 -0.05849261 0.00463775
v 0.00090157 -0.05823989 0.00463775
v 0.00033641 -0.05815360 0.00649423
v 0.00030062 -0.05815659 0.00654507
v 0.00037131 -0.05816685 0.00643672
v -0.00083238 -0.05819139 0.00734900
v -0.00072771 -0.05831026 0.00730570
v -0.00070036 -0.05825781 0.00730570
v -0.00056749 -0.05835886 0.00723750
v -0.00067043 -0.05823254 0.00729973
v 0.00065055 -0.05897348 0.00488639
v 0.00065177 -0.05902444 0.00464272
v 0.00066892 -0.05898414 0.00463775
v 0.00053756 -0.05901438 0.00539026
v 0.00054191 -0.05901552 0.00537150
v 0.00057774 -0.05893120 0.00537150
v 0.00058791 -0.05902546 0.00514601
v 0.00062009 -0.05895580 0.00513154
v 0.00062608 -0.05902883 0.00489622
v 0.00062731 -0.05902880 0.00488639
v 0.00040185 -0.05896943 0.00585510
v 0.00041094 -0.05897286 0.00582920
v 0.00045864 -0.05886204 0.00582920
v 0.00044765 -0.05898618 0.00571847
v 0.00052380 -0.05889988 0.00560459
v 0.00047539 -0.05899567 0.00562720
v 0.00052359 -0.05901055 0.00544831
v 0.00035533 -0.05895131 0.00597960
v 0.00038272 -0.05881795 0.00604373
v 0.00031748 -0.05893589 0.00607229
v 0.00029658 -0.05876791 0.00624672
v 0.00023799 -0.05890193 0.00624673
v 0.00009606 -0.05865147 0.00661243
v 0.00011878 -0.05884789 0.00646833
v 0.00020080 -0.05871229 0.00643672
v 0.00018801 -0.05887968 0.00634478
v 0.00022290 -0.05889528 0.00627720
v -0.00001691 -0.05858587 0.00677261
v 0.00000590 -0.05879409 0.00664428
v 0.00002774 -0.05880466 0.00661245
v -0.00024280 -0.05866879 0.00694565
v -0.00021429 -0.05868355 0.00691619
v -0.00019406 -0.05864287 0.00691615
v -0.00015456 -0.05871417 0.00685051
v -0.00008087 -0.05872895 0.00677261
v -0.00011492 -0.05873424 0.00680378
v -0.00000949 -0.05878658 0.00666614
v -0.00030756 -0.05863494 0.00700823
v -0.00031345 -0.05855206 0.00704204
v -0.00037682 -0.05859822 0.00706887
v -0.00043822 -0.05845718 0.00714940
v -0.00048220 -0.05854146 0.00714950
v -0.00062437 -0.05846329 0.00723766
v -0.00054628 -0.05850645 0.00719206
v -0.00060433 -0.05842951 0.00723750
v -0.00051598 -0.05852305 0.00717253
v -0.00049328 -0.05853544 0.00715719
v -0.00065929 -0.05844382 0.00725588
v -0.00075777 -0.05836011 0.00730570
v -0.00070785 -0.05841658 0.00727907
v -0.00087300 -0.05822083 0.00735354
v -0.00089402 -0.05825110 0.00735354
v -0.00095127 -0.05827717 0.00735880
v -0.00092913 -0.05829005 0.00735400
v -0.00091648 -0.05827921 0.00735354
v -0.00088794 -0.05831389 0.00734378
v -0.00082265 -0.05835142 0.00732413
v -0.00080569 -0.05836111 0.00731832
v -0.00097688 -0.05826224 0.00736375
v -0.00095411 -0.05827551 0.00735938
v -0.00097444 -0.05818993 0.00737125
v -0.00108724 -0.05819732 0.00737772
v -0.00108987 -0.05818795 0.00737854
v -0.00106750 -0.05820900 0.00737609
v -0.00107332 -0.05818828 0.00737809
v -0.00104628 -0.05822152 0.00737392
v -0.00105542 -0.05818862 0.00737737
v -0.00102387 -0.05823470 0.00737115
v -0.00103637 -0.05818896 0.00737636
v -0.00100062 -0.05824835 0.00736776
v -0.00101637 -0.05818931 0.00737501
v -0.00099565 -0.05818963 0.00737331
v -0.00095301 -0.05819023 0.00736884
v -0.00092684 -0.05819055 0.00736544
v -0.00088666 -0.05819096 0.00735924
v -0.00075137 -0.05819173 0.00732966
v -0.00077638 -0.05819167 0.00733616
v -0.00039706 -0.05836509 0.00714940
v -0.00049679 -0.05823737 0.00722854
v -0.00053458 -0.05828523 0.00723750
v -0.00057840 -0.05819121 0.00727173
v -0.00022143 -0.05832867 0.00704204
v -0.00027591 -0.05818599 0.00711202
v -0.00036111 -0.05826998 0.00714940
v -0.00033523 -0.05818749 0.00714959
v -0.00040925 -0.05818901 0.00719206
v -0.00004579 -0.05825054 0.00691615
v -0.00008740 -0.05817960 0.00697010
v -0.00018509 -0.05821241 0.00704204
v -0.00016467 -0.05818254 0.00703260
v -0.00024517 -0.05818512 0.00709126
v 0.00008627 -0.05828670 0.00677261
v 0.00006286 -0.05817247 0.00682947
v -0.00002645 -0.05817694 0.00691623
v 0.00026650 -0.05815927 0.00659136
v 0.00025043 -0.05816048 0.00661247
v 0.00021016 -0.05832061 0.00661243
v 0.00020449 -0.05816378 0.00667045
v 0.00011637 -0.05816942 0.00677267
v 0.00047980 -0.05818180 0.00624672
v 0.00045763 -0.05814201 0.00630214
v 0.00037489 -0.05815018 0.00643676
v 0.00061100 -0.05812313 0.00600189
v 0.00059189 -0.05812581 0.00604375
v 0.00057738 -0.05819524 0.00604373
v 0.00056726 -0.05812911 0.00609562
v 0.00048896 -0.05813860 0.00624674
v 0.00066444 -0.05811498 0.00587623
v 0.00066338 -0.05820708 0.00582920
v 0.00074845 -0.05809973 0.00564562
v 0.00073718 -0.05821725 0.00560459
v 0.00076164 -0.05809698 0.00560460
v 0.00079829 -0.05822567 0.00537150
v 0.00081866 -0.05808348 0.00540554
v 0.00087455 -0.05806634 0.00515778
v 0.00084626 -0.05823228 0.00513154
v 0.00087954 -0.05806451 0.00513154
v 0.00088077 -0.05823703 0.00488639
v 0.00091568 -0.05804846 0.00490423
v 0.00093143 -0.05803868 0.00476773
v 0.00094176 -0.05802995 0.00464677
v 0.00094239 -0.05802930 0.00463775
v -0.00086117 -0.05819119 0.00735470
v -0.00013732 -0.05851594 0.00691615
v -0.00026433 -0.05844217 0.00704204
v 0.00081829 -0.05848710 0.00488639
v 0.00078488 -0.05847794 0.00513154
v 0.00073843 -0.05846524 0.00537150
v 0.00067928 -0.05844904 0.00560459
v 0.00060782 -0.05842947 0.00582920
v 0.00052456 -0.05840669 0.00604373
v 0.00043008 -0.05838082 0.00624672
v 0.00032504 -0.05835206 0.00643672
v 0.00074136 -0.05873321 0.00488639
v 0.00070930 -0.05871973 0.00513154
v 0.00066473 -0.05870101 0.00537150
v 0.00060797 -0.05867716 0.00560459
v 0.00053940 -0.05864834 0.00582920
v 0.00045951 -0.05861478 0.00604373
v 0.00036885 -0.05857669 0.00624672
v 0.00026806 -0.05853433 0.00643672
v 0.00015783 -0.05848803 0.00661243
v 0.00003895 -0.05843807 0.00677261
v -0.00008777 -0.05838483 0.00691615
v -0.00870604 -0.07881005 0.00347249
v -0.00878221 -0.07879446 0.00353057
v -0.00885848 -0.07877626 0.00358366
v -0.00915186 -0.07914372 0.00345061
v -0.00923395 -0.07865033 0.00377477
v -0.00720880 -0.07668986 0.00364819
v -0.00727293 -0.07668668 0.00375289
v -0.00336626 -0.06863218 0.00344876
v -0.00159757 -0.06441135 0.00392909
v -0.00161125 -0.06442751 0.00416641
v -0.00182311 -0.06441196 0.00525006
v -0.00186778 -0.06439867 0.00538108
v -0.00191640 -0.06438276 0.00550935
v -0.00196884 -0.06436419 0.00563432
v -0.00202497 -0.06434305 0.00575549
v -0.00162392 -0.06443371 0.00430067
v -0.00164036 -0.06443777 0.00443619
v -0.00166071 -0.06443959 0.00457255
v -0.00168504 -0.06443907 0.00470928
v -0.00171342 -0.06443610 0.00484592
v -0.00174589 -0.06443064 0.00498194
v -0.00178246 -0.06442260 0.00511684
v -0.00670469 -0.07529064 0.00418238
v -0.00664087 -0.07529948 0.00407538
v -0.00657986 -0.07530553 0.00396432
v -0.00714736 -0.07669016 0.00353969
v -0.00636763 -0.07530186 0.00348790
v -0.00726683 -0.07344584 0.00547981
v -0.00670106 -0.07202996 0.00577198
v -0.00546358 -0.06915904 0.00624445
v -0.00548836 -0.06926992 0.00622533
v -0.00662439 -0.07207204 0.00575295
v -0.00541012 -0.06931318 0.00620221
v -0.00654676 -0.07211353 0.00572797
v -0.00533114 -0.06935593 0.00617278
v -0.00646839 -0.07215423 0.00569686
v -0.00525165 -0.06939798 0.00613688
v -0.00638951 -0.07219399 0.00565946
v -0.00517191 -0.06943916 0.00609437
v -0.00631037 -0.07223264 0.00561565
v -0.00509220 -0.06947931 0.00604516
v -0.00623123 -0.07227001 0.00556536
v -0.00501281 -0.06951822 0.00598921
v -0.00615237 -0.07230590 0.00550856
v -0.00493403 -0.06955575 0.00592650
v -0.00607407 -0.07234017 0.00544524
v -0.00656577 -0.07377205 0.00507622
v -0.00664292 -0.07374204 0.00514614
v -0.00672089 -0.07371008 0.00520979
v -0.00679940 -0.07367635 0.00526709
v -0.00687816 -0.07364100 0.00531804
v -0.00695691 -0.07360420 0.00536267
v -0.00703538 -0.07356611 0.00540103
v -0.00711334 -0.07352691 0.00543325
v -0.00719056 -0.07348676 0.00545945
v -0.00485615 -0.06959170 0.00585709
v -0.00599663 -0.07237264 0.00537546
v -0.00477949 -0.06962590 0.00578107
v -0.00592034 -0.07240317 0.00529933
v -0.00470436 -0.06965822 0.00569859
v -0.00584549 -0.07243159 0.00521698
v -0.00463105 -0.06968847 0.00560986
v -0.00577238 -0.07245779 0.00512863
v -0.00455985 -0.06971654 0.00551511
v -0.00570129 -0.07248163 0.00503451
v -0.00449107 -0.06974230 0.00541465
v -0.00563249 -0.07250301 0.00493492
v -0.00442495 -0.06976564 0.00530882
v -0.00556625 -0.07252185 0.00483018
v -0.00436175 -0.06978646 0.00519800
v -0.00550280 -0.07253805 0.00472066
v -0.00430169 -0.06980472 0.00508262
v -0.00544238 -0.07255159 0.00460678
v -0.00424498 -0.06982033 0.00496313
v -0.00538518 -0.07256242 0.00448896
v -0.00419181 -0.06983327 0.00484000
v -0.00533137 -0.07257053 0.00436767
v -0.00414229 -0.06984354 0.00471374
v -0.00528110 -0.07257592 0.00424337
v -0.00409658 -0.06985115 0.00458485
v -0.00523449 -0.07257862 0.00411655
v -0.00405474 -0.06985610 0.00445385
v -0.00519164 -0.07257868 0.00398772
v -0.00401684 -0.06985845 0.00432126
v -0.00515260 -0.07257615 0.00385736
v -0.00398291 -0.06985828 0.00418759
v -0.00511741 -0.07257112 0.00372595
v -0.00395293 -0.06985563 0.00405333
v -0.00508609 -0.07256366 0.00359399
v -0.00392690 -0.06985062 0.00391897
v -0.00505859 -0.07255388 0.00346193
v -0.00390474 -0.06984333 0.00378497
v -0.00388640 -0.06983390 0.00365177
v -0.00387177 -0.06982242 0.00351976
v -0.00705815 -0.07520589 0.00464452
v -0.00713391 -0.07518140 0.00472046
v -0.00721070 -0.07515464 0.00479046
v -0.00728827 -0.07512578 0.00485440
v -0.00736633 -0.07509494 0.00491223
v -0.00744462 -0.07506227 0.00496392
v -0.00752287 -0.07502796 0.00500949
v -0.00760084 -0.07499215 0.00504901
v -0.00767828 -0.07495502 0.00508256
v -0.00775500 -0.07491672 0.00511027
v -0.00783076 -0.07487743 0.00513229
v -0.00811201 -0.07560239 0.00493067
v -0.00839279 -0.07633650 0.00470439
v -0.00867319 -0.07708368 0.00444607
v -0.00895340 -0.07785067 0.00414366
v -0.00816483 -0.07644300 0.00461549
v -0.00824162 -0.07640888 0.00465067
v -0.00852282 -0.07715238 0.00438998
v -0.00844645 -0.07718439 0.00435386
v -0.00880401 -0.07791444 0.00408488
v -0.00937429 -0.07906900 0.00355248
v -0.00922678 -0.07912100 0.00348922
v -0.00930098 -0.07909605 0.00352315
v -0.00908573 -0.07870711 0.00371302
v -0.00916029 -0.07867969 0.00374629
v -0.00901961 -0.07827639 0.00394201
v -0.00909358 -0.07824518 0.00396965
v -0.00901045 -0.07873244 0.00367486
v -0.00893464 -0.07875553 0.00363175
v -0.00740839 -0.07667171 0.00394945
v -0.00683995 -0.07526465 0.00438275
v -0.00747925 -0.07665998 0.00404070
v -0.00691091 -0.07524762 0.00447545
v -0.00755187 -0.07664550 0.00412689
v -0.00698373 -0.07522800 0.00456279
v -0.00762600 -0.07662834 0.00420781
v -0.00770136 -0.07660861 0.00428325
v -0.00777769 -0.07658641 0.00435308
v -0.00785474 -0.07656186 0.00441717
v -0.00793223 -0.07653510 0.00447548
v -0.00800990 -0.07650626 0.00452795
v -0.00808752 -0.07647551 0.00457461
v -0.00803655 -0.07564058 0.00490766
v -0.00836955 -0.07721461 0.00431222
v -0.00829233 -0.07724291 0.00426500
v -0.00821503 -0.07726913 0.00421216
v -0.00813791 -0.07729312 0.00415371
v -0.00806119 -0.07731474 0.00408967
v -0.00798514 -0.07733389 0.00402013
v -0.00791002 -0.07735043 0.00394519
v -0.00783607 -0.07736428 0.00386499
v -0.00776357 -0.07737535 0.00377974
v -0.00769276 -0.07738357 0.00368963
v -0.00872812 -0.07794366 0.00404774
v -0.00865170 -0.07797090 0.00400533
v -0.00857496 -0.07799601 0.00395759
v -0.00849812 -0.07801885 0.00390449
v -0.00842142 -0.07803927 0.00384604
v -0.00834510 -0.07805716 0.00378229
v -0.00826939 -0.07807240 0.00371331
v -0.00819455 -0.07808491 0.00363921
v -0.00812082 -0.07809456 0.00356013
v -0.00804846 -0.07810132 0.00347627
v -0.00831767 -0.07637333 0.00468026
v -0.00859847 -0.07711876 0.00442067
v -0.00887916 -0.07788339 0.00411682
v -0.00894474 -0.07830579 0.00390941
v -0.00733953 -0.07668062 0.00385342
v -0.00677114 -0.07527901 0.00428495
v -0.00641562 -0.07530688 0.00361095
v -0.00646708 -0.07530921 0.00373167
v -0.00652188 -0.07530877 0.00384961
v -0.00327520 -0.06384747 0.00688310
v -0.00321734 -0.06374626 0.00689104
v -0.00313836 -0.06379136 0.00687017
v -0.00281757 -0.06396788 0.00672014
v -0.00289796 -0.06392469 0.00676793
v -0.00297841 -0.06388076 0.00680879
v -0.00305864 -0.06383625 0.00684282
v -0.00221351 -0.06426472 0.00609125
v -0.00228229 -0.06423395 0.00619247
v -0.00235361 -0.06420106 0.00628771
v -0.00242717 -0.06416619 0.00637667
v -0.00250265 -0.06412948 0.00645908
v -0.00257975 -0.06409112 0.00653475
v -0.00265815 -0.06405128 0.00660354
v -0.00273753 -0.06401014 0.00666535
v -0.00208460 -0.06431937 0.00587234
v -0.00214752 -0.06429323 0.00598441
v 0.00199768 -0.05164988 0.00483460
v 0.00371468 -0.04119932 0.00556915
v -0.00952810 -0.07929543 0.00342857
v -0.01182336 -0.07732988 0.00342857
v -0.01185592 -0.07780253 0.00342857
v -0.01185660 -0.07782086 0.00342857
v -0.01184696 -0.07763587 0.00342857
v -0.01184923 -0.07767818 0.00342857
v -0.01162744 -0.07936726 0.00342857
v -0.01159309 -0.07941046 0.00342857
v -0.01156484 -0.07943915 0.00342857
v -0.01155719 -0.07944691 0.00342857
v -0.01151990 -0.07947650 0.00342857
v -0.01149371 -0.07949188 0.00342857
v -0.01144173 -0.07951479 0.00342857
v -0.01140116 -0.07952346 0.00342857
v -0.01137644 -0.07952446 0.00342857
v -0.01135040 -0.07952516 0.00342857
v -0.01165938 -0.07931709 0.00342857
v -0.01165237 -0.07932922 0.00342857
v -0.01165999 -0.07931603 0.00342857
v -0.01171855 -0.07918357 0.00342857
v -0.01171278 -0.07919783 0.00342857
v -0.01174471 -0.07910714 0.00342857
v -0.01173664 -0.07913072 0.00342857
v -0.01176863 -0.07902423 0.00342857
v -0.01175859 -0.07905904 0.00342857
v -0.01177858 -0.07898314 0.00342857
v -0.01183844 -0.07863556 0.00342857
v -0.01183262 -0.07868944 0.00342857
v -0.01183933 -0.07862725 0.00342857
v -0.01184943 -0.07850313 0.00342857
v -0.01184732 -0.07852904 0.00342857
v -0.01185675 -0.07837412 0.00342857
v -0.01186124 -0.07824069 0.00342857
v -0.01186286 -0.07810333 0.00342857
v -0.01186180 -0.07819286 0.00342857
v -0.01186261 -0.07807625 0.00342857
v -0.01184035 -0.07754118 0.00342857
v 0.00090852 -0.05824085 0.00342857
v 0.00090278 -0.05826666 0.00342857
v 0.00084516 -0.05849444 0.00342857
v 0.00083788 -0.05852007 0.00342857
v 0.00076714 -0.05874404 0.00342857
v 0.00075836 -0.05876926 0.00342857
v 0.00067505 -0.05898772 0.00342857
v -0.00873406 -0.07888843 0.00342857
v -0.00884700 -0.07897755 0.00342857
v -0.00505259 -0.07255084 0.00342857
v -0.00479044 -0.07195819 0.00342857
v -0.00419700 -0.07059213 0.00342857
v -0.00944091 -0.07927691 0.00342857
v -0.00928419 -0.07923018 0.00342857
v -0.00938850 -0.07926387 0.00342857
v -0.00911349 -0.07915406 0.00342857
v -0.00906296 -0.07912528 0.00342857
v -0.00865316 -0.07881900 0.00342857
v -0.00861559 -0.07878368 0.00342857
v -0.00860752 -0.07877575 0.00342857
v -0.00848811 -0.07865498 0.00342857
v -0.00844961 -0.07861434 0.00342857
v -0.00835719 -0.07851453 0.00342857
v -0.00822302 -0.07836228 0.00342857
v -0.00666362 -0.07590665 0.00342857
v -0.00649195 -0.07558002 0.00342857
v -0.00687678 -0.07630272 0.00342857
v -0.00708770 -0.07668495 0.00342857
v -0.00708921 -0.07668761 0.00342857
v -0.00743558 -0.07725173 0.00342857
v -0.00730570 -0.07704415 0.00342857
v -0.00566131 -0.07387327 0.00342857
v -0.00548169 -0.07348773 0.00342857
v -0.00593302 -0.07444662 0.00342857
v -0.00582540 -0.07421979 0.00342857
v -0.00620437 -0.07500905 0.00342857
v -0.00634653 -0.07529822 0.00342857
v -0.00917322 -0.07918404 0.00342857
v -0.00402471 -0.07018937 0.00342857
v -0.00341868 -0.06875727 0.00342857
v -0.01136446 -0.07226826 0.00342857
v -0.01162962 -0.07936394 0.00342857
v -0.01153004 -0.07946845 0.00342857
v -0.01148136 -0.07949913 0.00342857
v -0.01145595 -0.07950918 0.00342857
v -0.01135981 -0.07952512 0.00342857
v -0.01169027 -0.07925328 0.00342857
v -0.01179663 -0.07890326 0.00342857
v -0.01179018 -0.07893529 0.00342857
v -0.01181275 -0.07881963 0.00342857
v -0.01180932 -0.07884032 0.00342857
v -0.01182690 -0.07873257 0.00342857
v -0.01182594 -0.07873980 0.00342857
v -0.01185418 -0.07841954 0.00342857
v -0.01185899 -0.07830738 0.00342857
v -0.01186158 -0.07796258 0.00342857
v -0.01186074 -0.07793337 0.00342857
v -0.01186145 -0.07795784 0.00342857
v -0.01183076 -0.07741732 0.00342857
v -0.01183610 -0.07748030 0.00342857
v 0.00095257 -0.05801097 0.00342857
v -0.00916374 -0.07917966 0.00342857
v -0.00726291 -0.07697505 0.00342857
v -0.00468356 -0.07171351 0.00342857
v -0.00444301 -0.07116260 0.00342857
v -0.00409994 -0.07036701 0.00342857
v -0.00925940 -0.07922080 0.00342857
v -0.00935181 -0.07925317 0.00342857
v -0.00905010 -0.07911722 0.00342857
v -0.00895667 -0.07905646 0.00342857
v -0.00828332 -0.07843142 0.00342857
v -0.00810856 -0.07822586 0.00342857
v -0.00808575 -0.07819821 0.00342857
v -0.00801030 -0.07810337 0.00342857
v -0.00793923 -0.07800770 0.00342857
v -0.00783568 -0.07786148 0.00342857
v -0.00751780 -0.07737989 0.00342857
v -0.00760561 -0.07751519 0.00342857
v -0.00512018 -0.07270108 0.00342857
v -0.00513865 -0.07274148 0.00342857
v -0.00539008 -0.07329080 0.00342857
v -0.00616786 -0.07493352 0.00342857
v 0.00066482 -0.05901234 0.00342857
v 0.00031489 -0.05984741 0.00342857
v -0.00151925 -0.06422445 0.00342857
v 0.00108771 -0.05718839 0.00342857
v 0.00187849 -0.05237535 0.00342857
v 0.00446939 -0.03660573 0.00342857
v -0.00474580 -0.03674394 0.00912983
v -0.00478780 -0.03674931 0.00912608
v -0.00487118 -0.03675996 0.00910743
v -0.00491224 -0.03676520 0.00909256
v -0.00495268 -0.03677037 0.00907403
v -0.00503106 -0.03678038 0.00902620
v -0.00514010 -0.03679431 0.00892869
v -0.00520538 -0.03680265 0.00884774
v -0.00526343 -0.03681006 0.00875537
v -0.00531334 -0.03681643 0.00865274
v -0.00533494 -0.03681919 0.00859806
v -0.00535418 -0.03682165 0.00854140
v -0.00539684 -0.03682710 0.00836169
v -0.00540579 -0.03682824 0.00829931
v -0.00541201 -0.03682904 0.00823615
v 0.00272271 -0.03579001 0.00911550
v 0.00463684 -0.03554552 0.00638734
v 0.00462686 -0.03554679 0.00652501
v 0.00461224 -0.03554866 0.00666396
v 0.00459281 -0.03555114 0.00680374
v 0.00453905 -0.03555801 0.00708377
v 0.00446486 -0.03556749 0.00736087
v 0.00442004 -0.03557321 0.00749691
v 0.00437011 -0.03557959 0.00763050
v 0.00431516 -0.03558661 0.00776106
v 0.00425532 -0.03559425 0.00788801
v 0.00419075 -0.03560250 0.00801079
v 0.00412166 -0.03561132 0.00812887
v 0.00404830 -0.03562069 0.00824176
v 0.00397095 -0.03563057 0.00834897
v 0.00388993 -0.03564092 0.00845010
v 0.00380558 -0.03565169 0.00854478
v 0.00362838 -0.03567433 0.00871358
v 0.00353630 -0.03568609 0.00878725
v 0.00344244 -0.03569808 0.00885357
v 0.00334721 -0.03571024 0.00891246
v 0.00315420 -0.03573489 0.00900796
v 0.00296035 -0.03575965 0.00907428
v 0.00286400 -0.03577196 0.00909688
v 0.00464373 -0.03554464 0.00611266
v -0.00541621 -0.03682957 0.00342857
v 0.00464373 -0.03554464 0.00517157
v -0.00482965 -0.03675465 0.00911861
v -0.00499234 -0.03677543 0.00905189
v -0.00506870 -0.03678519 0.00899704
v -0.00510509 -0.03678984 0.00896450
v -0.00517357 -0.03679858 0.00888972
v -0.00523534 -0.03680647 0.00880295
v -0.00528946 -0.03681338 0.00870524
v -0.00537097 -0.03682379 0.00848297
v -0.00538520 -0.03682561 0.00842299
v -0.00541621 -0.03682957 0.00812559
v 0.00456845 -0.03555425 0.00694384
v 0.00450452 -0.03556242 0.00722296
v 0.00371828 -0.03566284 0.00863269
v 0.00325099 -0.03572253 0.00896391
v 0.00305719 -0.03574728 0.00904470
v 0.00276848 -0.03578416 0.00911273
v 0.00464373 -0.03554464 0.00342857
f 758 590 715
f 38 732 717
f 78 77 717
f 719 82 83
f 716 775 758
f 758 715 716
f 714 715 590
f 773 343 753
f 730 731 105
f 105 104 730
f 105 731 92
f 92 93 105
f 768 96 94
f 94 731 768
f 92 731 94
f 76 16 17
f 721 760 80
f 753 343 341
f 758 756 591
f 591 590 758
f 591 756 590
f 689 714 243
f 243 714 590
f 590 756 243
f 343 773 262
f 261 343 262
f 262 773 754
f 732 333 774
f 717 75 37
f 37 36 717
f 75 36 37
f 726 727 111
f 111 727 113
f 763 129 723
f 80 760 79
f 760 134 79
f 83 82 141
f 85 16 76
f 85 76 147
f 76 17 15
f 77 78 15
f 147 76 15
f 78 84 15
f 261 262 310
f 589 286 580
f 4 14 8
f 8 14 87
f 759 719 83
f 83 84 759
f 82 719 720
f 753 341 772
f 342 343 261
f 342 341 343
f 733 243 756
f 338 259 260
f 260 754 338
f 260 262 754
f 755 258 339
f 754 755 339
f 338 754 339
f 337 774 336
f 62 39 75
f 717 77 62
f 62 75 717
f 77 15 62
f 62 15 17
f 130 129 763
f 730 104 729
f 766 767 98
f 104 105 91
f 91 103 104
f 91 105 93
f 239 103 91
f 93 240 91
f 91 240 239
f 238 103 239
f 762 723 127
f 127 723 129
f 9 138 145
f 145 140 6
f 145 138 140
f 217 63 6
f 6 218 217
f 3 63 217
f 139 84 83
f 83 141 139
f 147 15 139
f 139 15 84
f 139 141 140
f 139 138 147
f 140 138 139
f 80 144 81
f 82 720 81
f 81 720 721
f 81 721 80
f 132 144 80
f 80 79 132
f 132 79 134
f 143 141 82
f 82 81 143
f 143 81 144
f 129 130 115
f 96 242 95
f 95 94 96
f 95 93 92
f 92 94 95
f 241 242 90
f 241 95 242
f 241 240 93
f 93 95 241
f 16 85 86
f 310 577 305
f 312 310 262
f 312 260 259
f 262 260 312
f 743 744 363
f 744 745 364
f 363 744 364
f 9 434 7
f 7 138 9
f 434 461 438
f 438 7 434
f 435 7 438
f 14 435 438
f 718 78 717
f 718 84 78
f 718 759 84
f 752 772 348
f 347 752 348
f 348 772 341
f 348 346 347
f 748 771 355
f 750 751 351
f 351 352 750
f 750 352 350
f 352 351 350
f 740 370 739
f 331 333 732
f 732 329 331
f 334 774 333
f 334 323 774
f 320 259 338
f 338 339 320
f 39 573 574
f 575 17 16
f 575 573 17
f 575 574 573
f 61 573 39
f 39 62 61
f 17 573 61
f 61 62 17
f 21 22 75
f 726 107 765
f 109 726 111
f 109 107 726
f 108 107 109
f 120 764 725
f 724 764 116
f 724 130 763
f 116 130 724
f 102 729 104
f 104 103 102
f 767 729 102
f 728 113 727
f 191 237 238
f 114 97 113
f 114 766 98
f 114 728 766
f 113 728 114
f 101 102 103
f 103 238 101
f 238 237 101
f 111 113 112
f 113 97 112
f 123 761 762
f 153 151 218
f 760 722 136
f 136 134 760
f 135 132 134
f 134 136 135
f 128 127 129
f 129 115 128
f 119 120 106
f 106 107 108
f 119 230 117
f 117 116 119
f 117 130 116
f 117 115 130
f 89 241 90
f 240 241 89
f 87 86 5
f 5 8 87
f 5 86 85
f 4 8 5
f 138 7 5
f 261 310 307
f 310 305 307
f 286 589 288
f 353 351 751
f 750 350 749
f 355 771 356
f 771 749 356
f 356 749 350
f 733 734 383
f 253 388 396
f 396 388 397
f 393 401 392
f 741 370 740
f 742 743 369
f 369 743 363
f 328 331 329
f 333 331 328
f 326 324 39
f 39 328 326
f 326 328 329
f 732 38 325
f 325 324 732
f 38 39 325
f 39 324 325
f 39 574 321
f 319 339 258
f 319 320 339
f 319 575 320
f 311 312 259
f 259 320 311
f 436 575 16
f 87 14 436
f 16 86 436
f 436 86 87
f 40 38 717
f 717 41 40
f 40 41 38
f 121 120 725
f 725 765 121
f 121 765 107
f 107 106 121
f 121 106 120
f 116 764 118
f 764 120 118
f 119 116 118
f 118 120 119
f 239 240 193
f 240 89 193
f 98 101 99
f 99 114 98
f 97 114 99
f 236 97 99
f 99 237 236
f 99 101 237
f 100 101 98
f 102 101 100
f 98 767 100
f 767 102 100
f 110 109 111
f 111 112 110
f 108 109 110
f 762 127 125
f 125 123 762
f 124 123 125
f 137 722 761
f 761 123 137
f 137 136 722
f 218 151 149
f 3 217 149
f 149 217 218
f 131 143 144
f 221 222 157
f 157 220 221
f 221 131 222
f 140 220 219
f 6 140 219
f 219 218 6
f 219 153 218
f 228 128 115
f 108 110 233
f 173 174 172
f 178 179 180
f 178 177 179
f 173 172 171
f 171 228 173
f 146 85 147
f 146 5 85
f 147 138 146
f 138 5 146
f 13 7 435
f 13 5 7
f 4 5 13
f 13 14 4
f 13 435 14
f 580 286 292
f 286 285 292
f 255 364 745
f 394 401 393
f 446 445 444
f 455 450 456
f 430 412 431
f 429 569 568
f 430 477 429
f 571 655 570
f 485 571 570
f 475 429 477
f 569 429 475
f 469 453 535
f 483 571 485
f 482 481 483
f 485 484 483
f 483 484 482
f 423 422 272
f 424 496 423
f 415 251 416
f 271 269 424
f 271 423 272
f 424 423 271
f 269 267 426
f 426 267 427
f 426 427 490
f 490 492 426
f 477 478 476
f 474 475 476
f 476 475 477
f 479 478 477
f 479 431 481
f 479 477 430
f 430 431 479
f 485 570 487
f 64 63 3
f 440 438 461
f 442 441 440
f 444 442 459
f 194 598 599
f 152 154 204
f 153 154 152
f 160 207 158
f 157 154 155
f 155 154 153
f 155 220 157
f 153 219 155
f 155 219 220
f 73 70 71
f 3 149 1
f 347 346 345
f 345 353 751
f 345 751 752
f 345 752 347
f 351 353 344
f 344 345 346
f 353 345 344
f 344 350 351
f 355 356 349
f 349 356 350
f 380 388 253
f 381 378 380
f 378 388 380
f 382 383 734
f 382 734 735
f 735 381 382
f 381 380 382
f 415 668 713
f 399 390 391
f 391 392 399
f 397 390 398
f 398 390 399
f 389 388 378
f 397 388 389
f 389 390 397
f 375 389 378
f 390 389 375
f 375 376 373
f 373 391 375
f 375 391 390
f 736 381 735
f 770 376 737
f 280 275 281
f 281 275 401
f 393 392 371
f 371 739 370
f 371 391 373
f 392 391 371
f 366 741 742
f 372 738 739
f 372 371 373
f 739 371 372
f 327 329 732
f 327 326 329
f 732 324 327
f 324 326 327
f 323 334 332
f 332 321 323
f 39 321 332
f 323 321 335
f 336 774 335
f 774 323 335
f 318 319 258
f 574 575 318
f 575 319 318
f 578 577 310
f 310 312 578
f 575 436 439
f 438 440 439
f 439 440 441
f 444 445 443
f 443 442 444
f 443 441 442
f 443 578 441
f 443 445 577
f 577 578 443
f 36 43 42
f 717 36 42
f 42 41 717
f 38 41 42
f 42 39 38
f 42 43 39
f 39 43 44
f 44 43 36
f 75 33 34
f 32 33 75
f 35 33 46
f 35 44 36
f 35 34 33
f 35 36 75
f 75 34 35
f 239 193 192
f 192 238 239
f 192 191 238
f 237 191 189
f 236 237 189
f 189 187 236
f 189 188 187
f 127 128 126
f 126 125 127
f 124 125 126
f 122 123 124
f 122 137 123
f 122 224 135
f 122 135 136
f 136 137 122
f 124 225 122
f 225 224 122
f 133 135 222
f 222 131 133
f 132 135 133
f 144 132 133
f 133 131 144
f 142 220 140
f 143 131 142
f 142 221 220
f 131 221 142
f 140 141 142
f 141 143 142
f 157 222 159
f 159 158 157
f 128 228 227
f 228 171 227
f 227 126 128
f 229 117 230
f 173 228 229
f 115 117 229
f 229 228 115
f 231 177 230
f 179 177 231
f 231 230 119
f 119 106 231
f 175 174 173
f 230 177 175
f 173 229 175
f 175 229 230
f 194 207 208
f 208 207 160
f 208 164 209
f 174 215 214
f 213 172 214
f 214 172 174
f 212 211 168
f 209 164 210
f 210 610 209
f 177 178 176
f 174 175 176
f 176 175 177
f 176 215 174
f 168 167 169
f 169 227 171
f 687 688 89
f 596 193 628
f 463 453 465
f 586 587 449
f 577 445 576
f 745 746 256
f 256 255 745
f 256 746 357
f 364 255 257
f 363 364 257
f 747 748 361
f 361 360 747
f 361 748 355
f 358 746 747
f 747 360 358
f 357 746 358
f 362 394 393
f 362 369 363
f 363 394 362
f 401 394 402
f 402 281 401
f 454 503 453
f 453 463 454
f 501 536 535
f 535 453 501
f 504 454 455
f 503 454 504
f 448 456 450
f 450 449 448
f 448 446 457
f 457 456 448
f 511 461 434
f 511 510 461
f 511 512 510
f 481 431 572
f 571 483 572
f 572 483 481
f 563 553 552
f 653 570 655
f 432 431 412
f 432 572 431
f 656 655 571
f 571 572 656
f 473 475 474
f 569 475 473
f 473 531 569
f 471 531 473
f 465 453 467
f 453 469 467
f 470 469 471
f 494 496 424
f 494 492 493
f 264 416 251
f 272 422 264
f 422 416 264
f 263 396 397
f 263 271 272
f 272 264 263
f 424 269 425
f 269 426 425
f 425 494 424
f 425 426 492
f 492 494 425
f 480 420 478
f 480 481 482
f 480 479 481
f 478 479 480
f 588 589 474
f 474 476 588
f 588 288 589
f 588 289 288
f 419 480 482
f 420 480 419
f 495 494 493
f 495 497 496
f 496 494 495
f 490 489 491
f 491 492 490
f 493 492 491
f 488 489 490
f 488 487 489
f 490 427 488
f 427 428 488
f 461 510 460
f 460 440 461
f 442 440 460
f 460 459 442
f 444 459 458
f 458 446 444
f 457 446 458
f 195 207 194
f 194 599 195
f 615 213 617
f 611 211 614
f 150 149 151
f 151 153 150
f 153 152 150
f 156 154 157
f 157 158 156
f 69 71 70
f 73 71 411
f 66 88 72
f 72 70 73
f 72 88 70
f 2 64 3
f 3 1 2
f 513 64 2
f 350 344 406
f 406 349 350
f 344 386 406
f 253 247 246
f 246 245 253
f 712 711 251
f 712 251 415
f 415 713 712
f 270 263 397
f 269 271 270
f 271 263 270
f 379 378 381
f 381 736 379
f 379 736 769
f 399 275 277
f 277 398 399
f 400 392 401
f 401 275 400
f 399 392 400
f 400 275 399
f 280 281 282
f 282 419 280
f 420 419 282
f 370 741 365
f 741 366 365
f 365 371 370
f 742 369 368
f 368 366 742
f 369 362 368
f 373 376 374
f 374 372 373
f 374 376 770
f 770 738 374
f 738 372 374
f 330 334 333
f 330 332 334
f 333 328 330
f 330 328 39
f 39 332 330
f 313 318 258
f 441 578 579
f 575 439 579
f 579 439 441
f 320 575 579
f 579 311 320
f 312 311 579
f 579 578 312
f 438 439 437
f 437 439 436
f 14 438 437
f 437 436 14
f 39 53 54
f 48 49 39
f 33 32 48
f 48 32 49
f 75 30 31
f 31 32 75
f 30 32 31
f 45 35 46
f 44 35 45
f 45 46 39
f 39 44 45
f 187 188 186
f 180 179 181
f 233 183 181
f 236 187 235
f 235 97 236
f 235 112 97
f 165 224 225
f 165 163 224
f 225 167 165
f 164 163 165
f 224 163 161
f 161 159 222
f 160 158 161
f 158 159 161
f 162 163 164
f 162 208 160
f 164 208 162
f 160 161 162
f 162 161 163
f 226 167 225
f 126 227 226
f 226 169 167
f 227 169 226
f 226 225 124
f 124 126 226
f 622 620 180
f 180 181 182
f 182 181 183
f 179 231 232
f 232 181 179
f 233 181 232
f 108 233 232
f 232 106 108
f 232 231 106
f 170 172 213
f 213 212 170
f 170 212 168
f 170 171 172
f 168 169 170
f 170 169 171
f 166 210 164
f 166 167 168
f 168 211 166
f 211 210 166
f 166 165 167
f 164 165 166
f 610 210 675
f 452 463 462
f 452 454 463
f 452 450 455
f 455 454 452
f 580 292 581
f 581 470 580
f 309 576 587
f 587 304 309
f 303 309 304
f 403 402 395
f 395 402 394
f 395 257 255
f 395 394 363
f 363 257 395
f 255 256 395
f 359 358 360
f 357 358 359
f 359 256 357
f 359 395 256
f 288 289 283
f 283 289 284
f 281 402 283
f 284 282 283
f 283 282 281
f 453 503 502
f 502 501 453
f 538 502 503
f 447 448 449
f 447 576 445
f 445 446 447
f 446 448 447
f 447 449 587
f 587 576 447
f 65 64 513
f 513 512 65
f 63 64 65
f 10 434 9
f 10 511 434
f 9 145 10
f 10 145 6
f 561 650 651
f 412 705 658
f 536 550 534
f 535 536 534
f 533 532 531
f 533 469 535
f 535 534 533
f 533 534 532
f 533 531 471
f 471 469 533
f 568 553 413
f 413 429 568
f 413 412 430
f 430 429 413
f 530 553 568
f 531 532 530
f 530 532 552
f 552 553 530
f 568 569 530
f 569 531 530
f 562 563 552
f 433 487 570
f 489 487 433
f 657 432 691
f 691 432 659
f 580 470 472
f 474 589 472
f 472 589 580
f 472 473 474
f 471 473 472
f 472 470 471
f 416 500 414
f 414 668 415
f 415 416 414
f 499 416 422
f 499 500 416
f 396 263 265
f 265 263 264
f 265 264 251
f 421 476 478
f 421 588 476
f 478 420 421
f 421 282 284
f 420 282 421
f 284 289 421
f 289 588 421
f 482 484 418
f 418 419 482
f 497 707 638
f 709 495 661
f 663 660 493
f 662 491 710
f 487 488 486
f 486 484 485
f 485 487 486
f 486 488 428
f 207 195 206
f 206 158 207
f 603 672 198
f 70 200 201
f 201 69 70
f 201 607 592
f 592 69 201
f 203 152 204
f 203 150 152
f 670 598 194
f 194 609 670
f 613 212 616
f 148 1 149
f 149 150 148
f 521 69 592
f 71 69 521
f 521 411 71
f 66 72 74
f 74 67 66
f 74 72 73
f 73 411 74
f 514 2 1
f 1 515 514
f 564 513 514
f 513 2 514
f 291 292 285
f 291 581 292
f 290 406 386
f 252 248 247
f 252 247 253
f 253 396 252
f 396 265 252
f 249 248 252
f 252 265 249
f 250 265 251
f 249 265 250
f 245 244 254
f 253 245 254
f 254 380 253
f 383 382 254
f 254 382 380
f 377 375 378
f 378 379 377
f 376 375 377
f 377 737 376
f 769 737 377
f 377 379 769
f 398 277 268
f 268 267 269
f 269 270 268
f 397 398 268
f 268 270 397
f 276 275 274
f 276 277 275
f 366 368 367
f 367 365 366
f 367 362 393
f 367 368 362
f 393 371 367
f 371 365 367
f 385 258 755
f 385 313 258
f 337 313 385
f 755 774 385
f 774 337 385
f 336 335 322
f 322 315 336
f 322 335 321
f 322 321 574
f 574 315 322
f 314 313 337
f 314 337 336
f 318 313 314
f 22 59 58
f 39 57 58
f 58 59 39
f 29 54 53
f 29 30 75
f 56 57 39
f 56 54 57
f 52 51 30
f 30 29 52
f 52 29 53
f 52 53 39
f 39 51 52
f 50 32 30
f 30 51 50
f 49 32 50
f 39 49 50
f 50 51 39
f 46 33 47
f 33 48 47
f 39 46 47
f 47 48 39
f 625 188 627
f 190 189 191
f 188 189 190
f 184 182 183
f 597 594 192
f 185 235 187
f 185 184 183
f 187 186 185
f 186 184 185
f 234 183 233
f 112 235 234
f 234 185 183
f 235 185 234
f 234 110 112
f 234 233 110
f 223 161 222
f 224 161 223
f 222 135 223
f 135 224 223
f 621 182 682
f 678 679 215
f 215 176 216
f 216 176 178
f 676 677 214
f 612 675 210
f 451 452 462
f 586 449 451
f 451 449 450
f 450 452 451
f 464 584 462
f 583 584 464
f 464 463 465
f 462 463 464
f 306 307 305
f 261 307 306
f 306 305 577
f 577 576 306
f 306 303 261
f 387 386 344
f 302 303 304
f 586 300 302
f 302 587 586
f 302 304 587
f 341 342 340
f 340 342 261
f 261 303 340
f 340 348 341
f 346 348 340
f 340 344 346
f 340 387 344
f 288 283 287
f 286 288 287
f 287 402 403
f 287 283 402
f 287 285 286
f 502 538 537
f 536 501 537
f 501 502 537
f 503 504 539
f 539 538 503
f 539 504 540
f 564 517 543
f 543 513 564
f 543 512 513
f 510 512 543
f 6 63 12
f 63 65 12
f 12 65 512
f 512 511 12
f 408 637 407
f 407 558 408
f 558 407 559
f 540 541 545
f 552 532 551
f 532 534 551
f 551 534 550
f 551 562 552
f 551 550 561
f 561 562 551
f 706 553 704
f 706 413 553
f 701 702 563
f 704 553 703
f 652 562 699
f 665 433 654
f 500 694 667
f 496 497 498
f 498 423 496
f 422 423 498
f 498 499 422
f 280 419 273
f 419 418 273
f 273 418 274
f 274 275 273
f 273 275 280
f 708 707 497
f 417 486 428
f 417 418 484
f 484 486 417
f 274 418 417
f 417 276 274
f 204 154 205
f 154 156 205
f 205 156 158
f 158 206 205
f 197 198 204
f 204 205 197
f 199 604 605
f 605 200 199
f 204 198 199
f 199 203 204
f 607 201 674
f 70 88 202
f 202 200 70
f 202 199 200
f 203 199 202
f 202 88 66
f 66 148 202
f 150 203 202
f 202 148 150
f 523 643 696
f 528 410 529
f 698 637 408
f 408 409 698
f 522 410 528
f 641 521 592
f 528 567 524
f 523 522 524
f 524 522 528
f 540 504 505
f 505 541 540
f 455 456 505
f 505 504 455
f 1 148 68
f 68 515 1
f 68 148 66
f 66 67 68
f 67 515 68
f 554 519 520
f 520 519 518
f 520 567 554
f 67 74 527
f 527 515 67
f 527 74 411
f 565 514 515
f 564 514 565
f 565 517 564
f 518 517 565
f 582 581 299
f 581 291 299
f 299 291 285
f 285 290 299
f 298 583 582
f 406 290 405
f 349 406 405
f 383 254 384
f 384 254 244
f 384 244 243
f 243 733 384
f 733 383 384
f 279 268 277
f 279 428 427
f 277 276 278
f 428 279 278
f 278 279 277
f 278 417 428
f 276 417 278
f 336 315 317
f 317 314 336
f 318 314 317
f 18 19 39
f 18 59 22
f 22 19 18
f 22 21 20
f 20 19 22
f 39 19 20
f 75 39 20
f 20 21 75
f 22 58 24
f 24 58 57
f 57 54 27
f 75 26 27
f 39 54 55
f 55 56 39
f 54 56 55
f 684 190 686
f 686 190 685
f 626 624 186
f 623 184 683
f 585 300 586
f 462 584 585
f 586 451 585
f 585 451 462
f 582 583 466
f 583 464 466
f 465 467 466
f 466 464 465
f 576 309 308
f 308 306 576
f 309 303 308
f 303 306 308
f 301 302 300
f 303 302 301
f 301 340 303
f 387 340 301
f 548 537 538
f 558 559 548
f 11 10 6
f 6 12 11
f 511 10 11
f 11 12 511
f 646 407 636
f 636 407 637
f 561 550 560
f 648 649 560
f 556 529 409
f 700 701 563
f 692 693 499
f 640 694 500
f 196 205 206
f 196 197 205
f 196 206 195
f 196 600 601
f 602 197 671
f 604 199 673
f 606 674 201
f 697 698 409
f 410 690 644
f 695 522 642
f 525 524 567
f 523 524 525
f 525 521 523
f 411 521 525
f 544 519 554
f 544 545 541
f 457 458 507
f 567 520 526
f 526 525 567
f 526 527 411
f 411 525 526
f 566 565 515
f 566 526 520
f 566 520 518
f 518 565 566
f 515 527 566
f 527 526 566
f 296 584 583
f 583 298 296
f 296 290 386
f 296 298 290
f 582 299 297
f 297 298 582
f 297 299 290
f 290 298 297
f 360 361 354
f 354 359 360
f 354 361 355
f 355 349 354
f 349 405 354
f 404 290 285
f 404 405 290
f 359 354 404
f 404 354 405
f 285 287 404
f 404 287 403
f 403 395 404
f 395 359 404
f 427 267 266
f 266 279 427
f 267 268 266
f 268 279 266
f 574 318 316
f 318 317 316
f 316 315 574
f 316 317 315
f 39 59 60
f 60 18 39
f 59 18 60
f 75 22 23
f 23 24 75
f 22 24 23
f 25 26 75
f 75 24 25
f 25 27 26
f 25 24 57
f 57 27 25
f 54 29 28
f 28 27 54
f 28 29 75
f 75 27 28
f 681 216 680
f 216 619 680
f 582 466 468
f 468 581 582
f 470 581 468
f 469 470 468
f 468 467 469
f 468 466 467
f 538 539 547
f 547 548 538
f 558 548 547
f 559 560 549
f 549 548 559
f 549 560 550
f 537 548 549
f 549 550 536
f 536 537 549
f 554 567 555
f 555 567 528
f 555 544 554
f 528 529 555
f 529 556 555
f 555 556 545
f 545 544 555
f 666 690 410
f 508 458 459
f 508 507 458
f 457 507 506
f 506 456 457
f 506 505 456
f 541 505 506
f 541 506 542
f 542 506 507
f 542 544 541
f 519 544 542
f 300 585 293
f 293 585 584
f 293 301 300
f 386 387 293
f 387 301 293
f 545 556 546
f 540 545 546
f 546 539 540
f 546 547 539
f 510 543 509
f 543 508 509
f 509 460 510
f 459 460 509
f 509 508 459
f 507 508 516
f 516 542 507
f 516 543 517
f 516 508 543
f 519 542 516
f 516 517 518
f 518 519 516
f 584 296 294
f 294 293 584
f 557 546 556
f 408 558 557
f 558 547 557
f 547 546 557
f 557 409 408
f 557 556 409
f 295 296 386
f 295 294 296
f 386 293 295
f 293 294 295
f 757 669 96
f 96 768 757
f 90 242 593
f 593 96 669
f 593 242 96
f 717 732 737
f 737 731 730
f 737 775 757
f 760 721 737
f 737 751 750
f 757 768 737
f 737 738 770
f 758 775 737
f 727 726 737
f 737 765 725
f 735 734 737
f 753 772 737
f 737 748 747
f 737 756 758
f 737 773 753
f 768 731 737
f 737 724 763
f 737 718 717
f 737 755 754
f 754 773 737
f 732 774 737
f 763 723 737
f 747 746 737
f 744 743 737
f 737 720 719
f 737 774 755
f 740 739 737
f 730 729 737
f 737 723 762
f 762 761 737
f 737 722 760
f 737 745 744
f 719 759 737
f 721 720 737
f 752 751 737
f 737 772 752
f 737 728 727
f 737 733 756
f 750 749 737
f 725 764 737
f 737 729 767
f 767 766 737
f 761 722 737
f 737 743 742
f 759 718 737
f 771 748 737
f 737 734 733
f 737 741 740
f 726 765 737
f 764 724 737
f 766 728 737
f 737 749 771
f 737 736 735
f 742 741 737
f 739 738 737
f 737 746 745
f 769 736 737
f 90 593 687
f 687 89 90
f 628 193 89
f 89 688 628
f 656 432 657
f 572 432 656
f 660 495 493
f 661 495 660
f 211 212 614
f 614 212 613
f 633 632 248
f 248 632 247
f 634 633 248
f 248 249 634
f 246 632 631
f 247 632 246
f 631 630 246
f 246 630 245
f 244 629 689
f 689 243 244
f 244 630 629
f 245 630 244
f 621 622 182
f 182 622 180
f 617 213 677
f 213 214 677
f 659 432 658
f 658 432 412
f 665 664 433
f 433 664 489
f 493 491 663
f 663 491 662
f 489 664 710
f 710 491 489
f 209 610 608
f 608 208 209
f 194 208 608
f 608 609 194
f 616 212 213
f 213 615 616
f 711 635 250
f 251 711 250
f 634 249 250
f 250 635 634
f 684 627 190
f 190 627 188
f 597 193 596
f 597 192 193
f 595 190 191
f 685 190 595
f 191 192 595
f 192 594 595
f 682 184 623
f 182 184 682
f 681 678 216
f 216 678 215
f 215 679 676
f 676 214 215
f 612 211 611
f 612 210 211
f 706 705 412
f 412 413 706
f 553 563 703
f 563 702 703
f 561 651 699
f 699 562 561
f 570 653 654
f 654 433 570
f 668 414 667
f 667 414 500
f 498 638 639
f 497 638 498
f 497 495 708
f 495 709 708
f 602 603 197
f 197 603 198
f 522 696 642
f 523 696 522
f 641 643 523
f 523 521 641
f 626 188 625
f 626 186 188
f 186 624 683
f 683 184 186
f 560 649 650
f 560 650 561
f 647 407 646
f 647 559 407
f 648 560 647
f 647 560 559
f 700 562 652
f 563 562 700
f 692 498 639
f 499 498 692
f 500 499 640
f 499 693 640
f 599 600 196
f 196 195 599
f 671 196 601
f 197 196 671
f 198 672 673
f 673 199 198
f 606 200 605
f 606 201 200
f 697 529 645
f 409 529 697
f 645 529 644
f 644 529 410
f 180 620 618
f 618 178 180
f 618 216 178
f 618 619 216
f 689 629 666
f 757 775 666
f 666 669 757
f 666 593 669
f 666 714 689
f 646 636 666
f 666 600 599
f 775 716 666
f 666 686 685
f 625 627 666
f 666 716 715
f 715 714 666
f 666 603 602
f 694 640 666
f 666 676 679
f 631 632 666
f 655 656 666
f 666 664 665
f 634 635 666
f 666 691 659
f 711 712 666
f 666 687 593
f 642 696 666
f 666 706 704
f 661 660 666
f 666 599 598
f 611 614 666
f 666 633 634
f 666 697 645
f 666 713 668
f 623 683 666
f 596 628 666
f 659 658 666
f 652 699 666
f 668 667 666
f 662 710 666
f 617 677 666
f 666 615 617
f 592 607 666
f 666 606 605
f 666 630 631
f 685 595 666
f 620 622 666
f 688 687 666
f 666 628 688
f 704 703 666
f 650 649 666
f 666 653 655
f 666 656 657
f 639 638 666
f 666 709 661
f 666 663 662
f 605 604 666
f 598 670 666
f 666 608 610
f 666 614 613
f 613 616 666
f 666 632 633
f 666 635 711
f 629 630 666
f 666 712 713
f 666 641 592
f 666 597 596
f 666 622 621
f 666 682 623
f 679 678 666
f 610 675 666
f 666 651 650
f 666 612 611
f 681 680 666
f 666 658 705
f 666 647 646
f 657 691 666
f 665 654 666
f 666 638 707
f 666 700 652
f 660 663 666
f 666 710 664
f 707 708 666
f 602 671 666
f 672 603 666
f 666 670 609
f 609 608 666
f 666 616 615
f 666 673 672
f 666 627 684
f 666 626 625
f 594 597 666
f 666 595 594
f 621 682 666
f 666 678 681
f 677 676 666
f 675 612 666
f 666 649 648
f 705 706 666
f 702 701 666
f 666 703 702
f 666 699 651
f 666 654 653
f 666 667 694
f 666 692 639
f 666 708 709
f 601 600 666
f 607 674 666
f 666 696 643
f 637 698 666
f 645 644 666
f 643 641 666
f 684 686 666
f 624 626 666
f 666 683 624
f 666 695 642
f 666 636 637
f 648 647 666
f 701 700 666
f 693 692 666
f 666 640 693
f 666 671 601
f 604 673 666
f 674 606 666
f 698 697 666
f 666 644 690
f 666 618 620
f 666 680 619
f 619 618 666
f 410 522 666
f 522 695 666

