# https://github.com/mikedh/trimesh
v -0.00900000 -0.02106254 0.02002953
v -0.00900000 -0.02102485 0.02005259
v -0.00908716 -0.02102290 0.02004932
v -0.00900000 -0.02119783 0.01993675
v -0.00900000 -0.02116869 0.01995814
v -0.00908716 -0.02116647 0.01995505
v -0.00900000 -0.02132507 0.01983319
v -0.00900000 -0.02130388 0.01985167
v -0.00908716 -0.02130140 0.01984878
v -0.00900000 -0.02144339 0.01971955
v -0.00900000 -0.02142941 0.01973397
v -0.00908716 -0.02142669 0.01973131
v -0.00900000 -0.02155199 0.01959660
v -0.00900000 -0.02154437 0.01960593
v -0.00908716 -0.02154143 0.01960351
v -0.00900000 -0.02181260 0.01918040
v -0.00900000 -0.02173921 0.01932262
v -0.00908716 -0.02173590 0.01932074
v -0.00900000 -0.02187578 0.01902900
v -0.00900000 -0.02181766 0.01916947
v -0.00908716 -0.02181420 0.01916788
v -0.00900000 -0.02192633 0.01887293
v -0.00900000 -0.02188265 0.01901013
v -0.00908716 -0.02187907 0.01900885
v -0.00900000 -0.02196393 0.01871325
v -0.00900000 -0.02193370 0.01884580
v -0.00908716 -0.02193002 0.01884483
v -0.00900000 -0.02198831 0.01855102
v -0.00900000 -0.02197044 0.01867769
v -0.00908716 -0.02196669 0.01867704
v -0.00900000 -0.02200000 0.01833513
v -0.00900000 -0.02199260 0.01850704
v -0.00908716 -0.02199619 0.01833513
v -0.00908716 -0.02198881 0.01850672
v -0.00917365 -0.02198481 0.01833513
v -0.00917365 -0.02197746 0.01850574
v -0.00925882 -0.02196593 0.01833513
v -0.00925882 -0.02195865 0.01850412
v -0.00934202 -0.02193969 0.01833513
v -0.00934202 -0.02193251 0.01850186
v -0.00942262 -0.02190631 0.01833513
v -0.00942262 -0.02189925 0.01849899
v -0.00950000 -0.02186603 0.01833513
v -0.00950000 -0.02185912 0.01849553
v -0.00957358 -0.02181915 0.01833513
v -0.00957358 -0.02181242 0.01849150
v -0.00964279 -0.02176604 0.01833513
v -0.00964279 -0.02175951 0.01848693
v -0.00970711 -0.02170711 0.01833513
v -0.00970711 -0.02170079 0.01848187
v -0.00976604 -0.02164279 0.01833513
v -0.00976604 -0.02163671 0.01847634
v -0.00981915 -0.02157358 0.01833513
v -0.00981915 -0.02156775 0.01847039
v -0.00986603 -0.02150000 0.01833513
v -0.00986603 -0.02149445 0.01846407
v -0.00990631 -0.02142262 0.01833513
v -0.00990631 -0.02141735 0.01845741
v -0.00993969 -0.02134202 0.01833513
v -0.00993969 -0.02133705 0.01845049
v -0.00996593 -0.02125882 0.01833513
v -0.00996593 -0.02125416 0.01844333
v -0.00998481 -0.02117365 0.01833513
v -0.00998481 -0.02116930 0.01843601
v -0.00999619 -0.02108716 0.01833513
v -0.00999619 -0.02108313 0.01842858
v -0.01000000 -0.02100000 0.01833513
v -0.01000000 -0.02099630 0.01842109
v -0.00917365 -0.02195548 0.01867509
v -0.00925882 -0.02193687 0.01867186
v -0.00934202 -0.02191103 0.01866736
v -0.00942262 -0.02187814 0.01866164
v -0.00950000 -0.02183845 0.01865475
v -0.00957358 -0.02179227 0.01864672
v -0.00964279 -0.02173994 0.01863762
v -0.00970711 -0.02168188 0.01862752
v -0.00976604 -0.02161851 0.01861651
v -0.00981915 -0.02155032 0.01860465
v -0.00986603 -0.02147783 0.01859205
v -0.00990631 -0.02140160 0.01857880
v -0.00993969 -0.02132219 0.01856499
v -0.00996593 -0.02124022 0.01855074
v -0.00998481 -0.02115630 0.01853615
v -0.00999619 -0.02107109 0.01852134
v -0.01000000 -0.02098522 0.01850641
v -0.00917365 -0.02191902 0.01884192
v -0.00925882 -0.02190076 0.01883710
v -0.00934202 -0.02187539 0.01883040
v -0.00942262 -0.02184312 0.01882188
v -0.00950000 -0.02180417 0.01881159
v -0.00957358 -0.02175885 0.01879963
v -0.00964279 -0.02170750 0.01878607
v -0.00970711 -0.02165052 0.01877102
v -0.00976604 -0.02158833 0.01875459
v -0.00981915 -0.02152142 0.01873692
v -0.00986603 -0.02145028 0.01871813
v -0.00990631 -0.02137546 0.01869838
v -0.00993969 -0.02129753 0.01867780
v -0.00996593 -0.02121709 0.01865655
v -0.00998481 -0.02113474 0.01863480
v -0.00999619 -0.02105112 0.01861272
v -0.01000000 -0.02096685 0.01859047
v -0.00917365 -0.02186835 0.01900500
v -0.00925882 -0.02185057 0.01899863
v -0.00934202 -0.02182588 0.01898978
v -0.00942262 -0.02179445 0.01897851
v -0.00950000 -0.02175654 0.01896492
v -0.00957358 -0.02171241 0.01894910
v -0.00964279 -0.02166242 0.01893117
v -0.00970711 -0.02160694 0.01891128
v -0.00976604 -0.02154640 0.01888957
v -0.00981915 -0.02148125 0.01886621
v -0.00986603 -0.02141199 0.01884138
v -0.00990631 -0.02133914 0.01881526
v -0.00993969 -0.02126328 0.01878806
v -0.00996593 -0.02118496 0.01875998
v -0.00998481 -0.02110478 0.01873124
v -0.00999619 -0.02102337 0.01870205
v -0.01000000 -0.02094132 0.01867263
v -0.00917365 -0.02180385 0.01916313
v -0.00925882 -0.02178669 0.01915525
v -0.00934202 -0.02176285 0.01914431
v -0.00942262 -0.02173251 0.01913038
v -0.00950000 -0.02169590 0.01911358
v -0.00957358 -0.02165330 0.01909402
v -0.00964279 -0.02160503 0.01907187
v -0.00970711 -0.02155147 0.01904728
v -0.00976604 -0.02149301 0.01902045
v -0.00981915 -0.02143011 0.01899157
v -0.00986603 -0.02136324 0.01896088
v -0.00990631 -0.02129292 0.01892860
v -0.00993969 -0.02121967 0.01889498
v -0.00996593 -0.02114405 0.01886027
v -0.00998481 -0.02106665 0.01882474
v -0.00999619 -0.02098804 0.01878865
v -0.01000000 -0.02090883 0.01875230
v -0.00917365 -0.02172600 0.01931512
v -0.00925882 -0.02170958 0.01930580
v -0.00934202 -0.02168677 0.01929285
v -0.00942262 -0.02165774 0.01927636
v -0.00950000 -0.02162270 0.01925647
v -0.00957358 -0.02158194 0.01923333
v -0.00964279 -0.02153576 0.01920711
v -0.00970711 -0.02148451 0.01917801
v -0.00976604 -0.02142858 0.01914625
v -0.00981915 -0.02136839 0.01911208
v -0.00986603 -0.02130441 0.01907575
v -0.00990631 -0.02123712 0.01903754
v -0.00993969 -0.02116703 0.01899775
v -0.00996593 -0.02109468 0.01895666
v -0.00998481 -0.02102061 0.01891461
v -0.00999619 -0.02094540 0.01887191
v -0.01000000 -0.02086961 0.01882887
v -0.00900000 -0.02164789 0.01946847
v -0.00908716 -0.02164475 0.01946631
v -0.00917365 -0.02163537 0.01945986
v -0.00925882 -0.02161981 0.01944916
v -0.00934202 -0.02159820 0.01943430
v -0.00942262 -0.02157069 0.01941538
v -0.00950000 -0.02153750 0.01939255
v -0.00957358 -0.02149888 0.01936599
v -0.00964279 -0.02145512 0.01933589
v -0.00970711 -0.02140656 0.01930249
v -0.00976604 -0.02135357 0.01926605
v -0.00981915 -0.02129654 0.01922683
v -0.00986603 -0.02123591 0.01918513
v -0.00990631 -0.02117216 0.01914128
v -0.00993969 -0.02110575 0.01909561
v -0.00996593 -0.02103720 0.01904846
v -0.00998481 -0.02096702 0.01900020
v -0.00999619 -0.02089575 0.01895119
v -0.01000000 -0.02082394 0.01890180
v -0.00917365 -0.02153264 0.01959627
v -0.00925882 -0.02151806 0.01958428
v -0.00934202 -0.02149780 0.01956761
v -0.00942262 -0.02147202 0.01954639
v -0.00950000 -0.02144091 0.01952080
v -0.00957358 -0.02140472 0.01949102
v -0.00964279 -0.02136371 0.01945727
v -0.00970711 -0.02131820 0.01941982
v -0.00976604 -0.02126853 0.01937895
v -0.00981915 -0.02121509 0.01933498
v -0.00986603 -0.02115827 0.01928823
v -0.00990631 -0.02109852 0.01923906
v -0.00993969 -0.02103629 0.01918785
v -0.00996593 -0.02097204 0.01913498
v -0.00998481 -0.02090627 0.01908086
v -0.00999619 -0.02083948 0.01902591
v -0.01000000 -0.02077218 0.01897053
v -0.00917365 -0.02141855 0.01972335
v -0.00925882 -0.02140506 0.01971014
v -0.00934202 -0.02138631 0.01969180
v -0.00942262 -0.02136245 0.01966844
v -0.00950000 -0.02133366 0.01964027
v -0.00957358 -0.02130016 0.01960749
v -0.00964279 -0.02126220 0.01957034
v -0.00970711 -0.02122008 0.01952912
v -0.00976604 -0.02117411 0.01948413
v -0.00981915 -0.02112464 0.01943572
v -0.00986603 -0.02107206 0.01938426
v -0.00990631 -0.02101675 0.01933014
v -0.00993969 -0.02095915 0.01927377
v -0.00996593 -0.02089969 0.01921557
v -0.00998481 -0.02083881 0.01915601
v -0.00999619 -0.02077700 0.01909551
v -0.01000000 -0.02071471 0.01903455
v -0.00917365 -0.02129397 0.01984015
v -0.00925882 -0.02128166 0.01982583
v -0.00934202 -0.02126456 0.01980594
v -0.00942262 -0.02124280 0.01978062
v -0.00950000 -0.02121653 0.01975008
v -0.00957358 -0.02118598 0.01971454
v -0.00964279 -0.02115135 0.01967427
v -0.00970711 -0.02111293 0.01962958
v -0.00976604 -0.02107100 0.01958081
v -0.00981915 -0.02102588 0.01952832
v -0.00986603 -0.02097791 0.01947253
v -0.00990631 -0.02092746 0.01941386
v -0.00993969 -0.02087492 0.01935274
v -0.00996593 -0.02082067 0.01928965
v -0.00998481 -0.02076515 0.01922507
v -0.00999619 -0.02070876 0.01915949
v -0.01000000 -0.02065194 0.01909340
v -0.00917365 -0.02115981 0.01994581
v -0.00925882 -0.02114878 0.01993049
v -0.00934202 -0.02113345 0.01990920
v -0.00942262 -0.02111394 0.01988211
v -0.00950000 -0.02109040 0.01984942
v -0.00957358 -0.02106301 0.01981138
v -0.00964279 -0.02103198 0.01976828
v -0.00970711 -0.02099754 0.01972045
v -0.00976604 -0.02095995 0.01966826
v -0.00981915 -0.02091951 0.01961209
v -0.00986603 -0.02087652 0.01955238
v -0.00990631 -0.02083130 0.01948959
v -0.00993969 -0.02078420 0.01942418
v -0.00996593 -0.02073558 0.01935666
v -0.00998481 -0.02068582 0.01928755
v -0.00999619 -0.02063527 0.01921736
v -0.01000000 -0.02058434 0.01914663
v -0.00917365 -0.02101707 0.02003954
v -0.00925882 -0.02100739 0.02002333
v -0.00934202 -0.02099395 0.02000080
v -0.00942262 -0.02097684 0.01997213
v -0.00950000 -0.02095620 0.01993754
v -0.00957358 -0.02093218 0.01989729
v -0.00964279 -0.02090497 0.01985168
v -0.00970711 -0.02087476 0.01980107
v -0.00976604 -0.02084181 0.01974584
v -0.00981915 -0.02080634 0.01968641
v -0.00986603 -0.02076864 0.01962322
v -0.00990631 -0.02072898 0.01955677
v -0.00993969 -0.02068768 0.01948756
v -0.00996593 -0.02064505 0.01941611
v -0.00998481 -0.02060141 0.01934298
v -0.00999619 -0.02055709 0.01926870
v -0.01000000 -0.02051243 0.01919386
v -0.00900000 -0.02087343 0.02013433
v -0.00908716 -0.02087176 0.02013090
v -0.00917365 -0.02086679 0.02012066
v -0.00925882 -0.02085854 0.02010368
v -0.00934202 -0.02084709 0.02008008
v -0.00942262 -0.02083251 0.02005004
v -0.00950000 -0.02081492 0.02001381
v -0.00957358 -0.02079445 0.01997164
v -0.00964279 -0.02077125 0.01992386
v -0.00970711 -0.02074551 0.01987084
v -0.00976604 -0.02071743 0.01981298
v -0.00981915 -0.02068720 0.01975072
v -0.00986603 -0.02065507 0.01968453
v -0.00990631 -0.02062128 0.01961491
v -0.00993969 -0.02058608 0.01954241
v -0.00996593 -0.02054974 0.01946756
v -0.00998481 -0.02051255 0.01939094
v -0.00999619 -0.02047477 0.01931313
v -0.01000000 -0.02043671 0.01923473
v 0.00568658 -0.02192633 0.01887294
v 0.00572719 -0.02191704 0.01890518
v 0.00572719 -0.02187578 0.01902900
v 0.00548850 -0.02196391 0.01871334
v 0.00554081 -0.02195525 0.01875583
v 0.00566037 -0.02193204 0.01885204
v 0.00536342 -0.02198090 0.01861088
v 0.00529121 -0.02198829 0.01855127
v 0.00510417 -0.02199912 0.01839453
v 0.00528032 -0.02198925 0.01854225
v 0.00505425 -0.02200000 0.01833513
v 0.00505474 -0.02200000 0.01833885
v 0.00505585 -0.02199999 0.01834225
v 0.00505860 -0.02199996 0.01834768
v 0.00506144 -0.02199993 0.01835202
v 0.00506626 -0.02199987 0.01835821
v 0.00507496 -0.02199974 0.01836770
v 0.00572719 -0.02185060 0.01909361
v 0.00572719 -0.02181260 0.01918040
v 0.00572719 -0.02176100 0.01928322
v 0.00572719 -0.02173722 0.01932611
v 0.00572719 -0.02165016 0.01946516
v 0.00572719 -0.02159046 0.01954775
v 0.00572719 -0.02155199 0.01959660
v 0.00572719 -0.02144339 0.01971955
v 0.00572719 -0.02138041 0.01978235
v 0.00572719 -0.02132507 0.01983319
v 0.00572719 -0.02122115 0.01991904
v 0.00572719 -0.02119783 0.01993675
v 0.00572719 -0.02113637 0.01998093
v 0.00572719 -0.02087343 0.02013433
v 0.00572719 -0.02092009 0.02011092
v 0.00572719 -0.02095780 0.02009086
v 0.00572719 -0.02106254 0.02002953
v 0.00611449 -0.02169904 0.01935553
v 0.00624381 -0.02171372 0.01930599
v 0.00626165 -0.02166296 0.01938389
v 0.00584652 -0.02177161 0.01925732
v 0.00596439 -0.02111336 0.01998670
v 0.00588459 -0.02109211 0.02000600
v 0.00588164 -0.02117602 0.01994775
v 0.00587508 -0.02133438 0.01981874
v 0.00587846 -0.02125683 0.01988526
v 0.00581932 -0.02189334 0.01897708
v 0.00601871 -0.02183113 0.01911785
v 0.00595721 -0.02182607 0.01913676
v 0.00595222 -0.02185357 0.01907292
v 0.00637326 -0.02168059 0.01932774
v 0.00637954 -0.02167742 0.01933103
v 0.00662353 -0.02153939 0.01944760
v 0.00660273 -0.02153569 0.01946025
v 0.00659491 -0.02155717 0.01943508
v 0.00580681 -0.02098172 0.02007644
v 0.00596860 -0.02102832 0.02004085
v 0.00588959 -0.02092431 0.02010450
v 0.00588732 -0.02100526 0.02005982
v 0.00587283 -0.02091920 0.02010799
v 0.00580791 -0.02089910 0.02012060
v 0.00579876 -0.02089623 0.02012226
v 0.00605049 -0.02105091 0.02001944
v 0.00602798 -0.02096537 0.02007210
v 0.00598347 -0.02095238 0.02008323
v 0.00629862 -0.02111554 0.01993992
v 0.00622321 -0.02102003 0.02001497
v 0.00621564 -0.02109453 0.01996905
v 0.00621704 -0.02101836 0.02001699
v 0.00613288 -0.02107298 0.01999553
v 0.00605530 -0.02097324 0.02006492
v 0.00644020 -0.02107669 0.01993471
v 0.00639225 -0.02106452 0.01995405
v 0.00638170 -0.02113598 0.01990806
v 0.00636119 -0.02105654 0.01996608
v 0.00630766 -0.02104258 0.01998592
v 0.00697929 -0.02127709 0.01957558
v 0.00705000 -0.02121417 0.01959428
v 0.00695500 -0.02126154 0.01960254
v 0.00689518 -0.02118239 0.01969945
v 0.00687491 -0.02124562 0.01965554
v 0.00685018 -0.02117272 0.01972735
v 0.00671239 -0.02121169 0.01975189
v 0.00672932 -0.02114588 0.01979690
v 0.00654764 -0.02117508 0.01983587
v 0.00665144 -0.02112793 0.01983780
v 0.00681475 -0.02140851 0.01952305
v 0.00684717 -0.02138408 0.01953435
v 0.00682637 -0.02137807 0.01955042
v 0.00684962 -0.02138221 0.01953519
v 0.00692021 -0.02132647 0.01955814
v 0.00667164 -0.02134967 0.01964353
v 0.00664965 -0.02141457 0.01958507
v 0.00677604 -0.02143678 0.01950897
v 0.00662667 -0.02147662 0.01952393
v 0.00670808 -0.02148419 0.01948276
v 0.00668096 -0.02150234 0.01947179
v 0.00627894 -0.02160856 0.01945942
v 0.00640108 -0.02166643 0.01934221
v 0.00641645 -0.02162719 0.01939713
v 0.00646246 -0.02163386 0.01937312
v 0.00643763 -0.02157189 0.01946798
v 0.00652958 -0.02159613 0.01940534
v 0.00608692 -0.02179364 0.01918827
v 0.00611222 -0.02179658 0.01917792
v 0.00621218 -0.02175566 0.01923833
v 0.00604668 -0.02182116 0.01913619
v 0.00592134 -0.02186341 0.01905139
v 0.00596665 -0.02178290 0.01922601
v 0.00584187 -0.02181700 0.01916588
v 0.00589426 -0.02187174 0.01903216
v 0.00651452 -0.02131899 0.01972515
v 0.00649656 -0.02138674 0.01966510
v 0.00647773 -0.02145156 0.01960212
v 0.00645807 -0.02151331 0.01953636
v 0.00654465 -0.02158734 0.01941234
v 0.00693598 -0.02131354 0.01956296
v 0.00685126 -0.02131314 0.01960432
v 0.00669257 -0.02128201 0.01969919
v 0.00653156 -0.02124839 0.01978212
v 0.00645050 -0.02123071 0.01981930
v 0.00635598 -0.02128614 0.01979582
v 0.00629566 -0.02155063 0.01953243
v 0.00631176 -0.02148930 0.01960273
v 0.00632720 -0.02142469 0.01967017
v 0.00634196 -0.02135693 0.01973459
v 0.00580404 -0.02115615 0.01996504
v 0.00580548 -0.02107042 0.02002304
v 0.00604475 -0.02113416 0.01996506
v 0.00603857 -0.02121453 0.01990657
v 0.00603197 -0.02129186 0.01984414
v 0.00602498 -0.02136599 0.01977796
v 0.00601762 -0.02143679 0.01970824
v 0.00619701 -0.02125128 0.01985611
v 0.00618678 -0.02132526 0.01979409
v 0.00617599 -0.02139614 0.01972862
v 0.00616465 -0.02146376 0.01965986
v 0.00615281 -0.02152800 0.01958799
v 0.00600989 -0.02150409 0.01963516
v 0.00614048 -0.02158872 0.01951320
v 0.00600184 -0.02156775 0.01955891
v 0.00599346 -0.02162760 0.01947968
v 0.00612554 -0.02115449 0.01994102
v 0.00620664 -0.02117433 0.01991449
v 0.00628791 -0.02119366 0.01988540
v 0.00656131 -0.02110653 0.01988157
v 0.00646475 -0.02115584 0.01987340
v 0.00636924 -0.02121245 0.01985370
v 0.00585546 -0.02166720 0.01943280
v 0.00585971 -0.02160851 0.01951642
v 0.00586381 -0.02154572 0.01959703
v 0.00586775 -0.02147898 0.01967442
v 0.00587151 -0.02140848 0.01974840
v 0.00610088 -0.02174838 0.01927301
v 0.00629233 -0.02171976 0.01928402
v 0.00597585 -0.02173534 0.01931304
v 0.00585106 -0.02172163 0.01934636
v 0.00598479 -0.02168352 0.01939766
v 0.00612769 -0.02164578 0.01943565
v 0.00638015 -0.02073404 0.02014765
v 0.00632149 -0.02082600 0.02010917
v 0.00646615 -0.02092540 0.02002325
v 0.00696612 -0.02069748 0.02000614
v 0.00688384 -0.02064956 0.02006376
v 0.00675124 -0.02084053 0.01999533
v 0.00667394 -0.02079273 0.02004744
v 0.00575598 -0.02080627 0.02016631
v 0.00606878 -0.02090123 0.02010304
v 0.00704983 -0.02101288 0.01975771
v 0.00718459 -0.02108347 0.01962910
v 0.00721865 -0.02104759 0.01963877
v 0.00660834 -0.02101846 0.01992675
v 0.00619978 -0.02100033 0.02003047
v 0.00600289 -0.02084976 0.02013581
v 0.00593683 -0.02079708 0.02016618
v 0.00587064 -0.02074321 0.02019412
v 0.00580439 -0.02068820 0.02021959
v 0.00720327 -0.02082826 0.01981462
v 0.00704636 -0.02074300 0.01994573
v 0.00690285 -0.02093060 0.01988224
v 0.00682758 -0.02088651 0.01994024
v 0.00674745 -0.02110476 0.01982003
v 0.00734662 -0.02090131 0.01967811
v 0.00643716 -0.02063902 0.02018535
v 0.00659576 -0.02074317 0.02009652
v 0.00627622 -0.02052854 0.02026137
v 0.00611369 -0.02041225 0.02032411
v 0.00622625 -0.02062599 0.02022329
v 0.00607094 -0.02051224 0.02028661
v 0.00595301 -0.02055236 0.02027510
v 0.00602718 -0.02060976 0.02024769
v 0.00610119 -0.02066587 0.02021734
v 0.00617497 -0.02072064 0.02018411
v 0.00601920 -0.02007940 0.02043936
v 0.00598510 -0.02018598 0.02040723
v 0.00610767 -0.02014296 0.02041898
v 0.00607031 -0.02024856 0.02038551
v 0.00619600 -0.02020526 0.02039460
v 0.00595033 -0.02029061 0.02037312
v 0.00615539 -0.02030986 0.02036005
v 0.00632476 -0.02042839 0.02029818
v 0.00637178 -0.02032577 0.02033414
v 0.00649238 -0.02054103 0.02022210
v 0.00654563 -0.02044037 0.02025849
v 0.00665740 -0.02064726 0.02013232
v 0.00671662 -0.02054849 0.02016819
v 0.00680105 -0.02060012 0.02011752
v 0.00591488 -0.02039322 0.02033718
v 0.00588791 -0.02046862 0.02030917
v 0.00582796 -0.02062831 0.02024522
v 0.00765992 -0.02043607 0.01728069
v 0.00758947 -0.02055836 0.01722967
v 0.00751279 -0.02067802 0.01717942
v 0.00793385 -0.01973767 0.01998992
v 0.00788967 -0.01989397 0.01994802
v 0.00791691 -0.01980142 0.01754094
v 0.00787341 -0.01994450 0.01993448
v 0.00780666 -0.02012597 0.01988585
v 0.00783317 -0.02005808 0.01743653
v 0.00772405 -0.02031161 0.01733229
v 0.00772111 -0.02031770 0.01983448
v 0.00760646 -0.02053013 0.01977757
v 0.00778180 -0.02018546 0.01738431
v 0.00787818 -0.01992992 0.01748880
v 0.00797913 -0.01952789 0.02004615
v 0.00795286 -0.01965816 0.02001124
v 0.00794947 -0.01967300 0.01759279
v 0.00797600 -0.01954507 0.01764420
v 0.00799658 -0.01941865 0.02007542
v 0.00800922 -0.01931611 0.02010287
v 0.00800921 -0.01931624 0.01817174
v 0.00504973 -0.02200000 0.01732609
v 0.00749079 -0.02071026 0.01972931
v 0.00613110 -0.01991227 0.02048771
v 0.00607843 -0.01999783 0.02046296
v 0.00626541 -0.02011102 0.02042181
v 0.00775561 -0.01973300 0.02011198
v 0.00791491 -0.01932699 0.02016550
v 0.00779819 -0.01953541 0.02016563
v 0.00782639 -0.01933591 0.02021979
v 0.00771933 -0.01934514 0.02028011
v 0.00759955 -0.01953799 0.02027722
v 0.00733021 -0.02066096 0.01986004
v 0.00716443 -0.02058722 0.01998858
v 0.00762564 -0.01935192 0.02032840
v 0.00751551 -0.01935844 0.02038017
v 0.00739337 -0.01953520 0.02037412
v 0.00699266 -0.02050564 0.02010384
v 0.00741719 -0.01936302 0.02042207
v 0.00730471 -0.01936688 0.02046527
v 0.00718086 -0.01952708 0.02045591
v 0.00720229 -0.01936918 0.02050039
v 0.00708818 -0.01937043 0.02053498
v 0.00696327 -0.01951372 0.02052217
v 0.00698220 -0.01937039 0.02056296
v 0.00686719 -0.01936907 0.02058892
v 0.00674183 -0.01949516 0.02057248
v 0.00681590 -0.02041672 0.02020530
v 0.00663512 -0.02032098 0.02029246
v 0.00645129 -0.02021891 0.02036480
v 0.00675819 -0.01936662 0.02060937
v 0.00664298 -0.01936278 0.02062667
v 0.00651777 -0.01947148 0.02060642
v 0.00653151 -0.01935785 0.02063922
v 0.00641683 -0.01935155 0.02064784
v 0.00756004 -0.01972227 0.02022652
v 0.00735711 -0.01970571 0.02032663
v 0.00714800 -0.01968346 0.02041186
v 0.00693395 -0.01965568 0.02048178
v 0.00671613 -0.01962249 0.02053595
v 0.00649577 -0.01958405 0.02057393
v 0.00629234 -0.01944273 0.02062355
v 0.00630342 -0.01934407 0.02065209
v 0.00627407 -0.01954049 0.02059527
v 0.00646560 -0.01969498 0.02054190
v 0.00668121 -0.01974797 0.02049994
v 0.00689434 -0.01979558 0.02044197
v 0.00710383 -0.01983758 0.02036844
v 0.00730850 -0.01987377 0.02027982
v 0.00750720 -0.01990391 0.02017655
v 0.00769874 -0.01992779 0.02005910
v 0.00624870 -0.01963684 0.02056740
v 0.00642738 -0.01980372 0.02051051
v 0.00663716 -0.01987098 0.02046464
v 0.00684455 -0.01993274 0.02040294
v 0.00704843 -0.01998871 0.02032587
v 0.00724766 -0.02003859 0.02023391
v 0.00744112 -0.02008208 0.02012754
v 0.00762767 -0.02011888 0.02000721
v 0.00621634 -0.01973126 0.02054008
v 0.00638120 -0.01990969 0.02047992
v 0.00658408 -0.01999089 0.02043023
v 0.00678468 -0.02006648 0.02036488
v 0.00698191 -0.02013610 0.02028435
v 0.00717467 -0.02019936 0.02018914
v 0.00736190 -0.02025591 0.02007972
v 0.00754250 -0.02030537 0.01995658
v 0.00617711 -0.01982324 0.02051347
v 0.00632717 -0.02001231 0.02045030
v 0.00652210 -0.02010707 0.02039689
v 0.00671484 -0.02019612 0.02032799
v 0.00690436 -0.02027901 0.02024409
v 0.00708964 -0.02035531 0.02014570
v 0.00726964 -0.02042457 0.02003332
v 0.00744332 -0.02048636 0.01990744
v 0.00675909 -0.01355721 0.02232626
v 0.00955017 -0.00477257 0.02399990
v 0.00941072 -0.00513460 0.02400000
v 0.00917193 -0.00834320 0.02304305
v 0.00839677 -0.01565868 0.02108287
v 0.00723472 -0.00777181 0.02400000
v 0.00725063 -0.00777164 0.02400000
v 0.00731506 -0.00776775 0.02400000
v 0.00754794 -0.00771273 0.02400000
v 0.00747735 -0.00773603 0.02400000
v 0.00740843 -0.00775327 0.02400000
v 0.00734082 -0.00776479 0.02400000
v 0.00762058 -0.00768290 0.02400000
v 0.00767361 -0.00765743 0.02400000
v 0.00776466 -0.00760653 0.02400000
v 0.00785867 -0.00754461 0.02400000
v 0.00795607 -0.00747053 0.02400000
v 0.00800398 -0.00743041 0.02400000
v 0.00813862 -0.00730478 0.02400000
v 0.00827860 -0.00715406 0.02400000
v 0.00842440 -0.00697519 0.02400000
v 0.00906831 -0.00590715 0.02400000
v 0.00897470 -0.00609204 0.02400000
v 0.00883534 -0.00634790 0.02400000
v 0.00860938 -0.00671569 0.02400000
v 0.00930717 -0.00538500 0.02400000
v 0.00912019 -0.00580002 0.02400000
v -0.00900000 -0.02007940 0.02043936
v -0.00900000 -0.02048291 0.02030376
v 0.00968246 0.00250000 0.01900000
v 0.00972225 0.00234048 0.01900000
v 0.00988653 0.00150217 0.01900000
v 0.00997866 0.00065289 0.01900000
v 0.00999798 -0.00020114 0.01900000
v 0.00994433 -0.00105371 0.01900000
v 0.00979108 -0.00250000 0.01900000
v 0.00938691 -0.00250000 0.01750000
v 0.00945021 -0.00250000 0.01761475
v 0.00976527 -0.00250000 0.01860842
v 0.00974525 -0.00250000 0.01847905
v 0.00971957 -0.00250000 0.01835068
v 0.00968828 -0.00250000 0.01822354
v 0.00965145 -0.00250000 0.01809788
v 0.00960914 -0.00250000 0.01797394
v 0.00956144 -0.00250000 0.01785195
v 0.00950843 -0.00250000 0.01773215
v 0.00843888 -0.01526130 0.01768706
v 0.00849505 -0.01473116 0.01802667
v 0.00968246 0.00250000 0.01750000
v -0.00164000 0.00660890 0.02400000
v -0.00156338 0.00664825 0.02400000
v -0.00148366 0.00668085 0.02400000
v -0.00140142 0.00670648 0.02400000
v -0.00131729 0.00672493 0.02400000
v -0.00123188 0.00673608 0.02400000
v -0.00114583 0.00673983 0.02400000
v -0.00105977 0.00673616 0.02400000
v -0.00097435 0.00672511 0.02400000
v -0.00089020 0.00670674 0.02400000
v -0.00080794 0.00668120 0.02400000
v -0.00072818 0.00664868 0.02400000
v -0.00962027 0.00272953 0.02100000
v -0.00942151 0.00335189 0.02100000
v -0.00656584 0.00754253 0.02100000
v -0.00718562 0.00695463 0.02100000
v -0.00775296 0.00631598 0.02100000
v -0.00826373 0.00563124 0.02100000
v -0.00871419 0.00490540 0.02100000
v -0.00910105 0.00414377 0.02100000
v 0.00948702 0.00316171 0.02100000
v 0.00972225 0.00234048 0.02100000
v 0.00985181 0.00171520 0.02100000
v 0.00787843 0.00615876 0.02100000
v 0.00732405 0.00680869 0.02100000
v 0.00837532 0.00546388 0.02100000
v 0.00881109 0.00472913 0.02100000
v 0.00918256 0.00395987 0.02100000
v -0.00589814 0.00807539 0.02100000
v 0.00384430 0.00923154 0.02100000
v 0.00304238 0.00952596 0.02100000
v 0.00671622 0.00740894 0.02100000
v 0.00605938 0.00795512 0.02100000
v -0.00365783 0.00930700 0.02100000
v -0.00443882 0.00896085 0.02100000
v 0.00461816 0.00886976 0.02100000
v -0.00518741 0.00854932 0.02100000
v 0.00535832 0.00844324 0.02100000
v -0.00285016 0.00958523 0.02100000
v -0.00202168 0.00979351 0.02100000
v -0.00117845 0.00993032 0.02100000
v -0.00032662 0.00999466 0.02100000
v 0.00052759 0.00998607 0.02100000
v 0.00137795 0.00990461 0.02100000
v 0.00221826 0.00975086 0.02100000
v -0.00962027 0.00272953 0.02300000
v -0.00961899 0.00272939 0.02305039
v -0.00961643 0.00272912 0.02308716
v -0.00959339 0.00272668 0.02322930
v -0.00958589 0.00272588 0.02325882
v -0.00961204 0.00272865 0.02312749
v -0.00959899 0.00272727 0.02320431
v -0.00957254 0.00272447 0.02330391
v -0.00954588 0.00272164 0.02337681
v -0.00952571 0.00271951 0.02342262
v -0.00951332 0.00271819 0.02344801
v -0.00947465 0.00271410 0.02351743
v -0.00946009 0.00271255 0.02354056
v -0.00943772 0.00271018 0.02357359
v -0.00941502 0.00270778 0.02360442
v -0.00936495 0.00270247 0.02366473
v -0.00932457 0.00269819 0.02370711
v -0.00930979 0.00269663 0.02372144
v -0.00924939 0.00269023 0.02377441
v -0.00922921 0.00268809 0.02379031
v -0.00918966 0.00268390 0.02381916
v -0.00916450 0.00268123 0.02383604
v -0.00887142 0.00265018 0.02396593
v -0.00885135 0.00264805 0.02397103
v -0.00909619 0.00267399 0.02387668
v -0.00903708 0.00266773 0.02390631
v -0.00902424 0.00266637 0.02391212
v -0.00869181 0.00263115 0.02399669
v -0.00860947 0.00262242 0.02400000
v -0.00869771 0.00263177 0.02399619
v -0.00877242 0.00263969 0.02398696
v -0.00894853 0.00265835 0.02394220
v -0.00892859 0.00265624 0.02394898
v 0.00985181 0.00171520 0.02400000
v 0.00994433 -0.00105371 0.02400000
v 0.00384430 0.00923154 0.01750000
v 0.00461816 0.00886976 0.01750000
v -0.00443882 0.00896085 0.01750000
v -0.00365783 0.00930700 0.01750000
v -0.01000000 0.00000000 0.01750000
v 0.00304238 0.00952596 0.01750000
v 0.00052759 0.00998607 0.01750000
v 0.00137795 0.00990461 0.01750000
v 0.00221826 0.00975086 0.01750000
v -0.00518741 0.00854932 0.01750000
v -0.00656584 0.00754253 0.01750000
v -0.00718562 0.00695463 0.01750000
v -0.00775296 0.00631598 0.01750000
v -0.00826373 0.00563124 0.01750000
v -0.00871419 0.00490540 0.01750000
v -0.00589814 0.00807539 0.01750000
v -0.00996351 0.00085348 0.01750000
v -0.00985432 0.00170072 0.01750000
v -0.00032662 0.00999466 0.01750000
v -0.00117845 0.00993032 0.01750000
v -0.00202168 0.00979351 0.01750000
v -0.00285016 0.00958523 0.01750000
v 0.00881109 0.00472913 0.01750000
v 0.00918256 0.00395987 0.01750000
v 0.00948702 0.00316171 0.01750000
v 0.00837532 0.00546388 0.01750000
v 0.00787843 0.00615876 0.01750000
v -0.00967321 0.00253556 0.01750000
v -0.00942151 0.00335189 0.01750000
v -0.00910105 0.00414377 0.01750000
v 0.00732405 0.00680869 0.01750000
v 0.00605938 0.00795512 0.01750000
v 0.00671622 0.00740894 0.01750000
v 0.00535832 0.00844324 0.01750000
v 0.00988653 0.00150217 0.02400000
v 0.00997866 0.00065289 0.02400000
v 0.00999798 -0.00020114 0.02400000
v -0.00967321 0.00253556 0.02300000
v -0.00975220 0.00221237 0.02300000
v -0.00985432 0.00170072 0.02300000
v -0.00988961 0.00148174 0.02300000
v -0.00996351 0.00085348 0.02300000
v -0.00997236 0.00074292 0.02300000
v -0.01000000 0.00000000 0.02300000
v -0.01000000 -0.00763006 0.02300000
v -0.01000000 -0.01980149 0.01947875
v -0.01000000 -0.02012430 0.01937027
v -0.00900000 -0.00777181 0.02400000
v -0.00900000 0.00000000 0.02400000
v -0.00904362 -0.00777168 0.02399905
v -0.00908716 0.00000000 0.02399619
v -0.00908716 -0.00777127 0.02399619
v -0.00913053 -0.00777060 0.02399145
v -0.00917365 0.00000000 0.02398481
v -0.00917365 -0.00776966 0.02398481
v -0.00921644 -0.00776845 0.02397630
v -0.00925882 0.00000000 0.02396592
v -0.00925882 -0.00776698 0.02396592
v -0.00930071 -0.00776525 0.02395372
v -0.00934202 0.00000000 0.02393969
v -0.00934202 -0.00776326 0.02393969
v -0.00938268 -0.00776102 0.02392388
v -0.00942262 0.00000000 0.02390631
v -0.00942262 -0.00775853 0.02390631
v -0.00946175 -0.00775580 0.02388701
v -0.00950000 0.00000000 0.02386603
v -0.00950000 -0.00775282 0.02386603
v -0.00953730 -0.00774961 0.02384339
v -0.00957358 0.00000000 0.02381915
v -0.00957358 -0.00774618 0.02381915
v -0.00960876 -0.00774252 0.02379335
v -0.00964279 0.00000000 0.02376604
v -0.00964279 -0.00773865 0.02376604
v -0.00967559 -0.00773457 0.02373728
v -0.00970711 0.00000000 0.02370711
v -0.00970711 -0.00773029 0.02370711
v -0.00976604 0.00000000 0.02364279
v -0.00976604 -0.00772118 0.02364279
v -0.00981915 0.00000000 0.02357358
v -0.00981915 -0.00771137 0.02357358
v -0.00986603 0.00000000 0.02350000
v -0.00986603 -0.00770094 0.02350000
v -0.00990631 0.00000000 0.02342262
v -0.00990631 -0.00768997 0.02342262
v -0.00993969 0.00000000 0.02334202
v -0.00993969 -0.00767854 0.02334202
v -0.00996593 0.00000000 0.02325882
v -0.00996593 -0.00766675 0.02325882
v -0.00998481 0.00000000 0.02317365
v -0.00998481 -0.00765468 0.02317365
v -0.00999619 0.00000000 0.02308716
v -0.00999619 -0.00764242 0.02308716
v -0.00996857 0.00074264 0.02308716
v -0.00974849 0.00221153 0.02308716
v -0.00973739 0.00220901 0.02317365
v -0.00971897 0.00220483 0.02325882
v -0.00969339 0.00219902 0.02334202
v -0.00966083 0.00219164 0.02342262
v -0.00962155 0.00218273 0.02350000
v -0.00957583 0.00217236 0.02357358
v -0.00952404 0.00216061 0.02364279
v -0.00946657 0.00214757 0.02370711
v -0.00940384 0.00213334 0.02376604
v -0.00933634 0.00211803 0.02381915
v -0.00926459 0.00210175 0.02386603
v -0.00918913 0.00208463 0.02390631
v -0.00911053 0.00206680 0.02393969
v -0.00902939 0.00204839 0.02396592
v -0.00894633 0.00202955 0.02398481
v -0.00886198 0.00201041 0.02399619
v -0.00877698 0.00199113 0.02400000
v -0.00890065 0.00133357 0.02400000
v -0.00898685 0.00134648 0.02399619
v -0.00907238 0.00135930 0.02398481
v -0.00915661 0.00137192 0.02396592
v -0.00923890 0.00138424 0.02393969
v -0.00931861 0.00139619 0.02390631
v -0.00939513 0.00140765 0.02386603
v -0.00946790 0.00141855 0.02381915
v -0.00953634 0.00142881 0.02376604
v -0.00959995 0.00143834 0.02370711
v -0.00965824 0.00144707 0.02364279
v -0.00971076 0.00145494 0.02357358
v -0.00975712 0.00146189 0.02350000
v -0.00979695 0.00146786 0.02342262
v -0.00982997 0.00147280 0.02334202
v -0.00985591 0.00147669 0.02325882
v -0.00987459 0.00147949 0.02317365
v -0.00897513 0.00066863 0.02400000
v -0.00906204 0.00067511 0.02399619
v -0.00914830 0.00068153 0.02398481
v -0.00923323 0.00068786 0.02396592
v -0.00931620 0.00069404 0.02393969
v -0.00939658 0.00070003 0.02390631
v -0.00947375 0.00070578 0.02386603
v -0.00954712 0.00071124 0.02381915
v -0.00961614 0.00071638 0.02376604
v -0.00968028 0.00072116 0.02370711
v -0.00973906 0.00072554 0.02364279
v -0.00979202 0.00072949 0.02357358
v -0.00983876 0.00073297 0.02350000
v -0.00987893 0.00073596 0.02342262
v -0.00991222 0.00073844 0.02334202
v -0.00993839 0.00074039 0.02325882
v -0.00995721 0.00074179 0.02317365
v -0.00988585 0.00148118 0.02308716
v -0.00908716 -0.02048155 0.02030021
v -0.00917365 -0.02047746 0.02028958
v -0.00925882 -0.02047069 0.02027195
v -0.00934202 -0.02046129 0.02024746
v -0.00942262 -0.02044931 0.02021630
v -0.00950000 -0.02043487 0.02017870
v -0.00957358 -0.02041806 0.02013494
v -0.00964279 -0.02039901 0.02008537
v -0.00970711 -0.02037788 0.02003035
v -0.00976604 -0.02035481 0.01997031
v -0.00981915 -0.02032999 0.01990570
v -0.00986603 -0.02030361 0.01983702
v -0.00990631 -0.02027586 0.01976478
v -0.00993969 -0.02024695 0.01968955
v -0.00996593 -0.02021712 0.01961188
v -0.00998481 -0.02018657 0.01953237
v -0.00999619 -0.02015556 0.01945163
v -0.00908716 -0.02007834 0.02043571
v -0.00917365 -0.02007518 0.02042477
v -0.00925882 -0.02006993 0.02040663
v -0.00934202 -0.02006264 0.02038143
v -0.00942262 -0.02005336 0.02034936
v -0.00950000 -0.02004217 0.02031066
v -0.00957358 -0.02002914 0.02026564
v -0.00964279 -0.02001438 0.02021462
v -0.00970711 -0.01999800 0.02015801
v -0.00976604 -0.01998013 0.02009622
v -0.00981915 -0.01996090 0.02002973
v -0.00986603 -0.01994045 0.01995906
v -0.00990631 -0.01991894 0.01988472
v -0.00993969 -0.01989654 0.01980730
v -0.00996593 -0.01987342 0.01972738
v -0.00998481 -0.01984975 0.01964556
v -0.00999619 -0.01982572 0.01956248
v 0.00799454 -0.01941732 0.01714286
v 0.00800921 -0.01931620 0.01714286
v 0.00528459 -0.02198888 0.01714286
v 0.00522616 -0.02199226 0.01714286
v 0.00528144 -0.02198916 0.01714286
v 0.00552926 -0.02195737 0.01714286
v 0.00554280 -0.02195513 0.01714286
v 0.00539869 -0.02197670 0.01714286
v 0.00543226 -0.02197215 0.01714286
v 0.00567186 -0.02192965 0.01714286
v 0.00567806 -0.02192830 0.01714286
v 0.00578949 -0.02190108 0.01714286
v 0.00606639 -0.02181386 0.01714286
v 0.00606099 -0.02181578 0.01714286
v 0.00593027 -0.02186047 0.01714286
v 0.00607876 -0.02180922 0.01714286
v 0.00618537 -0.02176673 0.01714286
v 0.00620321 -0.02175943 0.01714286
v 0.00621693 -0.02175328 0.01714286
v 0.00632389 -0.02170472 0.01714286
v 0.00633692 -0.02169841 0.01714286
v 0.00633791 -0.02169791 0.01714286
v 0.00669242 -0.02149445 0.01714286
v 0.00657592 -0.02156861 0.01714286
v 0.00645750 -0.02163648 0.01714286
v 0.00646724 -0.02163100 0.01714286
v 0.00644838 -0.02164132 0.01714286
v 0.00681901 -0.02140525 0.01714286
v 0.00682239 -0.02140270 0.01714286
v 0.00681494 -0.02140822 0.01714286
v 0.00671060 -0.02148222 0.01714286
v 0.00669937 -0.02148997 0.01714286
v 0.00670260 -0.02148780 0.01714286
v 0.00682265 -0.02140251 0.01714286
v 0.00704324 -0.02122052 0.01714286
v 0.00703795 -0.02122522 0.01714286
v 0.00693350 -0.02131549 0.01714286
v 0.00693737 -0.02131224 0.01714286
v 0.00693209 -0.02131666 0.01714286
v 0.00772405 -0.02031161 0.01714286
v 0.00777415 -0.02020216 0.01714286
v 0.00783317 -0.02005807 0.01714286
v 0.00778180 -0.02018545 0.01714286
v 0.00791692 -0.01980141 0.01714286
v 0.00787818 -0.01992991 0.01714286
v 0.00790896 -0.01982781 0.01714286
v 0.00765992 -0.02043606 0.01714286
v 0.00771724 -0.02032481 0.01714286
v 0.00751279 -0.02067802 0.01714286
v 0.00742962 -0.02079511 0.01714286
v 0.00743033 -0.02079417 0.01714286
v -0.00999619 -0.02108716 0.01714286
v -0.00998481 -0.02117365 0.01714286
v -0.00996593 -0.02125882 0.01714286
v -0.00990631 -0.02142262 0.01714286
v -0.00986603 -0.02150000 0.01714286
v -0.00976604 -0.02164279 0.01714286
v -0.00970711 -0.02170711 0.01714286
v -0.00964279 -0.02176604 0.01714286
v -0.00957358 -0.02181915 0.01714286
v -0.00950000 -0.02186603 0.01714286
v -0.00942262 -0.02190631 0.01714286
v -0.00925882 -0.02196593 0.01714286
v -0.00908716 -0.02199619 0.01714286
v -0.00900000 -0.02200000 0.01714286
v -0.01000000 -0.00743145 0.01714286
v 0.00845402 -0.00900000 0.01714286
v 0.00838281 -0.01577056 0.01714286
v 0.00840583 -0.01532449 0.01714286
v 0.00840784 -0.01510397 0.01714286
v 0.00831011 -0.01647653 0.01714286
v 0.00836771 -0.01593288 0.01714286
v 0.00714958 -0.02111903 0.01714286
v 0.00581020 -0.02189575 0.01714286
v 0.00593590 -0.02185874 0.01714286
v 0.00657388 -0.02156980 0.01714286
v 0.00692568 -0.02132171 0.01714286
v 0.00794206 -0.01970224 0.01714286
v 0.00794948 -0.01967299 0.01714286
v 0.00797600 -0.01954505 0.01714286
v 0.00504849 -0.02200000 0.01714286
v 0.00758947 -0.02055836 0.01714286
v 0.00734152 -0.02090744 0.01714286
v 0.00724592 -0.02101788 0.01714286
v -0.01000000 -0.02100000 0.01714286
v -0.00993969 -0.02134202 0.01714286
v -0.00981915 -0.02157358 0.01714286
v -0.00934202 -0.02193969 0.01714286
v -0.00917365 -0.02198481 0.01714286
v -0.00669131 -0.00743145 0.01714286
v 0.00840798 -0.01508874 0.01714286
v 0.00839386 -0.01560321 0.01714286
v 0.00839708 -0.01555431 0.01714286
v 0.00823633 -0.01717284 0.01714286
f 580 707 581
f 731 954 730
f 717 953 723
f 723 953 718
f 953 719 718
f 720 953 721
f 720 719 953
f 725 953 724
f 712 724 953
f 503 580 581
f 614 613 707
f 612 627 611
f 627 610 611
f 954 627 978
f 612 613 619
f 653 651 706
f 706 654 653
f 660 665 706
f 706 659 660
f 706 651 652
f 652 659 706
f 977 953 726
f 726 714 977
f 741 954 709
f 954 708 709
f 715 716 954
f 954 977 715
f 715 977 714
f 735 953 725
f 735 736 953
f 953 736 737
f 632 668 667
f 710 711 953
f 953 717 710
f 726 953 727
f 953 728 727
f 764 839 767
f 749 724 750
f 724 712 750
f 887 799 752
f 797 799 887
f 883 789 791
f 791 793 883
f 755 606 584
f 607 606 854
f 707 580 582
f 582 614 707
f 626 614 582
f 699 698 813
f 732 627 954
f 954 731 732
f 609 610 627
f 627 980 956
f 613 614 958
f 958 959 613
f 612 619 620
f 620 627 612
f 620 621 627
f 627 624 616
f 616 624 980
f 627 621 622
f 739 954 741
f 706 665 663
f 663 657 706
f 954 716 713
f 713 708 954
f 736 735 640
f 725 747 746
f 746 735 725
f 721 953 722
f 953 737 722
f 690 656 642
f 669 668 633
f 668 632 633
f 953 711 729
f 729 728 953
f 764 767 766
f 783 879 781
f 751 750 712
f 753 887 752
f 754 887 753
f 604 503 581
f 604 605 503
f 503 605 600
f 580 503 583
f 583 582 580
f 626 582 583
f 889 503 504
f 838 821 839
f 758 756 836
f 758 836 837
f 836 819 820
f 837 836 820
f 820 838 837
f 821 838 820
f 839 821 822
f 628 696 703
f 695 696 628
f 628 705 695
f 704 705 628
f 699 704 628
f 628 698 699
f 706 649 648
f 649 608 648
f 610 609 650
f 957 978 627
f 627 956 957
f 625 614 626
f 625 958 614
f 981 503 889
f 981 583 503
f 626 583 981
f 981 625 626
f 958 625 981
f 618 619 613
f 613 617 618
f 615 980 627
f 627 616 615
f 615 616 980
f 730 954 733
f 954 734 733
f 954 739 740
f 735 746 745
f 664 656 693
f 680 644 645
f 771 875 769
f 771 772 875
f 768 767 769
f 768 766 767
f 857 856 873
f 879 783 785
f 797 887 886
f 868 273 867
f 586 538 590
f 601 513 511
f 511 600 601
f 503 600 511
f 602 513 601
f 519 603 599
f 518 603 519
f 598 523 599
f 597 596 526
f 970 456 971
f 936 969 486
f 486 969 485
f 933 931 488
f 488 932 933
f 488 931 489
f 759 758 760
f 837 838 761
f 761 758 837
f 761 839 764
f 761 838 839
f 764 763 761
f 763 762 761
f 762 760 761
f 761 760 758
f 755 756 757
f 756 758 757
f 757 758 759
f 757 606 755
f 814 705 704
f 814 704 699
f 699 813 814
f 840 767 839
f 661 662 629
f 662 628 629
f 655 654 706
f 706 648 655
f 623 979 980
f 980 624 623
f 623 624 627
f 627 622 623
f 955 618 617
f 613 959 955
f 955 617 613
f 619 618 955
f 955 620 619
f 621 620 955
f 955 622 621
f 955 623 622
f 979 623 955
f 738 734 954
f 954 740 738
f 801 746 747
f 801 745 746
f 801 802 678
f 647 641 674
f 968 293 292
f 261 856 857
f 656 690 691
f 697 662 664
f 698 628 697
f 697 628 662
f 697 813 698
f 697 812 813
f 645 646 679
f 679 646 678
f 678 802 679
f 683 643 644
f 672 637 658
f 671 670 635
f 706 657 639
f 775 777 877
f 877 777 778
f 875 772 876
f 772 774 876
f 876 774 775
f 775 877 876
f 765 873 763
f 766 873 765
f 765 763 764
f 764 766 765
f 769 875 874
f 874 768 769
f 875 857 874
f 857 873 874
f 766 768 874
f 874 873 766
f 872 762 763
f 763 873 872
f 872 760 762
f 276 257 275
f 237 238 220
f 203 220 204
f 870 887 754
f 754 276 870
f 870 276 275
f 797 886 885
f 868 867 885
f 254 238 237
f 881 785 787
f 606 607 472
f 590 538 589
f 594 593 529
f 529 593 534
f 499 967 501
f 499 966 967
f 500 966 499
f 514 602 603
f 514 603 518
f 513 602 514
f 599 523 522
f 522 519 599
f 597 526 525
f 525 598 597
f 523 598 525
f 930 496 928
f 497 932 488
f 818 820 819
f 818 817 820
f 701 628 700
f 700 818 701
f 817 818 700
f 695 705 815
f 705 814 815
f 815 696 695
f 839 822 823
f 823 840 839
f 823 814 813
f 822 815 823
f 823 815 814
f 630 666 661
f 661 629 630
f 853 801 747
f 647 674 675
f 675 646 647
f 678 646 675
f 675 801 678
f 745 801 675
f 675 674 745
f 673 674 641
f 745 674 673
f 971 443 960
f 971 456 444
f 444 443 971
f 282 894 897
f 177 193 194
f 449 448 464
f 464 463 449
f 463 483 449
f 464 448 465
f 466 465 447
f 447 465 448
f 403 407 417
f 404 407 403
f 61 64 63
f 176 193 177
f 175 193 176
f 692 693 656
f 656 691 692
f 664 693 694
f 694 697 664
f 812 697 694
f 677 680 645
f 644 680 681
f 680 804 681
f 642 643 687
f 671 635 636
f 672 671 636
f 636 637 672
f 634 670 669
f 634 635 670
f 669 633 634
f 657 658 638
f 638 639 657
f 638 658 637
f 858 857 875
f 875 876 858
f 759 760 871
f 760 872 871
f 871 757 759
f 606 757 871
f 854 606 871
f 854 871 855
f 855 871 872
f 855 873 856
f 855 872 873
f 856 261 855
f 261 260 855
f 188 189 171
f 171 153 152
f 275 257 256
f 205 189 188
f 205 204 222
f 238 222 221
f 222 204 221
f 221 220 238
f 221 204 220
f 797 885 795
f 795 885 793
f 884 883 793
f 793 885 884
f 884 867 883
f 884 885 867
f 868 885 869
f 869 885 886
f 869 273 868
f 869 274 273
f 869 886 887
f 887 870 869
f 869 870 275
f 275 274 869
f 255 254 273
f 273 274 255
f 238 254 255
f 255 256 238
f 255 274 275
f 275 256 255
f 272 271 867
f 272 867 273
f 272 254 253
f 273 254 272
f 252 272 253
f 271 272 252
f 269 864 865
f 880 881 864
f 879 785 880
f 785 881 880
f 268 864 269
f 268 267 862
f 879 862 861
f 862 267 861
f 250 268 269
f 443 444 442
f 459 457 476
f 461 457 459
f 459 465 461
f 461 465 466
f 586 585 546
f 538 586 546
f 546 585 584
f 482 483 463
f 482 607 483
f 588 589 537
f 537 587 588
f 537 538 536
f 537 589 538
f 591 534 592
f 534 593 592
f 528 529 527
f 594 529 528
f 528 595 594
f 527 526 528
f 596 595 528
f 528 526 596
f 567 576 568
f 498 499 501
f 501 967 498
f 488 489 487
f 500 499 487
f 931 965 487
f 487 489 931
f 487 965 966
f 487 966 500
f 520 522 523
f 519 522 520
f 456 970 937
f 703 817 702
f 817 700 702
f 702 628 703
f 702 700 628
f 816 822 821
f 816 815 822
f 821 820 816
f 820 817 816
f 816 817 703
f 703 696 816
f 696 815 816
f 666 630 631
f 667 666 631
f 631 632 667
f 748 724 749
f 749 853 748
f 725 724 748
f 748 747 725
f 748 853 747
f 749 750 800
f 800 853 749
f 800 751 798
f 750 751 800
f 834 804 803
f 803 679 802
f 803 804 680
f 680 677 803
f 280 896 893
f 895 283 890
f 323 962 321
f 894 282 281
f 281 282 26
f 22 277 278
f 26 282 22
f 282 277 22
f 212 229 213
f 232 250 233
f 227 245 228
f 228 245 229
f 212 194 211
f 193 210 211
f 211 194 193
f 211 229 212
f 211 228 229
f 211 210 227
f 227 228 211
f 227 210 209
f 209 210 193
f 261 243 242
f 483 607 450
f 450 449 483
f 441 447 338
f 466 447 441
f 279 384 294
f 379 312 427
f 427 378 379
f 429 427 311
f 311 427 312
f 415 414 423
f 299 298 423
f 299 423 424
f 424 423 414
f 413 414 415
f 408 407 404
f 57 58 59
f 55 58 57
f 60 61 59
f 59 58 60
f 60 58 80
f 80 81 60
f 82 60 81
f 65 63 64
f 286 32 285
f 968 891 285
f 285 293 968
f 31 292 293
f 293 285 31
f 31 285 32
f 31 291 292
f 290 291 31
f 31 289 290
f 28 32 286
f 80 58 79
f 645 679 676
f 676 677 645
f 679 803 676
f 676 803 677
f 682 683 644
f 644 681 682
f 643 683 684
f 642 687 688
f 172 171 189
f 153 171 172
f 239 222 238
f 238 256 239
f 189 205 206
f 222 223 206
f 206 205 222
f 236 254 237
f 253 254 236
f 237 220 236
f 220 219 236
f 236 252 253
f 217 233 234
f 217 216 233
f 202 220 203
f 202 219 220
f 203 204 186
f 186 202 203
f 159 176 177
f 177 160 159
f 108 126 109
f 125 126 108
f 127 126 143
f 109 126 127
f 269 865 270
f 270 865 271
f 864 881 882
f 882 865 864
f 883 865 882
f 789 883 882
f 882 787 789
f 882 881 787
f 883 867 866
f 866 865 883
f 867 271 866
f 271 865 866
f 864 268 863
f 863 268 862
f 863 880 864
f 863 862 879
f 879 880 863
f 267 268 248
f 248 232 231
f 879 861 878
f 878 861 877
f 781 879 878
f 878 780 781
f 778 780 878
f 878 877 778
f 859 858 876
f 265 861 266
f 266 861 267
f 267 248 266
f 266 248 247
f 147 130 129
f 417 407 418
f 393 392 356
f 475 474 477
f 477 474 459
f 459 476 477
f 340 341 349
f 466 441 434
f 434 441 446
f 446 340 434
f 434 349 435
f 434 340 349
f 478 476 457
f 578 570 569
f 554 553 562
f 570 578 495
f 495 486 485
f 934 484 495
f 495 969 934
f 485 969 495
f 516 517 451
f 456 516 451
f 453 442 451
f 451 444 456
f 451 442 444
f 521 517 576
f 555 563 538
f 481 472 607
f 607 482 481
f 460 474 475
f 475 473 460
f 459 474 460
f 460 482 463
f 460 481 482
f 535 537 536
f 587 537 535
f 591 587 535
f 535 534 591
f 567 558 566
f 566 558 557
f 527 529 542
f 529 543 542
f 557 558 549
f 549 548 557
f 530 529 534
f 530 543 529
f 534 535 530
f 530 535 543
f 564 573 565
f 565 566 557
f 557 548 556
f 564 565 556
f 556 565 557
f 556 548 538
f 538 563 556
f 536 538 544
f 538 548 544
f 544 535 536
f 543 535 544
f 544 549 543
f 548 549 544
f 561 562 553
f 569 570 561
f 570 562 561
f 503 511 502
f 511 498 502
f 502 504 503
f 889 504 502
f 502 888 889
f 967 888 502
f 502 498 967
f 499 498 512
f 512 511 513
f 512 498 511
f 513 514 512
f 518 519 515
f 519 520 515
f 515 514 518
f 515 512 514
f 796 800 798
f 835 851 834
f 853 800 835
f 835 803 802
f 834 803 835
f 802 801 835
f 801 853 835
f 284 890 283
f 284 28 286
f 283 28 284
f 964 363 921
f 364 390 391
f 922 960 351
f 351 960 443
f 443 442 351
f 378 903 904
f 901 321 962
f 383 294 323
f 295 294 383
f 902 384 961
f 381 962 323
f 323 294 381
f 381 294 384
f 320 384 279
f 961 384 320
f 898 899 278
f 278 277 898
f 914 372 909
f 909 372 325
f 505 291 290
f 290 289 505
f 968 292 505
f 292 291 505
f 197 213 214
f 231 232 214
f 196 213 197
f 215 232 233
f 233 216 215
f 215 214 232
f 197 214 215
f 181 180 197
f 164 180 181
f 161 141 160
f 161 160 177
f 163 180 164
f 227 243 244
f 244 245 227
f 226 243 227
f 227 209 226
f 154 298 299
f 338 447 331
f 331 447 448
f 449 450 440
f 334 309 329
f 446 441 344
f 415 423 422
f 422 423 298
f 297 154 17
f 298 154 297
f 299 424 300
f 432 413 415
f 426 302 301
f 301 300 425
f 425 300 424
f 425 426 301
f 406 426 425
f 414 413 411
f 411 413 396
f 399 408 409
f 409 398 399
f 404 403 319
f 62 64 61
f 62 82 64
f 61 60 62
f 60 82 62
f 43 44 45
f 47 45 48
f 49 48 50
f 47 48 49
f 33 31 32
f 29 283 280
f 29 28 283
f 39 38 40
f 37 38 39
f 91 108 109
f 41 39 42
f 42 39 40
f 43 41 42
f 42 44 43
f 56 58 55
f 56 79 58
f 137 157 138
f 156 157 137
f 20 294 295
f 686 687 643
f 689 690 642
f 642 688 689
f 119 118 136
f 118 135 136
f 152 153 136
f 136 135 152
f 240 256 257
f 240 239 256
f 240 223 222
f 222 239 240
f 235 236 219
f 235 217 234
f 252 236 235
f 219 202 201
f 200 217 201
f 152 135 134
f 134 151 152
f 134 135 118
f 150 151 134
f 169 151 150
f 150 168 169
f 125 108 124
f 140 124 123
f 141 124 140
f 140 159 160
f 160 141 140
f 143 126 142
f 142 126 125
f 141 161 142
f 125 124 142
f 142 124 141
f 98 82 81
f 98 81 80
f 144 127 143
f 164 145 144
f 144 163 164
f 234 233 251
f 233 250 251
f 251 250 269
f 269 270 251
f 251 235 234
f 252 235 251
f 271 252 251
f 251 270 271
f 229 247 230
f 230 213 229
f 230 248 231
f 247 248 230
f 231 214 230
f 230 214 213
f 246 264 265
f 245 264 246
f 265 266 246
f 246 266 247
f 229 245 246
f 246 247 229
f 268 250 249
f 249 248 268
f 250 232 249
f 232 248 249
f 860 861 265
f 265 264 860
f 264 859 860
f 877 861 860
f 860 876 877
f 860 859 876
f 165 183 166
f 166 147 165
f 167 147 166
f 146 147 129
f 165 147 146
f 146 145 164
f 164 165 146
f 395 418 407
f 395 408 399
f 407 408 395
f 435 349 348
f 345 420 419
f 475 477 533
f 533 509 475
f 416 403 417
f 417 341 416
f 341 343 416
f 342 343 341
f 341 340 342
f 446 343 342
f 342 340 446
f 466 434 433
f 433 461 466
f 457 461 433
f 433 434 435
f 439 438 437
f 479 477 476
f 476 478 479
f 577 517 516
f 516 578 577
f 577 578 569
f 576 517 577
f 569 568 577
f 577 568 576
f 494 562 570
f 570 495 494
f 493 496 494
f 494 495 484
f 934 935 494
f 494 484 934
f 494 935 927
f 494 927 493
f 506 516 456
f 486 495 506
f 506 578 516
f 506 495 578
f 506 938 936
f 936 486 506
f 453 451 452
f 452 451 517
f 452 454 453
f 579 584 606
f 606 467 579
f 563 555 571
f 538 546 545
f 545 546 584
f 584 579 545
f 467 555 545
f 545 579 467
f 472 481 470
f 470 460 473
f 481 460 470
f 459 460 462
f 464 465 462
f 462 465 459
f 462 463 464
f 462 460 463
f 471 473 475
f 475 509 471
f 471 470 473
f 572 573 564
f 572 533 573
f 509 533 572
f 567 566 575
f 575 576 567
f 531 521 575
f 575 521 576
f 531 575 574
f 574 575 566
f 574 565 573
f 566 565 574
f 527 542 541
f 550 549 558
f 550 542 543
f 543 549 550
f 510 554 488
f 488 487 510
f 512 515 510
f 510 487 499
f 499 512 510
f 539 515 520
f 539 510 515
f 539 553 554
f 554 510 539
f 852 796 851
f 800 796 852
f 851 835 852
f 852 835 800
f 782 783 781
f 810 691 690
f 810 692 691
f 833 804 834
f 850 792 790
f 851 792 850
f 834 851 850
f 850 833 834
f 367 366 369
f 367 918 917
f 369 366 368
f 365 391 392
f 925 923 350
f 353 351 442
f 323 321 322
f 322 383 323
f 321 380 322
f 963 376 913
f 326 911 910
f 287 505 288
f 288 505 289
f 288 31 287
f 289 31 288
f 177 194 178
f 178 161 177
f 197 180 179
f 179 196 197
f 197 215 198
f 198 181 197
f 198 215 216
f 182 183 165
f 182 165 164
f 164 181 182
f 200 183 182
f 181 198 182
f 143 142 162
f 162 142 161
f 162 144 143
f 163 144 162
f 161 178 162
f 178 179 162
f 180 163 162
f 162 179 180
f 263 244 243
f 263 264 245
f 245 244 263
f 857 858 263
f 858 859 263
f 263 859 264
f 7 302 303
f 303 8 7
f 448 449 335
f 335 334 448
f 449 440 335
f 335 440 307
f 329 331 333
f 333 334 329
f 333 331 448
f 448 334 333
f 429 311 431
f 415 422 431
f 431 432 415
f 311 432 431
f 296 297 17
f 430 422 298
f 298 297 430
f 430 431 422
f 429 431 430
f 396 388 397
f 397 411 396
f 385 395 399
f 392 393 385
f 385 365 392
f 385 393 394
f 394 395 385
f 366 365 386
f 365 385 386
f 399 398 386
f 386 385 399
f 405 426 406
f 406 409 405
f 405 408 404
f 405 409 408
f 412 424 414
f 412 425 424
f 406 425 412
f 414 411 412
f 303 319 304
f 304 8 303
f 317 319 403
f 305 304 317
f 317 304 319
f 66 65 64
f 64 84 66
f 75 48 74
f 46 44 74
f 74 48 46
f 46 45 44
f 46 48 45
f 34 33 32
f 32 28 34
f 280 281 25
f 25 29 280
f 25 281 26
f 123 124 107
f 107 124 108
f 52 53 51
f 52 77 78
f 51 49 52
f 52 49 50
f 129 130 112
f 128 111 127
f 129 112 128
f 128 112 111
f 128 146 129
f 145 146 128
f 128 144 145
f 127 144 128
f 78 77 94
f 111 112 94
f 110 93 109
f 109 127 110
f 127 111 110
f 110 94 93
f 111 94 110
f 44 42 72
f 72 42 40
f 105 122 123
f 104 122 105
f 17 154 18
f 21 18 137
f 279 294 19
f 294 20 19
f 20 21 19
f 643 684 685
f 685 686 643
f 184 183 200
f 200 201 184
f 167 166 184
f 184 166 183
f 184 168 167
f 218 235 219
f 219 201 218
f 217 235 218
f 218 201 217
f 167 168 148
f 148 147 167
f 202 186 185
f 168 184 185
f 186 169 185
f 185 169 168
f 185 201 202
f 185 184 201
f 117 134 118
f 187 186 204
f 187 169 186
f 188 171 187
f 187 205 188
f 204 205 187
f 159 140 158
f 175 176 158
f 176 159 158
f 113 112 130
f 97 98 80
f 115 98 97
f 97 114 115
f 97 79 96
f 80 79 97
f 96 113 97
f 97 113 114
f 346 345 435
f 435 348 346
f 394 420 421
f 421 395 394
f 418 395 421
f 356 357 359
f 338 331 332
f 332 330 338
f 332 331 329
f 338 330 337
f 337 330 344
f 337 441 338
f 337 344 441
f 344 330 336
f 336 343 446
f 446 344 336
f 480 439 437
f 478 439 480
f 480 479 478
f 531 479 480
f 480 521 531
f 437 521 480
f 435 439 458
f 458 439 478
f 458 433 435
f 458 478 457
f 457 433 458
f 562 494 491
f 554 562 491
f 491 494 496
f 929 492 491
f 930 929 491
f 491 496 930
f 517 521 436
f 436 452 517
f 436 521 437
f 454 452 436
f 437 438 436
f 438 454 436
f 508 555 467
f 508 571 555
f 547 555 538
f 538 545 547
f 547 545 555
f 472 470 468
f 468 467 606
f 606 472 468
f 532 533 477
f 531 574 532
f 573 533 532
f 532 574 573
f 532 479 531
f 477 479 532
f 523 525 524
f 524 520 523
f 524 525 526
f 524 526 527
f 527 541 524
f 560 568 569
f 569 561 560
f 851 796 794
f 794 792 851
f 781 780 779
f 779 782 781
f 779 780 778
f 683 682 805
f 805 681 804
f 805 682 681
f 808 688 687
f 790 848 849
f 849 850 790
f 366 367 360
f 355 357 356
f 355 442 453
f 355 353 442
f 350 351 352
f 351 353 352
f 390 350 352
f 352 391 390
f 382 322 380
f 382 427 429
f 383 322 382
f 428 906 907
f 428 312 379
f 428 324 312
f 312 324 313
f 313 311 312
f 313 432 311
f 313 324 325
f 313 325 372
f 375 388 396
f 369 368 370
f 911 326 328
f 195 178 194
f 195 194 212
f 196 179 195
f 195 179 178
f 212 213 195
f 213 196 195
f 199 198 216
f 199 182 198
f 200 182 199
f 199 217 200
f 216 217 199
f 262 243 261
f 262 263 243
f 262 261 857
f 857 263 262
f 208 226 209
f 241 260 261
f 261 242 241
f 307 440 258
f 258 450 607
f 258 440 450
f 411 397 410
f 410 409 406
f 398 409 410
f 410 397 398
f 406 412 410
f 410 412 411
f 387 368 366
f 366 386 387
f 388 368 387
f 387 386 398
f 387 397 388
f 398 397 387
f 426 405 318
f 303 302 318
f 302 426 318
f 318 319 303
f 404 319 318
f 318 405 404
f 403 416 402
f 402 317 403
f 402 416 343
f 343 336 402
f 67 65 68
f 65 66 68
f 68 66 84
f 84 101 102
f 102 118 119
f 102 101 118
f 74 91 92
f 92 75 74
f 109 93 92
f 92 91 109
f 50 48 76
f 48 75 76
f 76 52 50
f 77 52 76
f 93 94 76
f 76 94 77
f 76 92 93
f 75 92 76
f 35 33 36
f 33 34 36
f 36 37 35
f 36 38 37
f 70 38 36
f 27 25 26
f 26 22 27
f 54 52 78
f 53 52 54
f 78 79 54
f 79 56 54
f 55 53 54
f 54 56 55
f 96 79 95
f 95 79 78
f 95 113 96
f 112 113 95
f 78 94 95
f 95 94 112
f 90 91 74
f 108 91 90
f 90 107 108
f 71 72 40
f 40 38 71
f 71 38 70
f 17 18 16
f 16 296 17
f 16 21 20
f 18 21 16
f 16 20 295
f 295 296 16
f 121 137 138
f 121 122 104
f 86 27 24
f 24 19 21
f 24 27 22
f 23 320 279
f 279 19 23
f 278 320 23
f 23 22 278
f 23 24 22
f 19 24 23
f 149 168 150
f 150 132 149
f 149 148 168
f 149 132 148
f 148 132 131
f 115 114 131
f 131 132 115
f 131 113 130
f 114 113 131
f 130 147 131
f 147 148 131
f 134 117 116
f 100 116 117
f 118 101 100
f 100 117 118
f 151 169 170
f 169 187 170
f 170 187 171
f 170 171 152
f 152 151 170
f 138 157 139
f 157 158 139
f 139 158 140
f 139 121 138
f 122 121 139
f 123 122 139
f 139 140 123
f 339 346 348
f 339 341 417
f 417 418 339
f 349 341 339
f 339 348 349
f 445 359 454
f 419 359 445
f 445 454 438
f 445 439 435
f 438 439 445
f 435 345 445
f 345 419 445
f 455 359 357
f 455 355 453
f 357 355 455
f 453 454 455
f 454 359 455
f 358 419 420
f 358 359 419
f 394 393 358
f 358 420 394
f 358 393 356
f 356 359 358
f 330 332 316
f 488 554 490
f 554 491 490
f 490 491 492
f 490 497 488
f 932 497 490
f 929 932 490
f 490 492 929
f 571 508 507
f 467 468 469
f 469 468 470
f 469 508 467
f 469 471 509
f 470 471 469
f 469 507 508
f 509 572 469
f 571 507 469
f 469 572 564
f 563 571 469
f 564 556 469
f 469 556 563
f 567 568 559
f 568 560 559
f 559 558 567
f 559 550 558
f 552 561 553
f 552 560 561
f 788 848 790
f 788 786 848
f 778 777 776
f 776 779 778
f 776 777 775
f 833 850 832
f 850 849 832
f 804 833 832
f 832 805 804
f 690 689 809
f 809 810 690
f 809 689 688
f 688 808 809
f 810 826 811
f 812 694 811
f 811 694 693
f 693 692 811
f 692 810 811
f 824 823 813
f 362 365 366
f 366 360 362
f 360 361 362
f 391 365 362
f 362 361 363
f 362 363 364
f 364 391 362
f 391 352 354
f 354 352 353
f 353 355 354
f 392 391 354
f 356 392 354
f 354 355 356
f 377 380 378
f 377 382 380
f 378 427 377
f 427 382 377
f 314 382 429
f 429 430 314
f 383 382 314
f 297 296 314
f 314 430 297
f 295 383 314
f 314 296 295
f 371 375 396
f 396 413 371
f 413 432 371
f 432 313 371
f 373 374 376
f 376 375 373
f 375 371 373
f 372 374 373
f 373 313 372
f 373 371 313
f 389 375 376
f 389 328 375
f 911 328 389
f 388 375 327
f 375 328 327
f 327 328 326
f 327 368 388
f 326 370 327
f 327 370 368
f 155 18 154
f 156 137 155
f 137 18 155
f 15 12 173
f 156 155 173
f 173 155 15
f 226 208 225
f 225 242 243
f 243 226 225
f 9 7 8
f 207 12 9
f 9 12 7
f 4 304 305
f 8 304 4
f 4 9 8
f 6 9 4
f 3 6 1
f 260 241 3
f 307 258 308
f 308 258 309
f 308 335 307
f 309 334 308
f 334 335 308
f 259 607 854
f 259 258 607
f 854 855 259
f 259 855 260
f 260 3 259
f 259 3 258
f 85 68 84
f 84 102 85
f 69 86 70
f 70 36 69
f 73 90 74
f 72 90 73
f 74 44 73
f 44 72 73
f 89 90 72
f 70 86 87
f 87 86 104
f 120 121 104
f 120 24 21
f 120 21 137
f 137 121 120
f 133 132 150
f 150 134 133
f 134 116 133
f 115 132 133
f 133 116 115
f 64 82 83
f 82 100 83
f 83 84 64
f 83 101 84
f 83 100 101
f 99 100 82
f 116 100 99
f 82 98 99
f 99 98 115
f 115 116 99
f 418 421 347
f 347 339 418
f 347 421 420
f 347 420 345
f 345 346 347
f 346 339 347
f 317 402 315
f 315 316 317
f 315 402 336
f 315 336 330
f 330 316 315
f 305 317 400
f 317 316 400
f 401 332 329
f 401 316 332
f 541 552 540
f 520 524 540
f 540 524 541
f 540 539 520
f 553 539 540
f 540 552 553
f 551 559 560
f 560 552 551
f 551 552 541
f 550 559 551
f 551 541 542
f 542 550 551
f 782 846 784
f 784 846 786
f 845 846 782
f 7 12 11
f 301 302 11
f 302 7 11
f 175 158 174
f 174 158 157
f 174 157 156
f 156 173 174
f 190 12 207
f 190 173 12
f 207 208 190
f 224 208 207
f 224 225 208
f 207 9 224
f 224 9 6
f 224 3 241
f 6 3 224
f 224 241 242
f 242 225 224
f 5 4 305
f 1 6 5
f 6 4 5
f 2 3 1
f 258 3 2
f 309 258 2
f 30 36 34
f 30 69 36
f 28 29 30
f 30 34 28
f 29 25 30
f 25 27 30
f 30 27 86
f 86 69 30
f 106 89 105
f 123 107 106
f 106 105 123
f 107 90 106
f 90 89 106
f 72 71 88
f 88 89 72
f 88 71 70
f 70 87 88
f 105 89 88
f 104 105 88
f 88 87 104
f 103 120 104
f 24 120 103
f 104 86 103
f 86 24 103
f 329 309 310
f 310 401 329
f 309 2 310
f 310 2 1
f 773 774 772
f 775 774 773
f 773 776 775
f 812 811 825
f 825 811 826
f 813 812 825
f 825 824 813
f 779 776 844
f 782 779 844
f 844 845 782
f 829 830 846
f 808 830 829
f 807 830 808
f 686 685 807
f 687 686 807
f 807 808 687
f 805 832 831
f 848 830 831
f 831 849 848
f 831 832 849
f 847 830 848
f 846 830 847
f 848 786 847
f 786 846 847
f 10 12 15
f 10 11 12
f 301 11 10
f 175 174 192
f 192 193 175
f 192 209 193
f 192 208 209
f 191 174 173
f 173 190 191
f 191 192 174
f 191 190 208
f 208 192 191
f 401 310 306
f 306 400 316
f 316 401 306
f 305 400 306
f 306 5 305
f 1 5 306
f 306 310 1
f 842 773 841
f 767 840 841
f 840 823 841
f 823 824 841
f 824 825 841
f 841 825 842
f 769 767 770
f 770 771 769
f 767 841 770
f 770 841 773
f 772 771 770
f 770 773 772
f 826 844 843
f 843 825 826
f 842 825 843
f 843 844 776
f 776 773 843
f 843 773 842
f 845 844 828
f 846 845 828
f 828 829 846
f 828 809 808
f 808 829 828
f 805 831 806
f 830 807 806
f 806 831 830
f 806 684 683
f 683 805 806
f 806 685 684
f 806 807 685
f 14 10 15
f 14 300 301
f 301 10 14
f 827 844 826
f 827 828 844
f 827 826 810
f 810 809 827
f 809 828 827
f 13 154 299
f 299 300 13
f 300 14 13
f 13 155 154
f 15 155 13
f 13 14 15
f 744 613 612
f 707 613 744
f 717 656 664
f 723 656 717
f 718 656 723
f 642 656 718
f 743 744 611
f 611 744 612
f 611 742 743
f 610 742 611
f 671 672 716
f 716 715 671
f 727 668 669
f 669 726 727
f 727 728 667
f 667 668 727
f 721 645 644
f 644 720 721
f 665 660 739
f 741 665 739
f 663 665 741
f 741 709 663
f 708 657 663
f 663 709 708
f 711 710 662
f 661 711 662
f 662 717 664
f 662 710 717
f 729 711 661
f 661 666 729
f 667 728 729
f 729 666 667
f 752 799 751
f 799 798 751
f 642 718 643
f 643 718 719
f 720 644 643
f 719 720 643
f 649 609 608
f 608 609 627
f 648 608 627
f 627 732 648
f 706 742 650
f 650 742 610
f 650 609 649
f 650 649 706
f 733 653 654
f 733 654 730
f 651 653 733
f 733 734 651
f 740 739 660
f 740 660 659
f 646 645 721
f 721 722 646
f 646 722 737
f 737 647 646
f 641 647 737
f 641 737 736
f 941 973 61
f 61 973 59
f 670 726 669
f 670 714 726
f 670 671 715
f 670 715 714
f 730 654 655
f 655 731 730
f 655 648 732
f 655 732 731
f 651 734 738
f 738 652 651
f 738 740 659
f 659 652 738
f 716 672 658
f 658 713 716
f 658 657 708
f 708 713 658
f 928 496 493
f 493 927 928
f 673 641 736
f 736 640 673
f 673 640 735
f 735 745 673
f 895 896 283
f 283 896 280
f 63 940 941
f 941 61 63
f 950 976 37
f 37 976 35
f 743 742 631
f 581 707 631
f 631 586 590
f 631 602 601
f 599 603 631
f 631 756 755
f 707 744 631
f 706 639 631
f 631 744 743
f 631 742 706
f 601 600 631
f 631 593 594
f 755 584 631
f 631 628 701
f 631 604 581
f 631 819 836
f 836 756 631
f 631 633 632
f 637 636 631
f 631 587 591
f 605 604 631
f 631 600 605
f 584 585 631
f 631 598 599
f 701 818 631
f 631 596 597
f 594 595 631
f 590 589 631
f 603 602 631
f 597 598 631
f 631 629 628
f 591 592 631
f 631 634 633
f 631 595 596
f 631 585 586
f 631 589 588
f 588 587 631
f 631 638 637
f 631 818 819
f 631 630 629
f 631 636 635
f 635 634 631
f 639 638 631
f 631 592 593
f 281 893 894
f 280 893 281
f 59 973 57
f 973 942 57
f 57 942 943
f 943 55 57
f 67 972 65
f 972 939 65
f 65 939 940
f 940 63 65
f 285 891 892
f 285 892 286
f 796 798 799
f 796 799 797
f 892 890 284
f 286 892 284
f 351 923 922
f 350 923 351
f 905 379 904
f 379 378 904
f 900 903 380
f 380 903 378
f 380 901 900
f 321 901 380
f 381 902 962
f 384 902 381
f 320 899 961
f 278 899 320
f 898 282 897
f 898 277 282
f 505 952 968
f 505 31 952
f 287 31 505
f 943 974 53
f 53 55 943
f 944 53 974
f 51 53 944
f 45 947 948
f 45 948 43
f 947 45 946
f 946 45 47
f 49 944 945
f 51 944 49
f 945 946 49
f 49 946 47
f 35 976 33
f 976 951 33
f 33 951 952
f 952 31 33
f 43 948 949
f 949 41 43
f 950 37 39
f 39 975 950
f 39 949 975
f 41 949 39
f 456 937 506
f 506 937 938
f 791 790 792
f 792 793 791
f 926 390 364
f 924 390 926
f 364 363 926
f 363 964 926
f 920 918 367
f 369 920 367
f 925 390 924
f 925 350 390
f 324 908 909
f 909 325 324
f 913 977 954
f 954 978 913
f 922 923 913
f 913 956 980
f 971 960 913
f 913 970 971
f 913 972 953
f 913 939 972
f 913 935 934
f 913 929 930
f 913 981 889
f 953 977 913
f 978 957 913
f 980 979 913
f 968 952 913
f 913 896 895
f 913 969 936
f 931 933 913
f 959 958 913
f 941 940 913
f 894 893 913
f 913 949 948
f 948 947 913
f 913 932 929
f 889 888 913
f 913 957 956
f 958 981 913
f 936 938 913
f 940 939 913
f 913 955 959
f 897 894 913
f 913 925 924
f 913 973 941
f 943 942 913
f 934 969 913
f 909 908 913
f 930 928 913
f 913 933 932
f 913 888 967
f 967 966 913
f 979 955 913
f 913 965 931
f 913 915 917
f 895 890 913
f 962 902 913
f 913 942 973
f 913 914 909
f 913 974 943
f 927 935 913
f 913 928 927
f 913 946 945
f 966 965 913
f 913 937 970
f 913 891 968
f 952 951 913
f 913 960 922
f 905 904 913
f 913 901 962
f 913 906 905
f 913 898 897
f 917 918 913
f 920 919 913
f 945 944 913
f 913 976 950
f 950 975 913
f 938 937 913
f 913 893 896
f 892 891 913
f 913 890 892
f 913 903 900
f 961 899 913
f 907 906 913
f 913 908 907
f 913 918 920
f 913 911 963
f 913 951 976
f 913 964 921
f 924 926 913
f 921 916 913
f 913 904 903
f 900 901 913
f 913 902 961
f 899 898 913
f 912 914 913
f 910 911 913
f 913 919 910
f 913 944 974
f 947 946 913
f 975 949 913
f 913 926 964
f 913 916 915
f 923 925 913
f 374 914 912
f 372 914 374
f 912 913 374
f 374 913 376
f 794 796 797
f 797 795 794
f 793 792 794
f 794 795 793
f 917 915 360
f 360 367 917
f 907 908 428
f 908 324 428
f 905 906 428
f 428 379 905
f 370 919 920
f 370 920 369
f 910 919 370
f 370 326 910
f 788 790 791
f 791 789 788
f 789 787 788
f 787 786 788
f 361 916 921
f 921 363 361
f 915 916 361
f 361 360 915
f 963 911 389
f 389 376 963
f 953 972 85
f 752 751 85
f 85 972 67
f 85 712 953
f 85 753 752
f 85 751 712
f 85 240 257
f 754 753 85
f 85 276 754
f 85 172 189
f 257 276 85
f 189 206 85
f 119 136 85
f 153 172 85
f 85 206 223
f 85 136 153
f 223 240 85
f 67 68 85
f 85 102 119
f 783 782 784
f 784 785 783
f 784 786 787
f 787 785 784

