# https://github.com/mikedh/trimesh
v 0.00737512 -0.02530043 0.00000000
v 0.00643383 -0.03418374 -0.00067973
v 0.00643383 -0.03418374 0.00067973
v -0.01000000 -0.01638564 -0.00342857
v 0.00527300 -0.01500332 -0.00342857
v 0.00521764 -0.01500201 -0.00342857
v 0.00538304 -0.01501053 -0.00342857
v 0.00556230 -0.01503104 -0.00342857
v 0.00549160 -0.01502293 -0.00342857
v 0.00563244 -0.01504205 -0.00342857
v 0.00570954 -0.01505614 -0.00342857
v 0.00567855 -0.01505047 -0.00342857
v 0.00587832 -0.01509435 -0.00342857
v 0.00611896 -0.01516704 -0.00342857
v 0.00619242 -0.01519543 -0.00342857
v 0.00635268 -0.01525962 -0.00342857
v 0.00640921 -0.01528597 -0.00342857
v 0.00657781 -0.01537145 -0.00342857
v 0.00673300 -0.01546300 -0.00342857
v 0.00686996 -0.01555479 -0.00342857
v 0.00699612 -0.01564955 -0.00342857
v 0.00712979 -0.01576207 -0.00342857
v 0.00718636 -0.01581388 -0.00342857
v 0.00716677 -0.01579588 -0.00342857
v 0.00725133 -0.01587682 -0.00342857
v 0.00747461 -0.01612609 -0.00342857
v 0.00752232 -0.01618732 -0.00342857
v 0.00757532 -0.01625945 -0.00342857
v 0.00766569 -0.01639381 -0.00342857
v 0.00775282 -0.01654034 -0.00342857
v 0.00771644 -0.01647889 -0.00342857
v 0.00779126 -0.01661158 -0.00342857
v 0.00787331 -0.01678391 -0.00342857
v 0.00789816 -0.01683909 -0.00342857
v 0.00798564 -0.01707476 -0.00342857
v 0.00807996 -0.01744436 -0.00342857
v 0.00810002 -0.01756389 -0.00342857
v 0.00813118 -0.01806524 -0.00342857
v 0.00761093 -0.02307492 -0.00342857
v 0.00811518 -0.01831611 -0.00342857
v 0.00681215 -0.03061339 -0.00342857
v 0.00626361 -0.03579016 -0.00342857
v -0.01000000 -0.02100000 -0.00342857
v -0.00999619 -0.02108716 -0.00342857
v -0.00920000 -0.01500000 -0.00342857
v 0.00534024 -0.01500772 -0.00342857
v 0.00560566 -0.01503784 -0.00342857
v 0.00581321 -0.01507958 -0.00342857
v 0.00595510 -0.01511587 -0.00342857
v 0.00607629 -0.01515308 -0.00342857
v 0.00600648 -0.01513032 -0.00342857
v 0.00633478 -0.01525183 -0.00342857
v 0.00652918 -0.01534616 -0.00342857
v 0.00644858 -0.01530439 -0.00342857
v 0.00667014 -0.01542582 -0.00342857
v 0.00677163 -0.01548798 -0.00342857
v 0.00683746 -0.01553239 -0.00342857
v 0.00679280 -0.01550173 -0.00342857
v 0.00694915 -0.01561417 -0.00342857
v 0.00707503 -0.01571584 -0.00342857
v 0.00722337 -0.01584966 -0.00342857
v 0.00732141 -0.01595049 -0.00342857
v 0.00742810 -0.01607108 -0.00342857
v 0.00736217 -0.01599355 -0.00342857
v 0.00750624 -0.01616659 -0.00342857
v 0.00755209 -0.01622772 -0.00342857
v 0.00763288 -0.01634483 -0.00342857
v 0.00777855 -0.01658790 -0.00342857
v 0.00793123 -0.01692374 -0.00342857
v 0.00805308 -0.01731693 -0.00342857
v 0.00806838 -0.01738883 -0.00342857
v 0.00809325 -0.01752289 -0.00342857
v 0.00812611 -0.01781391 -0.00342857
v 0.00513188 -0.01500000 -0.00342857
v 0.00764269 -0.02277522 0.00342857
v 0.00684635 -0.03029060 0.00342857
v 0.00531020 -0.01500575 0.00342857
v 0.00544272 -0.01501735 0.00342857
v 0.00558686 -0.01503488 0.00342857
v 0.00576751 -0.01506922 0.00342857
v 0.00604634 -0.01514328 0.00342857
v 0.00611896 -0.01516704 0.00342857
v 0.00632223 -0.01524636 0.00342857
v 0.00638375 -0.01527411 0.00342857
v 0.00649506 -0.01532841 0.00342857
v 0.00675678 -0.01547834 0.00342857
v 0.00715301 -0.01578325 0.00342857
v 0.00729281 -0.01592026 0.00342857
v 0.00760986 -0.01631045 0.00342857
v 0.00769359 -0.01644058 0.00342857
v 0.00785587 -0.01674518 0.00342857
v 0.00798564 -0.01707476 0.00342857
v 0.00806149 -0.01735645 0.00342857
v 0.00810002 -0.01756389 0.00342857
v 0.00812611 -0.01781391 0.00342857
v 0.00813118 -0.01806524 0.00342857
v -0.00920000 -0.01500000 0.00342857
v -0.01000000 -0.02100000 0.00342857
v -0.00999619 -0.02108716 0.00342857
v 0.00513188 -0.01500000 0.00342857
v 0.00517903 -0.01500111 0.00342857
v 0.00527324 -0.01500333 0.00342857
v 0.00538304 -0.01501053 0.00342857
v 0.00565779 -0.01504668 0.00342857
v 0.00571052 -0.01505633 0.00342857
v 0.00592053 -0.01510618 0.00342857
v 0.00600797 -0.01513077 0.00342857
v 0.00624397 -0.01521536 0.00342857
v 0.00635268 -0.01525962 0.00342857
v 0.00645075 -0.01530545 0.00342857
v 0.00657781 -0.01537145 0.00342857
v 0.00662857 -0.01540134 0.00342857
v 0.00681735 -0.01551858 0.00342857
v 0.00691618 -0.01558935 0.00342857
v 0.00703950 -0.01568599 0.00342857
v 0.00720671 -0.01583355 0.00342857
v 0.00725428 -0.01587977 0.00342857
v 0.00739841 -0.01603617 0.00342857
v 0.00747757 -0.01612978 0.00342857
v 0.00749495 -0.01615205 0.00342857
v 0.00752232 -0.01618732 0.00342857
v 0.00753869 -0.01620953 0.00342857
v 0.00775549 -0.01654514 0.00342857
v 0.00776964 -0.01657129 0.00342857
v 0.00789816 -0.01683909 0.00342857
v 0.00791634 -0.01688562 0.00342857
v 0.00805308 -0.01731693 0.00342857
v 0.00808850 -0.01749413 0.00342857
v 0.00811518 -0.01831611 0.00342857
v -0.01000000 -0.01638564 0.00342857
v 0.00556303 -0.01503114 0.00342857
v 0.00563244 -0.01504205 0.00342857
v 0.00587832 -0.01509435 0.00342857
v 0.00673554 -0.01546460 0.00342857
v 0.00679280 -0.01550173 0.00342857
v 0.00687265 -0.01555670 0.00342857
v 0.00699612 -0.01564955 0.00342857
v 0.00713269 -0.01576466 0.00342857
v 0.00718636 -0.01581388 0.00342857
v 0.00736217 -0.01599355 0.00342857
v 0.00757822 -0.01626352 0.00342857
v 0.00766569 -0.01639381 0.00342857
v 0.00779126 -0.01661158 0.00342857
v 0.00808119 -0.01745095 0.00342857
v 0.00624109 -0.03600267 -0.00062669
v 0.00624109 -0.03600267 0.00050874
v 0.00624109 -0.03600267 -0.00334192
v -0.00830000 -0.03600267 -0.00342857
v 0.00624109 -0.03600267 -0.00342857
v 0.00624109 -0.03600267 0.00342857
v -0.00830000 -0.03600267 0.00342857
f 146 145 2
f 2 145 147
f 2 41 39
f 39 1 2
f 40 129 39
f 129 1 39
f 75 1 129
f 3 76 150
f 150 146 3
f 3 146 2
f 2 1 3
f 3 75 76
f 1 75 3
f 42 147 149
f 92 35 69
f 126 92 69
f 32 143 91
f 32 91 33
f 45 130 97
f 4 130 45
f 148 151 99
f 99 44 148
f 4 43 98
f 98 130 4
f 98 43 44
f 44 99 98
f 96 40 38
f 96 129 40
f 74 45 97
f 97 100 74
f 148 149 147
f 150 151 147
f 147 151 148
f 147 146 150
f 145 146 147
f 95 96 73
f 73 96 38
f 42 41 2
f 2 147 42
f 101 74 100
f 101 6 74
f 5 101 102
f 6 101 5
f 46 77 103
f 103 7 46
f 102 77 46
f 46 5 102
f 95 73 94
f 73 37 94
f 128 94 72
f 72 94 37
f 127 70 35
f 35 92 127
f 69 34 126
f 126 34 125
f 140 118 63
f 64 140 63
f 63 118 119
f 119 26 63
f 144 72 36
f 128 72 144
f 62 88 140
f 62 140 64
f 117 88 62
f 62 25 117
f 120 65 26
f 120 26 119
f 27 65 120
f 120 121 27
f 67 89 142
f 142 29 67
f 141 89 67
f 67 28 141
f 70 127 93
f 93 71 70
f 36 71 93
f 93 144 36
f 125 34 33
f 33 91 125
f 106 49 13
f 106 13 133
f 51 49 106
f 106 107 51
f 82 108 14
f 14 108 15
f 55 112 134
f 55 134 19
f 111 55 18
f 112 55 111
f 114 59 20
f 20 136 114
f 21 59 114
f 114 137 21
f 27 121 66
f 121 122 66
f 66 122 141
f 141 28 66
f 68 124 143
f 68 143 32
f 123 68 30
f 124 68 123
f 52 108 83
f 15 108 52
f 83 109 52
f 109 16 52
f 17 84 110
f 110 54 17
f 109 84 17
f 17 16 109
f 107 81 50
f 51 107 50
f 50 81 82
f 82 14 50
f 85 53 54
f 85 54 110
f 18 53 85
f 85 111 18
f 19 134 86
f 86 56 19
f 58 56 86
f 86 135 58
f 87 24 22
f 22 138 87
f 23 24 87
f 87 139 23
f 22 60 115
f 115 138 22
f 21 137 115
f 115 60 21
f 30 31 90
f 90 123 30
f 90 29 142
f 90 31 29
f 78 7 103
f 78 9 7
f 47 79 132
f 132 10 47
f 8 9 131
f 9 78 131
f 131 47 8
f 79 47 131
f 133 13 48
f 48 80 133
f 105 80 48
f 48 11 105
f 132 104 12
f 12 10 132
f 12 104 105
f 105 11 12
f 113 75 129
f 113 96 95
f 113 98 99
f 113 151 150
f 130 98 113
f 97 130 113
f 113 99 151
f 150 76 113
f 142 89 113
f 113 100 97
f 125 91 113
f 129 96 113
f 113 126 125
f 113 101 100
f 82 81 113
f 76 75 113
f 103 77 113
f 119 118 113
f 113 77 102
f 113 86 134
f 113 127 92
f 113 88 117
f 102 101 113
f 95 94 113
f 113 93 127
f 143 124 113
f 123 90 113
f 140 88 113
f 113 118 140
f 79 131 113
f 113 94 128
f 128 144 113
f 92 126 113
f 113 106 133
f 113 108 82
f 133 80 113
f 113 104 132
f 113 120 119
f 113 89 141
f 141 122 113
f 113 91 143
f 113 109 83
f 110 84 113
f 134 112 113
f 113 87 138
f 121 120 113
f 113 122 121
f 144 93 113
f 138 115 113
f 113 114 136
f 113 84 109
f 113 81 107
f 107 106 113
f 83 108 113
f 132 79 113
f 112 111 113
f 113 85 110
f 117 116 113
f 137 114 113
f 124 123 113
f 113 90 142
f 113 78 103
f 105 104 113
f 113 80 105
f 111 85 113
f 135 86 113
f 113 116 139
f 139 87 113
f 113 115 137
f 113 131 78
f 113 136 20
f 20 57 113
f 113 57 58
f 58 135 113
f 61 43 4
f 4 45 61
f 61 149 148
f 38 40 61
f 148 44 61
f 61 17 54
f 61 73 38
f 44 43 61
f 40 39 61
f 36 72 61
f 13 49 61
f 61 46 7
f 45 74 61
f 61 39 41
f 61 42 149
f 69 35 61
f 20 59 61
f 74 6 61
f 41 42 61
f 61 37 73
f 61 65 27
f 32 33 61
f 64 63 61
f 6 5 61
f 35 70 61
f 61 71 36
f 61 34 69
f 54 53 61
f 61 47 10
f 19 56 61
f 5 46 61
f 61 72 37
f 61 67 29
f 27 66 61
f 51 50 61
f 61 62 64
f 22 24 61
f 26 65 61
f 61 63 26
f 61 60 22
f 70 71 61
f 29 31 61
f 61 49 51
f 15 52 61
f 7 9 61
f 61 53 18
f 61 55 19
f 25 62 61
f 10 12 61
f 61 59 21
f 28 67 61
f 61 33 34
f 61 68 32
f 61 14 15
f 61 57 20
f 18 55 61
f 61 56 58
f 61 24 23
f 21 60 61
f 61 66 28
f 61 31 30
f 30 68 61
f 61 52 16
f 16 17 61
f 61 50 14
f 61 9 8
f 61 48 13
f 58 57 61
f 8 47 61
f 11 48 61
f 61 12 11
f 117 25 61
f 61 116 117
f 139 116 61
f 23 139 61

