# https://github.com/mikedh/trimesh
v 0.00526924 -0.02290208 0.00834014
v 0.00436599 -0.02870051 0.00697125
v -0.00746900 -0.02181181 0.00342857
v -0.00711621 -0.01721254 0.00342857
v 0.00423299 -0.01470505 0.00342857
v 0.00444424 -0.01471034 0.00342857
v 0.00449452 -0.01471576 0.00342857
v 0.00446150 -0.01471219 0.00342857
v 0.00455092 -0.01472382 0.00342857
v 0.00451283 -0.01471837 0.00342857
v 0.00467159 -0.01474833 0.00342857
v 0.00459190 -0.01473212 0.00342857
v 0.00476428 -0.01477415 0.00342857
v 0.00484325 -0.01480124 0.00342857
v 0.00500832 -0.01487414 0.00342857
v 0.00498691 -0.01486347 0.00342857
v 0.00507706 -0.01491156 0.00342857
v 0.00503010 -0.01488596 0.00342857
v 0.00527470 -0.01504571 0.00342857
v 0.00520073 -0.01499192 0.00342857
v 0.00531404 -0.01507771 0.00342857
v 0.00536867 -0.01512545 0.00342857
v 0.00533084 -0.01509234 0.00342857
v 0.00554440 -0.01530923 0.00342857
v 0.00548174 -0.01523931 0.00342857
v 0.00558019 -0.01535332 0.00342857
v 0.00559368 -0.01537103 0.00342857
v 0.00569603 -0.01551580 0.00342857
v 0.00565051 -0.01544934 0.00342857
v 0.00577069 -0.01564035 0.00342857
v 0.00578180 -0.01566082 0.00342857
v 0.00588922 -0.01588442 0.00342857
v 0.00596520 -0.01608797 0.00342857
v 0.00602670 -0.01630246 0.00342857
v 0.00600266 -0.01621379 0.00342857
v 0.00607328 -0.01652640 0.00342857
v 0.00610782 -0.01679625 0.00342857
v 0.00612049 -0.01699628 0.00342857
v 0.00611729 -0.01692890 0.00342857
v 0.00612079 -0.01723890 0.00342857
v 0.00610552 -0.01748440 0.00342857
v -0.00642243 -0.01579645 0.00342857
v -0.00746521 -0.02172683 0.00342857
v 0.00416380 -0.01471000 0.00342857
v 0.00412917 -0.01471248 0.00342857
v 0.00426002 -0.01470462 0.00342857
v 0.00435671 -0.01470594 0.00342857
v 0.00431328 -0.01470379 0.00342857
v 0.00470177 -0.01475671 0.00342857
v 0.00479159 -0.01478349 0.00342857
v 0.00493164 -0.01483906 0.00342857
v 0.00510795 -0.01493067 0.00342857
v 0.00516561 -0.01496651 0.00342857
v 0.00528929 -0.01505755 0.00342857
v 0.00539825 -0.01515410 0.00342857
v 0.00545255 -0.01520694 0.00342857
v 0.00555795 -0.01532588 0.00342857
v 0.00562521 -0.01541265 0.00342857
v 0.00571949 -0.01555475 0.00342857
v 0.00580966 -0.01571374 0.00342857
v 0.00579929 -0.01569325 0.00342857
v 0.00585442 -0.01580709 0.00342857
v 0.00583468 -0.01576357 0.00342857
v 0.00590623 -0.01592807 0.00342857
v 0.00595233 -0.01605019 0.00342857
v 0.00594389 -0.01602568 0.00342857
v 0.00603656 -0.01634661 0.00342857
v 0.00610461 -0.01675822 0.00342857
v 0.00611517 -0.01688721 0.00342857
v 0.00607476 -0.01773104 0.00342857
v 0.00538964 -0.02212918 0.00342857
v 0.00423494 -0.02954180 0.00342857
v 0.00564654 -0.02046838 0.01028571
v 0.00560711 -0.02069017 0.01028571
v 0.00515829 -0.02220513 0.01028571
v 0.00536686 -0.02161926 0.01028571
v 0.00548032 -0.02122866 0.01028571
v 0.00552957 -0.02103417 0.01028571
v 0.00504328 -0.02249689 0.01028571
v 0.00498702 -0.02263236 0.01028571
v -0.00313473 -0.02778416 0.01028571
v 0.00245944 -0.02719484 0.01028571
v -0.00600665 -0.02807637 0.01028571
v -0.00604955 -0.02806391 0.01028571
v -0.00608467 -0.02803887 0.01028571
v -0.00609426 -0.02803142 0.01028571
v -0.00612755 -0.02799255 0.01028571
v -0.00613211 -0.02798685 0.01028571
v -0.00616888 -0.02792585 0.01028571
v -0.00620694 -0.02784179 0.01028571
v -0.00624679 -0.02772514 0.01028571
v -0.00627331 -0.02762990 0.01028571
v -0.00629306 -0.02754316 0.01028571
v -0.00630340 -0.02749752 0.01028571
v 0.00290426 -0.02688081 0.01028571
v 0.00269153 -0.02708676 0.01028571
v 0.00266900 -0.02710496 0.01028571
v 0.00335924 -0.02632024 0.01028571
v 0.00327054 -0.02648082 0.01028571
v 0.00370620 -0.02559642 0.01028571
v 0.00258598 -0.02715121 0.01028571
v 0.00256119 -0.02716452 0.01028571
v 0.00571942 -0.02001222 0.01028571
v -0.00744668 -0.02205687 0.01028571
v -0.00711621 -0.01721254 0.01028571
v 0.00423805 -0.01470496 0.01028571
v 0.00467705 -0.01474984 0.01028571
v 0.00477028 -0.01477618 0.01028571
v 0.00484325 -0.01480124 0.01028571
v 0.00527909 -0.01504923 0.01028571
v 0.00545784 -0.01521280 0.01028571
v 0.00563173 -0.01542194 0.01028571
v 0.00570028 -0.01552285 0.01028571
v 0.00577459 -0.01564745 0.01028571
v 0.00580116 -0.01569696 0.01028571
v 0.00584008 -0.01577521 0.01028571
v 0.00594702 -0.01603462 0.01028571
v 0.00599275 -0.01617722 0.01028571
v 0.00607328 -0.01652640 0.01028571
v 0.00610520 -0.01676510 0.01028571
v 0.00611597 -0.01690111 0.01028571
v 0.00612049 -0.01699628 0.01028571
v 0.00612079 -0.01723890 0.01028571
v -0.00746521 -0.02172683 0.01028571
v -0.00746900 -0.02181181 0.01028571
v -0.00746716 -0.02189557 0.01028571
v -0.00745970 -0.02197746 0.01028571
v -0.00642243 -0.01579645 0.01028571
v 0.00412917 -0.01471248 0.01028571
v 0.00413543 -0.01471203 0.01028571
v 0.00423316 -0.01470504 0.01028571
v 0.00431328 -0.01470379 0.01028571
v 0.00432114 -0.01470417 0.01028571
v 0.00444789 -0.01471072 0.01028571
v 0.00449783 -0.01471623 0.01028571
v 0.00455163 -0.01472395 0.01028571
v 0.00455904 -0.01472545 0.01028571
v 0.00467159 -0.01474833 0.01028571
v 0.00476534 -0.01477448 0.01028571
v 0.00497808 -0.01485907 0.01028571
v 0.00500832 -0.01487414 0.01028571
v 0.00501226 -0.01487627 0.01028571
v 0.00507857 -0.01491243 0.01028571
v 0.00508416 -0.01491589 0.01028571
v 0.00516561 -0.01496651 0.01028571
v 0.00517197 -0.01497110 0.01028571
v 0.00527644 -0.01504710 0.01028571
v 0.00531708 -0.01508036 0.01028571
v 0.00537051 -0.01512711 0.01028571
v 0.00537586 -0.01513230 0.01028571
v 0.00545255 -0.01520694 0.01028571
v 0.00554878 -0.01531455 0.01028571
v 0.00558263 -0.01535653 0.01028571
v 0.00562716 -0.01541531 0.01028571
v 0.00569603 -0.01551580 0.01028571
v 0.00577258 -0.01564374 0.01028571
v 0.00583651 -0.01576734 0.01028571
v 0.00588922 -0.01588442 0.01028571
v 0.00589229 -0.01589232 0.01028571
v 0.00594549 -0.01603018 0.01028571
v 0.00596520 -0.01608797 0.01028571
v 0.00602848 -0.01631045 0.01028571
v 0.00610461 -0.01675822 0.01028571
v 0.00611559 -0.01689357 0.01028571
v 0.00610552 -0.01748440 0.01028571
v 0.00607476 -0.01773104 0.01028571
v 0.00576057 -0.01974800 0.01028571
v 0.00595084 -0.01852661 0.01028571
v 0.00507513 -0.02241984 0.01028571
v 0.00530262 -0.02181406 0.01028571
v 0.00542610 -0.02142390 0.01028571
v 0.00557140 -0.02085702 0.01028571
v 0.00523339 -0.02200759 0.01028571
v 0.00489117 -0.02285980 0.01028571
v -0.00623430 -0.02776437 0.01028571
v -0.00626981 -0.02764321 0.01028571
v 0.00280143 -0.02699170 0.01028571
v 0.00278339 -0.02701086 0.01028571
v 0.00330065 -0.02642702 0.01028571
v 0.00341133 -0.02622212 0.01028571
v 0.00341129 -0.02622219 0.01028571
v 0.00356946 -0.02589998 0.01028571
v 0.00346316 -0.02611772 0.01028571
v 0.00566226 -0.02037912 0.01028571
v 0.00444477 -0.01471039 0.01028571
v 0.00449452 -0.01471576 0.01028571
v 0.00496808 -0.01485465 0.01028571
v 0.00531404 -0.01507771 0.01028571
v 0.00554633 -0.01531154 0.01028571
v 0.00558019 -0.01535332 0.01028571
v 0.00579929 -0.01569325 0.01028571
v 0.00602670 -0.01630246 0.01028571
v -0.00667958 -0.03620686 0.00912608
v -0.00689724 -0.03622922 0.00905189
v -0.00693845 -0.03623345 0.00902620
v -0.00697850 -0.03623757 0.00899704
v -0.00701723 -0.03624154 0.00896450
v -0.00705448 -0.03624537 0.00892869
v -0.00709011 -0.03624903 0.00888972
v -0.00712396 -0.03625251 0.00884774
v -0.00718573 -0.03625885 0.00875537
v -0.00721343 -0.03626170 0.00870524
v -0.00726183 -0.03626667 0.00859806
v -0.00728231 -0.03626878 0.00854140
v -0.00730017 -0.03627061 0.00848297
v -0.00732770 -0.03627344 0.00836169
v -0.00734385 -0.03627510 0.00823615
v -0.00734832 -0.03627556 0.00812559
v 0.00335730 -0.03517577 0.00611266
v 0.00333935 -0.03517761 0.00652501
v 0.00332379 -0.03517921 0.00666396
v 0.00327719 -0.03518400 0.00694384
v 0.00324590 -0.03518721 0.00708377
v 0.00320917 -0.03519098 0.00722296
v 0.00316695 -0.03519532 0.00736087
v 0.00311926 -0.03520022 0.00749691
v 0.00300765 -0.03521169 0.00776106
v 0.00287525 -0.03522529 0.00801079
v 0.00280173 -0.03523284 0.00812887
v 0.00272366 -0.03524086 0.00824176
v 0.00264135 -0.03524932 0.00834897
v 0.00255513 -0.03525817 0.00845010
v 0.00246536 -0.03526740 0.00854478
v 0.00237245 -0.03527694 0.00863269
v 0.00217880 -0.03529683 0.00878725
v 0.00207892 -0.03530709 0.00885357
v 0.00187518 -0.03532802 0.00896391
v 0.00177217 -0.03533861 0.00900796
v 0.00166894 -0.03534921 0.00904470
v 0.00156588 -0.03535980 0.00907428
v 0.00146334 -0.03537033 0.00909688
v 0.00136169 -0.03538078 0.00911273
v 0.00335730 -0.03517577 0.00342857
v -0.00663488 -0.03620227 0.00912983
v -0.00672410 -0.03621143 0.00911861
v -0.00676830 -0.03621597 0.00910743
v -0.00681200 -0.03622046 0.00909256
v -0.00685504 -0.03622488 0.00907403
v -0.00715584 -0.03625578 0.00880295
v -0.00723884 -0.03626431 0.00865274
v -0.00731532 -0.03627217 0.00842299
v -0.00733723 -0.03627442 0.00829931
v 0.00131299 -0.03538578 0.00911550
v 0.00334998 -0.03517652 0.00638734
v 0.00330312 -0.03518133 0.00680374
v 0.00306612 -0.03520568 0.00763050
v 0.00294397 -0.03521823 0.00788801
v 0.00227679 -0.03528677 0.00871358
v 0.00197757 -0.03531751 0.00891246
v -0.00734832 -0.03627556 0.00342857
v 0.00335730 -0.03517577 0.00517157
f 81 234 82
f 82 234 243
f 84 234 83
f 234 81 83
f 233 72 251
f 200 127 239
f 72 71 1
f 232 178 96
f 96 97 232
f 102 243 232
f 82 243 102
f 231 230 99
f 99 95 231
f 95 177 231
f 231 177 178
f 231 178 232
f 99 230 229
f 227 249 100
f 227 183 228
f 193 234 84
f 199 198 127
f 127 200 199
f 207 125 208
f 245 74 212
f 103 184 209
f 209 251 103
f 209 184 244
f 74 210 73
f 210 244 73
f 73 244 184
f 2 251 72
f 72 1 2
f 2 103 251
f 1 103 2
f 232 97 101
f 101 102 232
f 228 181 98
f 228 183 180
f 180 181 228
f 182 227 100
f 183 227 182
f 127 198 197
f 197 196 127
f 195 104 127
f 127 196 195
f 194 104 195
f 238 94 104
f 238 104 194
f 126 201 239
f 239 127 126
f 202 201 126
f 240 202 126
f 126 203 240
f 204 203 126
f 205 204 126
f 242 206 126
f 126 207 242
f 211 210 74
f 74 245 211
f 168 1 71
f 212 74 213
f 216 215 78
f 169 226 225
f 118 35 33
f 119 36 67
f 119 67 162
f 179 229 228
f 228 98 179
f 99 229 179
f 85 193 84
f 85 86 193
f 237 175 91
f 93 238 92
f 94 238 93
f 90 236 89
f 237 236 90
f 90 175 237
f 205 126 241
f 241 126 206
f 167 103 1
f 1 168 167
f 214 213 172
f 172 213 74
f 172 215 214
f 172 78 215
f 218 171 219
f 171 220 219
f 218 247 77
f 77 171 218
f 77 247 217
f 216 78 246
f 78 77 246
f 246 77 217
f 249 226 80
f 161 118 33
f 193 86 87
f 235 87 88
f 193 87 235
f 235 88 89
f 89 236 235
f 237 91 176
f 176 238 237
f 92 238 176
f 248 173 225
f 75 169 225
f 225 173 75
f 224 223 170
f 170 248 224
f 173 248 170
f 226 169 79
f 79 80 226
f 100 249 174
f 249 80 174
f 76 223 222
f 76 170 223
f 222 221 76
f 76 221 220
f 76 220 171
f 42 105 128
f 4 105 42
f 45 42 128
f 128 129 45
f 125 3 250
f 250 208 125
f 4 43 124
f 124 105 4
f 124 43 3
f 3 125 124
f 165 70 41
f 166 70 165
f 130 45 129
f 130 44 45
f 5 130 131
f 44 130 5
f 122 123 40
f 40 38 122
f 123 165 40
f 40 165 41
f 46 106 132
f 132 48 46
f 131 106 46
f 46 5 131
f 14 50 109
f 109 50 108
f 51 109 187
f 14 109 51
f 125 207 126
f 168 71 70
f 168 70 166
f 119 68 36
f 163 68 119
f 139 50 13
f 108 50 139
f 13 49 139
f 139 49 107
f 138 49 11
f 107 49 138
f 16 51 140
f 140 51 187
f 67 34 192
f 162 67 192
f 192 34 35
f 35 118 192
f 164 121 39
f 69 164 39
f 122 38 39
f 39 121 122
f 37 120 164
f 37 164 69
f 163 120 37
f 37 68 163
f 111 25 56
f 111 56 151
f 24 25 111
f 111 189 24
f 20 145 146
f 53 145 20
f 15 140 141
f 16 140 15
f 250 233 248
f 248 208 250
f 228 229 248
f 209 244 248
f 248 243 234
f 248 247 218
f 240 203 248
f 248 227 228
f 193 235 248
f 248 207 208
f 232 243 248
f 233 251 248
f 248 200 239
f 194 195 248
f 248 204 205
f 248 251 209
f 248 231 232
f 225 226 248
f 234 193 248
f 198 199 248
f 248 202 240
f 239 201 248
f 248 206 242
f 248 245 212
f 210 211 248
f 248 215 216
f 230 231 248
f 248 229 230
f 248 226 249
f 249 227 248
f 205 241 248
f 248 199 200
f 248 197 198
f 248 238 194
f 248 201 202
f 248 203 204
f 242 207 248
f 222 223 248
f 248 244 210
f 212 213 248
f 248 221 222
f 196 197 248
f 248 195 196
f 237 238 248
f 248 236 237
f 248 211 245
f 248 213 214
f 214 215 248
f 218 219 248
f 217 247 248
f 216 246 248
f 248 241 206
f 248 219 220
f 220 221 248
f 248 246 217
f 248 223 224
f 248 235 236
f 66 64 159
f 160 66 159
f 159 64 32
f 32 158 159
f 117 65 66
f 117 66 160
f 33 65 117
f 117 161 33
f 29 112 155
f 29 155 28
f 154 112 29
f 29 58 154
f 61 31 114
f 191 61 114
f 114 31 30
f 30 156 114
f 113 59 28
f 28 155 113
f 30 59 113
f 113 156 30
f 58 27 153
f 154 58 153
f 153 27 26
f 26 190 153
f 24 189 152
f 152 57 24
f 26 57 152
f 152 190 26
f 11 12 137
f 137 138 11
f 137 12 9
f 9 136 137
f 9 10 135
f 135 136 9
f 62 158 32
f 62 116 158
f 157 116 62
f 62 63 157
f 54 110 188
f 54 188 21
f 19 20 147
f 147 20 146
f 147 54 19
f 110 54 147
f 148 23 21
f 21 188 148
f 22 23 148
f 148 149 22
f 56 55 150
f 151 56 150
f 150 55 22
f 22 149 150
f 52 145 53
f 52 144 145
f 143 52 17
f 144 52 143
f 60 43 4
f 41 70 60
f 60 233 250
f 60 72 233
f 250 3 60
f 4 42 60
f 3 43 60
f 14 51 60
f 60 20 19
f 26 27 60
f 60 62 32
f 7 10 60
f 70 71 60
f 42 45 60
f 56 25 60
f 60 8 7
f 60 71 72
f 19 54 60
f 60 40 41
f 60 31 61
f 45 44 60
f 48 47 60
f 60 12 11
f 60 46 48
f 60 34 67
f 60 65 33
f 67 36 60
f 69 39 60
f 44 5 60
f 60 47 6
f 6 8 60
f 9 12 60
f 60 10 9
f 60 50 14
f 33 35 60
f 60 29 28
f 38 40 60
f 60 18 17
f 60 37 69
f 60 55 56
f 5 46 60
f 13 50 60
f 60 51 16
f 35 34 60
f 11 49 60
f 32 64 60
f 28 59 60
f 36 68 60
f 60 25 24
f 22 55 60
f 60 57 26
f 60 23 22
f 60 49 13
f 66 65 60
f 60 64 66
f 30 31 60
f 60 59 30
f 60 27 58
f 60 39 38
f 68 37 60
f 24 57 60
f 21 23 60
f 53 20 60
f 16 15 60
f 17 52 60
f 58 29 60
f 15 18 60
f 63 62 60
f 60 54 21
f 60 52 53
f 60 61 191
f 191 115 60
f 60 115 157
f 157 63 60
f 142 15 141
f 142 18 15
f 17 18 142
f 142 143 17
f 186 10 7
f 186 135 10
f 7 8 134
f 134 186 7
f 185 8 6
f 185 134 8
f 133 130 129
f 127 104 133
f 82 102 133
f 105 124 133
f 103 167 133
f 128 105 133
f 132 106 133
f 133 124 125
f 133 96 178
f 133 129 128
f 133 81 82
f 84 83 133
f 133 79 169
f 166 165 133
f 89 88 133
f 122 121 133
f 133 95 99
f 133 83 81
f 133 101 97
f 133 182 100
f 74 73 133
f 133 123 122
f 133 106 131
f 133 120 163
f 187 109 133
f 178 177 133
f 133 180 183
f 133 87 86
f 133 126 127
f 136 135 133
f 133 165 123
f 133 119 162
f 131 130 133
f 133 113 155
f 133 177 95
f 97 96 133
f 133 115 191
f 133 140 187
f 99 179 133
f 125 126 133
f 184 103 133
f 133 73 184
f 133 168 166
f 169 75 133
f 158 116 133
f 133 112 154
f 108 139 133
f 133 109 108
f 133 117 160
f 107 138 133
f 102 101 133
f 133 98 181
f 181 180 133
f 183 182 133
f 133 85 84
f 104 94 133
f 133 93 92
f 133 90 89
f 133 172 74
f 171 77 133
f 100 174 133
f 133 76 171
f 162 192 133
f 164 120 133
f 133 121 164
f 163 119 133
f 133 111 151
f 133 139 107
f 146 145 133
f 141 140 133
f 133 179 98
f 86 85 133
f 138 137 133
f 133 91 175
f 94 93 133
f 175 90 133
f 133 167 168
f 78 172 133
f 133 77 78
f 92 176 133
f 160 159 133
f 118 161 133
f 133 192 118
f 155 112 133
f 191 114 133
f 189 111 133
f 154 153 133
f 133 152 189
f 133 148 188
f 151 150 133
f 88 87 133
f 133 176 91
f 133 75 173
f 173 170 133
f 80 79 133
f 133 174 80
f 133 159 158
f 133 116 157
f 161 117 133
f 133 114 156
f 156 113 133
f 133 153 190
f 190 152 133
f 188 110 133
f 133 147 146
f 145 144 133
f 133 137 136
f 135 186 133
f 170 76 133
f 157 115 133
f 110 147 133
f 149 148 133
f 133 150 149
f 144 143 133
f 133 142 141
f 143 142 133
f 186 134 133
f 134 185 133
f 133 47 48
f 133 48 132
f 6 47 133
f 133 185 6

