# https://github.com/mikedh/trimesh
v -0.00626834 -0.07371561 -0.00549384
v -0.00641912 -0.07404865 -0.00541753
v -0.00930000 -0.07200000 -0.00584549
v -0.01130000 -0.07944556 -0.00348497
v -0.00865250 -0.07944474 -0.00348545
v -0.01130000 -0.07935392 -0.00353766
v -0.00848323 -0.07896066 -0.00375005
v -0.01130000 -0.07880183 -0.00383018
v -0.01130000 -0.07870809 -0.00387610
v -0.00839000 -0.07870664 -0.00387680
v -0.01130000 -0.07812086 -0.00414348
v -0.00820874 -0.07823071 -0.00409592
v -0.01130000 -0.07770614 -0.00431417
v -0.00814968 -0.07807969 -0.00416104
v -0.00799949 -0.07770280 -0.00431549
v -0.01130000 -0.07718835 -0.00450992
v -0.00773752 -0.07706457 -0.00455419
v -0.01130000 -0.07614476 -0.00485720
v -0.00734500 -0.07614026 -0.00485859
v -0.01130000 -0.07442993 -0.00532641
v -0.00706388 -0.07549476 -0.00504780
v -0.01130000 -0.07405917 -0.00541507
v -0.01130000 -0.07200000 -0.00584549
v -0.00579668 -0.07268311 -0.00571311
v -0.00930000 -0.07041369 -0.00612060
v -0.00562942 -0.07231984 -0.00578466
v -0.00730000 -0.06032723 -0.00725465
v -0.00930000 -0.06436393 -0.00688969
v -0.00930000 -0.06200000 -0.00711312
v -0.00730526 -0.06200000 -0.00711312
v -0.00473533 -0.07039706 -0.00612328
v -0.00930000 -0.06709479 -0.00658576
v -0.00370111 -0.06820185 -0.00644435
v -0.00185376 -0.06432786 -0.00689334
v -0.00730000 -0.06200000 -0.00711312
v -0.00171291 -0.05920021 -0.00734389
v -0.00166435 -0.05924379 -0.00734052
v -0.00161484 -0.05928116 -0.00733762
v -0.00161236 -0.05928287 -0.00733749
v -0.00156235 -0.05931434 -0.00733505
v -0.00155710 -0.05931734 -0.00733481
v -0.00150722 -0.05934310 -0.00733281
v -0.00149905 -0.05934689 -0.00733252
v -0.00144991 -0.05936720 -0.00733094
v -0.00143865 -0.05937129 -0.00733062
v -0.00139104 -0.05938639 -0.00732944
v -0.00137637 -0.05939036 -0.00732913
v -0.00133073 -0.05940068 -0.00732833
v -0.00131266 -0.05940395 -0.00732808
v -0.00126111 -0.05941080 -0.00732754
v -0.00124802 -0.05941197 -0.00732745
v -0.00119922 -0.05941427 -0.00732727
v -0.00118292 -0.05941434 -0.00732727
v -0.00113742 -0.05941264 -0.00732740
v -0.00111787 -0.05941106 -0.00732752
v -0.00107587 -0.05940590 -0.00732792
v -0.00105334 -0.05940214 -0.00732822
v -0.00101497 -0.05939409 -0.00732884
v -0.00098983 -0.05938766 -0.00732934
v -0.00095518 -0.05937725 -0.00733016
v -0.00092782 -0.05936772 -0.00733090
v -0.00089722 -0.05935563 -0.00733184
v -0.00086777 -0.05934248 -0.00733286
v -0.00084119 -0.05932928 -0.00733389
v -0.00081014 -0.05931212 -0.00733522
v -0.00078742 -0.05929832 -0.00733629
v -0.00075536 -0.05927688 -0.00733795
v -0.00073629 -0.05926295 -0.00733903
v -0.00070384 -0.05923701 -0.00734104
v -0.00068834 -0.05922354 -0.00734208
v 0.00083859 -0.05874455 -0.00737877
v -0.00065598 -0.05919283 -0.00734446
v -0.00064386 -0.05918034 -0.00734542
v -0.00061213 -0.05914466 -0.00734817
v -0.00060301 -0.05913351 -0.00734903
v -0.00057263 -0.05909287 -0.00735216
v 0.00363842 -0.05959509 -0.00438737
v 0.00354555 -0.05981081 -0.00438737
v 0.00353611 -0.05980629 -0.00463775
v 0.00372167 -0.05934697 -0.00438737
v 0.00364791 -0.05957008 -0.00438737
v 0.00363811 -0.05956640 -0.00463775
v 0.00378298 -0.05909253 -0.00438737
v 0.00372892 -0.05932134 -0.00438737
v 0.00371883 -0.05931854 -0.00463775
v 0.00220467 -0.05937717 -0.00691619
v 0.00222886 -0.05933762 -0.00691615
v 0.00240580 -0.05944198 -0.00677261
v 0.00131746 -0.05879206 -0.00733616
v 0.00143740 -0.05887080 -0.00730570
v 0.00140436 -0.05892162 -0.00730570
v 0.00160692 -0.05881784 -0.00727173
v 0.00147782 -0.05884853 -0.00729973
v 0.00135405 -0.05879544 -0.00732966
v 0.00382189 -0.05883373 -0.00438737
v 0.00378795 -0.05906650 -0.00438737
v 0.00377766 -0.05906459 -0.00463775
v 0.00374686 -0.05905886 -0.00488639
v 0.00380859 -0.05885199 -0.00464677
v 0.00380943 -0.05885140 -0.00463775
v 0.00362474 -0.05903613 -0.00537150
v 0.00371513 -0.05888086 -0.00515778
v 0.00369576 -0.05904935 -0.00513154
v 0.00377291 -0.05886775 -0.00490423
v 0.00377612 -0.05886673 -0.00488639
v 0.00353426 -0.05901929 -0.00560459
v 0.00363568 -0.05889124 -0.00540554
v 0.00364800 -0.05888996 -0.00537151
v 0.00342498 -0.05899895 -0.00582920
v 0.00348084 -0.05890136 -0.00575529
v 0.00353516 -0.05889880 -0.00564562
v 0.00327408 -0.05890527 -0.00609562
v 0.00341432 -0.05890349 -0.00587623
v 0.00344104 -0.05890275 -0.00582921
v 0.00329765 -0.05897526 -0.00604373
v 0.00315317 -0.05894837 -0.00624672
v 0.00316084 -0.05890474 -0.00624674
v 0.00288780 -0.05889844 -0.00654507
v 0.00293974 -0.05890008 -0.00649423
v 0.00299253 -0.05891847 -0.00643672
v 0.00299556 -0.05890164 -0.00643676
v 0.00311548 -0.05890413 -0.00630214
v 0.00262005 -0.05888733 -0.00677267
v 0.00274817 -0.05889316 -0.00667045
v 0.00259158 -0.05900508 -0.00677261
v 0.00277726 -0.05905671 -0.00661243
v 0.00239367 -0.05895004 -0.00691615
v 0.00218490 -0.05889199 -0.00704204
v 0.00220281 -0.05886316 -0.00703680
v 0.00232341 -0.05887088 -0.00697010
v 0.00241220 -0.05887620 -0.00691623
v 0.00254221 -0.05888340 -0.00682947
v 0.00118004 -0.05880952 -0.00735354
v 0.00119341 -0.05878032 -0.00735470
v 0.00123553 -0.05878435 -0.00734900
v 0.00115610 -0.05877671 -0.00735924
v 0.00115331 -0.05883816 -0.00735354
v 0.00109729 -0.05877095 -0.00736544
v 0.00112419 -0.05886436 -0.00735354
v 0.00105897 -0.05876715 -0.00736884
v 0.00107305 -0.05885763 -0.00735880
v 0.00102759 -0.05876400 -0.00737125
v 0.00106867 -0.05885553 -0.00735938
v 0.00099654 -0.05876087 -0.00737331
v 0.00085853 -0.05874664 -0.00737854
v 0.00086362 -0.05875671 -0.00737772
v 0.00088278 -0.05874918 -0.00737809
v 0.00089403 -0.05877145 -0.00737609
v 0.00090900 -0.05875190 -0.00737737
v 0.00092673 -0.05878726 -0.00737392
v 0.00093690 -0.05875478 -0.00737636
v 0.00096125 -0.05880392 -0.00737115
v 0.00096619 -0.05875779 -0.00737501
v 0.00099705 -0.05882117 -0.00736776
v 0.00103361 -0.05883873 -0.00736375
v 0.00136701 -0.05896937 -0.00730570
v 0.00129707 -0.05896406 -0.00731832
v 0.00127098 -0.05895175 -0.00732413
v 0.00117053 -0.05890414 -0.00734378
v 0.00110713 -0.05887393 -0.00735400
v 0.00160060 -0.05906176 -0.00723750
v 0.00157149 -0.05909219 -0.00723916
v 0.00152212 -0.05906932 -0.00725588
v 0.00177705 -0.05918644 -0.00715719
v 0.00174220 -0.05917057 -0.00717253
v 0.00157577 -0.05909416 -0.00723766
v 0.00164511 -0.05899331 -0.00723750
v 0.00184718 -0.05911250 -0.00714940
v 0.00179404 -0.05919416 -0.00714950
v 0.00204222 -0.05922753 -0.00704204
v 0.00195568 -0.05926705 -0.00706887
v 0.00217992 -0.05936635 -0.00693304
v 0.00216102 -0.05935807 -0.00694565
v 0.00206151 -0.05931419 -0.00700842
v 0.00254133 -0.05952110 -0.00664428
v 0.00240837 -0.05946503 -0.00676186
v 0.00235671 -0.05944296 -0.00680378
v 0.00272294 -0.05959572 -0.00645785
v 0.00281550 -0.05946204 -0.00643672
v 0.00287208 -0.05965491 -0.00627720
v 0.00296294 -0.05953247 -0.00624672
v 0.00289503 -0.05966382 -0.00624673
v 0.00309555 -0.05959583 -0.00604373
v 0.00314571 -0.05975634 -0.00585118
v 0.00314361 -0.05975561 -0.00585510
v 0.00321242 -0.05965166 -0.00582920
v 0.00307276 -0.05973048 -0.00598029
v 0.00301578 -0.05970961 -0.00607229
v 0.00315735 -0.05976037 -0.00582920
v 0.00331272 -0.05969958 -0.00560459
v 0.00325463 -0.05979259 -0.00562720
v 0.00327280 -0.05979827 -0.00558508
v 0.00339575 -0.05973924 -0.00537150
v 0.00334803 -0.05982026 -0.00539026
v 0.00335453 -0.05982202 -0.00537150
v 0.00346094 -0.05977039 -0.00513154
v 0.00342313 -0.05983844 -0.00514601
v 0.00347939 -0.05984699 -0.00489622
v 0.00350784 -0.05979279 -0.00488639
v 0.00348119 -0.05984713 -0.00488639
v 0.00351638 -0.05984584 -0.00464272
v 0.00353385 -0.05983501 -0.00438737
v 0.00368865 -0.05931015 -0.00488639
v 0.00363858 -0.05929622 -0.00513154
v 0.00356897 -0.05927687 -0.00537150
v 0.00348031 -0.05925221 -0.00560459
v 0.00337322 -0.05922243 -0.00582920
v 0.00324844 -0.05918774 -0.00604373
v 0.00310684 -0.05914836 -0.00624672
v 0.00294942 -0.05910458 -0.00643672
v 0.00281491 -0.05889583 -0.00661247
v 0.00360878 -0.05955542 -0.00488639
v 0.00356011 -0.05953718 -0.00513154
v 0.00349245 -0.05951184 -0.00537150
v 0.00340628 -0.05947955 -0.00560459
v 0.00330218 -0.05944055 -0.00582920
v 0.00318090 -0.05939512 -0.00604373
v 0.00304327 -0.05934356 -0.00624672
v 0.00289026 -0.05928623 -0.00643672
v 0.00272293 -0.05922355 -0.00661243
v 0.00254245 -0.05915593 -0.00677261
v 0.00235009 -0.05908387 -0.00691615
v 0.00214717 -0.05900785 -0.00704204
v 0.00265427 -0.05938502 -0.00661243
v 0.00248037 -0.05930194 -0.00677261
v 0.00229501 -0.05921339 -0.00691615
v 0.00209949 -0.05911998 -0.00704204
v 0.00193513 -0.05892841 -0.00714940
v 0.00189517 -0.05902237 -0.00714940
v 0.00168348 -0.05892124 -0.00723750
v 0.00173239 -0.05887657 -0.00722854
v 0.00196204 -0.05884621 -0.00714959
v 0.00204859 -0.05885252 -0.00711202
v 0.00209343 -0.05885570 -0.00709126
v 0.00185400 -0.05883798 -0.00719206
v 0.00271354 -0.05959192 -0.00646833
v 0.00257466 -0.05953497 -0.00661245
v 0.00132345 -0.05897648 -0.00731215
v -0.00935879 -0.06709458 -0.00658405
v -0.00947300 -0.06200000 -0.00709798
v -0.00942215 -0.06200000 -0.00710560
v -0.00942214 -0.06709388 -0.00657833
v -0.00938682 -0.06200000 -0.00710933
v -0.00935879 -0.06200000 -0.00711138
v -0.00966702 -0.06200000 -0.00704306
v -0.00964085 -0.06200000 -0.00705300
v -0.00955789 -0.06200000 -0.00707916
v -0.00954683 -0.06200000 -0.00708205
v -0.01135879 -0.07718778 -0.00450835
v -0.01135879 -0.07812017 -0.00414189
v -0.01229981 -0.07419699 -0.00437374
v -0.01230000 -0.07485361 -0.00418635
v -0.01230000 -0.07200000 -0.00482781
v -0.01135879 -0.07200000 -0.00584373
v -0.01135879 -0.07442952 -0.00532473
v -0.01142215 -0.07442815 -0.00531914
v -0.01160761 -0.07441841 -0.00527932
v -0.01155471 -0.07200000 -0.00581193
v -0.01154683 -0.07442258 -0.00529636
v -0.01148494 -0.07200000 -0.00582794
v -0.01148493 -0.07442583 -0.00530966
v -0.01147080 -0.07200000 -0.00583054
v -0.01138570 -0.07200000 -0.00584175
v -0.01178089 -0.07440066 -0.00520672
v -0.01171666 -0.07200000 -0.00575297
v -0.01172485 -0.07440743 -0.00523439
v -0.01166703 -0.07200000 -0.00577449
v -0.01166702 -0.07441335 -0.00525862
v -0.01163686 -0.07200000 -0.00578603
v -0.01160762 -0.07200000 -0.00579616
v -0.01198299 -0.07436590 -0.00506455
v -0.01193623 -0.07200000 -0.00561301
v -0.01193614 -0.07437567 -0.00510452
v -0.01188674 -0.07200000 -0.00565196
v -0.01188672 -0.07438475 -0.00514165
v -0.01186691 -0.07200000 -0.00566620
v -0.01183491 -0.07439309 -0.00517576
v -0.01179354 -0.07200000 -0.00571295
v -0.01178089 -0.07200000 -0.00572013
v -0.01210645 -0.07433286 -0.00492942
v -0.01206049 -0.07200000 -0.00548871
v -0.01206826 -0.07434446 -0.00497685
v -0.01202705 -0.07200000 -0.00552660
v -0.01202704 -0.07435549 -0.00502198
v -0.01200093 -0.07200000 -0.00555371
v -0.01198300 -0.07200000 -0.00557120
v -0.01222647 -0.07428181 -0.00472063
v -0.01220343 -0.07200000 -0.00526419
v -0.01220158 -0.07429517 -0.00477527
v -0.01217321 -0.07200000 -0.00532384
v -0.01217321 -0.07430816 -0.00482842
v -0.01216219 -0.07200000 -0.00534342
v -0.01214147 -0.07432075 -0.00487987
v -0.01211440 -0.07200000 -0.00541844
v -0.01210645 -0.07200000 -0.00542964
v -0.01227966 -0.07424007 -0.00454994
v -0.01226477 -0.07200000 -0.00509561
v -0.01226557 -0.07425421 -0.00460774
v -0.01224782 -0.07200000 -0.00515232
v -0.01224782 -0.07426814 -0.00466471
v -0.01223773 -0.07200000 -0.00518137
v -0.01222647 -0.07200000 -0.00521090
v -0.01229981 -0.07200000 -0.00484743
v -0.01229606 -0.07200000 -0.00491809
v -0.01229680 -0.07421141 -0.00443272
v -0.01229008 -0.07200000 -0.00497085
v -0.01229008 -0.07422579 -0.00449152
v -0.01228428 -0.07200000 -0.00500761
v -0.01227966 -0.07200000 -0.00503206
v -0.01226557 -0.07782959 -0.00346338
v -0.01224782 -0.07785268 -0.00351730
v -0.01222647 -0.07787534 -0.00357021
v -0.01220158 -0.07789748 -0.00362192
v -0.01217321 -0.07791903 -0.00367222
v -0.01214147 -0.07793988 -0.00372091
v -0.01210645 -0.07862046 -0.00346393
v -0.01210645 -0.07795995 -0.00376779
v -0.01206826 -0.07864213 -0.00350769
v -0.01206826 -0.07797918 -0.00381268
v -0.01202704 -0.07866275 -0.00354933
v -0.01202704 -0.07799747 -0.00385538
v -0.01198299 -0.07868219 -0.00358860
v -0.01198299 -0.07801472 -0.00389567
v -0.01193614 -0.07870045 -0.00362548
v -0.01193614 -0.07803092 -0.00393350
v -0.01188672 -0.07871741 -0.00365972
v -0.01188672 -0.07804597 -0.00396863
v -0.01183491 -0.07873300 -0.00369120
v -0.01183491 -0.07805980 -0.00400091
v -0.01178089 -0.07874715 -0.00371976
v -0.01178089 -0.07807235 -0.00403021
v -0.01172485 -0.07875978 -0.00374528
v -0.01172485 -0.07808356 -0.00405639
v -0.01166702 -0.07877085 -0.00376764
v -0.01166702 -0.07809338 -0.00407933
v -0.01160761 -0.07878031 -0.00378673
v -0.01160761 -0.07810177 -0.00409891
v -0.01154683 -0.07878809 -0.00380245
v -0.01154683 -0.07810868 -0.00411503
v -0.01148493 -0.07879417 -0.00381472
v -0.01148493 -0.07811406 -0.00412762
v -0.01142215 -0.07879850 -0.00382347
v -0.01142215 -0.07811791 -0.00413659
v -0.01135879 -0.07880106 -0.00382863
v -0.01230000 -0.07658337 -0.00366317
v -0.01229981 -0.07567412 -0.00397501
v -0.01229680 -0.07569149 -0.00403318
v -0.01229008 -0.07570882 -0.00409118
v -0.01227966 -0.07572603 -0.00414880
v -0.01226557 -0.07574306 -0.00420582
v -0.01224782 -0.07575984 -0.00426201
v -0.01222647 -0.07577632 -0.00431717
v -0.01220158 -0.07579242 -0.00437107
v -0.01217321 -0.07580808 -0.00442349
v -0.01214147 -0.07582324 -0.00447425
v -0.01210645 -0.07583784 -0.00452311
v -0.01206826 -0.07585181 -0.00456990
v -0.01202704 -0.07586510 -0.00461442
v -0.01198299 -0.07587765 -0.00465641
v -0.01193614 -0.07588942 -0.00469584
v -0.01188672 -0.07590036 -0.00473246
v -0.01183491 -0.07591041 -0.00476611
v -0.01178089 -0.07591954 -0.00479665
v -0.01172485 -0.07592769 -0.00482394
v -0.01166702 -0.07593483 -0.00484784
v -0.01160761 -0.07594092 -0.00486825
v -0.01154683 -0.07594594 -0.00488506
v -0.01148493 -0.07594986 -0.00489818
v -0.01142215 -0.07595266 -0.00490754
v -0.01135879 -0.07595430 -0.00491305
v -0.01135879 -0.07935305 -0.00353613
v -0.01142215 -0.07935021 -0.00353112
v -0.01148493 -0.07934539 -0.00352264
v -0.01154683 -0.07933863 -0.00351073
v -0.01160761 -0.07932996 -0.00349547
v -0.01166702 -0.07931944 -0.00347695
v -0.01172485 -0.07930712 -0.00345526
v -0.01178089 -0.07929306 -0.00343049
v -0.01229981 -0.07685508 -0.00358760
v -0.01229680 -0.07687572 -0.00364470
v -0.01229008 -0.07689629 -0.00370163
v -0.01227966 -0.07691672 -0.00375819
v -0.01226557 -0.07693695 -0.00381416
v -0.01224782 -0.07695688 -0.00386931
v -0.01222647 -0.07697644 -0.00392345
v -0.01220158 -0.07699555 -0.00397636
v -0.01217321 -0.07701415 -0.00402782
v -0.01214147 -0.07703215 -0.00407763
v -0.01210645 -0.07704948 -0.00412560
v -0.01206826 -0.07706607 -0.00417152
v -0.01202704 -0.07708187 -0.00421522
v -0.01198299 -0.07709676 -0.00425644
v -0.01193614 -0.07711074 -0.00429514
v -0.01188672 -0.07712373 -0.00433108
v -0.01183491 -0.07713567 -0.00436411
v -0.01178089 -0.07714649 -0.00439409
v -0.01172485 -0.07715617 -0.00442087
v -0.01166702 -0.07716465 -0.00444434
v -0.01160761 -0.07717189 -0.00446437
v -0.01154683 -0.07717785 -0.00448087
v -0.01148493 -0.07718251 -0.00449375
v -0.01142215 -0.07718582 -0.00450293
v -0.00163653 -0.06417851 -0.00690550
v -0.00796575 -0.07859983 -0.00390378
v -0.00781136 -0.07821076 -0.00408034
v -0.00769656 -0.07825111 -0.00404321
v -0.00657820 -0.07774095 -0.00394241
v -0.00689787 -0.07846802 -0.00363487
v -0.00700893 -0.07844520 -0.00370892
v -0.00669023 -0.07771385 -0.00401731
v -0.00637068 -0.07699689 -0.00428139
v -0.00625788 -0.07702734 -0.00420598
v -0.00625618 -0.07780404 -0.00368701
v -0.00593398 -0.07710113 -0.00394777
v -0.00583212 -0.07711950 -0.00385179
v -0.00151651 -0.06423572 -0.00689090
v -0.00042084 -0.06472815 -0.00645915
v -0.00053865 -0.06467812 -0.00653479
v -0.00030561 -0.06477624 -0.00637678
v -0.00019344 -0.06482219 -0.00628787
v -0.00008479 -0.06486579 -0.00619268
v 0.00001987 -0.06490684 -0.00609151
v -0.00090268 -0.06451869 -0.00672008
v -0.00102593 -0.06446321 -0.00676785
v -0.00139507 -0.06429300 -0.00687004
v -0.00127256 -0.06435014 -0.00684269
v -0.00114938 -0.06440695 -0.00680868
v -0.00078006 -0.06457315 -0.00666531
v -0.00065855 -0.06462637 -0.00660354
v -0.00603914 -0.07707959 -0.00403897
v -0.00636080 -0.07778616 -0.00377706
v -0.00668212 -0.07850431 -0.00347204
v -0.00678881 -0.07848777 -0.00355585
v -0.00614724 -0.07705495 -0.00412511
v -0.00646827 -0.07776509 -0.00386227
v -0.00680394 -0.07768394 -0.00408682
v -0.00712162 -0.07841940 -0.00377786
v -0.00723557 -0.07839077 -0.00384157
v -0.00749333 -0.07916605 -0.00343577
v -0.00443810 -0.07282297 -0.00537504
v -0.00520161 -0.07415873 -0.00514560
v -0.00455563 -0.07277900 -0.00544479
v -0.00531984 -0.07411524 -0.00520921
v -0.00467464 -0.07273306 -0.00550808
v -0.00543909 -0.07406983 -0.00526649
v -0.00479469 -0.07268535 -0.00556485
v -0.00555892 -0.07402271 -0.00531741
v -0.00491534 -0.07263610 -0.00561512
v -0.00567892 -0.07397408 -0.00536202
v -0.00503617 -0.07258551 -0.00565890
v -0.00579869 -0.07392415 -0.00540037
v -0.00515676 -0.07253379 -0.00569629
v -0.00591787 -0.07387315 -0.00543257
v -0.00527673 -0.07248116 -0.00572739
v -0.00603608 -0.07382125 -0.00545877
v -0.00539572 -0.07242783 -0.00575236
v -0.00551338 -0.07237399 -0.00577138
v -0.00615301 -0.07376868 -0.00547913
v -0.00596223 -0.07551038 -0.00485345
v -0.00608044 -0.07546803 -0.00491125
v -0.00619922 -0.07542378 -0.00496292
v -0.00631816 -0.07537780 -0.00500847
v -0.00643690 -0.07533031 -0.00504798
v -0.00655505 -0.07528152 -0.00508152
v -0.00667227 -0.07523161 -0.00510922
v -0.00754974 -0.07915404 -0.00346665
v -0.00760636 -0.07914130 -0.00349628
v -0.00735040 -0.07835946 -0.00389999
v -0.00766315 -0.07912785 -0.00352468
v -0.00777705 -0.07909892 -0.00357775
v -0.00789111 -0.07906739 -0.00362583
v -0.00800499 -0.07903345 -0.00366892
v -0.00815625 -0.07943940 -0.00344529
v -0.00811839 -0.07899725 -0.00370708
v -0.00660111 -0.07692808 -0.00441525
v -0.00703489 -0.07761627 -0.00420925
v -0.00671793 -0.07689005 -0.00447352
v -0.00715135 -0.07757885 -0.00426207
v -0.00683531 -0.07684986 -0.00452598
v -0.00726798 -0.07753927 -0.00430927
v -0.00695284 -0.07680767 -0.00457262
v -0.00738441 -0.07749774 -0.00435090
v -0.00707018 -0.07676370 -0.00461349
v -0.00750030 -0.07745443 -0.00438702
v -0.00718696 -0.07671814 -0.00464866
v -0.00746574 -0.07832564 -0.00395307
v -0.00758124 -0.07828946 -0.00400080
v -0.00691896 -0.07765136 -0.00415082
v -0.00648522 -0.07696375 -0.00435118
v -0.00584500 -0.07555062 -0.00478954
v -0.00508483 -0.07420010 -0.00507570
v -0.00432251 -0.07286476 -0.00529895
v -0.00803820 -0.07812487 -0.00413914
v -0.00819134 -0.07851732 -0.00396404
v -0.00823100 -0.07895898 -0.00374036
v -0.00834256 -0.07891881 -0.00376885
v -0.00807909 -0.07855945 -0.00393638
v -0.00792534 -0.07816862 -0.00411228
v -0.00761534 -0.07740954 -0.00441772
v -0.00772922 -0.07736325 -0.00444312
v -0.00730286 -0.07667117 -0.00467825
v -0.00741756 -0.07662300 -0.00470237
v -0.00678824 -0.07518081 -0.00513124
v -0.00849128 -0.07933258 -0.00354717
v -0.00838054 -0.07937030 -0.00351783
v -0.00826877 -0.07940597 -0.00348389
v -0.00422490 -0.06961469 -0.00624183
v -0.00410615 -0.06967020 -0.00622482
v -0.00398603 -0.06972546 -0.00620171
v -0.00386489 -0.06978028 -0.00617229
v -0.00374311 -0.06983446 -0.00613640
v -0.00362108 -0.06988776 -0.00609392
v -0.00349923 -0.06993999 -0.00604473
v -0.00337800 -0.06999090 -0.00598880
v -0.00325784 -0.07004028 -0.00592613
v -0.00313922 -0.07008791 -0.00585675
v -0.00302261 -0.07013357 -0.00578077
v -0.00420931 -0.07290418 -0.00521665
v -0.00290847 -0.07017706 -0.00569834
v -0.00409894 -0.07294106 -0.00512834
v -0.00279727 -0.07021818 -0.00560964
v -0.00399183 -0.07297523 -0.00503427
v -0.00268946 -0.07025675 -0.00551494
v -0.00388841 -0.07300653 -0.00493472
v -0.00258546 -0.07029261 -0.00541453
v -0.00378905 -0.07303487 -0.00483003
v -0.00248568 -0.07032560 -0.00530875
v -0.00369413 -0.07306010 -0.00472057
v -0.00239050 -0.07035560 -0.00519799
v -0.00360397 -0.07308217 -0.00460674
v -0.00230026 -0.07038251 -0.00508266
v -0.00351888 -0.07310100 -0.00448897
v -0.00221526 -0.07040624 -0.00496322
v -0.00343911 -0.07311656 -0.00436773
v -0.00213576 -0.07042673 -0.00484015
v -0.00336487 -0.07312883 -0.00424348
v -0.00206199 -0.07044397 -0.00471394
v -0.00329634 -0.07313782 -0.00411672
v -0.00199411 -0.07045792 -0.00458510
v -0.00323364 -0.07314357 -0.00398793
v -0.00193225 -0.07046863 -0.00445415
v -0.00317686 -0.07314613 -0.00385761
v -0.00187648 -0.07047611 -0.00432160
v -0.00312605 -0.07314558 -0.00372626
v -0.00182685 -0.07048044 -0.00418797
v -0.00308119 -0.07314201 -0.00359433
v -0.00178334 -0.07048168 -0.00405376
v -0.00304225 -0.07313552 -0.00346231
v -0.00174590 -0.07047994 -0.00391943
v -0.00171443 -0.07047534 -0.00378547
v -0.00168882 -0.07046799 -0.00365229
v -0.00166890 -0.07045804 -0.00352032
v -0.00062411 -0.06834180 -0.00357159
v -0.00459272 -0.07581513 -0.00348760
v -0.00572918 -0.07558855 -0.00471958
v -0.00561518 -0.07562401 -0.00464367
v -0.00550344 -0.07565682 -0.00456198
v -0.00539436 -0.07568683 -0.00447469
v -0.00528836 -0.07571390 -0.00438203
v -0.00518583 -0.07573792 -0.00428429
v -0.00573393 -0.07713460 -0.00375131
v -0.00508714 -0.07575879 -0.00418176
v -0.00563974 -0.07714639 -0.00364668
v -0.00499263 -0.07577644 -0.00407481
v -0.00554985 -0.07715483 -0.00353824
v -0.00490262 -0.07579079 -0.00396381
v -0.00481740 -0.07580184 -0.00384915
v -0.00473720 -0.07580957 -0.00373127
v -0.00466225 -0.07581399 -0.00361060
v 0.00092247 -0.06515586 -0.00416733
v 0.00090473 -0.06516059 -0.00430157
v 0.00088118 -0.06516261 -0.00443706
v 0.00054323 -0.06509176 -0.00538165
v 0.00061034 -0.06511148 -0.00525069
v 0.00067121 -0.06512794 -0.00511751
v 0.00072578 -0.06514114 -0.00498266
v 0.00077402 -0.06515114 -0.00484668
v 0.00081595 -0.06515799 -0.00471008
v 0.00085163 -0.06516178 -0.00457338
v 0.00047000 -0.06506877 -0.00550987
v 0.00012014 -0.06494518 -0.00598472
v 0.00021562 -0.06498067 -0.00587270
v 0.00030595 -0.06501316 -0.00575590
v 0.00039084 -0.06504256 -0.00563479
v -0.00868447 -0.07954074 -0.00342857
v -0.00930404 -0.07954075 -0.00342857
v -0.01224782 -0.07804555 -0.00342857
v -0.01220158 -0.07831778 -0.00342857
v -0.01217321 -0.07844866 -0.00342857
v -0.01214147 -0.07857534 -0.00342857
v -0.01135879 -0.07953101 -0.00342857
v -0.01139737 -0.07952424 -0.00342857
v -0.01142215 -0.07951989 -0.00342857
v -0.01154683 -0.07947456 -0.00342857
v -0.01159142 -0.07944969 -0.00342857
v -0.01160761 -0.07944065 -0.00342857
v -0.01166702 -0.07939949 -0.00342857
v -0.01206826 -0.07879146 -0.00342857
v -0.01198299 -0.07898422 -0.00342857
v -0.01193614 -0.07907206 -0.00342857
v -0.01188672 -0.07915365 -0.00342857
v -0.01183491 -0.07922864 -0.00342857
v -0.01178463 -0.07929197 -0.00342857
v -0.01229680 -0.07742573 -0.00342857
v -0.01227966 -0.07775554 -0.00342857
v -0.01227454 -0.07781468 -0.00342857
v -0.01229989 -0.07723629 -0.00342857
v -0.01230000 -0.07719209 -0.00342857
v 0.00382189 -0.05883373 -0.00342857
v 0.00378795 -0.05906650 -0.00342857
v 0.00378298 -0.05909253 -0.00342857
v 0.00364791 -0.05957008 -0.00342857
v 0.00363842 -0.05959509 -0.00342857
v -0.00741618 -0.07912691 -0.00342857
v -0.00750124 -0.07918034 -0.00342857
v -0.00757616 -0.07922116 -0.00342857
v -0.00759120 -0.07922916 -0.00342857
v -0.00765316 -0.07926104 -0.00342857
v -0.00781338 -0.07933665 -0.00342857
v -0.00787905 -0.07936545 -0.00342857
v -0.00802518 -0.07942253 -0.00342857
v -0.00811263 -0.07945137 -0.00342857
v -0.00303377 -0.07313315 -0.00342857
v -0.00273033 -0.07255537 -0.00342857
v -0.00232792 -0.07177606 -0.00342857
v -0.00193187 -0.07099615 -0.00342857
v -0.00106201 -0.06923769 -0.00342857
v -0.00184695 -0.07082478 -0.00342857
v -0.00546621 -0.07715981 -0.00342857
v -0.00546116 -0.07715284 -0.00342857
v -0.00510148 -0.07663409 -0.00342857
v -0.00520361 -0.07678450 -0.00342857
v -0.00712765 -0.07892326 -0.00342857
v -0.00663099 -0.07851084 -0.00342857
v -0.00640047 -0.07827612 -0.00342857
v -0.00610811 -0.07794527 -0.00342857
v -0.00589467 -0.07769488 -0.00342857
v -0.00567911 -0.07743112 -0.00342857
v -0.00473662 -0.07608551 -0.00342857
v -0.00855785 -0.07953017 -0.00342857
v -0.00843081 -0.07951747 -0.00342857
v -0.00830008 -0.07949628 -0.00342857
v -0.00816577 -0.07946644 -0.00342857
v -0.00767946 -0.07927425 -0.00342857
v -0.00456247 -0.07581416 -0.00342857
v -0.00439233 -0.07553192 -0.00342857
v -0.00311357 -0.07328174 -0.00342857
v -0.01230000 -0.07200000 -0.00342857
v 0.00616674 -0.03670436 -0.00342857
v -0.01130000 -0.07953763 -0.00342857
v -0.01131534 -0.07953682 -0.00342857
v -0.01226557 -0.07790527 -0.00342857
v -0.01222647 -0.07818324 -0.00342857
v -0.01148493 -0.07950102 -0.00342857
v -0.01171852 -0.07935656 -0.00342857
v -0.01172485 -0.07935128 -0.00342857
v -0.01178089 -0.07929624 -0.00342857
v -0.01213354 -0.07860294 -0.00342857
v -0.01210645 -0.07868720 -0.00342857
v -0.01202704 -0.07889065 -0.00342857
v -0.01229981 -0.07725980 -0.00342857
v -0.01229008 -0.07759119 -0.00342857
v 0.00372892 -0.05932134 -0.00342857
v 0.00372167 -0.05934697 -0.00342857
v 0.00354555 -0.05981081 -0.00342857
v 0.00353385 -0.05983501 -0.00342857
v -0.00673182 -0.07860163 -0.00342857
v -0.00689872 -0.07874285 -0.00342857
v -0.00693241 -0.07877054 -0.00342857
v -0.00748072 -0.07916859 -0.00342857
v -0.00749835 -0.07917872 -0.00342857
v -0.00724705 -0.07901064 -0.00342857
v -0.00731730 -0.07906019 -0.00342857
v -0.00707448 -0.07888263 -0.00342857
v -0.00672001 -0.07859126 -0.00342857
v -0.00653051 -0.07841195 -0.00342857
v -0.00494462 -0.07640209 -0.00342857
v -0.00772932 -0.07929837 -0.00342857
v -0.00407026 -0.07498453 -0.00342857
v -0.00374913 -0.07442586 -0.00342857
v -0.00342991 -0.07385766 -0.00342857
v 0.00313284 -0.06065544 -0.00342857
v -0.00071884 -0.06853560 -0.00342857
v 0.00391046 -0.05799779 -0.00342857
v 0.00394208 -0.05769944 -0.00342857
v 0.00189003 -0.03600267 -0.00913029
v 0.00339335 -0.03600267 -0.00912213
v 0.00352888 -0.03600267 -0.00911288
v 0.00371024 -0.03600267 -0.00909024
v 0.00380453 -0.03600267 -0.00907489
v 0.00398774 -0.03600267 -0.00903434
v 0.00412687 -0.03600267 -0.00899582
v 0.00426557 -0.03600267 -0.00895007
v 0.00436044 -0.03600267 -0.00891508
v 0.00440330 -0.03600267 -0.00889701
v 0.00449736 -0.03600267 -0.00885692
v 0.00463235 -0.03600267 -0.00879141
v 0.00480504 -0.03600267 -0.00869392
v 0.00489422 -0.03600267 -0.00863872
v 0.00493324 -0.03600267 -0.00861188
v 0.00517771 -0.03600267 -0.00842740
v 0.00525836 -0.03600267 -0.00835827
v 0.00540283 -0.03600267 -0.00821776
v 0.00547599 -0.03600267 -0.00814056
v 0.00557592 -0.03600267 -0.00802370
v 0.00560493 -0.03600267 -0.00798609
v 0.00566943 -0.03600267 -0.00790214
v 0.00575622 -0.03600267 -0.00777640
v 0.00585872 -0.03600267 -0.00760579
v 0.00590871 -0.03600267 -0.00751459
v 0.00592917 -0.03600267 -0.00747245
v 0.00599231 -0.03600267 -0.00733678
v 0.00603213 -0.03600267 -0.00724280
v 0.00604809 -0.03600267 -0.00719934
v 0.00609652 -0.03600267 -0.00706071
v 0.00612617 -0.03600267 -0.00696557
v 0.00613764 -0.03600267 -0.00692143
v 0.00617157 -0.03600267 -0.00678204
v 0.00619137 -0.03600267 -0.00668726
v 0.00619847 -0.03600267 -0.00664304
v 0.00621853 -0.03600267 -0.00650492
v 0.00622904 -0.03600267 -0.00641186
v 0.00623198 -0.03600267 -0.00636811
v 0.00623813 -0.03600267 -0.00627635
v -0.00735870 -0.03600267 -0.00912858
v -0.00746311 -0.03600267 -0.00911639
v -0.00754683 -0.03600267 -0.00909922
v -0.00758646 -0.03600267 -0.00908773
v -0.00764633 -0.03600267 -0.00906765
v -0.00770469 -0.03600267 -0.00904386
v -0.00788672 -0.03600267 -0.00893920
v -0.00793614 -0.03600267 -0.00890080
v -0.00798299 -0.03600267 -0.00885946
v -0.00796656 -0.03600267 -0.00887396
v -0.00802704 -0.03600267 -0.00881542
v -0.00806826 -0.03600267 -0.00876874
v -0.00805375 -0.03600267 -0.00878517
v -0.00810645 -0.03600267 -0.00871968
v -0.00809298 -0.03600267 -0.00873698
v -0.00814147 -0.03600267 -0.00866844
v -0.00817321 -0.03600267 -0.00861522
v -0.00820158 -0.03600267 -0.00856025
v -0.00819152 -0.03600267 -0.00857974
v -0.00822647 -0.03600267 -0.00850373
v -0.00821763 -0.03600267 -0.00852381
v -0.00824782 -0.03600267 -0.00844589
v -0.00826557 -0.03600267 -0.00838697
v -0.00827966 -0.03600267 -0.00832718
v -0.00827462 -0.03600267 -0.00834856
v -0.00829008 -0.03600267 -0.00826676
v -0.00829680 -0.03600267 -0.00820594
v -0.00829438 -0.03600267 -0.00822778
v -0.00830000 -0.03600267 -0.00812559
v -0.00829885 -0.03600267 -0.00815452
v 0.00624109 -0.03600267 -0.00613668
v -0.00830000 -0.03600267 -0.00342857
v 0.00624109 -0.03600267 -0.00373770
v -0.00127189 -0.03600267 -0.00912971
v 0.00343683 -0.03600267 -0.00911930
v 0.00357283 -0.03600267 -0.00910800
v 0.00366611 -0.03600267 -0.00909722
v 0.00384870 -0.03600267 -0.00906576
v 0.00394366 -0.03600267 -0.00904568
v 0.00408304 -0.03600267 -0.00900940
v 0.00422214 -0.03600267 -0.00896589
v 0.00453950 -0.03600267 -0.00883660
v 0.00467360 -0.03600267 -0.00876887
v 0.00476482 -0.03600267 -0.00871864
v 0.00501996 -0.03600267 -0.00855184
v 0.00505764 -0.03600267 -0.00852295
v 0.00514152 -0.03600267 -0.00845826
v 0.00529294 -0.03600267 -0.00832555
v 0.00537001 -0.03600267 -0.00825224
v 0.00550696 -0.03600267 -0.00810445
v 0.00569640 -0.03600267 -0.00786317
v 0.00578107 -0.03600267 -0.00773622
v 0.00583604 -0.03600267 -0.00764703
v 0.00597409 -0.03600267 -0.00737966
v 0.00608281 -0.03600267 -0.00710458
v 0.00616231 -0.03600267 -0.00682629
v 0.00621354 -0.03600267 -0.00654897
v 0.00623909 -0.03600267 -0.00623303
v -0.00740011 -0.03600267 -0.00912480
v -0.00742214 -0.03600267 -0.00912279
v -0.00752530 -0.03600267 -0.00910401
v -0.00748493 -0.03600267 -0.00911298
v -0.00760761 -0.03600267 -0.00908159
v -0.00766702 -0.03600267 -0.00906019
v -0.00776133 -0.03600267 -0.00901650
v -0.00772485 -0.03600267 -0.00903512
v -0.00781604 -0.03600267 -0.00898567
v -0.00778088 -0.03600267 -0.00900651
v -0.00786860 -0.03600267 -0.00895154
v -0.00783491 -0.03600267 -0.00897449
v -0.00791883 -0.03600267 -0.00891425
v -0.00801156 -0.03600267 -0.00883090
v -0.00812910 -0.03600267 -0.00868654
v -0.00816198 -0.03600267 -0.00863406
v -0.00824022 -0.03600267 -0.00846649
v -0.00825923 -0.03600267 -0.00840799
v -0.00828635 -0.03600267 -0.00828841
v 0.00624109 -0.03600267 -0.00342857
f 757 802 649
f 757 649 685
f 502 17 16
f 22 2 20
f 370 20 21
f 346 345 252
f 303 304 305
f 18 502 16
f 16 249 18
f 344 9 8
f 8 6 344
f 503 20 2
f 503 21 20
f 502 18 19
f 370 21 19
f 19 18 370
f 427 510 426
f 345 346 379
f 252 253 251
f 253 303 251
f 251 303 305
f 251 346 252
f 305 346 251
f 507 25 33
f 507 31 25
f 509 426 510
f 3 31 26
f 26 23 3
f 25 31 3
f 3 23 25
f 304 303 751
f 738 281 295
f 403 416 33
f 33 34 403
f 686 687 145
f 71 686 145
f 95 684 609
f 100 724 95
f 685 684 95
f 95 755 757
f 757 685 95
f 250 9 344
f 21 503 465
f 465 19 21
f 503 455 465
f 235 231 765
f 446 445 447
f 458 503 2
f 458 455 503
f 26 31 457
f 454 509 510
f 102 104 103
f 521 420 421
f 421 237 422
f 176 420 177
f 461 447 445
f 652 310 311
f 661 379 380
f 347 346 305
f 380 379 347
f 347 379 346
f 380 347 348
f 380 348 381
f 662 381 382
f 386 313 312
f 312 313 653
f 25 23 32
f 23 239 32
f 33 25 32
f 32 34 33
f 283 281 736
f 279 266 264
f 752 750 304
f 304 751 752
f 753 303 253
f 304 750 306
f 736 281 739
f 281 738 739
f 292 290 741
f 288 742 290
f 741 290 743
f 290 742 743
f 686 36 758
f 758 36 725
f 76 686 71
f 29 725 27
f 725 36 27
f 762 763 93
f 93 690 762
f 780 104 102
f 97 100 96
f 100 95 96
f 755 95 782
f 782 95 724
f 335 399 337
f 650 4 586
f 651 4 650
f 377 657 378
f 9 250 11
f 341 401 343
f 343 340 341
f 343 250 344
f 416 159 425
f 33 416 425
f 425 509 33
f 426 509 425
f 765 231 692
f 231 764 692
f 93 763 92
f 92 764 231
f 418 174 173
f 174 170 173
f 417 516 418
f 418 173 417
f 183 218 217
f 181 218 183
f 233 695 696
f 423 428 513
f 513 512 423
f 511 512 450
f 511 510 427
f 450 512 448
f 446 447 448
f 448 513 446
f 448 512 513
f 429 174 418
f 451 450 449
f 450 448 449
f 449 448 447
f 516 442 515
f 418 516 515
f 515 429 418
f 1 2 22
f 1 458 2
f 31 507 508
f 508 507 33
f 33 509 508
f 455 454 453
f 453 451 464
f 464 465 453
f 453 465 455
f 452 450 451
f 451 453 452
f 452 453 454
f 452 454 510
f 510 511 452
f 452 511 450
f 456 454 455
f 455 458 456
f 458 457 456
f 456 457 31
f 31 508 456
f 509 454 456
f 456 508 509
f 188 181 183
f 527 525 581
f 581 525 422
f 102 103 101
f 422 237 236
f 236 581 422
f 178 581 236
f 237 421 175
f 175 421 420
f 420 176 175
f 447 461 462
f 462 449 447
f 662 382 605
f 587 652 311
f 311 312 587
f 587 312 653
f 604 661 380
f 380 381 604
f 604 381 662
f 378 657 603
f 287 352 351
f 349 381 348
f 349 382 381
f 350 382 349
f 349 298 350
f 22 262 263
f 277 264 362
f 256 262 22
f 256 261 262
f 262 261 260
f 260 240 262
f 259 366 257
f 259 257 258
f 258 260 259
f 259 260 261
f 784 783 243
f 243 783 725
f 754 751 303
f 303 753 754
f 746 301 299
f 308 306 750
f 308 748 309
f 294 738 295
f 294 292 740
f 294 293 292
f 798 292 741
f 740 292 798
f 799 301 746
f 799 744 301
f 742 288 745
f 745 288 744
f 301 744 302
f 744 288 302
f 287 301 302
f 302 288 287
f 75 36 686
f 686 76 75
f 75 76 71
f 687 149 147
f 760 136 688
f 713 107 111
f 111 710 711
f 113 777 114
f 708 115 112
f 708 113 115
f 707 112 117
f 714 107 713
f 714 779 107
f 108 716 102
f 107 779 108
f 102 101 108
f 108 101 107
f 723 724 100
f 100 722 723
f 99 100 97
f 97 105 99
f 99 105 781
f 781 721 99
f 99 721 722
f 99 722 100
f 98 105 97
f 104 105 98
f 98 103 104
f 719 105 104
f 102 716 717
f 717 780 102
f 370 18 369
f 399 366 367
f 367 259 261
f 366 259 367
f 341 340 339
f 339 401 341
f 6 4 371
f 344 6 371
f 371 372 344
f 657 377 656
f 9 11 12
f 13 249 16
f 13 11 250
f 250 343 13
f 342 343 344
f 340 343 342
f 344 372 342
f 342 372 340
f 597 375 596
f 340 372 373
f 376 375 597
f 160 159 416
f 416 141 160
f 691 92 763
f 764 92 691
f 93 92 167
f 231 235 229
f 235 228 229
f 86 417 172
f 172 417 173
f 177 420 419
f 419 86 177
f 419 417 86
f 123 132 769
f 218 181 179
f 180 178 179
f 179 181 180
f 178 236 179
f 223 228 233
f 223 229 228
f 130 129 697
f 177 86 87
f 87 226 177
f 86 172 87
f 173 226 87
f 87 172 173
f 177 226 225
f 233 696 234
f 234 223 233
f 693 235 765
f 693 694 235
f 232 228 235
f 235 694 232
f 233 228 232
f 232 694 695
f 232 695 233
f 424 423 512
f 424 511 427
f 512 511 424
f 166 423 424
f 440 442 516
f 446 513 514
f 513 428 514
f 428 429 514
f 429 515 514
f 24 457 458
f 458 1 24
f 26 457 24
f 24 23 26
f 22 23 24
f 24 1 22
f 182 583 180
f 182 188 583
f 180 181 182
f 181 188 182
f 527 581 582
f 180 583 582
f 582 178 180
f 582 581 178
f 527 582 529
f 529 582 583
f 501 465 464
f 502 19 501
f 19 465 501
f 481 462 461
f 310 652 606
f 379 661 607
f 330 377 378
f 330 603 602
f 378 603 330
f 350 298 300
f 300 351 350
f 287 351 300
f 300 301 287
f 300 299 301
f 353 386 385
f 385 352 353
f 385 312 311
f 386 312 385
f 653 313 588
f 254 239 23
f 254 263 239
f 254 23 22
f 22 263 254
f 283 735 285
f 285 733 286
f 274 275 272
f 732 274 272
f 272 734 732
f 733 734 272
f 286 733 272
f 353 352 289
f 289 352 287
f 287 288 289
f 289 288 290
f 295 281 282
f 590 589 315
f 391 319 390
f 358 391 390
f 359 391 358
f 361 360 275
f 361 277 362
f 361 275 277
f 266 268 364
f 398 366 399
f 398 399 335
f 335 333 398
f 333 397 398
f 22 20 255
f 255 256 22
f 255 20 370
f 370 369 255
f 255 369 256
f 278 792 279
f 279 264 278
f 264 277 278
f 279 792 265
f 265 266 279
f 265 268 266
f 265 267 268
f 258 257 270
f 241 240 784
f 784 243 241
f 262 240 241
f 244 725 29
f 244 243 725
f 784 240 726
f 240 786 726
f 248 786 240
f 248 260 258
f 240 260 248
f 737 283 736
f 737 735 283
f 746 299 800
f 800 299 747
f 747 299 297
f 297 749 747
f 297 298 309
f 748 749 297
f 309 748 297
f 297 300 298
f 299 300 297
f 801 308 750
f 748 308 801
f 309 298 296
f 296 308 309
f 296 349 348
f 298 349 296
f 738 294 797
f 797 294 740
f 148 147 149
f 134 760 761
f 136 760 134
f 761 135 134
f 89 135 761
f 761 689 89
f 89 689 690
f 690 94 89
f 114 777 709
f 709 710 114
f 778 111 711
f 107 101 106
f 106 111 107
f 114 710 110
f 710 111 110
f 111 106 110
f 775 112 707
f 775 708 112
f 777 113 776
f 113 708 776
f 116 115 208
f 112 115 116
f 116 117 112
f 122 117 116
f 705 117 122
f 122 774 705
f 119 773 121
f 716 108 715
f 715 108 779
f 104 780 718
f 718 719 104
f 781 105 720
f 105 719 720
f 401 369 402
f 249 13 402
f 402 18 249
f 402 369 18
f 402 343 401
f 402 13 343
f 399 367 400
f 401 339 400
f 400 337 399
f 400 339 337
f 368 369 401
f 401 400 368
f 368 400 367
f 368 367 261
f 261 256 368
f 256 369 368
f 655 656 377
f 10 8 9
f 16 17 500
f 501 499 500
f 17 502 500
f 502 501 500
f 14 12 11
f 11 13 14
f 595 596 375
f 374 373 594
f 340 373 374
f 594 373 654
f 372 593 654
f 654 373 372
f 159 160 139
f 139 160 141
f 403 154 155
f 416 403 155
f 140 759 688
f 230 92 231
f 230 167 92
f 231 229 230
f 230 229 167
f 165 423 166
f 516 417 517
f 417 419 517
f 517 440 516
f 492 440 517
f 118 773 119
f 119 210 118
f 219 210 218
f 218 179 219
f 220 210 219
f 219 179 220
f 224 236 237
f 224 179 236
f 220 179 224
f 237 175 224
f 224 225 220
f 175 225 224
f 769 132 700
f 132 699 700
f 227 223 226
f 227 173 170
f 227 226 173
f 170 229 227
f 229 223 227
f 698 699 131
f 131 768 698
f 130 768 131
f 131 699 132
f 88 176 177
f 177 225 88
f 88 175 176
f 88 225 175
f 220 225 221
f 223 234 128
f 129 130 128
f 128 130 223
f 697 129 128
f 128 234 697
f 697 234 766
f 766 234 696
f 525 522 523
f 521 421 523
f 422 525 523
f 523 421 422
f 521 523 520
f 520 523 522
f 524 525 527
f 524 522 525
f 446 514 444
f 444 445 446
f 444 515 442
f 444 514 515
f 531 529 583
f 583 188 584
f 584 531 583
f 533 531 584
f 532 533 535
f 535 534 532
f 205 214 215
f 204 101 103
f 204 205 101
f 460 461 445
f 464 451 463
f 451 449 463
f 449 462 463
f 375 376 336
f 337 339 336
f 384 351 352
f 352 385 384
f 311 310 384
f 384 385 311
f 733 285 796
f 796 285 735
f 291 289 290
f 290 292 291
f 292 293 291
f 353 289 291
f 354 386 353
f 353 291 354
f 293 355 354
f 354 291 293
f 356 389 388
f 388 355 356
f 389 315 388
f 295 282 280
f 280 294 295
f 293 294 280
f 280 282 356
f 356 355 280
f 280 355 293
f 281 283 284
f 284 282 281
f 283 285 284
f 659 318 598
f 598 318 320
f 590 315 317
f 317 315 389
f 317 390 319
f 389 390 317
f 314 315 589
f 589 588 314
f 314 588 313
f 314 388 315
f 391 359 392
f 392 359 360
f 331 397 333
f 333 330 331
f 358 390 357
f 356 282 357
f 357 389 356
f 357 390 389
f 357 284 358
f 282 284 357
f 362 264 363
f 363 264 266
f 266 364 363
f 366 398 365
f 365 364 268
f 397 364 365
f 365 398 397
f 257 366 365
f 365 268 257
f 795 274 732
f 795 731 274
f 792 278 791
f 791 278 794
f 794 278 276
f 276 793 794
f 276 278 277
f 731 793 276
f 274 731 276
f 276 275 274
f 277 275 276
f 729 787 246
f 246 788 729
f 245 788 246
f 267 788 245
f 246 270 269
f 269 245 246
f 267 245 269
f 269 270 257
f 257 268 269
f 268 267 269
f 239 263 242
f 243 244 28
f 239 242 28
f 28 32 239
f 28 241 243
f 28 244 29
f 28 242 263
f 29 34 28
f 34 32 28
f 28 263 262
f 262 241 28
f 246 787 247
f 247 270 246
f 247 727 248
f 258 270 247
f 247 248 258
f 307 296 348
f 307 347 305
f 307 348 347
f 305 304 307
f 304 306 307
f 306 308 307
f 308 296 307
f 27 55 35
f 147 148 146
f 146 145 687
f 687 147 146
f 146 148 403
f 146 403 34
f 71 145 146
f 93 167 163
f 163 91 93
f 163 424 427
f 93 91 90
f 90 91 94
f 90 690 93
f 90 94 690
f 94 91 157
f 157 89 94
f 426 425 157
f 157 238 426
f 713 111 712
f 111 778 712
f 215 216 207
f 207 217 208
f 207 216 217
f 209 210 122
f 122 116 209
f 218 210 209
f 209 116 208
f 208 217 209
f 209 217 218
f 707 117 706
f 117 705 706
f 704 774 122
f 122 121 704
f 120 210 119
f 119 121 120
f 122 210 120
f 120 121 122
f 592 593 372
f 9 12 494
f 494 10 9
f 8 10 7
f 6 8 7
f 7 504 6
f 462 481 483
f 483 463 462
f 482 481 480
f 482 483 481
f 15 14 13
f 15 13 16
f 16 500 15
f 15 500 499
f 159 139 137
f 143 141 416
f 416 155 143
f 155 140 143
f 150 148 149
f 403 148 150
f 687 759 142
f 759 140 142
f 142 155 154
f 142 140 155
f 688 136 138
f 138 140 688
f 136 137 138
f 141 143 138
f 138 143 140
f 138 139 141
f 138 137 139
f 161 165 166
f 167 165 161
f 161 163 167
f 167 229 168
f 168 165 167
f 168 229 170
f 428 423 164
f 423 165 164
f 165 168 164
f 519 517 419
f 519 420 521
f 519 419 420
f 492 517 519
f 773 118 772
f 772 118 702
f 126 210 220
f 126 118 210
f 701 702 124
f 124 771 701
f 123 771 124
f 770 123 769
f 770 771 123
f 215 214 190
f 574 573 189
f 189 191 574
f 767 130 697
f 767 768 130
f 222 225 226
f 222 221 225
f 226 223 222
f 223 130 222
f 442 440 441
f 527 529 526
f 526 524 527
f 540 538 541
f 580 584 188
f 573 535 580
f 533 584 580
f 580 535 533
f 537 573 574
f 537 535 573
f 534 535 537
f 537 536 534
f 627 553 683
f 6 504 5
f 504 585 5
f 5 4 6
f 404 487 472
f 472 474 404
f 472 487 471
f 532 534 567
f 334 376 377
f 334 336 376
f 335 337 334
f 337 336 334
f 338 374 375
f 375 336 338
f 340 374 338
f 338 339 340
f 338 336 339
f 383 382 350
f 350 351 383
f 351 384 383
f 383 384 310
f 383 606 605
f 383 605 382
f 310 606 383
f 387 354 355
f 355 388 387
f 386 354 387
f 388 314 387
f 387 313 386
f 387 314 313
f 271 285 286
f 271 284 285
f 271 359 358
f 358 284 271
f 318 659 316
f 319 318 316
f 316 317 319
f 598 320 660
f 600 599 324
f 321 318 319
f 321 320 318
f 321 319 391
f 391 392 321
f 394 361 362
f 789 265 792
f 789 790 265
f 730 788 267
f 267 265 730
f 265 790 730
f 786 248 785
f 248 727 785
f 728 247 787
f 727 247 728
f 37 27 36
f 29 27 30
f 27 35 30
f 30 34 29
f 30 35 34
f 156 163 427
f 427 426 156
f 426 238 156
f 91 163 156
f 238 157 156
f 156 157 91
f 158 425 159
f 158 157 425
f 159 135 158
f 135 89 158
f 89 157 158
f 109 110 106
f 114 110 109
f 109 113 114
f 115 113 109
f 208 115 109
f 109 207 208
f 215 207 206
f 206 205 215
f 206 109 106
f 207 109 206
f 206 106 101
f 101 205 206
f 703 121 773
f 703 704 121
f 504 7 496
f 10 494 496
f 496 7 10
f 485 499 501
f 485 501 464
f 464 463 485
f 463 483 485
f 133 135 159
f 159 137 133
f 133 134 135
f 136 134 133
f 133 137 136
f 151 150 149
f 153 150 151
f 151 149 687
f 687 153 151
f 152 150 153
f 152 154 403
f 403 150 152
f 144 153 687
f 687 142 144
f 144 142 154
f 154 152 144
f 144 152 153
f 162 161 166
f 163 161 162
f 166 424 162
f 424 163 162
f 171 429 428
f 171 170 174
f 174 429 171
f 171 168 170
f 492 519 518
f 521 520 518
f 518 519 521
f 220 221 125
f 125 126 220
f 132 123 125
f 123 124 125
f 125 124 126
f 702 118 211
f 211 124 702
f 118 126 211
f 126 124 211
f 193 190 214
f 573 580 185
f 186 190 191
f 191 189 186
f 186 216 215
f 215 190 186
f 183 217 186
f 217 216 186
f 130 131 127
f 127 222 130
f 127 131 132
f 132 125 127
f 221 222 127
f 127 125 221
f 443 460 445
f 445 444 443
f 443 444 442
f 442 441 443
f 529 531 528
f 528 526 529
f 546 680 544
f 544 547 546
f 544 680 679
f 543 540 541
f 539 537 574
f 541 538 539
f 538 536 539
f 536 537 539
f 682 683 553
f 202 666 682
f 682 553 202
f 570 571 201
f 553 552 570
f 201 202 570
f 202 553 570
f 79 78 202
f 79 202 201
f 97 96 83
f 103 98 203
f 203 204 103
f 571 550 572
f 640 585 504
f 506 474 472
f 621 471 470
f 524 526 560
f 479 481 461
f 461 460 479
f 460 477 479
f 480 481 479
f 475 488 476
f 476 477 475
f 377 330 332
f 332 334 377
f 332 330 333
f 332 333 335
f 335 334 332
f 286 272 273
f 273 271 286
f 273 272 275
f 275 360 273
f 360 359 273
f 359 271 273
f 658 316 659
f 590 317 658
f 317 316 658
f 322 324 599
f 599 660 322
f 322 660 320
f 326 601 600
f 600 324 326
f 326 324 327
f 325 394 327
f 327 324 325
f 324 322 325
f 327 394 395
f 362 363 395
f 395 394 362
f 46 47 27
f 14 15 493
f 12 14 493
f 493 15 499
f 499 498 493
f 493 494 12
f 493 498 494
f 484 498 499
f 499 485 484
f 483 482 484
f 484 485 483
f 480 487 406
f 406 482 480
f 487 404 406
f 504 496 495
f 495 404 474
f 428 164 169
f 169 171 428
f 169 164 168
f 168 171 169
f 191 190 192
f 187 188 183
f 183 186 187
f 187 186 185
f 187 580 188
f 187 185 580
f 184 186 189
f 185 186 184
f 184 189 573
f 573 185 184
f 492 518 491
f 520 557 491
f 491 518 520
f 491 440 492
f 491 441 440
f 441 491 490
f 490 491 555
f 530 528 531
f 530 533 532
f 530 531 533
f 680 546 681
f 544 679 542
f 540 543 542
f 679 646 542
f 542 646 540
f 545 547 544
f 544 542 545
f 545 542 543
f 628 626 552
f 549 546 547
f 549 572 550
f 552 626 625
f 199 79 201
f 199 198 196
f 78 79 77
f 85 83 84
f 97 83 85
f 85 98 97
f 85 203 98
f 204 203 213
f 213 199 196
f 214 205 213
f 205 204 213
f 213 193 214
f 196 193 213
f 80 85 84
f 577 545 543
f 641 640 505
f 505 640 504
f 505 506 641
f 504 495 505
f 474 506 505
f 505 495 474
f 641 506 642
f 620 621 470
f 619 469 678
f 467 469 438
f 488 436 438
f 565 637 563
f 569 536 538
f 522 524 559
f 524 560 559
f 528 530 564
f 563 561 564
f 478 479 477
f 477 476 478
f 480 479 478
f 478 487 480
f 602 601 328
f 601 326 328
f 328 330 602
f 323 321 392
f 323 325 322
f 320 321 323
f 323 322 320
f 394 325 393
f 393 392 360
f 393 323 392
f 325 323 393
f 360 361 393
f 361 394 393
f 327 395 329
f 329 326 327
f 329 328 326
f 329 331 330
f 330 328 329
f 397 331 396
f 396 395 363
f 331 329 396
f 396 329 395
f 396 364 397
f 396 363 364
f 40 41 27
f 27 39 40
f 40 39 41
f 27 37 38
f 38 39 27
f 37 68 38
f 68 39 38
f 41 39 66
f 53 50 55
f 55 50 49
f 49 50 27
f 70 72 71
f 70 37 36
f 36 72 70
f 73 72 36
f 71 72 73
f 61 146 34
f 498 484 405
f 405 406 404
f 405 484 482
f 482 406 405
f 497 496 494
f 497 495 496
f 404 495 497
f 494 498 497
f 497 405 404
f 498 405 497
f 556 491 557
f 555 491 556
f 556 557 412
f 412 411 556
f 556 411 555
f 460 443 459
f 459 490 475
f 459 443 441
f 441 490 459
f 459 477 460
f 475 477 459
f 489 411 436
f 489 488 475
f 489 436 488
f 475 490 489
f 489 490 555
f 555 411 489
f 548 681 546
f 546 549 548
f 548 549 550
f 552 625 551
f 551 550 571
f 625 624 551
f 551 624 550
f 571 570 551
f 551 570 552
f 200 199 201
f 198 199 200
f 201 571 200
f 571 572 200
f 200 572 198
f 81 77 82
f 82 77 79
f 82 80 81
f 85 80 82
f 198 572 579
f 579 549 547
f 572 549 579
f 547 545 578
f 545 577 578
f 578 579 547
f 574 191 575
f 191 192 575
f 541 539 575
f 575 539 574
f 473 642 506
f 473 506 472
f 472 471 473
f 467 438 466
f 618 644 467
f 468 476 488
f 488 438 468
f 468 469 470
f 468 438 469
f 637 565 638
f 568 630 567
f 568 567 534
f 534 536 568
f 536 569 568
f 635 676 413
f 558 557 520
f 558 520 522
f 522 559 558
f 430 558 559
f 566 564 530
f 532 567 566
f 566 530 532
f 567 565 566
f 566 565 563
f 563 564 566
f 526 528 562
f 528 564 562
f 562 560 526
f 562 564 561
f 435 430 431
f 67 39 68
f 67 66 39
f 67 68 71
f 71 66 67
f 71 63 64
f 54 55 27
f 27 53 54
f 54 53 55
f 52 53 27
f 27 47 48
f 48 49 27
f 47 49 48
f 69 68 37
f 37 70 69
f 71 68 69
f 69 70 71
f 74 75 71
f 71 73 74
f 36 75 74
f 74 73 36
f 146 61 62
f 71 146 62
f 62 63 71
f 647 548 623
f 681 548 647
f 79 199 212
f 212 82 79
f 199 213 212
f 212 213 203
f 203 85 212
f 85 82 212
f 193 195 194
f 190 193 194
f 194 192 190
f 579 578 197
f 196 198 197
f 198 579 197
f 197 193 196
f 197 195 193
f 577 195 197
f 197 578 577
f 643 473 622
f 642 473 643
f 617 466 616
f 487 478 486
f 486 471 487
f 486 478 476
f 476 468 486
f 470 471 486
f 486 468 470
f 437 466 438
f 437 438 436
f 435 431 433
f 629 638 565
f 554 569 538
f 538 540 554
f 630 568 632
f 563 637 636
f 636 561 563
f 413 561 636
f 636 635 413
f 434 430 435
f 434 407 412
f 435 407 434
f 412 557 434
f 557 558 434
f 558 430 434
f 415 561 413
f 560 562 415
f 415 562 561
f 41 66 65
f 65 64 41
f 65 66 71
f 71 64 65
f 50 53 51
f 53 52 51
f 27 50 51
f 51 52 27
f 60 61 34
f 34 59 60
f 55 49 57
f 57 49 47
f 47 59 57
f 47 46 45
f 45 46 27
f 63 62 42
f 41 64 42
f 42 64 63
f 27 41 42
f 576 575 192
f 192 194 576
f 576 577 543
f 576 195 577
f 576 194 195
f 576 543 541
f 541 575 576
f 672 673 409
f 409 673 614
f 614 437 409
f 408 433 674
f 408 672 409
f 409 407 408
f 435 433 408
f 408 407 435
f 410 407 409
f 410 437 436
f 409 437 410
f 436 411 410
f 410 411 412
f 412 407 410
f 639 554 645
f 569 677 631
f 414 415 413
f 413 431 414
f 414 431 430
f 414 430 559
f 414 559 560
f 560 415 414
f 56 35 55
f 55 57 56
f 56 57 35
f 34 35 58
f 35 57 58
f 58 59 34
f 58 57 59
f 44 62 61
f 44 45 27
f 61 60 44
f 44 60 59
f 44 59 47
f 47 45 44
f 466 437 439
f 674 433 669
f 432 433 431
f 432 431 413
f 633 408 674
f 672 408 633
f 43 42 62
f 62 44 43
f 27 42 43
f 43 44 27
f 668 669 433
f 433 432 668
f 668 432 667
f 615 439 671
f 439 670 671
f 432 634 675
f 667 432 675
f 753 648 756
f 753 253 648
f 648 253 608
f 608 253 252
f 252 345 608
f 607 608 345
f 345 379 607
f 610 95 609
f 610 96 95
f 591 4 651
f 591 371 4
f 655 376 597
f 377 376 655
f 594 595 374
f 374 595 375
f 371 591 592
f 372 371 592
f 665 666 78
f 78 666 202
f 5 585 586
f 586 4 5
f 703 802 757
f 703 770 769
f 703 753 756
f 756 802 703
f 736 739 703
f 703 687 686
f 755 782 703
f 763 762 703
f 757 755 703
f 794 793 703
f 750 752 703
f 703 714 713
f 738 797 703
f 777 776 703
f 786 785 703
f 784 726 703
f 746 800 703
f 741 743 703
f 703 783 784
f 688 759 703
f 781 720 703
f 773 772 703
f 732 734 703
f 747 749 703
f 703 798 741
f 725 783 703
f 703 759 687
f 686 758 703
f 742 745 703
f 703 709 777
f 724 723 703
f 703 717 716
f 765 692 703
f 703 728 787
f 733 796 703
f 787 729 703
f 703 752 751
f 751 754 703
f 703 801 750
f 703 739 738
f 703 799 746
f 703 743 742
f 703 758 725
f 703 762 690
f 703 760 688
f 690 689 703
f 713 712 703
f 703 721 781
f 703 718 780
f 703 782 724
f 703 692 764
f 703 691 763
f 769 700 703
f 703 696 695
f 695 694 703
f 703 693 765
f 703 767 697
f 703 734 733
f 697 766 703
f 703 754 753
f 703 737 736
f 740 798 703
f 744 799 703
f 703 745 744
f 761 760 703
f 703 689 761
f 711 710 703
f 703 775 707
f 707 706 703
f 779 714 703
f 722 721 703
f 703 723 722
f 716 715 703
f 780 717 703
f 764 691 703
f 703 702 701
f 703 699 698
f 694 693 703
f 703 795 732
f 792 791 703
f 703 726 786
f 735 737 703
f 703 749 748
f 703 800 747
f 748 801 703
f 703 797 740
f 710 709 703
f 703 778 711
f 708 775 703
f 703 776 708
f 703 705 774
f 703 715 779
f 719 718 703
f 703 720 719
f 701 771 703
f 703 700 699
f 698 768 703
f 703 766 696
f 703 796 735
f 731 795 703
f 703 793 731
f 703 791 794
f 703 729 788
f 703 789 792
f 788 730 703
f 703 712 778
f 703 706 705
f 774 704 703
f 703 772 702
f 771 770 703
f 768 767 703
f 790 789 703
f 703 730 790
f 703 785 727
f 727 728 703
f 96 610 83
f 610 611 83
f 83 611 663
f 663 84 83
f 628 553 627
f 628 552 553
f 612 613 77
f 81 612 77
f 665 78 77
f 77 613 665
f 80 664 612
f 80 612 81
f 80 84 663
f 663 664 80
f 470 469 620
f 620 469 619
f 467 644 678
f 678 469 467
f 623 548 624
f 624 548 550
f 473 621 622
f 471 621 473
f 467 466 618
f 618 466 617
f 567 630 629
f 629 565 567
f 554 646 645
f 540 646 554
f 639 677 569
f 569 554 639
f 631 568 569
f 631 632 568
f 615 616 439
f 439 616 466
f 437 614 670
f 670 439 437
f 413 676 634
f 634 432 413
f 675 802 756
f 675 603 657
f 756 648 675
f 648 608 675
f 662 605 675
f 675 649 802
f 593 592 675
f 675 610 609
f 675 685 649
f 609 684 675
f 675 587 653
f 622 621 675
f 675 684 685
f 653 588 675
f 675 650 586
f 675 647 623
f 675 607 661
f 675 604 662
f 657 656 675
f 594 654 675
f 598 660 675
f 675 606 652
f 675 616 615
f 675 599 600
f 600 601 675
f 651 650 675
f 675 682 666
f 586 585 675
f 675 655 597
f 652 587 675
f 661 604 675
f 602 603 675
f 675 589 590
f 627 683 675
f 675 595 594
f 675 591 651
f 597 596 675
f 605 606 675
f 608 607 675
f 675 588 589
f 675 659 598
f 663 611 675
f 656 655 675
f 596 595 675
f 675 654 593
f 675 666 665
f 645 646 675
f 675 633 674
f 675 601 602
f 637 638 675
f 675 611 610
f 675 592 591
f 590 658 675
f 630 632 675
f 665 613 675
f 675 664 663
f 585 640 675
f 619 678 675
f 675 660 599
f 675 679 680
f 683 682 675
f 675 628 627
f 675 613 612
f 612 664 675
f 675 640 641
f 675 620 619
f 675 643 622
f 644 618 675
f 675 658 659
f 680 681 675
f 675 646 679
f 626 628 675
f 675 625 626
f 641 642 675
f 623 624 675
f 621 620 675
f 675 678 644
f 675 631 677
f 675 624 625
f 675 618 617
f 675 636 637
f 675 629 630
f 676 635 675
f 681 647 675
f 642 643 675
f 617 616 675
f 674 669 675
f 638 629 675
f 675 639 645
f 635 636 675
f 673 672 675
f 675 614 673
f 675 668 667
f 677 639 675
f 632 631 675
f 675 634 676
f 672 633 675
f 675 670 614
f 669 668 675
f 615 671 675
f 675 671 670

