# https://github.com/mikedh/trimesh
v -0.00746900 -0.02181181 -0.01028571
v -0.00598421 -0.02807831 -0.01028571
v 0.00245857 -0.02720049 -0.01028571
v -0.00711621 -0.01721254 -0.01028571
v 0.00356702 -0.02590510 -0.01028571
v 0.00326471 -0.02649093 -0.01028571
v 0.00278128 -0.02701286 -0.01028571
v 0.00266768 -0.02710587 -0.01028571
v 0.00423264 -0.01470506 -0.01028571
v 0.00422051 -0.01470593 -0.01028571
v 0.00431328 -0.01470379 -0.01028571
v 0.00444317 -0.01471024 -0.01028571
v 0.00442784 -0.01470947 -0.01028571
v 0.00449452 -0.01471576 -0.01028571
v 0.00454950 -0.01472360 -0.01028571
v 0.00467159 -0.01474833 -0.01028571
v 0.00476216 -0.01477350 -0.01028571
v 0.00475121 -0.01477044 -0.01028571
v 0.00484325 -0.01480124 -0.01028571
v 0.00485874 -0.01480787 -0.01028571
v 0.00500832 -0.01487414 -0.01028571
v 0.00516561 -0.01496651 -0.01028571
v 0.00527120 -0.01504296 -0.01028571
v 0.00531404 -0.01507771 -0.01028571
v 0.00536500 -0.01512211 -0.01028571
v 0.00545255 -0.01520694 -0.01028571
v 0.00554052 -0.01530460 -0.01028571
v 0.00558019 -0.01535332 -0.01028571
v 0.00562131 -0.01540732 -0.01028571
v 0.00561578 -0.01540003 -0.01028571
v 0.00576690 -0.01563356 -0.01028571
v 0.00579929 -0.01569325 -0.01028571
v 0.00583103 -0.01575605 -0.01028571
v 0.00588922 -0.01588442 -0.01028571
v 0.00594069 -0.01601668 -0.01028571
v 0.00593408 -0.01599958 -0.01028571
v 0.00596520 -0.01608797 -0.01028571
v 0.00602249 -0.01628692 -0.01028571
v 0.00602670 -0.01630246 -0.01028571
v 0.00607328 -0.01652640 -0.01028571
v 0.00611435 -0.01687449 -0.01028571
v 0.00611306 -0.01685855 -0.01028571
v 0.00612049 -0.01699628 -0.01028571
v 0.00610552 -0.01748440 -0.01028571
v -0.00623774 -0.02775295 -0.01028571
v -0.00622554 -0.02779126 -0.01028571
v -0.00619316 -0.02787496 -0.01028571
v -0.00611402 -0.02801035 -0.01028571
v -0.00606751 -0.02805304 -0.01028571
v -0.00602961 -0.02807160 -0.01028571
v -0.00602664 -0.02807271 -0.01028571
v -0.00599034 -0.02807780 -0.01028571
v 0.00578992 -0.01955962 -0.01028571
v 0.00566226 -0.02037912 -0.01028571
v 0.00557067 -0.02086026 -0.01028571
v 0.00506940 -0.02243414 -0.01028571
v 0.00552838 -0.02103908 -0.01028571
v 0.00548733 -0.02120085 -0.01028571
v 0.00542399 -0.02143116 -0.01028571
v 0.00544071 -0.02137127 -0.01028571
v 0.00536421 -0.02162766 -0.01028571
v 0.00529935 -0.02182357 -0.01028571
v 0.00522945 -0.02201816 -0.01028571
v 0.00515325 -0.02221906 -0.01028571
v -0.00746521 -0.02172683 -0.01028571
v -0.00746716 -0.02189557 -0.01028571
v -0.00745970 -0.02197746 -0.01028571
v -0.00744668 -0.02205687 -0.01028571
v 0.00149764 -0.02732850 -0.01028571
v -0.00642243 -0.01579645 -0.01028571
v 0.00335657 -0.02632535 -0.01028571
v 0.00339615 -0.02625136 -0.01028571
v 0.00340447 -0.02623536 -0.01028571
v 0.00345639 -0.02613128 -0.01028571
v 0.00360948 -0.02581225 -0.01028571
v 0.00368889 -0.02563612 -0.01028571
v 0.00290130 -0.02688434 -0.01028571
v 0.00256057 -0.02716478 -0.01028571
v 0.00430395 -0.01470393 -0.01028571
v 0.00448873 -0.01471514 -0.01028571
v 0.00454283 -0.01472264 -0.01028571
v 0.00465762 -0.01474548 -0.01028571
v 0.00483421 -0.01479812 -0.01028571
v 0.00500457 -0.01487227 -0.01028571
v 0.00506580 -0.01490533 -0.01028571
v 0.00515551 -0.01496023 -0.01028571
v 0.00507403 -0.01490981 -0.01028571
v 0.00525823 -0.01503353 -0.01028571
v 0.00530971 -0.01507417 -0.01028571
v 0.00535837 -0.01511630 -0.01028571
v 0.00544304 -0.01519768 -0.01028571
v 0.00552954 -0.01529235 -0.01028571
v 0.00557629 -0.01534851 -0.01028571
v 0.00568805 -0.01550416 -0.01028571
v 0.00575793 -0.01561857 -0.01028571
v 0.00569603 -0.01551580 -0.01028571
v 0.00579622 -0.01568757 -0.01028571
v 0.00582665 -0.01574731 -0.01028571
v 0.00588312 -0.01587087 -0.01028571
v 0.00596294 -0.01608135 -0.01028571
v 0.00605273 -0.01641893 -0.01028571
v 0.00610461 -0.01675822 -0.01028571
v 0.00611993 -0.01698446 -0.01028571
v 0.00612079 -0.01723890 -0.01028571
v 0.00607476 -0.01773104 -0.01028571
v -0.00629745 -0.02752555 -0.01028571
v -0.00629397 -0.02754201 -0.01028571
v -0.00627235 -0.02763086 -0.01028571
v -0.00626254 -0.02767100 -0.01028571
v -0.00619787 -0.02786333 -0.01028571
v -0.00615618 -0.02794899 -0.01028571
v -0.00607683 -0.02804580 -0.01028571
v 0.00570318 -0.02011640 -0.01028571
v 0.00572542 -0.01997369 -0.01028571
v 0.00412917 -0.01471248 -0.01028571
v 0.00560662 -0.02069262 -0.01028571
v 0.00560037 -0.02072181 -0.01028571
v 0.00488341 -0.02287774 -0.01028571
v 0.00547871 -0.02123474 -0.01028571
v 0.00539065 -0.02154094 -0.01028571
v 0.00533719 -0.02170947 -0.01028571
v 0.00528042 -0.02187646 -0.01028571
v 0.00498045 -0.02264761 -0.01028571
v -0.00711621 -0.01721254 -0.00342857
v 0.00419216 -0.01470796 -0.00342857
v 0.00428199 -0.01470427 -0.00342857
v 0.00439227 -0.01470771 -0.00342857
v 0.00452783 -0.01472051 -0.00342857
v 0.00462477 -0.01473880 -0.00342857
v 0.00472649 -0.01476357 -0.00342857
v 0.00484325 -0.01480124 -0.00342857
v 0.00504795 -0.01489564 -0.00342857
v 0.00513172 -0.01494545 -0.00342857
v 0.00522948 -0.01501272 -0.00342857
v 0.00534461 -0.01510433 -0.00342857
v 0.00542065 -0.01517588 -0.00342857
v 0.00550564 -0.01526583 -0.00342857
v 0.00556713 -0.01533719 -0.00342857
v 0.00560473 -0.01538553 -0.00342857
v 0.00573871 -0.01558666 -0.00342857
v 0.00581815 -0.01573053 -0.00342857
v 0.00586877 -0.01583899 -0.00342857
v 0.00592015 -0.01596382 -0.00342857
v 0.00601257 -0.01625036 -0.00342857
v 0.00607328 -0.01652640 -0.00342857
v 0.00611044 -0.01682741 -0.00342857
v 0.00611861 -0.01695668 -0.00342857
v 0.00612079 -0.01723890 -0.00342857
v 0.00610552 -0.01748440 -0.00342857
v 0.00607476 -0.01773104 -0.00342857
v 0.00534359 -0.02242478 -0.00342857
v -0.00642243 -0.01579645 -0.00342857
v -0.00746521 -0.02172683 -0.00342857
v -0.00746900 -0.02181181 -0.00342857
v 0.00412917 -0.01471248 -0.00342857
v 0.00431328 -0.01470379 -0.00342857
v 0.00444371 -0.01471029 -0.00342857
v 0.00447512 -0.01471367 -0.00342857
v 0.00449452 -0.01471576 -0.00342857
v 0.00455021 -0.01472371 -0.00342857
v 0.00476322 -0.01477382 -0.00342857
v 0.00481290 -0.01479081 -0.00342857
v 0.00489519 -0.01482346 -0.00342857
v 0.00499574 -0.01486787 -0.00342857
v 0.00500832 -0.01487414 -0.00342857
v 0.00507554 -0.01491068 -0.00342857
v 0.00516561 -0.01496651 -0.00342857
v 0.00527295 -0.01504434 -0.00342857
v 0.00529950 -0.01506586 -0.00342857
v 0.00531404 -0.01507771 -0.00342857
v 0.00536684 -0.01512378 -0.00342857
v 0.00545255 -0.01520694 -0.00342857
v 0.00554246 -0.01530691 -0.00342857
v 0.00558019 -0.01535332 -0.00342857
v 0.00562326 -0.01540998 -0.00342857
v 0.00566928 -0.01547676 -0.00342857
v 0.00569603 -0.01551580 -0.00342857
v 0.00576879 -0.01563696 -0.00342857
v 0.00578902 -0.01567419 -0.00342857
v 0.00579929 -0.01569325 -0.00342857
v 0.00583285 -0.01575981 -0.00342857
v 0.00594229 -0.01602118 -0.00342857
v 0.00595763 -0.01606577 -0.00342857
v 0.00596520 -0.01608797 -0.00342857
v 0.00602670 -0.01630246 -0.00342857
v 0.00604464 -0.01638278 -0.00342857
v 0.00610461 -0.01675822 -0.00342857
v 0.00418534 -0.02986017 -0.00342857
v 0.00338996 -0.03496616 -0.00342857
v 0.00423281 -0.01470505 -0.00342857
v 0.00467159 -0.01474833 -0.00342857
v 0.00588922 -0.01588442 -0.00342857
v 0.00611477 -0.01688086 -0.00342857
v 0.00612049 -0.01699628 -0.00342857
v 0.00015391 -0.03550485 -0.00913029
v -0.00217400 -0.03574400 -0.00912971
v 0.00136049 -0.03538090 -0.00911288
v 0.00129272 -0.03538786 -0.00911930
v 0.00146152 -0.03537052 -0.00909722
v 0.00139284 -0.03537758 -0.00910800
v 0.00156343 -0.03536005 -0.00907489
v 0.00149401 -0.03536718 -0.00909024
v 0.00166586 -0.03534953 -0.00904568
v 0.00159595 -0.03535671 -0.00906576
v 0.00176848 -0.03533899 -0.00900940
v 0.00187089 -0.03532847 -0.00896589
v 0.00197271 -0.03531801 -0.00891508
v 0.00217290 -0.03529744 -0.00879141
v 0.00210454 -0.03530446 -0.00883660
v 0.00220327 -0.03529432 -0.00876887
v 0.00236569 -0.03527763 -0.00863872
v 0.00254776 -0.03525893 -0.00845826
v 0.00248601 -0.03526527 -0.00852295
v 0.00263378 -0.03525009 -0.00835827
v 0.00257441 -0.03525619 -0.00842740
v 0.00271599 -0.03524165 -0.00825224
v 0.00265924 -0.03524748 -0.00832555
v 0.00286758 -0.03522607 -0.00802370
v 0.00288894 -0.03522388 -0.00798609
v 0.00300033 -0.03521244 -0.00777640
v 0.00301862 -0.03521056 -0.00773622
v 0.00311259 -0.03520090 -0.00751459
v 0.00320346 -0.03519157 -0.00724280
v 0.00317414 -0.03519458 -0.00733678
v 0.00324077 -0.03518774 -0.00710458
v 0.00327269 -0.03518446 -0.00696557
v 0.00325087 -0.03518670 -0.00706071
v 0.00329930 -0.03518172 -0.00682629
v 0.00328114 -0.03518359 -0.00692143
v 0.00332070 -0.03517953 -0.00668726
v 0.00330612 -0.03518102 -0.00678204
v 0.00333702 -0.03517785 -0.00654897
v 0.00332592 -0.03517899 -0.00664304
v 0.00334843 -0.03517668 -0.00641186
v 0.00334069 -0.03517747 -0.00650492
v 0.00335060 -0.03517645 -0.00636811
v 0.00335730 -0.03517577 -0.00613668
v -0.00677796 -0.03621696 -0.00910401
v -0.00682299 -0.03622159 -0.00908773
v -0.00683856 -0.03622319 -0.00908159
v -0.00686707 -0.03622612 -0.00906765
v -0.00688230 -0.03622768 -0.00906019
v -0.00691003 -0.03623053 -0.00904386
v -0.00692487 -0.03623206 -0.00903512
v -0.00695173 -0.03623482 -0.00901650
v -0.00699201 -0.03623895 -0.00898567
v -0.00700590 -0.03624038 -0.00897449
v -0.00703071 -0.03624293 -0.00895154
v -0.00706769 -0.03624673 -0.00891425
v -0.00708043 -0.03624804 -0.00890080
v -0.00710283 -0.03625034 -0.00887396
v -0.00711493 -0.03625158 -0.00885946
v -0.00714736 -0.03625491 -0.00881542
v -0.00719590 -0.03625990 -0.00873698
v -0.00720582 -0.03626092 -0.00871968
v -0.00722250 -0.03626263 -0.00868654
v -0.00723160 -0.03626357 -0.00866844
v -0.00724670 -0.03626512 -0.00863406
v -0.00725497 -0.03626597 -0.00861522
v -0.00728768 -0.03626933 -0.00852381
v -0.00729418 -0.03627000 -0.00850373
v -0.00730431 -0.03627104 -0.00846649
v -0.00730990 -0.03627161 -0.00844589
v -0.00731830 -0.03627247 -0.00840799
v -0.00732297 -0.03627295 -0.00838697
v -0.00733827 -0.03627452 -0.00828841
v -0.00734102 -0.03627481 -0.00826676
v -0.00734596 -0.03627532 -0.00820594
v -0.00734747 -0.03627547 -0.00815452
v 0.00335730 -0.03517577 -0.00373770
v 0.00335730 -0.03517577 -0.00342857
v 0.00126070 -0.03539115 -0.00912213
v 0.00169831 -0.03534619 -0.00903434
v 0.00180075 -0.03533567 -0.00899582
v 0.00190286 -0.03532518 -0.00895007
v 0.00200426 -0.03531476 -0.00889701
v 0.00207351 -0.03530765 -0.00885692
v 0.00230004 -0.03528438 -0.00869392
v 0.00227042 -0.03528742 -0.00871864
v 0.00239442 -0.03527468 -0.00861188
v 0.00245827 -0.03526812 -0.00855184
v 0.00274015 -0.03523917 -0.00821776
v 0.00281681 -0.03523129 -0.00810445
v 0.00279401 -0.03523363 -0.00814056
v 0.00295628 -0.03521696 -0.00786317
v 0.00293643 -0.03521900 -0.00790214
v 0.00307579 -0.03520469 -0.00760579
v 0.00305909 -0.03520640 -0.00764703
v 0.00312766 -0.03519936 -0.00747245
v 0.00316073 -0.03519596 -0.00737966
v 0.00321521 -0.03519036 -0.00719934
v 0.00335583 -0.03517592 -0.00623303
v 0.00335512 -0.03517599 -0.00627635
v -0.00665530 -0.03620436 -0.00912858
v -0.00668579 -0.03620750 -0.00912480
v -0.00670201 -0.03620916 -0.00912279
v -0.00673217 -0.03621226 -0.00911639
v -0.00674824 -0.03621391 -0.00911298
v -0.00679381 -0.03621859 -0.00909922
v -0.00696613 -0.03623629 -0.00900651
v -0.00704405 -0.03624430 -0.00893920
v -0.00713596 -0.03625374 -0.00883090
v -0.00716702 -0.03625693 -0.00878517
v -0.00717770 -0.03625803 -0.00876874
v -0.00726845 -0.03626735 -0.00857974
v -0.00727586 -0.03626811 -0.00856025
v -0.00732963 -0.03627364 -0.00834856
v -0.00733334 -0.03627402 -0.00832718
v -0.00734418 -0.03627513 -0.00822778
v -0.00734832 -0.03627556 -0.00812559
v -0.00734832 -0.03627556 -0.00342857
f 2 69 294
f 68 300 67
f 195 69 3
f 196 69 195
f 196 294 69
f 7 197 8
f 195 3 272
f 107 242 106
f 106 242 68
f 111 298 47
f 151 53 150
f 188 53 151
f 150 53 105
f 54 234 116
f 1 269 310
f 268 269 1
f 66 267 1
f 253 66 67
f 78 272 3
f 8 272 78
f 198 8 197
f 198 272 8
f 2 294 52
f 294 51 52
f 294 49 50
f 50 51 294
f 112 49 294
f 48 112 296
f 111 48 296
f 241 242 107
f 107 240 241
f 239 240 109
f 109 299 239
f 300 68 245
f 68 244 245
f 68 242 243
f 243 244 68
f 110 299 46
f 47 299 110
f 238 47 298
f 238 299 47
f 77 199 7
f 6 199 77
f 200 197 7
f 7 199 200
f 57 55 290
f 67 300 246
f 246 247 67
f 248 301 67
f 67 247 248
f 251 252 67
f 67 250 251
f 67 301 249
f 249 250 67
f 66 308 266
f 266 267 66
f 264 66 263
f 264 265 66
f 307 308 66
f 66 265 307
f 258 66 257
f 258 259 66
f 305 306 66
f 66 259 305
f 263 66 262
f 66 261 262
f 66 306 260
f 260 261 66
f 268 1 309
f 309 1 267
f 257 66 256
f 66 255 256
f 66 304 254
f 254 255 66
f 303 304 66
f 66 253 303
f 67 252 302
f 302 253 67
f 295 112 294
f 295 296 112
f 297 298 111
f 111 296 297
f 108 240 107
f 108 109 240
f 46 299 45
f 299 109 45
f 118 207 76
f 123 207 118
f 216 120 59
f 6 204 201
f 203 204 6
f 116 225 117
f 117 225 55
f 116 226 227
f 227 225 116
f 270 189 271
f 270 237 53
f 188 189 270
f 270 53 188
f 113 237 54
f 145 40 101
f 5 206 74
f 205 73 74
f 75 206 5
f 76 206 75
f 275 76 207
f 275 206 76
f 207 123 276
f 276 123 56
f 276 56 277
f 72 73 205
f 205 71 72
f 202 199 6
f 6 201 202
f 6 71 273
f 273 203 6
f 273 71 205
f 58 288 119
f 57 288 58
f 116 234 235
f 235 232 116
f 233 230 116
f 116 232 233
f 229 226 116
f 116 228 229
f 116 230 231
f 231 228 116
f 290 55 224
f 55 223 224
f 55 225 291
f 291 223 55
f 234 54 236
f 54 293 236
f 54 237 292
f 292 293 54
f 53 237 114
f 237 113 114
f 186 145 101
f 37 184 144
f 208 64 63
f 56 64 208
f 122 279 63
f 211 122 62
f 205 74 274
f 274 74 206
f 59 283 284
f 218 283 59
f 59 60 218
f 218 60 119
f 61 120 216
f 61 214 215
f 215 212 61
f 289 57 290
f 289 222 57
f 287 288 57
f 57 222 287
f 285 286 119
f 119 220 285
f 119 288 221
f 221 220 119
f 37 144 38
f 63 279 210
f 210 208 63
f 277 56 209
f 56 208 209
f 62 281 280
f 280 211 62
f 279 122 278
f 122 211 278
f 216 59 282
f 59 284 282
f 119 286 219
f 219 218 119
f 217 61 216
f 214 61 217
f 121 213 281
f 121 281 62
f 212 213 121
f 121 61 212
f 124 70 4
f 152 70 124
f 4 65 124
f 124 65 153
f 115 70 152
f 152 155 115
f 148 149 104
f 104 149 44
f 105 149 150
f 44 149 105
f 153 65 154
f 65 1 154
f 154 310 311
f 154 1 310
f 125 115 155
f 125 10 115
f 9 10 125
f 125 190 9
f 148 104 194
f 104 43 194
f 11 79 126
f 156 11 126
f 126 79 9
f 9 190 126
f 102 40 145
f 187 102 145
f 94 176 177
f 94 177 96
f 175 176 94
f 94 29 175
f 177 140 95
f 96 177 95
f 95 140 178
f 178 31 95
f 101 39 186
f 186 39 185
f 146 102 187
f 146 42 102
f 41 42 146
f 146 193 41
f 147 43 103
f 147 194 43
f 103 41 147
f 41 193 147
f 29 30 139
f 175 29 139
f 139 30 28
f 28 174 139
f 88 134 168
f 168 23 88
f 167 134 88
f 88 22 167
f 179 97 31
f 179 31 178
f 32 97 179
f 179 180 32
f 99 142 192
f 192 34 99
f 181 142 99
f 99 33 181
f 185 39 38
f 38 144 185
f 138 93 27
f 138 27 173
f 28 93 138
f 138 174 28
f 27 92 137
f 173 27 137
f 137 92 26
f 26 172 137
f 130 18 16
f 16 191 130
f 131 163 20
f 19 131 20
f 164 21 84
f 165 21 164
f 84 20 164
f 164 20 163
f 83 162 131
f 83 131 19
f 85 132 166
f 85 166 87
f 165 132 85
f 85 21 165
f 166 133 86
f 87 166 86
f 86 133 167
f 167 22 86
f 32 180 98
f 180 141 98
f 98 141 181
f 181 33 98
f 213 271 311
f 213 196 195
f 301 248 213
f 306 305 213
f 239 299 213
f 213 273 205
f 213 227 226
f 213 240 239
f 294 196 213
f 213 198 197
f 213 269 268
f 311 310 213
f 195 272 213
f 242 241 213
f 213 238 298
f 197 200 213
f 213 291 225
f 213 260 306
f 213 266 308
f 308 307 213
f 268 309 213
f 304 303 213
f 213 302 252
f 300 245 213
f 213 243 242
f 213 270 271
f 213 275 207
f 199 202 213
f 205 274 213
f 213 246 300
f 252 251 213
f 213 249 301
f 213 264 263
f 310 269 213
f 213 258 257
f 263 262 213
f 257 256 213
f 213 254 304
f 272 198 213
f 213 295 294
f 213 241 240
f 213 245 244
f 244 243 213
f 299 238 213
f 213 200 199
f 298 297 213
f 277 209 213
f 213 276 277
f 213 217 216
f 288 287 213
f 230 233 213
f 213 231 230
f 247 246 213
f 213 248 247
f 213 251 250
f 250 249 213
f 267 266 213
f 265 264 213
f 213 307 265
f 259 258 213
f 213 305 259
f 213 262 261
f 261 260 213
f 213 309 267
f 213 256 255
f 255 254 213
f 213 303 253
f 253 302 213
f 296 295 213
f 213 297 296
f 213 292 237
f 213 219 286
f 213 201 204
f 204 203 213
f 216 282 213
f 213 235 234
f 226 229 213
f 225 227 213
f 290 224 213
f 234 236 213
f 237 270 213
f 213 210 279
f 206 275 213
f 207 276 213
f 279 278 213
f 215 214 213
f 213 212 215
f 213 202 201
f 203 273 213
f 213 289 290
f 286 285 213
f 232 235 213
f 213 233 232
f 213 229 228
f 228 231 213
f 213 224 223
f 223 291 213
f 213 236 293
f 293 292 213
f 213 221 288
f 213 280 281
f 213 274 206
f 213 284 283
f 283 218 213
f 222 289 213
f 213 287 222
f 213 285 220
f 220 221 213
f 208 210 213
f 213 209 208
f 211 280 213
f 213 278 211
f 213 282 284
f 218 219 213
f 214 217 213
f 100 183 184
f 100 184 37
f 182 100 35
f 183 100 182
f 161 83 17
f 162 83 161
f 17 18 161
f 18 130 161
f 90 135 171
f 90 171 25
f 170 90 24
f 135 90 170
f 136 172 26
f 26 91 136
f 136 91 25
f 25 171 136
f 35 36 143
f 143 182 35
f 143 34 192
f 143 36 34
f 127 11 156
f 127 13 11
f 80 158 159
f 80 159 14
f 12 13 157
f 13 127 157
f 157 80 12
f 158 80 157
f 82 191 16
f 82 129 191
f 160 129 82
f 82 15 160
f 169 149 148
f 311 271 169
f 152 124 169
f 153 154 169
f 169 151 150
f 148 194 169
f 169 124 153
f 169 155 152
f 271 189 169
f 150 149 169
f 169 125 155
f 181 141 169
f 175 139 169
f 167 133 169
f 169 186 185
f 178 140 169
f 169 189 188
f 188 151 169
f 169 154 311
f 156 126 169
f 173 137 169
f 169 176 175
f 190 125 169
f 187 145 169
f 185 144 169
f 162 161 169
f 159 158 169
f 177 176 169
f 169 140 177
f 168 134 169
f 169 126 190
f 192 142 169
f 169 146 187
f 194 147 169
f 184 183 169
f 169 138 173
f 169 130 191
f 169 132 165
f 169 134 167
f 169 179 178
f 169 142 181
f 145 186 169
f 193 146 169
f 169 147 193
f 169 144 184
f 169 139 174
f 169 163 131
f 131 162 169
f 165 164 169
f 169 128 159
f 166 132 169
f 169 133 166
f 180 179 169
f 169 141 180
f 172 136 169
f 191 129 169
f 174 138 169
f 169 137 172
f 182 143 169
f 169 164 163
f 158 157 169
f 171 135 169
f 183 182 169
f 169 161 130
f 169 143 192
f 169 127 156
f 169 129 160
f 135 170 169
f 169 136 171
f 169 157 127
f 160 128 169
f 169 23 168
f 169 89 23
f 24 89 169
f 169 170 24
f 81 69 2
f 81 68 67
f 81 65 4
f 102 42 81
f 4 70 81
f 7 8 81
f 67 66 81
f 73 72 81
f 46 45 81
f 49 112 81
f 81 48 111
f 111 47 81
f 81 79 11
f 81 3 69
f 81 91 26
f 81 110 46
f 44 105 81
f 81 54 116
f 70 115 81
f 103 43 81
f 81 104 44
f 23 89 81
f 81 78 3
f 107 106 81
f 81 71 6
f 62 122 81
f 81 77 7
f 81 1 65
f 115 10 81
f 81 93 28
f 81 41 103
f 2 52 81
f 81 50 49
f 81 106 68
f 81 97 32
f 81 105 53
f 81 99 34
f 81 64 56
f 116 117 81
f 66 1 81
f 81 10 9
f 81 43 104
f 101 40 81
f 28 30 81
f 81 85 87
f 96 95 81
f 8 78 81
f 81 52 51
f 51 50 81
f 81 112 48
f 81 108 107
f 47 110 81
f 6 77 81
f 5 74 81
f 81 123 118
f 81 75 5
f 55 57 81
f 9 79 81
f 81 40 102
f 81 58 119
f 53 114 81
f 81 39 101
f 26 92 81
f 81 83 19
f 81 94 96
f 109 108 81
f 81 45 109
f 81 88 23
f 118 76 81
f 56 123 81
f 81 59 120
f 119 60 81
f 81 117 55
f 81 113 54
f 81 42 41
f 81 90 25
f 81 30 29
f 32 98 81
f 37 38 81
f 19 20 81
f 11 13 81
f 16 18 81
f 81 100 37
f 29 94 81
f 31 97 81
f 81 95 31
f 87 86 81
f 63 64 81
f 81 74 73
f 76 75 81
f 81 60 59
f 81 72 71
f 57 58 81
f 81 114 113
f 34 36 81
f 27 93 81
f 81 92 27
f 84 21 81
f 81 18 17
f 81 80 14
f 22 88 81
f 33 99 81
f 81 122 63
f 120 61 81
f 81 38 39
f 81 20 84
f 17 83 81
f 81 121 62
f 81 89 24
f 25 91 81
f 21 85 81
f 81 86 22
f 81 98 33
f 81 36 35
f 35 100 81
f 81 13 12
f 81 82 16
f 24 90 81
f 61 121 81
f 12 80 81
f 15 82 81
f 14 159 81
f 159 128 81
f 81 128 160
f 160 15 81

