# https://github.com/mikedh/trimesh
v 0.00815450 -0.01794504 -0.01548112
v 0.00812470 -0.01822631 -0.01433097
v 0.00798650 -0.01953053 -0.01316108
v 0.00800921 -0.01931619 -0.01674591
v -0.00900000 -0.02200000 -0.01714286
v -0.00999619 -0.02108716 -0.01714286
v -0.00993969 -0.02134202 -0.01714286
v -0.00986603 -0.02150000 -0.01714286
v -0.00976604 -0.02164279 -0.01714286
v -0.00970711 -0.02170711 -0.01714286
v -0.00964279 -0.02176604 -0.01714286
v -0.00957358 -0.02181915 -0.01714286
v -0.00950000 -0.02186603 -0.01714286
v -0.00942262 -0.02190631 -0.01714286
v -0.00925882 -0.02196593 -0.01714286
v -0.00878729 -0.01224650 -0.01714286
v -0.00894375 -0.01251469 -0.01714286
v -0.01000000 -0.01434412 -0.01714286
v 0.00824010 -0.01713720 -0.01714286
v 0.00825425 -0.01697291 -0.01714286
v 0.00826268 -0.01679859 -0.01714286
v 0.00826433 -0.01662126 -0.01714286
v 0.00824635 -0.01625519 -0.01714286
v 0.00786884 -0.01469321 -0.01714286
v 0.00822634 -0.01606586 -0.01714286
v 0.00770028 -0.01430459 -0.01714286
v 0.00778791 -0.01449750 -0.01714286
v 0.00750685 -0.01392882 -0.01714286
v 0.00717930 -0.01339936 -0.01714286
v 0.00729268 -0.01357079 -0.01714286
v 0.00811955 -0.01548438 -0.01714286
v 0.00706197 -0.01323721 -0.01714286
v 0.00681845 -0.01293687 -0.01714286
v 0.00643617 -0.01256722 -0.01714286
v 0.00656538 -0.01267844 -0.01714286
v 0.00800935 -0.01508840 -0.01714286
v 0.00576889 -0.01225295 -0.01714286
v 0.00630480 -0.01247369 -0.01714286
v 0.00794275 -0.01489053 -0.01714286
v 0.00822509 -0.01727893 -0.01714286
v 0.00819271 -0.01758445 -0.01714286
v 0.00552110 -0.02195893 -0.01714286
v 0.00525913 -0.02199103 -0.01714286
v 0.00550303 -0.02196174 -0.01714286
v 0.00504877 -0.02200000 -0.01714286
v 0.00742379 -0.02080291 -0.01714286
v 0.00724341 -0.02102040 -0.01714286
v 0.00733450 -0.02091592 -0.01714286
v 0.00714121 -0.02112734 -0.01714286
v 0.00723679 -0.02102785 -0.01714286
v 0.00692791 -0.02131995 -0.01714286
v 0.00702908 -0.02123327 -0.01714286
v 0.00680412 -0.02141626 -0.01714286
v 0.00680780 -0.02141357 -0.01714286
v 0.00645594 -0.02163699 -0.01714286
v 0.00656308 -0.02157633 -0.01714286
v 0.00656805 -0.02157337 -0.01714286
v 0.00619474 -0.02176290 -0.01714286
v 0.00630243 -0.02171483 -0.01714286
v 0.00630979 -0.02171147 -0.01714286
v 0.00605762 -0.02181708 -0.01714286
v 0.00577353 -0.02190533 -0.01714286
v 0.00591766 -0.02186448 -0.01714286
v 0.00797566 -0.01954692 -0.01714286
v 0.00794890 -0.01967547 -0.01714286
v 0.00795508 -0.01964578 -0.01714286
v 0.00791601 -0.01980465 -0.01714286
v 0.00787688 -0.01993391 -0.01714286
v 0.00783138 -0.02006281 -0.01714286
v 0.00777945 -0.02019090 -0.01714286
v 0.00772106 -0.02031774 -0.01714286
v 0.00772730 -0.02030419 -0.01714286
v 0.00758498 -0.02056571 -0.01714286
v 0.00758856 -0.02055954 -0.01714286
v 0.00750746 -0.02068589 -0.01714286
v 0.00750906 -0.02068342 -0.01714286
v 0.00745033 -0.02076579 -0.01714286
v -0.01000000 -0.02100000 -0.01714286
v 0.00435030 -0.02200000 -0.01714286
v -0.00998481 -0.02117365 -0.01714286
v -0.00996593 -0.02125882 -0.01714286
v -0.00990631 -0.02142262 -0.01714286
v -0.00981915 -0.02157358 -0.01714286
v -0.00934202 -0.02193969 -0.01714286
v -0.00917365 -0.02198481 -0.01714286
v -0.00908716 -0.02199619 -0.01714286
v 0.00563201 -0.01224676 -0.01714286
v 0.00510388 -0.01224640 -0.01714286
v 0.00825882 -0.01644149 -0.01714286
v 0.00819836 -0.01587621 -0.01714286
v 0.00760659 -0.01411356 -0.01714286
v 0.00740236 -0.01374528 -0.01714286
v 0.00816305 -0.01567969 -0.01714286
v 0.00694156 -0.01308257 -0.01714286
v 0.00669288 -0.01280224 -0.01714286
v 0.00806835 -0.01528641 -0.01714286
v 0.00590466 -0.01228009 -0.01714286
v 0.00603948 -0.01232564 -0.01714286
v 0.00617298 -0.01239005 -0.01714286
v 0.00804469 -0.01898144 -0.01714286
v 0.00536181 -0.02198090 -0.01714286
v 0.00540618 -0.02197576 -0.01714286
v 0.00551342 -0.02196018 -0.01714286
v 0.00522926 -0.02199286 -0.01714286
v 0.00703369 -0.02122914 -0.01714286
v 0.00691195 -0.02133275 -0.01714286
v 0.00692151 -0.02132532 -0.01714286
v 0.00668036 -0.02150252 -0.01714286
v 0.00668974 -0.02149641 -0.01714286
v 0.00669469 -0.02149303 -0.01714286
v 0.00643717 -0.02164740 -0.01714286
v 0.00619191 -0.02176415 -0.01714286
v 0.00643150 -0.02165031 -0.01714286
v 0.00643483 -0.02164862 -0.01714286
v 0.00603256 -0.02182584 -0.01714286
v 0.00604559 -0.02182144 -0.01714286
v 0.00617074 -0.02177291 -0.01714286
v 0.00618705 -0.02176626 -0.01714286
v 0.00562047 -0.02193998 -0.01714286
v 0.00566191 -0.02193186 -0.01714286
v 0.00567112 -0.02192971 -0.01714286
v 0.00589845 -0.02187007 -0.01714286
v 0.00799439 -0.01941816 -0.01714286
v 0.00800921 -0.01931620 -0.01714286
v 0.00783864 -0.02004223 -0.01714286
v 0.00765622 -0.02044283 -0.01714286
v 0.00286433 -0.02772039 -0.01028571
v 0.00530329 -0.02688356 -0.01028571
v 0.00535934 -0.02679590 -0.01028571
v 0.00534964 -0.02681151 -0.01028571
v 0.00541941 -0.02669416 -0.01028571
v 0.00568533 -0.02620858 -0.01028571
v 0.00473913 -0.02741132 -0.01028571
v 0.00458841 -0.02753104 -0.01028571
v 0.00444271 -0.02761485 -0.01028571
v 0.00430230 -0.02766421 -0.01028571
v 0.00513188 -0.01500000 -0.01028571
v 0.00527276 -0.01500331 -0.01028571
v 0.00538304 -0.01501053 -0.01028571
v 0.00556156 -0.01503093 -0.01028571
v 0.00563244 -0.01504205 -0.01028571
v 0.00570855 -0.01505595 -0.01028571
v 0.00587832 -0.01509435 -0.01028571
v 0.00600500 -0.01512987 -0.01028571
v 0.00614087 -0.01517551 -0.01028571
v 0.00635268 -0.01525962 -0.01028571
v 0.00644641 -0.01530333 -0.01028571
v 0.00657781 -0.01537145 -0.01028571
v 0.00673046 -0.01546139 -0.01028571
v 0.00679280 -0.01550173 -0.01028571
v 0.00686727 -0.01555287 -0.01028571
v 0.00699612 -0.01564955 -0.01028571
v 0.00712689 -0.01575948 -0.01028571
v 0.00718636 -0.01581388 -0.01028571
v 0.00724838 -0.01587387 -0.01028571
v 0.00736217 -0.01599355 -0.01028571
v 0.00747166 -0.01612239 -0.01028571
v 0.00752232 -0.01618732 -0.01028571
v 0.00757243 -0.01625538 -0.01028571
v 0.00766569 -0.01639381 -0.01028571
v 0.00775015 -0.01653553 -0.01028571
v 0.00779126 -0.01661158 -0.01028571
v 0.00789816 -0.01683909 -0.01028571
v 0.00794613 -0.01696185 -0.01028571
v 0.00805308 -0.01731693 -0.01028571
v 0.00807872 -0.01743776 -0.01028571
v -0.00778088 -0.02711565 -0.01028571
v -0.00778739 -0.02709832 -0.01028571
v -0.00772420 -0.02725188 -0.01028571
v -0.00774188 -0.02720948 -0.01028571
v -0.00760761 -0.02746938 -0.01028571
v -0.00761529 -0.02745689 -0.01028571
v -0.00743026 -0.02765771 -0.01028571
v -0.00735869 -0.02769075 -0.01028571
v -0.00730000 -0.02770102 -0.01028571
v 0.00785892 -0.02073454 -0.01028571
v 0.00778771 -0.02131803 -0.01028571
v 0.00702882 -0.02349292 -0.01028571
v 0.00771726 -0.02166672 -0.01028571
v 0.00767818 -0.02182906 -0.01028571
v 0.00766996 -0.02186306 -0.01028571
v 0.00763239 -0.02199972 -0.01028571
v 0.00758180 -0.02216924 -0.01028571
v 0.00752645 -0.02233722 -0.01028571
v 0.00748672 -0.02245078 -0.01028571
v 0.00746640 -0.02250327 -0.01028571
v 0.00741162 -0.02264388 -0.01028571
v 0.00713733 -0.02326608 -0.01028571
v 0.00787426 -0.02058985 -0.01028571
v -0.00999619 -0.02108716 -0.01028571
v -0.00998481 -0.02117365 -0.01028571
v -0.00996593 -0.02125882 -0.01028571
v -0.00993969 -0.02134202 -0.01028571
v -0.01000000 -0.02100000 -0.01028571
v -0.01000000 -0.01638564 -0.01028571
v 0.00416643 -0.02769021 -0.01028571
v 0.00559524 -0.02638165 -0.01028571
v 0.00554694 -0.02647283 -0.01028571
v 0.00519505 -0.02704444 -0.01028571
v 0.00525625 -0.01500292 -0.01028571
v 0.00537028 -0.01500969 -0.01028571
v 0.00554048 -0.01502851 -0.01028571
v 0.00562445 -0.01504080 -0.01028571
v 0.00569931 -0.01505425 -0.01028571
v 0.00585890 -0.01508994 -0.01028571
v 0.00598968 -0.01512556 -0.01028571
v 0.00610624 -0.01516287 -0.01028571
v 0.00611896 -0.01516704 -0.01028571
v 0.00634734 -0.01525730 -0.01028571
v 0.00643467 -0.01529784 -0.01028571
v 0.00656331 -0.01536391 -0.01028571
v 0.00671171 -0.01545030 -0.01028571
v 0.00678649 -0.01549763 -0.01028571
v 0.00685758 -0.01554619 -0.01028571
v 0.00698211 -0.01563900 -0.01028571
v 0.00711056 -0.01574570 -0.01028571
v 0.00718052 -0.01580851 -0.01028571
v 0.00724004 -0.01586577 -0.01028571
v 0.00735001 -0.01598071 -0.01028571
v 0.00745779 -0.01610599 -0.01028571
v 0.00751752 -0.01618114 -0.01028571
v 0.00756550 -0.01624591 -0.01028571
v 0.00765590 -0.01637920 -0.01028571
v 0.00773930 -0.01651721 -0.01028571
v 0.00778747 -0.01660452 -0.01028571
v 0.00789075 -0.01682263 -0.01028571
v 0.00798564 -0.01707476 -0.01028571
v 0.00807527 -0.01742120 -0.01028571
v 0.00809800 -0.01755166 -0.01028571
v 0.00810002 -0.01756389 -0.01028571
v 0.00812611 -0.01781391 -0.01028571
v 0.00813118 -0.01806524 -0.01028571
v -0.00768157 -0.02733894 -0.01028571
v -0.00766081 -0.02737971 -0.01028571
v -0.00754915 -0.02754957 -0.01028571
v -0.00748493 -0.02761725 -0.01028571
v -0.00736287 -0.02768930 -0.01028571
v -0.00741673 -0.02766616 -0.01028571
v -0.00730846 -0.02769984 -0.01028571
v 0.00791874 -0.02017004 -0.01028571
v 0.00811518 -0.01831611 -0.01028571
v 0.00783070 -0.02100090 -0.01028571
v -0.00920000 -0.01500000 -0.01028571
v 0.00778224 -0.02134744 -0.01028571
v 0.00775623 -0.02148695 -0.01028571
v 0.00723652 -0.02305554 -0.01028571
v 0.00761583 -0.02205965 -0.01028571
v 0.00755478 -0.02225579 -0.01028571
v 0.00732855 -0.02284281 -0.01028571
f 18 195 243
f 18 243 17
f 243 16 17
f 243 137 88
f 88 16 243
f 231 232 22
f 199 48 46
f 87 88 137
f 87 138 37
f 22 232 21
f 124 242 177
f 153 35 34
f 45 196 127
f 104 196 45
f 175 5 127
f 105 199 52
f 105 49 199
f 199 49 50
f 141 37 203
f 37 140 203
f 37 139 202
f 202 140 37
f 201 139 37
f 37 138 201
f 200 87 137
f 138 87 200
f 20 21 232
f 19 20 241
f 241 20 232
f 245 66 64
f 65 66 245
f 179 65 245
f 124 177 123
f 123 177 64
f 227 36 39
f 163 24 27
f 27 226 163
f 96 165 31
f 227 165 96
f 96 36 227
f 230 231 23
f 23 25 230
f 37 142 97
f 30 160 92
f 30 29 160
f 160 29 223
f 134 135 56
f 116 135 136
f 127 5 79
f 79 45 127
f 15 174 84
f 15 85 174
f 174 85 239
f 239 85 175
f 5 175 86
f 175 85 86
f 47 48 199
f 199 50 47
f 199 46 77
f 77 75 199
f 132 71 178
f 187 70 69
f 2 241 240
f 240 1 2
f 1 241 2
f 64 177 244
f 244 245 64
f 164 39 24
f 24 163 164
f 227 39 164
f 26 226 27
f 93 228 166
f 165 228 93
f 31 165 93
f 89 231 22
f 89 23 231
f 204 37 141
f 204 142 37
f 143 97 205
f 205 97 142
f 144 97 206
f 206 97 143
f 153 34 216
f 34 152 216
f 34 38 151
f 145 209 98
f 147 99 98
f 98 208 145
f 97 208 98
f 211 99 147
f 211 148 99
f 149 38 99
f 221 32 94
f 135 116 61
f 73 131 129
f 129 130 73
f 128 76 73
f 73 130 128
f 75 76 128
f 199 75 128
f 188 71 246
f 188 178 71
f 246 71 72
f 72 70 246
f 126 71 132
f 126 198 131
f 246 70 249
f 70 187 249
f 181 182 67
f 67 65 181
f 247 68 67
f 67 182 247
f 237 14 84
f 84 174 237
f 12 236 11
f 236 10 11
f 167 7 82
f 13 14 238
f 14 237 238
f 168 193 7
f 168 7 167
f 19 241 40
f 40 241 1
f 3 1 240
f 28 225 91
f 162 26 91
f 91 225 162
f 226 26 162
f 90 93 166
f 230 25 90
f 207 97 144
f 207 208 97
f 215 152 34
f 34 151 215
f 214 38 150
f 214 151 38
f 146 98 209
f 99 148 212
f 212 149 99
f 150 38 213
f 38 149 213
f 220 33 156
f 95 156 33
f 157 221 94
f 94 33 157
f 157 33 220
f 29 32 159
f 159 223 29
f 60 113 135
f 55 56 135
f 107 133 134
f 199 133 107
f 117 118 135
f 135 61 117
f 136 196 119
f 119 120 136
f 197 126 132
f 198 126 197
f 74 131 73
f 74 126 131
f 186 187 69
f 69 185 186
f 125 185 69
f 68 185 125
f 184 68 248
f 184 185 68
f 180 65 179
f 180 181 65
f 248 68 183
f 68 247 183
f 235 9 10
f 235 10 236
f 83 9 235
f 12 13 173
f 13 238 173
f 173 236 12
f 1 100 41
f 41 40 1
f 4 100 1
f 1 3 4
f 124 100 4
f 4 176 242
f 4 242 124
f 189 3 240
f 176 4 189
f 189 4 3
f 161 28 92
f 225 28 161
f 230 90 229
f 229 90 166
f 147 98 210
f 98 146 210
f 219 95 155
f 156 95 219
f 217 35 153
f 217 154 35
f 35 154 218
f 218 95 35
f 155 95 218
f 32 221 158
f 111 55 135
f 108 109 134
f 53 54 134
f 134 54 106
f 106 107 134
f 52 199 51
f 199 107 51
f 136 122 63
f 62 122 136
f 83 235 171
f 171 8 83
f 172 8 171
f 167 82 170
f 82 169 170
f 82 8 234
f 234 8 172
f 92 160 224
f 224 161 92
f 222 159 32
f 32 158 222
f 135 118 112
f 112 58 135
f 59 60 135
f 135 58 59
f 135 113 114
f 114 111 135
f 134 56 57
f 57 108 134
f 134 109 110
f 110 53 134
f 115 116 136
f 136 63 115
f 136 120 121
f 121 62 136
f 43 196 104
f 42 119 196
f 233 169 82
f 82 234 233
f 101 102 196
f 196 43 101
f 196 102 44
f 103 42 196
f 196 44 103
f 194 195 18
f 18 78 194
f 194 78 6
f 6 190 194
f 191 190 80
f 80 190 6
f 193 192 81
f 7 193 81
f 191 80 81
f 81 192 191
f 179 245 233
f 232 231 233
f 174 239 233
f 233 175 127
f 136 135 233
f 233 228 165
f 233 243 195
f 233 212 148
f 242 176 233
f 233 241 232
f 233 137 243
f 139 201 233
f 233 190 191
f 233 165 227
f 226 162 233
f 233 133 199
f 127 196 233
f 187 186 233
f 233 231 230
f 195 194 233
f 233 234 172
f 233 214 150
f 134 133 233
f 233 135 134
f 233 196 136
f 233 129 131
f 141 203 233
f 233 202 139
f 233 200 137
f 233 180 179
f 233 235 236
f 233 177 242
f 227 164 233
f 233 244 177
f 143 205 233
f 144 206 233
f 152 215 233
f 160 223 233
f 199 128 233
f 223 159 233
f 233 203 140
f 140 202 233
f 233 201 138
f 138 200 233
f 233 194 190
f 246 249 233
f 233 173 238
f 240 241 233
f 233 168 167
f 233 163 226
f 233 189 240
f 233 204 141
f 153 216 233
f 233 209 145
f 233 211 147
f 220 156 233
f 233 239 175
f 233 219 155
f 132 178 233
f 131 198 233
f 233 188 246
f 233 184 248
f 248 183 233
f 236 173 233
f 172 171 233
f 245 244 233
f 233 164 163
f 191 192 233
f 166 228 233
f 142 204 233
f 233 205 142
f 233 206 143
f 145 208 233
f 233 216 152
f 233 207 144
f 148 211 233
f 230 229 233
f 150 213 233
f 233 157 220
f 130 129 233
f 233 128 130
f 178 188 233
f 233 197 132
f 233 249 187
f 182 181 233
f 233 247 182
f 233 237 174
f 233 238 237
f 193 168 233
f 233 192 193
f 233 162 225
f 208 207 233
f 233 215 151
f 151 214 233
f 233 146 209
f 149 212 233
f 233 213 149
f 147 210 233
f 233 217 153
f 221 157 233
f 155 218 233
f 198 197 233
f 233 186 185
f 185 184 233
f 181 180 233
f 233 183 247
f 233 158 221
f 167 170 233
f 176 189 233
f 225 161 233
f 233 229 166
f 233 210 146
f 156 219 233
f 154 217 233
f 233 218 154
f 233 224 160
f 233 171 235
f 233 170 169
f 159 222 233
f 161 224 233
f 233 222 158
f 69 70 103
f 104 45 103
f 124 123 103
f 103 38 34
f 103 87 37
f 103 39 36
f 5 86 103
f 18 17 103
f 103 78 18
f 103 72 71
f 22 21 103
f 31 93 103
f 103 89 22
f 103 79 5
f 103 17 16
f 16 88 103
f 6 78 103
f 67 68 103
f 103 80 6
f 64 66 103
f 103 65 67
f 19 40 103
f 36 96 103
f 103 30 92
f 94 32 103
f 103 105 52
f 103 46 48
f 48 47 103
f 88 87 103
f 84 14 103
f 116 115 103
f 103 20 19
f 27 24 103
f 103 26 27
f 103 34 35
f 37 97 103
f 103 90 25
f 35 95 103
f 103 106 54
f 103 15 84
f 49 105 103
f 103 50 49
f 73 76 103
f 103 77 46
f 103 13 12
f 12 11 103
f 21 20 103
f 103 66 65
f 103 123 64
f 24 39 103
f 103 100 124
f 103 96 31
f 25 23 103
f 97 98 103
f 99 38 103
f 29 30 103
f 103 33 94
f 103 32 29
f 103 98 99
f 60 59 103
f 45 79 103
f 85 15 103
f 103 86 85
f 103 47 50
f 103 76 75
f 75 77 103
f 52 51 103
f 103 74 73
f 103 14 13
f 103 9 83
f 83 8 103
f 103 125 69
f 91 26 103
f 92 28 103
f 23 89 103
f 103 41 100
f 56 55 103
f 103 61 116
f 118 117 103
f 70 72 103
f 71 126 103
f 10 9 103
f 103 11 10
f 103 82 7
f 7 81 103
f 103 28 91
f 93 90 103
f 103 95 33
f 113 60 103
f 103 121 120
f 103 114 113
f 54 53 103
f 103 117 61
f 103 110 109
f 120 119 103
f 126 74 103
f 68 125 103
f 103 8 82
f 103 81 80
f 40 41 103
f 103 112 118
f 55 111 103
f 109 108 103
f 103 57 56
f 107 106 103
f 103 51 107
f 103 63 122
f 122 62 103
f 103 43 104
f 58 112 103
f 103 59 58
f 111 114 103
f 108 57 103
f 53 110 103
f 103 115 63
f 62 121 103
f 119 42 103
f 102 101 103
f 103 101 43
f 103 44 102

