# https://github.com/mikedh/trimesh
v 0.00522943 -0.01851911 0.01674592
v 0.00513804 -0.01910537 0.01204003
v 0.00505183 -0.01965831 0.01099338
v -0.00468248 -0.00800747 0.01600000
v -0.00711621 -0.00825835 0.01600000
v 0.00629658 -0.00839785 0.01707164
v 0.00623274 -0.00840443 0.01697323
v 0.00616579 -0.00841134 0.01687868
v 0.00517103 -0.00851388 0.01610222
v 0.00498203 -0.00853337 0.01604558
v 0.00479010 -0.00855315 0.01601142
v 0.00570621 -0.00845871 0.01640192
v 0.00553450 -0.00847641 0.01628108
v 0.00535565 -0.00849485 0.01618092
v 0.00602306 -0.00842605 0.01670187
v 0.00586949 -0.00844188 0.01654254
v 0.00564029 -0.01588386 0.01641292
v 0.00570531 -0.01546679 0.01687696
v 0.00454148 -0.02180919 0.01028571
v 0.00438326 -0.02222145 0.01028571
v 0.00435141 -0.02229850 0.01028571
v 0.00467493 -0.02142086 0.01028571
v 0.00487948 -0.02065862 0.01028571
v 0.00419935 -0.02266143 0.01028571
v -0.00814888 -0.02161686 0.01028571
v -0.00813963 -0.02178250 0.01028571
v -0.00812664 -0.02186190 0.01028571
v -0.00779518 -0.01701786 0.01028571
v 0.00354417 -0.01450748 0.01028571
v 0.00354905 -0.01450740 0.01028571
v 0.00375869 -0.01451310 0.01028571
v 0.00386233 -0.01452629 0.01028571
v 0.00386974 -0.01452779 0.01028571
v 0.00407583 -0.01457677 0.01028571
v 0.00408076 -0.01457846 0.01028571
v 0.00415366 -0.01460351 0.01028571
v 0.00438873 -0.01471462 0.01028571
v 0.00447567 -0.01476868 0.01028571
v 0.00439431 -0.01471808 0.01028571
v 0.00458637 -0.01484923 0.01028571
v 0.00448202 -0.01477326 0.01028571
v 0.00462393 -0.01487982 0.01028571
v 0.00458902 -0.01485136 0.01028571
v 0.00476228 -0.01500901 0.01028571
v 0.00493666 -0.01521731 0.01028571
v 0.00500544 -0.01531778 0.01028571
v 0.00494123 -0.01522395 0.01028571
v 0.00508189 -0.01544569 0.01028571
v 0.00500968 -0.01532482 0.01028571
v 0.00510855 -0.01549519 0.01028571
v 0.00508389 -0.01544939 0.01028571
v 0.00511042 -0.01549890 0.01028571
v 0.00519835 -0.01568632 0.01028571
v 0.00514928 -0.01557713 0.01028571
v 0.00525453 -0.01583205 0.01028571
v 0.00520142 -0.01569421 0.01028571
v 0.00527420 -0.01588983 0.01028571
v 0.00525605 -0.01583649 0.01028571
v 0.00533558 -0.01610429 0.01028571
v 0.00530170 -0.01597906 0.01028571
v 0.00538206 -0.01632820 0.01028571
v 0.00542423 -0.01669533 0.01028571
v 0.00541388 -0.01656687 0.01028571
v 0.00542461 -0.01670287 0.01028571
v 0.00542910 -0.01679802 0.01028571
v 0.00542933 -0.01704063 0.01028571
v 0.00541401 -0.01728611 0.01028571
v -0.00668960 -0.02788054 0.01028571
v -0.00676754 -0.02784306 0.01028571
v -0.00685163 -0.02773007 0.01028571
v -0.00688964 -0.02764603 0.01028571
v -0.00692942 -0.02752940 0.01028571
v -0.00691695 -0.02756863 0.01028571
v -0.00695240 -0.02744748 0.01028571
v -0.00697560 -0.02734745 0.01028571
v 0.00221322 -0.02668266 0.01028571
v 0.00271996 -0.02602396 0.01028571
v 0.00266793 -0.02612201 0.01028571
v 0.00287807 -0.02570173 0.01028571
v 0.00497038 -0.02018073 0.01028571
v -0.00710166 -0.01560168 0.01028571
v -0.00814507 -0.02153189 0.01028571
v 0.00495466 -0.02026999 0.01028571
v 0.00446640 -0.02200673 0.01028571
v 0.00478839 -0.02103025 0.01028571
v 0.00473416 -0.02122550 0.01028571
v 0.00491520 -0.02049177 0.01028571
v 0.00483764 -0.02083577 0.01028571
v 0.00461070 -0.02161566 0.01028571
v 0.00429518 -0.02243398 0.01028571
v -0.00814706 -0.02170061 0.01028571
v -0.00382031 -0.02758758 0.01028571
v 0.00176875 -0.02699679 0.01028571
v 0.00344653 -0.01451449 0.01028571
v 0.00344027 -0.01451494 0.01028571
v 0.00363207 -0.01450659 0.01028571
v 0.00362422 -0.01450620 0.01028571
v 0.00375558 -0.01451277 0.01028571
v 0.00380859 -0.01451860 0.01028571
v 0.00380527 -0.01451812 0.01028571
v 0.00398763 -0.01455216 0.01028571
v 0.00398217 -0.01455064 0.01028571
v 0.00428834 -0.01466129 0.01028571
v 0.00427835 -0.01465687 0.01028571
v 0.00432249 -0.01467849 0.01028571
v 0.00431856 -0.01467635 0.01028571
v 0.00462697 -0.01488247 0.01028571
v 0.00468567 -0.01493439 0.01028571
v 0.00468033 -0.01492921 0.01028571
v 0.00476755 -0.01501486 0.01028571
v 0.00485838 -0.01511659 0.01028571
v 0.00485594 -0.01511358 0.01028571
v 0.00489219 -0.01515855 0.01028571
v 0.00488975 -0.01515534 0.01028571
v 0.00514571 -0.01556926 0.01028571
v 0.00533736 -0.01611228 0.01028571
v 0.00541330 -0.01655999 0.01028571
v 0.00538321 -0.01753274 0.01028571
v -0.00673246 -0.02786809 0.01028571
v -0.00681037 -0.02779676 0.01028571
v -0.00677712 -0.02783561 0.01028571
v -0.00681491 -0.02779106 0.01028571
v -0.00695589 -0.02743417 0.01028571
v -0.00698591 -0.02730181 0.01028571
v 0.00209244 -0.02681273 0.01028571
v 0.00211046 -0.02679357 0.01028571
v 0.00197812 -0.02690686 0.01028571
v 0.00200065 -0.02688865 0.01028571
v 0.00260937 -0.02622880 0.01028571
v 0.00257927 -0.02628260 0.01028571
v 0.00272000 -0.02602389 0.01028571
v 0.00277181 -0.02591948 0.01028571
v 0.00301476 -0.02539816 0.01028571
v 0.00189518 -0.02695313 0.01028571
v 0.00187041 -0.02696645 0.01028571
v 0.00525919 -0.01832828 0.01028571
v 0.00502759 -0.01981385 0.01028571
v 0.00506877 -0.01954963 0.01028571
v 0.00446042 -0.02034793 0.01714286
v 0.00521098 -0.01861915 0.01714286
v 0.00518765 -0.01874551 0.01714286
v 0.00302266 -0.02134029 0.01714286
v 0.00321514 -0.02128769 0.01714286
v 0.00320501 -0.02129091 0.01714286
v 0.00313254 -0.02131272 0.01714286
v 0.00331667 -0.02125119 0.01714286
v 0.00351160 -0.02116359 0.01714286
v 0.00370208 -0.02105466 0.01714286
v 0.00380867 -0.02098350 0.01714286
v 0.00372631 -0.02103911 0.01714286
v 0.00381950 -0.02097577 0.01714286
v 0.00400437 -0.02083124 0.01714286
v 0.00419235 -0.02065621 0.01714286
v 0.00410999 -0.02073651 0.01714286
v 0.00428036 -0.02056319 0.01714286
v 0.00419845 -0.02065004 0.01714286
v 0.00428968 -0.02055304 0.01714286
v 0.00476103 -0.01988897 0.01714286
v 0.00499625 -0.01938671 0.01714286
v 0.00498935 -0.01940364 0.01714286
v 0.00508652 -0.01912942 0.01714286
v 0.00515844 -0.01887268 0.01714286
v 0.00284815 -0.02136907 0.01714286
v 0.00482650 -0.01976610 0.01714286
v 0.00469097 -0.02000982 0.01714286
v 0.00461765 -0.02012639 0.01714286
v 0.00453896 -0.02024168 0.01714286
v -0.00468248 -0.00800747 0.01714286
v 0.00633886 -0.00839349 0.01714286
v 0.00574968 -0.01518218 0.01714286
v 0.00579999 -0.01480961 0.01714286
v 0.00579391 -0.01485769 0.01714286
v 0.00584331 -0.01435334 0.01714286
v 0.00584205 -0.01436825 0.01714286
v 0.00522943 -0.01851912 0.01714286
v 0.00566609 -0.01571838 0.01714286
v -0.00814888 -0.02161686 0.01714286
v -0.00813963 -0.02178250 0.01714286
v -0.00808444 -0.02201086 0.01714286
v -0.00798325 -0.02220141 0.01714286
v -0.00794041 -0.02225419 0.01714286
v -0.00789353 -0.02230089 0.01714286
v -0.00784296 -0.02234117 0.01714286
v -0.00767313 -0.02242061 0.01714286
v -0.00761192 -0.02243263 0.01714286
v -0.00754916 -0.02243720 0.01714286
v -0.00748534 -0.02243432 0.01714286
v -0.00814507 -0.02153189 0.01714286
v -0.00814706 -0.02170061 0.01714286
v -0.00812664 -0.02186190 0.01714286
v -0.00810820 -0.02193821 0.01714286
v -0.00805554 -0.02207928 0.01714286
v -0.00802172 -0.02214296 0.01714286
v -0.00778910 -0.02237471 0.01714286
v -0.00773234 -0.02240125 0.01714286
v 0.00297942 -0.02134802 0.01714286
v 0.00302032 -0.02134080 0.01714286
v 0.00310751 -0.02131972 0.01714286
v 0.00331201 -0.02125298 0.01714286
v 0.00341633 -0.02120933 0.01714286
v 0.00340070 -0.02121611 0.01714286
v 0.00361099 -0.02110979 0.01714286
v 0.00360687 -0.02111208 0.01714286
v 0.00350733 -0.02116571 0.01714286
v 0.00362044 -0.02110431 0.01714286
v 0.00371575 -0.02104617 0.01714286
v 0.00381873 -0.02097634 0.01714286
v 0.00390505 -0.02091204 0.01714286
v 0.00410114 -0.02074495 0.01714286
v 0.00409569 -0.02074986 0.01714286
v 0.00400278 -0.02083256 0.01714286
v 0.00391970 -0.02090051 0.01714286
v 0.00391212 -0.02090661 0.01714286
v 0.00419825 -0.02065025 0.01714286
v 0.00419557 -0.02065300 0.01714286
v 0.00410368 -0.02074258 0.01714286
v 0.00428546 -0.02055776 0.01714286
v 0.00437451 -0.02045528 0.01714286
v 0.00437026 -0.02046028 0.01714286
v 0.00428659 -0.02055651 0.01714286
v 0.00494420 -0.01951451 0.01714286
v 0.00504369 -0.01925821 0.01714286
v 0.00515077 -0.01890186 0.01714286
v 0.00512476 -0.01900078 0.01714286
v 0.00511690 -0.01902721 0.01714286
v 0.00493819 -0.01952794 0.01714286
v 0.00488760 -0.01964112 0.01714286
v 0.00469156 -0.02000885 0.01714286
v -0.00711621 -0.00825835 0.01714286
v 0.00577309 -0.01502224 0.01714286
v 0.00582385 -0.01458413 0.01714286
v 0.00555902 -0.01640514 0.01714286
f 4 168 169
f 10 11 4
f 10 4 9
f 9 4 14
f 13 4 12
f 14 4 13
f 12 4 16
f 187 68 92
f 10 9 102
f 98 4 11
f 98 11 10
f 172 230 118
f 118 171 172
f 118 230 170
f 169 66 65
f 169 173 67
f 67 66 169
f 231 171 67
f 67 171 118
f 169 117 61
f 41 13 12
f 12 40 41
f 12 16 109
f 92 93 163
f 163 187 92
f 5 81 28
f 101 9 34
f 101 102 9
f 33 32 10
f 10 102 33
f 95 4 94
f 4 29 94
f 4 97 30
f 30 29 4
f 96 97 4
f 4 98 96
f 87 140 141
f 175 140 87
f 231 67 174
f 174 67 173
f 169 59 60
f 60 57 169
f 116 59 169
f 169 61 116
f 8 7 48
f 4 7 8
f 14 13 106
f 196 93 197
f 196 163 93
f 185 184 68
f 10 32 99
f 99 100 10
f 31 98 10
f 10 100 31
f 89 161 222
f 63 117 169
f 169 62 63
f 169 65 64
f 64 62 169
f 56 53 169
f 169 55 56
f 169 57 58
f 58 55 169
f 169 53 6
f 6 115 7
f 6 4 169
f 6 7 4
f 15 112 16
f 8 46 15
f 15 16 4
f 4 8 15
f 36 9 14
f 43 40 12
f 12 42 43
f 12 109 107
f 107 42 12
f 76 130 217
f 68 187 186
f 186 185 68
f 27 124 190
f 73 71 179
f 71 70 192
f 179 71 192
f 182 181 121
f 183 121 69
f 182 121 183
f 118 17 2
f 17 232 2
f 175 87 83
f 83 80 175
f 118 170 18
f 18 17 118
f 22 161 89
f 23 87 141
f 164 78 77
f 166 167 130
f 218 130 139
f 130 167 139
f 19 222 159
f 89 222 19
f 90 221 24
f 160 20 159
f 160 221 20
f 24 221 133
f 133 227 79
f 48 7 51
f 7 50 51
f 7 115 52
f 52 50 7
f 54 6 53
f 115 6 54
f 49 8 48
f 49 46 8
f 45 15 47
f 47 15 46
f 13 41 38
f 105 106 13
f 13 37 105
f 104 36 14
f 34 9 35
f 9 36 35
f 108 109 16
f 16 44 108
f 16 112 110
f 110 44 16
f 93 145 198
f 135 145 93
f 135 134 147
f 152 125 210
f 154 216 125
f 76 217 126
f 75 190 124
f 123 190 75
f 191 123 74
f 191 190 123
f 74 72 191
f 72 73 191
f 191 73 179
f 193 192 70
f 193 70 122
f 122 180 193
f 120 121 181
f 120 181 180
f 120 180 122
f 194 183 119
f 119 195 194
f 119 183 69
f 184 195 119
f 68 184 119
f 1 232 175
f 1 2 232
f 175 80 1
f 176 18 170
f 162 23 141
f 85 224 86
f 161 22 86
f 78 164 158
f 158 129 78
f 130 129 158
f 227 164 132
f 79 227 132
f 130 158 228
f 159 20 84
f 84 19 159
f 20 221 21
f 221 90 21
f 227 133 226
f 226 133 221
f 113 15 45
f 113 114 15
f 112 15 111
f 15 114 111
f 39 37 13
f 13 38 39
f 14 106 103
f 103 104 14
f 197 93 142
f 93 198 142
f 143 135 199
f 125 216 209
f 209 210 125
f 125 215 153
f 153 154 125
f 214 215 125
f 125 156 214
f 155 156 125
f 125 126 155
f 155 126 217
f 219 130 218
f 219 157 130
f 220 217 130
f 130 157 220
f 150 127 149
f 127 128 212
f 148 205 127
f 134 127 202
f 127 205 202
f 118 2 136
f 223 224 85
f 85 162 223
f 88 162 85
f 23 162 88
f 161 86 225
f 225 86 224
f 131 164 77
f 131 132 164
f 165 166 130
f 130 228 165
f 145 135 144
f 135 143 144
f 204 135 147
f 204 200 135
f 135 200 201
f 127 208 151
f 211 212 128
f 211 128 125
f 211 125 152
f 213 208 127
f 127 212 213
f 206 127 150
f 206 148 127
f 147 134 203
f 134 202 203
f 3 136 2
f 2 1 3
f 80 137 3
f 3 1 80
f 199 135 146
f 135 201 146
f 207 149 127
f 127 151 207
f 138 3 137
f 136 3 138
f 229 168 4
f 5 229 4
f 4 95 81
f 4 81 5
f 188 229 5
f 5 28 188
f 28 82 188
f 188 82 25
f 25 177 188
f 91 189 177
f 91 177 25
f 176 232 17
f 17 18 176
f 189 91 178
f 91 26 178
f 178 26 27
f 27 190 178
f 169 168 207
f 207 170 230
f 207 168 229
f 229 188 207
f 207 186 187
f 230 172 207
f 207 173 169
f 207 196 197
f 182 183 207
f 207 181 182
f 207 176 170
f 207 171 231
f 207 188 177
f 231 174 207
f 159 222 207
f 207 172 171
f 179 192 207
f 141 140 207
f 218 139 207
f 187 163 207
f 207 160 159
f 207 155 217
f 207 153 215
f 208 213 207
f 207 140 175
f 175 232 207
f 207 162 141
f 207 174 173
f 163 196 207
f 207 143 199
f 227 226 207
f 150 149 207
f 184 185 207
f 177 189 207
f 180 181 207
f 207 193 180
f 207 195 184
f 207 222 161
f 207 228 158
f 161 225 207
f 197 142 207
f 152 210 207
f 207 209 216
f 185 186 207
f 207 206 150
f 207 191 179
f 207 183 194
f 224 223 207
f 207 164 227
f 167 166 207
f 207 139 167
f 221 160 207
f 207 198 145
f 145 144 207
f 216 154 207
f 215 214 207
f 207 219 218
f 217 220 207
f 207 151 208
f 190 191 207
f 192 193 207
f 194 195 207
f 232 176 207
f 189 178 207
f 207 158 164
f 207 226 221
f 207 142 198
f 166 165 207
f 207 204 147
f 210 209 207
f 154 153 207
f 207 214 156
f 156 155 207
f 157 219 207
f 207 220 157
f 147 203 207
f 207 211 152
f 205 148 207
f 207 202 205
f 207 178 190
f 207 223 162
f 207 225 224
f 207 165 228
f 207 144 143
f 200 204 207
f 207 201 200
f 199 146 207
f 212 211 207
f 207 213 212
f 148 206 207
f 207 203 202
f 207 146 201
f 122 70 138
f 138 61 117
f 59 116 138
f 81 95 138
f 25 82 138
f 27 26 138
f 138 93 92
f 92 68 138
f 138 129 130
f 138 67 118
f 138 135 93
f 32 33 138
f 97 96 138
f 98 31 138
f 85 86 138
f 138 133 79
f 138 52 115
f 37 39 138
f 138 28 81
f 76 126 138
f 138 101 34
f 95 94 138
f 138 30 97
f 138 130 76
f 138 65 66
f 66 67 138
f 138 64 65
f 138 60 59
f 138 41 40
f 45 47 138
f 138 49 48
f 34 35 138
f 74 123 138
f 138 72 74
f 71 73 138
f 102 101 138
f 138 33 102
f 138 94 29
f 29 30 138
f 138 96 98
f 138 99 32
f 68 119 138
f 138 83 87
f 138 90 24
f 117 63 138
f 53 56 138
f 57 60 138
f 138 116 61
f 138 58 57
f 20 21 138
f 40 43 138
f 138 107 109
f 138 110 112
f 138 82 28
f 138 124 27
f 138 91 25
f 138 70 71
f 100 99 138
f 138 31 100
f 138 119 69
f 138 22 89
f 87 23 138
f 89 19 138
f 138 63 62
f 62 64 138
f 138 56 55
f 55 58 138
f 48 51 138
f 138 54 53
f 138 38 41
f 106 105 138
f 138 43 42
f 42 107 138
f 109 108 138
f 138 127 134
f 125 128 138
f 138 75 124
f 138 73 72
f 69 121 138
f 138 120 122
f 80 83 138
f 138 103 106
f 77 78 138
f 79 132 138
f 138 84 20
f 24 133 138
f 138 51 50
f 50 52 138
f 115 54 138
f 46 49 138
f 138 113 45
f 138 47 46
f 112 111 138
f 138 105 37
f 36 104 138
f 138 35 36
f 138 108 44
f 44 110 138
f 134 135 138
f 138 126 125
f 138 128 127
f 123 75 138
f 138 26 91
f 121 120 138
f 138 86 22
f 78 129 138
f 138 88 85
f 19 84 138
f 138 21 90
f 114 113 138
f 138 111 114
f 138 39 38
f 104 103 138
f 138 131 77
f 23 88 138
f 132 131 138

