# https://github.com/mikedh/trimesh
v 0.00800921 -0.01931619 0.01674592
v 0.00794623 -0.01991060 0.01204003
v 0.00788683 -0.02047122 0.01099338
v -0.00669131 -0.00743145 0.01600000
v -0.01000000 -0.00743145 0.01600000
v 0.00839654 -0.00900000 0.01707164
v 0.00830975 -0.00900000 0.01697323
v 0.00821873 -0.00900000 0.01687868
v 0.00686634 -0.00900000 0.01610222
v 0.00660940 -0.00900000 0.01604558
v 0.00634847 -0.00900000 0.01601142
v 0.00759393 -0.00900000 0.01640192
v 0.00736049 -0.00900000 0.01628108
v 0.00711734 -0.00900000 0.01618092
v 0.00802469 -0.00900000 0.01670187
v 0.00781590 -0.00900000 0.01654254
v 0.00829233 -0.01664431 0.01641292
v 0.00833714 -0.01622145 0.01687696
v 0.00741589 -0.02263341 0.01028571
v 0.00724285 -0.02304142 0.01028571
v 0.00720739 -0.02311743 0.01028571
v 0.00755753 -0.02224742 0.01028571
v 0.00775689 -0.02148369 0.01028571
v 0.00703755 -0.02347526 0.01028571
v -0.00999619 -0.02108716 0.01028571
v -0.00996593 -0.02125882 0.01028571
v -0.00993969 -0.02134202 0.01028571
v -0.01000000 -0.01638564 0.01028571
v 0.00527347 -0.01500334 0.01028571
v 0.00528016 -0.01500378 0.01028571
v 0.00556807 -0.01503192 0.01028571
v 0.00571150 -0.01505653 0.01028571
v 0.00572181 -0.01505886 0.01028571
v 0.00600945 -0.01513122 0.01028571
v 0.00601639 -0.01513349 0.01028571
v 0.00611896 -0.01516704 0.01028571
v 0.00645291 -0.01530651 0.01028571
v 0.00657781 -0.01537145 0.01028571
v 0.00646093 -0.01531067 0.01028571
v 0.00673808 -0.01546621 0.01028571
v 0.00658699 -0.01537685 0.01028571
v 0.00679280 -0.01550173 0.01028571
v 0.00674193 -0.01546869 0.01028571
v 0.00699612 -0.01564955 0.01028571
v 0.00725723 -0.01588272 0.01028571
v 0.00736217 -0.01599355 0.01028571
v 0.00726420 -0.01589004 0.01028571
v 0.00748052 -0.01613348 0.01028571
v 0.00736873 -0.01600126 0.01028571
v 0.00752232 -0.01618732 0.01028571
v 0.00748366 -0.01613751 0.01028571
v 0.00752528 -0.01619134 0.01028571
v 0.00766569 -0.01639381 0.01028571
v 0.00758684 -0.01627608 0.01028571
v 0.00775816 -0.01654995 0.01028571
v 0.00767073 -0.01640227 0.01028571
v 0.00779126 -0.01661158 0.01028571
v 0.00776072 -0.01655468 0.01028571
v 0.00789816 -0.01683909 0.01028571
v 0.00783843 -0.01670645 0.01028571
v 0.00798564 -0.01707476 0.01028571
v 0.00808243 -0.01745755 0.01028571
v 0.00805461 -0.01732408 0.01028571
v 0.00808375 -0.01746536 0.01028571
v 0.00810002 -0.01756389 0.01028571
v 0.00812611 -0.01781391 0.01028571
v 0.00813118 -0.01806524 0.01028571
v -0.00733093 -0.02769664 0.01028571
v -0.00744173 -0.02764974 0.01028571
v -0.00756898 -0.02752438 0.01028571
v -0.00762999 -0.02743374 0.01028571
v -0.00769690 -0.02730933 0.01028571
v -0.00767564 -0.02735108 0.01028571
v -0.00773709 -0.02722248 0.01028571
v -0.00777951 -0.02711693 0.01028571
v 0.00474280 -0.02740800 0.01028571
v 0.00536729 -0.02678306 0.01028571
v 0.00530640 -0.02687857 0.01028571
v 0.00554974 -0.02646781 0.01028571
v 0.00783070 -0.02100090 0.01028571
v -0.00920000 -0.01500000 0.01028571
v -0.01000000 -0.02100000 0.01028571
v 0.00781863 -0.02109121 0.01028571
v 0.00733398 -0.02282899 0.01028571
v 0.00767152 -0.02185697 0.01028571
v 0.00761795 -0.02205240 0.01028571
v 0.00778812 -0.02131556 0.01028571
v 0.00771836 -0.02166179 0.01028571
v 0.00749019 -0.02244133 0.01028571
v 0.00714471 -0.02325106 0.01028571
v -0.00998481 -0.02117365 0.01028571
v -0.00342981 -0.02769955 0.01028571
v 0.00416703 -0.02768448 0.01028571
v 0.00514041 -0.01500020 0.01028571
v 0.00513188 -0.01500000 0.01028571
v 0.00539384 -0.01501176 0.01028571
v 0.00538304 -0.01501053 0.01028571
v 0.00556376 -0.01503125 0.01028571
v 0.00563703 -0.01504289 0.01028571
v 0.00563244 -0.01504205 0.01028571
v 0.00588596 -0.01509649 0.01028571
v 0.00587832 -0.01509435 0.01028571
v 0.00630967 -0.01524089 0.01028571
v 0.00629551 -0.01523528 0.01028571
v 0.00635830 -0.01526224 0.01028571
v 0.00635268 -0.01525962 0.01028571
v 0.00679724 -0.01550478 0.01028571
v 0.00688321 -0.01556452 0.01028571
v 0.00687534 -0.01555861 0.01028571
v 0.00700397 -0.01565614 0.01028571
v 0.00713926 -0.01577061 0.01028571
v 0.00713559 -0.01576725 0.01028571
v 0.00719004 -0.01581744 0.01028571
v 0.00718636 -0.01581388 0.01028571
v 0.00758112 -0.01626759 0.01028571
v 0.00790145 -0.01684751 0.01028571
v 0.00805308 -0.01731693 0.01028571
v 0.00811518 -0.01831611 0.01028571
v -0.00739099 -0.02767926 0.01028571
v -0.00750534 -0.02759748 0.01028571
v -0.00745565 -0.02764105 0.01028571
v -0.00751218 -0.02759112 0.01028571
v -0.00774329 -0.02720839 0.01028571
v -0.00779850 -0.02706881 0.01028571
v 0.00459108 -0.02752920 0.01028571
v 0.00461375 -0.02751137 0.01028571
v 0.00444442 -0.02761405 0.01028571
v 0.00447335 -0.02759768 0.01028571
v 0.00523749 -0.02698239 0.01028571
v 0.00520196 -0.02703464 0.01028571
v 0.00536733 -0.02678299 0.01028571
v 0.00542725 -0.02668091 0.01028571
v 0.00570482 -0.02616951 0.01028571
v 0.00433566 -0.02765292 0.01028571
v 0.00430313 -0.02766401 0.01028571
v 0.00802972 -0.01912271 0.01028571
v 0.00787012 -0.02062892 0.01028571
v 0.00789850 -0.02036103 0.01028571
v 0.00714958 -0.02111903 0.01714286
v 0.00799454 -0.01941732 0.01714286
v 0.00797600 -0.01954505 0.01714286
v 0.00528459 -0.02198888 0.01714286
v 0.00554280 -0.02195513 0.01714286
v 0.00552926 -0.02195737 0.01714286
v 0.00543226 -0.02197215 0.01714286
v 0.00567806 -0.02192830 0.01714286
v 0.00593590 -0.02185874 0.01714286
v 0.00618537 -0.02176673 0.01714286
v 0.00632389 -0.02170472 0.01714286
v 0.00621693 -0.02175328 0.01714286
v 0.00633791 -0.02169791 0.01714286
v 0.00657592 -0.02156861 0.01714286
v 0.00681494 -0.02140822 0.01714286
v 0.00671060 -0.02148222 0.01714286
v 0.00692568 -0.02132171 0.01714286
v 0.00682265 -0.02140251 0.01714286
v 0.00693737 -0.02131224 0.01714286
v 0.00751279 -0.02067802 0.01714286
v 0.00778180 -0.02018545 0.01714286
v 0.00777415 -0.02020216 0.01714286
v 0.00787818 -0.01992991 0.01714286
v 0.00794948 -0.01967299 0.01714286
v 0.00504849 -0.02200000 0.01714286
v 0.00758947 -0.02055836 0.01714286
v 0.00742962 -0.02079511 0.01714286
v 0.00734152 -0.02090744 0.01714286
v 0.00724592 -0.02101788 0.01714286
v -0.00669131 -0.00743145 0.01714286
v 0.00845402 -0.00900000 0.01714286
v 0.00836771 -0.01593288 0.01714286
v 0.00839708 -0.01555431 0.01714286
v 0.00839386 -0.01560321 0.01714286
v 0.00840798 -0.01508874 0.01714286
v 0.00840784 -0.01510397 0.01714286
v 0.00800921 -0.01931620 0.01714286
v 0.00831011 -0.01647653 0.01714286
v -0.00999619 -0.02108716 0.01714286
v -0.00996593 -0.02125882 0.01714286
v -0.00986603 -0.02150000 0.01714286
v -0.00970711 -0.02170711 0.01714286
v -0.00964279 -0.02176604 0.01714286
v -0.00957358 -0.02181915 0.01714286
v -0.00950000 -0.02186603 0.01714286
v -0.00925882 -0.02196593 0.01714286
v -0.00917365 -0.02198481 0.01714286
v -0.00908716 -0.02199619 0.01714286
v -0.00900000 -0.02200000 0.01714286
v -0.01000000 -0.02100000 0.01714286
v -0.00998481 -0.02117365 0.01714286
v -0.00993969 -0.02134202 0.01714286
v -0.00990631 -0.02142262 0.01714286
v -0.00981915 -0.02157358 0.01714286
v -0.00976604 -0.02164279 0.01714286
v -0.00942262 -0.02190631 0.01714286
v -0.00934202 -0.02193969 0.01714286
v 0.00522616 -0.02199226 0.01714286
v 0.00528144 -0.02198916 0.01714286
v 0.00539869 -0.02197670 0.01714286
v 0.00567186 -0.02192965 0.01714286
v 0.00581020 -0.02189575 0.01714286
v 0.00578949 -0.02190108 0.01714286
v 0.00606639 -0.02181386 0.01714286
v 0.00606099 -0.02181578 0.01714286
v 0.00593027 -0.02186047 0.01714286
v 0.00607876 -0.02180922 0.01714286
v 0.00620321 -0.02175943 0.01714286
v 0.00633692 -0.02169841 0.01714286
v 0.00644838 -0.02164132 0.01714286
v 0.00669937 -0.02148997 0.01714286
v 0.00669242 -0.02149445 0.01714286
v 0.00657388 -0.02156980 0.01714286
v 0.00646724 -0.02163100 0.01714286
v 0.00645750 -0.02163648 0.01714286
v 0.00682239 -0.02140270 0.01714286
v 0.00681901 -0.02140525 0.01714286
v 0.00670260 -0.02148780 0.01714286
v 0.00693209 -0.02131666 0.01714286
v 0.00704324 -0.02122052 0.01714286
v 0.00703795 -0.02122522 0.01714286
v 0.00693350 -0.02131549 0.01714286
v 0.00772405 -0.02031161 0.01714286
v 0.00783317 -0.02005807 0.01714286
v 0.00794206 -0.01970224 0.01714286
v 0.00791692 -0.01980141 0.01714286
v 0.00790896 -0.01982781 0.01714286
v 0.00771724 -0.02032481 0.01714286
v 0.00765992 -0.02043606 0.01714286
v 0.00743033 -0.02079417 0.01714286
v -0.01000000 -0.00743145 0.01714286
v 0.00838281 -0.01577056 0.01714286
v 0.00840583 -0.01532449 0.01714286
v 0.00823633 -0.01717284 0.01714286
f 4 168 169
f 10 11 4
f 10 4 9
f 9 4 14
f 13 4 12
f 14 4 13
f 12 4 16
f 187 68 92
f 10 9 102
f 98 4 11
f 98 11 10
f 172 230 118
f 118 171 172
f 118 230 170
f 169 66 65
f 169 173 67
f 67 66 169
f 231 171 67
f 67 171 118
f 169 117 61
f 41 13 12
f 12 40 41
f 12 16 109
f 92 93 163
f 163 187 92
f 5 81 28
f 101 9 34
f 101 102 9
f 33 32 10
f 10 102 33
f 95 4 94
f 4 29 94
f 4 97 30
f 30 29 4
f 96 97 4
f 4 98 96
f 87 140 141
f 175 140 87
f 231 67 174
f 174 67 173
f 169 59 60
f 60 57 169
f 116 59 169
f 169 61 116
f 8 7 48
f 4 7 8
f 14 13 106
f 196 93 197
f 196 163 93
f 185 184 68
f 10 32 99
f 99 100 10
f 31 98 10
f 10 100 31
f 89 161 222
f 63 117 169
f 169 62 63
f 169 65 64
f 64 62 169
f 56 53 169
f 169 55 56
f 169 57 58
f 58 55 169
f 169 53 6
f 6 115 7
f 6 4 169
f 6 7 4
f 15 112 16
f 8 46 15
f 15 16 4
f 4 8 15
f 36 9 14
f 43 40 12
f 12 42 43
f 12 109 107
f 107 42 12
f 76 130 217
f 68 187 186
f 186 185 68
f 27 124 190
f 73 71 179
f 71 70 192
f 179 71 192
f 182 181 121
f 183 121 69
f 182 121 183
f 118 17 2
f 17 232 2
f 175 87 83
f 83 80 175
f 118 170 18
f 18 17 118
f 22 161 89
f 23 87 141
f 164 78 77
f 166 167 130
f 218 130 139
f 130 167 139
f 19 222 159
f 89 222 19
f 90 221 24
f 160 20 159
f 160 221 20
f 24 221 133
f 133 227 79
f 48 7 51
f 7 50 51
f 7 115 52
f 52 50 7
f 54 6 53
f 115 6 54
f 49 8 48
f 49 46 8
f 45 15 47
f 47 15 46
f 13 41 38
f 105 106 13
f 13 37 105
f 104 36 14
f 34 9 35
f 9 36 35
f 108 109 16
f 16 44 108
f 16 112 110
f 110 44 16
f 93 145 198
f 135 145 93
f 135 134 147
f 152 125 210
f 154 216 125
f 76 217 126
f 75 190 124
f 123 190 75
f 191 123 74
f 191 190 123
f 74 72 191
f 72 73 191
f 191 73 179
f 193 192 70
f 193 70 122
f 122 180 193
f 120 121 181
f 120 181 180
f 120 180 122
f 194 183 119
f 119 195 194
f 119 183 69
f 184 195 119
f 68 184 119
f 1 232 175
f 1 2 232
f 175 80 1
f 176 18 170
f 162 23 141
f 85 224 86
f 161 22 86
f 78 164 158
f 158 129 78
f 130 129 158
f 227 164 132
f 79 227 132
f 130 158 228
f 159 20 84
f 84 19 159
f 20 221 21
f 221 90 21
f 227 133 226
f 226 133 221
f 113 15 45
f 113 114 15
f 112 15 111
f 15 114 111
f 39 37 13
f 13 38 39
f 14 106 103
f 103 104 14
f 197 93 142
f 93 198 142
f 143 135 199
f 125 216 209
f 209 210 125
f 125 215 153
f 153 154 125
f 214 215 125
f 125 156 214
f 155 156 125
f 125 126 155
f 155 126 217
f 219 130 218
f 219 157 130
f 220 217 130
f 130 157 220
f 150 127 149
f 127 128 212
f 148 205 127
f 134 127 202
f 127 205 202
f 118 2 136
f 223 224 85
f 85 162 223
f 88 162 85
f 23 162 88
f 161 86 225
f 225 86 224
f 131 164 77
f 131 132 164
f 165 166 130
f 130 228 165
f 145 135 144
f 135 143 144
f 204 135 147
f 204 200 135
f 135 200 201
f 127 208 151
f 211 212 128
f 211 128 125
f 211 125 152
f 213 208 127
f 127 212 213
f 206 127 150
f 206 148 127
f 147 134 203
f 134 202 203
f 3 136 2
f 2 1 3
f 80 137 3
f 3 1 80
f 199 135 146
f 135 201 146
f 207 149 127
f 127 151 207
f 138 3 137
f 136 3 138
f 229 168 4
f 5 229 4
f 4 95 81
f 4 81 5
f 188 229 5
f 5 28 188
f 28 82 188
f 188 82 25
f 25 177 188
f 91 189 177
f 91 177 25
f 176 232 17
f 17 18 176
f 189 91 178
f 91 26 178
f 178 26 27
f 27 190 178
f 169 168 207
f 207 170 230
f 207 168 229
f 229 188 207
f 207 186 187
f 230 172 207
f 207 173 169
f 207 196 197
f 182 183 207
f 207 181 182
f 207 176 170
f 207 171 231
f 207 188 177
f 231 174 207
f 159 222 207
f 207 172 171
f 179 192 207
f 141 140 207
f 218 139 207
f 187 163 207
f 207 160 159
f 207 155 217
f 207 153 215
f 208 213 207
f 207 140 175
f 175 232 207
f 207 162 141
f 207 174 173
f 163 196 207
f 207 143 199
f 227 226 207
f 150 149 207
f 184 185 207
f 177 189 207
f 180 181 207
f 207 193 180
f 207 195 184
f 207 222 161
f 207 228 158
f 161 225 207
f 197 142 207
f 152 210 207
f 207 209 216
f 185 186 207
f 207 206 150
f 207 191 179
f 207 183 194
f 224 223 207
f 207 164 227
f 167 166 207
f 207 139 167
f 221 160 207
f 207 198 145
f 145 144 207
f 216 154 207
f 215 214 207
f 207 219 218
f 217 220 207
f 207 151 208
f 190 191 207
f 192 193 207
f 194 195 207
f 232 176 207
f 189 178 207
f 207 158 164
f 207 226 221
f 207 142 198
f 166 165 207
f 207 204 147
f 210 209 207
f 154 153 207
f 207 214 156
f 156 155 207
f 157 219 207
f 207 220 157
f 147 203 207
f 207 211 152
f 205 148 207
f 207 202 205
f 207 178 190
f 207 223 162
f 207 225 224
f 207 165 228
f 207 144 143
f 200 204 207
f 207 201 200
f 199 146 207
f 212 211 207
f 207 213 212
f 148 206 207
f 207 203 202
f 207 146 201
f 122 70 138
f 138 61 117
f 59 116 138
f 81 95 138
f 25 82 138
f 27 26 138
f 138 93 92
f 92 68 138
f 138 129 130
f 138 67 118
f 138 135 93
f 32 33 138
f 97 96 138
f 98 31 138
f 85 86 138
f 138 133 79
f 138 52 115
f 37 39 138
f 138 28 81
f 76 126 138
f 138 101 34
f 95 94 138
f 138 30 97
f 138 130 76
f 138 65 66
f 66 67 138
f 138 64 65
f 138 60 59
f 138 41 40
f 45 47 138
f 138 49 48
f 34 35 138
f 74 123 138
f 138 72 74
f 71 73 138
f 102 101 138
f 138 33 102
f 138 94 29
f 29 30 138
f 138 96 98
f 138 99 32
f 68 119 138
f 138 83 87
f 138 90 24
f 117 63 138
f 53 56 138
f 57 60 138
f 138 116 61
f 138 58 57
f 20 21 138
f 40 43 138
f 138 107 109
f 138 110 112
f 138 82 28
f 138 124 27
f 138 91 25
f 138 70 71
f 100 99 138
f 138 31 100
f 138 119 69
f 138 22 89
f 87 23 138
f 89 19 138
f 138 63 62
f 62 64 138
f 138 56 55
f 55 58 138
f 48 51 138
f 138 54 53
f 138 38 41
f 106 105 138
f 138 43 42
f 42 107 138
f 109 108 138
f 138 127 134
f 125 128 138
f 138 75 124
f 138 73 72
f 69 121 138
f 138 120 122
f 80 83 138
f 138 103 106
f 77 78 138
f 79 132 138
f 138 84 20
f 24 133 138
f 138 51 50
f 50 52 138
f 115 54 138
f 46 49 138
f 138 113 45
f 138 47 46
f 112 111 138
f 138 105 37
f 36 104 138
f 138 35 36
f 138 108 44
f 44 110 138
f 134 135 138
f 138 126 125
f 138 128 127
f 123 75 138
f 138 26 91
f 121 120 138
f 138 86 22
f 78 129 138
f 138 88 85
f 19 84 138
f 138 21 90
f 114 113 138
f 138 111 114
f 138 39 38
f 104 103 138
f 138 131 77
f 23 88 138
f 132 131 138

