# https://github.com/mikedh/trimesh
v -0.00792811 -0.07752674 0.00438402
v -0.00775311 -0.07710198 0.00454091
v -0.01130000 -0.07710616 0.00453941
v -0.00930000 -0.07200000 0.00584549
v -0.01130000 -0.07200000 0.00584549
v -0.01130000 -0.07517609 0.00513522
v -0.00608550 -0.07331382 0.00558214
v -0.00930000 -0.07195954 0.00585304
v -0.00626695 -0.07371255 0.00549453
v -0.00690093 -0.07512534 0.00514881
v -0.00691956 -0.07516742 0.00513755
v -0.00721554 -0.07584161 0.00494826
v -0.00562800 -0.07231677 0.00578526
v -0.00545489 -0.07194212 0.00585629
v -0.00930000 -0.06570402 0.00674769
v -0.00384429 -0.06850436 0.00640352
v -0.00249755 -0.06567268 0.00675116
v -0.00118292 -0.05941434 0.00732727
v -0.00121306 -0.05941394 0.00732730
v -0.00124802 -0.05941197 0.00732745
v -0.00127500 -0.05940931 0.00732766
v -0.00131266 -0.05940395 0.00732808
v -0.00132868 -0.05940108 0.00732830
v -0.00137637 -0.05939036 0.00732913
v -0.00138894 -0.05938698 0.00732940
v -0.00143865 -0.05937129 0.00733062
v -0.00144796 -0.05936792 0.00733088
v -0.00149905 -0.05934689 0.00733252
v -0.00150527 -0.05934402 0.00733274
v -0.00155710 -0.05931734 0.00733481
v -0.00156024 -0.05931555 0.00733495
v -0.00161236 -0.05928287 0.00733749
v -0.00166238 -0.05924540 0.00734039
v -0.00166443 -0.05924372 0.00734052
v -0.00170649 -0.05920642 0.00734341
v -0.00171291 -0.05920021 0.00734389
v -0.00226010 -0.05866436 0.00738485
v 0.00083859 -0.05874455 0.00737877
v 0.00043913 -0.05956960 0.00731512
v -0.00056337 -0.05907925 0.00735321
v -0.00057263 -0.05909287 0.00735216
v -0.00059993 -0.05912964 0.00734933
v -0.00061213 -0.05914466 0.00734817
v -0.00064045 -0.05917672 0.00734570
v -0.00065598 -0.05919283 0.00734446
v -0.00068478 -0.05922033 0.00734233
v -0.00070384 -0.05923701 0.00734104
v -0.00073263 -0.05926017 0.00733925
v -0.00075536 -0.05927688 0.00733795
v -0.00078353 -0.05929584 0.00733648
v -0.00081014 -0.05931212 0.00733522
v -0.00083705 -0.05932710 0.00733406
v -0.00086777 -0.05934248 0.00733286
v -0.00090988 -0.05936082 0.00733143
v -0.00092782 -0.05936772 0.00733090
v -0.00096840 -0.05938144 0.00732983
v -0.00098983 -0.05938766 0.00732934
v -0.00105334 -0.05940214 0.00732822
v -0.00111787 -0.05941106 0.00732752
v -0.00115102 -0.05941344 0.00732734
v -0.00730000 -0.06200000 0.00711312
v -0.00930000 -0.06200000 0.00711312
v -0.01130000 -0.07595477 0.00491473
v -0.00752817 -0.07656769 0.00472321
v -0.00726112 -0.07594647 0.00491721
v -0.01130000 -0.07827184 0.00407783
v -0.00822380 -0.07826949 0.00407887
v -0.00814550 -0.07806908 0.00416554
v -0.00860779 -0.07931342 0.00356054
v -0.01130000 -0.07917979 0.00363432
v -0.00856096 -0.07917871 0.00363491
v -0.01130000 -0.07880206 0.00383006
v -0.00844851 -0.07886522 0.00379855
v -0.00833462 -0.07855897 0.00394720
v -0.00738783 -0.06026915 0.00725587
v -0.00938738 -0.06703822 0.00658882
v -0.00933097 -0.06200000 0.00711263
v -0.00938681 -0.06200000 0.00710933
v -0.00968732 -0.06200000 0.00703476
v -0.00964084 -0.06200000 0.00705300
v -0.00957153 -0.06200000 0.00707540
v -0.00955788 -0.06200000 0.00707916
v -0.00947299 -0.06200000 0.00709798
v -0.00945214 -0.06200000 0.00710143
v -0.00939166 -0.06709466 0.00658154
v -0.00939166 -0.07158119 0.00591801
v -0.00937955 -0.07162646 0.00591092
v -0.01133105 -0.07880185 0.00382963
v -0.01229868 -0.07686608 0.00361780
v -0.01230000 -0.07669306 0.00362495
v -0.01228495 -0.07423343 0.00452292
v -0.01229606 -0.07200000 0.00491810
v -0.01229394 -0.07421850 0.00446186
v -0.01229868 -0.07200000 0.00488016
v -0.01229868 -0.07420459 0.00440498
v -0.01230000 -0.07200000 0.00482781
v -0.01221038 -0.07429066 0.00475698
v -0.01223773 -0.07200000 0.00518139
v -0.01223463 -0.07427685 0.00470049
v -0.01225521 -0.07200000 0.00512904
v -0.01225521 -0.07426267 0.00464250
v -0.01226476 -0.07200000 0.00509563
v -0.01227201 -0.07424818 0.00458324
v -0.01228427 -0.07200000 0.00500763
v -0.01228495 -0.07200000 0.00500374
v -0.01207921 -0.07434124 0.00496387
v -0.01211439 -0.07200000 0.00541845
v -0.01211684 -0.07432939 0.00491540
v -0.01215135 -0.07200000 0.00536176
v -0.01215134 -0.07431698 0.00486463
v -0.01216219 -0.07200000 0.00534343
v -0.01218257 -0.07430405 0.00481176
v -0.01220343 -0.07200000 0.00526421
v -0.01221037 -0.07200000 0.00524898
v -0.01194935 -0.07437301 0.00509377
v -0.01200092 -0.07200000 0.00555372
v -0.01199532 -0.07436308 0.00505317
v -0.01203863 -0.07200000 0.00551391
v -0.01203862 -0.07435250 0.00500987
v -0.01206048 -0.07200000 0.00548872
v -0.01207922 -0.07200000 0.00546572
v -0.01174337 -0.07440527 0.00522573
v -0.01179352 -0.07200000 0.00571296
v -0.01179776 -0.07439838 0.00519753
v -0.01185037 -0.07200000 0.00567754
v -0.01185036 -0.07439069 0.00516607
v -0.01186690 -0.07200000 0.00566621
v -0.01190096 -0.07438222 0.00513145
v -0.01193622 -0.07200000 0.00561302
v -0.01194935 -0.07200000 0.00560180
v -0.01157162 -0.07442096 0.00528990
v -0.01163685 -0.07200000 0.00578604
v -0.01163007 -0.07441658 0.00527198
v -0.01168741 -0.07200000 0.00576604
v -0.01168740 -0.07441135 0.00525057
v -0.01171665 -0.07200000 0.00575298
v -0.01174338 -0.07200000 0.00574002
v -0.01139175 -0.07442889 0.00532233
v -0.01145223 -0.07200000 0.00583363
v -0.01145223 -0.07442712 0.00531510
v -0.01147078 -0.07200000 0.00583054
v -0.01151226 -0.07442448 0.00530429
v -0.01155470 -0.07200000 0.00581194
v -0.01157162 -0.07200000 0.00580724
v -0.01138237 -0.07448077 0.00531044
v -0.01133106 -0.07200000 0.00584500
v -0.01138568 -0.07200000 0.00584175
v -0.01136411 -0.07815655 0.00412590
v -0.01135523 -0.07715730 0.00451956
v -0.01139175 -0.07811920 0.00413960
v -0.01139175 -0.07718702 0.00450598
v -0.01145223 -0.07811627 0.00413276
v -0.01145223 -0.07718449 0.00449898
v -0.01151226 -0.07811189 0.00412253
v -0.01151226 -0.07718071 0.00448851
v -0.01157162 -0.07810605 0.00410892
v -0.01157162 -0.07717568 0.00447459
v -0.01163007 -0.07809880 0.00409196
v -0.01163007 -0.07716940 0.00445724
v -0.01168740 -0.07809012 0.00407170
v -0.01168740 -0.07716192 0.00443650
v -0.01174337 -0.07808004 0.00404819
v -0.01174337 -0.07715322 0.00441245
v -0.01179776 -0.07806862 0.00402151
v -0.01179776 -0.07714336 0.00438515
v -0.01185036 -0.07805587 0.00399173
v -0.01185036 -0.07713235 0.00435469
v -0.01190096 -0.07804184 0.00395897
v -0.01190096 -0.07712024 0.00432117
v -0.01194935 -0.07802656 0.00392331
v -0.01194935 -0.07710706 0.00428469
v -0.01199532 -0.07801011 0.00388489
v -0.01199532 -0.07709286 0.00424538
v -0.01203862 -0.07799257 0.00384392
v -0.01203862 -0.07707771 0.00420346
v -0.01207921 -0.07797392 0.00380038
v -0.01207921 -0.07706161 0.00415892
v -0.01211684 -0.07795428 0.00375451
v -0.01211684 -0.07704465 0.00411199
v -0.01215134 -0.07793370 0.00370648
v -0.01215134 -0.07702690 0.00406284
v -0.01218257 -0.07791227 0.00365644
v -0.01218257 -0.07700840 0.00401165
v -0.01221038 -0.07789007 0.00360460
v -0.01221038 -0.07698923 0.00395861
v -0.01223463 -0.07786717 0.00355114
v -0.01223463 -0.07696947 0.00390392
v -0.01225521 -0.07784367 0.00349627
v -0.01225521 -0.07694918 0.00384777
v -0.01227201 -0.07781965 0.00344018
v -0.01227201 -0.07692844 0.00379039
v -0.01228495 -0.07690734 0.00373200
v -0.01229394 -0.07688598 0.00367287
v -0.01174337 -0.07930216 0.00344783
v -0.01168740 -0.07931478 0.00347007
v -0.01163007 -0.07932567 0.00348923
v -0.01157162 -0.07933478 0.00350528
v -0.01151226 -0.07934209 0.00351815
v -0.01145223 -0.07934759 0.00352783
v -0.01139175 -0.07935126 0.00353430
v -0.01133105 -0.07935311 0.00353755
v -0.01139175 -0.07880019 0.00382628
v -0.01145223 -0.07879689 0.00381962
v -0.01151226 -0.07879195 0.00380964
v -0.01157162 -0.07878537 0.00379637
v -0.01163007 -0.07877719 0.00377984
v -0.01168740 -0.07876740 0.00376009
v -0.01174337 -0.07875606 0.00373717
v -0.01179776 -0.07874317 0.00371116
v -0.01185036 -0.07872880 0.00368213
v -0.01190096 -0.07871298 0.00365019
v -0.01194935 -0.07869577 0.00361543
v -0.01199532 -0.07867722 0.00357798
v -0.01203862 -0.07865744 0.00353804
v -0.01207921 -0.07863642 0.00349560
v -0.01211684 -0.07861428 0.00345088
v -0.01133213 -0.07595462 0.00491423
v -0.01139175 -0.07595356 0.00491068
v -0.01145223 -0.07595143 0.00490356
v -0.01151226 -0.07594824 0.00489289
v -0.01157162 -0.07594400 0.00487870
v -0.01163007 -0.07593872 0.00486102
v -0.01168740 -0.07593241 0.00483990
v -0.01174337 -0.07592510 0.00481540
v -0.01179776 -0.07591679 0.00478759
v -0.01185036 -0.07590752 0.00475655
v -0.01190096 -0.07589731 0.00472240
v -0.01194935 -0.07588622 0.00468524
v -0.01199532 -0.07587425 0.00464519
v -0.01203862 -0.07586150 0.00460248
v -0.01207921 -0.07584795 0.00455710
v -0.01211684 -0.07583366 0.00450929
v -0.01215134 -0.07581871 0.00445922
v -0.01218257 -0.07580313 0.00440707
v -0.01221038 -0.07578699 0.00435303
v -0.01223463 -0.07577035 0.00429731
v -0.01225521 -0.07575326 0.00424011
v -0.01227201 -0.07573580 0.00418165
v -0.01228495 -0.07571803 0.00412216
v -0.01229394 -0.07570004 0.00406192
v -0.01229868 -0.07568328 0.00400582
v -0.01230000 -0.07485629 0.00418564
v 0.00382189 -0.05883373 0.00438737
v 0.00378795 -0.05906650 0.00438737
v 0.00378298 -0.05909253 0.00438737
v 0.00372892 -0.05932134 0.00438737
v 0.00372167 -0.05934697 0.00438737
v 0.00364791 -0.05957008 0.00438737
v 0.00363842 -0.05959509 0.00438737
v 0.00354555 -0.05981081 0.00438737
v 0.00353385 -0.05983501 0.00438737
v 0.00363811 -0.05956640 0.00463775
v 0.00371883 -0.05931854 0.00463775
v 0.00377766 -0.05906459 0.00463775
v 0.00293974 -0.05890008 0.00649423
v 0.00288780 -0.05889844 0.00654507
v 0.00299253 -0.05891847 0.00643672
v 0.00123553 -0.05878435 0.00734900
v 0.00140436 -0.05892162 0.00730570
v 0.00143740 -0.05887080 0.00730570
v 0.00164511 -0.05899331 0.00723750
v 0.00147782 -0.05884853 0.00729973
v 0.00350784 -0.05979279 0.00488639
v 0.00351638 -0.05984584 0.00464272
v 0.00353611 -0.05980629 0.00463775
v 0.00334803 -0.05982026 0.00539026
v 0.00335453 -0.05982202 0.00537150
v 0.00339575 -0.05973924 0.00537150
v 0.00342313 -0.05983844 0.00514601
v 0.00346094 -0.05977039 0.00513154
v 0.00347939 -0.05984699 0.00489622
v 0.00348119 -0.05984713 0.00488639
v 0.00314361 -0.05975561 0.00585510
v 0.00315735 -0.05976037 0.00582920
v 0.00321242 -0.05965166 0.00582920
v 0.00321280 -0.05977907 0.00571847
v 0.00331272 -0.05969958 0.00560459
v 0.00325463 -0.05979259 0.00562720
v 0.00332709 -0.05981443 0.00544831
v 0.00307317 -0.05973063 0.00597960
v 0.00309555 -0.05959583 0.00604373
v 0.00301578 -0.05970961 0.00607229
v 0.00296294 -0.05953247 0.00624672
v 0.00289503 -0.05966382 0.00624673
v 0.00265427 -0.05938502 0.00661243
v 0.00271354 -0.05959192 0.00646833
v 0.00281550 -0.05946204 0.00643672
v 0.00281899 -0.05963409 0.00634478
v 0.00287208 -0.05965491 0.00627720
v 0.00248037 -0.05930194 0.00677261
v 0.00254133 -0.05952110 0.00664428
v 0.00257466 -0.05953497 0.00661245
v 0.00216102 -0.05935807 0.00694565
v 0.00220467 -0.05937717 0.00691619
v 0.00222886 -0.05933762 0.00691615
v 0.00229607 -0.05941687 0.00685051
v 0.00240580 -0.05944198 0.00677261
v 0.00235671 -0.05944296 0.00680378
v 0.00251783 -0.05951127 0.00666614
v 0.00206183 -0.05931434 0.00700823
v 0.00204222 -0.05922753 0.00704204
v 0.00195568 -0.05926705 0.00706887
v 0.00184718 -0.05911250 0.00714940
v 0.00179404 -0.05919416 0.00714950
v 0.00157577 -0.05909416 0.00723766
v 0.00169569 -0.05914932 0.00719206
v 0.00160060 -0.05906176 0.00723750
v 0.00174220 -0.05917057 0.00717253
v 0.00177705 -0.05918644 0.00715719
v 0.00152212 -0.05906932 0.00725588
v 0.00136701 -0.05896937 0.00730570
v 0.00144750 -0.05903461 0.00727907
v 0.00118004 -0.05880952 0.00735354
v 0.00115331 -0.05883816 0.00735354
v 0.00107305 -0.05885763 0.00735880
v 0.00110713 -0.05887393 0.00735400
v 0.00112419 -0.05886436 0.00735354
v 0.00117053 -0.05890414 0.00734378
v 0.00127098 -0.05895175 0.00732413
v 0.00129707 -0.05896406 0.00731832
v 0.00103361 -0.05883873 0.00736375
v 0.00106867 -0.05885553 0.00735938
v 0.00102759 -0.05876400 0.00737125
v 0.00086362 -0.05875671 0.00737772
v 0.00085853 -0.05874664 0.00737854
v 0.00089403 -0.05877145 0.00737609
v 0.00088278 -0.05874918 0.00737809
v 0.00092673 -0.05878726 0.00737392
v 0.00090900 -0.05875190 0.00737737
v 0.00096125 -0.05880392 0.00737115
v 0.00093690 -0.05875478 0.00737636
v 0.00099705 -0.05882117 0.00736776
v 0.00096619 -0.05875779 0.00737501
v 0.00099654 -0.05876087 0.00737331
v 0.00105897 -0.05876715 0.00736884
v 0.00109729 -0.05877095 0.00736544
v 0.00115610 -0.05877671 0.00735924
v 0.00135405 -0.05879544 0.00732966
v 0.00131746 -0.05879206 0.00733616
v 0.00189517 -0.05902237 0.00714940
v 0.00173239 -0.05887657 0.00722854
v 0.00168348 -0.05892124 0.00723750
v 0.00160692 -0.05881784 0.00727173
v 0.00214717 -0.05900785 0.00704204
v 0.00204859 -0.05885252 0.00711202
v 0.00193513 -0.05892841 0.00714940
v 0.00196204 -0.05884621 0.00714959
v 0.00185400 -0.05883798 0.00719206
v 0.00239367 -0.05895004 0.00691615
v 0.00232341 -0.05887088 0.00697010
v 0.00218490 -0.05889199 0.00704204
v 0.00221081 -0.05886369 0.00703260
v 0.00209343 -0.05885570 0.00709126
v 0.00259158 -0.05900508 0.00677261
v 0.00254221 -0.05888340 0.00682947
v 0.00241220 -0.05887620 0.00691623
v 0.00283826 -0.05889670 0.00659136
v 0.00281491 -0.05889583 0.00661247
v 0.00277726 -0.05905671 0.00661243
v 0.00274817 -0.05889316 0.00667045
v 0.00262005 -0.05888733 0.00677267
v 0.00315317 -0.05894837 0.00624672
v 0.00311548 -0.05890413 0.00630214
v 0.00299556 -0.05890164 0.00643676
v 0.00333726 -0.05890486 0.00600189
v 0.00330967 -0.05890511 0.00604375
v 0.00329765 -0.05897526 0.00604373
v 0.00327408 -0.05890527 0.00609562
v 0.00316084 -0.05890474 0.00624674
v 0.00341432 -0.05890349 0.00587623
v 0.00342498 -0.05899895 0.00582920
v 0.00353516 -0.05889880 0.00564562
v 0.00353426 -0.05901929 0.00560459
v 0.00355408 -0.05889769 0.00560460
v 0.00362474 -0.05903613 0.00537150
v 0.00363568 -0.05889124 0.00540554
v 0.00371513 -0.05888086 0.00515778
v 0.00369576 -0.05904935 0.00513154
v 0.00372219 -0.05887962 0.00513154
v 0.00374686 -0.05905886 0.00488639
v 0.00377291 -0.05886775 0.00490423
v 0.00379465 -0.05885969 0.00476773
v 0.00380859 -0.05885199 0.00464677
v 0.00380943 -0.05885140 0.00463775
v 0.00119341 -0.05878032 0.00735470
v 0.00229501 -0.05921339 0.00691615
v 0.00209949 -0.05911998 0.00704204
v 0.00368865 -0.05931015 0.00488639
v 0.00363858 -0.05929622 0.00513154
v 0.00356897 -0.05927687 0.00537150
v 0.00348031 -0.05925221 0.00560459
v 0.00337322 -0.05922243 0.00582920
v 0.00324844 -0.05918774 0.00604373
v 0.00310684 -0.05914836 0.00624672
v 0.00294942 -0.05910458 0.00643672
v 0.00360878 -0.05955542 0.00488639
v 0.00356011 -0.05953718 0.00513154
v 0.00349245 -0.05951184 0.00537150
v 0.00340628 -0.05947955 0.00560459
v 0.00330218 -0.05944055 0.00582920
v 0.00318090 -0.05939512 0.00604373
v 0.00304327 -0.05934356 0.00624672
v 0.00289026 -0.05928623 0.00643672
v 0.00272293 -0.05922355 0.00661243
v 0.00254245 -0.05915593 0.00677261
v 0.00235009 -0.05908387 0.00691615
v -0.00754504 -0.07914296 0.00347249
v -0.00765850 -0.07911668 0.00353057
v -0.00777245 -0.07908767 0.00358366
v -0.00815277 -0.07943020 0.00345061
v -0.00833823 -0.07890717 0.00377477
v -0.00563662 -0.07714067 0.00364819
v -0.00573082 -0.07712887 0.00375289
v -0.00108568 -0.06928612 0.00344876
v 0.00094120 -0.06513932 0.00392909
v 0.00092334 -0.06515428 0.00416641
v 0.00061146 -0.06511005 0.00525006
v 0.00054437 -0.06509034 0.00538108
v 0.00047116 -0.06506737 0.00550935
v 0.00039201 -0.06504115 0.00563432
v 0.00030713 -0.06501176 0.00575549
v 0.00090564 -0.06515904 0.00430067
v 0.00088213 -0.06516107 0.00443619
v 0.00085262 -0.06516027 0.00457255
v 0.00081697 -0.06515650 0.00470928
v 0.00077507 -0.06514966 0.00484592
v 0.00072686 -0.06513968 0.00498194
v 0.00067232 -0.06512649 0.00511684
v -0.00508493 -0.07575509 0.00418238
v -0.00499042 -0.07577273 0.00407538
v -0.00490040 -0.07578710 0.00396432
v -0.00554672 -0.07714913 0.00353969
v -0.00459053 -0.07581143 0.00348790
v -0.00615158 -0.07376563 0.00547981
v -0.00551193 -0.07237093 0.00577198
v -0.00408291 -0.06955494 0.00624445
v -0.00410444 -0.06966675 0.00622533
v -0.00539423 -0.07242478 0.00575295
v -0.00398429 -0.06972203 0.00620221
v -0.00527521 -0.07247814 0.00572797
v -0.00386312 -0.06977687 0.00617278
v -0.00515520 -0.07253078 0.00569686
v -0.00374130 -0.06983106 0.00613688
v -0.00503458 -0.07258251 0.00565946
v -0.00361924 -0.06988438 0.00609437
v -0.00491372 -0.07263312 0.00561565
v -0.00349735 -0.06993662 0.00604516
v -0.00479304 -0.07268240 0.00556536
v -0.00337609 -0.06998754 0.00598921
v -0.00467295 -0.07273011 0.00550856
v -0.00325590 -0.07003694 0.00592650
v -0.00455391 -0.07277606 0.00544524
v -0.00508311 -0.07419719 0.00507622
v -0.00519992 -0.07415581 0.00514614
v -0.00531818 -0.07411230 0.00520979
v -0.00543746 -0.07406688 0.00526709
v -0.00555732 -0.07401974 0.00531804
v -0.00567736 -0.07397110 0.00536267
v -0.00579717 -0.07392116 0.00540103
v -0.00591637 -0.07387013 0.00543325
v -0.00603462 -0.07381822 0.00545945
v -0.00313725 -0.07008458 0.00585709
v -0.00443635 -0.07282004 0.00537546
v -0.00302061 -0.07013025 0.00578107
v -0.00432074 -0.07286184 0.00529933
v -0.00290645 -0.07017376 0.00569859
v -0.00420751 -0.07290127 0.00521698
v -0.00279523 -0.07021488 0.00560986
v -0.00409712 -0.07293816 0.00512863
v -0.00268740 -0.07025345 0.00551511
v -0.00399000 -0.07297233 0.00503451
v -0.00258339 -0.07028931 0.00541465
v -0.00388656 -0.07300364 0.00493492
v -0.00248361 -0.07032230 0.00530882
v -0.00378719 -0.07303198 0.00483018
v -0.00238842 -0.07035230 0.00519800
v -0.00369226 -0.07305721 0.00472066
v -0.00229818 -0.07037921 0.00508262
v -0.00360211 -0.07307927 0.00460678
v -0.00221318 -0.07040293 0.00496313
v -0.00351702 -0.07309810 0.00448896
v -0.00213370 -0.07042342 0.00484000
v -0.00343725 -0.07311365 0.00436767
v -0.00205993 -0.07044064 0.00471374
v -0.00336303 -0.07312591 0.00424337
v -0.00199207 -0.07045460 0.00458485
v -0.00329451 -0.07313490 0.00411655
v -0.00193023 -0.07046529 0.00445385
v -0.00323183 -0.07314064 0.00398772
v -0.00187449 -0.07047275 0.00432126
v -0.00317508 -0.07314319 0.00385736
v -0.00182489 -0.07047707 0.00418759
v -0.00312429 -0.07314263 0.00372595
v -0.00178141 -0.07047830 0.00405333
v -0.00307947 -0.07313904 0.00359399
v -0.00174400 -0.07047655 0.00391897
v -0.00304056 -0.07313254 0.00346193
v -0.00171257 -0.07047192 0.00378497
v -0.00168700 -0.07046456 0.00365177
v -0.00166712 -0.07045459 0.00351976
v -0.00561306 -0.07562026 0.00464452
v -0.00572709 -0.07558479 0.00472046
v -0.00584294 -0.07554684 0.00479046
v -0.00596020 -0.07550659 0.00485440
v -0.00607844 -0.07546423 0.00491223
v -0.00619726 -0.07541994 0.00496392
v -0.00631624 -0.07537395 0.00500949
v -0.00643501 -0.07532644 0.00504901
v -0.00655319 -0.07527763 0.00508256
v -0.00667045 -0.07522771 0.00511027
v -0.00678646 -0.07517688 0.00513229
v -0.00710163 -0.07589211 0.00493067
v -0.00741491 -0.07661690 0.00470439
v -0.00772589 -0.07735531 0.00444607
v -0.00803398 -0.07811431 0.00414366
v -0.00706742 -0.07675767 0.00461549
v -0.00718424 -0.07671208 0.00465067
v -0.00749689 -0.07744656 0.00438998
v -0.00738096 -0.07748991 0.00435386
v -0.00780705 -0.07820031 0.00408488
v -0.00848795 -0.07932315 0.00355248
v -0.00826534 -0.07939669 0.00348922
v -0.00837716 -0.07936095 0.00352315
v -0.00811395 -0.07898576 0.00371302
v -0.00822662 -0.07894741 0.00374629
v -0.00807436 -0.07854743 0.00394201
v -0.00818667 -0.07850523 0.00396965
v -0.00800050 -0.07902204 0.00367486
v -0.00788657 -0.07905606 0.00363175
v -0.00593089 -0.07709537 0.00394945
v -0.00528618 -0.07571018 0.00438275
v -0.00603607 -0.07707380 0.00404070
v -0.00539220 -0.07568310 0.00447545
v -0.00614420 -0.07704914 0.00412689
v -0.00550130 -0.07565308 0.00456279
v -0.00625487 -0.07702150 0.00420781
v -0.00636770 -0.07699103 0.00428325
v -0.00648227 -0.07695786 0.00435308
v -0.00659820 -0.07692216 0.00441717
v -0.00671506 -0.07688411 0.00447548
v -0.00683247 -0.07684388 0.00452795
v -0.00695005 -0.07680167 0.00457461
v -0.00698621 -0.07594176 0.00490766
v -0.00726449 -0.07753148 0.00431222
v -0.00714782 -0.07757109 0.00426500
v -0.00703131 -0.07760855 0.00421216
v -0.00691534 -0.07764368 0.00415371
v -0.00680028 -0.07767630 0.00408967
v -0.00668653 -0.07770626 0.00402013
v -0.00657448 -0.07773339 0.00394519
v -0.00646451 -0.07775757 0.00386499
v -0.00635702 -0.07777867 0.00377974
v -0.00625237 -0.07779659 0.00368963
v -0.00769220 -0.07824070 0.00404774
v -0.00757683 -0.07827911 0.00400533
v -0.00746128 -0.07831535 0.00395759
v -0.00734589 -0.07834924 0.00390449
v -0.00723102 -0.07838061 0.00384604
v -0.00711703 -0.07840930 0.00378229
v -0.00700429 -0.07843516 0.00371331
v -0.00689319 -0.07845806 0.00363921
v -0.00678409 -0.07847786 0.00356013
v -0.00667738 -0.07849447 0.00347627
v -0.00730017 -0.07666509 0.00468026
v -0.00761197 -0.07740163 0.00442067
v -0.00792107 -0.07815811 0.00411682
v -0.00796097 -0.07858788 0.00390941
v -0.00582902 -0.07711375 0.00385342
v -0.00518364 -0.07573421 0.00428495
v -0.00466005 -0.07581028 0.00361095
v -0.00473499 -0.07580587 0.00373167
v -0.00481518 -0.07579815 0.00384961
v -0.00158689 -0.06433158 0.00688310
v -0.00151570 -0.06423419 0.00689104
v -0.00139422 -0.06429148 0.00687017
v -0.00090170 -0.06451724 0.00672014
v -0.00102499 -0.06446175 0.00676793
v -0.00114846 -0.06440548 0.00680879
v -0.00127168 -0.06434865 0.00684282
v 0.00002103 -0.06490546 0.00609125
v -0.00008364 -0.06486440 0.00619247
v -0.00019230 -0.06482080 0.00628771
v -0.00030449 -0.06477485 0.00637667
v -0.00041974 -0.06472674 0.00645908
v -0.00053758 -0.06467670 0.00653475
v -0.00065751 -0.06462495 0.00660354
v -0.00077904 -0.06457172 0.00666535
v 0.00021679 -0.06497928 0.00587234
v 0.00012131 -0.06494380 0.00598441
v 0.00450686 -0.05236937 0.00483460
v 0.00563219 -0.04174915 0.00556915
v -0.00868285 -0.07953780 0.00342857
v -0.01230000 -0.07719321 0.00342857
v -0.01228495 -0.07767951 0.00342857
v -0.01228351 -0.07769845 0.00342857
v -0.01229394 -0.07750770 0.00342857
v -0.01229165 -0.07755132 0.00342857
v -0.01174337 -0.07933402 0.00342857
v -0.01168740 -0.07938342 0.00342857
v -0.01164229 -0.07941694 0.00342857
v -0.01163007 -0.07942601 0.00342857
v -0.01157162 -0.07946167 0.00342857
v -0.01153128 -0.07948111 0.00342857
v -0.01145223 -0.07951178 0.00342857
v -0.01139175 -0.07952616 0.00342857
v -0.01135547 -0.07953047 0.00342857
v -0.01131729 -0.07953465 0.00342857
v -0.01179673 -0.07927771 0.00342857
v -0.01178486 -0.07929123 0.00342857
v -0.01179776 -0.07927653 0.00342857
v -0.01190096 -0.07913127 0.00342857
v -0.01189062 -0.07914683 0.00342857
v -0.01194935 -0.07904846 0.00342857
v -0.01193442 -0.07907401 0.00342857
v -0.01199532 -0.07895923 0.00342857
v -0.01197602 -0.07899669 0.00342857
v -0.01201532 -0.07891526 0.00342857
v -0.01214893 -0.07854653 0.00342857
v -0.01213328 -0.07860323 0.00342857
v -0.01215134 -0.07853778 0.00342857
v -0.01218257 -0.07840761 0.00342857
v -0.01217605 -0.07843478 0.00342857
v -0.01221038 -0.07827272 0.00342857
v -0.01223463 -0.07813362 0.00342857
v -0.01225521 -0.07799083 0.00342857
v -0.01224179 -0.07808390 0.00342857
v -0.01225844 -0.07796275 0.00342857
v -0.01229682 -0.07741029 0.00342857
v 0.00378795 -0.05906650 0.00342857
v 0.00378298 -0.05909253 0.00342857
v 0.00372892 -0.05932134 0.00342857
v 0.00372167 -0.05934697 0.00342857
v 0.00364791 -0.05957008 0.00342857
v 0.00363842 -0.05959509 0.00342857
v 0.00354555 -0.05981081 0.00342857
v -0.00757563 -0.07922060 0.00342857
v -0.00772898 -0.07929813 0.00342857
v -0.00303219 -0.07313018 0.00342857
v -0.00272740 -0.07254975 0.00342857
v -0.00204068 -0.07121044 0.00342857
v -0.00855780 -0.07953013 0.00342857
v -0.00833481 -0.07950241 0.00342857
v -0.00848289 -0.07952355 0.00342857
v -0.00809528 -0.07944602 0.00342857
v -0.00802520 -0.07942285 0.00342857
v -0.00746653 -0.07915926 0.00342857
v -0.00741627 -0.07912758 0.00342857
v -0.00740552 -0.07912041 0.00342857
v -0.00724690 -0.07901089 0.00342857
v -0.00719599 -0.07897381 0.00342857
v -0.00707408 -0.07888245 0.00342857
v -0.00689805 -0.07874220 0.00342857
v -0.00494320 -0.07639997 0.00342857
v -0.00473546 -0.07608368 0.00342857
v -0.00520240 -0.07678284 0.00342857
v -0.00546017 -0.07715163 0.00342857
v -0.00546202 -0.07715419 0.00342857
v -0.00589376 -0.07769384 0.00342857
v -0.00573135 -0.07749558 0.00342857
v -0.00374703 -0.07442217 0.00342857
v -0.00353547 -0.07404579 0.00342857
v -0.00406835 -0.07498130 0.00342857
v -0.00394105 -0.07476011 0.00342857
v -0.00439061 -0.07552913 0.00342857
v -0.00456016 -0.07581045 0.00342857
v -0.00817866 -0.07946922 0.00342857
v -0.00184213 -0.07081521 0.00342857
v -0.00114575 -0.06940901 0.00342857
v -0.01230000 -0.07200000 0.00342857
v -0.01174699 -0.07933028 0.00342857
v -0.01158751 -0.07945197 0.00342857
v -0.01151226 -0.07949027 0.00342857
v -0.01147376 -0.07950407 0.00342857
v -0.01133105 -0.07953337 0.00342857
v -0.01185036 -0.07920738 0.00342857
v -0.01205230 -0.07882995 0.00342857
v -0.01203862 -0.07886405 0.00342857
v -0.01208696 -0.07874100 0.00342857
v -0.01207921 -0.07876293 0.00342857
v -0.01211920 -0.07864876 0.00342857
v -0.01211684 -0.07865639 0.00342857
v -0.01220059 -0.07832021 0.00342857
v -0.01222250 -0.07820315 0.00342857
v -0.01227201 -0.07784489 0.00342857
v -0.01227465 -0.07781468 0.00342857
v -0.01227244 -0.07783999 0.00342857
v -0.01229923 -0.07728299 0.00342857
v -0.01229868 -0.07734766 0.00342857
v 0.00382189 -0.05883373 0.00342857
v -0.00816537 -0.07946593 0.00342857
v -0.00567793 -0.07742953 0.00342857
v -0.00260354 -0.07230994 0.00342857
v -0.00232481 -0.07176998 0.00342857
v -0.00192859 -0.07098963 0.00342857
v -0.00829981 -0.07949596 0.00342857
v -0.00843066 -0.07951730 0.00342857
v -0.00800746 -0.07941619 0.00342857
v -0.00787889 -0.07936551 0.00342857
v -0.00697707 -0.07880598 0.00342857
v -0.00674876 -0.07861577 0.00342857
v -0.00671907 -0.07859010 0.00342857
v -0.00662131 -0.07850165 0.00342857
v -0.00653005 -0.07841177 0.00342857
v -0.00639801 -0.07827372 0.00342857
v -0.00599700 -0.07781597 0.00342857
v -0.00610748 -0.07794477 0.00342857
v -0.00311111 -0.07327717 0.00342857
v -0.00313276 -0.07331665 0.00342857
v -0.00342762 -0.07385352 0.00342857
v -0.00434723 -0.07545557 0.00342857
v 0.00353385 -0.05983501 0.00342857
v 0.00313284 -0.06065544 0.00342857
v 0.00103095 -0.06495570 0.00342857
v 0.00391046 -0.05799779 0.00342857
v 0.00442874 -0.05310662 0.00342857
v 0.00612683 -0.03708099 0.00342857
v -0.00733096 -0.03600267 0.00912983
v -0.00739167 -0.03600267 0.00912608
v -0.00751218 -0.03600267 0.00910743
v -0.00757154 -0.03600267 0.00909256
v -0.00762999 -0.03600267 0.00907403
v -0.00774329 -0.03600267 0.00902620
v -0.00790089 -0.03600267 0.00892869
v -0.00799526 -0.03600267 0.00884774
v -0.00807916 -0.03600267 0.00875537
v -0.00815130 -0.03600267 0.00865274
v -0.00818253 -0.03600267 0.00859806
v -0.00821034 -0.03600267 0.00854140
v -0.00827200 -0.03600267 0.00836169
v -0.00828494 -0.03600267 0.00829931
v -0.00829393 -0.03600267 0.00823615
v 0.00346437 -0.03600267 0.00911550
v 0.00623114 -0.03600267 0.00638734
v 0.00621671 -0.03600267 0.00652501
v 0.00619557 -0.03600267 0.00666396
v 0.00616749 -0.03600267 0.00680374
v 0.00608978 -0.03600267 0.00708377
v 0.00598254 -0.03600267 0.00736087
v 0.00591776 -0.03600267 0.00749691
v 0.00584559 -0.03600267 0.00763050
v 0.00576617 -0.03600267 0.00776106
v 0.00567967 -0.03600267 0.00788801
v 0.00558633 -0.03600267 0.00801079
v 0.00548647 -0.03600267 0.00812887
v 0.00538043 -0.03600267 0.00824176
v 0.00526863 -0.03600267 0.00834897
v 0.00515152 -0.03600267 0.00845010
v 0.00502960 -0.03600267 0.00854478
v 0.00477346 -0.03600267 0.00871358
v 0.00464037 -0.03600267 0.00878725
v 0.00450470 -0.03600267 0.00885357
v 0.00436704 -0.03600267 0.00891246
v 0.00408806 -0.03600267 0.00900796
v 0.00380786 -0.03600267 0.00907428
v 0.00366859 -0.03600267 0.00909688
v 0.00624109 -0.03600267 0.00611266
v -0.00830000 -0.03600267 0.00342857
v 0.00624109 -0.03600267 0.00517157
v -0.00745215 -0.03600267 0.00911861
v -0.00768732 -0.03600267 0.00905189
v -0.00779769 -0.03600267 0.00899704
v -0.00785029 -0.03600267 0.00896450
v -0.00794928 -0.03600267 0.00888972
v -0.00803856 -0.03600267 0.00880295
v -0.00811679 -0.03600267 0.00870524
v -0.00823460 -0.03600267 0.00848297
v -0.00825518 -0.03600267 0.00842299
v -0.00830000 -0.03600267 0.00812559
v 0.00613228 -0.03600267 0.00694384
v 0.00603988 -0.03600267 0.00722296
v 0.00490340 -0.03600267 0.00863269
v 0.00422797 -0.03600267 0.00896391
v 0.00394784 -0.03600267 0.00904470
v 0.00353052 -0.03600267 0.00911273
v 0.00624109 -0.03600267 0.00342857
f 758 590 715
f 38 732 717
f 78 77 717
f 719 82 83
f 716 775 758
f 758 715 716
f 714 715 590
f 773 343 753
f 730 731 105
f 105 104 730
f 105 731 92
f 92 93 105
f 768 96 94
f 94 731 768
f 92 731 94
f 76 16 17
f 721 760 80
f 753 343 341
f 758 756 591
f 591 590 758
f 591 756 590
f 689 714 243
f 243 714 590
f 590 756 243
f 343 773 262
f 261 343 262
f 262 773 754
f 732 333 774
f 717 75 37
f 37 36 717
f 75 36 37
f 726 727 111
f 111 727 113
f 763 129 723
f 80 760 79
f 760 134 79
f 83 82 141
f 85 16 76
f 85 76 147
f 76 17 15
f 77 78 15
f 147 76 15
f 78 84 15
f 261 262 310
f 589 286 580
f 4 14 8
f 8 14 87
f 759 719 83
f 83 84 759
f 82 719 720
f 753 341 772
f 342 343 261
f 342 341 343
f 733 243 756
f 338 259 260
f 260 754 338
f 260 262 754
f 755 258 339
f 754 755 339
f 338 754 339
f 337 774 336
f 62 39 75
f 717 77 62
f 62 75 717
f 77 15 62
f 62 15 17
f 130 129 763
f 730 104 729
f 766 767 98
f 104 105 91
f 91 103 104
f 91 105 93
f 239 103 91
f 93 240 91
f 91 240 239
f 238 103 239
f 762 723 127
f 127 723 129
f 9 138 145
f 145 140 6
f 145 138 140
f 217 63 6
f 6 218 217
f 3 63 217
f 139 84 83
f 83 141 139
f 147 15 139
f 139 15 84
f 139 141 140
f 139 138 147
f 140 138 139
f 80 144 81
f 82 720 81
f 81 720 721
f 81 721 80
f 132 144 80
f 80 79 132
f 132 79 134
f 143 141 82
f 82 81 143
f 143 81 144
f 129 130 115
f 96 242 95
f 95 94 96
f 95 93 92
f 92 94 95
f 241 242 90
f 241 95 242
f 241 240 93
f 93 95 241
f 16 85 86
f 310 577 305
f 312 310 262
f 312 260 259
f 262 260 312
f 743 744 363
f 744 745 364
f 363 744 364
f 9 434 7
f 7 138 9
f 434 461 438
f 438 7 434
f 435 7 438
f 14 435 438
f 718 78 717
f 718 84 78
f 718 759 84
f 752 772 348
f 347 752 348
f 348 772 341
f 348 346 347
f 748 771 355
f 750 751 351
f 351 352 750
f 750 352 350
f 352 351 350
f 740 370 739
f 331 333 732
f 732 329 331
f 334 774 333
f 334 323 774
f 320 259 338
f 338 339 320
f 39 573 574
f 575 17 16
f 575 573 17
f 575 574 573
f 61 573 39
f 39 62 61
f 17 573 61
f 61 62 17
f 21 22 75
f 726 107 765
f 109 726 111
f 109 107 726
f 108 107 109
f 120 764 725
f 724 764 116
f 724 130 763
f 116 130 724
f 102 729 104
f 104 103 102
f 767 729 102
f 728 113 727
f 191 237 238
f 114 97 113
f 114 766 98
f 114 728 766
f 113 728 114
f 101 102 103
f 103 238 101
f 238 237 101
f 111 113 112
f 113 97 112
f 123 761 762
f 153 151 218
f 760 722 136
f 136 134 760
f 135 132 134
f 134 136 135
f 128 127 129
f 129 115 128
f 119 120 106
f 106 107 108
f 119 230 117
f 117 116 119
f 117 130 116
f 117 115 130
f 89 241 90
f 240 241 89
f 87 86 5
f 5 8 87
f 5 86 85
f 4 8 5
f 138 7 5
f 261 310 307
f 310 305 307
f 286 589 288
f 353 351 751
f 750 350 749
f 355 771 356
f 771 749 356
f 356 749 350
f 733 734 383
f 253 388 396
f 396 388 397
f 393 401 392
f 741 370 740
f 742 743 369
f 369 743 363
f 328 331 329
f 333 331 328
f 326 324 39
f 39 328 326
f 326 328 329
f 732 38 325
f 325 324 732
f 38 39 325
f 39 324 325
f 39 574 321
f 319 339 258
f 319 320 339
f 319 575 320
f 311 312 259
f 259 320 311
f 436 575 16
f 87 14 436
f 16 86 436
f 436 86 87
f 40 38 717
f 717 41 40
f 40 41 38
f 121 120 725
f 725 765 121
f 121 765 107
f 107 106 121
f 121 106 120
f 116 764 118
f 764 120 118
f 119 116 118
f 118 120 119
f 239 240 193
f 240 89 193
f 98 101 99
f 99 114 98
f 97 114 99
f 236 97 99
f 99 237 236
f 99 101 237
f 100 101 98
f 102 101 100
f 98 767 100
f 767 102 100
f 110 109 111
f 111 112 110
f 108 109 110
f 762 127 125
f 125 123 762
f 124 123 125
f 137 722 761
f 761 123 137
f 137 136 722
f 218 151 149
f 3 217 149
f 149 217 218
f 131 143 144
f 221 222 157
f 157 220 221
f 221 131 222
f 140 220 219
f 6 140 219
f 219 218 6
f 219 153 218
f 228 128 115
f 108 110 233
f 173 174 172
f 178 179 180
f 178 177 179
f 173 172 171
f 171 228 173
f 146 85 147
f 146 5 85
f 147 138 146
f 138 5 146
f 13 7 435
f 13 5 7
f 4 5 13
f 13 14 4
f 13 435 14
f 580 286 292
f 286 285 292
f 255 364 745
f 394 401 393
f 446 445 444
f 455 450 456
f 430 412 431
f 429 569 568
f 430 477 429
f 571 655 570
f 485 571 570
f 475 429 477
f 569 429 475
f 469 453 535
f 483 571 485
f 482 481 483
f 485 484 483
f 483 484 482
f 423 422 272
f 424 496 423
f 415 251 416
f 271 269 424
f 271 423 272
f 424 423 271
f 269 267 426
f 426 267 427
f 426 427 490
f 490 492 426
f 477 478 476
f 474 475 476
f 476 475 477
f 479 478 477
f 479 431 481
f 479 477 430
f 430 431 479
f 485 570 487
f 64 63 3
f 440 438 461
f 442 441 440
f 444 442 459
f 194 598 599
f 152 154 204
f 153 154 152
f 160 207 158
f 157 154 155
f 155 154 153
f 155 220 157
f 153 219 155
f 155 219 220
f 73 70 71
f 3 149 1
f 347 346 345
f 345 353 751
f 345 751 752
f 345 752 347
f 351 353 344
f 344 345 346
f 353 345 344
f 344 350 351
f 355 356 349
f 349 356 350
f 380 388 253
f 381 378 380
f 378 388 380
f 382 383 734
f 382 734 735
f 735 381 382
f 381 380 382
f 415 668 713
f 399 390 391
f 391 392 399
f 397 390 398
f 398 390 399
f 389 388 378
f 397 388 389
f 389 390 397
f 375 389 378
f 390 389 375
f 375 376 373
f 373 391 375
f 375 391 390
f 736 381 735
f 770 376 737
f 280 275 281
f 281 275 401
f 393 392 371
f 371 739 370
f 371 391 373
f 392 391 371
f 366 741 742
f 372 738 739
f 372 371 373
f 739 371 372
f 327 329 732
f 327 326 329
f 732 324 327
f 324 326 327
f 323 334 332
f 332 321 323
f 39 321 332
f 323 321 335
f 336 774 335
f 774 323 335
f 318 319 258
f 574 575 318
f 575 319 318
f 578 577 310
f 310 312 578
f 575 436 439
f 438 440 439
f 439 440 441
f 444 445 443
f 443 442 444
f 443 441 442
f 443 578 441
f 443 445 577
f 577 578 443
f 36 43 42
f 717 36 42
f 42 41 717
f 38 41 42
f 42 39 38
f 42 43 39
f 39 43 44
f 44 43 36
f 75 33 34
f 32 33 75
f 35 33 46
f 35 44 36
f 35 34 33
f 35 36 75
f 75 34 35
f 239 193 192
f 192 238 239
f 192 191 238
f 237 191 189
f 236 237 189
f 189 187 236
f 189 188 187
f 127 128 126
f 126 125 127
f 124 125 126
f 122 123 124
f 122 137 123
f 122 224 135
f 122 135 136
f 136 137 122
f 124 225 122
f 225 224 122
f 133 135 222
f 222 131 133
f 132 135 133
f 144 132 133
f 133 131 144
f 142 220 140
f 143 131 142
f 142 221 220
f 131 221 142
f 140 141 142
f 141 143 142
f 157 222 159
f 159 158 157
f 128 228 227
f 228 171 227
f 227 126 128
f 229 117 230
f 173 228 229
f 115 117 229
f 229 228 115
f 231 177 230
f 179 177 231
f 231 230 119
f 119 106 231
f 175 174 173
f 230 177 175
f 173 229 175
f 175 229 230
f 194 207 208
f 208 207 160
f 208 164 209
f 174 215 214
f 213 172 214
f 214 172 174
f 212 211 168
f 209 164 210
f 210 610 209
f 177 178 176
f 174 175 176
f 176 175 177
f 176 215 174
f 168 167 169
f 169 227 171
f 687 688 89
f 596 193 628
f 463 453 465
f 586 587 449
f 577 445 576
f 745 746 256
f 256 255 745
f 256 746 357
f 364 255 257
f 363 364 257
f 747 748 361
f 361 360 747
f 361 748 355
f 358 746 747
f 747 360 358
f 357 746 358
f 362 394 393
f 362 369 363
f 363 394 362
f 401 394 402
f 402 281 401
f 454 503 453
f 453 463 454
f 501 536 535
f 535 453 501
f 504 454 455
f 503 454 504
f 448 456 450
f 450 449 448
f 448 446 457
f 457 456 448
f 511 461 434
f 511 510 461
f 511 512 510
f 481 431 572
f 571 483 572
f 572 483 481
f 563 553 552
f 653 570 655
f 432 431 412
f 432 572 431
f 656 655 571
f 571 572 656
f 473 475 474
f 569 475 473
f 473 531 569
f 471 531 473
f 465 453 467
f 453 469 467
f 470 469 471
f 494 496 424
f 494 492 493
f 264 416 251
f 272 422 264
f 422 416 264
f 263 396 397
f 263 271 272
f 272 264 263
f 424 269 425
f 269 426 425
f 425 494 424
f 425 426 492
f 492 494 425
f 480 420 478
f 480 481 482
f 480 479 481
f 478 479 480
f 588 589 474
f 474 476 588
f 588 288 589
f 588 289 288
f 419 480 482
f 420 480 419
f 495 494 493
f 495 497 496
f 496 494 495
f 490 489 491
f 491 492 490
f 493 492 491
f 488 489 490
f 488 487 489
f 490 427 488
f 427 428 488
f 461 510 460
f 460 440 461
f 442 440 460
f 460 459 442
f 444 459 458
f 458 446 444
f 457 446 458
f 195 207 194
f 194 599 195
f 615 213 617
f 611 211 614
f 150 149 151
f 151 153 150
f 153 152 150
f 156 154 157
f 157 158 156
f 69 71 70
f 73 71 411
f 66 88 72
f 72 70 73
f 72 88 70
f 2 64 3
f 3 1 2
f 513 64 2
f 350 344 406
f 406 349 350
f 344 386 406
f 253 247 246
f 246 245 253
f 712 711 251
f 712 251 415
f 415 713 712
f 270 263 397
f 269 271 270
f 271 263 270
f 379 378 381
f 381 736 379
f 379 736 769
f 399 275 277
f 277 398 399
f 400 392 401
f 401 275 400
f 399 392 400
f 400 275 399
f 280 281 282
f 282 419 280
f 420 419 282
f 370 741 365
f 741 366 365
f 365 371 370
f 742 369 368
f 368 366 742
f 369 362 368
f 373 376 374
f 374 372 373
f 374 376 770
f 770 738 374
f 738 372 374
f 330 334 333
f 330 332 334
f 333 328 330
f 330 328 39
f 39 332 330
f 313 318 258
f 441 578 579
f 575 439 579
f 579 439 441
f 320 575 579
f 579 311 320
f 312 311 579
f 579 578 312
f 438 439 437
f 437 439 436
f 14 438 437
f 437 436 14
f 39 53 54
f 48 49 39
f 33 32 48
f 48 32 49
f 75 30 31
f 31 32 75
f 30 32 31
f 45 35 46
f 44 35 45
f 45 46 39
f 39 44 45
f 187 188 186
f 180 179 181
f 233 183 181
f 236 187 235
f 235 97 236
f 235 112 97
f 165 224 225
f 165 163 224
f 225 167 165
f 164 163 165
f 224 163 161
f 161 159 222
f 160 158 161
f 158 159 161
f 162 163 164
f 162 208 160
f 164 208 162
f 160 161 162
f 162 161 163
f 226 167 225
f 126 227 226
f 226 169 167
f 227 169 226
f 226 225 124
f 124 126 226
f 622 620 180
f 180 181 182
f 182 181 183
f 179 231 232
f 232 181 179
f 233 181 232
f 108 233 232
f 232 106 108
f 232 231 106
f 170 172 213
f 213 212 170
f 170 212 168
f 170 171 172
f 168 169 170
f 170 169 171
f 166 210 164
f 166 167 168
f 168 211 166
f 211 210 166
f 166 165 167
f 164 165 166
f 610 210 675
f 452 463 462
f 452 454 463
f 452 450 455
f 455 454 452
f 580 292 581
f 581 470 580
f 309 576 587
f 587 304 309
f 303 309 304
f 403 402 395
f 395 402 394
f 395 257 255
f 395 394 363
f 363 257 395
f 255 256 395
f 359 358 360
f 357 358 359
f 359 256 357
f 359 395 256
f 288 289 283
f 283 289 284
f 281 402 283
f 284 282 283
f 283 282 281
f 453 503 502
f 502 501 453
f 538 502 503
f 447 448 449
f 447 576 445
f 445 446 447
f 446 448 447
f 447 449 587
f 587 576 447
f 65 64 513
f 513 512 65
f 63 64 65
f 10 434 9
f 10 511 434
f 9 145 10
f 10 145 6
f 561 650 651
f 412 705 658
f 536 550 534
f 535 536 534
f 533 532 531
f 533 469 535
f 535 534 533
f 533 534 532
f 533 531 471
f 471 469 533
f 568 553 413
f 413 429 568
f 413 412 430
f 430 429 413
f 530 553 568
f 531 532 530
f 530 532 552
f 552 553 530
f 568 569 530
f 569 531 530
f 562 563 552
f 433 487 570
f 489 487 433
f 657 432 691
f 691 432 659
f 580 470 472
f 474 589 472
f 472 589 580
f 472 473 474
f 471 473 472
f 472 470 471
f 416 500 414
f 414 668 415
f 415 416 414
f 499 416 422
f 499 500 416
f 396 263 265
f 265 263 264
f 265 264 251
f 421 476 478
f 421 588 476
f 478 420 421
f 421 282 284
f 420 282 421
f 284 289 421
f 289 588 421
f 482 484 418
f 418 419 482
f 497 707 638
f 709 495 661
f 663 660 493
f 662 491 710
f 487 488 486
f 486 484 485
f 485 487 486
f 486 488 428
f 207 195 206
f 206 158 207
f 603 672 198
f 70 200 201
f 201 69 70
f 201 607 592
f 592 69 201
f 203 152 204
f 203 150 152
f 670 598 194
f 194 609 670
f 613 212 616
f 148 1 149
f 149 150 148
f 521 69 592
f 71 69 521
f 521 411 71
f 66 72 74
f 74 67 66
f 74 72 73
f 73 411 74
f 514 2 1
f 1 515 514
f 564 513 514
f 513 2 514
f 291 292 285
f 291 581 292
f 290 406 386
f 252 248 247
f 252 247 253
f 253 396 252
f 396 265 252
f 249 248 252
f 252 265 249
f 250 265 251
f 249 265 250
f 245 244 254
f 253 245 254
f 254 380 253
f 383 382 254
f 254 382 380
f 377 375 378
f 378 379 377
f 376 375 377
f 377 737 376
f 769 737 377
f 377 379 769
f 398 277 268
f 268 267 269
f 269 270 268
f 397 398 268
f 268 270 397
f 276 275 274
f 276 277 275
f 366 368 367
f 367 365 366
f 367 362 393
f 367 368 362
f 393 371 367
f 371 365 367
f 385 258 755
f 385 313 258
f 337 313 385
f 755 774 385
f 774 337 385
f 336 335 322
f 322 315 336
f 322 335 321
f 322 321 574
f 574 315 322
f 314 313 337
f 314 337 336
f 318 313 314
f 22 59 58
f 39 57 58
f 58 59 39
f 29 54 53
f 29 30 75
f 56 57 39
f 56 54 57
f 52 51 30
f 30 29 52
f 52 29 53
f 52 53 39
f 39 51 52
f 50 32 30
f 30 51 50
f 49 32 50
f 39 49 50
f 50 51 39
f 46 33 47
f 33 48 47
f 39 46 47
f 47 48 39
f 625 188 627
f 190 189 191
f 188 189 190
f 184 182 183
f 597 594 192
f 185 235 187
f 185 184 183
f 187 186 185
f 186 184 185
f 234 183 233
f 112 235 234
f 234 185 183
f 235 185 234
f 234 110 112
f 234 233 110
f 223 161 222
f 224 161 223
f 222 135 223
f 135 224 223
f 621 182 682
f 678 679 215
f 215 176 216
f 216 176 178
f 676 677 214
f 612 675 210
f 451 452 462
f 586 449 451
f 451 449 450
f 450 452 451
f 464 584 462
f 583 584 464
f 464 463 465
f 462 463 464
f 306 307 305
f 261 307 306
f 306 305 577
f 577 576 306
f 306 303 261
f 387 386 344
f 302 303 304
f 586 300 302
f 302 587 586
f 302 304 587
f 341 342 340
f 340 342 261
f 261 303 340
f 340 348 341
f 346 348 340
f 340 344 346
f 340 387 344
f 288 283 287
f 286 288 287
f 287 402 403
f 287 283 402
f 287 285 286
f 502 538 537
f 536 501 537
f 501 502 537
f 503 504 539
f 539 538 503
f 539 504 540
f 564 517 543
f 543 513 564
f 543 512 513
f 510 512 543
f 6 63 12
f 63 65 12
f 12 65 512
f 512 511 12
f 408 637 407
f 407 558 408
f 558 407 559
f 540 541 545
f 552 532 551
f 532 534 551
f 551 534 550
f 551 562 552
f 551 550 561
f 561 562 551
f 706 553 704
f 706 413 553
f 701 702 563
f 704 553 703
f 652 562 699
f 665 433 654
f 500 694 667
f 496 497 498
f 498 423 496
f 422 423 498
f 498 499 422
f 280 419 273
f 419 418 273
f 273 418 274
f 274 275 273
f 273 275 280
f 708 707 497
f 417 486 428
f 417 418 484
f 484 486 417
f 274 418 417
f 417 276 274
f 204 154 205
f 154 156 205
f 205 156 158
f 158 206 205
f 197 198 204
f 204 205 197
f 199 604 605
f 605 200 199
f 204 198 199
f 199 203 204
f 607 201 674
f 70 88 202
f 202 200 70
f 202 199 200
f 203 199 202
f 202 88 66
f 66 148 202
f 150 203 202
f 202 148 150
f 523 643 696
f 528 410 529
f 698 637 408
f 408 409 698
f 522 410 528
f 641 521 592
f 528 567 524
f 523 522 524
f 524 522 528
f 540 504 505
f 505 541 540
f 455 456 505
f 505 504 455
f 1 148 68
f 68 515 1
f 68 148 66
f 66 67 68
f 67 515 68
f 554 519 520
f 520 519 518
f 520 567 554
f 67 74 527
f 527 515 67
f 527 74 411
f 565 514 515
f 564 514 565
f 565 517 564
f 518 517 565
f 582 581 299
f 581 291 299
f 299 291 285
f 285 290 299
f 298 583 582
f 406 290 405
f 349 406 405
f 383 254 384
f 384 254 244
f 384 244 243
f 243 733 384
f 733 383 384
f 279 268 277
f 279 428 427
f 277 276 278
f 428 279 278
f 278 279 277
f 278 417 428
f 276 417 278
f 336 315 317
f 317 314 336
f 318 314 317
f 18 19 39
f 18 59 22
f 22 19 18
f 22 21 20
f 20 19 22
f 39 19 20
f 75 39 20
f 20 21 75
f 22 58 24
f 24 58 57
f 57 54 27
f 75 26 27
f 39 54 55
f 55 56 39
f 54 56 55
f 684 190 686
f 686 190 685
f 626 624 186
f 623 184 683
f 585 300 586
f 462 584 585
f 586 451 585
f 585 451 462
f 582 583 466
f 583 464 466
f 465 467 466
f 466 464 465
f 576 309 308
f 308 306 576
f 309 303 308
f 303 306 308
f 301 302 300
f 303 302 301
f 301 340 303
f 387 340 301
f 548 537 538
f 558 559 548
f 11 10 6
f 6 12 11
f 511 10 11
f 11 12 511
f 646 407 636
f 636 407 637
f 561 550 560
f 648 649 560
f 556 529 409
f 700 701 563
f 692 693 499
f 640 694 500
f 196 205 206
f 196 197 205
f 196 206 195
f 196 600 601
f 602 197 671
f 604 199 673
f 606 674 201
f 697 698 409
f 410 690 644
f 695 522 642
f 525 524 567
f 523 524 525
f 525 521 523
f 411 521 525
f 544 519 554
f 544 545 541
f 457 458 507
f 567 520 526
f 526 525 567
f 526 527 411
f 411 525 526
f 566 565 515
f 566 526 520
f 566 520 518
f 518 565 566
f 515 527 566
f 527 526 566
f 296 584 583
f 583 298 296
f 296 290 386
f 296 298 290
f 582 299 297
f 297 298 582
f 297 299 290
f 290 298 297
f 360 361 354
f 354 359 360
f 354 361 355
f 355 349 354
f 349 405 354
f 404 290 285
f 404 405 290
f 359 354 404
f 404 354 405
f 285 287 404
f 404 287 403
f 403 395 404
f 395 359 404
f 427 267 266
f 266 279 427
f 267 268 266
f 268 279 266
f 574 318 316
f 318 317 316
f 316 315 574
f 316 317 315
f 39 59 60
f 60 18 39
f 59 18 60
f 75 22 23
f 23 24 75
f 22 24 23
f 25 26 75
f 75 24 25
f 25 27 26
f 25 24 57
f 57 27 25
f 54 29 28
f 28 27 54
f 28 29 75
f 75 27 28
f 681 216 680
f 216 619 680
f 582 466 468
f 468 581 582
f 470 581 468
f 469 470 468
f 468 467 469
f 468 466 467
f 538 539 547
f 547 548 538
f 558 548 547
f 559 560 549
f 549 548 559
f 549 560 550
f 537 548 549
f 549 550 536
f 536 537 549
f 554 567 555
f 555 567 528
f 555 544 554
f 528 529 555
f 529 556 555
f 555 556 545
f 545 544 555
f 666 690 410
f 508 458 459
f 508 507 458
f 457 507 506
f 506 456 457
f 506 505 456
f 541 505 506
f 541 506 542
f 542 506 507
f 542 544 541
f 519 544 542
f 300 585 293
f 293 585 584
f 293 301 300
f 386 387 293
f 387 301 293
f 545 556 546
f 540 545 546
f 546 539 540
f 546 547 539
f 510 543 509
f 543 508 509
f 509 460 510
f 459 460 509
f 509 508 459
f 507 508 516
f 516 542 507
f 516 543 517
f 516 508 543
f 519 542 516
f 516 517 518
f 518 519 516
f 584 296 294
f 294 293 584
f 557 546 556
f 408 558 557
f 558 547 557
f 547 546 557
f 557 409 408
f 557 556 409
f 295 296 386
f 295 294 296
f 386 293 295
f 293 294 295
f 757 669 96
f 96 768 757
f 90 242 593
f 593 96 669
f 593 242 96
f 717 732 737
f 737 731 730
f 737 775 757
f 760 721 737
f 737 751 750
f 757 768 737
f 737 738 770
f 758 775 737
f 727 726 737
f 737 765 725
f 735 734 737
f 753 772 737
f 737 748 747
f 737 756 758
f 737 773 753
f 768 731 737
f 737 724 763
f 737 718 717
f 737 755 754
f 754 773 737
f 732 774 737
f 763 723 737
f 747 746 737
f 744 743 737
f 737 720 719
f 737 774 755
f 740 739 737
f 730 729 737
f 737 723 762
f 762 761 737
f 737 722 760
f 737 745 744
f 719 759 737
f 721 720 737
f 752 751 737
f 737 772 752
f 737 728 727
f 737 733 756
f 750 749 737
f 725 764 737
f 737 729 767
f 767 766 737
f 761 722 737
f 737 743 742
f 759 718 737
f 771 748 737
f 737 734 733
f 737 741 740
f 726 765 737
f 764 724 737
f 766 728 737
f 737 749 771
f 737 736 735
f 742 741 737
f 739 738 737
f 737 746 745
f 769 736 737
f 90 593 687
f 687 89 90
f 628 193 89
f 89 688 628
f 656 432 657
f 572 432 656
f 660 495 493
f 661 495 660
f 211 212 614
f 614 212 613
f 633 632 248
f 248 632 247
f 634 633 248
f 248 249 634
f 246 632 631
f 247 632 246
f 631 630 246
f 246 630 245
f 244 629 689
f 689 243 244
f 244 630 629
f 245 630 244
f 621 622 182
f 182 622 180
f 617 213 677
f 213 214 677
f 659 432 658
f 658 432 412
f 665 664 433
f 433 664 489
f 493 491 663
f 663 491 662
f 489 664 710
f 710 491 489
f 209 610 608
f 608 208 209
f 194 208 608
f 608 609 194
f 616 212 213
f 213 615 616
f 711 635 250
f 251 711 250
f 634 249 250
f 250 635 634
f 684 627 190
f 190 627 188
f 597 193 596
f 597 192 193
f 595 190 191
f 685 190 595
f 191 192 595
f 192 594 595
f 682 184 623
f 182 184 682
f 681 678 216
f 216 678 215
f 215 679 676
f 676 214 215
f 612 211 611
f 612 210 211
f 706 705 412
f 412 413 706
f 553 563 703
f 563 702 703
f 561 651 699
f 699 562 561
f 570 653 654
f 654 433 570
f 668 414 667
f 667 414 500
f 498 638 639
f 497 638 498
f 497 495 708
f 495 709 708
f 602 603 197
f 197 603 198
f 522 696 642
f 523 696 522
f 641 643 523
f 523 521 641
f 626 188 625
f 626 186 188
f 186 624 683
f 683 184 186
f 560 649 650
f 560 650 561
f 647 407 646
f 647 559 407
f 648 560 647
f 647 560 559
f 700 562 652
f 563 562 700
f 692 498 639
f 499 498 692
f 500 499 640
f 499 693 640
f 599 600 196
f 196 195 599
f 671 196 601
f 197 196 671
f 198 672 673
f 673 199 198
f 606 200 605
f 606 201 200
f 697 529 645
f 409 529 697
f 645 529 644
f 644 529 410
f 180 620 618
f 618 178 180
f 618 216 178
f 618 619 216
f 689 629 666
f 757 775 666
f 666 669 757
f 666 593 669
f 666 714 689
f 646 636 666
f 666 600 599
f 775 716 666
f 666 686 685
f 625 627 666
f 666 716 715
f 715 714 666
f 666 603 602
f 694 640 666
f 666 676 679
f 631 632 666
f 655 656 666
f 666 664 665
f 634 635 666
f 666 691 659
f 711 712 666
f 666 687 593
f 642 696 666
f 666 706 704
f 661 660 666
f 666 599 598
f 611 614 666
f 666 633 634
f 666 697 645
f 666 713 668
f 623 683 666
f 596 628 666
f 659 658 666
f 652 699 666
f 668 667 666
f 662 710 666
f 617 677 666
f 666 615 617
f 592 607 666
f 666 606 605
f 666 630 631
f 685 595 666
f 620 622 666
f 688 687 666
f 666 628 688
f 704 703 666
f 650 649 666
f 666 653 655
f 666 656 657
f 639 638 666
f 666 709 661
f 666 663 662
f 605 604 666
f 598 670 666
f 666 608 610
f 666 614 613
f 613 616 666
f 666 632 633
f 666 635 711
f 629 630 666
f 666 712 713
f 666 641 592
f 666 597 596
f 666 622 621
f 666 682 623
f 679 678 666
f 610 675 666
f 666 651 650
f 666 612 611
f 681 680 666
f 666 658 705
f 666 647 646
f 657 691 666
f 665 654 666
f 666 638 707
f 666 700 652
f 660 663 666
f 666 710 664
f 707 708 666
f 602 671 666
f 672 603 666
f 666 670 609
f 609 608 666
f 666 616 615
f 666 673 672
f 666 627 684
f 666 626 625
f 594 597 666
f 666 595 594
f 621 682 666
f 666 678 681
f 677 676 666
f 675 612 666
f 666 649 648
f 705 706 666
f 702 701 666
f 666 703 702
f 666 699 651
f 666 654 653
f 666 667 694
f 666 692 639
f 666 708 709
f 601 600 666
f 607 674 666
f 666 696 643
f 637 698 666
f 645 644 666
f 643 641 666
f 684 686 666
f 624 626 666
f 666 683 624
f 666 695 642
f 666 636 637
f 648 647 666
f 701 700 666
f 693 692 666
f 666 640 693
f 666 671 601
f 604 673 666
f 674 606 666
f 698 697 666
f 666 644 690
f 666 618 620
f 666 680 619
f 619 618 666
f 410 522 666
f 522 695 666

