# https://github.com/mikedh/trimesh
v -0.00999619 -0.02108716 -0.01028571
v -0.00730000 -0.02770102 -0.01028571
v 0.00416643 -0.02769021 -0.01028571
v -0.01000000 -0.01638564 -0.01028571
v 0.00554694 -0.02647283 -0.01028571
v 0.00519505 -0.02704444 -0.01028571
v 0.00458841 -0.02753104 -0.01028571
v 0.00444271 -0.02761485 -0.01028571
v 0.00527276 -0.01500331 -0.01028571
v 0.00525625 -0.01500292 -0.01028571
v 0.00538304 -0.01501053 -0.01028571
v 0.00556156 -0.01503093 -0.01028571
v 0.00554048 -0.01502851 -0.01028571
v 0.00563244 -0.01504205 -0.01028571
v 0.00570855 -0.01505595 -0.01028571
v 0.00587832 -0.01509435 -0.01028571
v 0.00600500 -0.01512987 -0.01028571
v 0.00598968 -0.01512556 -0.01028571
v 0.00611896 -0.01516704 -0.01028571
v 0.00614087 -0.01517551 -0.01028571
v 0.00635268 -0.01525962 -0.01028571
v 0.00657781 -0.01537145 -0.01028571
v 0.00673046 -0.01546139 -0.01028571
v 0.00679280 -0.01550173 -0.01028571
v 0.00686727 -0.01555287 -0.01028571
v 0.00699612 -0.01564955 -0.01028571
v 0.00712689 -0.01575948 -0.01028571
v 0.00718636 -0.01581388 -0.01028571
v 0.00724838 -0.01587387 -0.01028571
v 0.00724004 -0.01586577 -0.01028571
v 0.00747166 -0.01612239 -0.01028571
v 0.00752232 -0.01618732 -0.01028571
v 0.00757243 -0.01625538 -0.01028571
v 0.00766569 -0.01639381 -0.01028571
v 0.00775015 -0.01653553 -0.01028571
v 0.00773930 -0.01651721 -0.01028571
v 0.00779126 -0.01661158 -0.01028571
v 0.00789075 -0.01682263 -0.01028571
v 0.00789816 -0.01683909 -0.01028571
v 0.00798564 -0.01707476 -0.01028571
v 0.00807872 -0.01743776 -0.01028571
v 0.00807527 -0.01742120 -0.01028571
v 0.00810002 -0.01756389 -0.01028571
v 0.00813118 -0.01806524 -0.01028571
v -0.00768157 -0.02733894 -0.01028571
v -0.00766081 -0.02737971 -0.01028571
v -0.00760761 -0.02746938 -0.01028571
v -0.00748493 -0.02761725 -0.01028571
v -0.00741673 -0.02766616 -0.01028571
v -0.00736287 -0.02768930 -0.01028571
v -0.00735869 -0.02769075 -0.01028571
v -0.00730846 -0.02769984 -0.01028571
v 0.00791874 -0.02017004 -0.01028571
v 0.00783070 -0.02100090 -0.01028571
v 0.00775623 -0.02148695 -0.01028571
v 0.00723652 -0.02305554 -0.01028571
v 0.00771726 -0.02166672 -0.01028571
v 0.00767818 -0.02182906 -0.01028571
v 0.00761583 -0.02205965 -0.01028571
v 0.00763239 -0.02199972 -0.01028571
v 0.00755478 -0.02225579 -0.01028571
v 0.00748672 -0.02245078 -0.01028571
v 0.00741162 -0.02264388 -0.01028571
v 0.00732855 -0.02284281 -0.01028571
v -0.01000000 -0.02100000 -0.01028571
v -0.00998481 -0.02117365 -0.01028571
v -0.00996593 -0.02125882 -0.01028571
v -0.00993969 -0.02134202 -0.01028571
v 0.00286433 -0.02772039 -0.01028571
v -0.00920000 -0.01500000 -0.01028571
v 0.00530329 -0.02688356 -0.01028571
v 0.00534964 -0.02681151 -0.01028571
v 0.00535934 -0.02679590 -0.01028571
v 0.00541941 -0.02669416 -0.01028571
v 0.00559524 -0.02638165 -0.01028571
v 0.00568533 -0.02620858 -0.01028571
v 0.00473913 -0.02741132 -0.01028571
v 0.00430230 -0.02766421 -0.01028571
v 0.00537028 -0.01500969 -0.01028571
v 0.00562445 -0.01504080 -0.01028571
v 0.00569931 -0.01505425 -0.01028571
v 0.00585890 -0.01508994 -0.01028571
v 0.00610624 -0.01516287 -0.01028571
v 0.00634734 -0.01525730 -0.01028571
v 0.00643467 -0.01529784 -0.01028571
v 0.00656331 -0.01536391 -0.01028571
v 0.00644641 -0.01530333 -0.01028571
v 0.00671171 -0.01545030 -0.01028571
v 0.00678649 -0.01549763 -0.01028571
v 0.00685758 -0.01554619 -0.01028571
v 0.00698211 -0.01563900 -0.01028571
v 0.00711056 -0.01574570 -0.01028571
v 0.00718052 -0.01580851 -0.01028571
v 0.00735001 -0.01598071 -0.01028571
v 0.00745779 -0.01610599 -0.01028571
v 0.00736217 -0.01599355 -0.01028571
v 0.00751752 -0.01618114 -0.01028571
v 0.00756550 -0.01624591 -0.01028571
v 0.00765590 -0.01637920 -0.01028571
v 0.00778747 -0.01660452 -0.01028571
v 0.00794613 -0.01696185 -0.01028571
v 0.00805308 -0.01731693 -0.01028571
v 0.00809800 -0.01755166 -0.01028571
v 0.00812611 -0.01781391 -0.01028571
v 0.00811518 -0.01831611 -0.01028571
v -0.00778739 -0.02709832 -0.01028571
v -0.00778088 -0.02711565 -0.01028571
v -0.00774188 -0.02720948 -0.01028571
v -0.00772420 -0.02725188 -0.01028571
v -0.00761529 -0.02745689 -0.01028571
v -0.00754915 -0.02754957 -0.01028571
v -0.00743026 -0.02765771 -0.01028571
v 0.00785892 -0.02073454 -0.01028571
v 0.00787426 -0.02058985 -0.01028571
v 0.00513188 -0.01500000 -0.01028571
v 0.00778771 -0.02131803 -0.01028571
v 0.00778224 -0.02134744 -0.01028571
v 0.00702882 -0.02349292 -0.01028571
v 0.00766996 -0.02186306 -0.01028571
v 0.00758180 -0.02216924 -0.01028571
v 0.00752645 -0.02233722 -0.01028571
v 0.00746640 -0.02250327 -0.01028571
v 0.00713733 -0.02326608 -0.01028571
v -0.01000000 -0.01638564 -0.00342857
v 0.00521764 -0.01500201 -0.00342857
v 0.00534024 -0.01500772 -0.00342857
v 0.00549160 -0.01502293 -0.00342857
v 0.00567855 -0.01505047 -0.00342857
v 0.00581321 -0.01507958 -0.00342857
v 0.00595510 -0.01511587 -0.00342857
v 0.00611896 -0.01516704 -0.00342857
v 0.00640921 -0.01528597 -0.00342857
v 0.00652918 -0.01534616 -0.00342857
v 0.00667014 -0.01542582 -0.00342857
v 0.00683746 -0.01553239 -0.00342857
v 0.00694915 -0.01561417 -0.00342857
v 0.00707503 -0.01571584 -0.00342857
v 0.00716677 -0.01579588 -0.00342857
v 0.00722337 -0.01584966 -0.00342857
v 0.00742810 -0.01607108 -0.00342857
v 0.00755209 -0.01622772 -0.00342857
v 0.00763288 -0.01634483 -0.00342857
v 0.00771644 -0.01647889 -0.00342857
v 0.00787331 -0.01678391 -0.00342857
v 0.00798564 -0.01707476 -0.00342857
v 0.00806838 -0.01738883 -0.00342857
v 0.00809325 -0.01752289 -0.00342857
v 0.00812611 -0.01781391 -0.00342857
v 0.00813118 -0.01806524 -0.00342857
v 0.00811518 -0.01831611 -0.00342857
v 0.00761093 -0.02307492 -0.00342857
v -0.00920000 -0.01500000 -0.00342857
v -0.01000000 -0.02100000 -0.00342857
v -0.00999619 -0.02108716 -0.00342857
v 0.00513188 -0.01500000 -0.00342857
v 0.00538304 -0.01501053 -0.00342857
v 0.00556230 -0.01503104 -0.00342857
v 0.00560566 -0.01503784 -0.00342857
v 0.00563244 -0.01504205 -0.00342857
v 0.00570954 -0.01505614 -0.00342857
v 0.00600648 -0.01513032 -0.00342857
v 0.00607629 -0.01515308 -0.00342857
v 0.00619242 -0.01519543 -0.00342857
v 0.00633478 -0.01525183 -0.00342857
v 0.00635268 -0.01525962 -0.00342857
v 0.00644858 -0.01530439 -0.00342857
v 0.00657781 -0.01537145 -0.00342857
v 0.00673300 -0.01546300 -0.00342857
v 0.00677163 -0.01548798 -0.00342857
v 0.00679280 -0.01550173 -0.00342857
v 0.00686996 -0.01555479 -0.00342857
v 0.00699612 -0.01564955 -0.00342857
v 0.00712979 -0.01576207 -0.00342857
v 0.00718636 -0.01581388 -0.00342857
v 0.00725133 -0.01587682 -0.00342857
v 0.00732141 -0.01595049 -0.00342857
v 0.00736217 -0.01599355 -0.00342857
v 0.00747461 -0.01612609 -0.00342857
v 0.00750624 -0.01616659 -0.00342857
v 0.00752232 -0.01618732 -0.00342857
v 0.00757532 -0.01625945 -0.00342857
v 0.00775282 -0.01654034 -0.00342857
v 0.00777855 -0.01658790 -0.00342857
v 0.00779126 -0.01661158 -0.00342857
v 0.00789816 -0.01683909 -0.00342857
v 0.00793123 -0.01692374 -0.00342857
v 0.00805308 -0.01731693 -0.00342857
v 0.00681215 -0.03061339 -0.00342857
v 0.00626361 -0.03579016 -0.00342857
v 0.00527300 -0.01500332 -0.00342857
v 0.00587832 -0.01509435 -0.00342857
v 0.00766569 -0.01639381 -0.00342857
v 0.00807996 -0.01744436 -0.00342857
v 0.00810002 -0.01756389 -0.00342857
v 0.00189003 -0.03600267 -0.00913029
v -0.00127189 -0.03600267 -0.00912971
v 0.00352888 -0.03600267 -0.00911288
v 0.00343683 -0.03600267 -0.00911930
v 0.00366611 -0.03600267 -0.00909722
v 0.00357283 -0.03600267 -0.00910800
v 0.00380453 -0.03600267 -0.00907489
v 0.00371024 -0.03600267 -0.00909024
v 0.00394366 -0.03600267 -0.00904568
v 0.00384870 -0.03600267 -0.00906576
v 0.00408304 -0.03600267 -0.00900940
v 0.00422214 -0.03600267 -0.00896589
v 0.00436044 -0.03600267 -0.00891508
v 0.00463235 -0.03600267 -0.00879141
v 0.00453950 -0.03600267 -0.00883660
v 0.00467360 -0.03600267 -0.00876887
v 0.00489422 -0.03600267 -0.00863872
v 0.00514152 -0.03600267 -0.00845826
v 0.00505764 -0.03600267 -0.00852295
v 0.00525836 -0.03600267 -0.00835827
v 0.00517771 -0.03600267 -0.00842740
v 0.00537001 -0.03600267 -0.00825224
v 0.00529294 -0.03600267 -0.00832555
v 0.00557592 -0.03600267 -0.00802370
v 0.00560493 -0.03600267 -0.00798609
v 0.00575622 -0.03600267 -0.00777640
v 0.00578107 -0.03600267 -0.00773622
v 0.00590871 -0.03600267 -0.00751459
v 0.00603213 -0.03600267 -0.00724280
v 0.00599231 -0.03600267 -0.00733678
v 0.00608281 -0.03600267 -0.00710458
v 0.00612617 -0.03600267 -0.00696557
v 0.00609652 -0.03600267 -0.00706071
v 0.00616231 -0.03600267 -0.00682629
v 0.00613764 -0.03600267 -0.00692143
v 0.00619137 -0.03600267 -0.00668726
v 0.00617157 -0.03600267 -0.00678204
v 0.00621354 -0.03600267 -0.00654897
v 0.00619847 -0.03600267 -0.00664304
v 0.00622904 -0.03600267 -0.00641186
v 0.00621853 -0.03600267 -0.00650492
v 0.00623198 -0.03600267 -0.00636811
v 0.00624109 -0.03600267 -0.00613668
v -0.00752530 -0.03600267 -0.00910401
v -0.00758646 -0.03600267 -0.00908773
v -0.00760761 -0.03600267 -0.00908159
v -0.00764633 -0.03600267 -0.00906765
v -0.00766702 -0.03600267 -0.00906019
v -0.00770469 -0.03600267 -0.00904386
v -0.00772485 -0.03600267 -0.00903512
v -0.00776133 -0.03600267 -0.00901650
v -0.00781604 -0.03600267 -0.00898567
v -0.00783491 -0.03600267 -0.00897449
v -0.00786860 -0.03600267 -0.00895154
v -0.00791883 -0.03600267 -0.00891425
v -0.00793614 -0.03600267 -0.00890080
v -0.00796656 -0.03600267 -0.00887396
v -0.00798299 -0.03600267 -0.00885946
v -0.00802704 -0.03600267 -0.00881542
v -0.00809298 -0.03600267 -0.00873698
v -0.00810645 -0.03600267 -0.00871968
v -0.00812910 -0.03600267 -0.00868654
v -0.00814147 -0.03600267 -0.00866844
v -0.00816198 -0.03600267 -0.00863406
v -0.00817321 -0.03600267 -0.00861522
v -0.00821763 -0.03600267 -0.00852381
v -0.00822647 -0.03600267 -0.00850373
v -0.00824022 -0.03600267 -0.00846649
v -0.00824782 -0.03600267 -0.00844589
v -0.00825923 -0.03600267 -0.00840799
v -0.00826557 -0.03600267 -0.00838697
v -0.00828635 -0.03600267 -0.00828841
v -0.00829008 -0.03600267 -0.00826676
v -0.00829680 -0.03600267 -0.00820594
v -0.00829885 -0.03600267 -0.00815452
v 0.00624109 -0.03600267 -0.00373770
v 0.00624109 -0.03600267 -0.00342857
v 0.00339335 -0.03600267 -0.00912213
v 0.00398774 -0.03600267 -0.00903434
v 0.00412687 -0.03600267 -0.00899582
v 0.00426557 -0.03600267 -0.00895007
v 0.00440330 -0.03600267 -0.00889701
v 0.00449736 -0.03600267 -0.00885692
v 0.00480504 -0.03600267 -0.00869392
v 0.00476482 -0.03600267 -0.00871864
v 0.00493324 -0.03600267 -0.00861188
v 0.00501996 -0.03600267 -0.00855184
v 0.00540283 -0.03600267 -0.00821776
v 0.00550696 -0.03600267 -0.00810445
v 0.00547599 -0.03600267 -0.00814056
v 0.00569640 -0.03600267 -0.00786317
v 0.00566943 -0.03600267 -0.00790214
v 0.00585872 -0.03600267 -0.00760579
v 0.00583604 -0.03600267 -0.00764703
v 0.00592917 -0.03600267 -0.00747245
v 0.00597409 -0.03600267 -0.00737966
v 0.00604809 -0.03600267 -0.00719934
v 0.00623909 -0.03600267 -0.00623303
v 0.00623813 -0.03600267 -0.00627635
v -0.00735870 -0.03600267 -0.00912858
v -0.00740011 -0.03600267 -0.00912480
v -0.00742214 -0.03600267 -0.00912279
v -0.00746311 -0.03600267 -0.00911639
v -0.00748493 -0.03600267 -0.00911298
v -0.00754683 -0.03600267 -0.00909922
v -0.00778088 -0.03600267 -0.00900651
v -0.00788672 -0.03600267 -0.00893920
v -0.00801156 -0.03600267 -0.00883090
v -0.00805375 -0.03600267 -0.00878517
v -0.00806826 -0.03600267 -0.00876874
v -0.00819152 -0.03600267 -0.00857974
v -0.00820158 -0.03600267 -0.00856025
v -0.00827462 -0.03600267 -0.00834856
v -0.00827966 -0.03600267 -0.00832718
v -0.00829438 -0.03600267 -0.00822778
v -0.00830000 -0.03600267 -0.00812559
v -0.00830000 -0.03600267 -0.00342857
f 2 69 294
f 68 300 67
f 195 69 3
f 196 69 195
f 196 294 69
f 7 197 8
f 195 3 272
f 107 242 106
f 106 242 68
f 111 298 47
f 151 53 150
f 188 53 151
f 150 53 105
f 54 234 116
f 1 269 310
f 268 269 1
f 66 267 1
f 253 66 67
f 78 272 3
f 8 272 78
f 198 8 197
f 198 272 8
f 2 294 52
f 294 51 52
f 294 49 50
f 50 51 294
f 112 49 294
f 48 112 296
f 111 48 296
f 241 242 107
f 107 240 241
f 239 240 109
f 109 299 239
f 300 68 245
f 68 244 245
f 68 242 243
f 243 244 68
f 110 299 46
f 47 299 110
f 238 47 298
f 238 299 47
f 77 199 7
f 6 199 77
f 200 197 7
f 7 199 200
f 57 55 290
f 67 300 246
f 246 247 67
f 248 301 67
f 67 247 248
f 251 252 67
f 67 250 251
f 67 301 249
f 249 250 67
f 66 308 266
f 266 267 66
f 264 66 263
f 264 265 66
f 307 308 66
f 66 265 307
f 258 66 257
f 258 259 66
f 305 306 66
f 66 259 305
f 263 66 262
f 66 261 262
f 66 306 260
f 260 261 66
f 268 1 309
f 309 1 267
f 257 66 256
f 66 255 256
f 66 304 254
f 254 255 66
f 303 304 66
f 66 253 303
f 67 252 302
f 302 253 67
f 295 112 294
f 295 296 112
f 297 298 111
f 111 296 297
f 108 240 107
f 108 109 240
f 46 299 45
f 299 109 45
f 118 207 76
f 123 207 118
f 216 120 59
f 6 204 201
f 203 204 6
f 116 225 117
f 117 225 55
f 116 226 227
f 227 225 116
f 270 189 271
f 270 237 53
f 188 189 270
f 270 53 188
f 113 237 54
f 145 40 101
f 5 206 74
f 205 73 74
f 75 206 5
f 76 206 75
f 275 76 207
f 275 206 76
f 207 123 276
f 276 123 56
f 276 56 277
f 72 73 205
f 205 71 72
f 202 199 6
f 6 201 202
f 6 71 273
f 273 203 6
f 273 71 205
f 58 288 119
f 57 288 58
f 116 234 235
f 235 232 116
f 233 230 116
f 116 232 233
f 229 226 116
f 116 228 229
f 116 230 231
f 231 228 116
f 290 55 224
f 55 223 224
f 55 225 291
f 291 223 55
f 234 54 236
f 54 293 236
f 54 237 292
f 292 293 54
f 53 237 114
f 237 113 114
f 186 145 101
f 37 184 144
f 208 64 63
f 56 64 208
f 122 279 63
f 211 122 62
f 205 74 274
f 274 74 206
f 59 283 284
f 218 283 59
f 59 60 218
f 218 60 119
f 61 120 216
f 61 214 215
f 215 212 61
f 289 57 290
f 289 222 57
f 287 288 57
f 57 222 287
f 285 286 119
f 119 220 285
f 119 288 221
f 221 220 119
f 37 144 38
f 63 279 210
f 210 208 63
f 277 56 209
f 56 208 209
f 62 281 280
f 280 211 62
f 279 122 278
f 122 211 278
f 216 59 282
f 59 284 282
f 119 286 219
f 219 218 119
f 217 61 216
f 214 61 217
f 121 213 281
f 121 281 62
f 212 213 121
f 121 61 212
f 124 70 4
f 152 70 124
f 4 65 124
f 124 65 153
f 115 70 152
f 152 155 115
f 148 149 104
f 104 149 44
f 105 149 150
f 44 149 105
f 153 65 154
f 65 1 154
f 154 310 311
f 154 1 310
f 125 115 155
f 125 10 115
f 9 10 125
f 125 190 9
f 148 104 194
f 104 43 194
f 11 79 126
f 156 11 126
f 126 79 9
f 9 190 126
f 102 40 145
f 187 102 145
f 94 176 177
f 94 177 96
f 175 176 94
f 94 29 175
f 177 140 95
f 96 177 95
f 95 140 178
f 178 31 95
f 101 39 186
f 186 39 185
f 146 102 187
f 146 42 102
f 41 42 146
f 146 193 41
f 147 43 103
f 147 194 43
f 103 41 147
f 41 193 147
f 29 30 139
f 175 29 139
f 139 30 28
f 28 174 139
f 88 134 168
f 168 23 88
f 167 134 88
f 88 22 167
f 179 97 31
f 179 31 178
f 32 97 179
f 179 180 32
f 99 142 192
f 192 34 99
f 181 142 99
f 99 33 181
f 185 39 38
f 38 144 185
f 138 93 27
f 138 27 173
f 28 93 138
f 138 174 28
f 27 92 137
f 173 27 137
f 137 92 26
f 26 172 137
f 130 18 16
f 16 191 130
f 131 163 20
f 19 131 20
f 164 21 84
f 165 21 164
f 84 20 164
f 164 20 163
f 83 162 131
f 83 131 19
f 85 132 166
f 85 166 87
f 165 132 85
f 85 21 165
f 166 133 86
f 87 166 86
f 86 133 167
f 167 22 86
f 32 180 98
f 180 141 98
f 98 141 181
f 181 33 98
f 213 271 311
f 213 196 195
f 301 248 213
f 306 305 213
f 239 299 213
f 213 273 205
f 213 227 226
f 213 240 239
f 294 196 213
f 213 198 197
f 213 269 268
f 311 310 213
f 195 272 213
f 242 241 213
f 213 238 298
f 197 200 213
f 213 291 225
f 213 260 306
f 213 266 308
f 308 307 213
f 268 309 213
f 304 303 213
f 213 302 252
f 300 245 213
f 213 243 242
f 213 270 271
f 213 275 207
f 199 202 213
f 205 274 213
f 213 246 300
f 252 251 213
f 213 249 301
f 213 264 263
f 310 269 213
f 213 258 257
f 263 262 213
f 257 256 213
f 213 254 304
f 272 198 213
f 213 295 294
f 213 241 240
f 213 245 244
f 244 243 213
f 299 238 213
f 213 200 199
f 298 297 213
f 277 209 213
f 213 276 277
f 213 217 216
f 288 287 213
f 230 233 213
f 213 231 230
f 247 246 213
f 213 248 247
f 213 251 250
f 250 249 213
f 267 266 213
f 265 264 213
f 213 307 265
f 259 258 213
f 213 305 259
f 213 262 261
f 261 260 213
f 213 309 267
f 213 256 255
f 255 254 213
f 213 303 253
f 253 302 213
f 296 295 213
f 213 297 296
f 213 292 237
f 213 219 286
f 213 201 204
f 204 203 213
f 216 282 213
f 213 235 234
f 226 229 213
f 225 227 213
f 290 224 213
f 234 236 213
f 237 270 213
f 213 210 279
f 206 275 213
f 207 276 213
f 279 278 213
f 215 214 213
f 213 212 215
f 213 202 201
f 203 273 213
f 213 289 290
f 286 285 213
f 232 235 213
f 213 233 232
f 213 229 228
f 228 231 213
f 213 224 223
f 223 291 213
f 213 236 293
f 293 292 213
f 213 221 288
f 213 280 281
f 213 274 206
f 213 284 283
f 283 218 213
f 222 289 213
f 213 287 222
f 213 285 220
f 220 221 213
f 208 210 213
f 213 209 208
f 211 280 213
f 213 278 211
f 213 282 284
f 218 219 213
f 214 217 213
f 100 183 184
f 100 184 37
f 182 100 35
f 183 100 182
f 161 83 17
f 162 83 161
f 17 18 161
f 18 130 161
f 90 135 171
f 90 171 25
f 170 90 24
f 135 90 170
f 136 172 26
f 26 91 136
f 136 91 25
f 25 171 136
f 35 36 143
f 143 182 35
f 143 34 192
f 143 36 34
f 127 11 156
f 127 13 11
f 80 158 159
f 80 159 14
f 12 13 157
f 13 127 157
f 157 80 12
f 158 80 157
f 82 191 16
f 82 129 191
f 160 129 82
f 82 15 160
f 169 149 148
f 311 271 169
f 152 124 169
f 153 154 169
f 169 151 150
f 148 194 169
f 169 124 153
f 169 155 152
f 271 189 169
f 150 149 169
f 169 125 155
f 181 141 169
f 175 139 169
f 167 133 169
f 169 186 185
f 178 140 169
f 169 189 188
f 188 151 169
f 169 154 311
f 156 126 169
f 173 137 169
f 169 176 175
f 190 125 169
f 187 145 169
f 185 144 169
f 162 161 169
f 159 158 169
f 177 176 169
f 169 140 177
f 168 134 169
f 169 126 190
f 192 142 169
f 169 146 187
f 194 147 169
f 184 183 169
f 169 138 173
f 169 130 191
f 169 132 165
f 169 134 167
f 169 179 178
f 169 142 181
f 145 186 169
f 193 146 169
f 169 147 193
f 169 144 184
f 169 139 174
f 169 163 131
f 131 162 169
f 165 164 169
f 169 128 159
f 166 132 169
f 169 133 166
f 180 179 169
f 169 141 180
f 172 136 169
f 191 129 169
f 174 138 169
f 169 137 172
f 182 143 169
f 169 164 163
f 158 157 169
f 171 135 169
f 183 182 169
f 169 161 130
f 169 143 192
f 169 127 156
f 169 129 160
f 135 170 169
f 169 136 171
f 169 157 127
f 160 128 169
f 169 23 168
f 169 89 23
f 24 89 169
f 169 170 24
f 81 69 2
f 81 68 67
f 81 65 4
f 102 42 81
f 4 70 81
f 7 8 81
f 67 66 81
f 73 72 81
f 46 45 81
f 49 112 81
f 81 48 111
f 111 47 81
f 81 79 11
f 81 3 69
f 81 91 26
f 81 110 46
f 44 105 81
f 81 54 116
f 70 115 81
f 103 43 81
f 81 104 44
f 23 89 81
f 81 78 3
f 107 106 81
f 81 71 6
f 62 122 81
f 81 77 7
f 81 1 65
f 115 10 81
f 81 93 28
f 81 41 103
f 2 52 81
f 81 50 49
f 81 106 68
f 81 97 32
f 81 105 53
f 81 99 34
f 81 64 56
f 116 117 81
f 66 1 81
f 81 10 9
f 81 43 104
f 101 40 81
f 28 30 81
f 81 85 87
f 96 95 81
f 8 78 81
f 81 52 51
f 51 50 81
f 81 112 48
f 81 108 107
f 47 110 81
f 6 77 81
f 5 74 81
f 81 123 118
f 81 75 5
f 55 57 81
f 9 79 81
f 81 40 102
f 81 58 119
f 53 114 81
f 81 39 101
f 26 92 81
f 81 83 19
f 81 94 96
f 109 108 81
f 81 45 109
f 81 88 23
f 118 76 81
f 56 123 81
f 81 59 120
f 119 60 81
f 81 117 55
f 81 113 54
f 81 42 41
f 81 90 25
f 81 30 29
f 32 98 81
f 37 38 81
f 19 20 81
f 11 13 81
f 16 18 81
f 81 100 37
f 29 94 81
f 31 97 81
f 81 95 31
f 87 86 81
f 63 64 81
f 81 74 73
f 76 75 81
f 81 60 59
f 81 72 71
f 57 58 81
f 81 114 113
f 34 36 81
f 27 93 81
f 81 92 27
f 84 21 81
f 81 18 17
f 81 80 14
f 22 88 81
f 33 99 81
f 81 122 63
f 120 61 81
f 81 38 39
f 81 20 84
f 17 83 81
f 81 121 62
f 81 89 24
f 25 91 81
f 21 85 81
f 81 86 22
f 81 98 33
f 81 36 35
f 35 100 81
f 81 13 12
f 81 82 16
f 24 90 81
f 61 121 81
f 12 80 81
f 15 82 81
f 14 159 81
f 159 128 81
f 81 128 160
f 160 15 81

