# https://github.com/mikedh/trimesh
v -0.03465107 0.01107653 0.04459984
v -0.03517514 0.00979925 0.04417456
v -0.03515481 0.00992404 0.04422154
v -0.03513639 0.01001389 0.04425469
v -0.03511598 0.01009900 0.04428557
v -0.03507581 0.01023970 0.04433550
v -0.03506747 0.01026579 0.04434460
v -0.03499588 0.01046083 0.04441106
v -0.03497876 0.01050170 0.04442462
v -0.03493102 0.01060731 0.04445903
v -0.03489733 0.01067567 0.04448082
v -0.03486593 0.01073558 0.04449957
v -0.03478421 0.01087760 0.04454271
v -0.03472900 0.01096430 0.04456810
v -0.03432593 0.01145454 0.04469585
v -0.03438612 0.01139327 0.04468159
v -0.03449655 0.01127153 0.04465166
v -0.03453747 0.01122297 0.04463918
v -0.03456862 0.01118460 0.04462911
v -0.03428579 0.01149361 0.04470462
v -0.03414705 0.01161876 0.04473091
v -0.03418344 0.01158733 0.04472459
v -0.03397446 0.01175580 0.04475593
v -0.03407529 0.01167806 0.04474226
v -0.03384718 0.01184541 0.04476977
v -0.03377907 0.01188978 0.04477574
v -0.03369308 0.01194249 0.04478196
v -0.03360601 0.01199227 0.04478684
v -0.03357323 0.01201013 0.04478831
v -0.03352989 0.01203301 0.04478997
v -0.03348158 0.01205757 0.04479145
v -0.03335831 0.01211588 0.04479342
v -0.03322730 0.01217133 0.04479280
v -0.03520000 0.00941222 0.04410625
v -0.03519932 0.00947995 0.04410812
v -0.03519650 0.00956393 0.04411587
v -0.03518466 0.00972100 0.04414840
v -0.03519159 0.00964416 0.04412937
v -0.03519599 0.01261367 0.03800000
v -0.03520000 0.01243197 0.03800000
v -0.03518438 0.01279045 0.03800000
v -0.03506887 0.01346151 0.03800000
v -0.03511594 0.01325948 0.03800000
v -0.03514048 0.01312963 0.03800000
v -0.03515476 0.01304087 0.03800000
v -0.03484945 0.01408376 0.03800000
v -0.03493109 0.01388906 0.03800000
v -0.03497116 0.01378079 0.03800000
v -0.03500380 0.01368440 0.03800000
v -0.03439819 0.01482848 0.03800000
v -0.03454566 0.01462737 0.03800000
v -0.03465058 0.01446328 0.03800000
v -0.03470659 0.01436679 0.03800000
v -0.03475404 0.01427929 0.03800000
v -0.03401657 0.01523458 0.03800000
v -0.03414818 0.01510999 0.03800000
v -0.03421262 0.01504349 0.03800000
v -0.03428611 0.01496278 0.03800000
v -0.03381385 0.01540066 0.03800000
v -0.03385113 0.01537227 0.03800000
v -0.03360603 0.01554294 0.03800000
v -0.03369344 0.01548628 0.03800000
v -0.03296635 0.01583686 0.03800000
v -0.03301480 0.01582132 0.03800000
v -0.03318058 0.01576025 0.03800000
v -0.03336213 0.01567871 0.03800000
v -0.03339456 0.01566246 0.03800000
v -0.03353021 0.01558856 0.03800000
v -0.01543519 0.02224377 0.03500000
v -0.01525088 0.02237069 0.03452633
v -0.01466713 0.02273665 0.03316055
v -0.01373793 0.02318812 0.03147563
v -0.01405405 0.02305102 0.03198729
v -0.01308945 0.02342087 0.03060700
v -0.01341620 0.02331148 0.03101525
v -0.01259126 0.02355833 0.03009400
v -0.01275830 0.02351609 0.03025163
v -0.00545644 0.01913794 0.03800000
v -0.00540870 0.01860902 0.03800000
v -0.00543571 0.01900827 0.03800000
v -0.00542082 0.01887736 0.03800000
v -0.00541173 0.01874358 0.03800000
v -0.00974148 0.02235103 0.03459971
v -0.00750932 0.02203572 0.03577646
v -0.01555708 0.02203572 0.03577646
v -0.01424141 0.02204484 0.03574241
v -0.01441425 0.02257656 0.03375799
v -0.01556247 0.02206978 0.03564932
v -0.01555754 0.02210418 0.03552094
v -0.01554231 0.02213885 0.03539158
v -0.01551680 0.02217371 0.03526147
v -0.01548108 0.02220870 0.03513086
v -0.01368211 0.02280171 0.03291773
v -0.01161617 0.02281760 0.03285842
v -0.01120067 0.02195607 0.03602865
v -0.01542014 0.02159540 0.03672073
v -0.01544276 0.02166811 0.03661190
v -0.01546387 0.02173601 0.03650000
v -0.01548345 0.02179897 0.03638525
v -0.01550146 0.02185686 0.03626785
v -0.01551785 0.02190958 0.03614805
v -0.01553261 0.02195702 0.03602606
v -0.01554569 0.02199909 0.03590212
v -0.01531560 0.02125926 0.03712132
v -0.01534375 0.02134977 0.03702677
v -0.01537059 0.02143607 0.03692836
v -0.01539607 0.02151800 0.03682628
v -0.01525559 0.02106630 0.03729813
v -0.01132994 0.02191097 0.03614468
v -0.00714027 0.02185686 0.03626785
v -0.00714060 0.02185707 0.03626741
v -0.00732426 0.02195710 0.03602583
v -0.01177097 0.02178070 0.03641979
v -0.01185089 0.02176197 0.03645412
v -0.00695925 0.02173602 0.03650000
v -0.01146879 0.02186555 0.03624906
v -0.01149805 0.02185645 0.03626875
v -0.00695975 0.02173638 0.03649937
v -0.01161617 0.02182155 0.03634099
v -0.01169240 0.02180070 0.03638192
v -0.01226799 0.02169312 0.03657196
v -0.01235356 0.02168538 0.03658447
v -0.00678243 0.02159540 0.03672073
v -0.01193195 0.02174471 0.03648483
v -0.01197639 0.02173601 0.03650000
v -0.00678307 0.02159595 0.03671994
v -0.01209811 0.02171507 0.03653571
v -0.01218241 0.02170310 0.03655563
v -0.01244038 0.02167985 0.03659333
v -0.01252733 0.02167667 0.03659838
v -0.01261396 0.02167587 0.03659966
v -0.01270086 0.02167744 0.03659716
v -0.01278744 0.02168137 0.03659090
v -0.01287364 0.02168760 0.03658090
v -0.01295951 0.02169609 0.03656713
v -0.01304479 0.02170673 0.03654962
v -0.01312887 0.02171934 0.03652851
v -0.00644756 0.02126029 0.03712029
v -0.00661113 0.02143608 0.03692836
v -0.00661191 0.02143685 0.03692744
v -0.00629128 0.02106760 0.03729704
v -0.00644668 0.02125927 0.03712131
v -0.00614426 0.02086025 0.03745634
v -0.00629031 0.02106631 0.03729812
v -0.00600760 0.02063982 0.03759699
v -0.00614321 0.02085868 0.03745745
v -0.00588235 0.02040799 0.03771790
v -0.00600652 0.02063796 0.03759807
v -0.00576838 0.02016401 0.03781907
v -0.00576946 0.02016650 0.03781817
v -0.00582378 0.02028722 0.03777113
v -0.00588125 0.02040580 0.03771892
v -0.00571742 0.02004144 0.03786071
v -0.00566979 0.01991720 0.03789702
v -0.00558315 0.01965890 0.03795442
v -0.00558409 0.01966198 0.03795388
v -0.00562467 0.01978879 0.03792855
v -0.00566876 0.01991441 0.03789777
v -0.00554626 0.01953120 0.03797411
v -0.00551302 0.01940278 0.03798829
v -0.00545711 0.01914157 0.03800000
v -0.00548278 0.01927061 0.03799706
v -0.00551220 0.01939942 0.03798858
v -0.01329423 0.02175009 0.03647535
v -0.01337508 0.02176788 0.03644341
v -0.01345436 0.02178698 0.03640804
v -0.01360805 0.02182845 0.03632708
v -0.01370139 0.02185627 0.03626912
v -0.01375413 0.02187280 0.03623310
v -0.01389151 0.02191829 0.03612680
v -0.01401914 0.02196318 0.03600898
v -0.01413607 0.02200581 0.03588052
v -0.00528706 0.01578179 0.03766582
v -0.01308467 0.02342232 0.03007122
v -0.01259130 0.02355832 0.03007122
v -0.01275830 0.02351609 0.03007122
v -0.03520000 0.01243197 0.03007122
v -0.03318058 0.01576025 0.03007122
v -0.03360603 0.01554294 0.03007122
v -0.03366958 0.01550175 0.03007122
v -0.03372631 0.01546291 0.03007122
v -0.03381385 0.01540066 0.03007122
v -0.03398618 0.01526047 0.03007122
v -0.03401657 0.01523458 0.03007122
v -0.03419708 0.01505958 0.03007122
v -0.03421262 0.01504349 0.03007122
v -0.03464765 0.01446812 0.03007122
v -0.03470659 0.01436679 0.03007122
v -0.03474109 0.01430317 0.03007122
v -0.03519648 0.01260087 0.03007122
v -0.03519940 0.01246876 0.03007122
v -0.03518438 0.01279045 0.03007122
v -0.03519282 0.01266192 0.03007122
v -0.03515788 0.01301846 0.03007122
v -0.03517942 0.01283639 0.03007122
v -0.03514048 0.01312963 0.03007122
v -0.03515086 0.01306509 0.03007122
v -0.03511248 0.01327566 0.03007122
v -0.03506887 0.01346151 0.03007122
v -0.03500504 0.01368055 0.03007122
v -0.03505235 0.01351849 0.03007122
v -0.03496148 0.01380708 0.03007122
v -0.03484945 0.01408376 0.03007122
v -0.01213038 0.02356443 0.03007122
v -0.00253500 0.02100211 0.03007122
v -0.00252292 0.02073652 0.03007122
v -0.00252286 0.02073353 0.03007122
v -0.00253529 0.02100460 0.03007122
v -0.00263144 0.02152415 0.03007122
v -0.00263203 0.02152609 0.03007122
v -0.00257180 0.02126870 0.03007122
v -0.00271504 0.02177413 0.03007122
v -0.00271580 0.02177597 0.03007122
v -0.00282241 0.02201598 0.03007122
v -0.00294980 0.02224229 0.03007122
v -0.00295110 0.02224425 0.03007122
v -0.00309918 0.02245691 0.03007122
v -0.00310380 0.02246247 0.03007122
v -0.00326844 0.02265635 0.03007122
v -0.00345629 0.02283909 0.03007122
v -0.00346425 0.02284562 0.03007122
v -0.00367154 0.02301063 0.03007122
v -0.00388191 0.02314908 0.03007122
v -0.00411645 0.02327397 0.03007122
v -0.00462009 0.02345880 0.03007122
v -0.00488537 0.02351733 0.03007122
v -0.00515696 0.02355263 0.03007122
v -0.01340854 0.02331416 0.03007122
v -0.01341623 0.02331147 0.03007122
v -0.01275646 0.02351656 0.03007122
v -0.01256474 0.02356443 0.03007122
v -0.03335566 0.01568187 0.03007122
v -0.03339456 0.01566246 0.03007122
v -0.03351857 0.01559519 0.03007122
v -0.03384096 0.01538002 0.03007122
v -0.03386589 0.01536057 0.03007122
v -0.03411226 0.01514400 0.03007122
v -0.03415023 0.01510793 0.03007122
v -0.03428217 0.01496722 0.03007122
v -0.03439819 0.01482848 0.03007122
v -0.03452882 0.01465135 0.03007122
v -0.03454566 0.01462737 0.03007122
v -0.03478008 0.01422592 0.03007122
v -0.03499489 0.01371071 0.03007122
v -0.03497116 0.01378079 0.03007122
v -0.03490881 0.01394220 0.03007122
v -0.03493235 0.01388580 0.03007122
v -0.00546716 0.02356443 0.03007122
v -0.00561931 0.02356443 0.03007122
v -0.00601652 0.02356443 0.03007122
v -0.00257136 0.02126655 0.03007122
v -0.00282143 0.02201412 0.03007122
v -0.00282406 0.02201891 0.03007122
v -0.00295330 0.02224743 0.03007122
v -0.00327454 0.02266241 0.03007122
v -0.00366130 0.02300375 0.03007122
v -0.00389493 0.02315615 0.03007122
v -0.00413266 0.02328091 0.03007122
v -0.00436313 0.02337747 0.03007122
v -0.00438298 0.02338389 0.03007122
v -0.00464400 0.02346422 0.03007122
v -0.00491373 0.02352117 0.03007122
v -0.00519010 0.02355421 0.03007122
v -0.00543278 0.02356443 0.03007122
v -0.00252286 0.01768178 0.03007122
v -0.00252286 0.02065467 0.03007122
v -0.01500992 0.01132183 0.04513197
v -0.01500747 0.01129959 0.04513197
v -0.01500187 0.01122878 0.04513197
v -0.01500019 0.01119262 0.04513197
v -0.01511522 0.01166774 0.04513197
v -0.01509780 0.01163182 0.04513197
v -0.01506921 0.01156143 0.04513197
v -0.01505655 0.01152495 0.04513197
v -0.01519007 0.01179731 0.04513197
v -0.01515852 0.01174802 0.04513197
v -0.01536079 0.01199204 0.04513197
v -0.01528012 0.01191192 0.04513197
v -0.01547296 0.01207817 0.04513197
v -0.01551910 0.01210705 0.04513197
v -0.01581506 0.01222020 0.04513197
v -0.01574014 0.01220172 0.04513197
v -0.01569789 0.01218867 0.04513197
v -0.01587391 0.01223008 0.04513197
v -0.01594164 0.01223680 0.04513197
v -0.03482502 0.00949987 0.04513197
v -0.03481611 0.00968461 0.04513197
v -0.03481112 0.00973747 0.04513197
v -0.03480604 0.00978614 0.04513197
v -0.03479360 0.00987655 0.04513197
v -0.03478341 0.00994481 0.04513197
v -0.03478051 0.00996188 0.04513197
v -0.03472157 0.01022591 0.04513197
v -0.03472046 0.01022997 0.04513197
v -0.03461858 0.01053222 0.04513197
v -0.03452171 0.01074959 0.04513197
v -0.03447542 0.01083646 0.04513197
v -0.03418032 0.01126974 0.04513197
v -0.03422132 0.01121995 0.04513197
v -0.03430774 0.01110481 0.04513197
v -0.03438288 0.01099390 0.04513197
v -0.03412445 0.01133467 0.04513197
v -0.03403345 0.01143149 0.04513197
v -0.03400748 0.01145729 0.04513197
v -0.03385746 0.01159331 0.04513197
v -0.03393156 0.01152914 0.04513197
v -0.03371790 0.01170372 0.04513197
v -0.03356771 0.01180622 0.04513197
v -0.03344934 0.01187703 0.04513197
v -0.03334194 0.01193425 0.04513197
v -0.03309094 0.01204584 0.04513197
v -0.03306176 0.01205700 0.04513197
v -0.03300407 0.01207764 0.04513197
v -0.03290175 0.01211109 0.04513197
v -0.03286710 0.01212135 0.04513197
v -0.03283124 0.01213177 0.04513197
v -0.03281290 0.01213684 0.04513197
v -0.03229864 0.01222154 0.04513197
v -0.03243197 0.01220717 0.04513197
v -0.03256352 0.01218697 0.04513197
v -0.03216417 0.01223001 0.04513197
v -0.03482667 0.00778389 0.04513197
v -0.01500000 0.01116527 0.04513197
v -0.01501859 0.01137633 0.04513197
v -0.01500368 0.01126313 0.04513197
v -0.01503502 0.01145161 0.04513197
v -0.01503443 0.01144934 0.04513197
v -0.01508860 0.01160961 0.04513197
v -0.01507353 0.01157322 0.04513197
v -0.01513090 0.01169918 0.04513197
v -0.01512678 0.01169154 0.04513197
v -0.01523348 0.01185673 0.04513197
v -0.01523173 0.01185452 0.04513197
v -0.01531699 0.01195084 0.04513197
v -0.01530872 0.01194235 0.04513197
v -0.01541562 0.01203734 0.04513197
v -0.01541327 0.01203554 0.04513197
v -0.01550949 0.01210122 0.04513197
v -0.01557062 0.01213516 0.04513197
v -0.01563298 0.01216410 0.04513197
v -0.01575316 0.01220558 0.04513197
v -0.01576346 0.01220816 0.04513197
v -0.01563355 0.01216434 0.04513197
v -0.03444473 0.01089176 0.04513197
v -0.03477124 0.01000899 0.04513197
v -0.03474299 0.01014043 0.04513197
v -0.03474106 0.01014913 0.04513197
v -0.03472904 0.01019761 0.04513197
v -0.03469831 0.01030479 0.04513197
v -0.03468577 0.01034691 0.04513197
v -0.03466924 0.01039619 0.04513197
v -0.03465362 0.01044130 0.04513197
v -0.03463434 0.01049372 0.04513197
v -0.03457494 0.01063714 0.04513197
v -0.03455969 0.01067038 0.04513197
v -0.03445781 0.01086941 0.04513197
v -0.03436315 0.01102425 0.04513197
v -0.03415684 0.01129762 0.04513197
v -0.03398305 0.01148065 0.04513197
v -0.03383252 0.01161469 0.04513197
v -0.03383040 0.01161640 0.04513197
v -0.03366635 0.01174022 0.04513197
v -0.03363492 0.01176202 0.04513197
v -0.03355420 0.01181463 0.04513197
v -0.03348746 0.01185505 0.04513197
v -0.03347459 0.01186260 0.04513197
v -0.03341581 0.01189548 0.04513197
v -0.03322772 0.01198889 0.04513197
v -0.03203146 0.01223411 0.04513197
v -0.03270136 0.01216465 0.04513197
v -0.03482667 0.00941249 0.04513197
v -0.01600000 0.01223865 0.04513197
v -0.00540870 0.00178179 0.03800000
v -0.01500000 0.00178179 0.03007122
v -0.03482667 0.00178179 0.04513197
v -0.03520000 0.00178179 0.04410625
v -0.00625317 0.00178179 0.03669970
v -0.00528706 0.00178179 0.03766582
v -0.03520000 0.00178179 0.03007122
v -0.01500000 0.00178179 0.04513197
f 104 369 108
f 372 108 369
f 207 378 266
f 266 378 265
f 374 265 377
f 265 378 377
f 173 378 207
f 321 369 104
f 104 318 321
f 148 218 219
f 106 319 318
f 65 178 232
f 65 73 72
f 79 173 207
f 2 36 376
f 38 36 2
f 3 45 2
f 42 6 7
f 14 1 52
f 191 177 40
f 17 16 50
f 41 195 192
f 41 2 45
f 148 219 145
f 104 138 105
f 105 318 104
f 105 106 318
f 320 319 107
f 319 106 107
f 106 140 107
f 107 123 96
f 107 140 123
f 166 120 99
f 136 98 97
f 167 100 99
f 63 101 102
f 100 101 63
f 69 71 70
f 90 71 69
f 74 72 73
f 74 71 90
f 73 71 74
f 324 267 80
f 78 324 80
f 80 251 78
f 161 324 78
f 78 251 161
f 323 79 270
f 270 79 82
f 206 205 82
f 212 159 210
f 211 209 162
f 282 283 148
f 217 151 254
f 35 40 34
f 34 376 35
f 376 36 35
f 371 2 322
f 322 376 375
f 322 2 376
f 5 6 42
f 42 43 5
f 46 10 11
f 11 12 46
f 17 50 18
f 65 32 33
f 310 32 31
f 27 61 62
f 51 187 52
f 52 1 51
f 1 19 51
f 19 18 51
f 51 18 50
f 44 45 3
f 39 193 190
f 40 35 39
f 39 35 36
f 39 36 38
f 38 41 39
f 38 2 37
f 37 41 38
f 2 41 37
f 198 43 42
f 42 199 198
f 255 145 219
f 285 284 143
f 342 145 281
f 120 118 110
f 226 111 110
f 114 118 113
f 113 118 120
f 120 166 113
f 98 118 124
f 123 259 126
f 126 131 97
f 126 97 96
f 96 123 126
f 97 131 132
f 142 222 223
f 223 138 142
f 142 138 104
f 139 105 138
f 106 105 139
f 139 140 106
f 140 139 224
f 114 113 165
f 165 113 166
f 99 98 165
f 165 166 99
f 98 136 137
f 169 101 100
f 99 120 119
f 119 167 99
f 120 110 119
f 119 110 167
f 64 71 73
f 64 73 65
f 70 71 64
f 64 69 70
f 92 69 64
f 90 69 91
f 91 69 92
f 91 64 90
f 92 64 91
f 103 63 102
f 85 63 103
f 111 112 109
f 109 169 111
f 101 169 109
f 234 67 233
f 68 67 234
f 68 61 27
f 65 232 66
f 66 32 65
f 232 233 66
f 66 233 67
f 31 32 66
f 66 67 31
f 31 67 30
f 30 68 29
f 67 68 30
f 81 267 268
f 81 80 267
f 268 325 81
f 81 325 82
f 82 205 81
f 251 80 208
f 162 209 163
f 82 325 269
f 269 270 82
f 283 343 147
f 148 283 147
f 147 343 340
f 147 217 218
f 147 218 148
f 341 282 148
f 148 145 341
f 341 145 342
f 151 339 280
f 277 153 337
f 151 280 150
f 215 153 253
f 216 254 151
f 7 292 345
f 286 287 3
f 3 2 286
f 286 2 371
f 289 5 288
f 54 12 13
f 54 46 12
f 47 9 10
f 10 46 47
f 352 12 11
f 352 353 12
f 355 14 13
f 17 18 357
f 368 33 32
f 32 310 368
f 25 62 59
f 59 23 25
f 55 23 60
f 60 23 59
f 55 21 24
f 24 23 55
f 187 51 242
f 56 21 55
f 56 57 20
f 20 57 15
f 4 44 3
f 3 287 4
f 4 5 43
f 43 44 4
f 201 199 42
f 196 44 43
f 43 198 196
f 52 187 188
f 221 143 220
f 146 255 220
f 220 143 146
f 145 255 146
f 146 281 145
f 284 281 146
f 146 143 284
f 100 167 168
f 260 126 259
f 226 110 261
f 261 110 118
f 118 225 261
f 130 126 129
f 131 126 130
f 129 132 130
f 130 132 131
f 256 222 141
f 222 142 141
f 108 372 141
f 104 108 141
f 141 142 104
f 257 224 139
f 257 138 223
f 257 139 138
f 258 259 123
f 123 140 258
f 140 224 258
f 114 165 164
f 164 165 98
f 98 124 164
f 164 118 114
f 164 124 118
f 121 134 122
f 125 118 98
f 98 137 125
f 111 169 116
f 116 169 100
f 116 110 111
f 100 110 116
f 90 64 89
f 88 63 85
f 88 64 63
f 88 89 64
f 90 89 88
f 102 112 171
f 171 103 102
f 112 103 171
f 85 103 172
f 172 103 112
f 170 109 112
f 102 101 170
f 101 109 170
f 174 228 74
f 174 77 176
f 74 77 174
f 72 74 75
f 74 228 75
f 65 72 75
f 176 77 230
f 274 326 162
f 162 163 274
f 327 161 162
f 162 326 327
f 324 161 327
f 159 276 330
f 330 331 159
f 160 163 209
f 329 163 160
f 152 151 217
f 217 147 152
f 152 339 151
f 340 339 152
f 152 147 340
f 279 150 338
f 338 150 280
f 149 150 279
f 215 150 149
f 149 153 215
f 154 153 277
f 154 158 252
f 214 253 153
f 6 290 291
f 53 14 52
f 52 188 53
f 13 14 53
f 53 54 13
f 243 54 189
f 8 9 48
f 9 47 48
f 354 355 13
f 14 355 296
f 17 357 300
f 300 16 17
f 300 299 16
f 312 64 65
f 361 25 23
f 26 363 27
f 27 62 26
f 62 25 26
f 62 180 181
f 179 68 234
f 61 68 179
f 236 60 235
f 50 240 241
f 241 51 50
f 241 242 51
f 238 56 237
f 21 56 22
f 22 56 20
f 302 303 22
f 20 302 22
f 186 239 57
f 58 239 240
f 58 240 50
f 57 239 58
f 58 50 16
f 16 15 58
f 58 15 57
f 358 302 20
f 20 15 358
f 194 45 197
f 167 110 117
f 117 168 167
f 117 110 100
f 100 168 117
f 115 260 225
f 115 225 118
f 126 260 115
f 129 126 115
f 115 122 129
f 121 122 115
f 115 128 121
f 118 125 115
f 115 125 137
f 144 221 256
f 256 141 144
f 143 221 144
f 285 143 144
f 144 372 285
f 144 141 372
f 133 132 129
f 129 122 133
f 133 122 134
f 97 132 133
f 133 134 97
f 135 136 97
f 97 134 135
f 135 134 121
f 135 128 136
f 121 128 135
f 127 137 136
f 136 128 127
f 127 115 137
f 128 115 127
f 95 112 102
f 102 170 95
f 95 170 112
f 367 310 31
f 31 30 367
f 28 68 27
f 29 68 28
f 27 363 308
f 229 75 228
f 229 178 65
f 65 75 229
f 84 172 112
f 85 172 84
f 156 333 275
f 273 163 329
f 273 274 163
f 272 160 159
f 336 149 279
f 336 337 153
f 153 149 336
f 158 335 278
f 334 154 277
f 334 335 158
f 158 154 334
f 49 7 8
f 8 48 49
f 42 7 49
f 246 247 47
f 245 48 202
f 351 352 11
f 12 353 295
f 297 356 1
f 344 301 19
f 1 356 344
f 344 19 1
f 33 368 311
f 65 33 311
f 311 312 65
f 63 64 314
f 25 361 307
f 183 184 55
f 185 186 57
f 298 358 15
f 21 304 359
f 27 308 364
f 76 231 175
f 76 77 74
f 262 227 112
f 262 111 226
f 262 112 111
f 264 84 263
f 112 227 263
f 263 84 112
f 86 88 85
f 85 84 86
f 90 88 86
f 86 84 90
f 87 74 90
f 90 94 87
f 90 84 83
f 83 94 90
f 155 275 276
f 155 156 275
f 155 276 159
f 155 159 212
f 212 156 155
f 332 333 157
f 333 156 157
f 157 278 332
f 158 278 157
f 157 213 252
f 252 158 157
f 329 160 328
f 160 272 328
f 159 331 271
f 271 272 159
f 200 49 244
f 349 350 10
f 64 312 313
f 313 314 64
f 100 63 315
f 63 314 315
f 23 305 360
f 360 361 23
f 363 26 362
f 94 83 250
f 74 87 93
f 93 87 94
f 93 250 74
f 94 250 93
f 8 346 347
f 347 348 8
f 293 294 9
f 99 100 316
f 100 315 316
f 28 365 366
f 231 76 204
f 204 76 74
f 74 250 204
f 248 84 264
f 317 98 99
f 99 316 317
f 84 248 249
f 97 98 370
f 98 317 370
f 96 97 370
f 320 107 370
f 370 107 96
f 379 376 177
f 34 40 177
f 177 376 34
f 377 376 379
f 379 374 377
f 380 375 377
f 377 373 380
f 375 376 377
f 377 378 373
f 79 323 380
f 380 373 79
f 373 378 79
f 378 173 79
f 194 195 41
f 41 45 194
f 206 79 207
f 82 79 206
f 211 161 251
f 162 161 211
f 192 193 39
f 39 41 192
f 190 191 39
f 39 191 40
f 208 81 205
f 80 81 208
f 216 150 215
f 151 150 216
f 345 346 8
f 8 7 345
f 6 5 290
f 290 5 289
f 287 288 4
f 4 288 5
f 160 210 159
f 209 210 160
f 214 154 252
f 153 154 214
f 291 7 6
f 291 292 7
f 53 188 189
f 189 54 53
f 203 46 243
f 46 54 243
f 301 18 19
f 301 357 18
f 179 62 61
f 179 180 62
f 55 184 237
f 237 56 55
f 21 22 304
f 304 22 303
f 45 44 197
f 44 196 197
f 367 30 29
f 29 309 367
f 200 201 49
f 49 201 42
f 246 46 203
f 246 47 46
f 202 48 47
f 47 247 202
f 11 10 351
f 10 350 351
f 13 12 295
f 295 354 13
f 1 14 297
f 14 296 297
f 305 24 306
f 23 24 305
f 182 60 59
f 235 60 182
f 59 62 182
f 62 181 182
f 55 60 183
f 60 236 183
f 185 56 238
f 57 56 185
f 16 299 298
f 298 15 16
f 306 24 359
f 359 24 21
f 175 230 76
f 76 230 77
f 157 156 212
f 212 213 157
f 244 48 245
f 244 49 48
f 10 9 349
f 9 294 349
f 362 26 25
f 25 307 362
f 365 28 27
f 27 364 365
f 293 9 8
f 8 348 293
f 366 309 29
f 29 28 366
f 199 201 249
f 249 374 379
f 249 195 194
f 379 177 249
f 249 206 207
f 249 265 374
f 220 255 249
f 218 217 249
f 176 230 249
f 207 266 249
f 249 193 192
f 234 233 249
f 223 222 249
f 215 253 249
f 249 266 265
f 226 261 249
f 249 219 218
f 249 174 176
f 259 258 249
f 249 213 212
f 177 191 249
f 192 195 249
f 249 216 215
f 264 263 249
f 249 211 251
f 184 183 249
f 249 188 187
f 249 232 178
f 251 208 249
f 194 197 249
f 212 210 249
f 249 191 190
f 190 193 249
f 249 241 240
f 203 243 249
f 249 260 259
f 249 222 256
f 252 213 249
f 205 206 249
f 249 210 209
f 209 211 249
f 217 254 249
f 245 202 249
f 187 242 249
f 238 237 249
f 249 198 199
f 249 214 252
f 249 255 219
f 249 221 220
f 249 257 223
f 249 233 232
f 249 208 205
f 175 231 249
f 254 216 249
f 249 246 203
f 249 179 234
f 249 236 235
f 240 239 249
f 249 201 200
f 249 196 198
f 189 188 249
f 256 221 249
f 225 260 249
f 249 261 225
f 224 257 249
f 249 258 224
f 228 174 249
f 249 230 175
f 178 229 249
f 253 214 249
f 249 243 189
f 249 185 238
f 249 181 180
f 180 179 249
f 235 182 249
f 242 241 249
f 249 237 184
f 239 186 249
f 249 197 196
f 249 229 228
f 249 244 245
f 249 262 226
f 247 246 249
f 249 202 247
f 249 182 181
f 249 183 236
f 186 185 249
f 227 262 249
f 249 263 227
f 200 244 249
f 231 204 249
f 249 204 250
f 249 83 84
f 249 250 83
f 370 375 380
f 370 308 363
f 289 288 370
f 380 323 370
f 268 267 370
f 279 338 370
f 285 372 370
f 369 321 370
f 370 319 320
f 276 275 370
f 370 330 276
f 370 372 369
f 370 339 340
f 370 290 289
f 370 284 285
f 370 269 325
f 370 321 318
f 318 319 370
f 323 270 370
f 370 322 375
f 370 267 324
f 370 295 353
f 370 325 268
f 370 311 368
f 340 343 370
f 277 337 370
f 370 271 331
f 342 281 370
f 370 333 332
f 324 327 370
f 370 343 283
f 283 282 370
f 370 341 342
f 371 322 370
f 346 345 370
f 370 286 371
f 292 291 370
f 299 300 370
f 370 313 312
f 370 281 284
f 370 298 299
f 370 273 329
f 270 269 370
f 282 341 370
f 370 280 339
f 363 362 370
f 370 345 292
f 332 278 370
f 287 286 370
f 370 288 287
f 353 352 370
f 352 351 370
f 356 297 370
f 370 368 310
f 361 360 370
f 370 303 302
f 310 367 370
f 275 333 370
f 326 274 370
f 370 327 326
f 331 330 370
f 370 338 280
f 370 336 279
f 370 291 290
f 370 334 277
f 355 354 370
f 370 296 355
f 357 301 370
f 370 300 357
f 370 344 356
f 370 305 306
f 302 358 370
f 370 304 303
f 370 367 309
f 306 359 370
f 274 273 370
f 329 328 370
f 337 336 370
f 370 278 335
f 335 334 370
f 370 351 350
f 309 366 370
f 354 295 370
f 370 297 296
f 301 344 370
f 312 311 370
f 350 349 370
f 294 293 370
f 370 307 361
f 358 298 370
f 370 359 304
f 370 364 308
f 370 328 272
f 272 271 370
f 370 347 346
f 370 349 294
f 314 313 370
f 370 315 314
f 370 360 305
f 370 362 307
f 370 365 364
f 348 347 370
f 370 293 348
f 370 316 315
f 370 366 365
f 370 317 316

