# https://github.com/mikedh/trimesh
v -0.03322729 -0.01217132 0.04479280
v -0.03335727 -0.01211631 0.04479346
v -0.03347454 -0.01206098 0.04479176
v -0.03357221 -0.01201055 0.04478859
v -0.03360596 -0.01199216 0.04478710
v -0.03377809 -0.01189023 0.04477614
v -0.03380469 -0.01187320 0.04477393
v -0.03397354 -0.01175637 0.04475623
v -0.03410845 -0.01165107 0.04473723
v -0.03414584 -0.01161978 0.04473112
v -0.03418344 -0.01158732 0.04472459
v -0.03424897 -0.01152824 0.04471220
v -0.03432494 -0.01145547 0.04469612
v -0.03438111 -0.01139843 0.04468292
v -0.03449615 -0.01127190 0.04465192
v -0.03456859 -0.01118454 0.04462926
v -0.03461933 -0.01111924 0.04461172
v -0.03465113 -0.01107638 0.04459994
v -0.03472440 -0.01097118 0.04457017
v -0.03472899 -0.01096427 0.04456817
v -0.03478403 -0.01087787 0.04454283
v -0.03481965 -0.01081823 0.04452492
v -0.03489679 -0.01067669 0.04448116
v -0.03499558 -0.01046146 0.04441139
v -0.03504344 -0.01033627 0.04436909
v -0.03507569 -0.01023996 0.04433574
v -0.03509668 -0.01017003 0.04431108
v -0.03513639 -0.01001382 0.04425473
v -0.03517514 -0.00979925 0.04417456
v -0.03345273 -0.01563196 0.03800000
v -0.03325172 -0.01573018 0.03800000
v -0.03519883 -0.00950082 0.04410946
v -0.03520000 -0.00941222 0.04410625
v -0.03518247 -0.00974104 0.04415442
v -0.03519027 -0.00966085 0.04413297
v -0.03519552 -0.00958328 0.04411856
v -0.03294070 -0.01584467 0.03800000
v -0.03304669 -0.01581053 0.03800000
v -0.03312306 -0.01578284 0.03800000
v -0.03365003 -0.01551498 0.03800000
v -0.03347471 -0.01561997 0.03800000
v -0.03384318 -0.01537840 0.03800000
v -0.03380496 -0.01540730 0.03800000
v -0.03403128 -0.01522136 0.03800000
v -0.03396049 -0.01528348 0.03800000
v -0.03424920 -0.01500400 0.03800000
v -0.03421281 -0.01504329 0.03800000
v -0.03410876 -0.01514883 0.03800000
v -0.03443449 -0.01478178 0.03800000
v -0.03438538 -0.01484458 0.03800000
v -0.03474047 -0.01430491 0.03800000
v -0.03461949 -0.01451403 0.03800000
v -0.03459499 -0.01455271 0.03800000
v -0.03450505 -0.01468589 0.03800000
v -0.03498264 -0.01374779 0.03800000
v -0.03490480 -0.01395512 0.03800000
v -0.03487062 -0.01403609 0.03800000
v -0.03481977 -0.01414776 0.03800000
v -0.03514170 -0.01312233 0.03800000
v -0.03509662 -0.01334802 0.03800000
v -0.03507370 -0.01344261 0.03800000
v -0.03504342 -0.01355446 0.03800000
v -0.03520000 -0.01243197 0.03800000
v -0.03519036 -0.01271367 0.03800000
v -0.03518438 -0.01279034 0.03800000
v -0.03517016 -0.01292680 0.03800000
v -0.01524701 -0.02280712 0.03452633
v -0.01466326 -0.02317308 0.03316055
v -0.01405018 -0.02348745 0.03198729
v -0.01341233 -0.02374791 0.03101525
v -0.01373406 -0.02362455 0.03147563
v -0.01258739 -0.02399476 0.03009400
v -0.01275443 -0.02395252 0.03025163
v -0.01308558 -0.02385730 0.03060700
v -0.01543132 -0.02268020 0.03500000
v -0.00029015 -0.02247210 0.03577663
v -0.01555321 -0.02247215 0.03577646
v -0.01044141 -0.02248127 0.03574241
v -0.01061425 -0.02301299 0.03375799
v -0.01555367 -0.02254061 0.03552094
v -0.01553844 -0.02257527 0.03539158
v -0.01551293 -0.02261014 0.03526147
v -0.01547721 -0.02264513 0.03513086
v -0.01555860 -0.02250621 0.03564932
v -0.00988211 -0.02323814 0.03291773
v 0.00437321 -0.01621822 0.03202588
v 0.00167287 -0.01621822 0.03800000
v 0.00167287 -0.01908890 0.03800000
v 0.00163133 -0.01957433 0.03799988
v 0.00163806 -0.01953141 0.03800000
v 0.00165799 -0.01937886 0.03800000
v 0.00166411 -0.01931146 0.03800000
v -0.00025238 -0.02245667 0.03583207
v -0.00008586 -0.02237594 0.03607293
v -0.00009151 -0.02237903 0.03606483
v -0.00016798 -0.02241841 0.03595470
v 0.00008838 -0.02226857 0.03631956
v 0.00007874 -0.02227514 0.03630608
v 0.00024102 -0.02215499 0.03652984
v 0.00018563 -0.02219834 0.03645422
v 0.00040044 -0.02201634 0.03674263
v 0.00026350 -0.02213669 0.03656029
v 0.00043222 -0.02198619 0.03678412
v 0.00042380 -0.02199427 0.03677316
v 0.00059277 -0.02182041 0.03698879
v 0.00055620 -0.02186021 0.03694292
v 0.00085056 -0.02150005 0.03730039
v 0.00074237 -0.02164382 0.03717195
v 0.00070700 -0.02168769 0.03712929
v 0.00065695 -0.02174747 0.03706824
v 0.00087866 -0.02145994 0.03733337
v 0.00100515 -0.02126473 0.03747844
v 0.00098443 -0.02129845 0.03745510
v 0.00115437 -0.02099840 0.03764048
v 0.00112216 -0.02105967 0.03760651
v 0.00110876 -0.02108452 0.03759219
v 0.00106755 -0.02115862 0.03754758
v 0.00122299 -0.02085980 0.03771066
v 0.00123387 -0.02083673 0.03772148
v 0.00132661 -0.02062581 0.03780971
v 0.00133271 -0.02061094 0.03781523
v 0.00137684 -0.02049905 0.03785394
v 0.00141889 -0.02038451 0.03788854
v 0.00144095 -0.02032078 0.03790566
v 0.00149268 -0.02015933 0.03794242
v 0.00149935 -0.02013708 0.03794675
v 0.00155438 -0.01993705 0.03797800
v 0.00156705 -0.01988585 0.03798379
v 0.00160431 -0.01971908 0.03799651
v 0.00516919 -0.02184455 0.03022608
v 0.00514686 -0.02193091 0.03022634
v 0.00511853 -0.02202919 0.03022522
v 0.00507546 -0.02216116 0.03022128
v 0.00504983 -0.02223215 0.03021797
v 0.00498838 -0.02238536 0.03020788
v 0.00488714 -0.02260007 0.03018649
v 0.00482331 -0.02271798 0.03017081
v 0.00477382 -0.02280217 0.03015773
v 0.00473040 -0.02287154 0.03014568
v 0.00465098 -0.02298903 0.03012240
v 0.00452162 -0.02315864 0.03008143
v -0.00744862 -0.02237551 0.03607407
v -0.00740067 -0.02239250 0.03602865
v -0.00752994 -0.02234740 0.03614468
v -0.00766879 -0.02230198 0.03624906
v -0.00813202 -0.02218113 0.03648486
v -0.00797097 -0.02221713 0.03641979
v -0.00789252 -0.02223710 0.03638197
v -0.00805058 -0.02219847 0.03645399
v -0.00781610 -0.02225799 0.03634096
v -0.00898744 -0.02211780 0.03659090
v -0.00890092 -0.02211387 0.03659716
v -0.01541143 -0.02201627 0.03674274
v -0.00907369 -0.02212403 0.03658089
v -0.00924188 -0.02214276 0.03655028
v -0.00915951 -0.02213251 0.03656713
v -0.00881396 -0.02211230 0.03659966
v -0.00872738 -0.02211310 0.03659839
v -0.00864037 -0.02211628 0.03659333
v -0.00855361 -0.02212181 0.03658447
v -0.00846799 -0.02212955 0.03657196
v -0.00838249 -0.02213952 0.03655564
v -0.00829808 -0.02215150 0.03653570
v -0.00980805 -0.02226488 0.03632708
v -0.00965437 -0.02222341 0.03640804
v -0.01545456 -0.02215495 0.03652991
v -0.00984161 -0.02227467 0.03630706
v -0.00957520 -0.02220433 0.03644336
v -0.00949423 -0.02218652 0.03647535
v -0.00941250 -0.02217036 0.03650361
v -0.01541626 -0.02203180 0.03672076
v -0.00932888 -0.02215577 0.03652851
v -0.01546000 -0.02217242 0.03650004
v -0.01549194 -0.02227512 0.03630611
v -0.00995413 -0.02230923 0.03623310
v -0.01009151 -0.02235471 0.03612680
v -0.01015134 -0.02237549 0.03607412
v -0.01549759 -0.02229329 0.03626785
v -0.01552329 -0.02237594 0.03607295
v -0.01552874 -0.02239345 0.03602606
v -0.01033607 -0.02244224 0.03588052
v -0.01021914 -0.02239961 0.03600898
v -0.01554840 -0.02245666 0.03583209
v -0.01536286 -0.02186008 0.03694307
v -0.01536671 -0.02187248 0.03692839
v -0.01530919 -0.02168751 0.03712947
v -0.01531173 -0.02169567 0.03712134
v -0.01525172 -0.02150273 0.03729814
v -0.00719966 -0.02245674 0.03583181
v -0.01375377 -0.02361600 0.03007122
v -0.01275443 -0.02395252 0.03007122
v -0.01341233 -0.02374791 0.03007122
v -0.01309367 -0.02385459 0.03007122
v -0.03520000 -0.01243197 0.03007122
v -0.03519196 -0.01268490 0.03007122
v -0.03517226 -0.01290816 0.03007122
v -0.03499892 -0.01369611 0.03007122
v -0.03507370 -0.01344261 0.03007122
v -0.03505169 -0.01352393 0.03007122
v -0.03509823 -0.01334089 0.03007122
v -0.03465251 -0.01445696 0.03007122
v -0.03498264 -0.01374779 0.03007122
v -0.03492605 -0.01389853 0.03007122
v -0.03459499 -0.01455271 0.03007122
v -0.03425535 -0.01499717 0.03007122
v -0.03438538 -0.01484458 0.03007122
v -0.03352256 -0.01559131 0.03007122
v -0.03365003 -0.01551498 0.03007122
v -0.03384318 -0.01537840 0.03007122
v -0.03403128 -0.01522136 0.03007122
v -0.03413716 -0.01512003 0.03007122
v -0.03342148 -0.01564789 0.03007122
v -0.03327534 -0.01571931 0.03007122
v -0.03325172 -0.01573018 0.03007122
v -0.03315818 -0.01576847 0.03007122
v -0.01182893 -0.02400086 0.03007122
v 0.00536757 -0.01859956 0.03007122
v 0.00534387 -0.01741822 0.03007122
v 0.00436165 -0.02330944 0.03007122
v 0.00436017 -0.02331060 0.03007122
v 0.00347694 -0.02380665 0.03007122
v 0.00349225 -0.02380134 0.03007122
v 0.00373075 -0.02370324 0.03007122
v 0.00395716 -0.02358716 0.03007122
v 0.00396420 -0.02358304 0.03007122
v 0.00256591 -0.02399348 0.03007122
v 0.00268488 -0.02398357 0.03007122
v 0.00271376 -0.02398094 0.03007122
v 0.00294530 -0.02394734 0.03007122
v 0.00296997 -0.02394362 0.03007122
v 0.00314869 -0.02390532 0.03007122
v 0.00322571 -0.02388549 0.03007122
v 0.00512544 -0.02223452 0.03007122
v 0.00467758 -0.02298918 0.03007122
v 0.00467819 -0.02298840 0.03007122
v 0.00476928 -0.02287154 0.03007122
v 0.00481854 -0.02280280 0.03007122
v 0.00487531 -0.02271798 0.03007122
v 0.00494764 -0.02259954 0.03007122
v 0.00512662 -0.02223181 0.03007122
v 0.00515355 -0.02216194 0.03007122
v 0.00525009 -0.02184455 0.03007122
v 0.00522743 -0.02193252 0.03007122
v 0.00519899 -0.02202919 0.03007122
v 0.00531283 -0.02146623 0.03007122
v 0.00528111 -0.02169736 0.03007122
v 0.00528338 -0.02168474 0.03007122
v 0.00532311 -0.02128829 0.03007122
v 0.00505975 -0.02238537 0.03007122
v -0.01258757 -0.02399471 0.03007122
v -0.01256087 -0.02400086 0.03007122
v -0.03518438 -0.01279034 0.03007122
v -0.03514170 -0.01312233 0.03007122
v -0.03504311 -0.01355555 0.03007122
v -0.03510478 -0.01330931 0.03007122
v -0.03475992 -0.01426660 0.03007122
v -0.03474047 -0.01430491 0.03007122
v -0.03483365 -0.01411728 0.03007122
v -0.03481758 -0.01415234 0.03007122
v -0.03487062 -0.01403609 0.03007122
v -0.03462347 -0.01450550 0.03007122
v -0.03451645 -0.01466946 0.03007122
v -0.03444799 -0.01476362 0.03007122
v -0.03443449 -0.01478178 0.03007122
v -0.03421281 -0.01504329 0.03007122
v -0.03368322 -0.01549226 0.03007122
v -0.03381539 -0.01539942 0.03007122
v -0.03379586 -0.01541397 0.03007122
v -0.03386019 -0.01536497 0.03007122
v -0.03397981 -0.01526653 0.03007122
v -0.03394548 -0.01529595 0.03007122
v -0.03345273 -0.01563196 0.03007122
v 0.00227248 -0.02400086 0.03007122
v 0.00236781 -0.02400086 0.03007122
v 0.00211190 -0.02400086 0.03007122
v 0.00417244 -0.02345227 0.03007122
v 0.00424338 -0.02340171 0.03007122
v 0.00371951 -0.02370795 0.03007122
v 0.00388241 -0.02362791 0.03007122
v 0.00389088 -0.02362369 0.03007122
v 0.00408312 -0.02351149 0.03007122
v 0.00416847 -0.02345496 0.03007122
v 0.00241979 -0.02399924 0.03007122
v 0.00324530 -0.02388004 0.03007122
v 0.00335511 -0.02384787 0.03007122
v 0.00449183 -0.02319251 0.03007122
v 0.00452695 -0.02315864 0.03007122
v 0.00452709 -0.02315849 0.03007122
v 0.00481950 -0.02280141 0.03007122
v 0.00515457 -0.02215907 0.03007122
v 0.00522828 -0.02192949 0.03007122
v 0.00532235 -0.02131571 0.03007122
v -0.03217333 -0.01222953 0.04513197
v -0.03229681 -0.01222169 0.04513197
v -0.03242791 -0.01220769 0.04513197
v -0.03245816 -0.01220326 0.04513197
v -0.03255193 -0.01218895 0.04513197
v -0.03270037 -0.01216485 0.04513197
v -0.03275275 -0.01215213 0.04513197
v -0.03286458 -0.01212192 0.04513197
v -0.03298634 -0.01208380 0.04513197
v -0.03312522 -0.01203200 0.04513197
v -0.03322692 -0.01198924 0.04513197
v -0.03348749 -0.01185504 0.04513197
v -0.03366568 -0.01174070 0.04513197
v -0.03368589 -0.01172668 0.04513197
v -0.03382978 -0.01161693 0.04513197
v -0.03385683 -0.01159385 0.04513197
v -0.03395550 -0.01150703 0.04513197
v -0.03403112 -0.01143382 0.04513197
v -0.03407703 -0.01138576 0.04513197
v -0.03409885 -0.01136290 0.04513197
v -0.03415618 -0.01129839 0.04513197
v -0.03433647 -0.01106343 0.04513197
v -0.03438290 -0.01099390 0.04513197
v -0.03445523 -0.01087398 0.04513197
v -0.03449823 -0.01079358 0.04513197
v -0.03452583 -0.01074122 0.04513197
v -0.03452849 -0.01073592 0.04513197
v -0.03457228 -0.01064320 0.04513197
v -0.03459174 -0.01059867 0.04513197
v -0.03461312 -0.01054620 0.04513197
v -0.03472893 -0.01019807 0.04513197
v -0.03474095 -0.01014960 0.04513197
v -0.03476246 -0.01005552 0.04513197
v -0.03478339 -0.00994500 0.04513197
v -0.03481612 -0.00968458 0.04513197
v -0.03482667 -0.00941249 0.04513197
v -0.03200675 -0.01223511 0.04513197
v -0.01500000 -0.01118999 0.04513197
v -0.01578785 -0.01221431 0.04513197
v -0.01580388 -0.01221753 0.04513197
v -0.01591130 -0.01223440 0.04513197
v -0.01594070 -0.01223724 0.04513197
v -0.01551577 -0.01210476 0.04513197
v -0.01557542 -0.01213703 0.04513197
v -0.01561360 -0.01215568 0.04513197
v -0.01567003 -0.01217881 0.04513197
v -0.01567595 -0.01218094 0.04513197
v -0.01531893 -0.01195221 0.04513197
v -0.01534888 -0.01198132 0.04513197
v -0.01540228 -0.01202689 0.04513197
v -0.01544972 -0.01206244 0.04513197
v -0.01522043 -0.01183978 0.04513197
v -0.01526597 -0.01189603 0.04513197
v -0.01508908 -0.01161184 0.04513197
v -0.01514871 -0.01173139 0.04513197
v -0.01504483 -0.01148759 0.04513197
v -0.03227985 -0.01222295 0.04513197
v -0.03283125 -0.01213176 0.04513197
v -0.03309094 -0.01204583 0.04513197
v -0.03333653 -0.01193701 0.04513197
v -0.03344861 -0.01187744 0.04513197
v -0.03347463 -0.01186258 0.04513197
v -0.03347638 -0.01186158 0.04513197
v -0.03363237 -0.01176371 0.04513197
v -0.03400432 -0.01146044 0.04513197
v -0.03421547 -0.01122727 0.04513197
v -0.03421797 -0.01122416 0.04513197
v -0.03430752 -0.01110514 0.04513197
v -0.03438552 -0.01098981 0.04513197
v -0.03442554 -0.01092488 0.04513197
v -0.03465336 -0.01044203 0.04513197
v -0.03466664 -0.01040414 0.04513197
v -0.03476050 -0.01006437 0.04513197
v -0.03479019 -0.00989999 0.04513197
v -0.03480045 -0.00983124 0.04513197
v -0.03482667 -0.00399937 0.04513197
v -0.01600000 -0.01224284 0.04513197
v -0.02244205 -0.01224284 0.04513197
v -0.01584578 -0.01222584 0.04513197
v -0.01555266 -0.01212581 0.04513197
v -0.01571650 -0.01219463 0.04513197
v -0.01573943 -0.01220156 0.04513197
v -0.01545800 -0.01206805 0.04513197
v -0.01549346 -0.01209140 0.04513197
v -0.01550233 -0.01209701 0.04513197
v -0.01527012 -0.01190061 0.04513197
v -0.01529812 -0.01193142 0.04513197
v -0.01530475 -0.01193842 0.04513197
v -0.01512094 -0.01168010 0.04513197
v -0.01515696 -0.01174499 0.04513197
v -0.01517844 -0.01177975 0.04513197
v -0.01518322 -0.01178712 0.04513197
v -0.01500204 -0.01123878 0.04513197
v -0.01500608 -0.01128940 0.04513197
v -0.01500930 -0.01131416 0.04513197
v -0.01501436 -0.01135195 0.04513197
v -0.01502941 -0.01142850 0.04513197
v -0.01504959 -0.01150290 0.04513197
v -0.01506172 -0.01154051 0.04513197
v -0.01506541 -0.01155122 0.04513197
v -0.03520000 0.00178179 0.04410625
v -0.00528706 0.00178179 0.03766582
v -0.03520000 0.00178179 0.03007122
v -0.01500000 0.00178179 0.04513197
v -0.00540870 0.00178179 0.03800000
v -0.00625317 0.00178179 0.03669970
v -0.01500000 0.00178179 0.03007122
v -0.03482667 0.00178179 0.04513197
f 218 87 217
f 398 218 399
f 397 87 86
f 87 218 86
f 396 87 397
f 218 398 394
f 397 86 394
f 394 86 218
f 153 298 171
f 298 166 171
f 63 194 195
f 217 87 88
f 112 369 113
f 370 188 369
f 370 329 188
f 369 188 107
f 90 388 89
f 92 88 330
f 328 28 327
f 1 2 31
f 39 1 31
f 178 37 38
f 64 63 195
f 196 65 252
f 252 64 195
f 65 64 252
f 66 65 196
f 66 196 253
f 66 253 59
f 35 64 65
f 110 187 184
f 157 171 166
f 108 107 188
f 111 113 369
f 369 107 111
f 389 89 388
f 348 129 389
f 129 89 389
f 28 328 29
f 29 328 368
f 59 28 29
f 29 66 59
f 29 400 393
f 368 400 29
f 31 2 3
f 2 352 3
f 213 214 31
f 207 272 41
f 77 183 38
f 179 178 38
f 59 253 255
f 363 364 23
f 27 61 26
f 202 55 197
f 60 200 198
f 198 61 60
f 60 255 200
f 59 255 60
f 60 28 59
f 60 27 28
f 61 27 60
f 26 61 62
f 48 211 210
f 204 262 53
f 392 346 129
f 129 346 128
f 185 298 153
f 188 329 293
f 295 185 184
f 295 184 187
f 187 294 295
f 98 229 230
f 228 229 98
f 94 228 98
f 166 99 163
f 103 185 153
f 277 111 107
f 186 108 188
f 188 293 186
f 109 187 110
f 109 186 187
f 108 186 109
f 385 92 330
f 385 386 92
f 387 388 90
f 92 386 91
f 90 245 91
f 91 245 92
f 386 387 91
f 91 387 90
f 217 88 248
f 90 89 247
f 247 245 90
f 356 6 5
f 38 37 301
f 301 39 38
f 5 41 4
f 94 98 144
f 38 183 180
f 180 179 38
f 183 181 180
f 183 77 189
f 189 77 76
f 364 323 24
f 23 364 24
f 24 323 324
f 327 28 367
f 28 27 367
f 32 33 63
f 63 64 32
f 21 22 51
f 322 22 321
f 254 62 199
f 256 257 51
f 51 22 58
f 58 22 23
f 23 57 58
f 260 57 56
f 56 24 55
f 56 57 23
f 23 24 56
f 48 12 47
f 204 53 52
f 52 19 51
f 54 53 262
f 54 17 53
f 54 49 15
f 391 392 129
f 381 128 346
f 342 124 341
f 344 127 384
f 126 127 344
f 298 185 297
f 185 103 106
f 184 185 106
f 101 157 102
f 171 157 101
f 153 171 101
f 223 106 103
f 113 111 219
f 112 113 219
f 166 163 155
f 155 156 166
f 155 99 102
f 155 163 99
f 349 186 293
f 349 294 187
f 187 186 349
f 88 92 292
f 292 248 88
f 92 245 292
f 246 89 129
f 246 247 89
f 306 307 8
f 31 3 30
f 272 212 30
f 30 41 272
f 3 4 30
f 30 4 41
f 5 6 40
f 40 41 5
f 8 43 7
f 7 306 8
f 7 40 6
f 43 40 7
f 71 190 192
f 71 39 215
f 215 190 71
f 76 77 78
f 78 81 76
f 38 81 80
f 38 39 83
f 95 227 228
f 95 228 94
f 226 227 95
f 95 96 226
f 94 179 95
f 179 180 95
f 226 96 283
f 142 179 94
f 178 179 176
f 94 144 176
f 176 142 94
f 145 98 178
f 145 144 98
f 181 96 182
f 182 180 181
f 93 96 181
f 93 181 183
f 183 189 93
f 93 189 76
f 93 76 274
f 274 283 93
f 93 283 96
f 25 325 326
f 25 326 26
f 26 62 25
f 25 62 55
f 55 24 25
f 366 367 27
f 64 35 36
f 36 32 64
f 33 32 36
f 393 33 36
f 36 29 393
f 21 319 320
f 20 319 21
f 51 19 20
f 20 21 51
f 18 17 316
f 19 52 18
f 53 17 18
f 18 52 53
f 8 307 308
f 14 360 15
f 259 58 258
f 260 56 203
f 206 205 50
f 15 49 50
f 50 14 15
f 261 52 201
f 204 52 261
f 263 54 262
f 263 264 49
f 49 54 263
f 390 129 348
f 390 391 129
f 128 381 347
f 347 127 128
f 371 333 117
f 117 333 112
f 120 337 338
f 338 119 120
f 125 341 124
f 126 344 345
f 343 124 342
f 185 295 296
f 296 297 185
f 97 98 230
f 230 100 97
f 146 100 99
f 285 101 102
f 106 223 105
f 110 184 105
f 184 106 105
f 224 109 110
f 111 277 220
f 220 219 111
f 102 157 158
f 161 156 102
f 102 156 162
f 162 155 102
f 156 155 162
f 129 128 131
f 6 356 305
f 304 356 5
f 5 355 304
f 354 355 5
f 303 352 2
f 351 302 1
f 1 39 351
f 39 301 351
f 299 166 298
f 299 350 166
f 267 268 43
f 208 40 266
f 42 43 8
f 8 45 42
f 48 210 44
f 70 71 192
f 74 81 68
f 71 70 74
f 84 78 77
f 81 78 84
f 84 80 81
f 84 77 38
f 38 80 84
f 82 81 38
f 38 83 82
f 75 83 39
f 75 82 83
f 68 81 75
f 81 82 75
f 179 142 177
f 177 176 179
f 142 176 177
f 175 145 178
f 144 145 175
f 178 176 175
f 175 176 144
f 143 95 180
f 180 182 143
f 96 95 143
f 143 182 96
f 325 25 365
f 34 36 35
f 29 36 34
f 34 35 65
f 65 66 34
f 66 29 34
f 19 317 318
f 316 17 362
f 15 360 314
f 16 54 15
f 17 54 16
f 361 362 16
f 16 362 17
f 312 12 311
f 48 44 10
f 13 358 14
f 13 47 12
f 46 50 205
f 205 265 46
f 46 265 47
f 14 50 46
f 47 13 46
f 46 13 14
f 384 127 383
f 334 369 112
f 112 333 334
f 115 371 116
f 371 117 116
f 121 336 337
f 337 120 121
f 372 336 121
f 122 372 121
f 373 374 119
f 114 371 115
f 115 140 114
f 126 379 380
f 380 125 126
f 378 379 126
f 126 345 378
f 124 343 123
f 376 377 123
f 123 377 122
f 335 372 122
f 122 377 335
f 170 146 99
f 102 99 232
f 110 105 280
f 280 224 110
f 107 108 281
f 141 117 112
f 141 116 117
f 141 140 115
f 115 116 141
f 156 161 154
f 160 151 154
f 102 160 154
f 154 161 102
f 166 156 154
f 154 151 166
f 152 157 166
f 166 151 152
f 152 158 157
f 159 160 102
f 159 151 160
f 102 158 159
f 158 152 159
f 159 152 151
f 242 246 129
f 128 127 132
f 132 131 128
f 353 3 352
f 353 4 3
f 270 271 45
f 209 42 269
f 251 216 72
f 216 74 72
f 69 74 68
f 71 74 69
f 69 68 39
f 39 71 69
f 39 68 67
f 67 75 39
f 68 75 67
f 361 16 315
f 11 12 48
f 48 10 11
f 9 45 8
f 309 357 9
f 9 357 10
f 9 44 45
f 9 10 44
f 360 14 359
f 14 358 359
f 358 13 313
f 313 12 312
f 313 13 12
f 127 347 382
f 382 383 127
f 122 121 136
f 136 123 122
f 339 119 338
f 339 373 119
f 341 125 340
f 125 380 340
f 376 123 375
f 375 123 343
f 148 97 100
f 350 300 174
f 178 98 174
f 174 148 165
f 174 300 301
f 97 164 174
f 37 178 174
f 174 301 37
f 172 99 166
f 166 170 172
f 172 170 99
f 284 285 102
f 102 232 284
f 99 100 231
f 231 232 99
f 231 100 230
f 104 222 103
f 101 222 104
f 104 103 153
f 153 101 104
f 101 285 221
f 221 222 101
f 278 223 103
f 103 222 278
f 279 105 223
f 279 280 105
f 225 281 108
f 108 109 225
f 109 224 225
f 276 277 107
f 112 219 286
f 286 141 112
f 129 131 130
f 130 242 129
f 126 125 134
f 191 74 193
f 216 275 85
f 85 74 216
f 274 76 273
f 76 275 273
f 138 120 119
f 371 114 332
f 114 331 332
f 374 331 118
f 119 374 118
f 118 331 114
f 118 114 140
f 147 148 100
f 165 148 147
f 100 168 147
f 147 168 165
f 150 164 97
f 97 148 150
f 150 174 164
f 148 174 150
f 100 146 169
f 165 168 173
f 173 174 165
f 168 169 173
f 166 350 173
f 350 174 173
f 173 170 166
f 146 170 173
f 173 169 146
f 98 97 167
f 167 174 98
f 97 174 167
f 107 281 282
f 282 276 107
f 124 123 135
f 123 136 135
f 135 125 124
f 135 134 125
f 133 132 127
f 133 127 126
f 126 134 133
f 73 72 74
f 74 191 73
f 251 72 250
f 81 74 79
f 74 85 79
f 79 85 275
f 76 81 79
f 79 275 76
f 139 138 119
f 119 118 139
f 139 118 140
f 149 168 100
f 100 169 149
f 149 169 168
f 249 135 239
f 239 135 136
f 233 240 134
f 290 133 241
f 141 286 287
f 238 239 136
f 243 291 131
f 141 287 288
f 140 234 235
f 137 238 136
f 120 138 137
f 137 121 120
f 137 136 121
f 138 237 289
f 400 399 395
f 395 393 400
f 400 398 399
f 397 394 400
f 400 396 397
f 400 394 398
f 396 330 88
f 87 396 88
f 214 215 39
f 31 214 39
f 33 393 395
f 395 194 33
f 194 63 33
f 254 197 62
f 62 197 55
f 322 363 23
f 23 22 322
f 199 61 198
f 199 62 61
f 259 256 58
f 58 256 51
f 257 201 52
f 51 257 52
f 30 212 213
f 30 213 31
f 40 208 207
f 207 41 40
f 26 326 366
f 366 27 26
f 321 22 320
f 22 21 320
f 316 317 18
f 18 317 19
f 258 57 260
f 258 58 57
f 203 55 202
f 203 56 55
f 265 211 48
f 48 47 265
f 50 264 206
f 49 264 50
f 305 7 6
f 306 7 305
f 2 1 303
f 1 302 303
f 43 268 266
f 266 40 43
f 209 267 42
f 42 267 43
f 192 193 74
f 74 70 192
f 365 24 324
f 365 25 24
f 318 20 19
f 319 20 318
f 5 4 353
f 353 354 5
f 270 44 210
f 45 44 270
f 45 271 269
f 269 42 45
f 15 314 315
f 315 16 15
f 310 311 11
f 11 311 12
f 11 357 310
f 10 357 11
f 9 308 309
f 8 308 9
f 332 400 368
f 332 328 327
f 332 370 369
f 332 293 329
f 338 337 332
f 396 400 332
f 294 349 332
f 332 330 396
f 368 328 332
f 332 317 316
f 301 300 332
f 332 380 379
f 324 323 332
f 332 344 384
f 329 370 332
f 348 389 332
f 388 387 332
f 327 367 332
f 332 322 321
f 332 314 360
f 316 362 332
f 332 336 372
f 332 389 388
f 332 385 330
f 364 363 332
f 332 323 364
f 372 335 332
f 321 320 332
f 312 311 332
f 346 392 332
f 332 390 348
f 342 341 332
f 298 297 332
f 332 295 294
f 386 385 332
f 332 387 386
f 307 306 332
f 356 304 332
f 326 325 332
f 332 351 301
f 363 322 332
f 332 366 326
f 332 308 307
f 392 391 332
f 332 381 346
f 332 357 309
f 384 383 332
f 332 382 347
f 369 334 332
f 332 343 342
f 379 378 332
f 332 349 293
f 332 296 295
f 332 305 356
f 352 303 332
f 332 299 298
f 367 366 332
f 332 365 324
f 332 320 319
f 319 318 332
f 309 308 332
f 361 315 332
f 391 390 332
f 332 347 381
f 337 336 332
f 332 333 371
f 332 339 338
f 332 345 344
f 341 340 332
f 332 377 376
f 297 296 332
f 306 305 332
f 332 304 355
f 355 354 332
f 332 303 302
f 302 351 332
f 350 299 332
f 332 300 350
f 325 365 332
f 332 318 317
f 332 362 361
f 332 353 352
f 332 311 310
f 360 359 332
f 332 313 312
f 332 334 333
f 374 373 332
f 376 375 332
f 332 378 345
f 332 335 377
f 354 353 332
f 332 315 314
f 310 357 332
f 332 359 358
f 358 313 332
f 383 382 332
f 373 339 332
f 332 331 374
f 332 340 380
f 332 375 343
f 290 244 133
f 133 244 132
f 72 73 250
f 250 73 191
f 291 130 131
f 242 130 291
f 233 135 249
f 134 135 233
f 134 240 241
f 241 133 134
f 236 237 138
f 138 139 236
f 132 244 243
f 131 132 243
f 140 141 288
f 288 234 140
f 235 236 139
f 235 139 140
f 208 266 289
f 289 218 217
f 289 225 224
f 395 399 289
f 289 194 395
f 399 218 289
f 289 258 260
f 195 194 289
f 214 213 289
f 289 252 195
f 289 215 214
f 289 199 198
f 289 216 251
f 257 256 289
f 206 264 289
f 289 190 215
f 289 220 277
f 253 196 289
f 249 239 289
f 289 201 257
f 289 272 207
f 207 208 289
f 230 229 289
f 289 193 192
f 198 200 289
f 196 252 289
f 289 255 253
f 228 227 289
f 202 197 289
f 289 205 206
f 217 248 289
f 289 292 245
f 192 190 289
f 289 229 228
f 289 212 272
f 200 255 289
f 211 265 289
f 289 197 254
f 289 283 274
f 289 203 202
f 289 210 211
f 289 262 204
f 289 263 262
f 277 276 289
f 245 247 289
f 213 212 289
f 289 227 226
f 254 199 289
f 289 256 259
f 204 261 289
f 289 270 210
f 223 278 289
f 248 292 289
f 247 246 289
f 289 267 209
f 209 269 289
f 226 283 289
f 259 258 289
f 260 203 289
f 289 265 205
f 289 261 201
f 264 263 289
f 285 284 289
f 289 221 285
f 219 220 289
f 268 267 289
f 289 266 268
f 289 282 281
f 242 291 289
f 289 231 230
f 224 280 289
f 289 279 223
f 246 242 289
f 271 270 289
f 289 269 271
f 289 275 216
f 289 284 232
f 232 231 289
f 222 221 289
f 289 278 222
f 280 279 289
f 281 225 289
f 274 273 289
f 289 286 219
f 290 241 289
f 289 191 193
f 289 273 275
f 276 282 289
f 251 250 289
f 289 244 290
f 289 233 249
f 289 250 191
f 289 287 286
f 237 236 289
f 289 235 234
f 240 233 289
f 289 241 240
f 289 243 244
f 234 288 289
f 239 238 289
f 291 243 289
f 289 288 287
f 236 235 289
f 289 137 138
f 238 137 289

