# https://github.com/mikedh/trimesh
v -0.00990133 -0.00623232 0.08537500
v -0.00990000 -0.00618061 0.08537500
v -0.00990000 -0.00592565 0.08798582
v -0.00990384 -0.00626848 0.08537500
v -0.00996076 -0.00652527 0.08537500
v -0.00994482 -0.00647784 0.08537500
v -0.00993434 -0.00644148 0.08537500
v -0.00991531 -0.00635566 0.08537500
v -0.00991506 -0.00635423 0.08537500
v -0.01008195 -0.00675811 0.08537500
v -0.01004870 -0.00670744 0.08537500
v -0.01003486 -0.00668419 0.08537500
v -0.00999436 -0.00660638 0.08537500
v -0.00998966 -0.00659617 0.08537500
v -0.01019434 -0.00689205 0.08537500
v -0.01016144 -0.00685755 0.08537500
v -0.01013525 -0.00682757 0.08537500
v -0.01012084 -0.00681000 0.08537500
v -0.01040153 -0.00705106 0.08537500
v -0.01034971 -0.00701899 0.08537500
v -0.01032799 -0.00700421 0.08537500
v -0.01025875 -0.00695108 0.08537500
v -0.01025072 -0.00694427 0.08537500
v -0.01055921 -0.00712459 0.08537500
v -0.01051268 -0.00710632 0.08537500
v -0.01047880 -0.00709128 0.08537500
v -0.01045671 -0.00708065 0.08537500
v -0.01074786 -0.00717300 0.08537500
v -0.01072704 -0.00716956 0.08537500
v -0.01064217 -0.00715074 0.08537500
v -0.01062846 -0.00714697 0.08537500
v -0.01086903 -0.00718421 0.08537500
v -0.01081320 -0.00718090 0.08537500
v -0.01090000 -0.00705513 0.08675696
v -0.01090000 -0.00718469 0.08537500
v -0.01246947 -0.00791622 0.07557689
v -0.01260000 -0.00718469 0.08537500
v -0.01703033 -0.00717087 0.08552752
v -0.01659366 -0.00705619 0.08674607
v -0.01853315 -0.00748322 0.08174381
v -0.01586897 -0.00679882 0.08916966
v -0.01840848 -0.00748961 0.08169892
v -0.02385714 -0.00500814 0.07527050
v -0.02151743 -0.00455878 0.08169881
v -0.02121245 -0.00473940 0.08250825
v -0.01868771 -0.00386387 0.08947341
v -0.01854595 -0.00406446 0.08983476
v -0.02117300 -0.00501220 0.08251484
v -0.02114379 -0.00515012 0.08251481
v -0.02110802 -0.00528843 0.08251241
v -0.02106557 -0.00542663 0.08250757
v -0.02101636 -0.00556420 0.08250023
v -0.02096034 -0.00570060 0.08249032
v -0.02089755 -0.00583528 0.08247781
v -0.02082804 -0.00596766 0.08246268
v -0.02075195 -0.00609718 0.08244493
v -0.02066944 -0.00622330 0.08242459
v -0.02058076 -0.00634546 0.08240169
v -0.02048619 -0.00646316 0.08237631
v -0.01850387 -0.00433456 0.08984999
v -0.01847346 -0.00447109 0.08985436
v -0.01843660 -0.00460799 0.08985642
v -0.01839316 -0.00474479 0.08985608
v -0.01834307 -0.00488097 0.08985326
v -0.01828630 -0.00501601 0.08984787
v -0.01822289 -0.00514937 0.08983987
v -0.01815290 -0.00528049 0.08982922
v -0.01807645 -0.00540884 0.08981591
v -0.01799374 -0.00553387 0.08979995
v -0.01790498 -0.00565505 0.08978135
v -0.01781046 -0.00577188 0.08976016
v -0.02119582 -0.00487515 0.08251262
v -0.01852797 -0.00419888 0.08984341
v -0.01574459 -0.00680677 0.08912529
v -0.01865982 -0.00747072 0.08178896
v -0.01878802 -0.00745185 0.08183417
v -0.01599438 -0.00678491 0.08921374
v -0.01612176 -0.00676468 0.08925781
v -0.01637947 -0.00670450 0.08934480
v -0.01625026 -0.00673794 0.08930155
v -0.01904746 -0.00739405 0.08192416
v -0.01891738 -0.00742636 0.08187930
v -0.01663825 -0.00661693 0.08942908
v -0.01650895 -0.00666420 0.08938737
v -0.01930801 -0.00730836 0.08201241
v -0.01917783 -0.00735476 0.08196859
v -0.02038606 -0.00657589 0.08234853
v -0.01771052 -0.00588389 0.08973645
v -0.01943750 -0.00725477 0.08205542
v -0.01956578 -0.00719396 0.08209744
v -0.01676687 -0.00656263 0.08946975
v -0.01689431 -0.00650126 0.08950920
v -0.01714361 -0.00635755 0.08958368
v -0.01702006 -0.00643287 0.08954723
v -0.01981662 -0.00705088 0.08217775
v -0.01969233 -0.00712597 0.08213828
v -0.01738201 -0.00618673 0.08965113
v -0.01726442 -0.00627543 0.08961837
v -0.02005632 -0.00688002 0.08225187
v -0.01993813 -0.00696883 0.08221567
v -0.01760551 -0.00599063 0.08971030
v -0.01749586 -0.00609169 0.08968183
v -0.02028075 -0.00668321 0.08231844
v -0.02017069 -0.00678471 0.08228618
v -0.01667849 -0.00765493 0.07946879
v -0.01613129 -0.00769317 0.07893294
v -0.01667849 -0.00773096 0.07839708
v -0.01677878 -0.00773674 0.07831460
v -0.01672707 -0.00765180 0.07951239
v -0.01677663 -0.00764911 0.07954980
v -0.01677903 -0.00764899 0.07955144
v -0.01682919 -0.00764672 0.07958300
v -0.01683430 -0.00764651 0.07958592
v -0.01688429 -0.00764465 0.07961174
v -0.01689235 -0.00764438 0.07961547
v -0.01694145 -0.00764292 0.07963577
v -0.01695274 -0.00764262 0.07963987
v -0.01700049 -0.00764153 0.07965501
v -0.01701503 -0.00764125 0.07965894
v -0.01706081 -0.00764050 0.07966929
v -0.01707047 -0.00764037 0.07967109
v -0.01707873 -0.00764026 0.07967253
v -0.01713177 -0.00763976 0.07967953
v -0.01714337 -0.00763969 0.07968055
v -0.01719366 -0.00763952 0.07968288
v -0.01720847 -0.00763951 0.07968292
v -0.01725571 -0.00763965 0.07968110
v -0.01727353 -0.00763975 0.07967964
v -0.01731746 -0.00764015 0.07967419
v -0.01733805 -0.00764040 0.07967072
v -0.01737818 -0.00764101 0.07966225
v -0.01740156 -0.00764144 0.07965624
v -0.01743774 -0.00764223 0.07964534
v -0.01746357 -0.00764288 0.07963631
v -0.01749424 -0.00764375 0.07962418
v -0.01752362 -0.00764470 0.07961106
v -0.01755047 -0.00764566 0.07959771
v -0.01758125 -0.00764689 0.07958070
v -0.01760424 -0.00764789 0.07956673
v -0.01763603 -0.00764942 0.07954546
v -0.01765518 -0.00765043 0.07953148
v -0.01768755 -0.00765229 0.07950560
v -0.01770312 -0.00765326 0.07949205
v -0.01773541 -0.00765546 0.07946141
v -0.01774774 -0.00765637 0.07944871
v -0.01777926 -0.00765892 0.07941324
v -0.01781876 -0.00766263 0.07936145
v -0.01782533 -0.00766332 0.07935186
v -0.01778860 -0.00765974 0.07940182
v -0.01783619 -0.00766451 0.07933526
v -0.01785363 -0.00766657 0.07930642
v -0.01786732 -0.00766835 0.07928148
v -0.01788358 -0.00767070 0.07924858
v -0.01789396 -0.00767238 0.07922516
v -0.01790840 -0.00767500 0.07918836
v -0.01791587 -0.00767655 0.07916673
v -0.01792790 -0.00767943 0.07912621
v -0.01793280 -0.00768081 0.07910683
v -0.01794194 -0.00768396 0.07906260
v -0.01794471 -0.00768516 0.07904568
v -0.01795041 -0.00768855 0.07899801
v -0.01795151 -0.00768956 0.07898373
v -0.01795323 -0.00769317 0.07893294
v -0.01795315 -0.00769398 0.07892147
v -0.01795041 -0.00769778 0.07886786
v -0.01794961 -0.00769839 0.07885927
v -0.01794194 -0.00770235 0.07880328
v -0.01794091 -0.00770276 0.07879756
v -0.01792790 -0.00770685 0.07873967
v -0.01792714 -0.00770705 0.07873684
v -0.01790836 -0.00771124 0.07867742
v -0.01788476 -0.00771530 0.07861985
v -0.01788358 -0.00771548 0.07861730
v -0.01785650 -0.00771919 0.07856451
v -0.01785363 -0.00771955 0.07855945
v -0.01782811 -0.00772245 0.07851817
v -0.01781877 -0.00772342 0.07850443
v -0.01779155 -0.00772600 0.07846776
v -0.01777926 -0.00772706 0.07845263
v -0.01775087 -0.00772931 0.07842050
v -0.01773541 -0.00773044 0.07840446
v -0.01770658 -0.00773237 0.07837693
v -0.01768755 -0.00773354 0.07836028
v -0.01765888 -0.00773515 0.07833721
v -0.01763603 -0.00773633 0.07832041
v -0.01760799 -0.00773765 0.07830153
v -0.01758125 -0.00773880 0.07828517
v -0.01755425 -0.00773985 0.07827015
v -0.01748223 -0.00774219 0.07823677
v -0.01749825 -0.00774172 0.07824340
v -0.01752362 -0.00774092 0.07825481
v -0.01746357 -0.00774269 0.07822957
v -0.01742383 -0.00774363 0.07821611
v -0.01740156 -0.00774408 0.07820964
v -0.01736382 -0.00774473 0.07820033
v -0.01733805 -0.00774509 0.07819515
v -0.01730262 -0.00774548 0.07818955
v -0.01727353 -0.00774572 0.07818624
v -0.01724084 -0.00774588 0.07818388
v -0.01720847 -0.00774595 0.07818296
v -0.01717899 -0.00774592 0.07818333
v -0.01714337 -0.00774578 0.07818533
v -0.01711720 -0.00774560 0.07818789
v -0.01707873 -0.00774522 0.07819334
v -0.01706323 -0.00774503 0.07819612
v -0.01701503 -0.00774427 0.07820693
v -0.01700272 -0.00774404 0.07821023
v -0.01695274 -0.00774294 0.07822601
v -0.01694368 -0.00774271 0.07822928
v -0.01689235 -0.00774123 0.07825041
v -0.01688647 -0.00774104 0.07825311
v -0.01683430 -0.00773916 0.07827996
v -0.01672914 -0.00773413 0.07835179
v -0.01672696 -0.00773401 0.07835358
v -0.01668502 -0.00773140 0.07839076
v -0.01325829 -0.00683587 0.08886572
v -0.01271109 -0.00689438 0.08832987
v -0.01325829 -0.00695090 0.08779401
v -0.01330676 -0.00683103 0.08890923
v -0.01330689 -0.00683102 0.08890934
v -0.01335648 -0.00682684 0.08894675
v -0.01335883 -0.00682666 0.08894837
v -0.01340901 -0.00682313 0.08897995
v -0.01341409 -0.00682280 0.08898284
v -0.01346399 -0.00681991 0.08900862
v -0.01347214 -0.00681949 0.08901239
v -0.01352110 -0.00681722 0.08903264
v -0.01353254 -0.00681675 0.08903680
v -0.01357997 -0.00681506 0.08905185
v -0.01359482 -0.00681460 0.08905587
v -0.01363999 -0.00681345 0.08906610
v -0.01365281 -0.00681318 0.08906847
v -0.01365853 -0.00681307 0.08906946
v -0.01371397 -0.00681226 0.08907668
v -0.01372317 -0.00681217 0.08907747
v -0.01377573 -0.00681190 0.08907983
v -0.01383764 -0.00681212 0.08907788
v -0.01389896 -0.00681292 0.08907085
v -0.01395941 -0.00681427 0.08905883
v -0.01398136 -0.00681491 0.08905317
v -0.01401879 -0.00681618 0.08904184
v -0.01404337 -0.00681715 0.08903323
v -0.01407466 -0.00681854 0.08902084
v -0.01410342 -0.00681998 0.08900799
v -0.01413071 -0.00682151 0.08899441
v -0.01416105 -0.00682339 0.08897763
v -0.01418420 -0.00682496 0.08896355
v -0.01421584 -0.00682733 0.08894239
v -0.01423508 -0.00682890 0.08892833
v -0.01426735 -0.00683178 0.08890252
v -0.01428300 -0.00683329 0.08888891
v -0.01431521 -0.00683669 0.08885834
v -0.01432760 -0.00683811 0.08884557
v -0.01435906 -0.00684203 0.08881017
v -0.01439856 -0.00684776 0.08875837
v -0.01440512 -0.00684881 0.08874881
v -0.01436834 -0.00684329 0.08879881
v -0.01441705 -0.00685083 0.08873051
v -0.01443342 -0.00685382 0.08870335
v -0.01444811 -0.00685677 0.08867653
v -0.01446338 -0.00686017 0.08864551
v -0.01447465 -0.00686296 0.08861998
v -0.01448820 -0.00686675 0.08858529
v -0.01449639 -0.00686935 0.08856142
v -0.01450770 -0.00687352 0.08852313
v -0.01451317 -0.00687588 0.08850133
v -0.01452174 -0.00688041 0.08845953
v -0.01453020 -0.00688739 0.08839494
v -0.01453150 -0.00688923 0.08837780
v -0.01452491 -0.00688253 0.08843993
v -0.01453303 -0.00689438 0.08832987
v -0.01453289 -0.00689594 0.08831533
v -0.01453020 -0.00690135 0.08826479
v -0.01452908 -0.00690261 0.08825295
v -0.01448820 -0.00692156 0.08807445
v -0.01450598 -0.00691566 0.08813024
v -0.01450770 -0.00691499 0.08813659
v -0.01452008 -0.00690921 0.08819108
v -0.01452174 -0.00690824 0.08820020
v -0.01446338 -0.00692791 0.08801422
v -0.01448686 -0.00692195 0.08807077
v -0.01443425 -0.00693383 0.08795782
v -0.01439856 -0.00693973 0.08790135
v -0.01440114 -0.00693935 0.08790508
v -0.01436373 -0.00694455 0.08785521
v -0.01435906 -0.00694513 0.08784956
v -0.01432226 -0.00694939 0.08780859
v -0.01431521 -0.00695014 0.08780139
v -0.01427717 -0.00695384 0.08776566
v -0.01426735 -0.00695472 0.08775721
v -0.01422886 -0.00695786 0.08772676
v -0.01421583 -0.00695884 0.08771734
v -0.01417746 -0.00696146 0.08769196
v -0.01416105 -0.00696247 0.08768210
v -0.01412330 -0.00696459 0.08766150
v -0.01410342 -0.00696559 0.08765174
v -0.01407478 -0.00696691 0.08763894
v -0.01404337 -0.00696819 0.08762650
v -0.01401690 -0.00696913 0.08761726
v -0.01398136 -0.00697023 0.08760656
v -0.01395740 -0.00697086 0.08760042
v -0.01391785 -0.00697172 0.08759208
v -0.01389663 -0.00697208 0.08758852
v -0.01385333 -0.00697263 0.08758317
v -0.01383501 -0.00697278 0.08758166
v -0.01378827 -0.00697296 0.08757988
v -0.01377323 -0.00697296 0.08757993
v -0.01372317 -0.00697272 0.08758226
v -0.01371163 -0.00697262 0.08758327
v -0.01365853 -0.00697190 0.08759027
v -0.01365041 -0.00697176 0.08759169
v -0.01362204 -0.00697118 0.08759735
v -0.01359482 -0.00697051 0.08760386
v -0.01356219 -0.00696956 0.08761311
v -0.01353254 -0.00696855 0.08762293
v -0.01350378 -0.00696744 0.08763379
v -0.01347214 -0.00696605 0.08764733
v -0.01344739 -0.00696483 0.08765917
v -0.01341409 -0.00696301 0.08767688
v -0.01339317 -0.00696174 0.08768915
v -0.01335883 -0.00695945 0.08771136
v -0.01334166 -0.00695820 0.08772349
v -0.01330676 -0.00695541 0.08775050
v -0.01329311 -0.00695422 0.08776200
v -0.02339418 0.00057453 0.07654248
v -0.02339418 -0.00057453 0.07654248
v -0.01962771 0.00053033 0.08689077
v -0.01962771 -0.00053033 0.08689077
v -0.01160000 -0.00694490 0.07525349
v -0.01160855 -0.00707633 0.07525349
v -0.01160843 -0.00707516 0.07525349
v -0.01160219 -0.00701163 0.07525349
v -0.01170287 -0.00738836 0.07525349
v -0.01167612 -0.00732914 0.07525349
v -0.01167568 -0.00732800 0.07525349
v -0.01165329 -0.00726835 0.07525349
v -0.01165254 -0.00726598 0.07525349
v -0.01163408 -0.00720498 0.07525349
v -0.01184776 -0.00760605 0.07525349
v -0.01180665 -0.00755580 0.07525349
v -0.01180589 -0.00755477 0.07525349
v -0.01176893 -0.00750305 0.07525349
v -0.01221606 -0.00787119 0.07525349
v -0.01215838 -0.00784499 0.07525349
v -0.01210004 -0.00781376 0.07525349
v -0.01246947 -0.00793948 0.07525349
v -0.01246808 -0.00793927 0.07525349
v -0.01240563 -0.00792893 0.07525349
v -0.01240285 -0.00792831 0.07525349
v -0.01234121 -0.00791390 0.07525349
v -0.02088694 -0.00794125 0.07525349
v -0.02087021 -0.00794163 0.07525349
v -0.02386148 -0.00505255 0.07525349
v -0.02385305 -0.00524848 0.07525349
v -0.02385293 -0.00525133 0.07525349
v -0.02381576 -0.00552507 0.07525349
v -0.02381546 -0.00552646 0.07525349
v -0.02378606 -0.00566464 0.07525349
v -0.02374966 -0.00580162 0.07525349
v -0.02374918 -0.00580310 0.07525349
v -0.02370528 -0.00593973 0.07525349
v -0.02370469 -0.00594131 0.07525349
v -0.02365245 -0.00607874 0.07525349
v -0.02352576 -0.00634697 0.07525349
v -0.02352455 -0.00634908 0.07525349
v -0.02345046 -0.00647848 0.07525349
v -0.02344895 -0.00648083 0.07525349
v -0.02327735 -0.00673179 0.07525349
v -0.02317998 -0.00685247 0.07525349
v -0.02317717 -0.00685561 0.07525349
v -0.02385277 -0.00525278 0.07525349
v -0.02117511 -0.00791693 0.07525349
v -0.02103023 -0.00793228 0.07525349
v -0.02101414 -0.00793333 0.07525349
v -0.02146783 -0.00786611 0.07525349
v -0.02176114 -0.00778718 0.07525349
v -0.02174921 -0.00779072 0.07525349
v -0.02161468 -0.00783024 0.07525349
v -0.02132113 -0.00789495 0.07525349
v -0.02130656 -0.00789718 0.07525349
v -0.02205059 -0.00767922 0.07525349
v -0.02284848 -0.00718457 0.07525349
v -0.02272625 -0.00728379 0.07525349
v -0.02246719 -0.00746284 0.07525349
v -0.02245997 -0.00746707 0.07525349
v -0.02190664 -0.00773686 0.07525349
v -0.02189566 -0.00774068 0.07525349
v -0.02296515 -0.00707933 0.07525349
v -0.02383785 -0.00538762 0.07525349
v -0.01922984 -0.00794680 0.07525349
v -0.01927063 -0.00794679 0.07525349
v -0.01925116 -0.00794679 0.07525349
v -0.01929497 -0.00794679 0.07525349
v -0.01934032 -0.00794678 0.07525349
v -0.01931311 -0.00794678 0.07525349
v -0.01935675 -0.00794677 0.07525349
v -0.01938675 -0.00794676 0.07525349
v -0.01940115 -0.00794675 0.07525349
v -0.01941368 -0.00794675 0.07525349
v -0.01945867 -0.00794672 0.07525349
v -0.01943382 -0.00794674 0.07525349
v -0.01948107 -0.00794671 0.07525349
v -0.02030712 -0.00794605 0.07525349
v -0.02031459 -0.00794604 0.07525349
v -0.02033264 -0.00794603 0.07525349
v -0.02032623 -0.00794603 0.07525349
v -0.02034476 -0.00794601 0.07525349
v -0.02035016 -0.00794601 0.07525349
v -0.02036253 -0.00794599 0.07525349
v -0.02037938 -0.00794597 0.07525349
v -0.02036692 -0.00794599 0.07525349
v -0.02038084 -0.00794597 0.07525349
v -0.02039587 -0.00794595 0.07525349
v -0.02039521 -0.00794595 0.07525349
v -0.02040988 -0.00794592 0.07525349
v -0.02042279 -0.00794590 0.07525349
v -0.02043452 -0.00794587 0.07525349
v -0.02042337 -0.00794590 0.07525349
v -0.02044505 -0.00794585 0.07525349
v -0.02043555 -0.00794587 0.07525349
v -0.02044641 -0.00794584 0.07525349
v -0.02045590 -0.00794581 0.07525349
v -0.02045433 -0.00794582 0.07525349
v -0.02046236 -0.00794579 0.07525349
v -0.02046402 -0.00794578 0.07525349
v -0.02074576 -0.00794412 0.07525349
v -0.02046913 -0.00794576 0.07525349
v -0.01460123 -0.00794602 0.07525349
v -0.01507292 -0.00794661 0.07525349
v -0.01506701 -0.00794660 0.07525349
v -0.01511195 -0.00794664 0.07525349
v -0.01511005 -0.00794664 0.07525349
v -0.01515415 -0.00794668 0.07525349
v -0.01519952 -0.00794671 0.07525349
v -0.01524513 -0.00794673 0.07525349
v -0.01524059 -0.00794673 0.07525349
v -0.01528403 -0.00794675 0.07525349
v -0.01529075 -0.00794675 0.07525349
v -0.01533596 -0.00794677 0.07525349
v -0.01532718 -0.00794677 0.07525349
v -0.01536969 -0.00794678 0.07525349
v -0.01538030 -0.00794678 0.07525349
v -0.01540616 -0.00794678 0.07525349
v -0.01544622 -0.00794679 0.07525349
v -0.01542335 -0.00794679 0.07525349
v -0.01546468 -0.00794679 0.07525349
v -0.02386334 0.00158196 0.07525349
v -0.02386334 -0.00198152 0.07525349
v -0.02386333 0.00178136 0.07525349
v -0.02386333 -0.00500930 0.07525349
v -0.01161911 -0.00714048 0.07525349
v -0.01160214 -0.00701104 0.07525349
v -0.01163407 -0.00720495 0.07525349
v -0.01176752 -0.00750084 0.07525349
v -0.01173400 -0.00744680 0.07525349
v -0.01173397 -0.00744676 0.07525349
v -0.01204390 -0.00777873 0.07525349
v -0.01199124 -0.00774087 0.07525349
v -0.01199021 -0.00774005 0.07525349
v -0.01194121 -0.00769973 0.07525349
v -0.01193920 -0.00769789 0.07525349
v -0.01189293 -0.00765444 0.07525349
v -0.01189289 -0.00765440 0.07525349
v -0.01227792 -0.00789463 0.07525349
v -0.01221732 -0.00787174 0.07525349
v -0.01215589 -0.00784369 0.07525349
v -0.01210000 -0.00781374 0.07525349
v -0.01247356 -0.00793970 0.07525349
v -0.01234118 -0.00791390 0.07525349
v -0.02378643 -0.00566323 0.07525349
v -0.02365320 -0.00607702 0.07525349
v -0.02359336 -0.00621296 0.07525349
v -0.02359240 -0.00621486 0.07525349
v -0.02336760 -0.00660694 0.07525349
v -0.02336572 -0.00660955 0.07525349
v -0.02327504 -0.00673466 0.07525349
v -0.02307579 -0.00696848 0.07525349
v -0.02115974 -0.00791860 0.07525349
v -0.02145409 -0.00786884 0.07525349
v -0.02160183 -0.00783341 0.07525349
v -0.02307241 -0.00697188 0.07525349
v -0.02204057 -0.00768326 0.07525349
v -0.02232334 -0.00754635 0.07525349
v -0.02219240 -0.00761428 0.07525349
v -0.02218333 -0.00761846 0.07525349
v -0.02259264 -0.00738082 0.07525349
v -0.02284374 -0.00718843 0.07525349
v -0.02272074 -0.00728783 0.07525349
v -0.02259898 -0.00737665 0.07525349
v -0.02233147 -0.00754211 0.07525349
v -0.02296112 -0.00708297 0.07525349
v -0.02383762 -0.00538903 0.07525349
v -0.01920931 -0.00794680 0.07525349
v -0.01950374 -0.00794670 0.07525349
v -0.00990605 -0.00576881 0.09031424
v -0.00990131 -0.00570965 0.09031424
v -0.00990133 -0.00571015 0.09031424
v -0.00994482 -0.00595599 0.09031424
v -0.00992808 -0.00589496 0.09031424
v -0.00991506 -0.00583223 0.09031424
v -0.01008319 -0.00623838 0.09031424
v -0.01004843 -0.00618543 0.09031424
v -0.01004870 -0.00618588 0.09031424
v -0.00998966 -0.00607447 0.09031424
v -0.00998974 -0.00607464 0.09031424
v -0.01020449 -0.00638075 0.09031424
v -0.01016084 -0.00633550 0.09031424
v -0.01012085 -0.00628858 0.09031424
v -0.01012116 -0.00628896 0.09031424
v -0.01034971 -0.00649783 0.09031424
v -0.01029806 -0.00646117 0.09031424
v -0.01025072 -0.00642301 0.09031424
v -0.01025092 -0.00642318 0.09031424
v -0.01056969 -0.00660731 0.09031424
v -0.01051268 -0.00658527 0.09031424
v -0.01045515 -0.00655873 0.09031424
v -0.01045671 -0.00655957 0.09031424
v -0.01074723 -0.00665193 0.09031424
v -0.01074786 -0.00665204 0.09031424
v -0.01062847 -0.00662597 0.09031424
v -0.01080649 -0.00665928 0.09031424
v -0.01080849 -0.00665952 0.09031424
v -0.01833139 -0.00429087 0.09031424
v -0.01827017 -0.00454769 0.09031424
v -0.01830176 -0.00442768 0.09031424
v -0.01826482 -0.00456459 0.09031424
v -0.01811706 -0.00495421 0.09031424
v -0.01805087 -0.00508640 0.09031424
v -0.01810879 -0.00497085 0.09031424
v -0.01797717 -0.00521600 0.09031424
v -0.01804151 -0.00510299 0.09031424
v -0.01780777 -0.00546528 0.09031424
v -0.01788431 -0.00535899 0.09031424
v -0.01761058 -0.00569784 0.09031424
v -0.01835664 -0.00413724 0.09031424
v -0.01560486 -0.00664065 0.09031424
v -0.01570714 -0.00663031 0.09031424
v -0.01589110 -0.00660441 0.09031424
v -0.01599787 -0.00658392 0.09031424
v -0.01617947 -0.00654137 0.09031424
v -0.01628918 -0.00650960 0.09031424
v -0.01603526 -0.00657634 0.09031424
v -0.01614372 -0.00655033 0.09031424
v -0.01574748 -0.00662578 0.09031424
v -0.01585217 -0.00661052 0.09031424
v -0.01750234 -0.00580662 0.09031424
v -0.01759455 -0.00571411 0.09031424
v -0.01674596 -0.00633050 0.09031424
v -0.01685558 -0.00627394 0.09031424
v -0.01660702 -0.00639396 0.09031424
v -0.01671748 -0.00634375 0.09031424
v -0.01701505 -0.00618238 0.09031424
v -0.01714404 -0.00609802 0.09031424
v -0.01688217 -0.00625993 0.09031424
v -0.01738819 -0.00590983 0.09031424
v -0.01748471 -0.00582274 0.09031424
v -0.01833498 -0.00427367 0.09031424
v -0.01114092 -0.00666565 0.09031424
v -0.01112964 -0.00666562 0.09031424
v -0.01114089 -0.00666565 0.09031424
v -0.01103221 -0.00666530 0.09031424
v -0.01090000 -0.00666442 0.09031424
v -0.00990000 -0.00565852 0.09031424
v -0.01838167 -0.00376546 0.09031424
v -0.00996533 -0.00601581 0.09031424
v -0.00994467 -0.00595548 0.09031424
v -0.00991507 -0.00583224 0.09031424
v -0.00992785 -0.00589390 0.09031424
v -0.01001778 -0.00613173 0.09031424
v -0.01001705 -0.00613033 0.09031424
v -0.01016144 -0.00633619 0.09031424
v -0.01040229 -0.00653038 0.09031424
v -0.01040086 -0.00652949 0.09031424
v -0.01029986 -0.00646254 0.09031424
v -0.01034913 -0.00649744 0.09031424
v -0.01045733 -0.00655987 0.09031424
v -0.01051171 -0.00658484 0.09031424
v -0.01068901 -0.00664108 0.09031424
v -0.01062887 -0.00662608 0.09031424
v -0.01068645 -0.00664052 0.09031424
v -0.01087031 -0.00666396 0.09031424
v -0.01837145 -0.00400182 0.09031424
v -0.01837532 -0.00391602 0.09031424
v -0.01830621 -0.00441064 0.09031424
v -0.01822041 -0.00470111 0.09031424
v -0.01822668 -0.00468432 0.09031424
v -0.01816842 -0.00483671 0.09031424
v -0.01817566 -0.00482001 0.09031424
v -0.01796664 -0.00523255 0.09031424
v -0.01789608 -0.00534247 0.09031424
v -0.01779467 -0.00548175 0.09031424
v -0.01769799 -0.00560029 0.09031424
v -0.01771251 -0.00558390 0.09031424
v -0.01836954 -0.00401941 0.09031424
v -0.01539948 -0.00664794 0.09031424
v -0.01549640 -0.00664651 0.09031424
v -0.01550633 -0.00664633 0.09031424
v -0.01632320 -0.00649937 0.09031424
v -0.01657665 -0.00640633 0.09031424
v -0.01712119 -0.00611318 0.09031424
v -0.01736890 -0.00592571 0.09031424
v -0.01724756 -0.00602264 0.09031424
v -0.01726860 -0.00600708 0.09031424
v -0.01699035 -0.00619703 0.09031424
v -0.01643369 -0.00646161 0.09031424
v -0.01646590 -0.00645025 0.09031424
v -0.01835390 -0.00415463 0.09031424
v -0.00990000 0.00178179 0.08537500
v -0.01922364 0.00178179 0.08800096
v -0.02379288 0.00178179 0.07544707
v -0.02386333 0.00178179 0.07525349
v -0.00990000 0.00178179 0.09031424
v -0.01838167 0.00178179 0.09031424
v -0.01160000 0.00178179 0.07525349
v -0.01901778 0.00178179 0.08856655
f 610 447 448
f 448 325 610
f 449 610 611
f 447 610 449
f 326 325 448
f 609 610 327
f 327 610 325
f 3 563 496
f 1 329 2
f 2 3 1
f 14 334 5
f 333 334 14
f 609 327 615
f 42 37 38
f 81 80 79
f 10 503 501
f 9 330 4
f 451 330 9
f 8 451 9
f 6 5 336
f 7 451 8
f 6 338 7
f 498 5 6
f 11 503 10
f 10 342 11
f 455 12 11
f 456 12 455
f 333 12 456
f 13 333 14
f 13 12 333
f 43 450 353
f 84 83 85
f 387 376 85
f 375 81 480
f 86 377 378
f 86 84 85
f 86 81 79
f 79 84 86
f 370 477 59
f 59 71 58
f 32 34 35
f 37 42 35
f 38 37 35
f 35 34 38
f 35 105 106
f 35 106 36
f 4 330 331
f 331 332 4
f 452 1 4
f 4 332 452
f 329 1 452
f 335 5 334
f 335 336 5
f 337 338 6
f 6 336 337
f 451 7 453
f 453 7 338
f 5 498 565
f 14 5 565
f 566 7 499
f 341 342 10
f 10 340 341
f 455 11 454
f 454 11 342
f 12 569 502
f 50 358 359
f 49 50 62
f 61 49 62
f 389 72 371
f 73 72 60
f 45 72 73
f 73 47 45
f 106 428 468
f 346 32 468
f 36 106 468
f 32 35 468
f 468 35 36
f 91 90 89
f 85 83 89
f 89 83 91
f 95 93 100
f 96 94 95
f 95 94 93
f 38 34 39
f 38 76 75
f 380 372 76
f 80 81 82
f 125 129 124
f 124 42 125
f 42 126 125
f 128 42 129
f 129 125 128
f 369 58 476
f 63 50 51
f 63 62 50
f 64 63 51
f 56 57 69
f 367 474 56
f 34 28 29
f 33 34 32
f 33 28 34
f 33 32 346
f 346 28 33
f 339 340 18
f 18 340 10
f 501 508 18
f 10 501 18
f 339 16 463
f 21 20 457
f 22 460 23
f 495 9 4
f 495 500 9
f 13 505 570
f 14 565 504
f 100 93 98
f 101 87 103
f 97 104 99
f 100 98 99
f 99 98 97
f 357 470 49
f 48 60 72
f 48 49 61
f 61 60 48
f 363 472 53
f 52 64 51
f 53 65 52
f 65 64 52
f 557 60 523
f 44 450 43
f 328 326 448
f 47 594 582
f 110 35 42
f 352 426 42
f 386 89 482
f 92 90 91
f 96 90 92
f 92 94 96
f 483 484 96
f 381 90 485
f 486 384 100
f 490 95 385
f 545 538 80
f 539 542 79
f 558 595 74
f 373 75 478
f 40 42 38
f 38 75 40
f 379 82 479
f 127 126 42
f 42 128 127
f 127 125 126
f 127 128 125
f 368 57 475
f 364 54 473
f 67 54 55
f 53 54 66
f 66 65 53
f 66 54 67
f 56 69 68
f 68 55 56
f 67 55 68
f 469 464 31
f 31 464 24
f 34 29 518
f 518 519 34
f 17 16 339
f 339 18 17
f 15 463 16
f 467 457 20
f 19 345 467
f 467 20 19
f 21 457 458
f 458 22 21
f 21 574 575
f 497 495 4
f 4 1 497
f 567 568 8
f 600 553 97
f 549 554 93
f 552 98 604
f 547 534 71
f 87 101 88
f 88 71 59
f 59 87 88
f 487 383 104
f 489 99 488
f 481 388 87
f 382 103 491
f 356 48 492
f 360 361 51
f 471 52 362
f 450 44 46
f 448 450 46
f 46 328 448
f 46 44 45
f 46 45 47
f 613 615 46
f 46 564 613
f 327 328 46
f 46 615 327
f 47 582 583
f 105 35 109
f 35 110 109
f 543 540 84
f 41 39 74
f 41 77 39
f 41 596 597
f 78 537 544
f 39 77 78
f 38 39 78
f 78 76 38
f 78 82 76
f 80 82 78
f 351 40 374
f 366 55 365
f 529 527 65
f 588 64 587
f 589 530 67
f 528 66 531
f 69 591 532
f 70 58 71
f 70 57 58
f 70 69 57
f 347 28 346
f 347 29 28
f 347 348 29
f 29 348 349
f 465 24 464
f 27 345 19
f 26 344 27
f 34 581 562
f 522 581 34
f 23 460 461
f 461 15 23
f 460 22 459
f 22 458 459
f 22 513 511
f 23 15 506
f 546 88 556
f 555 101 601
f 602 603 102
f 102 104 97
f 103 104 102
f 102 101 103
f 585 586 63
f 526 524 62
f 525 584 61
f 607 535 73
f 123 42 124
f 123 122 42
f 120 119 42
f 115 114 42
f 42 116 115
f 115 116 114
f 42 119 118
f 119 116 118
f 42 114 113
f 113 112 42
f 114 112 113
f 111 110 42
f 42 112 111
f 111 112 110
f 197 199 196
f 541 598 83
f 236 558 74
f 74 235 236
f 236 235 558
f 218 34 217
f 590 68 533
f 343 344 26
f 24 465 25
f 515 24 25
f 465 343 25
f 25 343 26
f 345 27 466
f 466 27 344
f 34 519 521
f 521 522 34
f 29 349 30
f 30 349 350
f 350 469 30
f 30 469 31
f 578 518 29
f 31 24 514
f 514 24 515
f 463 15 462
f 15 461 462
f 19 572 516
f 23 506 512
f 571 15 16
f 571 506 15
f 119 120 121
f 42 122 121
f 121 120 42
f 121 123 124
f 122 123 121
f 117 116 42
f 42 118 117
f 117 118 116
f 199 197 198
f 494 183 403
f 92 599 550
f 280 218 217
f 592 593 70
f 31 514 520
f 20 510 573
f 507 17 509
f 212 188 210
f 105 144 145
f 145 146 105
f 145 144 42
f 42 146 145
f 109 141 142
f 142 141 42
f 110 112 139
f 155 154 42
f 106 154 155
f 106 105 153
f 153 154 106
f 42 154 153
f 426 427 158
f 106 157 158
f 42 426 158
f 158 157 42
f 162 163 106
f 179 107 177
f 548 94 551
f 605 606 91
f 237 235 74
f 241 228 240
f 240 228 230
f 74 241 240
f 558 235 234
f 234 233 558
f 235 233 234
f 231 230 558
f 558 228 227
f 558 230 229
f 229 228 558
f 230 228 229
f 216 219 251
f 252 216 251
f 74 252 251
f 306 39 34
f 74 39 279
f 282 280 39
f 218 280 282
f 580 30 579
f 26 576 577
f 200 493 446
f 196 199 200
f 208 205 206
f 149 146 42
f 42 147 149
f 105 146 149
f 149 147 105
f 148 150 105
f 105 147 148
f 42 150 148
f 148 147 42
f 105 109 143
f 109 142 143
f 143 144 105
f 42 144 143
f 143 142 42
f 110 139 140
f 140 109 110
f 140 141 109
f 42 141 140
f 140 139 42
f 137 112 114
f 137 139 112
f 156 157 106
f 106 155 156
f 42 157 156
f 156 155 42
f 152 153 105
f 42 153 152
f 427 160 159
f 159 158 427
f 159 160 106
f 106 158 159
f 106 160 161
f 161 162 106
f 178 179 177
f 184 214 183
f 184 183 494
f 494 185 184
f 173 107 106
f 235 237 238
f 238 237 74
f 74 240 239
f 239 238 74
f 239 240 230
f 235 238 239
f 244 245 225
f 74 245 244
f 230 231 232
f 232 239 230
f 558 233 232
f 232 231 558
f 232 233 235
f 235 239 232
f 225 558 226
f 558 227 226
f 226 227 228
f 226 244 225
f 257 255 216
f 216 254 257
f 74 255 257
f 257 254 74
f 253 252 74
f 74 254 253
f 253 216 252
f 253 254 216
f 256 255 74
f 74 258 256
f 216 255 256
f 256 258 216
f 260 216 259
f 216 258 259
f 74 260 259
f 259 258 74
f 558 222 221
f 249 221 248
f 219 221 249
f 249 248 74
f 74 273 272
f 272 271 74
f 272 273 217
f 217 271 272
f 217 268 269
f 269 271 217
f 269 268 74
f 74 271 269
f 217 273 274
f 274 279 217
f 274 273 74
f 74 279 274
f 39 277 278
f 278 279 39
f 278 277 217
f 217 279 278
f 217 265 266
f 266 267 217
f 266 265 74
f 74 267 266
f 74 268 270
f 270 267 74
f 270 268 217
f 217 267 270
f 74 265 264
f 264 263 74
f 264 265 217
f 217 263 264
f 217 216 261
f 261 216 260
f 261 260 74
f 284 283 218
f 218 282 284
f 39 283 284
f 284 282 39
f 281 280 217
f 217 275 281
f 39 280 281
f 281 275 39
f 276 277 39
f 39 275 276
f 217 277 276
f 276 275 217
f 218 286 287
f 287 286 39
f 285 283 39
f 39 286 285
f 218 283 285
f 285 286 218
f 294 293 39
f 202 200 201
f 202 203 204
f 196 200 202
f 204 205 202
f 212 210 211
f 207 208 206
f 210 208 209
f 196 202 194
f 194 202 205
f 205 208 194
f 189 208 210
f 189 194 208
f 136 137 114
f 42 137 136
f 42 139 138
f 138 137 42
f 139 137 138
f 151 150 42
f 42 152 151
f 105 150 151
f 151 152 105
f 181 182 215
f 215 182 183
f 183 214 215
f 180 181 215
f 107 179 215
f 215 179 180
f 186 185 494
f 108 213 214
f 214 184 108
f 108 184 185
f 185 186 108
f 107 173 175
f 167 170 106
f 106 166 167
f 242 228 241
f 242 241 74
f 558 221 220
f 220 221 219
f 248 221 247
f 74 248 247
f 223 221 222
f 223 222 558
f 225 245 223
f 223 247 221
f 250 251 219
f 219 249 250
f 74 251 250
f 250 249 74
f 318 317 34
f 218 289 324
f 34 218 324
f 324 323 34
f 34 323 322
f 323 291 322
f 34 309 308
f 306 308 304
f 34 313 312
f 262 263 217
f 217 261 262
f 74 263 262
f 262 261 74
f 39 289 288
f 288 287 39
f 288 289 218
f 218 287 288
f 39 293 292
f 292 291 39
f 292 322 291
f 290 291 323
f 290 324 289
f 323 324 290
f 290 289 39
f 39 291 290
f 39 296 295
f 295 294 39
f 296 318 295
f 295 318 294
f 196 194 195
f 193 194 192
f 194 189 192
f 114 116 134
f 134 136 114
f 187 188 212
f 212 108 187
f 187 108 186
f 174 175 173
f 177 107 176
f 107 175 176
f 106 170 171
f 171 173 106
f 106 163 164
f 170 167 168
f 74 244 243
f 243 242 74
f 244 226 243
f 243 226 228
f 228 242 243
f 224 558 225
f 225 223 224
f 224 223 558
f 246 223 245
f 247 223 246
f 246 245 74
f 74 247 246
f 294 318 319
f 320 293 319
f 293 294 319
f 34 320 319
f 319 318 34
f 34 317 316
f 316 315 34
f 315 316 298
f 321 293 320
f 321 320 34
f 34 322 321
f 321 292 293
f 322 292 321
f 307 306 34
f 34 308 307
f 307 308 306
f 39 306 305
f 305 304 39
f 306 304 305
f 39 304 303
f 303 308 301
f 303 304 308
f 310 309 34
f 314 312 313
f 314 313 34
f 34 315 314
f 191 190 189
f 191 210 188
f 191 189 210
f 124 129 132
f 132 116 119
f 132 134 116
f 132 121 124
f 119 121 132
f 42 136 135
f 135 134 42
f 136 134 135
f 173 171 172
f 165 166 106
f 106 164 165
f 170 168 169
f 297 296 39
f 39 298 297
f 297 318 296
f 317 318 297
f 297 316 317
f 297 298 316
f 302 301 39
f 39 303 302
f 302 303 301
f 34 312 311
f 311 310 34
f 301 308 311
f 311 312 301
f 311 308 309
f 309 310 311
f 39 301 300
f 315 298 299
f 299 314 315
f 299 298 39
f 39 300 299
f 312 314 299
f 301 312 299
f 299 300 301
f 131 132 129
f 42 132 131
f 42 134 133
f 133 132 42
f 134 132 133
f 129 42 130
f 130 131 129
f 42 131 130
f 608 329 614
f 2 329 608
f 3 608 612
f 2 608 3
f 612 563 3
f 613 612 615
f 614 611 615
f 611 610 615
f 615 608 614
f 612 608 615
f 615 610 609
f 378 480 86
f 86 480 81
f 376 377 86
f 85 376 86
f 58 370 59
f 369 370 58
f 6 7 566
f 566 498 6
f 503 11 502
f 502 11 12
f 470 358 50
f 49 470 50
f 355 371 45
f 45 371 72
f 386 387 89
f 89 387 85
f 379 380 82
f 82 380 76
f 368 476 57
f 57 476 58
f 568 7 8
f 499 7 568
f 12 13 570
f 570 569 12
f 504 13 14
f 504 505 13
f 48 357 49
f 356 357 48
f 471 363 52
f 52 363 53
f 355 45 44
f 44 354 355
f 44 353 354
f 43 353 44
f 328 327 325
f 325 326 328
f 482 90 381
f 482 89 90
f 96 95 483
f 483 95 490
f 485 90 96
f 96 484 485
f 100 99 486
f 486 99 489
f 385 95 100
f 100 384 385
f 79 80 539
f 80 538 539
f 76 372 478
f 478 75 76
f 351 352 40
f 40 352 42
f 479 81 375
f 479 82 81
f 56 474 475
f 475 57 56
f 53 472 473
f 473 54 53
f 55 367 56
f 366 367 55
f 17 508 509
f 17 18 508
f 497 3 496
f 497 1 3
f 8 9 567
f 9 500 567
f 97 98 600
f 600 98 552
f 549 94 548
f 93 94 549
f 93 554 604
f 604 98 93
f 546 547 88
f 88 547 71
f 487 103 382
f 487 104 103
f 488 99 104
f 104 383 488
f 59 477 481
f 481 87 59
f 103 87 491
f 87 388 491
f 492 72 389
f 492 48 72
f 360 50 359
f 51 50 360
f 51 361 362
f 362 52 51
f 584 60 61
f 523 60 584
f 535 47 73
f 535 594 47
f 583 46 47
f 564 46 583
f 543 84 79
f 79 542 543
f 41 597 536
f 536 77 41
f 595 596 41
f 74 595 41
f 536 537 78
f 78 77 536
f 544 545 78
f 78 545 80
f 374 75 373
f 374 40 75
f 365 54 364
f 365 55 54
f 65 66 529
f 529 66 528
f 587 64 65
f 65 527 587
f 67 68 589
f 589 68 590
f 531 66 67
f 67 530 531
f 561 217 562
f 217 34 562
f 21 22 511
f 511 574 21
f 556 101 555
f 556 88 101
f 102 553 602
f 97 553 102
f 603 601 102
f 102 601 101
f 585 64 588
f 63 64 585
f 62 63 526
f 63 586 526
f 61 62 525
f 62 524 525
f 73 60 607
f 60 557 607
f 107 430 428
f 107 428 106
f 83 84 541
f 84 540 541
f 216 217 561
f 561 559 216
f 533 68 69
f 69 532 533
f 593 591 69
f 69 70 593
f 29 30 578
f 578 30 580
f 510 20 21
f 21 575 510
f 512 22 23
f 512 513 22
f 606 92 91
f 606 599 92
f 559 560 219
f 219 216 559
f 71 534 592
f 592 70 71
f 19 20 573
f 573 572 19
f 16 17 507
f 507 571 16
f 393 197 196
f 391 197 393
f 94 92 551
f 92 550 551
f 91 83 605
f 83 598 605
f 579 30 31
f 31 520 579
f 515 25 577
f 577 25 26
f 517 612 613
f 503 502 517
f 499 568 517
f 517 563 612
f 509 508 517
f 590 533 517
f 496 563 517
f 517 600 552
f 518 578 517
f 517 543 542
f 594 535 517
f 517 539 538
f 517 501 503
f 569 570 517
f 517 566 499
f 602 553 517
f 552 604 517
f 517 603 602
f 588 587 517
f 517 508 501
f 536 597 517
f 574 511 517
f 517 565 498
f 498 566 517
f 517 502 569
f 517 504 565
f 534 547 517
f 613 564 517
f 517 557 523
f 517 537 536
f 538 545 517
f 517 541 540
f 517 529 528
f 558 560 517
f 548 551 517
f 500 495 517
f 517 497 496
f 517 570 505
f 505 504 517
f 517 567 500
f 517 549 548
f 513 512 517
f 555 601 517
f 523 584 517
f 517 582 594
f 544 537 517
f 517 545 544
f 542 539 517
f 564 583 517
f 595 558 517
f 517 559 561
f 517 596 595
f 517 589 590
f 528 531 517
f 561 562 517
f 519 518 517
f 517 575 574
f 517 510 575
f 495 497 517
f 568 567 517
f 553 600 517
f 554 549 517
f 517 604 554
f 517 547 546
f 517 556 555
f 517 585 588
f 524 526 517
f 517 525 524
f 517 583 582
f 540 543 517
f 517 607 557
f 580 579 517
f 597 596 517
f 527 529 517
f 517 587 527
f 530 589 517
f 517 531 530
f 517 532 591
f 517 562 581
f 581 522 517
f 517 521 519
f 517 514 515
f 517 511 513
f 572 573 517
f 546 556 517
f 517 601 603
f 586 585 517
f 517 526 586
f 584 525 517
f 535 607 517
f 598 541 517
f 517 507 509
f 517 560 559
f 517 533 532
f 591 593 517
f 522 521 517
f 517 578 580
f 517 592 534
f 517 605 598
f 517 512 506
f 506 571 517
f 517 550 599
f 599 606 517
f 593 592 517
f 517 520 514
f 517 573 510
f 515 577 517
f 571 507 517
f 517 551 550
f 606 605 517
f 517 579 520
f 517 577 576
f 517 27 19
f 19 516 517
f 26 27 517
f 517 576 26
f 446 444 200
f 200 444 201
f 390 200 199
f 493 200 390
f 406 180 405
f 406 181 180
f 214 213 431
f 431 432 214
f 442 204 443
f 204 203 443
f 202 444 445
f 201 444 202
f 445 443 202
f 202 443 203
f 392 197 391
f 392 198 197
f 392 390 199
f 199 198 392
f 441 204 442
f 441 205 204
f 441 439 206
f 206 205 441
f 439 440 207
f 206 439 207
f 207 440 438
f 438 208 207
f 194 396 394
f 193 396 194
f 404 403 183
f 183 182 404
f 181 406 404
f 404 182 181
f 429 430 215
f 430 107 215
f 215 432 429
f 214 432 215
f 434 433 108
f 212 434 108
f 433 431 108
f 108 431 213
f 405 180 407
f 180 179 407
f 163 162 424
f 424 422 163
f 220 560 558
f 220 219 560
f 436 434 212
f 212 211 436
f 210 435 436
f 436 211 210
f 437 208 438
f 437 209 208
f 437 435 210
f 210 209 437
f 195 393 196
f 195 395 393
f 394 395 195
f 195 194 394
f 397 396 192
f 192 396 193
f 398 397 192
f 192 189 398
f 187 402 400
f 187 400 188
f 494 402 187
f 187 186 494
f 408 178 177
f 177 409 408
f 408 407 179
f 179 178 408
f 176 411 409
f 176 409 177
f 410 411 176
f 176 175 410
f 422 423 164
f 163 422 164
f 425 160 427
f 425 161 160
f 425 424 162
f 162 161 425
f 398 189 399
f 189 190 399
f 400 401 191
f 188 400 191
f 401 399 191
f 191 399 190
f 410 175 412
f 175 174 412
f 412 174 173
f 173 414 412
f 170 416 415
f 415 171 170
f 413 414 172
f 172 414 173
f 172 415 413
f 171 415 172
f 165 423 421
f 165 164 423
f 417 168 167
f 167 420 417
f 419 165 421
f 166 165 419
f 419 420 167
f 419 167 166
f 418 611 614
f 418 331 330
f 448 447 418
f 455 454 418
f 418 450 448
f 418 353 450
f 614 329 418
f 382 491 418
f 418 449 611
f 334 333 418
f 418 392 391
f 375 480 418
f 418 377 376
f 464 469 418
f 418 478 372
f 418 487 382
f 447 449 418
f 418 476 368
f 329 452 418
f 470 357 418
f 389 371 418
f 418 456 455
f 418 352 351
f 351 374 418
f 418 330 451
f 338 337 418
f 342 341 418
f 418 340 339
f 355 354 418
f 344 343 418
f 460 459 418
f 376 387 418
f 418 395 394
f 372 380 418
f 477 370 418
f 418 367 366
f 418 335 334
f 451 453 418
f 333 456 418
f 354 353 418
f 359 358 418
f 346 468 418
f 428 430 418
f 418 483 490
f 418 387 386
f 378 377 418
f 490 385 418
f 381 485 418
f 418 480 378
f 418 370 369
f 368 475 418
f 418 479 375
f 366 365 418
f 339 463 418
f 332 331 418
f 418 452 332
f 336 335 418
f 418 337 336
f 418 453 338
f 418 341 340
f 418 454 342
f 418 358 470
f 489 488 418
f 418 492 389
f 418 371 355
f 418 468 428
f 472 363 418
f 463 462 418
f 418 482 381
f 418 486 489
f 418 380 379
f 369 476 418
f 474 367 418
f 418 473 472
f 418 465 464
f 418 467 345
f 418 461 460
f 418 481 477
f 418 357 356
f 418 360 359
f 418 363 471
f 418 430 429
f 471 362 418
f 426 352 418
f 386 482 418
f 484 483 418
f 418 485 484
f 384 486 418
f 418 385 384
f 373 478 418
f 379 479 418
f 418 475 474
f 364 473 418
f 418 469 350
f 418 347 346
f 350 349 418
f 457 467 418
f 418 458 457
f 383 487 418
f 418 488 383
f 388 481 418
f 418 491 388
f 356 492 418
f 361 360 418
f 418 362 361
f 429 432 418
f 418 444 446
f 418 427 426
f 418 374 373
f 418 365 364
f 348 347 418
f 418 349 348
f 418 406 405
f 345 466 418
f 418 459 458
f 421 423 418
f 418 397 398
f 418 433 434
f 418 343 465
f 418 466 344
f 418 462 461
f 438 440 418
f 391 393 418
f 494 403 418
f 418 431 433
f 418 411 410
f 446 493 418
f 442 443 418
f 398 399 418
f 418 441 442
f 418 402 494
f 405 407 418
f 418 425 427
f 445 444 418
f 493 390 418
f 418 440 439
f 434 436 418
f 393 395 418
f 394 396 418
f 400 402 418
f 418 401 400
f 432 431 418
f 403 404 418
f 418 443 445
f 390 392 418
f 439 441 418
f 418 396 397
f 418 404 406
f 418 437 438
f 418 408 409
f 422 424 418
f 418 436 435
f 435 437 418
f 407 408 418
f 418 399 401
f 418 412 414
f 418 416 170
f 170 169 418
f 168 417 418
f 418 169 168

