# https://github.com/mikedh/trimesh
v -0.01161529 -0.00780522 0.06572033
v -0.01160855 -0.00776139 0.06572033
v -0.01160383 -0.00771816 0.06572033
v -0.01160214 -0.00769605 0.06572033
v -0.01160000 -0.00763043 0.06572033
v -0.01169424 -0.00805562 0.06572033
v -0.01167612 -0.00801438 0.06572033
v -0.01166068 -0.00797460 0.06572033
v -0.01163429 -0.00789092 0.06572033
v -0.01163407 -0.00789011 0.06572033
v -0.01183502 -0.00827663 0.06572033
v -0.01180664 -0.00824122 0.06572033
v -0.01178175 -0.00820721 0.06572033
v -0.01173470 -0.00813335 0.06572033
v -0.01173397 -0.00813209 0.06572033
v -0.01202772 -0.00845322 0.06572033
v -0.01199124 -0.00842643 0.06572033
v -0.01195848 -0.00840009 0.06572033
v -0.01189408 -0.00834108 0.06572033
v -0.01189289 -0.00833989 0.06572033
v -0.01225900 -0.00857363 0.06572033
v -0.01221731 -0.00855739 0.06572033
v -0.01217855 -0.00854031 0.06572033
v -0.01210126 -0.00850007 0.06572033
v -0.01210000 -0.00849934 0.06572033
v -0.01253460 -0.00863162 0.06572033
v -0.01251314 -0.00862997 0.06572033
v -0.01246947 -0.00862518 0.06572033
v -0.01242693 -0.00861862 0.06572033
v -0.01234200 -0.00859980 0.06572033
v -0.01234118 -0.00859958 0.06572033
v -0.02494033 -0.00521140 0.07229446
v -0.02836065 -0.00596397 0.06289723
v -0.02905488 -0.00615834 0.06098984
v -0.02652124 0.00064952 0.06795096
v -0.01409189 -0.00913837 0.06019273
v -0.01408783 -0.00913757 0.06019273
v -0.01414786 -0.00914874 0.06019273
v -0.01414569 -0.00914839 0.06019273
v -0.01380806 -0.00903030 0.06019273
v -0.01385901 -0.00905748 0.06019273
v -0.01390911 -0.00908046 0.06019273
v -0.01397001 -0.00910418 0.06019273
v -0.01365155 -0.00892067 0.06019273
v -0.01369911 -0.00895891 0.06019273
v -0.01374971 -0.00899470 0.06019273
v -0.01352240 -0.00878756 0.06019273
v -0.01356499 -0.00883695 0.06019273
v -0.01356144 -0.00883323 0.06019273
v -0.01360359 -0.00887686 0.06019273
v -0.01360474 -0.00887799 0.06019273
v -0.01341747 -0.00862843 0.06019273
v -0.01345237 -0.00868868 0.06019273
v -0.01344715 -0.00868047 0.06019273
v -0.01348321 -0.00873557 0.06019273
v -0.01348305 -0.00873534 0.06019273
v -0.01331509 -0.00832998 0.06019273
v -0.01332873 -0.00839504 0.06019273
v -0.01332801 -0.00839218 0.06019273
v -0.01334664 -0.00845886 0.06019273
v -0.01334361 -0.00844926 0.06019273
v -0.01336540 -0.00851339 0.06019273
v -0.01330016 -0.00816240 0.06019273
v -0.01330000 -0.00815623 0.06019273
v -0.01330607 -0.00826669 0.06019273
v -0.01330581 -0.00826402 0.06019273
v -0.01424562 -0.00915946 0.06019273
v -0.02934500 -0.00625619 0.06019273
v -0.02926944 -0.00690659 0.06019273
v -0.02923334 -0.00704375 0.06019273
v -0.02907997 -0.00745048 0.06019273
v -0.02867438 -0.00808021 0.06019273
v -0.02669683 -0.00912792 0.06019273
v -0.02655308 -0.00914397 0.06019273
v -0.02727693 -0.00899621 0.06019273
v -0.02713215 -0.00903961 0.06019273
v -0.02857209 -0.00819412 0.06019273
v -0.02742063 -0.00894566 0.06019273
v -0.02770268 -0.00882475 0.06019273
v -0.02810337 -0.00859393 0.06019273
v -0.02797362 -0.00867811 0.06019273
v -0.02846342 -0.00830285 0.06019273
v -0.02931994 -0.00663291 0.06019273
v -0.02627182 -0.00916932 0.06019273
v -0.01468328 -0.00916718 0.06019273
v -0.02934500 -0.00616526 0.06019273
v -0.01420883 -0.00915625 0.06019273
v -0.01402987 -0.00912309 0.06019273
v -0.01380220 -0.00902716 0.06019273
v -0.01375518 -0.00899809 0.06019273
v -0.01385671 -0.00905637 0.06019273
v -0.01396886 -0.00910377 0.06019273
v -0.01391753 -0.00908395 0.06019273
v -0.01374737 -0.00899311 0.06019273
v -0.01370216 -0.00896113 0.06019273
v -0.01339018 -0.00857292 0.06019273
v -0.01341940 -0.00863191 0.06019273
v -0.01336487 -0.00851195 0.06019273
v -0.01430000 -0.00916191 0.06019273
v -0.02933523 -0.00648666 0.06019273
v -0.02933477 -0.00649730 0.06019273
v -0.02918978 -0.00718046 0.06019273
v -0.02913868 -0.00731622 0.06019273
v -0.02901365 -0.00758270 0.06019273
v -0.02893979 -0.00771232 0.06019273
v -0.02885849 -0.00783881 0.06019273
v -0.02876994 -0.00796161 0.06019273
v -0.02684158 -0.00910531 0.06019273
v -0.02698686 -0.00907593 0.06019273
v -0.02756205 -0.00888876 0.06019273
v -0.02770052 -0.00882574 0.06019273
v -0.02756275 -0.00888848 0.06019273
v -0.02822859 -0.00850312 0.06019273
v -0.02783989 -0.00875542 0.06019273
v -0.02834877 -0.00840598 0.06019273
v -0.02929824 -0.00676948 0.06019273
v -0.02934500 -0.00221647 0.06019273
v -0.01161911 -0.00714048 0.07525349
v -0.01160855 -0.00707633 0.07525349
v -0.01160219 -0.00701163 0.07525349
v -0.01160214 -0.00701104 0.07525349
v -0.01170287 -0.00738836 0.07525349
v -0.01167568 -0.00732800 0.07525349
v -0.01167612 -0.00732914 0.07525349
v -0.01165329 -0.00726835 0.07525349
v -0.01163407 -0.00720495 0.07525349
v -0.01173397 -0.00744676 0.07525349
v -0.01173400 -0.00744680 0.07525349
v -0.01204390 -0.00777873 0.07525349
v -0.01199124 -0.00774087 0.07525349
v -0.01193920 -0.00769789 0.07525349
v -0.01194121 -0.00769973 0.07525349
v -0.01189289 -0.00765440 0.07525349
v -0.01189293 -0.00765444 0.07525349
v -0.01227792 -0.00789463 0.07525349
v -0.01221606 -0.00787119 0.07525349
v -0.01221732 -0.00787174 0.07525349
v -0.01215838 -0.00784499 0.07525349
v -0.01210004 -0.00781376 0.07525349
v -0.01210000 -0.00781374 0.07525349
v -0.01246808 -0.00793927 0.07525349
v -0.01246947 -0.00793948 0.07525349
v -0.01240563 -0.00792893 0.07525349
v -0.01234118 -0.00791390 0.07525349
v -0.01247356 -0.00793970 0.07525349
v -0.02074576 -0.00794412 0.07525349
v -0.02386148 -0.00505255 0.07525349
v -0.02378643 -0.00566323 0.07525349
v -0.02381546 -0.00552646 0.07525349
v -0.02374966 -0.00580162 0.07525349
v -0.02378606 -0.00566464 0.07525349
v -0.02359336 -0.00621296 0.07525349
v -0.02359240 -0.00621486 0.07525349
v -0.02345046 -0.00647848 0.07525349
v -0.02336760 -0.00660694 0.07525349
v -0.02327735 -0.00673179 0.07525349
v -0.02336572 -0.00660955 0.07525349
v -0.02317998 -0.00685247 0.07525349
v -0.02327504 -0.00673466 0.07525349
v -0.02307579 -0.00696848 0.07525349
v -0.02317717 -0.00685561 0.07525349
v -0.02383785 -0.00538762 0.07525349
v -0.02101414 -0.00793333 0.07525349
v -0.02161468 -0.00783024 0.07525349
v -0.02174921 -0.00779072 0.07525349
v -0.02117511 -0.00791693 0.07525349
v -0.02296515 -0.00707933 0.07525349
v -0.02307241 -0.00697188 0.07525349
v -0.02204057 -0.00768326 0.07525349
v -0.02219240 -0.00761428 0.07525349
v -0.02205059 -0.00767922 0.07525349
v -0.02218333 -0.00761846 0.07525349
v -0.02259898 -0.00737665 0.07525349
v -0.02272074 -0.00728783 0.07525349
v -0.02245997 -0.00746707 0.07525349
v -0.02176114 -0.00778718 0.07525349
v -0.02381576 -0.00552507 0.07525349
v -0.01546468 -0.00794679 0.07525349
v -0.01920931 -0.00794680 0.07525349
v -0.01950374 -0.00794670 0.07525349
v -0.01160000 -0.00694490 0.07525349
v -0.01160843 -0.00707516 0.07525349
v -0.01163408 -0.00720498 0.07525349
v -0.01165254 -0.00726598 0.07525349
v -0.01184776 -0.00760605 0.07525349
v -0.01180665 -0.00755580 0.07525349
v -0.01176893 -0.00750305 0.07525349
v -0.01180589 -0.00755477 0.07525349
v -0.01176752 -0.00750084 0.07525349
v -0.01199021 -0.00774005 0.07525349
v -0.01215589 -0.00784369 0.07525349
v -0.01234121 -0.00791390 0.07525349
v -0.01240285 -0.00792831 0.07525349
v -0.02087021 -0.00794163 0.07525349
v -0.02088694 -0.00794125 0.07525349
v -0.02385305 -0.00524848 0.07525349
v -0.02374918 -0.00580310 0.07525349
v -0.02370469 -0.00594131 0.07525349
v -0.02370528 -0.00593973 0.07525349
v -0.02365245 -0.00607874 0.07525349
v -0.02365320 -0.00607702 0.07525349
v -0.02352455 -0.00634908 0.07525349
v -0.02352576 -0.00634697 0.07525349
v -0.02344895 -0.00648083 0.07525349
v -0.02385277 -0.00525278 0.07525349
v -0.02385293 -0.00525133 0.07525349
v -0.02115974 -0.00791860 0.07525349
v -0.02103023 -0.00793228 0.07525349
v -0.02145409 -0.00786884 0.07525349
v -0.02146783 -0.00786611 0.07525349
v -0.02160183 -0.00783341 0.07525349
v -0.02130656 -0.00789718 0.07525349
v -0.02132113 -0.00789495 0.07525349
v -0.02232334 -0.00754635 0.07525349
v -0.02233147 -0.00754211 0.07525349
v -0.02259264 -0.00738082 0.07525349
v -0.02284374 -0.00718843 0.07525349
v -0.02284848 -0.00718457 0.07525349
v -0.02272625 -0.00728379 0.07525349
v -0.02246719 -0.00746284 0.07525349
v -0.02189566 -0.00774068 0.07525349
v -0.02190664 -0.00773686 0.07525349
v -0.02296112 -0.00708297 0.07525349
v -0.02383762 -0.00538903 0.07525349
v -0.01922984 -0.00794680 0.07525349
v -0.01925116 -0.00794679 0.07525349
v -0.01927063 -0.00794679 0.07525349
v -0.01929497 -0.00794679 0.07525349
v -0.01931311 -0.00794678 0.07525349
v -0.01934032 -0.00794678 0.07525349
v -0.01935675 -0.00794677 0.07525349
v -0.01938675 -0.00794676 0.07525349
v -0.01940115 -0.00794675 0.07525349
v -0.01941368 -0.00794675 0.07525349
v -0.01943382 -0.00794674 0.07525349
v -0.01945867 -0.00794672 0.07525349
v -0.01948107 -0.00794671 0.07525349
v -0.02030712 -0.00794605 0.07525349
v -0.02031459 -0.00794604 0.07525349
v -0.02032623 -0.00794603 0.07525349
v -0.02033264 -0.00794603 0.07525349
v -0.02034476 -0.00794601 0.07525349
v -0.02035016 -0.00794601 0.07525349
v -0.02036253 -0.00794599 0.07525349
v -0.02036692 -0.00794599 0.07525349
v -0.02037938 -0.00794597 0.07525349
v -0.02038084 -0.00794597 0.07525349
v -0.02039521 -0.00794595 0.07525349
v -0.02039587 -0.00794595 0.07525349
v -0.02040988 -0.00794592 0.07525349
v -0.02042279 -0.00794590 0.07525349
v -0.02042337 -0.00794590 0.07525349
v -0.02043452 -0.00794587 0.07525349
v -0.02043555 -0.00794587 0.07525349
v -0.02044505 -0.00794585 0.07525349
v -0.02044641 -0.00794584 0.07525349
v -0.02045433 -0.00794582 0.07525349
v -0.02045590 -0.00794581 0.07525349
v -0.02046236 -0.00794579 0.07525349
v -0.02046402 -0.00794578 0.07525349
v -0.02046913 -0.00794576 0.07525349
v -0.01460123 -0.00794602 0.07525349
v -0.01506701 -0.00794660 0.07525349
v -0.01507292 -0.00794661 0.07525349
v -0.01511005 -0.00794664 0.07525349
v -0.01511195 -0.00794664 0.07525349
v -0.01515415 -0.00794668 0.07525349
v -0.01519952 -0.00794671 0.07525349
v -0.01524059 -0.00794673 0.07525349
v -0.01524513 -0.00794673 0.07525349
v -0.01528403 -0.00794675 0.07525349
v -0.01529075 -0.00794675 0.07525349
v -0.01532718 -0.00794677 0.07525349
v -0.01533596 -0.00794677 0.07525349
v -0.01536969 -0.00794678 0.07525349
v -0.01538030 -0.00794678 0.07525349
v -0.01540616 -0.00794678 0.07525349
v -0.01542335 -0.00794679 0.07525349
v -0.01544622 -0.00794679 0.07525349
v -0.02386334 -0.00198152 0.07525349
v -0.02386334 0.00158196 0.07525349
v -0.02386333 0.00178136 0.07525349
v -0.02386333 -0.00500930 0.07525349
v -0.01160000 0.00178179 0.06572033
v -0.02709210 0.00178179 0.06638252
v -0.02612861 0.00178179 0.06902969
v -0.02934500 0.00178179 0.06019273
v -0.01330000 0.00178179 0.06019273
v -0.01160000 0.00178179 0.07525349
v -0.02392258 0.00178179 0.07509071
v -0.02386347 0.00178179 0.07525312
v -0.02386333 0.00178179 0.07525349
f 84 85 276
f 33 68 32
f 32 280 33
f 283 280 32
f 32 68 283
f 178 179 84
f 85 99 145
f 145 262 85
f 5 63 64
f 117 33 287
f 142 145 67
f 67 145 99
f 63 5 4
f 66 63 4
f 3 66 4
f 18 51 19
f 68 33 34
f 33 117 34
f 167 77 82
f 290 286 280
f 35 286 285
f 280 286 35
f 35 285 287
f 35 33 280
f 287 33 35
f 116 162 83
f 148 69 70
f 100 283 68
f 206 101 83
f 84 276 277
f 277 278 84
f 279 178 84
f 84 278 279
f 85 262 263
f 263 264 85
f 51 18 44
f 57 2 1
f 9 58 10
f 6 96 7
f 68 34 86
f 86 34 117
f 157 107 156
f 157 155 107
f 203 104 105
f 80 173 113
f 82 115 218
f 195 163 84
f 108 73 213
f 176 75 76
f 281 290 280
f 151 70 150
f 151 148 70
f 177 116 69
f 196 100 101
f 101 206 196
f 83 162 205
f 205 206 83
f 267 268 85
f 142 67 26
f 26 27 142
f 67 27 26
f 142 27 28
f 28 38 29
f 118 10 1
f 29 38 39
f 29 37 30
f 144 31 135
f 45 44 18
f 22 42 23
f 25 46 16
f 25 16 129
f 24 89 25
f 59 57 1
f 1 10 59
f 59 10 58
f 2 57 65
f 65 66 3
f 3 2 65
f 62 7 96
f 8 7 62
f 62 98 8
f 61 58 9
f 12 47 55
f 55 13 12
f 52 96 6
f 107 155 106
f 106 154 105
f 79 170 114
f 77 167 168
f 168 160 77
f 161 72 77
f 77 160 161
f 223 167 82
f 82 218 223
f 115 113 219
f 261 146 84
f 84 146 194
f 194 195 84
f 73 74 166
f 69 148 149
f 149 177 69
f 162 116 224
f 116 177 224
f 283 100 147
f 100 196 147
f 85 264 265
f 38 28 87
f 87 28 27
f 87 27 67
f 29 143 141
f 129 16 130
f 1 2 119
f 119 118 1
f 10 118 126
f 36 37 29
f 29 39 36
f 88 30 37
f 31 30 88
f 93 42 22
f 16 45 17
f 17 45 18
f 17 130 16
f 16 46 94
f 24 23 91
f 46 25 90
f 90 25 89
f 140 25 129
f 9 8 60
f 60 61 9
f 8 98 60
f 19 51 50
f 11 49 47
f 47 12 11
f 15 52 6
f 15 122 127
f 6 122 15
f 56 13 55
f 56 53 13
f 153 104 203
f 153 152 104
f 201 103 71
f 104 152 71
f 203 105 202
f 105 154 202
f 204 106 155
f 154 106 204
f 110 171 112
f 110 78 169
f 169 171 110
f 72 161 158
f 217 218 115
f 115 219 217
f 174 113 173
f 174 219 113
f 84 180 238
f 208 74 84
f 84 163 208
f 212 213 73
f 73 166 212
f 211 164 109
f 109 164 76
f 291 282 292
f 275 276 85
f 85 274 275
f 85 272 273
f 273 274 85
f 85 268 269
f 269 270 85
f 271 272 85
f 85 270 271
f 266 267 85
f 85 265 266
f 134 131 19
f 18 132 190
f 192 193 30
f 21 93 22
f 21 135 31
f 21 88 43
f 31 88 21
f 137 135 21
f 22 137 21
f 95 45 16
f 16 94 95
f 41 23 42
f 41 91 23
f 40 89 24
f 24 91 40
f 23 138 136
f 191 24 139
f 97 15 54
f 52 15 97
f 54 15 14
f 14 53 54
f 13 53 14
f 198 103 201
f 198 199 103
f 103 199 102
f 150 70 102
f 201 71 200
f 200 71 152
f 111 112 171
f 171 172 111
f 111 172 170
f 111 170 79
f 222 169 78
f 222 78 75
f 81 215 175
f 114 215 81
f 216 173 80
f 72 158 159
f 107 72 159
f 156 107 159
f 207 166 74
f 74 208 207
f 176 76 165
f 76 164 165
f 211 109 210
f 210 109 108
f 3 120 182
f 183 184 9
f 6 7 124
f 124 122 6
f 92 21 43
f 93 21 92
f 20 48 49
f 49 11 20
f 50 48 20
f 19 50 20
f 11 185 20
f 20 185 133
f 186 11 12
f 186 185 11
f 189 14 128
f 150 102 197
f 197 102 199
f 221 75 176
f 221 222 75
f 214 114 170
f 214 215 114
f 80 81 220
f 220 81 175
f 220 216 80
f 84 179 225
f 84 227 228
f 237 180 84
f 84 250 251
f 251 252 84
f 254 255 84
f 84 258 259
f 257 258 84
f 108 213 209
f 209 210 108
f 5 181 121
f 121 4 5
f 188 13 187
f 226 227 84
f 84 225 226
f 229 230 84
f 84 228 229
f 84 235 236
f 236 237 84
f 232 233 84
f 234 235 84
f 84 233 234
f 249 250 84
f 84 248 249
f 240 241 84
f 84 241 242
f 84 252 253
f 253 254 84
f 260 261 84
f 84 259 260
f 84 255 256
f 256 257 84
f 8 125 123
f 84 230 231
f 231 232 84
f 84 244 245
f 245 246 84
f 247 248 84
f 84 246 247
f 84 238 239
f 239 240 84
f 243 244 84
f 84 242 243
f 288 284 5
f 5 64 288
f 142 28 141
f 141 28 29
f 131 18 19
f 131 132 18
f 193 143 29
f 29 30 193
f 139 24 140
f 24 25 140
f 291 288 287
f 291 284 288
f 291 292 289
f 289 284 291
f 287 285 291
f 285 286 291
f 286 290 291
f 281 282 291
f 290 281 291
f 190 17 18
f 130 17 190
f 192 31 144
f 192 30 31
f 136 137 22
f 22 23 136
f 191 23 24
f 191 138 23
f 127 128 14
f 14 15 127
f 182 2 3
f 182 119 2
f 181 284 289
f 181 5 284
f 9 10 183
f 10 126 183
f 75 78 92
f 287 288 92
f 92 85 84
f 288 64 92
f 92 117 287
f 84 74 92
f 92 116 83
f 92 63 66
f 92 99 85
f 68 86 92
f 92 87 67
f 107 106 92
f 70 69 92
f 64 63 92
f 92 100 68
f 51 44 92
f 92 60 98
f 80 113 92
f 66 65 92
f 92 50 51
f 83 101 92
f 92 67 99
f 38 87 92
f 42 93 92
f 92 59 58
f 58 61 92
f 82 77 92
f 92 72 107
f 92 97 54
f 92 115 82
f 92 111 79
f 69 116 92
f 101 100 92
f 92 76 75
f 92 88 37
f 92 94 46
f 92 62 96
f 55 47 92
f 96 52 92
f 92 86 117
f 77 72 92
f 92 105 104
f 104 71 92
f 92 113 115
f 92 73 108
f 92 102 70
f 92 39 38
f 37 36 92
f 44 45 92
f 45 95 92
f 57 59 92
f 92 65 57
f 98 62 92
f 46 90 92
f 47 49 92
f 49 48 92
f 54 53 92
f 92 56 55
f 92 106 105
f 92 78 110
f 79 114 92
f 92 74 73
f 92 36 39
f 43 88 92
f 92 81 80
f 108 109 92
f 92 41 42
f 92 90 89
f 61 60 92
f 89 40 92
f 53 56 92
f 92 71 103
f 110 112 92
f 92 109 76
f 92 95 94
f 91 41 92
f 92 40 91
f 92 48 50
f 52 97 92
f 103 102 92
f 112 111 92
f 114 81 92
f 133 134 20
f 20 134 19
f 187 13 189
f 13 14 189
f 3 4 121
f 121 120 3
f 125 8 9
f 9 184 125
f 188 12 13
f 188 186 12
f 123 7 8
f 123 124 7
f 289 292 243
f 187 189 243
f 178 279 243
f 267 266 243
f 243 181 289
f 243 236 235
f 179 178 243
f 243 145 142
f 243 157 156
f 280 283 243
f 167 223 243
f 243 149 148
f 262 145 243
f 243 192 144
f 243 265 264
f 243 153 203
f 163 195 243
f 213 212 243
f 243 277 276
f 243 205 162
f 243 263 262
f 243 273 272
f 243 140 129
f 243 168 167
f 218 217 243
f 243 151 150
f 162 224 243
f 278 277 243
f 243 279 278
f 283 147 243
f 264 263 243
f 243 183 126
f 122 124 243
f 243 191 139
f 129 130 243
f 155 157 243
f 243 135 137
f 201 200 243
f 170 172 243
f 243 221 176
f 243 174 173
f 146 261 243
f 243 194 146
f 243 281 280
f 148 151 243
f 292 282 243
f 243 196 206
f 206 205 243
f 166 207 243
f 268 267 243
f 243 125 184
f 142 141 243
f 243 190 132
f 119 182 243
f 144 135 243
f 243 198 201
f 203 202 243
f 243 204 155
f 160 168 243
f 243 161 160
f 243 223 218
f 173 216 243
f 156 159 243
f 227 226 243
f 195 194 243
f 243 208 163
f 176 165 243
f 243 282 281
f 177 149 243
f 243 224 177
f 243 147 196
f 276 275 243
f 243 269 268
f 272 271 243
f 243 141 143
f 132 131 243
f 243 134 133
f 118 119 243
f 243 126 118
f 127 122 243
f 243 128 127
f 143 193 243
f 137 136 243
f 139 140 243
f 152 153 243
f 120 121 243
f 243 202 154
f 154 204 243
f 243 172 171
f 171 169 243
f 150 197 243
f 243 158 161
f 243 217 219
f 219 174 243
f 243 220 175
f 243 238 180
f 243 231 230
f 255 254 243
f 243 212 166
f 243 164 211
f 243 275 274
f 274 273 243
f 270 269 243
f 243 271 270
f 243 266 265
f 131 134 243
f 130 190 243
f 261 260 243
f 243 209 213
f 193 192 243
f 243 136 138
f 138 191 243
f 133 185 243
f 199 198 243
f 243 200 152
f 169 222 243
f 175 215 243
f 243 214 170
f 243 159 158
f 243 225 179
f 180 237 243
f 235 234 243
f 243 251 250
f 243 253 252
f 243 207 208
f 243 165 164
f 211 210 243
f 243 182 120
f 184 183 243
f 185 186 243
f 243 189 128
f 243 197 199
f 222 221 243
f 215 214 243
f 216 220 243
f 243 188 187
f 243 228 227
f 230 229 243
f 124 123 243
f 250 249 243
f 248 247 243
f 243 259 258
f 258 257 243
f 210 209 243
f 243 121 181
f 243 256 255
f 186 188 243
f 243 226 225
f 243 229 228
f 237 236 243
f 233 232 243
f 243 234 233
f 243 260 259
f 257 256 243
f 243 123 125
f 232 231 243

