# https://github.com/mikedh/trimesh
v -0.01163429 0.00789091 0.06572033
v -0.01160000 0.00763043 0.06572033
v -0.01160214 0.00769605 0.06572033
v -0.01253460 0.00863162 0.06572033
v -0.01251313 0.00862997 0.06572033
v -0.01242691 0.00861862 0.06572033
v -0.01240491 0.00861449 0.06572033
v -0.01234199 0.00859979 0.06572033
v -0.01227856 0.00858052 0.06572033
v -0.01225899 0.00857363 0.06572033
v -0.01217854 0.00854030 0.06572033
v -0.01215771 0.00853029 0.06572033
v -0.01210125 0.00850007 0.06572033
v -0.01204443 0.00846467 0.06572033
v -0.01202771 0.00845321 0.06572033
v -0.01195847 0.00840009 0.06572033
v -0.01194065 0.00838477 0.06572033
v -0.01189407 0.00834107 0.06572033
v -0.01184816 0.00829197 0.06572033
v -0.01183501 0.00827662 0.06572033
v -0.01178175 0.00820720 0.06572033
v -0.01176853 0.00818785 0.06572033
v -0.01173470 0.00813334 0.06572033
v -0.01170313 0.00807419 0.06572033
v -0.01169423 0.00805561 0.06572033
v -0.01166067 0.00797459 0.06572033
v -0.01165307 0.00795294 0.06572033
v -0.01160383 0.00771815 0.06572033
v -0.01160855 0.00776139 0.06572033
v -0.01161529 0.00780521 0.06572033
v -0.01161921 0.00782617 0.06572033
v -0.02389585 0.00501534 0.07516415
v -0.02891214 0.00611668 0.06138202
v -0.02836031 0.00596388 0.06289814
v -0.01330000 0.00814561 0.06019273
v -0.01330328 0.00823738 0.06019273
v -0.01330992 0.00829729 0.06019273
v -0.01331055 0.00830125 0.06019273
v -0.01335315 0.00847912 0.06019273
v -0.01335013 0.00846954 0.06019273
v -0.01335218 0.00847634 0.06019273
v -0.01342767 0.00864714 0.06019273
v -0.01342679 0.00864558 0.06019273
v -0.01353210 0.00879946 0.06019273
v -0.01353174 0.00879903 0.06019273
v -0.01361454 0.00888731 0.06019273
v -0.01361701 0.00888971 0.06019273
v -0.01371328 0.00896941 0.06019273
v -0.01371482 0.00897051 0.06019273
v -0.01387550 0.00906546 0.06019273
v -0.01381723 0.00903563 0.06019273
v -0.01381912 0.00903669 0.06019273
v -0.01393570 0.00909138 0.06019273
v -0.01393298 0.00909035 0.06019273
v -0.01392728 0.00908790 0.06019273
v -0.01405201 0.00912906 0.06019273
v -0.01411630 0.00914334 0.06019273
v -0.01411507 0.00914311 0.06019273
v -0.01423831 0.00915849 0.06019273
v -0.02934500 0.00625503 0.06019273
v -0.02822865 0.00850308 0.06019273
v -0.02822538 0.00850552 0.06019273
v -0.02797368 0.00867807 0.06019273
v -0.02783996 0.00875538 0.06019273
v -0.02641089 0.00915369 0.06019273
v -0.02641726 0.00915332 0.06019273
v -0.02655319 0.00914396 0.06019273
v -0.02669694 0.00912791 0.06019273
v -0.02670165 0.00912722 0.06019273
v -0.02684553 0.00910456 0.06019273
v -0.02698696 0.00907591 0.06019273
v -0.02698993 0.00907520 0.06019273
v -0.02713224 0.00903958 0.06019273
v -0.02727827 0.00899576 0.06019273
v -0.02742072 0.00894563 0.06019273
v -0.02742115 0.00894546 0.06019273
v -0.02770275 0.00882471 0.06019273
v -0.02931994 0.00663290 0.06019273
v -0.02926944 0.00690658 0.06019273
v -0.02918979 0.00718044 0.06019273
v -0.02923116 0.00705065 0.06019273
v -0.02923334 0.00704373 0.06019273
v -0.02929824 0.00676948 0.06019273
v -0.02931889 0.00663958 0.06019273
v -0.02901367 0.00758267 0.06019273
v -0.02907675 0.00745700 0.06019273
v -0.02876997 0.00796158 0.06019273
v -0.02857212 0.00819408 0.06019273
v -0.02876594 0.00796668 0.06019273
v -0.02885851 0.00783877 0.06019273
v -0.02913869 0.00731620 0.06019273
v -0.02918724 0.00718731 0.06019273
v -0.01430000 0.00916350 0.06019273
v -0.01330921 0.00829104 0.06019273
v -0.01330002 0.00815854 0.06019273
v -0.01330285 0.00822929 0.06019273
v -0.01333442 0.00841738 0.06019273
v -0.01332034 0.00835768 0.06019273
v -0.01339795 0.00858963 0.06019273
v -0.01337353 0.00853414 0.06019273
v -0.01349225 0.00874818 0.06019273
v -0.01345853 0.00869878 0.06019273
v -0.01366328 0.00893055 0.06019273
v -0.01357525 0.00884805 0.06019273
v -0.01386926 0.00906229 0.06019273
v -0.01376893 0.00900701 0.06019273
v -0.01399239 0.00911174 0.06019273
v -0.01418151 0.00915330 0.06019273
v -0.02845962 0.00830635 0.06019273
v -0.02846346 0.00830281 0.06019273
v -0.02834522 0.00840893 0.06019273
v -0.02834882 0.00840594 0.06019273
v -0.02810059 0.00859579 0.06019273
v -0.02810343 0.00859389 0.06019273
v -0.02797135 0.00867946 0.06019273
v -0.02655875 0.00914339 0.06019273
v -0.02684168 0.00910530 0.06019273
v -0.02713435 0.00903897 0.06019273
v -0.02727702 0.00899619 0.06019273
v -0.02756283 0.00888844 0.06019273
v -0.02933407 0.00650377 0.06019273
v -0.02933477 0.00649730 0.06019273
v -0.02929683 0.00677630 0.06019273
v -0.02926765 0.00691348 0.06019273
v -0.02913578 0.00732294 0.06019273
v -0.02901015 0.00758894 0.06019273
v -0.02907998 0.00745045 0.06019273
v -0.02885459 0.00784432 0.06019273
v -0.02867035 0.00808479 0.06019273
v -0.02867441 0.00808018 0.06019273
v -0.02893605 0.00771823 0.06019273
v -0.02893980 0.00771229 0.06019273
v -0.02856813 0.00819817 0.06019273
v -0.02934500 0.00246234 0.06019273
v -0.01160214 0.00701104 0.07525349
v -0.01247526 0.00793992 0.07525349
v -0.01247469 0.00793988 0.07525349
v -0.01240563 0.00792893 0.07525349
v -0.01240491 0.00792879 0.07525349
v -0.01227856 0.00789485 0.07525349
v -0.01227792 0.00789463 0.07525349
v -0.01221606 0.00787119 0.07525349
v -0.01215838 0.00784499 0.07525349
v -0.01215771 0.00784466 0.07525349
v -0.01210004 0.00781376 0.07525349
v -0.01204443 0.00777909 0.07525349
v -0.01204390 0.00777873 0.07525349
v -0.01199239 0.00774172 0.07525349
v -0.01199021 0.00774005 0.07525349
v -0.01194121 0.00769973 0.07525349
v -0.01194065 0.00769925 0.07525349
v -0.01184816 0.00760652 0.07525349
v -0.01180589 0.00755477 0.07525349
v -0.01176893 0.00750305 0.07525349
v -0.01176853 0.00750247 0.07525349
v -0.01170313 0.00738890 0.07525349
v -0.01167664 0.00733032 0.07525349
v -0.01167568 0.00732799 0.07525349
v -0.01165328 0.00726835 0.07525349
v -0.01160855 0.00707633 0.07525349
v -0.01160843 0.00707516 0.07525349
v -0.01161911 0.00714048 0.07525349
v -0.01161921 0.00714106 0.07525349
v -0.01160219 0.00701162 0.07525349
v -0.02386333 0.00500910 0.07525349
v -0.02296519 0.00707929 0.07525349
v -0.02233154 0.00754207 0.07525349
v -0.02205067 0.00767919 0.07525349
v -0.02176123 0.00778715 0.07525349
v -0.02146793 0.00786609 0.07525349
v -0.02132124 0.00789493 0.07525349
v -0.02103034 0.00793227 0.07525349
v -0.02088705 0.00794125 0.07525349
v -0.02074727 0.00794628 0.07525349
v -0.02378643 0.00566322 0.07525349
v -0.02383785 0.00538762 0.07525349
v -0.02365321 0.00607700 0.07525349
v -0.02359337 0.00621293 0.07525349
v -0.02336762 0.00660691 0.07525349
v -0.02327738 0.00673175 0.07525349
v -0.02370529 0.00593971 0.07525349
v -0.02307583 0.00696844 0.07525349
v -0.02067372 0.00794661 0.07525349
v -0.01160000 0.00694596 0.07525349
v -0.01163408 0.00720498 0.07525349
v -0.01246808 0.00793927 0.07525349
v -0.01234121 0.00791390 0.07525349
v -0.01221867 0.00787227 0.07525349
v -0.01189293 0.00765444 0.07525349
v -0.01184776 0.00760605 0.07525349
v -0.01180750 0.00755687 0.07525349
v -0.01173400 0.00744680 0.07525349
v -0.01170287 0.00738836 0.07525349
v -0.01165307 0.00726774 0.07525349
v -0.01160874 0.00707751 0.07525349
v -0.02385305 0.00524848 0.07525349
v -0.02385293 0.00525133 0.07525349
v -0.02284853 0.00718453 0.07525349
v -0.02272631 0.00728375 0.07525349
v -0.02259904 0.00737661 0.07525349
v -0.02246726 0.00746280 0.07525349
v -0.02219248 0.00761424 0.07525349
v -0.02190672 0.00773683 0.07525349
v -0.02161477 0.00783021 0.07525349
v -0.02117521 0.00791692 0.07525349
v -0.02374966 0.00580161 0.07525349
v -0.02381576 0.00552507 0.07525349
v -0.02345048 0.00647845 0.07525349
v -0.02352577 0.00634694 0.07525349
v -0.02318001 0.00685243 0.07525349
v -0.02074474 0.00794634 0.07525349
v -0.02070247 0.00794656 0.07525349
v -0.02070179 0.00794657 0.07525349
v -0.02070150 0.00794657 0.07525349
v -0.02070061 0.00794657 0.07525349
v -0.02070032 0.00794657 0.07525349
v -0.02069921 0.00794657 0.07525349
v -0.02069893 0.00794657 0.07525349
v -0.02069757 0.00794658 0.07525349
v -0.02069734 0.00794658 0.07525349
v -0.02069571 0.00794658 0.07525349
v -0.02069553 0.00794658 0.07525349
v -0.02069363 0.00794659 0.07525349
v -0.02069353 0.00794659 0.07525349
v -0.02069132 0.00794659 0.07525349
v -0.02068892 0.00794659 0.07525349
v -0.02068881 0.00794659 0.07525349
v -0.02068635 0.00794660 0.07525349
v -0.02068610 0.00794660 0.07525349
v -0.02068397 0.00794660 0.07525349
v -0.02068321 0.00794660 0.07525349
v -0.02068110 0.00794660 0.07525349
v -0.02068017 0.00794660 0.07525349
v -0.02067809 0.00794661 0.07525349
v -0.02067699 0.00794661 0.07525349
v -0.02067500 0.00794661 0.07525349
v -0.01448954 0.00794577 0.07525349
v -0.01447770 0.00794577 0.07525349
v -0.01445969 0.00794577 0.07525349
v -0.01445223 0.00794577 0.07525349
v -0.01442829 0.00794576 0.07525349
v -0.01442200 0.00794576 0.07525349
v -0.01439570 0.00794574 0.07525349
v -0.01439081 0.00794574 0.07525349
v -0.01436229 0.00794573 0.07525349
v -0.01435894 0.00794573 0.07525349
v -0.01432841 0.00794571 0.07525349
v -0.01429427 0.00794568 0.07525349
v -0.01426214 0.00794565 0.07525349
v -0.01426069 0.00794565 0.07525349
v -0.01423212 0.00794563 0.07525349
v -0.01422754 0.00794562 0.07525349
v -0.01387824 0.00794519 0.07525349
v -0.02386334 0.00199514 0.07525349
v -0.02386334 0.00479176 0.07525349
v -0.02386347 0.00178179 0.07525312
v -0.02386333 0.00178179 0.07525349
v -0.01160000 0.00178179 0.06572033
v -0.02709210 0.00178179 0.06638252
v -0.02612861 0.00178179 0.06902969
v -0.02934500 0.00178179 0.06019273
v -0.01330000 0.00178179 0.06019273
v -0.01160000 0.00178179 0.07525349
v -0.02392258 0.00178179 0.07509071
f 134 261 259
f 2 35 95
f 135 184 3
f 3 184 2
f 2 95 3
f 37 29 94
f 94 29 36
f 93 136 4
f 4 5 93
f 253 136 93
f 36 29 28
f 28 3 36
f 36 3 96
f 96 3 95
f 30 29 37
f 25 26 100
f 18 189 19
f 19 104 18
f 47 103 17
f 17 18 47
f 93 183 237
f 93 65 235
f 252 253 93
f 259 260 254
f 134 259 254
f 60 165 122
f 134 254 34
f 26 27 39
f 39 100 26
f 25 100 99
f 19 189 152
f 155 23 22
f 17 103 16
f 151 18 17
f 189 18 151
f 13 145 14
f 46 18 104
f 46 47 18
f 44 104 19
f 19 20 44
f 44 20 45
f 101 21 22
f 101 20 21
f 45 20 101
f 236 183 93
f 93 235 236
f 264 254 260
f 176 78 197
f 33 60 134
f 134 34 33
f 32 34 254
f 32 33 34
f 32 165 60
f 60 33 32
f 175 206 82
f 120 168 76
f 75 76 203
f 203 76 168
f 71 170 70
f 77 168 120
f 41 27 1
f 41 39 27
f 191 20 190
f 15 49 14
f 150 16 149
f 14 145 146
f 12 50 11
f 54 10 11
f 53 10 54
f 14 49 106
f 106 13 14
f 51 13 106
f 48 16 103
f 48 15 16
f 49 15 48
f 172 66 67
f 68 205 116
f 205 172 116
f 116 172 67
f 117 70 171
f 171 70 170
f 6 7 58
f 212 65 211
f 212 213 65
f 93 248 249
f 249 250 93
f 251 252 93
f 93 250 251
f 84 78 176
f 176 83 84
f 257 254 256
f 254 264 256
f 196 122 165
f 196 197 122
f 121 197 78
f 122 197 121
f 165 32 255
f 255 32 254
f 127 177 178
f 124 175 82
f 79 175 124
f 207 175 79
f 207 83 176
f 75 203 74
f 119 74 169
f 169 74 203
f 72 73 204
f 72 204 170
f 72 170 71
f 202 77 64
f 168 77 202
f 21 153 154
f 24 43 23
f 99 43 24
f 25 99 24
f 23 155 192
f 192 24 23
f 156 24 192
f 145 13 144
f 13 12 144
f 52 13 51
f 52 12 13
f 11 50 55
f 55 54 11
f 65 66 173
f 66 172 173
f 117 171 69
f 69 171 205
f 69 205 68
f 56 7 8
f 56 58 7
f 5 6 108
f 247 248 93
f 93 246 247
f 245 246 93
f 93 237 238
f 93 240 241
f 91 181 177
f 123 207 79
f 83 207 123
f 90 208 179
f 119 169 118
f 118 169 204
f 204 73 118
f 167 202 64
f 62 200 114
f 199 62 61
f 200 62 199
f 201 63 113
f 200 201 113
f 114 200 113
f 40 41 1
f 1 97 40
f 31 30 98
f 1 31 98
f 98 97 1
f 22 23 102
f 102 101 22
f 193 157 25
f 1 27 194
f 147 148 15
f 10 141 188
f 187 9 8
f 11 142 143
f 50 12 105
f 12 52 105
f 211 65 174
f 65 173 174
f 107 10 53
f 107 9 10
f 8 9 107
f 107 56 8
f 93 5 59
f 5 108 59
f 6 58 57
f 57 108 6
f 93 243 244
f 244 245 93
f 239 240 93
f 93 238 239
f 242 243 93
f 93 241 242
f 177 127 125
f 125 91 177
f 206 181 80
f 86 127 178
f 178 85 86
f 209 85 178
f 209 208 132
f 179 87 128
f 128 90 179
f 132 208 131
f 208 90 131
f 180 87 179
f 130 180 210
f 115 167 64
f 201 167 115
f 115 63 201
f 109 198 112
f 166 109 110
f 198 109 166
f 111 199 61
f 198 199 111
f 112 198 111
f 38 30 37
f 38 98 30
f 23 43 42
f 42 102 23
f 9 187 140
f 8 7 139
f 139 187 8
f 234 235 65
f 65 233 234
f 65 230 231
f 65 225 226
f 226 227 65
f 229 230 65
f 65 213 214
f 218 219 65
f 224 225 65
f 221 222 65
f 181 91 92
f 92 80 181
f 82 206 81
f 206 80 81
f 126 209 132
f 85 209 126
f 129 130 210
f 129 210 182
f 182 88 129
f 87 180 89
f 180 130 89
f 133 166 110
f 182 166 133
f 133 88 182
f 26 158 159
f 185 31 1
f 185 163 31
f 1 194 185
f 186 6 5
f 232 233 65
f 65 231 232
f 65 227 228
f 228 229 65
f 215 216 65
f 65 214 215
f 65 216 217
f 217 218 65
f 65 222 223
f 223 224 65
f 65 219 220
f 220 221 65
f 6 186 138
f 137 186 5
f 28 161 164
f 162 195 30
f 2 258 35
f 35 258 262
f 184 258 2
f 184 263 258
f 190 20 19
f 19 152 190
f 21 20 153
f 153 20 191
f 17 16 150
f 150 151 17
f 262 258 256
f 256 261 262
f 256 263 257
f 258 263 256
f 256 259 261
f 256 260 259
f 256 264 260
f 22 21 154
f 154 155 22
f 149 16 148
f 16 15 148
f 25 24 193
f 193 24 156
f 147 15 14
f 14 146 147
f 11 10 188
f 188 142 11
f 143 12 11
f 143 144 12
f 158 26 25
f 25 157 158
f 10 9 140
f 140 141 10
f 133 261 134
f 133 35 262
f 133 121 78
f 134 60 133
f 133 65 93
f 262 261 133
f 133 95 35
f 37 94 133
f 45 101 133
f 133 46 104
f 68 116 133
f 36 96 133
f 120 76 133
f 60 122 133
f 133 94 36
f 133 74 119
f 41 40 133
f 50 105 133
f 133 107 53
f 71 70 133
f 133 77 120
f 133 96 95
f 103 47 133
f 133 99 100
f 51 106 133
f 133 62 114
f 133 48 103
f 133 66 65
f 78 84 133
f 133 124 82
f 132 131 133
f 133 55 50
f 119 118 133
f 100 39 133
f 104 44 133
f 112 111 133
f 53 54 133
f 47 46 133
f 133 44 45
f 87 89 133
f 67 66 133
f 82 81 133
f 133 76 75
f 133 70 117
f 133 128 87
f 64 77 133
f 133 72 71
f 39 41 133
f 133 43 99
f 133 52 51
f 133 106 49
f 49 48 133
f 133 116 67
f 133 69 68
f 133 84 83
f 122 121 133
f 133 125 127
f 79 124 133
f 133 123 79
f 75 74 133
f 73 72 133
f 133 109 112
f 133 126 132
f 114 113 133
f 101 102 133
f 54 55 133
f 117 69 133
f 58 56 133
f 93 59 133
f 133 57 58
f 133 92 91
f 83 123 133
f 127 86 133
f 133 118 73
f 61 62 133
f 133 115 64
f 133 113 63
f 133 40 97
f 97 98 133
f 133 38 37
f 133 105 52
f 56 107 133
f 133 59 108
f 108 57 133
f 91 125 133
f 133 42 43
f 133 86 85
f 90 128 133
f 133 131 90
f 133 129 88
f 63 115 133
f 110 109 133
f 133 111 61
f 98 38 133
f 102 42 133
f 80 92 133
f 133 81 80
f 85 126 133
f 130 129 133
f 133 89 130
f 159 27 26
f 159 194 27
f 161 28 29
f 29 160 161
f 195 160 29
f 29 30 195
f 138 7 6
f 138 139 7
f 137 4 136
f 5 4 137
f 135 3 164
f 3 28 164
f 257 263 162
f 162 193 156
f 162 181 206
f 162 184 135
f 136 253 162
f 263 184 162
f 149 148 162
f 211 174 162
f 162 231 230
f 162 152 189
f 189 151 162
f 183 236 162
f 240 239 162
f 162 254 257
f 178 177 162
f 168 202 162
f 162 153 191
f 162 237 183
f 162 171 170
f 253 252 162
f 162 196 165
f 176 197 162
f 170 204 162
f 162 203 168
f 204 169 162
f 191 190 162
f 162 192 155
f 162 150 149
f 145 144 162
f 162 143 142
f 162 236 235
f 162 212 211
f 162 249 248
f 252 251 162
f 165 255 162
f 206 175 162
f 162 207 176
f 219 218 162
f 162 201 200
f 162 190 152
f 162 180 179
f 155 154 162
f 151 150 162
f 162 146 145
f 142 188 162
f 162 172 205
f 205 171 162
f 248 247 162
f 162 238 237
f 213 212 162
f 243 242 162
f 250 249 162
f 162 251 250
f 197 196 162
f 162 255 254
f 177 181 162
f 175 207 162
f 179 208 162
f 162 169 203
f 182 210 162
f 162 167 201
f 162 154 153
f 156 192 162
f 200 199 162
f 162 158 157
f 162 147 146
f 141 140 162
f 162 173 172
f 162 247 246
f 246 245 162
f 162 244 243
f 162 241 240
f 162 220 219
f 230 229 162
f 162 209 178
f 202 167 162
f 162 199 198
f 157 193 162
f 162 166 182
f 148 147 162
f 162 188 141
f 162 185 194
f 144 143 162
f 162 174 173
f 245 244 162
f 162 239 238
f 162 242 241
f 235 234 162
f 162 226 225
f 162 214 213
f 225 224 162
f 208 209 162
f 210 180 162
f 198 166 162
f 162 223 222
f 194 159 162
f 162 140 187
f 187 139 162
f 162 234 233
f 139 138 162
f 227 226 162
f 233 232 162
f 162 228 227
f 216 215 162
f 162 217 216
f 222 221 162
f 162 159 158
f 163 185 162
f 162 137 136
f 135 164 162
f 162 232 231
f 229 228 162
f 162 215 214
f 218 217 162
f 224 223 162
f 221 220 162
f 162 161 160
f 160 195 162
f 162 138 186
f 186 137 162
f 162 164 161
f 162 30 31
f 31 163 162

