# https://github.com/mikedh/trimesh
v -0.01241949 -0.02403339 0.02994982
v -0.01139813 -0.02418855 0.02937076
v -0.01156962 -0.02417187 0.02943299
v -0.01174071 -0.02415151 0.02950898
v -0.01191132 -0.02412747 0.02959870
v -0.01208137 -0.02409976 0.02970211
v -0.01225078 -0.02406839 0.02981917
v -0.01122633 -0.02420152 0.02932234
v -0.01105428 -0.02421079 0.02928773
v -0.01088208 -0.02421636 0.02926696
v -0.01070979 -0.02421821 0.02926004
v 0.00250266 -0.02421577 0.02926915
v 0.00256028 -0.02421286 0.02928001
v 0.00261550 -0.02420886 0.02929495
v 0.00266869 -0.02420375 0.02931402
v 0.00272233 -0.02419856 0.02933339
v 0.00237656 -0.02421821 0.02926004
v 0.00241724 -0.02421797 0.02926095
v 0.00248267 -0.02421650 0.02926642
v 0.01211415 -0.01621822 0.01720332
v 0.00437975 -0.02331991 0.03003280
v 0.00427916 -0.02342151 0.02999664
v 0.00421739 -0.02347939 0.02997386
v 0.00364372 -0.02388970 0.02974586
v 0.00384674 -0.02376755 0.02982952
v 0.00398032 -0.02367427 0.02988291
v 0.00403861 -0.02363003 0.02990574
v 0.00414327 -0.02354473 0.02994599
v 0.00277690 -0.02418955 0.02935923
v 0.00288073 -0.02417099 0.02940791
v 0.00299562 -0.02414510 0.02946103
v 0.00321506 -0.02407989 0.02956032
v 0.00336103 -0.02402476 0.02962478
v 0.00343216 -0.02399438 0.02965572
v 0.00353348 -0.02394698 0.02969925
v -0.01270655 -0.02396463 0.01501046
v -0.01265776 -0.02397586 0.01501046
v -0.01332089 -0.02377852 0.01501046
v -0.01203146 -0.02410789 0.01501046
v -0.01198094 -0.02411502 0.01501046
v -0.01080531 -0.02421744 0.01501046
v -0.01079686 -0.02421772 0.01501046
v -0.01076759 -0.02421800 0.01501046
v -0.03519500 -0.01263027 0.01501046
v -0.03518438 -0.01279034 0.01501046
v -0.03504252 -0.01355761 0.01501046
v -0.03502984 -0.01359794 0.01501046
v -0.03507370 -0.01344261 0.01501046
v -0.03474047 -0.01430491 0.01501046
v -0.03481341 -0.01416106 0.01501046
v -0.03479687 -0.01419384 0.01501046
v -0.03498264 -0.01374779 0.01501046
v -0.03496640 -0.01379104 0.01501046
v -0.03459499 -0.01455271 0.01501046
v -0.03453810 -0.01463825 0.01501046
v -0.03438538 -0.01484458 0.01501046
v -0.03361345 -0.01553689 0.01501046
v -0.03365003 -0.01551498 0.01501046
v -0.03374626 -0.01544910 0.01501046
v -0.03389250 -0.01533945 0.01501046
v -0.03403128 -0.01522136 0.01501046
v -0.03419110 -0.01506531 0.01501046
v -0.03336214 -0.01567817 0.01501046
v -0.03332020 -0.01569866 0.01501046
v -0.03322488 -0.01574117 0.01501046
v -0.03520000 -0.01243197 0.01501046
v 0.01330572 -0.02121821 0.01501046
v 0.01027670 -0.02419779 0.01501046
v 0.01328971 -0.02145097 0.01501046
v 0.01329009 -0.02144740 0.01501046
v 0.01324713 -0.02173758 0.01501046
v 0.01322060 -0.02185768 0.01501046
v 0.01313836 -0.02212444 0.01501046
v 0.01305833 -0.02232296 0.01501046
v 0.01308637 -0.02225887 0.01501046
v 0.01295454 -0.02253150 0.01501046
v 0.01278990 -0.02279407 0.01501046
v 0.01272394 -0.02288625 0.01501046
v 0.01253072 -0.02311562 0.01501046
v 0.01258243 -0.02305879 0.01501046
v 0.01248646 -0.02316295 0.01501046
v 0.01224738 -0.02338417 0.01501046
v 0.01193354 -0.02361531 0.01501046
v 0.01153227 -0.02384216 0.01501046
v 0.01106457 -0.02403060 0.01501046
v 0.01116211 -0.02399659 0.01501046
v 0.01130067 -0.02394482 0.01501046
v 0.01139693 -0.02390324 0.01501046
v 0.00988991 -0.02421821 0.01501046
v 0.01008355 -0.02421308 0.01501046
v 0.01071829 -0.02412580 0.01501046
v 0.01082592 -0.02409942 0.01501046
v 0.01330005 -0.01621822 0.01501046
v -0.01341233 -0.02374791 0.01501046
v -0.01275443 -0.02395252 0.01501046
v -0.01139813 -0.02418855 0.01501046
v -0.01208137 -0.02409976 0.01501046
v -0.01083567 -0.02421597 0.01501046
v -0.01073184 -0.02421818 0.01501046
v -0.01070979 -0.02421821 0.01501046
v -0.03517625 -0.01287276 0.01501046
v -0.03514170 -0.01312233 0.01501046
v -0.03506738 -0.01346595 0.01501046
v -0.03512027 -0.01323577 0.01501046
v -0.03510129 -0.01332734 0.01501046
v -0.03486001 -0.01405939 0.01501046
v -0.03487062 -0.01403609 0.01501046
v -0.03467756 -0.01441581 0.01501046
v -0.03447364 -0.01472912 0.01501046
v -0.03443449 -0.01478178 0.01501046
v -0.03421281 -0.01504329 0.01501046
v -0.03426703 -0.01498421 0.01501046
v -0.03383521 -0.01538443 0.01501046
v -0.03377858 -0.01542663 0.01501046
v -0.03384318 -0.01537840 0.01501046
v -0.03401651 -0.01523432 0.01501046
v -0.03391698 -0.01531964 0.01501046
v -0.03345273 -0.01563196 0.01501046
v -0.03325172 -0.01573018 0.01501046
v 0.01326328 -0.02165440 0.01501046
v 0.01323353 -0.02180297 0.01501046
v 0.01317096 -0.02203141 0.01501046
v 0.01320220 -0.02192286 0.01501046
v 0.01316161 -0.02205961 0.01501046
v 0.01308854 -0.02225385 0.01501046
v 0.01299508 -0.02245406 0.01501046
v 0.01302936 -0.02238638 0.01501046
v 0.01283123 -0.02273498 0.01501046
v 0.01285070 -0.02270529 0.01501046
v 0.01264624 -0.02298413 0.01501046
v 0.01236663 -0.02327987 0.01501046
v 0.01231137 -0.02332967 0.01501046
v 0.01219348 -0.02342884 0.01501046
v 0.01205063 -0.02353647 0.01501046
v 0.01201154 -0.02356383 0.01501046
v 0.01184150 -0.02367425 0.01501046
v 0.01180528 -0.02369550 0.01501046
v 0.01167935 -0.02376734 0.01501046
v 0.01172062 -0.02374439 0.01501046
v 0.01162284 -0.02379670 0.01501046
v 0.01126243 -0.02395984 0.01501046
v 0.01149580 -0.02385987 0.01501046
v 0.01047862 -0.02417099 0.01501046
v 0.01056322 -0.02415645 0.01501046
v 0.01067277 -0.02413585 0.01501046
v 0.01091871 -0.02407500 0.01501046
v 0.00227248 -0.02400086 0.03007122
v 0.00236781 -0.02400086 0.03007122
v 0.00211190 -0.02400086 0.03007122
v 0.00436017 -0.02331060 0.03007122
v 0.00424338 -0.02340171 0.03007122
v 0.00417244 -0.02345227 0.03007122
v 0.00388241 -0.02362791 0.03007122
v 0.00373075 -0.02370324 0.03007122
v 0.00395716 -0.02358716 0.03007122
v 0.00408312 -0.02351149 0.03007122
v 0.00396420 -0.02358304 0.03007122
v 0.00416847 -0.02345496 0.03007122
v 0.00241979 -0.02399924 0.03007122
v 0.00256591 -0.02399348 0.03007122
v 0.00294530 -0.02394734 0.03007122
v 0.00296997 -0.02394362 0.03007122
v 0.00314869 -0.02390532 0.03007122
v 0.00335511 -0.02384787 0.03007122
v 0.00347694 -0.02380665 0.03007122
v 0.00452695 -0.02315864 0.03007122
v 0.00467758 -0.02298918 0.03007122
v 0.00481950 -0.02280141 0.03007122
v 0.00487531 -0.02271798 0.03007122
v 0.00515457 -0.02215907 0.03007122
v 0.00515355 -0.02216194 0.03007122
v 0.00522828 -0.02192949 0.03007122
v 0.00528338 -0.02168474 0.03007122
v 0.00532235 -0.02131571 0.03007122
v 0.00512662 -0.02223181 0.03007122
v -0.01258757 -0.02399471 0.03007122
v -0.01375377 -0.02361600 0.03007122
v -0.01309367 -0.02385459 0.03007122
v -0.03505169 -0.01352393 0.03007122
v -0.03465251 -0.01445696 0.03007122
v -0.03475992 -0.01426660 0.03007122
v -0.03483365 -0.01411728 0.03007122
v -0.03492605 -0.01389853 0.03007122
v -0.03438538 -0.01484458 0.03007122
v -0.03352256 -0.01559131 0.03007122
v -0.03381539 -0.01539942 0.03007122
v -0.03397981 -0.01526653 0.03007122
v -0.03413716 -0.01512003 0.03007122
v -0.03315818 -0.01576847 0.03007122
v -0.03520000 -0.01243197 0.03007122
v -0.01341233 -0.02374791 0.03007122
v -0.01275443 -0.02395252 0.03007122
v -0.03519196 -0.01268490 0.03007122
v -0.03518438 -0.01279034 0.03007122
v -0.03499892 -0.01369611 0.03007122
v -0.03507370 -0.01344261 0.03007122
v -0.03509823 -0.01334089 0.03007122
v -0.03510478 -0.01330931 0.03007122
v -0.03474047 -0.01430491 0.03007122
v -0.03481758 -0.01415234 0.03007122
v -0.03462347 -0.01450550 0.03007122
v -0.03451645 -0.01466946 0.03007122
v -0.03444799 -0.01476362 0.03007122
v -0.03443449 -0.01478178 0.03007122
v -0.03368322 -0.01549226 0.03007122
v -0.03379586 -0.01541397 0.03007122
v -0.03384318 -0.01537840 0.03007122
v -0.03386019 -0.01536497 0.03007122
v -0.03403128 -0.01522136 0.03007122
v -0.03345273 -0.01563196 0.03007122
v -0.03325172 -0.01573018 0.03007122
v -0.03327534 -0.01571931 0.03007122
v -0.01182893 -0.02400086 0.03007122
v -0.01256087 -0.02400086 0.03007122
v 0.00534387 -0.01741822 0.03007122
v 0.00536757 -0.01859956 0.03007122
v 0.00449183 -0.02319251 0.03007122
v 0.00436165 -0.02330944 0.03007122
v 0.00349225 -0.02380134 0.03007122
v 0.00371951 -0.02370795 0.03007122
v 0.00389088 -0.02362369 0.03007122
v 0.00271376 -0.02398094 0.03007122
v 0.00268488 -0.02398357 0.03007122
v 0.00324530 -0.02388004 0.03007122
v 0.00322571 -0.02388549 0.03007122
v 0.00512544 -0.02223452 0.03007122
v 0.00505975 -0.02238537 0.03007122
v 0.00452709 -0.02315849 0.03007122
v 0.00476928 -0.02287154 0.03007122
v 0.00467819 -0.02298840 0.03007122
v 0.00481854 -0.02280280 0.03007122
v 0.00494764 -0.02259954 0.03007122
v 0.00525009 -0.02184455 0.03007122
v 0.00522743 -0.02193252 0.03007122
v 0.00519899 -0.02202919 0.03007122
v 0.00531283 -0.02146623 0.03007122
v 0.00528111 -0.02169736 0.03007122
v 0.00532311 -0.02128829 0.03007122
v -0.03517226 -0.01290816 0.03007122
v -0.03514170 -0.01312233 0.03007122
v -0.03504311 -0.01355555 0.03007122
v -0.03487062 -0.01403609 0.03007122
v -0.03498264 -0.01374779 0.03007122
v -0.03459499 -0.01455271 0.03007122
v -0.03425535 -0.01499717 0.03007122
v -0.03365003 -0.01551498 0.03007122
v -0.03394548 -0.01529595 0.03007122
v -0.03421281 -0.01504329 0.03007122
v -0.03342148 -0.01564789 0.03007122
v -0.03520000 0.00178179 0.01501046
v -0.01500000 0.00178179 0.01501046
v -0.01500000 0.00178179 0.03007122
v -0.03520000 0.00178179 0.03007122
f 190 44 193
f 93 251 252
f 44 190 66
f 20 252 215
f 215 93 20
f 20 93 252
f 10 42 11
f 177 189 65
f 11 42 43
f 90 19 89
f 67 93 216
f 216 93 215
f 2 96 8
f 8 96 9
f 9 10 8
f 8 10 11
f 177 65 94
f 94 191 177
f 245 184 112
f 193 44 45
f 99 100 11
f 11 43 99
f 18 17 89
f 89 19 18
f 11 17 18
f 18 8 11
f 238 174 67
f 67 216 238
f 38 95 178
f 178 95 192
f 4 40 96
f 98 41 9
f 9 96 98
f 62 61 188
f 112 184 56
f 240 239 102
f 102 239 101
f 67 174 236
f 121 233 72
f 3 96 2
f 3 4 96
f 2 8 3
f 188 61 209
f 183 107 242
f 48 197 105
f 194 45 101
f 101 239 194
f 193 45 194
f 240 102 104
f 104 198 240
f 26 137 136
f 136 27 26
f 83 27 136
f 166 131 81
f 217 131 166
f 67 236 70
f 70 236 69
f 69 236 120
f 172 72 233
f 1 37 97
f 97 7 1
f 149 213 18
f 111 248 245
f 111 245 112
f 202 109 203
f 55 109 202
f 202 244 55
f 55 244 54
f 108 199 49
f 107 183 53
f 197 48 196
f 32 162 161
f 92 146 32
f 220 25 154
f 139 25 138
f 139 137 26
f 26 25 139
f 138 25 140
f 163 162 32
f 32 146 85
f 14 90 68
f 135 27 83
f 135 134 28
f 28 27 135
f 26 221 153
f 21 82 132
f 132 131 21
f 21 131 217
f 80 130 167
f 168 128 169
f 167 130 78
f 173 120 236
f 235 170 124
f 122 235 124
f 125 73 171
f 175 125 171
f 73 124 171
f 171 124 170
f 6 1 7
f 214 1 6
f 6 213 214
f 6 7 97
f 6 3 8
f 8 18 6
f 18 213 6
f 199 108 180
f 223 31 222
f 30 143 144
f 144 31 30
f 145 31 144
f 68 143 29
f 29 16 68
f 29 143 30
f 29 160 159
f 30 160 29
f 32 31 91
f 91 92 32
f 91 31 145
f 84 140 25
f 84 25 24
f 84 24 142
f 165 24 219
f 142 24 88
f 24 87 88
f 12 18 19
f 12 14 18
f 19 90 12
f 16 14 15
f 68 16 15
f 15 14 68
f 218 21 217
f 133 82 22
f 82 21 22
f 155 27 157
f 228 80 167
f 166 80 228
f 79 166 81
f 79 80 166
f 229 78 231
f 128 168 231
f 167 78 230
f 230 78 229
f 227 127 74
f 126 127 227
f 227 232 126
f 126 232 76
f 76 232 129
f 129 232 169
f 169 128 129
f 122 123 234
f 234 235 122
f 234 123 72
f 72 172 234
f 4 3 5
f 3 6 5
f 185 118 210
f 201 180 108
f 225 34 224
f 35 87 24
f 141 87 35
f 35 34 141
f 33 163 32
f 32 85 33
f 85 34 33
f 141 34 86
f 86 34 85
f 90 14 13
f 13 12 90
f 14 12 13
f 21 218 150
f 133 22 23
f 134 133 23
f 28 134 23
f 128 231 77
f 77 231 78
f 227 74 75
f 75 226 227
f 175 226 75
f 75 125 175
f 121 71 237
f 237 233 121
f 237 71 120
f 120 173 237
f 118 185 57
f 158 23 152
f 251 253 252
f 250 253 251
f 66 253 250
f 66 190 253
f 65 189 211
f 211 119 65
f 17 100 89
f 11 100 17
f 42 10 41
f 41 10 9
f 178 94 38
f 191 94 178
f 197 198 104
f 105 197 104
f 26 27 221
f 221 27 155
f 214 176 36
f 36 1 214
f 37 1 36
f 36 176 192
f 192 95 36
f 188 248 111
f 111 62 188
f 208 117 60
f 247 117 208
f 184 204 110
f 110 56 184
f 204 203 110
f 110 203 109
f 199 181 51
f 49 199 51
f 51 181 200
f 200 50 51
f 106 182 242
f 242 107 106
f 200 182 106
f 106 50 200
f 53 183 243
f 53 243 52
f 195 47 52
f 52 243 195
f 46 47 195
f 195 241 46
f 31 161 222
f 32 161 31
f 219 24 220
f 24 25 220
f 153 25 26
f 154 25 153
f 59 58 246
f 246 205 59
f 116 187 209
f 116 209 61
f 247 187 116
f 116 117 247
f 205 206 114
f 59 205 114
f 114 206 186
f 186 113 114
f 179 103 46
f 46 241 179
f 48 103 179
f 179 196 48
f 223 160 30
f 30 31 223
f 159 148 29
f 148 16 29
f 147 16 148
f 147 14 16
f 147 149 18
f 18 14 147
f 157 27 28
f 28 156 157
f 5 39 40
f 40 4 5
f 97 39 5
f 5 6 97
f 118 63 249
f 210 118 249
f 207 113 186
f 207 115 113
f 207 208 60
f 60 115 207
f 201 108 54
f 54 244 201
f 35 165 164
f 24 165 35
f 164 224 35
f 35 224 34
f 225 163 33
f 33 34 225
f 151 22 150
f 150 22 21
f 151 152 23
f 23 22 151
f 57 93 67
f 57 116 61
f 57 136 137
f 100 99 57
f 52 47 57
f 57 43 42
f 250 251 57
f 42 41 57
f 57 65 119
f 68 90 57
f 251 93 57
f 57 66 250
f 97 37 57
f 38 94 57
f 89 100 57
f 57 85 146
f 44 66 57
f 57 95 38
f 57 39 97
f 57 98 96
f 57 123 122
f 57 108 49
f 57 45 44
f 57 90 89
f 105 104 57
f 132 82 57
f 121 72 57
f 96 40 57
f 57 133 134
f 57 58 59
f 57 94 65
f 112 56 57
f 57 55 54
f 101 45 57
f 57 99 43
f 46 103 57
f 137 139 57
f 81 131 57
f 67 70 57
f 57 73 125
f 41 98 57
f 61 62 57
f 56 110 57
f 119 64 57
f 57 106 107
f 57 48 105
f 57 102 101
f 146 92 57
f 57 91 145
f 134 135 57
f 57 131 132
f 141 86 57
f 57 79 81
f 122 124 57
f 57 129 128
f 40 39 57
f 57 36 95
f 57 111 112
f 57 110 109
f 49 51 57
f 57 53 52
f 57 47 46
f 57 104 102
f 57 143 68
f 57 84 142
f 83 136 57
f 142 88 57
f 57 126 76
f 57 82 133
f 57 70 69
f 69 120 57
f 37 36 57
f 125 75 57
f 57 63 118
f 62 111 57
f 60 117 57
f 59 114 57
f 109 55 57
f 54 108 57
f 57 51 50
f 50 106 57
f 107 53 57
f 57 103 48
f 57 115 60
f 145 144 57
f 57 139 138
f 138 140 57
f 57 87 141
f 57 71 121
f 57 135 83
f 130 80 57
f 57 78 130
f 128 77 57
f 57 124 73
f 72 123 57
f 57 64 63
f 117 116 57
f 57 114 113
f 113 115 57
f 57 144 143
f 92 91 57
f 140 84 57
f 57 88 87
f 80 79 57
f 57 74 127
f 127 126 57
f 76 129 57
f 120 71 57
f 57 86 85
f 57 77 78
f 57 75 74
f 57 246 58
f 57 185 246
f 212 119 211
f 212 64 119
f 63 64 212
f 212 249 63
f 177 191 158
f 215 252 158
f 252 253 158
f 158 189 177
f 158 190 193
f 158 216 215
f 158 148 159
f 158 185 210
f 158 198 197
f 253 190 158
f 247 208 158
f 211 189 158
f 214 213 158
f 174 238 158
f 158 178 192
f 158 248 188
f 158 181 199
f 242 182 158
f 158 161 162
f 158 147 148
f 158 236 174
f 158 226 175
f 184 245 158
f 158 187 247
f 202 203 158
f 158 195 243
f 192 176 158
f 162 163 158
f 158 238 216
f 158 152 151
f 191 178 158
f 175 171 158
f 188 209 158
f 158 204 184
f 158 244 202
f 158 183 242
f 158 239 240
f 240 198 158
f 193 194 158
f 219 220 158
f 217 166 158
f 158 168 169
f 169 232 158
f 151 150 158
f 158 176 214
f 158 172 233
f 245 248 158
f 158 165 219
f 158 206 205
f 205 246 158
f 200 181 158
f 158 182 200
f 243 183 158
f 197 196 158
f 158 194 239
f 159 160 158
f 158 223 222
f 158 221 155
f 154 153 158
f 155 157 158
f 229 231 158
f 227 226 158
f 158 170 235
f 167 230 158
f 213 149 158
f 209 187 158
f 186 206 158
f 233 237 158
f 158 203 204
f 199 180 158
f 241 195 158
f 158 179 241
f 222 161 158
f 158 220 154
f 158 201 244
f 158 163 225
f 158 153 221
f 158 218 217
f 158 228 167
f 158 232 227
f 158 173 236
f 158 171 170
f 235 234 158
f 158 207 186
f 196 179 158
f 160 223 158
f 164 165 158
f 149 147 158
f 225 224 158
f 158 212 211
f 158 157 156
f 166 228 158
f 158 231 168
f 158 230 229
f 158 234 172
f 246 185 158
f 210 249 158
f 208 207 158
f 180 201 158
f 158 224 164
f 158 150 218
f 158 237 173
f 249 212 158
f 158 156 28
f 28 23 158

