# https://github.com/mikedh/trimesh
v -0.01330000 -0.01082272 0.04606567
v -0.01330133 -0.01087722 0.04606567
v -0.01330423 -0.01091994 0.04606567
v -0.01331506 -0.01100564 0.04606567
v -0.01331609 -0.01101174 0.04606567
v -0.01333552 -0.01110220 0.04606567
v -0.01334482 -0.01113593 0.04606567
v -0.01336233 -0.01119047 0.04606567
v -0.01338966 -0.01126074 0.04606567
v -0.01339620 -0.01127568 0.04606567
v -0.01343662 -0.01135684 0.04606567
v -0.01344869 -0.01137815 0.04606567
v -0.01348323 -0.01143360 0.04606567
v -0.01352082 -0.01148645 0.04606567
v -0.01353553 -0.01150538 0.04606567
v -0.01358341 -0.01156142 0.04606567
v -0.01360471 -0.01158394 0.04606567
v -0.01364443 -0.01162257 0.04606567
v -0.01369909 -0.01166945 0.04606567
v -0.01370935 -0.01167753 0.04606567
v -0.01377775 -0.01172621 0.04606567
v -0.01380228 -0.01174165 0.04606567
v -0.01384907 -0.01176843 0.04606567
v -0.01391266 -0.01179963 0.04606567
v -0.01392280 -0.01180408 0.04606567
v -0.01399811 -0.01183297 0.04606567
v -0.01402844 -0.01184261 0.04606567
v -0.01407475 -0.01185523 0.04606567
v -0.01414785 -0.01187016 0.04606567
v -0.01415236 -0.01187089 0.04606567
v -0.01423031 -0.01187994 0.04606567
v -0.03352296 -0.00823892 0.04871390
v -0.03373095 0.00025652 0.04814245
v -0.03373095 -0.00025652 0.04814245
v -0.02988832 0.00053033 0.05869999
v -0.02988832 -0.00053033 0.05869999
v -0.03227985 -0.01222295 0.04513197
v -0.03242791 -0.01220769 0.04513197
v -0.03255193 -0.01218895 0.04513197
v -0.03245816 -0.01220326 0.04513197
v -0.03275275 -0.01215213 0.04513197
v -0.03283125 -0.01213176 0.04513197
v -0.03309094 -0.01204583 0.04513197
v -0.03333653 -0.01193701 0.04513197
v -0.03344861 -0.01187744 0.04513197
v -0.03347638 -0.01186158 0.04513197
v -0.03348749 -0.01185504 0.04513197
v -0.03363237 -0.01176371 0.04513197
v -0.03385683 -0.01159385 0.04513197
v -0.03382978 -0.01161693 0.04513197
v -0.03400432 -0.01146044 0.04513197
v -0.03409885 -0.01136290 0.04513197
v -0.03407703 -0.01138576 0.04513197
v -0.03421547 -0.01122727 0.04513197
v -0.03421797 -0.01122416 0.04513197
v -0.03430752 -0.01110514 0.04513197
v -0.03433647 -0.01106343 0.04513197
v -0.03438290 -0.01099390 0.04513197
v -0.03452583 -0.01074122 0.04513197
v -0.03461312 -0.01054620 0.04513197
v -0.03466664 -0.01040414 0.04513197
v -0.03465336 -0.01044203 0.04513197
v -0.03474095 -0.01014960 0.04513197
v -0.03472893 -0.01019807 0.04513197
v -0.03478339 -0.00994500 0.04513197
v -0.03482667 -0.00941249 0.04513197
v -0.03480045 -0.00983124 0.04513197
v -0.03482667 -0.00399937 0.04513197
v -0.02244205 -0.01224284 0.04513197
v -0.01580388 -0.01221753 0.04513197
v -0.01578785 -0.01221431 0.04513197
v -0.01591130 -0.01223440 0.04513197
v -0.01594070 -0.01223724 0.04513197
v -0.01557542 -0.01213703 0.04513197
v -0.01555266 -0.01212581 0.04513197
v -0.01561360 -0.01215568 0.04513197
v -0.01567003 -0.01217881 0.04513197
v -0.01573943 -0.01220156 0.04513197
v -0.01571650 -0.01219463 0.04513197
v -0.01534888 -0.01198132 0.04513197
v -0.01545800 -0.01206805 0.04513197
v -0.01551577 -0.01210476 0.04513197
v -0.01550233 -0.01209701 0.04513197
v -0.01522043 -0.01183978 0.04513197
v -0.01526597 -0.01189603 0.04513197
v -0.01530475 -0.01193842 0.04513197
v -0.01529812 -0.01193142 0.04513197
v -0.01531893 -0.01195221 0.04513197
v -0.01508908 -0.01161184 0.04513197
v -0.01512094 -0.01168010 0.04513197
v -0.01515696 -0.01174499 0.04513197
v -0.01514871 -0.01173139 0.04513197
v -0.01517844 -0.01177975 0.04513197
v -0.01518322 -0.01178712 0.04513197
v -0.01500204 -0.01123878 0.04513197
v -0.01500930 -0.01131416 0.04513197
v -0.01502941 -0.01142850 0.04513197
v -0.01504959 -0.01150290 0.04513197
v -0.01504483 -0.01148759 0.04513197
v -0.01506541 -0.01155122 0.04513197
v -0.03217333 -0.01222953 0.04513197
v -0.03229681 -0.01222169 0.04513197
v -0.03270037 -0.01216485 0.04513197
v -0.03298634 -0.01208380 0.04513197
v -0.03286458 -0.01212192 0.04513197
v -0.03322692 -0.01198924 0.04513197
v -0.03312522 -0.01203200 0.04513197
v -0.03347463 -0.01186258 0.04513197
v -0.03368589 -0.01172668 0.04513197
v -0.03366568 -0.01174070 0.04513197
v -0.03395550 -0.01150703 0.04513197
v -0.03403112 -0.01143382 0.04513197
v -0.03415618 -0.01129839 0.04513197
v -0.03438552 -0.01098981 0.04513197
v -0.03442554 -0.01092488 0.04513197
v -0.03449823 -0.01079358 0.04513197
v -0.03445523 -0.01087398 0.04513197
v -0.03452849 -0.01073592 0.04513197
v -0.03457228 -0.01064320 0.04513197
v -0.03459174 -0.01059867 0.04513197
v -0.03476050 -0.01006437 0.04513197
v -0.03476246 -0.01005552 0.04513197
v -0.03479019 -0.00989999 0.04513197
v -0.03481612 -0.00968458 0.04513197
v -0.03200675 -0.01223511 0.04513197
v -0.01500000 -0.01118999 0.04513197
v -0.01584578 -0.01222584 0.04513197
v -0.01567595 -0.01218094 0.04513197
v -0.01540228 -0.01202689 0.04513197
v -0.01544972 -0.01206244 0.04513197
v -0.01549346 -0.01209140 0.04513197
v -0.01527012 -0.01190061 0.04513197
v -0.01500608 -0.01128940 0.04513197
v -0.01501436 -0.01135195 0.04513197
v -0.01506172 -0.01154051 0.04513197
v -0.01600000 -0.01224284 0.04513197
v -0.01420883 -0.00915625 0.06019273
v -0.01408783 -0.00913757 0.06019273
v -0.01409189 -0.00913837 0.06019273
v -0.01414569 -0.00914839 0.06019273
v -0.01375518 -0.00899809 0.06019273
v -0.01380220 -0.00902716 0.06019273
v -0.01380806 -0.00903030 0.06019273
v -0.01390911 -0.00908046 0.06019273
v -0.01369911 -0.00895891 0.06019273
v -0.01374737 -0.00899311 0.06019273
v -0.01356144 -0.00883323 0.06019273
v -0.01341747 -0.00862843 0.06019273
v -0.01344715 -0.00868047 0.06019273
v -0.01332801 -0.00839218 0.06019273
v -0.01332873 -0.00839504 0.06019273
v -0.01334361 -0.00844926 0.06019273
v -0.01430000 -0.00916191 0.06019273
v -0.02933477 -0.00649730 0.06019273
v -0.02933523 -0.00648666 0.06019273
v -0.02923334 -0.00704375 0.06019273
v -0.02918978 -0.00718046 0.06019273
v -0.02913868 -0.00731622 0.06019273
v -0.02907997 -0.00745048 0.06019273
v -0.02893979 -0.00771232 0.06019273
v -0.02885849 -0.00783881 0.06019273
v -0.02857209 -0.00819412 0.06019273
v -0.02931994 -0.00663291 0.06019273
v -0.02655308 -0.00914397 0.06019273
v -0.02713215 -0.00903961 0.06019273
v -0.02669683 -0.00912792 0.06019273
v -0.02846342 -0.00830285 0.06019273
v -0.02770268 -0.00882475 0.06019273
v -0.02756205 -0.00888876 0.06019273
v -0.02756275 -0.00888848 0.06019273
v -0.02822859 -0.00850312 0.06019273
v -0.02810337 -0.00859393 0.06019273
v -0.02783989 -0.00875542 0.06019273
v -0.02929824 -0.00676948 0.06019273
v -0.02934500 -0.00221647 0.06019273
v -0.02934500 -0.00625619 0.06019273
v -0.02934500 -0.00616526 0.06019273
v -0.01402987 -0.00912309 0.06019273
v -0.01414786 -0.00914874 0.06019273
v -0.01385671 -0.00905637 0.06019273
v -0.01385901 -0.00905748 0.06019273
v -0.01391753 -0.00908395 0.06019273
v -0.01396886 -0.00910377 0.06019273
v -0.01397001 -0.00910418 0.06019273
v -0.01365155 -0.00892067 0.06019273
v -0.01370216 -0.00896113 0.06019273
v -0.01374971 -0.00899470 0.06019273
v -0.01352240 -0.00878756 0.06019273
v -0.01356499 -0.00883695 0.06019273
v -0.01360359 -0.00887686 0.06019273
v -0.01360474 -0.00887799 0.06019273
v -0.01339018 -0.00857292 0.06019273
v -0.01341940 -0.00863191 0.06019273
v -0.01345237 -0.00868868 0.06019273
v -0.01348305 -0.00873534 0.06019273
v -0.01348321 -0.00873557 0.06019273
v -0.01331509 -0.00832998 0.06019273
v -0.01334664 -0.00845886 0.06019273
v -0.01336487 -0.00851195 0.06019273
v -0.01336540 -0.00851339 0.06019273
v -0.01330000 -0.00815623 0.06019273
v -0.01330016 -0.00816240 0.06019273
v -0.01330581 -0.00826402 0.06019273
v -0.01330607 -0.00826669 0.06019273
v -0.01424562 -0.00915946 0.06019273
v -0.02926944 -0.00690659 0.06019273
v -0.02901365 -0.00758270 0.06019273
v -0.02876994 -0.00796161 0.06019273
v -0.02867438 -0.00808021 0.06019273
v -0.02698686 -0.00907593 0.06019273
v -0.02727693 -0.00899621 0.06019273
v -0.02684158 -0.00910531 0.06019273
v -0.02770052 -0.00882574 0.06019273
v -0.02834877 -0.00840598 0.06019273
v -0.02797362 -0.00867811 0.06019273
v -0.02742063 -0.00894566 0.06019273
v -0.02627182 -0.00916932 0.06019273
v -0.01468328 -0.00916718 0.06019273
v -0.01330000 0.00178179 0.04606567
v -0.03397568 0.00178179 0.04747005
v -0.03482667 0.00178179 0.04513197
v -0.02953639 0.00178179 0.05966691
v -0.01330000 0.00178179 0.06019273
v -0.02934500 0.00178179 0.06019273
v -0.01500000 0.00178179 0.04513197
f 66 176 32
f 221 68 220
f 220 68 66
f 66 33 220
f 32 36 34
f 34 33 66
f 66 32 34
f 124 176 66
f 217 125 69
f 69 136 217
f 177 175 36
f 177 32 176
f 177 36 32
f 222 175 224
f 36 175 222
f 222 35 36
f 33 35 222
f 222 220 33
f 164 38 102
f 102 217 164
f 37 217 102
f 125 217 101
f 101 217 37
f 218 217 136
f 64 61 156
f 154 124 67
f 209 52 162
f 153 136 205
f 153 218 136
f 158 120 119
f 65 122 174
f 157 156 61
f 61 62 157
f 157 62 158
f 163 154 67
f 163 65 174
f 176 124 155
f 124 154 155
f 58 57 161
f 11 90 10
f 9 192 10
f 158 119 159
f 160 58 161
f 207 117 160
f 60 120 158
f 158 62 60
f 206 121 63
f 206 63 64
f 64 156 206
f 122 121 206
f 174 122 206
f 123 163 67
f 65 163 123
f 112 167 162
f 51 167 112
f 56 208 161
f 161 57 56
f 48 215 172
f 171 109 172
f 50 109 171
f 111 167 51
f 168 44 106
f 173 44 168
f 47 215 48
f 147 17 16
f 89 100 9
f 89 10 90
f 9 10 89
f 99 97 6
f 126 1 2
f 2 1 201
f 6 97 5
f 118 159 119
f 207 159 118
f 59 207 118
f 116 207 59
f 116 117 207
f 58 160 114
f 115 160 117
f 115 114 160
f 162 52 53
f 53 112 162
f 209 208 54
f 48 172 110
f 110 172 109
f 214 50 171
f 49 50 214
f 214 111 49
f 167 111 214
f 46 173 215
f 215 47 46
f 9 100 8
f 181 24 180
f 15 16 85
f 190 191 17
f 196 14 13
f 13 195 196
f 29 30 127
f 179 30 29
f 29 140 179
f 144 24 181
f 178 27 184
f 183 184 26
f 26 184 27
f 126 2 95
f 3 133 95
f 95 2 3
f 202 2 201
f 4 3 204
f 4 133 3
f 197 4 204
f 5 4 197
f 208 56 55
f 55 54 208
f 52 209 113
f 209 54 113
f 44 173 45
f 104 211 216
f 104 216 43
f 107 170 106
f 43 216 169
f 169 107 43
f 170 107 169
f 168 106 213
f 106 170 213
f 165 41 210
f 166 38 164
f 212 39 166
f 6 152 7
f 7 99 6
f 200 192 9
f 9 8 200
f 135 8 100
f 23 180 24
f 87 16 17
f 84 14 15
f 15 85 84
f 13 14 84
f 189 17 147
f 189 190 17
f 19 185 145
f 19 145 20
f 15 14 188
f 14 196 188
f 147 16 188
f 188 16 15
f 11 10 148
f 148 10 192
f 12 149 13
f 194 195 13
f 13 149 194
f 72 30 31
f 72 127 30
f 139 140 29
f 29 138 139
f 28 138 29
f 29 71 28
f 178 138 28
f 28 27 178
f 28 71 78
f 78 27 28
f 31 30 137
f 30 179 137
f 137 72 31
f 205 136 137
f 183 26 25
f 24 144 25
f 25 76 24
f 79 27 78
f 79 26 27
f 24 76 74
f 74 23 24
f 75 23 74
f 2 202 203
f 204 3 203
f 3 2 203
f 134 5 97
f 134 4 5
f 6 5 150
f 5 197 150
f 173 46 108
f 108 45 173
f 165 211 105
f 211 104 105
f 212 210 103
f 103 210 41
f 103 39 212
f 38 166 40
f 40 166 39
f 198 7 152
f 8 7 198
f 99 7 98
f 98 7 8
f 8 135 98
f 146 187 21
f 142 23 22
f 22 141 142
f 187 141 22
f 21 187 22
f 143 23 142
f 180 23 143
f 132 85 16
f 16 87 132
f 93 12 13
f 185 19 18
f 191 185 18
f 17 191 18
f 149 12 193
f 11 148 193
f 193 12 11
f 29 127 70
f 70 71 29
f 73 137 136
f 72 137 73
f 183 25 182
f 182 25 144
f 76 25 77
f 77 25 26
f 133 4 96
f 4 134 96
f 151 152 6
f 6 150 151
f 42 41 165
f 165 105 42
f 199 200 8
f 8 198 199
f 186 146 21
f 20 145 186
f 186 21 20
f 131 21 83
f 21 22 83
f 13 84 94
f 94 93 13
f 92 90 11
f 11 12 92
f 17 18 88
f 129 19 20
f 20 21 130
f 130 129 20
f 26 79 128
f 128 77 26
f 82 83 22
f 82 23 75
f 82 22 23
f 12 93 91
f 91 92 12
f 86 87 17
f 17 88 86
f 80 18 19
f 19 129 80
f 80 88 18
f 81 21 131
f 81 130 21
f 36 35 34
f 34 35 33
f 222 224 223
f 225 221 222
f 222 219 225
f 223 219 222
f 221 220 222
f 225 219 1
f 1 126 225
f 223 201 1
f 1 219 223
f 223 224 186
f 186 201 223
f 162 167 186
f 165 210 186
f 145 185 186
f 186 163 174
f 164 217 186
f 171 172 186
f 224 175 186
f 186 177 176
f 186 153 205
f 178 184 186
f 186 209 162
f 186 169 216
f 175 177 186
f 217 218 186
f 186 160 161
f 186 157 158
f 176 155 186
f 161 208 186
f 181 180 186
f 218 153 186
f 158 159 186
f 156 157 186
f 154 163 186
f 186 155 154
f 186 208 209
f 174 206 186
f 140 139 186
f 186 173 168
f 186 211 165
f 205 137 186
f 186 138 178
f 186 159 207
f 207 160 186
f 186 206 156
f 186 172 215
f 215 173 186
f 186 214 171
f 186 166 164
f 192 200 186
f 186 198 152
f 186 189 147
f 147 188 186
f 186 144 181
f 167 214 186
f 216 211 186
f 186 197 204
f 168 213 186
f 142 141 186
f 191 190 186
f 186 185 191
f 186 196 195
f 186 148 192
f 195 194 186
f 186 179 140
f 149 193 186
f 186 184 183
f 186 202 201
f 204 203 186
f 170 169 186
f 186 213 170
f 186 210 212
f 212 166 186
f 183 182 186
f 200 199 186
f 190 189 186
f 186 188 196
f 186 143 142
f 186 194 149
f 186 139 138
f 186 137 179
f 186 203 202
f 186 150 197
f 152 151 186
f 187 146 186
f 186 141 187
f 180 143 186
f 186 193 148
f 186 182 144
f 186 151 150
f 186 199 198
f 225 126 81
f 81 221 225
f 66 68 81
f 125 101 81
f 81 116 59
f 69 125 81
f 81 136 69
f 81 68 221
f 81 61 64
f 81 124 66
f 81 123 67
f 81 47 48
f 52 113 81
f 67 124 81
f 81 102 38
f 85 132 81
f 114 115 81
f 37 102 81
f 81 101 37
f 81 94 84
f 81 119 120
f 64 63 81
f 81 121 122
f 81 115 117
f 81 55 56
f 81 104 43
f 97 99 81
f 41 42 81
f 81 62 61
f 120 60 81
f 122 65 81
f 81 50 49
f 57 58 81
f 81 53 52
f 49 111 81
f 43 107 81
f 81 89 90
f 59 118 81
f 81 60 62
f 63 121 81
f 65 123 81
f 51 112 81
f 81 56 57
f 109 50 81
f 81 111 51
f 81 106 44
f 48 110 81
f 44 45 81
f 78 71 81
f 100 89 81
f 81 103 41
f 81 74 76
f 81 118 119
f 117 116 81
f 58 114 81
f 112 53 81
f 126 95 81
f 81 110 109
f 81 46 47
f 81 135 100
f 81 70 127
f 81 79 78
f 81 95 133
f 54 55 81
f 81 113 54
f 81 134 97
f 81 108 46
f 81 107 106
f 133 96 81
f 38 40 81
f 99 98 81
f 81 84 85
f 127 72 81
f 88 80 81
f 81 73 136
f 75 74 81
f 76 77 81
f 45 108 81
f 81 105 104
f 39 103 81
f 81 40 39
f 81 98 135
f 81 132 87
f 131 83 81
f 90 92 81
f 71 70 81
f 72 73 81
f 129 130 81
f 81 96 134
f 81 42 105
f 81 128 79
f 93 94 81
f 81 82 75
f 81 91 93
f 87 86 81
f 77 128 81
f 83 82 81
f 92 91 81
f 81 86 88
f 81 80 129

