# https://github.com/mikedh/trimesh
v 0.01186637 0.02767461 0.00594971
v 0.01180447 0.02770684 0.00594971
v 0.01173999 0.02773354 0.00594971
v 0.01173999 0.02773354 0.00595099
v 0.01167343 0.02775453 0.00594971
v 0.01167343 0.02775453 0.00595099
v 0.01160529 0.02776963 0.00594971
v 0.01160529 0.02776963 0.00595099
v 0.01153610 0.02777874 0.00594971
v 0.01153610 0.02777874 0.00595099
v 0.01146637 0.02778179 0.00594971
v 0.01146637 0.02778179 0.00595099
v 0.00283411 0.02778179 0.01194970
v 0.01144072 0.02778179 0.01194970
v 0.01151045 0.02777874 0.01194970
v 0.01157964 0.02776963 0.01194970
v 0.01164778 0.02775453 0.01194970
v 0.01184072 0.02767461 0.01194970
v 0.01177882 0.02770683 0.01194970
v 0.01171434 0.02773354 0.01194970
v -0.01275830 0.02351609 0.00820176
v -0.01341620 0.02331148 0.00820176
v -0.01341666 0.02331131 0.01227404
v -0.01329423 0.02335414 0.01222406
v -0.01312887 0.02340850 0.01217090
v -0.01295951 0.02346008 0.01213228
v -0.01318060 0.02339192 0.00820196
v -0.01278744 0.02350833 0.01210851
v -0.01360805 0.02323984 0.01237233
v -0.01345436 0.02329767 0.01229138
v -0.01377881 0.02317130 0.00820102
v -0.01371898 0.02014607 0.00264971
v -0.01343619 0.02032754 0.00264971
v -0.01315458 0.02048414 0.00264971
v -0.01285953 0.02062527 0.00264971
v -0.01255286 0.02074938 0.00264971
v -0.01223668 0.02085513 0.00264971
v -0.01191341 0.02094138 0.00264971
v -0.01158567 0.02100726 0.00264971
v -0.01125615 0.02105229 0.00264971
v -0.01092751 0.02107631 0.00264971
v -0.01071366 0.02108074 0.00264971
v -0.01610737 0.01850139 0.00264971
v -0.03520000 0.01243197 0.00894970
v -0.03318058 0.01576025 0.00894970
v -0.03333843 0.01569027 0.00894970
v -0.03339456 0.01566246 0.00894970
v -0.03348757 0.01561284 0.00894970
v -0.03360603 0.01554294 0.00894970
v -0.03381385 0.01540066 0.00894970
v -0.03390521 0.01532941 0.00894970
v -0.03401657 0.01523458 0.00894970
v -0.03415569 0.01510244 0.00894970
v -0.03421262 0.01504349 0.00894970
v -0.03427168 0.01497905 0.00894970
v -0.03439819 0.01482848 0.00894970
v -0.03448396 0.01471523 0.00894970
v -0.03454566 0.01462737 0.00894970
v -0.03463984 0.01448103 0.00894970
v -0.03470659 0.01436679 0.00894970
v -0.03484945 0.01408376 0.00894970
v -0.03519779 0.01256678 0.00894970
v -0.03518438 0.01279045 0.00894970
v -0.03516619 0.01295876 0.00894970
v -0.03514048 0.01312963 0.00894970
v -0.03510326 0.01331879 0.00894970
v -0.03506887 0.01346151 0.00894970
v -0.03500834 0.01367028 0.00894970
v -0.03497116 0.01378079 0.00894970
v -0.03493569 0.01387712 0.00894970
v -0.03415324 0.01509923 0.00880305
v -0.03333457 0.01568821 0.00880328
v -0.03318049 0.01575628 0.00880326
v -0.03317324 0.01574653 0.00865672
v -0.03316316 0.01572935 0.00851046
v -0.03315035 0.01570492 0.00836485
v -0.03313488 0.01567341 0.00822026
v -0.03311682 0.01563499 0.00807708
v -0.03309625 0.01558983 0.00793566
v -0.03307327 0.01553810 0.00779639
v -0.03304793 0.01547999 0.00765963
v -0.03302032 0.01541565 0.00752577
v -0.03299052 0.01534526 0.00739518
v -0.03295861 0.01526899 0.00726822
v -0.03332738 0.01567867 0.00865673
v -0.03331694 0.01566184 0.00851044
v -0.03330334 0.01563789 0.00836477
v -0.03328666 0.01560700 0.00822012
v -0.03326699 0.01556933 0.00807685
v -0.03324441 0.01552505 0.00793534
v -0.03321901 0.01547435 0.00779596
v -0.03319087 0.01541739 0.00765910
v -0.03316008 0.01535434 0.00752513
v -0.03312673 0.01528538 0.00739442
v -0.03309089 0.01521068 0.00726735
v -0.03305265 0.01513041 0.00714430
v -0.03348414 0.01561065 0.00880328
v -0.03347702 0.01560126 0.00865673
v -0.03346624 0.01558476 0.00851043
v -0.03345191 0.01556132 0.00836475
v -0.03343411 0.01553112 0.00822007
v -0.03341293 0.01549432 0.00807677
v -0.03338847 0.01545110 0.00793523
v -0.03336079 0.01540162 0.00779582
v -0.03333002 0.01534607 0.00765892
v -0.03329622 0.01528460 0.00752491
v -0.03325948 0.01521739 0.00739417
v -0.03321991 0.01514461 0.00726707
v -0.03317759 0.01506644 0.00714399
v -0.03313260 0.01498303 0.00702531
v -0.03296932 0.01495386 0.00691176
v -0.03303499 0.01480123 0.00680264
v -0.03298255 0.01470317 0.00669941
v -0.03292780 0.01460057 0.00660209
v -0.03353994 0.01429291 0.00671524
v -0.03361600 0.01421522 0.00672085
v -0.03369883 0.01428300 0.00682303
v -0.03334398 0.01399346 0.00644897
v -0.03349942 0.01400106 0.00653727
v -0.03343835 0.01407027 0.00653357
v -0.03356262 0.01404691 0.00659715
v -0.03352913 0.01414427 0.00662426
v -0.03345661 0.01421650 0.00661846
v -0.03337884 0.01428723 0.00661353
v -0.03329584 0.01420219 0.00652268
v -0.03321781 0.01426581 0.00651856
v -0.03313629 0.01417244 0.00643403
v -0.03318540 0.01396916 0.00636492
v -0.03327895 0.01405428 0.00644312
v -0.03336950 0.01413686 0.00652769
v -0.03289096 0.01370238 0.00616992
v -0.03298660 0.01362906 0.00618017
v -0.03299099 0.01379284 0.00622819
v -0.03306440 0.01368550 0.00622185
v -0.03308926 0.01388189 0.00629323
v -0.03324158 0.01381403 0.00633221
v -0.03330359 0.01385901 0.00637633
v -0.03340673 0.01393383 0.00645676
v -0.03301210 0.01504475 0.00702565
v -0.03308504 0.01489458 0.00691140
v -0.03314266 0.01473903 0.00680309
v -0.03308501 0.01464419 0.00669989
v -0.03302473 0.01454498 0.00660260
v -0.03287810 0.01387812 0.00622042
v -0.03296598 0.01397809 0.00628480
v -0.03305220 0.01407636 0.00635606
v -0.03287698 0.01354956 0.00612794
v -0.03278942 0.01361072 0.00611844
v -0.03275919 0.01346411 0.00607982
v -0.03305041 0.01438598 0.00651299
v -0.03297954 0.01428309 0.00642848
v -0.03290658 0.01417729 0.00635063
v -0.03435584 0.01482730 0.00851025
v -0.03446559 0.01470191 0.00859103
v -0.03437006 0.01483957 0.00865618
v -0.03447543 0.01470905 0.00870559
v -0.03437851 0.01484709 0.00880277
v -0.03447914 0.01471174 0.00876642
v -0.03433597 0.01481038 0.00836532
v -0.03445138 0.01469160 0.00847171
v -0.03445640 0.01469524 0.00851014
v -0.03420231 0.01469831 0.00780209
v -0.03431830 0.01459507 0.00787580
v -0.03424362 0.01473277 0.00793977
v -0.03435390 0.01462089 0.00799646
v -0.03427975 0.01476301 0.00807975
v -0.03437607 0.01463697 0.00808069
v -0.03431057 0.01478892 0.00822171
v -0.03441104 0.01466234 0.00823453
v -0.03443531 0.01467995 0.00836546
v -0.03415592 0.01465972 0.00766705
v -0.03427983 0.01456716 0.00776036
v -0.03429494 0.01457812 0.00780413
v -0.03392195 0.01446624 0.00715978
v -0.03402270 0.01438065 0.00719849
v -0.03398748 0.01452026 0.00728101
v -0.03408282 0.01442425 0.00730763
v -0.03404839 0.01457059 0.00740618
v -0.03413444 0.01446170 0.00741011
v -0.03410458 0.01461711 0.00753497
v -0.03418917 0.01450140 0.00752955
v -0.03424649 0.01454298 0.00766973
v -0.03359611 0.01407120 0.00663066
v -0.03371193 0.01415521 0.00675702
v -0.03377173 0.01419859 0.00682925
v -0.03382943 0.01424044 0.00690400
v -0.03377751 0.01434750 0.00693046
v -0.03385323 0.01425771 0.00693639
v -0.03385192 0.01440861 0.00704282
v -0.03396227 0.01433681 0.00709808
v -0.03400303 0.01436637 0.00716485
v -0.03320945 0.01442216 0.00660629
v -0.03329629 0.01435595 0.00660947
v -0.03337142 0.01444250 0.00670654
v -0.03345825 0.01436885 0.00671046
v -0.03353396 0.01444690 0.00681314
v -0.03361938 0.01436595 0.00681769
v -0.03360584 0.01452125 0.00692122
v -0.03369481 0.01443551 0.00692546
v -0.03367381 0.01459177 0.00703433
v -0.03376613 0.01450146 0.00703823
v -0.03373776 0.01465833 0.00715213
v -0.03383322 0.01456368 0.00715565
v -0.03379757 0.01472078 0.00727426
v -0.03389598 0.01462206 0.00727737
v -0.03385315 0.01477901 0.00740038
v -0.03395430 0.01467647 0.00740305
v -0.03390440 0.01483287 0.00753013
v -0.03400807 0.01472680 0.00753236
v -0.03395121 0.01488223 0.00766315
v -0.03405717 0.01477291 0.00766496
v -0.03399347 0.01492696 0.00779910
v -0.03410151 0.01481471 0.00780049
v -0.03403108 0.01496693 0.00793763
v -0.03414097 0.01485205 0.00793862
v -0.03406393 0.01500200 0.00807837
v -0.03417544 0.01488483 0.00807902
v -0.03409193 0.01503203 0.00822098
v -0.03420482 0.01491292 0.00822133
v -0.03411496 0.01505691 0.00836511
v -0.03422900 0.01493620 0.00836522
v -0.03413293 0.01507649 0.00851039
v -0.03424786 0.01495456 0.00851034
v -0.03414572 0.01509064 0.00865649
v -0.03426130 0.01496787 0.00865635
v -0.03426921 0.01497602 0.00880292
v -0.03403093 0.01521619 0.00880314
v -0.03390256 0.01532636 0.00880321
v -0.03402366 0.01520730 0.00865659
v -0.03389544 0.01531728 0.00865666
v -0.03401140 0.01519248 0.00851042
v -0.03388362 0.01530191 0.00851043
v -0.03399424 0.01517186 0.00836500
v -0.03386720 0.01528042 0.00836490
v -0.03397228 0.01514560 0.00822068
v -0.03384628 0.01525295 0.00822042
v -0.03394563 0.01511383 0.00807782
v -0.03382096 0.01521966 0.00807737
v -0.03391438 0.01507671 0.00793679
v -0.03379133 0.01518071 0.00793612
v -0.03387864 0.01503437 0.00779795
v -0.03375750 0.01513624 0.00779703
v -0.03383851 0.01498696 0.00766166
v -0.03371956 0.01508641 0.00766048
v -0.03379408 0.01493463 0.00752828
v -0.03367761 0.01503138 0.00752683
v -0.03374547 0.01487751 0.00739817
v -0.03363175 0.01497129 0.00739644
v -0.03369276 0.01481576 0.00727170
v -0.03358208 0.01490631 0.00726970
v -0.03363607 0.01474951 0.00714923
v -0.03352869 0.01483658 0.00714696
v -0.03357549 0.01467892 0.00703112
v -0.03347168 0.01476226 0.00702860
v -0.03351112 0.01460412 0.00691772
v -0.03341115 0.01468351 0.00691498
v -0.03344306 0.01452527 0.00680941
v -0.03334721 0.01460047 0.00680648
v -0.03327994 0.01451330 0.00670346
v -0.03318430 0.01458072 0.00670125
v -0.03311877 0.01448534 0.00660400
v -0.03376843 0.01542919 0.00880325
v -0.03362887 0.01552413 0.00880327
v -0.03376137 0.01541998 0.00865670
v -0.03362179 0.01551484 0.00865672
v -0.03374993 0.01540418 0.00851043
v -0.03361069 0.01549867 0.00851043
v -0.03373422 0.01538194 0.00836482
v -0.03359566 0.01547579 0.00836477
v -0.03371432 0.01535343 0.00822023
v -0.03357680 0.01544637 0.00822011
v -0.03369034 0.01531881 0.00807704
v -0.03355419 0.01541058 0.00807684
v -0.03366237 0.01527823 0.00793563
v -0.03352793 0.01536859 0.00793533
v -0.03363051 0.01523187 0.00779637
v -0.03349812 0.01532056 0.00779596
v -0.03359484 0.01517988 0.00765962
v -0.03346483 0.01526666 0.00765910
v -0.03355548 0.01512242 0.00752577
v -0.03342818 0.01520706 0.00752513
v -0.03351251 0.01505966 0.00739519
v -0.03338825 0.01514192 0.00739443
v -0.03346603 0.01499175 0.00726825
v -0.03334513 0.01507141 0.00726737
v -0.03341613 0.01491886 0.00714533
v -0.03329892 0.01499570 0.00714433
v -0.03336291 0.01484115 0.00702679
v -0.03324971 0.01491496 0.00702569
v -0.03330647 0.01475878 0.00691302
v -0.03319759 0.01482935 0.00691182
v -0.03324690 0.01467192 0.00680438
v -0.03519185 0.01256658 0.00876642
v -0.03518524 0.01270099 0.00876642
v -0.03516853 0.01269990 0.00859103
v -0.03506715 0.01344495 0.00876642
v -0.03500317 0.01366862 0.00876642
v -0.03498721 0.01366352 0.00859103
v -0.03462085 0.01446948 0.00859103
v -0.03451034 0.01463890 0.00859103
v -0.03448732 0.01462299 0.00841327
v -0.03441259 0.01457134 0.00805452
v -0.03414827 0.01438863 0.00735917
v -0.03386275 0.01419124 0.00690261
v -0.03364449 0.01404033 0.00664870
v -0.03314747 0.01369662 0.00625679
v -0.03300737 0.01359971 0.00618017
v -0.03519991 0.01243197 0.00892614
v -0.03517511 0.01256603 0.00859103
v -0.03518669 0.01243197 0.00866738
v -0.03519439 0.01243197 0.00876641
v -0.03514715 0.01256512 0.00841327
v -0.03515119 0.01243197 0.00841072
v -0.03506289 0.01243197 0.00805311
v -0.03509367 0.01243197 0.00815808
v -0.03510764 0.01256383 0.00823409
v -0.03511321 0.01243197 0.00823331
v -0.03328143 0.01378926 0.00634242
v -0.03375668 0.01411791 0.00677122
v -0.03429904 0.01449286 0.00769933
v -0.03445480 0.01460052 0.00823409
v -0.03452412 0.01464842 0.00876642
v -0.03458318 0.01456067 0.00876642
v -0.03463516 0.01447819 0.00876642
v -0.03473531 0.01430243 0.00876642
v -0.03488461 0.01398919 0.00876642
v -0.03483257 0.01410697 0.00876642
v -0.03481735 0.01409996 0.00859103
v -0.03472054 0.01429453 0.00859103
v -0.03469586 0.01428133 0.00841327
v -0.03459694 0.01445493 0.00841327
v -0.03456317 0.01443437 0.00823409
v -0.03496903 0.01377071 0.00876642
v -0.03493062 0.01387519 0.00876642
v -0.03491497 0.01386920 0.00859103
v -0.03486917 0.01398270 0.00859103
v -0.03484337 0.01397186 0.00841327
v -0.03479195 0.01408824 0.00841327
v -0.03475604 0.01407169 0.00823409
v -0.03466100 0.01426269 0.00823409
v -0.03461576 0.01423849 0.00805452
v -0.03451933 0.01440768 0.00805452
v -0.03446537 0.01437483 0.00787580
v -0.03436064 0.01453543 0.00787580
v -0.03488884 0.01385919 0.00841327
v -0.03480692 0.01395654 0.00823409
v -0.03470945 0.01405020 0.00805452
v -0.03456006 0.01420870 0.00787580
v -0.03440141 0.01433589 0.00769933
v -0.03422809 0.01444382 0.00752661
v -0.03275470 0.01285239 0.00601286
v -0.03509756 0.01331753 0.00876642
v -0.03505092 0.01344079 0.00859103
v -0.03496056 0.01365500 0.00841327
v -0.03485191 0.01384505 0.00823409
v -0.03475961 0.01393665 0.00805452
v -0.03465209 0.01402375 0.00787580
v -0.03449403 0.01417339 0.00769933
v -0.03432772 0.01429103 0.00752661
v -0.03295928 0.01278376 0.00605750
v -0.03277756 0.01274950 0.00601286
v -0.03516040 0.01295802 0.00876642
v -0.03512336 0.01319181 0.00876642
v -0.03510690 0.01318871 0.00859103
v -0.03508121 0.01331390 0.00859103
v -0.03505389 0.01330785 0.00841327
v -0.03502382 0.01343385 0.00841327
v -0.03498552 0.01342404 0.00823409
v -0.03492289 0.01364296 0.00823409
v -0.03487401 0.01362734 0.00805452
v -0.03480399 0.01382670 0.00805452
v -0.03474499 0.01380410 0.00787580
v -0.03458409 0.01399239 0.00769933
v -0.03441798 0.01413271 0.00752661
v -0.03424482 0.01424055 0.00735917
v -0.03406022 0.01432777 0.00719849
v -0.03334530 0.01258048 0.00618017
v -0.03315638 0.01269958 0.00611348
v -0.03316903 0.01256893 0.00611348
v -0.03297630 0.01267636 0.00605750
v -0.03298786 0.01255706 0.00605750
v -0.03279290 0.01265271 0.00601286
v -0.03280333 0.01254498 0.00601286
v -0.03272920 0.01294122 0.00601286
v -0.03290534 0.01299759 0.00605750
v -0.03293382 0.01289831 0.00605750
v -0.03310971 0.01294339 0.00611348
v -0.03313771 0.01281741 0.00611348
v -0.03331130 0.01285015 0.00618017
v -0.03333158 0.01272218 0.00618017
v -0.03350054 0.01274396 0.00625679
v -0.03351528 0.01259161 0.00625679
v -0.03367780 0.01260225 0.00634242
v -0.03287389 0.01308707 0.00605750
v -0.03307828 0.01305294 0.00611348
v -0.03328083 0.01298724 0.00618017
v -0.03347870 0.01288171 0.00625679
v -0.03366207 0.01276480 0.00634242
v -0.03383195 0.01261235 0.00643612
v -0.03283281 0.01318437 0.00605750
v -0.03304344 0.01315208 0.00611348
v -0.03324655 0.01310678 0.00618017
v -0.03344585 0.01302954 0.00625679
v -0.03363876 0.01291189 0.00634242
v -0.03381528 0.01278455 0.00643612
v -0.03397749 0.01262188 0.00653727
v -0.03286209 0.01349922 0.00611348
v -0.03306007 0.01351881 0.00618017
v -0.03320555 0.01360746 0.00625679
v -0.03325948 0.01351296 0.00625679
v -0.03340310 0.01358980 0.00634242
v -0.03346064 0.01347411 0.00634242
v -0.03360092 0.01353883 0.00643612
v -0.03366386 0.01338990 0.00643612
v -0.03380008 0.01344210 0.00653727
v -0.03385006 0.01329987 0.00653727
v -0.03398445 0.01334286 0.00664870
v -0.03403124 0.01317955 0.00664870
v -0.03416337 0.01321341 0.00677122
v -0.03420658 0.01301896 0.00677122
v -0.03433329 0.01304285 0.00690261
v -0.03436303 0.01285519 0.00690261
v -0.03448601 0.01287105 0.00704592
v -0.03450676 0.01265655 0.00704592
v -0.03462257 0.01266414 0.00719849
v -0.03334465 0.01369223 0.00634242
v -0.03353932 0.01366268 0.00643612
v -0.03373337 0.01359994 0.00653727
v -0.03393184 0.01349259 0.00664870
v -0.03411439 0.01338442 0.00677122
v -0.03428829 0.01324541 0.00690261
v -0.03445515 0.01306583 0.00704592
v -0.03460112 0.01288589 0.00719849
v -0.03472937 0.01267113 0.00735917
v -0.03347659 0.01377262 0.00643612
v -0.03366793 0.01373149 0.00653727
v -0.03386147 0.01365905 0.00664870
v -0.03405923 0.01354140 0.00677122
v -0.03423722 0.01342371 0.00690261
v -0.03440841 0.01327619 0.00704592
v -0.03456920 0.01308733 0.00719849
v -0.03470727 0.01289958 0.00735917
v -0.03482619 0.01267747 0.00752661
v -0.03500039 0.01243197 0.00787369
v -0.03498696 0.01268801 0.00787580
v -0.03491225 0.01268311 0.00769933
v -0.03488905 0.01292303 0.00769933
v -0.03480352 0.01291199 0.00752661
v -0.03476975 0.01312514 0.00752661
v -0.03467439 0.01310716 0.00735917
v -0.03462454 0.01333156 0.00735917
v -0.03452085 0.01330500 0.00719849
v -0.03446592 0.01349685 0.00719849
v -0.03435536 0.01346149 0.00704592
v -0.03429548 0.01363192 0.00704592
v -0.03417966 0.01358755 0.00690261
v -0.03410244 0.01377021 0.00690261
v -0.03398534 0.01371619 0.00677122
v -0.03391261 0.01386238 0.00677122
v -0.03379233 0.01379804 0.00664870
v -0.03372166 0.01392192 0.00664870
v -0.03360116 0.01384851 0.00653727
v -0.03352845 0.01396009 0.00653727
v -0.03340849 0.01387713 0.00643612
v -0.03517488 0.01282902 0.00876642
v -0.03514379 0.01295588 0.00859103
v -0.03511604 0.01295230 0.00841327
v -0.03507941 0.01318353 0.00841327
v -0.03504056 0.01317620 0.00823409
v -0.03299162 0.01243197 0.00605603
v -0.03323835 0.01243197 0.00613513
v -0.03335061 0.01243197 0.00617913
v -0.03347734 0.01243197 0.00623522
v -0.03352086 0.01243197 0.00625613
v -0.03370680 0.01243197 0.00635556
v -0.03383780 0.01243197 0.00643622
v -0.03392502 0.01243197 0.00649526
v -0.03398356 0.01243197 0.00653746
v -0.03413037 0.01243197 0.00665325
v -0.03279342 0.01326358 0.00605750
v -0.03299767 0.01326046 0.00611348
v -0.03320841 0.01321532 0.00618017
v -0.03340882 0.01315871 0.00625679
v -0.03360363 0.01306997 0.00634242
v -0.03379057 0.01294052 0.00643612
v -0.03395994 0.01280321 0.00653727
v -0.03411826 0.01263111 0.00664870
v -0.03432132 0.01243197 0.00682838
v -0.03275415 0.01333235 0.00605750
v -0.03295351 0.01334925 0.00611348
v -0.03315807 0.01333448 0.00618017
v -0.03336749 0.01327630 0.00625679
v -0.03356396 0.01320834 0.00634242
v -0.03375328 0.01310832 0.00643612
v -0.03393390 0.01296754 0.00653727
v -0.03409986 0.01282125 0.00664870
v -0.03425436 0.01264002 0.00677122
v -0.03439169 0.01243197 0.00690117
v -0.03290920 0.01342686 0.00611348
v -0.03310928 0.01343260 0.00618017
v -0.03331275 0.01340586 0.00625679
v -0.03351959 0.01333460 0.00634242
v -0.03371112 0.01325542 0.00643612
v -0.03389457 0.01314453 0.00653727
v -0.03407254 0.01299368 0.00664870
v -0.03423514 0.01283870 0.00677122
v -0.03438303 0.01264845 0.00690261
v -0.03449645 0.01243197 0.00701934
v -0.03451682 0.01243197 0.00704384
v -0.03465445 0.01243197 0.00722469
v -0.03474181 0.01243197 0.00735622
v -0.03479414 0.01243197 0.00744291
v -0.03483950 0.01243197 0.00752385
v -0.03491448 0.01243197 0.00767237
v -0.03501457 0.01243197 0.00791135
v -0.03504997 0.01269213 0.00805452
v -0.03496331 0.01293260 0.00787580
v -0.03485450 0.01314112 0.00769933
v -0.03471855 0.01335565 0.00752661
v -0.03456789 0.01352946 0.00735917
v -0.03440388 0.01367345 0.00719849
v -0.03421504 0.01382216 0.00704592
v -0.03402632 0.01392321 0.00690261
v -0.03383817 0.01399289 0.00677122
v -0.03510117 0.01269549 0.00823409
v -0.03502595 0.01294068 0.00805452
v -0.03492808 0.01315500 0.00787580
v -0.03480210 0.01337705 0.00769933
v -0.03466034 0.01355902 0.00752661
v -0.03450386 0.01371175 0.00735917
v -0.03432044 0.01387078 0.00719849
v -0.03413567 0.01398170 0.00704592
v -0.03394832 0.01405998 0.00690261
v -0.03514062 0.01269807 0.00841327
v -0.03507683 0.01294724 0.00823409
v -0.03499014 0.01316670 0.00805452
v -0.03487464 0.01339563 0.00787580
v -0.03474251 0.01358529 0.00769933
v -0.03459449 0.01374646 0.00752661
v -0.03441764 0.01391561 0.00735917
v -0.03423801 0.01403645 0.00719849
v -0.03405424 0.01412449 0.00704592
v -0.03493582 0.01341131 0.00805452
v -0.03481384 0.01360810 0.00787580
v -0.03467505 0.01377732 0.00769933
v -0.03450577 0.01395626 0.00752661
v -0.03433240 0.01408694 0.00735917
v -0.03415339 0.01418487 0.00719849
v -0.03396475 0.01426176 0.00704592
v 0.00283411 0.02778179 0.00594970
v 0.00503540 0.02778179 0.01194985
v -0.00307716 0.00929657 -0.00005029
v -0.00307716 0.01138054 -0.00005029
v -0.00228695 0.01156185 -0.00005029
v -0.00126693 0.01171472 -0.00005029
v -0.00023754 0.01177943 -0.00005029
v 0.00079360 0.01175551 -0.00005029
v 0.00181888 0.01164314 -0.00005029
v 0.00283072 0.01144313 -0.00005029
v 0.00382165 0.01115698 -0.00005029
v 0.00478434 0.01078679 -0.00005029
v 0.00571169 0.01033530 -0.00005029
v 0.00659685 0.00980584 -0.00005029
v 0.00743326 0.00920233 -0.00005029
v 0.00821477 0.00852922 -0.00005029
v 0.00893558 0.00779149 -0.00005029
v 0.00959039 0.00699458 -0.00005029
v 0.01017434 0.00614439 -0.00005029
v 0.01068313 0.00524720 -0.00005029
v 0.01111299 0.00430963 -0.00005029
v 0.01146076 0.00333861 -0.00005029
v 0.01172386 0.00234131 -0.00005029
v -0.01112315 0.00428463 0.00094971
v 0.02341630 0.02316798 0.00921117
v 0.02342020 0.02317871 0.00894971
v 0.02341630 0.02316798 0.00868824
v 0.02399689 0.02235315 0.01067044
v 0.02405632 0.02248060 0.01044971
v 0.02410739 0.02259012 0.01021756
v 0.02414972 0.02268089 0.00997577
v 0.02418298 0.02275222 0.00972616
v 0.02420692 0.02280356 0.00947065
v 0.02422136 0.02283452 0.00921117
v 0.02422618 0.02284486 0.00894971
v 0.02422136 0.02283452 0.00868824
v 0.02420692 0.02280356 0.00842876
v 0.02418298 0.02275222 0.00817325
v 0.02414972 0.02268089 0.00792365
v 0.02410739 0.02259012 0.00768185
v 0.02405632 0.02248060 0.00744971
v 0.02399689 0.02235315 0.00722898
v 0.02401303 0.02073256 0.01176878
v 0.02413393 0.02094196 0.01166863
v 0.02425000 0.02114300 0.01154778
v 0.02436036 0.02133416 0.01140716
v 0.02446418 0.02151397 0.01124784
v 0.02456066 0.02168108 0.01107103
v 0.02464907 0.02183421 0.01087807
v 0.02472873 0.02197218 0.01067044
v 0.02479904 0.02209396 0.01044971
v 0.02485946 0.02219862 0.01021756
v 0.02490954 0.02228536 0.00997577
v 0.02494889 0.02235351 0.00972616
v 0.02497721 0.02240257 0.00947065
v 0.02499429 0.02243215 0.00921117
v 0.02500000 0.02244204 0.00894971
v 0.02499429 0.02243215 0.00868824
v 0.02497721 0.02240257 0.00842876
v 0.02494889 0.02235351 0.00817325
v 0.02490954 0.02228536 0.00792365
v 0.02485946 0.02219862 0.00768185
v 0.02479904 0.02209396 0.00744971
v 0.02472873 0.02197218 0.00722898
v 0.02464907 0.02183421 0.00702134
v 0.02456066 0.02168108 0.00682839
v 0.02446418 0.02151397 0.00665157
v 0.02436036 0.02133416 0.00649225
v 0.02425000 0.02114300 0.00635163
v 0.02413393 0.02094196 0.00623078
v 0.02401303 0.02073256 0.00613063
v 0.02446039 0.02015189 0.01184748
v 0.02460356 0.02035635 0.01176878
v 0.02474225 0.02055442 0.01166863
v 0.02487540 0.02074458 0.01154778
v 0.02500200 0.02092539 0.01140716
v 0.02512110 0.02109547 0.01124784
v 0.02523177 0.02125353 0.01107103
v 0.02533319 0.02139837 0.01087807
v 0.02542457 0.02152888 0.01067044
v 0.02550523 0.02164407 0.01044971
v 0.02557454 0.02174306 0.01021756
v 0.02563199 0.02182510 0.00997577
v 0.02567713 0.02188957 0.00972616
v 0.02570962 0.02193597 0.00947065
v 0.02572922 0.02196395 0.00921117
v 0.02573576 0.02197331 0.00894971
v 0.02572922 0.02196395 0.00868824
v 0.02570962 0.02193597 0.00842876
v 0.02567713 0.02188957 0.00817325
v 0.02563199 0.02182510 0.00792365
v 0.02557454 0.02174306 0.00768185
v 0.02550523 0.02164407 0.00744971
v 0.02542457 0.02152888 0.00722898
v 0.02533319 0.02139837 0.00702134
v 0.02523177 0.02125353 0.00682839
v 0.02512110 0.02109547 0.00665157
v 0.02500200 0.02092539 0.00649225
v 0.02487540 0.02074458 0.00635163
v 0.02474225 0.02055442 0.00623078
v 0.02460356 0.02035635 0.00613063
v 0.02499861 0.01973890 0.01184748
v 0.02515905 0.01993010 0.01176878
v 0.02531447 0.02011533 0.01166863
v 0.02546369 0.02029316 0.01154778
v 0.02560558 0.02046225 0.01140716
v 0.02573904 0.02062131 0.01124784
v 0.02586307 0.02076912 0.01107103
v 0.02597672 0.02090457 0.01087807
v 0.02607914 0.02102662 0.01067044
v 0.02616952 0.02113434 0.01044971
v 0.02624720 0.02122691 0.01021756
v 0.02631158 0.02130364 0.00997577
v 0.02636217 0.02136392 0.00972616
v 0.02639858 0.02140732 0.00947065
v 0.02642054 0.02143349 0.00921117
v 0.02642788 0.02144223 0.00894971
v 0.02642054 0.02143349 0.00868824
v 0.02639858 0.02140732 0.00842876
v 0.02636217 0.02136392 0.00817325
v 0.02631158 0.02130364 0.00792365
v 0.02624720 0.02122691 0.00768185
v 0.02616952 0.02113434 0.00744971
v 0.02607914 0.02102662 0.00722898
v 0.02597672 0.02090457 0.00702134
v 0.02586307 0.02076912 0.00682839
v 0.02573904 0.02062131 0.00665157
v 0.02560558 0.02046225 0.00649225
v 0.02546369 0.02029316 0.00635163
v 0.02531447 0.02011533 0.00623078
v 0.02515905 0.01993010 0.00613063
v 0.02499861 0.01973890 0.00605193
v 0.02531811 0.01909990 0.01190413
v 0.02549879 0.01928057 0.01184748
v 0.02567528 0.01945707 0.01176878
v 0.02584626 0.01962804 0.01166863
v 0.02601041 0.01979219 0.01154778
v 0.02616649 0.01994827 0.01140716
v 0.02631330 0.02009509 0.01124784
v 0.02644975 0.02023153 0.01107103
v 0.02657477 0.02035656 0.01087807
v 0.02668743 0.02046922 0.01067044
v 0.02678686 0.02056865 0.01044971
v 0.02687232 0.02065410 0.01021756
v 0.02694314 0.02072492 0.00997577
v 0.02699878 0.02078057 0.00972616
v 0.02703884 0.02082063 0.00947065
v 0.02706300 0.02084478 0.00921117
v 0.02707107 0.02085285 0.00894971
v 0.02706300 0.02084478 0.00868824
v 0.02703884 0.02082063 0.00842876
v 0.02699878 0.02078057 0.00817325
v 0.02694314 0.02072492 0.00792365
v 0.02687232 0.02065410 0.00768185
v 0.02678686 0.02056865 0.00744971
v 0.02668743 0.02046922 0.00722898
v 0.02657477 0.02035656 0.00702134
v 0.02644975 0.02023153 0.00682839
v 0.02631330 0.02009509 0.00665157
v 0.02616649 0.01994827 0.00649225
v 0.02601041 0.01979219 0.00635163
v 0.02584626 0.01962804 0.00623078
v 0.02567528 0.01945707 0.00613063
v 0.02549879 0.01928057 0.00605193
v 0.02576138 0.01861615 0.01190413
v 0.02595711 0.01878040 0.01184748
v 0.02614832 0.01894084 0.01176878
v 0.02633354 0.01909626 0.01166863
v 0.02651138 0.01924548 0.01154778
v 0.02668047 0.01938736 0.01140716
v 0.02683952 0.01952083 0.01124784
v 0.02698734 0.01964486 0.01107103
v 0.02712278 0.01975851 0.01087807
v 0.02724483 0.01986092 0.01067044
v 0.02735255 0.01995131 0.01044971
v 0.02744513 0.02002899 0.01021756
v 0.02752185 0.02009337 0.00997577
v 0.02758214 0.02014395 0.00972616
v 0.02762553 0.02018037 0.00947065
v 0.02765170 0.02020232 0.00921117
v 0.02766044 0.02020966 0.00894971
v 0.02765170 0.02020232 0.00868824
v 0.02762553 0.02018037 0.00842876
v 0.02758214 0.02014395 0.00817325
v 0.02752185 0.02009337 0.00792365
v 0.02744513 0.02002899 0.00768185
v 0.02735255 0.01995131 0.00744971
v 0.02724483 0.01986092 0.00722898
v 0.02712278 0.01975851 0.00702134
v 0.02698734 0.01964486 0.00682839
v 0.02683952 0.01952083 0.00665157
v 0.02668047 0.01938736 0.00649225
v 0.02651138 0.01924548 0.00635163
v 0.02633354 0.01909626 0.00623078
v 0.02614832 0.01894084 0.00613063
v 0.02595711 0.01878040 0.00605193
v 0.02616080 0.01809562 0.01190413
v 0.02637010 0.01824218 0.01184748
v 0.02657456 0.01838535 0.01176878
v 0.02677263 0.01852403 0.01166863
v 0.02696279 0.01865719 0.01154778
v 0.02714360 0.01878379 0.01140716
v 0.02731369 0.01890288 0.01124784
v 0.02747175 0.01901356 0.01107103
v 0.02761658 0.01911497 0.01087807
v 0.02774709 0.01920636 0.01067044
v 0.02786228 0.01928702 0.01044971
v 0.02796127 0.01935633 0.01021756
v 0.02804332 0.01941378 0.00997577
v 0.02810778 0.01945892 0.00972616
v 0.02815419 0.01949141 0.00947065
v 0.02818217 0.01951100 0.00921117
v 0.02819152 0.01951755 0.00894971
v 0.02818217 0.01951100 0.00868824
v 0.02815419 0.01949141 0.00842876
v 0.02810778 0.01945892 0.00817325
v 0.02804332 0.01941378 0.00792365
v 0.02796127 0.01935633 0.00768185
v 0.02786228 0.01928702 0.00744971
v 0.02774709 0.01920636 0.00722898
v 0.02761658 0.01911497 0.00702134
v 0.02747175 0.01901356 0.00682839
v 0.02731369 0.01890288 0.00665157
v 0.02714360 0.01878379 0.00649225
v 0.02696279 0.01865719 0.00635163
v 0.02677263 0.01852403 0.00623078
v 0.02657456 0.01838535 0.00613063
v 0.02637010 0.01824218 0.00605193
v 0.02651333 0.01754226 0.01190413
v 0.02673461 0.01767001 0.01184748
v 0.02695077 0.01779482 0.01176878
v 0.02716017 0.01791571 0.01166863
v 0.02736122 0.01803179 0.01154778
v 0.02755237 0.01814215 0.01140716
v 0.02773219 0.01824597 0.01124784
v 0.02789930 0.01834245 0.01107103
v 0.02805242 0.01843085 0.01087807
v 0.02819040 0.01851051 0.01067044
v 0.02831218 0.01858082 0.01044971
v 0.02841683 0.01864125 0.01021756
v 0.02850357 0.01869132 0.00997577
v 0.02857173 0.01873067 0.00972616
v 0.02862078 0.01875900 0.00947065
v 0.02865037 0.01877608 0.00921117
v 0.02866025 0.01878178 0.00894971
v 0.02865037 0.01877608 0.00868824
v 0.02862078 0.01875900 0.00842876
v 0.02857173 0.01873067 0.00817325
v 0.02850357 0.01869132 0.00792365
v 0.02841683 0.01864125 0.00768185
v 0.02831218 0.01858082 0.00744971
v 0.02819040 0.01851051 0.00722898
v 0.02805242 0.01843085 0.00702134
v 0.02789930 0.01834245 0.00682839
v 0.02773219 0.01824597 0.00665157
v 0.02755237 0.01814215 0.00649225
v 0.02736122 0.01803179 0.00635163
v 0.02716017 0.01791571 0.00623078
v 0.02695077 0.01779482 0.00613063
v 0.02673461 0.01767001 0.00605193
v 0.02681629 0.01696027 0.01190413
v 0.02704786 0.01706826 0.01184748
v 0.02727408 0.01717374 0.01176878
v 0.02749322 0.01727593 0.01166863
v 0.02770361 0.01737404 0.01154778
v 0.02790366 0.01746733 0.01140716
v 0.02809184 0.01755507 0.01124784
v 0.02826672 0.01763662 0.01107103
v 0.02842697 0.01771135 0.01087807
v 0.02857137 0.01777868 0.01067044
v 0.02869881 0.01783811 0.01044971
v 0.02880833 0.01788918 0.01021756
v 0.02889911 0.01793151 0.00997577
v 0.02897043 0.01796477 0.00972616
v 0.02902177 0.01798871 0.00947065
v 0.02905273 0.01800314 0.00921117
v 0.02906308 0.01800797 0.00894971
v 0.02905273 0.01800314 0.00868824
v 0.02902177 0.01798871 0.00842876
v 0.02897043 0.01796477 0.00817325
v 0.02889911 0.01793151 0.00792365
v 0.02880833 0.01788918 0.00768185
v 0.02869881 0.01783811 0.00744971
v 0.02857137 0.01777868 0.00722898
v 0.02842697 0.01771135 0.00702134
v 0.02826672 0.01763662 0.00682839
v 0.02809184 0.01755507 0.00665157
v 0.02790366 0.01746733 0.00649225
v 0.02770361 0.01737404 0.00635163
v 0.02749322 0.01727593 0.00623078
v 0.02727408 0.01717374 0.00613063
v 0.02704786 0.01706826 0.00605193
v 0.02706738 0.01635410 0.01190413
v 0.02730748 0.01644149 0.01184748
v 0.02754203 0.01652686 0.01176878
v 0.02776924 0.01660956 0.01166863
v 0.02798739 0.01668896 0.01154778
v 0.02819480 0.01676445 0.01140716
v 0.02838992 0.01683547 0.01124784
v 0.02857124 0.01690146 0.01107103
v 0.02873739 0.01696193 0.01087807
v 0.02888710 0.01701643 0.01067044
v 0.02901924 0.01706452 0.01044971
v 0.02913280 0.01710585 0.01021756
v 0.02922691 0.01714011 0.00997577
v 0.02930087 0.01716702 0.00972616
v 0.02935410 0.01718640 0.00947065
v 0.02938620 0.01719808 0.00921117
v 0.02939693 0.01720199 0.00894971
v 0.02938620 0.01719808 0.00868824
v 0.02935410 0.01718640 0.00842876
v 0.02930087 0.01716702 0.00817325
v 0.02922691 0.01714011 0.00792365
v 0.02913280 0.01710585 0.00768185
v 0.02901924 0.01706452 0.00744971
v 0.02888710 0.01701643 0.00722898
v 0.02873739 0.01696193 0.00702134
v 0.02857124 0.01690146 0.00682839
v 0.02838992 0.01683547 0.00665157
v 0.02819480 0.01676445 0.00649225
v 0.02798739 0.01668896 0.00635163
v 0.02776924 0.01660956 0.00623078
v 0.02754203 0.01652686 0.00613063
v 0.02730748 0.01644149 0.00605193
v 0.02726467 0.01572835 0.01190413
v 0.02751148 0.01579448 0.01184748
v 0.02775258 0.01585908 0.01176878
v 0.02798613 0.01592166 0.01166863
v 0.02821037 0.01598175 0.01154778
v 0.02842358 0.01603888 0.01140716
v 0.02862414 0.01609262 0.01124784
v 0.02881052 0.01614256 0.01107103
v 0.02898131 0.01618832 0.01087807
v 0.02913520 0.01622956 0.01067044
v 0.02927103 0.01626595 0.01044971
v 0.02938776 0.01629723 0.01021756
v 0.02948450 0.01632315 0.00997577
v 0.02956052 0.01634352 0.00972616
v 0.02961523 0.01635818 0.00947065
v 0.02964823 0.01636702 0.00921117
v 0.02965926 0.01636998 0.00894971
v 0.02964823 0.01636702 0.00868824
v 0.02961523 0.01635818 0.00842876
v 0.02956052 0.01634352 0.00817325
v 0.02948450 0.01632315 0.00792365
v 0.02938776 0.01629723 0.00768185
v 0.02927103 0.01626595 0.00744971
v 0.02913520 0.01622956 0.00722898
v 0.02898131 0.01618832 0.00702134
v 0.02881052 0.01614256 0.00682839
v 0.02862414 0.01609262 0.00665157
v 0.02842358 0.01603888 0.00649225
v 0.02821037 0.01598175 0.00635163
v 0.02798613 0.01592166 0.00623078
v 0.02775258 0.01585908 0.00613063
v 0.02740668 0.01508778 0.01190413
v 0.02765832 0.01513215 0.01184748
v 0.02790413 0.01517550 0.01176878
v 0.02814225 0.01521748 0.01166863
v 0.02837086 0.01525780 0.01154778
v 0.02858824 0.01529612 0.01140716
v 0.02879272 0.01533218 0.01124784
v 0.02898275 0.01536569 0.01107103
v 0.02915687 0.01539639 0.01087807
v 0.02931377 0.01542406 0.01067044
v 0.02945226 0.01544847 0.01044971
v 0.02957127 0.01546946 0.01021756
v 0.02966990 0.01548685 0.00997577
v 0.02974741 0.01550052 0.00972616
v 0.02980319 0.01551035 0.00947065
v 0.02983683 0.01551628 0.00921117
v 0.02984808 0.01551827 0.00894971
v 0.02983683 0.01551628 0.00868824
v 0.02980319 0.01551035 0.00842876
v 0.02974741 0.01550052 0.00817325
v 0.02966990 0.01548685 0.00792365
v 0.02957127 0.01546946 0.00768185
v 0.02945226 0.01544847 0.00744971
v 0.02931377 0.01542406 0.00722898
v 0.02915687 0.01539639 0.00702134
v 0.02898275 0.01536569 0.00682839
v 0.02879272 0.01533218 0.00665157
v 0.02858824 0.01529612 0.00649225
v 0.02837086 0.01525780 0.00635163
v 0.02814225 0.01521748 0.00623078
v 0.02790413 0.01517550 0.00613063
v 0.02723384 0.01441466 0.01193829
v 0.02749232 0.01443728 0.01190413
v 0.02774687 0.01445955 0.01184748
v 0.02799552 0.01448130 0.01176878
v 0.02823639 0.01450238 0.01166863
v 0.02846766 0.01452261 0.01154778
v 0.02868754 0.01454185 0.01140716
v 0.02889439 0.01455994 0.01124784
v 0.02908661 0.01457676 0.01107103
v 0.02926275 0.01459217 0.01087807
v 0.02942147 0.01460606 0.01067044
v 0.02956155 0.01461831 0.01044971
v 0.02968194 0.01462885 0.01021756
v 0.02978171 0.01463757 0.00997577
v 0.02986011 0.01464443 0.00972616
v 0.02991654 0.01464937 0.00947065
v 0.02995057 0.01465235 0.00921117
v 0.02996195 0.01465334 0.00894971
v 0.02995057 0.01465235 0.00868824
v 0.02991654 0.01464937 0.00842876
v 0.02986011 0.01464443 0.00817325
v 0.02978171 0.01463757 0.00792365
v 0.02968194 0.01462885 0.00768185
v 0.02956155 0.01461831 0.00744971
v 0.02942147 0.01460606 0.00722898
v 0.02926275 0.01459217 0.00702134
v 0.02908661 0.01457676 0.00682839
v 0.02889439 0.01455994 0.00665157
v 0.02868754 0.01454185 0.00649225
v 0.02846766 0.01452261 0.00635163
v 0.02823639 0.01450238 0.00623078
v 0.02799552 0.01448130 0.00613063
v 0.02726147 0.01378179 0.01193829
v 0.02752094 0.01378179 0.01190413
v 0.02777646 0.01378179 0.01184748
v 0.02802606 0.01378179 0.01176878
v 0.02826785 0.01378179 0.01166863
v 0.02850000 0.01378179 0.01154778
v 0.02872073 0.01378179 0.01140716
v 0.02892836 0.01378179 0.01124784
v 0.02912132 0.01378179 0.01107103
v 0.02929813 0.01378179 0.01087807
v 0.02945746 0.01378179 0.01067044
v 0.02959808 0.01378179 0.01044971
v 0.02971892 0.01378179 0.01021756
v 0.02981908 0.01378179 0.00997577
v 0.02989778 0.01378179 0.00972616
v 0.02995442 0.01378179 0.00947065
v 0.02998858 0.01378179 0.00921117
v 0.03000000 0.01378179 0.00894971
v 0.02998858 0.01378179 0.00868824
v 0.02995442 0.01378179 0.00842876
v 0.02989778 0.01378179 0.00817325
v 0.02981908 0.01378179 0.00792365
v 0.02971892 0.01378179 0.00768185
v 0.02959808 0.01378179 0.00744971
v 0.02945746 0.01378179 0.00722898
v 0.02929813 0.01378179 0.00702134
v 0.02912132 0.01378179 0.00682839
v 0.02892836 0.01378179 0.00665157
v 0.02872073 0.01378179 0.00649225
v 0.02850000 0.01378179 0.00635163
v 0.02826785 0.01378179 0.00623078
v 0.02802606 0.01378179 0.00613063
v -0.01067152 0.02378179 0.01501046
v -0.03334338 0.01568786 0.01501046
v -0.03339456 0.01566246 0.01501046
v -0.03349647 0.01560777 0.01501046
v -0.03360603 0.01554294 0.01501046
v -0.03389393 0.01533835 0.01501046
v -0.03382163 0.01539474 0.01501046
v -0.03401657 0.01523458 0.01501046
v -0.03427469 0.01497566 0.01501046
v -0.03439819 0.01482848 0.01501046
v -0.03454566 0.01462737 0.01501046
v -0.03449683 0.01469690 0.01501046
v -0.03464208 0.01447732 0.01501046
v -0.03482954 0.01412455 0.01501046
v -0.03520000 0.01243197 0.01501046
v -0.03519825 0.01253865 0.01501046
v -0.03519742 0.01257656 0.01501046
v -0.03518438 0.01279045 0.01501046
v -0.03516381 0.01297589 0.01501046
v -0.03514346 0.01311111 0.01501046
v -0.03514048 0.01312963 0.01501046
v -0.03510590 0.01330641 0.01501046
v -0.03506887 0.01346151 0.01501046
v -0.03497116 0.01378079 0.01501046
v -0.03494309 0.01385702 0.01501046
v -0.03493473 0.01387961 0.01501046
v 0.00295629 0.02089032 0.01501046
v 0.00295881 0.02078179 0.01501046
v 0.00294666 0.02104325 0.01501046
v 0.00295422 0.02093489 0.01501046
v 0.00293408 0.02115120 0.01501046
v 0.00291031 0.02130273 0.01501046
v 0.00285006 0.02155812 0.01501046
v 0.00287754 0.02145261 0.01501046
v 0.00285003 0.02155824 0.01501046
v 0.00280350 0.02170483 0.01501046
v 0.00272438 0.02190909 0.01501046
v 0.00265979 0.02204945 0.01501046
v 0.00270634 0.02195003 0.01501046
v 0.00260857 0.02214706 0.01501046
v 0.00247114 0.02237463 0.01501046
v 0.00253109 0.02228179 0.01501046
v 0.00244582 0.02241200 0.01501046
v 0.00231312 0.02259008 0.01501046
v 0.00238145 0.02250252 0.01501046
v 0.00221213 0.02270990 0.01501046
v 0.00228443 0.02262525 0.01501046
v 0.00159784 0.02323898 0.01501046
v 0.00136301 0.02337961 0.01501046
v 0.00111603 0.02350048 0.01501046
v 0.00132027 0.02340057 0.01501046
v 0.00107133 0.02351793 0.01501046
v 0.00059322 0.02367940 0.01501046
v 0.00054555 0.02368939 0.01501046
v 0.00004529 0.02377031 0.01501046
v -0.00023372 0.02378179 0.01501046
v 0.00260699 0.01578179 0.01501046
v 0.00295881 0.01768178 0.01501046
v -0.01438038 0.02289199 0.01501046
v -0.03318058 0.01576025 0.01501046
v -0.03362426 0.01553112 0.01501046
v -0.03378873 0.01541853 0.01501046
v -0.03381385 0.01540066 0.01501046
v -0.03392844 0.01530963 0.01501046
v -0.03404403 0.01520859 0.01501046
v -0.03416756 0.01509014 0.01501046
v -0.03415412 0.01510402 0.01501046
v -0.03421262 0.01504349 0.01501046
v -0.03471649 0.01434854 0.01501046
v -0.03470659 0.01436679 0.01501046
v -0.03518680 0.01275357 0.01501046
v -0.03516999 0.01292365 0.01501046
v -0.03502097 0.01362673 0.01501046
v -0.03500739 0.01367323 0.01501046
v -0.03497797 0.01376068 0.01501046
v -0.03486648 0.01404314 0.01501046
v -0.03484945 0.01408376 0.01501046
v 0.00292789 0.02119538 0.01501046
v 0.00288776 0.02140926 0.01501046
v 0.00281768 0.02166253 0.01501046
v 0.00276628 0.02180785 0.01501046
v 0.00276634 0.02180769 0.01501046
v 0.00265970 0.02204964 0.01501046
v 0.00258682 0.02218635 0.01501046
v 0.00253122 0.02228157 0.01501046
v 0.00238162 0.02250228 0.01501046
v 0.00221190 0.02271015 0.01501046
v 0.00210386 0.02282447 0.01501046
v 0.00213574 0.02279175 0.01501046
v 0.00202374 0.02290311 0.01501046
v 0.00202402 0.02290284 0.01501046
v 0.00198885 0.02293317 0.01501046
v 0.00181840 0.02307992 0.01501046
v 0.00181874 0.02307965 0.01501046
v 0.00178078 0.02310707 0.01501046
v 0.00159744 0.02323924 0.01501046
v 0.00155736 0.02326326 0.01501046
v 0.00136254 0.02337986 0.01501046
v 0.00111550 0.02350071 0.01501046
v 0.00085819 0.02360086 0.01501046
v 0.00085878 0.02360066 0.01501046
v 0.00081243 0.02361445 0.01501046
v 0.00059257 0.02367956 0.01501046
v 0.00032066 0.02373621 0.01501046
v 0.00032137 0.02373609 0.01501046
v 0.00027272 0.02374217 0.01501046
v 0.00004453 0.02377037 0.01501046
v 0.00001996 0.02377188 0.01501046
v 0.00002612 0.02377160 0.01501046
v 0.00003226 0.02377125 0.01501046
v 0.00003840 0.02377084 0.01501046
v -0.03519755 0.00178179 0.00885774
v -0.03516287 0.00178179 0.00848792
v -0.03515119 0.00178179 0.00841072
v -0.03510484 0.00178179 0.00820109
v -0.03506291 0.00178179 0.00805319
v -0.03508051 0.00178179 0.00811320
v -0.03501457 0.00178179 0.00791135
v -0.03504219 0.00178179 0.00799239
v -0.03496359 0.00178179 0.00778746
v -0.03491448 0.00178179 0.00767237
v -0.03483955 0.00178179 0.00752395
v -0.03488242 0.00178179 0.00760885
v -0.03479414 0.00178179 0.00744291
v -0.03482007 0.00178179 0.00748918
v -0.03465445 0.00178179 0.00722469
v -0.03470439 0.00178179 0.00729988
v -0.03450810 0.00178179 0.00703334
v -0.03439177 0.00178179 0.00690126
v -0.03432132 0.00178179 0.00682838
v -0.03436155 0.00178179 0.00686999
v -0.03418676 0.00178179 0.00670356
v -0.03429592 0.00178179 0.00680367
v -0.03404644 0.00178179 0.00658706
v -0.03413037 0.00178179 0.00665325
v -0.03392502 0.00178179 0.00649526
v -0.03383788 0.00178179 0.00643627
v -0.03370680 0.00178179 0.00635556
v -0.03360050 0.00178179 0.00629872
v -0.03342312 0.00178179 0.00621122
v -0.03323835 0.00178179 0.00613513
v -0.03330252 0.00178179 0.00616028
v -0.01112315 0.00178179 0.00094971
v 0.02752094 0.00178179 0.01190413
v 0.02777646 0.00178179 0.01184748
v 0.02802606 0.00178179 0.01176878
v 0.02826785 0.00178179 0.01166863
v 0.02850000 0.00178179 0.01154778
v 0.02872073 0.00178179 0.01140716
v 0.02892836 0.00178179 0.01124784
v 0.02912132 0.00178179 0.01107103
v 0.02945746 0.00178179 0.01067044
v 0.02959808 0.00178179 0.01044971
v 0.02971892 0.00178179 0.01021756
v 0.02981908 0.00178179 0.00997577
v 0.02995442 0.00178179 0.00947065
v 0.02998858 0.00178179 0.00921117
v 0.03000000 0.00178179 0.00894971
v 0.02998858 0.00178179 0.00868824
v 0.02995442 0.00178179 0.00842876
v 0.02971892 0.00178179 0.00768185
v 0.02929813 0.00178179 0.00702134
v 0.02892836 0.00178179 0.00665157
v 0.02872073 0.00178179 0.00649225
v 0.02850000 0.00178179 0.00635163
v 0.02826785 0.00178179 0.00623078
v -0.03520000 0.00178179 0.01501046
v -0.03519991 0.00178179 0.00892614
v -0.03519439 0.00178179 0.00876642
v -0.03518317 0.00178179 0.00863464
v -0.03518669 0.00178179 0.00866738
v -0.03512948 0.00178179 0.00830930
v -0.03509367 0.00178179 0.00815808
v -0.03477179 0.00178179 0.00740587
v -0.03474187 0.00178179 0.00735632
v -0.03457577 0.00178179 0.00712130
v -0.03445166 0.00178179 0.00696881
v -0.03449645 0.00178179 0.00701934
v -0.03395848 0.00178179 0.00651938
v -0.03388774 0.00178179 0.00647002
v -0.03378169 0.00178179 0.00640167
v -0.03350222 0.00178179 0.00624718
v -0.03347734 0.00178179 0.00623522
v -0.03335068 0.00178179 0.00617916
v -0.03299162 0.00178179 0.00605603
v 0.01101019 0.00178179 -0.00005029
v 0.01182103 0.00178179 -0.00005029
v 0.02726147 0.00178179 0.01193829
v 0.02929813 0.00178179 0.01087807
v 0.02989778 0.00178179 0.00972616
v 0.02989778 0.00178179 0.00817325
v 0.02981908 0.00178179 0.00792365
v 0.02959808 0.00178179 0.00744971
v 0.02945746 0.00178179 0.00722898
v 0.02912132 0.00178179 0.00682839
v 0.02802606 0.00178179 0.00613063
v -0.03520000 0.00178179 0.00894970
v -0.01500000 0.00178179 0.01501046
f 42 550 11
f 550 27 21
f 1186 967 999
f 557 42 558
f 557 556 42
f 1186 999 1195
f 573 43 553
f 620 650 563
f 563 1 620
f 562 1 563
f 563 650 564
f 7 559 558
f 35 553 34
f 35 36 553
f 37 38 553
f 553 36 37
f 550 38 37
f 37 36 550
f 556 555 41
f 42 556 41
f 550 42 41
f 553 38 554
f 1000 1055 551
f 551 13 1000
f 551 1055 14
f 26 21 27
f 1000 13 1058
f 29 1059 1058
f 13 26 1058
f 936 968 969
f 1187 1056 1197
f 849 882 850
f 841 570 569
f 568 809 569
f 569 809 841
f 935 967 1186
f 872 571 570
f 998 999 967
f 1142 552 1185
f 611 589 610
f 565 564 681
f 558 42 9
f 9 7 558
f 9 42 11
f 560 559 5
f 559 7 5
f 40 41 555
f 550 41 40
f 43 351 384
f 14 1055 1107
f 28 26 13
f 21 26 28
f 28 13 550
f 550 21 28
f 22 24 27
f 22 27 550
f 550 36 22
f 937 936 969
f 973 941 972
f 974 941 973
f 972 941 940
f 940 939 972
f 578 579 19
f 1018 64 1071
f 1056 1187 1057
f 985 952 984
f 979 946 978
f 978 945 977
f 978 946 945
f 979 980 948
f 948 980 981
f 992 993 961
f 572 935 1186
f 873 570 841
f 841 872 873
f 873 872 570
f 840 872 841
f 841 809 840
f 809 808 840
f 807 840 808
f 961 993 994
f 573 382 361
f 361 351 43
f 43 573 361
f 573 470 383
f 383 382 573
f 619 620 1
f 650 620 619
f 1 614 615
f 587 610 588
f 588 610 589
f 576 575 584
f 584 585 576
f 680 564 650
f 680 681 564
f 650 679 680
f 565 681 713
f 713 744 745
f 681 680 713
f 3 561 560
f 560 5 3
f 3 576 585
f 575 576 3
f 8 10 16
f 555 554 39
f 39 40 555
f 39 554 38
f 39 38 550
f 550 40 39
f 382 383 380
f 380 361 382
f 471 379 470
f 25 26 27
f 27 24 25
f 25 1058 26
f 25 24 1058
f 29 1058 30
f 30 22 29
f 31 76 75
f 75 22 31
f 74 22 75
f 942 941 974
f 974 943 942
f 910 941 942
f 651 683 652
f 714 746 715
f 715 682 714
f 683 682 715
f 905 937 938
f 938 937 969
f 969 970 938
f 584 575 574
f 597 18 596
f 579 578 600
f 660 661 630
f 661 631 630
f 630 600 599
f 577 578 19
f 19 18 577
f 577 18 599
f 599 600 577
f 577 600 578
f 1017 63 1070
f 62 1015 1016
f 1027 1187 968
f 1027 1057 1187
f 881 882 849
f 849 880 881
f 881 913 882
f 849 817 816
f 816 784 815
f 816 817 785
f 785 784 816
f 953 952 985
f 951 982 983
f 983 984 951
f 951 984 952
f 856 823 855
f 911 881 880
f 910 942 911
f 911 942 943
f 943 944 911
f 947 946 979
f 979 948 947
f 915 946 947
f 947 948 915
f 584 605 606
f 665 666 635
f 635 605 604
f 698 666 697
f 697 666 665
f 664 697 665
f 696 697 664
f 795 827 796
f 826 827 795
f 796 764 795
f 860 891 892
f 883 850 882
f 882 913 883
f 915 884 883
f 758 759 726
f 728 697 696
f 793 762 761
f 836 868 837
f 867 898 899
f 868 836 867
f 901 868 900
f 900 931 901
f 899 931 900
f 900 867 899
f 868 867 900
f 963 995 996
f 892 891 923
f 833 832 865
f 927 895 926
f 925 926 894
f 894 926 895
f 865 832 864
f 991 992 960
f 960 959 991
f 960 992 961
f 961 928 960
f 927 959 960
f 960 928 927
f 935 572 904
f 904 572 571
f 571 872 904
f 837 868 869
f 869 870 837
f 869 868 901
f 901 870 869
f 806 807 775
f 840 807 839
f 807 806 839
f 745 567 566
f 565 713 566
f 566 713 745
f 568 567 777
f 777 809 568
f 777 567 745
f 745 744 777
f 966 998 967
f 966 965 998
f 967 935 966
f 997 965 996
f 998 965 997
f 479 1134 1131
f 406 496 486
f 1 617 618
f 618 619 1
f 617 647 618
f 649 679 650
f 650 619 649
f 619 618 649
f 616 617 1
f 1 615 616
f 616 647 617
f 679 649 678
f 613 614 1
f 1 591 613
f 744 713 712
f 712 713 680
f 14 10 12
f 15 10 14
f 16 10 15
f 1106 1054 15
f 1054 1105 15
f 15 1105 1103
f 1103 16 15
f 14 1107 15
f 561 3 2
f 562 561 2
f 1 562 2
f 2 588 589
f 587 588 2
f 589 590 2
f 2 586 587
f 2 591 1
f 2 590 591
f 585 586 2
f 2 3 585
f 20 574 575
f 20 1051 1098
f 20 1098 19
f 553 43 32
f 43 480 489
f 489 149 43
f 361 380 360
f 360 386 351
f 351 361 360
f 381 383 470
f 381 380 383
f 470 379 381
f 1058 24 23
f 23 30 1058
f 24 22 23
f 22 30 23
f 1059 46 1001
f 45 46 1059
f 45 1059 29
f 29 22 45
f 264 263 265
f 97 98 265
f 265 263 97
f 97 263 49
f 975 943 974
f 975 944 943
f 622 651 652
f 621 651 622
f 595 625 596
f 594 625 595
f 596 18 595
f 595 18 594
f 596 625 626
f 626 597 596
f 594 623 624
f 624 625 594
f 19 1098 1049
f 1049 1050 19
f 19 1050 1097
f 1097 18 19
f 1048 18 1097
f 593 623 594
f 594 18 593
f 593 622 623
f 1053 1102 16
f 908 940 941
f 653 622 652
f 623 622 653
f 19 582 583
f 583 20 19
f 574 20 583
f 584 574 583
f 583 605 584
f 604 605 583
f 583 582 604
f 598 628 599
f 598 597 628
f 599 18 598
f 18 597 598
f 721 753 722
f 690 658 689
f 721 722 689
f 689 722 690
f 633 602 632
f 632 602 631
f 632 631 661
f 631 602 601
f 601 630 631
f 600 630 601
f 579 600 601
f 601 602 579
f 579 602 580
f 19 579 580
f 599 628 629
f 629 630 599
f 660 630 629
f 1019 1020 65
f 65 1020 1021
f 1010 58 59
f 59 58 323
f 323 58 322
f 322 58 57
f 968 936 1026
f 1026 1027 968
f 972 939 971
f 939 938 971
f 971 938 970
f 910 911 879
f 879 911 880
f 878 879 846
f 848 880 849
f 849 816 848
f 848 816 815
f 848 879 880
f 850 819 818
f 849 850 818
f 818 817 849
f 785 817 818
f 852 883 884
f 985 986 954
f 954 953 985
f 920 952 921
f 952 953 921
f 953 954 921
f 921 889 920
f 982 951 950
f 951 918 950
f 920 889 919
f 919 918 951
f 919 952 920
f 919 951 952
f 915 948 916
f 913 881 912
f 881 911 912
f 912 911 944
f 945 913 912
f 912 944 945
f 639 610 609
f 609 610 587
f 607 585 584
f 584 606 607
f 636 666 637
f 636 635 666
f 637 607 636
f 636 607 606
f 636 606 605
f 605 635 636
f 726 694 725
f 725 758 726
f 665 635 634
f 634 664 665
f 633 664 634
f 634 604 633
f 634 635 604
f 696 664 663
f 663 664 633
f 762 795 763
f 763 795 764
f 763 731 762
f 764 731 763
f 830 797 829
f 829 797 796
f 915 883 914
f 914 883 913
f 914 946 915
f 945 946 914
f 914 913 945
f 760 728 759
f 760 793 761
f 726 759 727
f 759 728 727
f 727 694 726
f 727 728 696
f 826 793 825
f 826 795 794
f 794 793 826
f 794 795 762
f 762 793 794
f 835 803 834
f 835 836 803
f 834 867 835
f 835 867 836
f 803 836 804
f 804 836 837
f 898 867 866
f 866 867 834
f 834 833 866
f 866 833 865
f 962 994 995
f 995 963 962
f 961 994 962
f 962 963 931
f 892 923 924
f 925 894 924
f 830 799 798
f 798 797 830
f 729 760 761
f 728 760 729
f 761 762 729
f 697 728 729
f 698 697 729
f 641 642 611
f 611 610 641
f 773 742 741
f 667 638 637
f 637 666 667
f 698 731 699
f 699 666 698
f 699 667 666
f 733 702 701
f 927 928 897
f 897 866 865
f 898 866 897
f 865 864 897
f 899 898 929
f 898 897 929
f 929 897 928
f 929 928 961
f 832 833 801
f 958 959 927
f 927 926 958
f 958 926 925
f 989 990 958
f 991 959 958
f 958 990 991
f 871 904 872
f 872 840 871
f 840 839 871
f 774 806 775
f 773 806 774
f 774 742 773
f 837 870 838
f 838 806 837
f 838 839 806
f 870 871 838
f 838 871 839
f 776 808 809
f 809 777 776
f 776 777 744
f 775 807 776
f 776 807 808
f 775 776 743
f 743 776 744
f 743 774 775
f 742 774 743
f 934 966 935
f 965 966 934
f 934 933 965
f 901 931 932
f 932 933 901
f 965 933 932
f 44 62 308
f 310 1170 1168
f 1168 311 310
f 294 62 63
f 1113 1112 313
f 479 406 478
f 1178 1133 478
f 1136 476 1180
f 497 488 507
f 479 488 497
f 1122 1120 514
f 647 678 648
f 648 678 649
f 648 618 647
f 648 649 618
f 612 589 611
f 612 590 589
f 611 642 612
f 642 613 612
f 591 590 612
f 612 613 591
f 1106 15 1110
f 1110 15 1109
f 1108 15 1107
f 1109 15 1108
f 575 3 4
f 4 20 575
f 16 1102 17
f 1099 20 17
f 1100 20 1099
f 1051 20 1100
f 151 32 43
f 34 553 33
f 553 32 33
f 393 474 475
f 139 35 34
f 388 360 380
f 86 74 75
f 86 85 74
f 87 101 100
f 100 86 87
f 75 76 87
f 87 86 75
f 31 79 78
f 1004 1003 49
f 49 1060 1004
f 1011 1009 57
f 22 74 73
f 73 45 22
f 74 85 73
f 228 50 262
f 263 264 262
f 49 263 262
f 262 50 49
f 49 1003 48
f 48 97 49
f 1003 1002 48
f 98 97 72
f 72 85 98
f 72 73 85
f 46 45 72
f 45 73 72
f 944 975 976
f 977 945 976
f 945 944 976
f 628 597 627
f 597 626 627
f 758 725 757
f 789 758 757
f 754 753 785
f 754 722 753
f 755 722 754
f 592 593 18
f 622 593 592
f 18 1095 592
f 592 1095 622
f 1104 16 1103
f 1104 1053 16
f 876 843 875
f 843 842 875
f 779 778 810
f 746 778 779
f 907 938 939
f 939 940 907
f 940 908 907
f 909 941 910
f 909 908 941
f 878 908 909
f 910 879 909
f 909 879 878
f 1042 1040 746
f 746 1085 1042
f 1043 714 1046
f 778 1083 1039
f 746 1040 1041
f 1041 778 746
f 1046 714 1045
f 683 1090 1087
f 1087 682 683
f 1087 1088 682
f 651 1093 1091
f 1092 621 1094
f 1092 651 621
f 1092 1093 651
f 660 629 659
f 628 658 659
f 659 629 628
f 723 755 724
f 723 722 755
f 581 580 602
f 604 582 581
f 581 582 19
f 19 580 581
f 543 370 537
f 537 370 544
f 1010 59 1012
f 60 1012 59
f 57 157 158
f 158 322 57
f 158 157 156
f 156 322 158
f 156 157 155
f 155 154 156
f 1025 70 1024
f 1073 68 1072
f 69 333 68
f 1075 1076 61
f 61 1076 1013
f 936 937 1030
f 1030 937 905
f 878 846 877
f 877 908 878
f 876 907 877
f 877 907 908
f 844 843 876
f 815 784 783
f 688 655 687
f 687 719 688
f 652 683 684
f 847 846 879
f 879 848 847
f 815 846 847
f 847 848 815
f 851 819 850
f 850 883 851
f 883 852 851
f 955 986 987
f 955 954 986
f 987 988 955
f 955 988 956
f 923 954 955
f 956 924 955
f 955 924 923
f 922 954 923
f 922 921 954
f 922 923 891
f 891 921 922
f 889 921 890
f 890 921 891
f 981 982 949
f 982 950 949
f 949 948 981
f 949 950 918
f 918 887 886
f 886 887 855
f 888 856 855
f 855 887 888
f 889 856 888
f 888 919 889
f 918 919 888
f 888 887 918
f 608 586 585
f 585 607 608
f 587 586 608
f 608 609 587
f 638 639 608
f 639 609 608
f 637 638 608
f 608 607 637
f 693 725 694
f 693 694 661
f 693 692 724
f 724 725 693
f 693 661 660
f 660 692 693
f 662 632 661
f 661 694 662
f 694 663 662
f 633 632 662
f 662 663 633
f 827 860 828
f 860 829 828
f 796 827 828
f 828 829 796
f 891 860 859
f 859 890 891
f 858 890 859
f 859 860 827
f 859 827 826
f 826 858 859
f 695 727 696
f 694 727 695
f 696 663 695
f 695 663 694
f 823 856 824
f 856 825 824
f 857 825 856
f 857 856 889
f 857 858 826
f 826 825 857
f 889 890 857
f 857 890 858
f 790 758 789
f 759 758 790
f 790 791 759
f 803 804 772
f 773 741 772
f 805 806 773
f 773 772 805
f 805 772 804
f 837 806 805
f 805 804 837
f 892 924 893
f 893 924 894
f 762 731 730
f 730 729 762
f 730 731 698
f 698 729 730
f 640 610 639
f 640 641 610
f 642 641 671
f 641 640 671
f 646 676 647
f 647 616 646
f 646 615 645
f 646 616 615
f 707 676 675
f 675 646 645
f 676 646 675
f 708 676 707
f 708 741 709
f 677 708 709
f 676 708 677
f 677 678 647
f 647 676 677
f 667 699 668
f 668 639 638
f 638 667 668
f 766 798 799
f 732 731 764
f 732 699 731
f 896 895 927
f 927 897 896
f 896 864 895
f 896 897 864
f 930 931 899
f 899 929 930
f 930 962 931
f 961 962 930
f 930 929 961
f 957 958 925
f 925 924 957
f 957 924 956
f 989 958 957
f 957 988 989
f 956 988 957
f 861 829 860
f 830 829 861
f 861 862 830
f 861 860 892
f 892 893 861
f 894 862 861
f 861 893 894
f 830 862 863
f 863 864 832
f 895 864 863
f 863 894 895
f 863 862 894
f 742 743 710
f 709 741 710
f 710 741 742
f 710 677 709
f 678 677 710
f 933 934 902
f 902 870 901
f 901 933 902
f 931 963 964
f 964 932 931
f 965 932 964
f 996 965 964
f 964 963 996
f 1169 1170 310
f 1167 308 1111
f 62 294 293
f 311 308 293
f 293 308 62
f 310 311 293
f 465 63 64
f 465 294 63
f 317 1114 1171
f 66 363 65
f 65 1021 66
f 66 1021 1022
f 66 1022 67
f 477 478 406
f 477 1179 1135
f 479 497 487
f 487 497 496
f 487 406 479
f 496 406 487
f 1129 488 1132
f 507 488 498
f 498 508 507
f 1174 511 1126
f 1117 444 1119
f 16 17 6
f 6 8 16
f 1052 17 1102
f 120 118 138
f 450 519 451
f 399 405 393
f 399 475 476
f 393 475 399
f 476 477 399
f 399 477 406
f 399 406 486
f 486 405 399
f 389 390 391
f 230 229 228
f 228 262 230
f 230 262 264
f 378 390 389
f 389 388 378
f 379 390 378
f 378 388 380
f 378 381 379
f 380 381 378
f 386 360 387
f 360 388 387
f 387 388 389
f 1139 1182 473
f 98 85 99
f 85 86 99
f 99 86 100
f 76 31 77
f 31 78 77
f 36 35 82
f 102 103 275
f 252 253 251
f 254 253 252
f 226 157 55
f 55 1008 1067
f 51 50 228
f 1006 1062 50
f 50 1062 1061
f 269 99 100
f 97 48 47
f 46 72 47
f 47 72 97
f 47 48 1002
f 47 1002 1001
f 47 1001 46
f 1096 18 1048
f 1096 1095 18
f 1094 621 1047
f 621 622 1047
f 622 1095 1047
f 657 627 626
f 657 658 628
f 628 627 657
f 657 689 658
f 724 755 756
f 756 725 724
f 756 757 725
f 755 788 756
f 756 788 789
f 789 757 756
f 786 754 785
f 785 818 786
f 755 754 786
f 786 818 819
f 905 938 906
f 938 907 906
f 876 875 906
f 906 907 876
f 874 875 842
f 905 906 874
f 874 906 875
f 811 779 810
f 810 842 811
f 811 842 843
f 843 844 811
f 683 715 716
f 716 684 683
f 747 715 746
f 746 779 747
f 747 716 715
f 714 1043 1044
f 1044 746 714
f 1044 1085 746
f 778 1039 1082
f 1037 810 1082
f 810 778 1082
f 1084 1083 778
f 778 1041 1084
f 714 682 1086
f 1086 1045 714
f 682 1088 1086
f 651 1091 1089
f 1089 1090 683
f 683 651 1089
f 690 722 691
f 722 723 691
f 724 692 691
f 691 723 724
f 691 658 690
f 691 659 658
f 691 692 660
f 660 659 691
f 604 581 603
f 603 581 602
f 633 604 603
f 603 602 633
f 544 370 371
f 371 355 356
f 370 355 371
f 329 328 327
f 338 328 329
f 518 537 528
f 538 519 528
f 528 544 538
f 528 537 544
f 1069 60 1068
f 1012 60 1069
f 324 59 323
f 324 60 59
f 321 331 301
f 330 331 340
f 330 338 329
f 340 338 330
f 154 155 153
f 67 68 297
f 68 333 297
f 328 338 336
f 336 327 328
f 1023 69 1074
f 332 331 321
f 340 331 332
f 936 1030 1028
f 815 783 782
f 688 719 720
f 720 689 688
f 721 689 720
f 686 687 655
f 719 687 686
f 789 788 820
f 852 853 820
f 819 851 820
f 820 851 852
f 917 916 948
f 948 949 917
f 917 949 918
f 918 886 917
f 917 886 916
f 916 886 885
f 885 884 915
f 915 916 885
f 885 886 853
f 885 852 884
f 885 853 852
f 854 886 855
f 853 886 854
f 793 760 792
f 792 825 793
f 792 824 825
f 792 791 823
f 823 824 792
f 792 760 759
f 759 791 792
f 735 768 736
f 736 705 704
f 736 737 705
f 800 768 799
f 799 832 800
f 832 801 800
f 703 671 702
f 703 702 735
f 703 736 704
f 735 736 703
f 740 772 741
f 741 708 740
f 740 708 707
f 700 668 699
f 699 732 700
f 700 733 701
f 700 732 733
f 639 668 669
f 701 702 669
f 669 700 701
f 668 700 669
f 734 766 735
f 735 702 734
f 702 733 734
f 767 768 735
f 735 766 767
f 799 768 767
f 767 766 799
f 765 732 764
f 733 732 765
f 765 734 733
f 766 734 765
f 765 764 796
f 796 797 765
f 797 798 765
f 798 766 765
f 803 770 802
f 834 803 802
f 802 833 834
f 802 801 833
f 803 772 771
f 771 770 803
f 769 800 801
f 768 800 769
f 801 802 769
f 769 802 770
f 737 736 769
f 769 736 768
f 830 863 831
f 831 863 832
f 831 799 830
f 831 832 799
f 711 680 679
f 711 712 680
f 679 678 711
f 678 710 711
f 711 710 743
f 744 712 711
f 711 743 744
f 903 871 870
f 870 902 903
f 904 871 903
f 903 902 934
f 935 904 903
f 903 934 935
f 362 465 64
f 64 65 362
f 65 363 362
f 466 465 362
f 362 364 466
f 363 364 362
f 317 313 312
f 467 534 466
f 466 364 467
f 467 364 468
f 466 534 295
f 295 465 466
f 294 465 295
f 468 364 365
f 365 364 363
f 363 66 352
f 352 365 363
f 474 1181 1138
f 538 544 372
f 372 545 538
f 544 371 372
f 373 545 372
f 372 357 373
f 372 371 356
f 356 357 372
f 1176 1177 508
f 1128 498 1130
f 1175 509 1127
f 425 509 510
f 508 509 424
f 507 508 424
f 424 509 425
f 514 444 446
f 444 445 446
f 1115 314 1118
f 515 444 1117
f 515 445 444
f 512 1173 1123
f 450 448 449
f 449 448 518
f 449 519 450
f 518 528 449
f 449 528 519
f 511 512 434
f 434 510 511
f 425 510 434
f 1099 17 1101
f 17 1052 1101
f 33 143 114
f 150 143 33
f 32 151 150
f 150 33 32
f 137 138 118
f 452 451 520
f 520 453 452
f 452 453 440
f 440 453 454
f 454 453 521
f 521 455 454
f 422 497 507
f 486 496 505
f 505 495 486
f 416 494 504
f 485 494 404
f 485 405 486
f 486 495 485
f 485 495 504
f 504 494 485
f 471 472 377
f 379 471 377
f 377 390 379
f 377 472 473
f 377 391 390
f 1183 472 1141
f 473 474 392
f 392 377 473
f 391 377 392
f 392 474 393
f 393 391 392
f 404 391 398
f 398 391 393
f 393 405 398
f 398 485 404
f 405 485 398
f 400 394 401
f 400 480 43
f 43 394 400
f 351 386 385
f 385 384 351
f 43 384 385
f 385 394 43
f 499 489 480
f 480 490 499
f 149 489 499
f 222 224 229
f 225 157 226
f 225 155 157
f 226 71 225
f 225 71 224
f 225 153 155
f 232 230 264
f 214 216 237
f 112 140 34
f 111 139 34
f 34 140 111
f 111 140 139
f 198 253 255
f 255 253 254
f 396 387 389
f 96 95 35
f 35 139 96
f 83 82 35
f 103 102 89
f 89 77 78
f 277 276 275
f 275 103 277
f 276 277 278
f 278 277 279
f 247 248 249
f 246 248 247
f 254 252 286
f 286 252 284
f 226 55 54
f 54 71 226
f 53 71 54
f 54 55 1067
f 1009 1008 56
f 1008 55 56
f 56 55 157
f 57 1009 56
f 56 157 57
f 1065 1066 53
f 1005 51 1063
f 52 1064 1007
f 52 51 228
f 99 269 267
f 265 98 267
f 98 99 267
f 100 101 271
f 271 269 100
f 270 269 271
f 271 272 270
f 237 216 235
f 656 657 626
f 656 625 655
f 656 626 625
f 656 655 688
f 688 689 656
f 689 657 656
f 787 786 819
f 819 820 787
f 787 820 788
f 787 788 755
f 755 786 787
f 905 874 1078
f 61 60 325
f 325 327 61
f 60 324 325
f 329 327 325
f 325 324 329
f 339 338 340
f 329 324 299
f 299 330 329
f 331 330 299
f 299 324 323
f 299 301 331
f 321 301 170
f 221 168 159
f 221 222 220
f 335 336 345
f 345 336 337
f 337 336 338
f 338 339 337
f 327 336 326
f 70 61 326
f 61 327 326
f 302 332 321
f 342 332 302
f 164 165 166
f 166 217 164
f 547 540 374
f 342 302 344
f 344 302 165
f 341 339 340
f 342 348 341
f 340 332 341
f 341 332 342
f 358 374 373
f 349 374 358
f 373 357 358
f 358 357 348
f 1029 1026 936
f 936 1028 1029
f 814 846 815
f 815 782 814
f 752 753 721
f 721 720 752
f 785 753 752
f 752 784 785
f 752 783 784
f 752 720 719
f 654 686 655
f 655 625 654
f 625 624 654
f 654 624 623
f 623 653 654
f 685 653 652
f 652 684 685
f 685 654 653
f 686 654 685
f 717 686 685
f 685 716 717
f 684 716 685
f 718 686 717
f 719 686 718
f 822 790 789
f 823 791 822
f 791 790 822
f 853 854 822
f 855 823 822
f 822 854 855
f 642 671 672
f 672 703 704
f 671 703 672
f 704 705 672
f 705 673 672
f 644 675 645
f 645 615 644
f 644 615 614
f 614 613 644
f 670 671 640
f 670 640 639
f 639 669 670
f 702 671 670
f 670 669 702
f 770 771 738
f 707 706 738
f 737 769 738
f 738 769 770
f 705 737 738
f 738 706 705
f 309 313 310
f 310 293 309
f 309 312 313
f 309 293 294
f 294 295 309
f 534 312 309
f 309 295 534
f 367 368 366
f 468 365 366
f 366 365 367
f 369 370 543
f 543 368 369
f 369 355 370
f 345 355 369
f 298 297 333
f 333 335 298
f 365 352 296
f 67 297 296
f 296 66 67
f 296 352 66
f 171 162 213
f 350 349 320
f 450 451 441
f 451 452 441
f 443 513 514
f 514 446 443
f 443 446 448
f 448 434 443
f 443 512 513
f 443 434 512
f 445 526 517
f 543 537 536
f 536 368 543
f 536 517 526
f 535 467 468
f 534 467 535
f 516 526 445
f 516 515 314
f 445 515 516
f 314 315 516
f 516 535 526
f 1172 315 1116
f 1121 513 1124
f 425 434 442
f 442 448 450
f 442 434 448
f 142 143 261
f 261 260 142
f 143 150 261
f 152 151 43
f 152 146 151
f 135 146 145
f 43 144 145
f 146 152 145
f 145 152 43
f 151 146 127
f 127 150 151
f 126 150 127
f 127 125 126
f 464 137 435
f 138 137 464
f 464 463 138
f 128 146 135
f 128 137 118
f 128 127 146
f 130 118 120
f 437 428 429
f 428 437 436
f 504 495 418
f 495 505 418
f 431 421 440
f 440 454 431
f 496 497 506
f 497 422 506
f 429 428 415
f 415 416 429
f 494 416 503
f 414 493 503
f 503 415 414
f 416 415 503
f 481 400 401
f 481 490 480
f 480 400 481
f 386 387 395
f 395 385 386
f 401 394 395
f 394 385 395
f 147 148 43
f 224 222 223
f 223 225 224
f 222 221 223
f 153 225 223
f 159 153 223
f 223 221 159
f 233 232 234
f 234 235 233
f 231 232 233
f 231 222 229
f 229 230 231
f 230 232 231
f 231 233 220
f 220 222 231
f 275 276 274
f 270 272 238
f 246 247 245
f 239 214 237
f 237 238 239
f 187 201 199
f 198 197 199
f 200 253 198
f 198 199 200
f 200 199 201
f 251 253 200
f 113 112 34
f 142 112 113
f 34 33 113
f 33 114 113
f 113 143 142
f 113 114 143
f 141 112 142
f 142 260 141
f 140 112 141
f 198 255 196
f 196 197 198
f 389 391 397
f 397 391 404
f 110 96 139
f 139 140 110
f 35 95 84
f 84 83 35
f 94 84 95
f 83 84 94
f 103 89 90
f 79 91 90
f 90 78 79
f 90 89 78
f 88 102 101
f 88 89 102
f 101 87 88
f 77 89 88
f 88 87 76
f 76 77 88
f 279 277 104
f 104 277 103
f 103 90 104
f 104 90 91
f 276 278 244
f 244 278 246
f 246 245 244
f 280 278 279
f 279 281 280
f 246 278 280
f 280 248 246
f 106 107 283
f 283 281 106
f 82 92 81
f 36 82 81
f 81 92 91
f 81 22 36
f 249 248 250
f 284 252 250
f 251 249 250
f 250 252 251
f 207 208 206
f 206 205 207
f 208 245 206
f 206 245 247
f 202 249 251
f 251 200 202
f 202 201 203
f 202 200 201
f 254 286 288
f 289 290 288
f 289 288 287
f 287 288 286
f 53 52 227
f 227 71 53
f 229 224 227
f 224 71 227
f 228 229 227
f 227 52 228
f 266 264 265
f 265 267 266
f 266 232 264
f 266 234 232
f 101 102 273
f 273 271 101
f 273 102 275
f 272 271 273
f 275 274 273
f 273 274 272
f 905 1078 1031
f 356 355 346
f 346 337 339
f 346 355 345
f 345 337 346
f 300 299 323
f 323 322 300
f 301 299 300
f 300 322 156
f 156 154 300
f 321 170 169
f 159 168 169
f 169 170 159
f 160 153 159
f 159 170 160
f 160 170 301
f 216 214 215
f 215 217 216
f 215 214 213
f 164 217 215
f 213 162 215
f 215 162 164
f 219 221 220
f 168 221 219
f 219 166 168
f 217 166 219
f 70 326 334
f 334 69 70
f 333 69 334
f 334 335 333
f 336 335 334
f 334 326 336
f 547 374 359
f 359 350 303
f 359 374 349
f 349 350 359
f 349 358 343
f 343 358 348
f 320 349 343
f 343 344 320
f 343 348 342
f 342 344 343
f 320 344 173
f 348 357 347
f 347 341 348
f 347 357 356
f 339 341 347
f 356 346 347
f 347 346 339
f 846 814 845
f 845 877 846
f 876 877 845
f 845 844 876
f 782 749 781
f 783 752 751
f 751 752 719
f 751 782 783
f 719 718 751
f 717 749 750
f 750 718 717
f 750 751 718
f 750 749 782
f 782 751 750
f 789 820 821
f 821 822 789
f 821 820 853
f 853 822 821
f 673 644 643
f 642 672 643
f 643 672 673
f 643 613 642
f 643 644 613
f 675 644 674
f 674 644 673
f 707 675 674
f 674 706 707
f 674 673 705
f 705 706 674
f 739 738 771
f 772 740 739
f 739 771 772
f 739 740 707
f 707 738 739
f 367 298 354
f 354 368 367
f 354 369 368
f 345 369 354
f 354 335 345
f 354 298 335
f 297 298 353
f 353 296 297
f 365 296 353
f 367 365 353
f 353 298 367
f 520 539 530
f 530 539 540
f 521 453 530
f 530 453 520
f 530 531 521
f 540 531 530
f 538 545 529
f 545 539 529
f 529 519 538
f 529 539 520
f 520 451 529
f 529 451 519
f 546 374 540
f 540 539 546
f 373 374 546
f 546 545 373
f 546 539 545
f 522 455 521
f 521 531 522
f 457 455 522
f 541 540 547
f 541 531 540
f 182 171 180
f 182 350 320
f 303 350 179
f 180 178 179
f 425 442 433
f 450 441 433
f 433 442 450
f 447 446 445
f 445 517 447
f 448 446 447
f 518 448 447
f 517 536 527
f 518 447 527
f 527 447 517
f 527 537 518
f 527 536 537
f 469 535 468
f 368 536 469
f 469 536 526
f 526 535 469
f 468 366 469
f 469 366 368
f 525 516 315
f 534 535 525
f 535 516 525
f 126 125 193
f 136 128 135
f 137 128 136
f 435 137 426
f 426 411 435
f 414 415 413
f 413 415 428
f 118 130 129
f 129 130 125
f 125 127 129
f 129 128 118
f 127 128 129
f 123 130 120
f 185 319 304
f 116 197 115
f 195 123 115
f 115 196 195
f 197 196 115
f 460 437 458
f 460 524 461
f 461 436 460
f 460 436 437
f 462 436 461
f 462 464 435
f 463 464 462
f 121 462 461
f 463 462 121
f 116 183 184
f 319 185 184
f 420 422 421
f 420 506 422
f 421 431 420
f 431 419 420
f 420 505 496
f 496 506 420
f 420 418 505
f 420 419 418
f 387 396 402
f 402 395 387
f 396 483 402
f 149 499 407
f 499 147 407
f 43 149 407
f 407 147 43
f 235 234 236
f 237 235 236
f 236 238 237
f 270 238 236
f 211 171 213
f 180 171 211
f 213 214 212
f 212 211 213
f 210 211 212
f 241 210 212
f 212 239 241
f 214 239 212
f 240 239 238
f 272 274 240
f 240 238 272
f 241 239 240
f 140 141 291
f 291 290 289
f 289 110 291
f 291 110 140
f 290 258 256
f 256 255 254
f 254 288 256
f 256 288 290
f 292 258 290
f 290 291 292
f 292 291 141
f 292 141 260
f 257 196 255
f 255 256 257
f 257 256 258
f 195 196 257
f 93 92 82
f 82 83 93
f 83 94 93
f 106 92 93
f 93 107 106
f 93 94 107
f 105 92 106
f 279 104 105
f 91 92 105
f 105 104 91
f 106 281 105
f 105 281 279
f 243 244 245
f 243 210 241
f 243 245 208
f 208 210 243
f 282 280 281
f 281 283 282
f 248 280 282
f 282 283 284
f 284 250 282
f 282 250 248
f 80 91 79
f 80 81 91
f 80 79 31
f 80 31 22
f 22 81 80
f 205 206 204
f 249 202 204
f 204 247 249
f 204 206 247
f 203 205 204
f 204 202 203
f 207 205 176
f 176 178 207
f 191 376 175
f 95 96 109
f 96 110 109
f 109 110 289
f 289 287 109
f 268 267 269
f 268 266 267
f 268 269 270
f 234 266 268
f 270 236 268
f 268 236 234
f 1077 1030 905
f 905 1031 1077
f 1036 842 810
f 1079 874 842
f 842 1035 1079
f 165 302 167
f 167 166 165
f 167 302 321
f 321 169 167
f 168 166 167
f 167 169 168
f 154 153 161
f 153 160 161
f 161 300 154
f 301 300 161
f 161 160 301
f 218 219 220
f 218 235 216
f 216 217 218
f 217 219 218
f 220 233 218
f 233 235 218
f 547 359 375
f 375 359 303
f 375 541 547
f 548 541 375
f 303 376 375
f 375 376 548
f 164 162 163
f 162 173 163
f 163 165 164
f 163 344 165
f 163 173 344
f 813 845 814
f 813 814 782
f 782 781 813
f 748 781 749
f 748 780 781
f 717 716 748
f 748 749 717
f 716 747 748
f 748 747 779
f 779 780 748
f 532 522 531
f 531 541 532
f 532 548 542
f 532 541 548
f 320 173 172
f 172 182 320
f 172 173 162
f 162 171 172
f 171 182 172
f 180 179 181
f 181 179 350
f 181 182 180
f 350 182 181
f 423 433 441
f 507 424 423
f 423 422 507
f 423 424 425
f 425 433 423
f 316 315 317
f 316 525 315
f 317 312 316
f 316 312 534
f 534 525 316
f 260 261 192
f 126 193 192
f 192 150 126
f 192 261 150
f 195 257 194
f 194 257 258
f 502 483 493
f 502 493 414
f 403 483 396
f 403 396 389
f 389 397 403
f 403 397 404
f 493 483 403
f 137 136 318
f 318 426 137
f 427 462 435
f 436 462 427
f 435 411 427
f 411 413 427
f 428 436 427
f 427 413 428
f 124 123 195
f 195 194 124
f 124 194 193
f 124 193 125
f 125 130 124
f 130 123 124
f 122 183 116
f 116 115 122
f 122 115 123
f 122 121 183
f 122 123 120
f 120 121 122
f 457 522 523
f 522 532 523
f 523 532 542
f 304 319 533
f 319 524 533
f 533 542 304
f 533 523 542
f 304 188 186
f 186 185 304
f 186 188 187
f 187 199 117
f 117 199 197
f 117 186 187
f 185 186 117
f 117 197 116
f 116 184 117
f 117 184 185
f 305 121 461
f 183 121 305
f 461 524 305
f 305 524 319
f 319 184 305
f 305 184 183
f 119 121 120
f 463 121 119
f 120 138 119
f 138 463 119
f 418 419 430
f 408 499 490
f 490 500 408
f 408 147 499
f 411 426 410
f 490 481 491
f 491 500 490
f 491 410 500
f 180 211 209
f 209 208 207
f 209 210 208
f 209 211 210
f 207 178 209
f 209 178 180
f 241 240 242
f 242 243 241
f 244 243 242
f 276 244 242
f 242 274 276
f 242 240 274
f 177 376 303
f 175 376 177
f 177 176 175
f 303 179 177
f 177 179 178
f 178 176 177
f 203 201 189
f 189 201 187
f 187 188 189
f 304 542 549
f 549 188 304
f 549 189 188
f 542 548 549
f 548 376 549
f 108 109 287
f 95 109 108
f 108 94 95
f 107 94 108
f 1038 810 1037
f 1038 1036 810
f 1081 1035 842
f 781 780 812
f 812 813 781
f 812 811 844
f 844 845 812
f 845 813 812
f 779 811 812
f 812 780 779
f 421 422 432
f 422 423 432
f 440 421 432
f 432 423 441
f 432 452 440
f 432 441 452
f 259 192 193
f 193 194 259
f 260 192 259
f 259 194 258
f 259 292 260
f 258 292 259
f 484 403 404
f 493 403 484
f 404 494 484
f 494 503 484
f 484 503 493
f 459 460 458
f 524 460 459
f 459 458 457
f 457 523 459
f 459 533 524
f 523 533 459
f 417 430 429
f 418 430 417
f 429 416 417
f 417 416 504
f 504 418 417
f 439 419 431
f 439 430 419
f 439 431 454
f 409 408 500
f 500 410 409
f 409 410 426
f 411 410 412
f 412 413 411
f 414 413 412
f 412 502 414
f 483 502 492
f 203 189 174
f 174 205 203
f 174 176 205
f 175 176 174
f 174 191 175
f 376 191 190
f 190 549 376
f 189 549 190
f 191 174 190
f 190 174 189
f 285 283 107
f 107 108 285
f 284 283 285
f 285 108 287
f 285 286 284
f 285 287 286
f 842 1036 1080
f 1080 1081 842
f 1033 1078 874
f 874 1032 1033
f 874 1079 1034
f 1034 1032 874
f 430 439 456
f 457 458 456
f 456 455 457
f 456 454 455
f 456 439 454
f 135 145 133
f 133 145 144
f 147 408 307
f 307 132 147
f 482 492 491
f 482 402 483
f 483 492 482
f 401 395 482
f 395 402 482
f 482 481 401
f 482 491 481
f 410 491 501
f 491 492 501
f 501 412 410
f 502 412 501
f 501 492 502
f 438 456 458
f 430 456 438
f 429 430 438
f 438 437 429
f 458 437 438
f 131 133 144
f 131 144 43
f 132 133 131
f 43 148 131
f 148 147 131
f 147 132 131
f 306 318 136
f 306 136 135
f 426 318 306
f 306 409 426
f 409 306 134
f 408 409 134
f 134 307 408
f 132 307 134
f 134 133 132
f 135 133 134
f 134 306 135
f 553 552 573
f 573 552 1142
f 470 1142 1184
f 470 573 1142
f 982 1154 1189
f 981 1154 982
f 982 1189 1155
f 1155 983 982
f 1153 1154 980
f 980 1154 981
f 1153 980 1152
f 1152 980 979
f 986 1157 1158
f 985 1157 986
f 1165 1195 998
f 998 1195 999
f 1162 1163 995
f 995 1163 996
f 1196 1014 44
f 1166 1014 1196
f 1017 1071 63
f 63 1071 64
f 984 1156 1157
f 984 1157 985
f 984 983 1155
f 1155 1156 984
f 1193 1161 992
f 992 1161 993
f 1193 992 1192
f 1192 992 991
f 1159 986 1158
f 987 986 1159
f 9 10 8
f 7 9 8
f 1016 1070 62
f 62 1070 63
f 44 1014 62
f 1014 1015 62
f 969 968 1143
f 968 1187 1143
f 1143 970 969
f 1144 970 1143
f 977 1188 1151
f 1151 978 977
f 1151 1152 979
f 979 978 1151
f 988 1190 1191
f 988 1191 989
f 988 1159 1190
f 987 1159 988
f 558 559 566
f 566 562 563
f 563 564 566
f 568 569 566
f 560 561 566
f 566 557 558
f 566 572 1186
f 566 559 560
f 556 557 566
f 566 555 556
f 553 554 566
f 566 552 553
f 1186 1185 566
f 566 564 565
f 566 554 555
f 566 569 570
f 570 571 566
f 566 1185 552
f 566 561 562
f 571 572 566
f 566 567 568
f 996 1163 997
f 1163 1164 997
f 1165 998 997
f 997 1164 1165
f 1162 995 1194
f 995 994 1194
f 993 1161 1194
f 1194 994 993
f 488 1131 1132
f 479 1131 488
f 550 13 12
f 11 550 12
f 13 551 12
f 12 551 14
f 12 10 9
f 12 9 11
f 1140 470 1184
f 1140 471 470
f 1148 1149 975
f 975 974 1148
f 1019 64 1018
f 1019 65 64
f 971 970 1144
f 1144 1145 971
f 1146 971 1145
f 972 971 1146
f 989 1191 1160
f 1160 990 989
f 1160 1192 991
f 991 990 1160
f 308 1196 44
f 1167 1196 308
f 478 1133 1134
f 478 1134 479
f 1121 1122 513
f 513 1122 514
f 1137 1180 475
f 475 1180 476
f 1011 58 1010
f 57 58 1011
f 976 1150 1188
f 976 1188 977
f 976 1149 1150
f 976 975 1149
f 67 1022 1072
f 1072 68 67
f 1023 1024 69
f 69 1024 70
f 1075 70 1025
f 1075 61 70
f 1068 60 1013
f 1013 60 61
f 1148 974 1147
f 974 973 1147
f 972 1146 1147
f 1147 973 972
f 310 313 1169
f 1169 313 1112
f 1111 308 311
f 311 1168 1111
f 1113 313 1171
f 1171 313 317
f 477 1135 1178
f 1178 478 477
f 1136 1179 477
f 477 476 1136
f 473 1182 1181
f 1181 474 473
f 509 1177 1127
f 508 1177 509
f 514 1120 1119
f 1119 444 514
f 7 8 6
f 6 5 7
f 6 3 5
f 6 4 3
f 20 4 6
f 6 17 20
f 473 472 1139
f 1139 472 1183
f 1006 51 1005
f 50 51 1006
f 1061 1060 49
f 49 50 1061
f 1074 68 1073
f 1074 69 68
f 1137 475 1138
f 1138 475 474
f 1176 498 1128
f 508 498 1176
f 488 1129 1130
f 1130 498 488
f 1125 1126 510
f 510 1126 511
f 510 1175 1125
f 509 1175 510
f 1117 1118 515
f 515 1118 314
f 315 1172 1114
f 315 1114 317
f 1173 511 1174
f 1173 512 511
f 471 1140 1141
f 1141 472 471
f 1065 54 1067
f 53 54 1065
f 1007 1063 52
f 52 1063 51
f 1066 1064 52
f 53 1066 52
f 1116 314 1115
f 1116 315 314
f 1124 1159 1158
f 1124 1195 1165
f 1136 1180 1124
f 1124 1161 1193
f 1166 1196 1124
f 1170 1169 1124
f 1115 1118 1124
f 1193 1192 1124
f 1124 1197 1166
f 1158 1157 1124
f 1153 1152 1124
f 1184 1142 1124
f 1124 1185 1186
f 1124 1154 1153
f 1155 1189 1124
f 1124 1156 1155
f 1124 1143 1187
f 1186 1195 1124
f 1124 1196 1167
f 1124 1112 1113
f 1124 1187 1197
f 1189 1154 1124
f 1157 1156 1124
f 1124 1140 1184
f 1124 1151 1188
f 1191 1190 1124
f 1124 1163 1162
f 1142 1185 1124
f 1162 1194 1124
f 1165 1164 1124
f 1113 1171 1124
f 1188 1150 1124
f 1124 1149 1148
f 1124 1119 1120
f 1190 1159 1124
f 1124 1164 1163
f 1132 1131 1124
f 1134 1133 1124
f 1124 1175 1127
f 1150 1149 1124
f 1144 1143 1124
f 1124 1145 1144
f 1152 1151 1124
f 1124 1194 1161
f 1124 1160 1191
f 1124 1131 1134
f 1167 1111 1124
f 1124 1179 1136
f 1124 1181 1182
f 1174 1126 1124
f 1127 1177 1124
f 1120 1122 1124
f 1124 1146 1145
f 1192 1160 1124
f 1148 1147 1124
f 1124 1168 1170
f 1124 1141 1140
f 1124 1133 1178
f 1178 1135 1124
f 1124 1180 1137
f 1124 1129 1132
f 1128 1130 1124
f 1124 1122 1121
f 1124 1116 1115
f 1124 1147 1146
f 1124 1169 1112
f 1124 1111 1168
f 1114 1172 1124
f 1124 1171 1114
f 1135 1179 1124
f 1182 1139 1124
f 1124 1176 1128
f 1137 1138 1124
f 1124 1126 1125
f 1117 1119 1124
f 1124 1139 1183
f 1124 1138 1181
f 1177 1176 1124
f 1124 1130 1129
f 1125 1175 1124
f 1124 1118 1117
f 1124 1173 1174
f 1124 1123 1173
f 1183 1141 1124
f 1172 1116 1124
f 513 512 1124
f 512 1123 1124
f 1034 1055 1000
f 1166 1197 1034
f 1034 1107 1055
f 1034 1014 1166
f 1000 1058 1034
f 1034 1041 1040
f 1099 1101 1034
f 1034 1092 1094
f 1068 1013 1034
f 1048 1097 1034
f 1197 1056 1034
f 1017 1070 1034
f 1034 1058 1059
f 1040 1042 1034
f 1007 1064 1034
f 1098 1051 1034
f 1018 1071 1034
f 1022 1021 1034
f 1034 1054 1106
f 1103 1105 1034
f 1059 1001 1034
f 1034 1002 1003
f 1034 1015 1014
f 1034 1071 1017
f 1034 1086 1088
f 1010 1012 1034
f 1056 1057 1034
f 1106 1110 1034
f 1034 1105 1054
f 1034 1072 1022
f 1067 1008 1034
f 1034 1049 1098
f 1034 1108 1107
f 1005 1063 1034
f 1034 1096 1048
f 1034 1043 1046
f 1016 1015 1034
f 1034 1070 1016
f 1034 1019 1018
f 1025 1024 1034
f 1057 1027 1034
f 1034 1100 1099
f 1003 1004 1034
f 1034 1011 1010
f 1050 1049 1034
f 1034 1097 1050
f 1102 1053 1034
f 1034 1104 1103
f 1085 1044 1034
f 1046 1045 1034
f 1034 1087 1090
f 1020 1019 1034
f 1034 1021 1020
f 1034 1069 1068
f 1034 1075 1025
f 1027 1026 1034
f 1034 1110 1109
f 1109 1108 1034
f 1051 1100 1034
f 1034 1004 1060
f 1001 1002 1034
f 1009 1011 1034
f 1034 1008 1009
f 1030 1077 1034
f 1034 1006 1005
f 1060 1061 1034
f 1053 1104 1034
f 1034 1042 1085
f 1094 1047 1034
f 1034 1039 1083
f 1037 1082 1034
f 1083 1084 1034
f 1088 1087 1034
f 1034 1091 1093
f 1093 1092 1034
f 1090 1089 1034
f 1034 1024 1023
f 1073 1072 1034
f 1076 1075 1034
f 1034 1013 1076
f 1034 1074 1073
f 1034 1052 1102
f 1034 1065 1067
f 1062 1006 1034
f 1034 1061 1062
f 1095 1096 1034
f 1034 1047 1095
f 1034 1044 1043
f 1034 1082 1039
f 1034 1084 1041
f 1045 1086 1034
f 1034 1089 1091
f 1012 1069 1034
f 1023 1074 1034
f 1034 1028 1030
f 1034 1101 1052
f 1066 1065 1034
f 1034 1064 1066
f 1034 1063 1007
f 1026 1029 1034
f 1034 1029 1028
f 1034 1031 1078
f 1035 1081 1034
f 1034 1077 1031
f 1034 1038 1037
f 1034 1079 1035
f 1036 1038 1034
f 1034 1080 1036
f 1078 1033 1034
f 1081 1080 1034
f 1034 1033 1032

