# https://github.com/mikedh/trimesh
v -0.01090000 0.00636491 0.09256284
v -0.01078252 0.00663294 0.09052937
v -0.01090000 0.00589695 0.09537500
v -0.01077785 0.00663983 0.09046958
v -0.00890000 0.00504440 0.09903109
v -0.00890000 0.00495929 0.09931941
v -0.00884121 0.00495763 0.09931891
v -0.00890000 0.00405765 0.10176594
v -0.00890000 0.00386753 0.10216469
v -0.00884121 0.00386599 0.10216392
v -0.00890000 0.00235218 0.10432860
v -0.00890000 0.00224051 0.10443109
v -0.00884121 0.00223936 0.10442979
v -0.00890000 0.00562992 0.09669178
v -0.00890000 0.00537139 0.09780761
v -0.00884121 0.00536972 0.09780719
v -0.00790019 0.00441932 0.09757228
v -0.00790000 0.00422707 0.09824021
v -0.00790000 0.00487884 0.09537500
v -0.00890000 0.00589695 0.09537500
v -0.00884121 0.00589519 0.09537500
v -0.00877785 0.00536413 0.09780581
v -0.00859239 0.00532433 0.09779598
v -0.00864538 0.00586340 0.09537500
v -0.00865317 0.00534136 0.09780019
v -0.00871506 0.00587939 0.09537500
v -0.00871507 0.00535465 0.09780347
v -0.00872927 0.00588200 0.09537500
v -0.00881434 0.00589320 0.09537500
v -0.00841912 0.00525178 0.09777804
v -0.00848348 0.00580446 0.09537500
v -0.00847515 0.00527943 0.09778488
v -0.00853297 0.00582592 0.09537500
v -0.00853298 0.00530365 0.09779087
v -0.00856326 0.00583751 0.09537500
v -0.00859238 0.00584760 0.09537500
v -0.00821701 0.00510970 0.09774292
v -0.00826393 0.00566450 0.09537500
v -0.00826386 0.00514964 0.09775279
v -0.00831326 0.00570334 0.09537500
v -0.00831328 0.00518674 0.09776197
v -0.00833324 0.00571769 0.09537500
v -0.00836509 0.00522084 0.09777039
v -0.00840661 0.00576444 0.09537500
v -0.00841911 0.00577153 0.09537500
v -0.00809355 0.00497464 0.09770954
v -0.00813964 0.00554018 0.09537500
v -0.00813174 0.00502205 0.09772126
v -0.00817295 0.00557793 0.09537500
v -0.00817296 0.00506715 0.09773241
v -0.00819922 0.00560520 0.09537500
v -0.00821700 0.00562255 0.09537500
v -0.00797353 0.00476599 0.09765797
v -0.00799664 0.00531556 0.09537500
v -0.00799842 0.00482059 0.09767146
v -0.00802679 0.00537508 0.09537500
v -0.00802679 0.00487371 0.09768459
v -0.00803790 0.00539483 0.09537500
v -0.00805853 0.00492513 0.09769730
v -0.00808571 0.00546989 0.09537500
v -0.00809355 0.00548093 0.09537500
v -0.00792034 0.00459540 0.09761580
v -0.00793526 0.00514687 0.09537500
v -0.00793443 0.00465317 0.09763008
v -0.00795218 0.00520349 0.09537500
v -0.00795218 0.00471010 0.09764416
v -0.00796231 0.00523269 0.09537500
v -0.00797353 0.00526210 0.09537500
v -0.00790019 0.00489847 0.09537500
v -0.00790394 0.00496920 0.09537500
v -0.00790320 0.00447825 0.09758685
v -0.00790992 0.00502195 0.09537500
v -0.00790992 0.00453702 0.09760138
v -0.00791574 0.00505880 0.09537500
v -0.00792034 0.00508318 0.09537500
v -0.00790019 0.00225719 0.10295099
v -0.00790320 0.00230613 0.10298692
v -0.00790320 0.00217277 0.10316170
v -0.00790992 0.00222020 0.10319932
v -0.00790992 0.00202409 0.10343287
v -0.00790000 0.00195608 0.10329752
v -0.00790320 0.00179796 0.10358434
v -0.00790019 0.00193357 0.10335219
v -0.00790992 0.00184073 0.10362718
v -0.00790320 0.00197889 0.10339259
v -0.00790019 0.00212520 0.10312398
v -0.00790000 0.00221586 0.10297447
v -0.00884121 0.00203884 0.10459796
v -0.00877785 0.00223553 0.10442549
v -0.00877785 0.00203528 0.10459343
v -0.00871507 0.00222905 0.10441820
v -0.00871507 0.00202923 0.10458577
v -0.00865317 0.00221995 0.10440796
v -0.00865317 0.00202075 0.10457502
v -0.00859239 0.00220830 0.10439485
v -0.00859239 0.00200988 0.10456125
v -0.00853298 0.00219414 0.10437892
v -0.00853298 0.00199668 0.10454453
v -0.00847515 0.00217757 0.10436027
v -0.00847515 0.00198122 0.10452495
v -0.00841912 0.00215865 0.10433899
v -0.00841912 0.00196358 0.10450259
v -0.00836509 0.00213748 0.10431516
v -0.00836509 0.00194383 0.10447757
v -0.00831328 0.00211414 0.10428891
v -0.00831328 0.00192207 0.10445000
v -0.00826386 0.00208876 0.10426035
v -0.00826386 0.00189839 0.10442000
v -0.00821701 0.00206142 0.10422959
v -0.00821701 0.00187290 0.10438770
v -0.00817296 0.00203230 0.10419683
v -0.00817296 0.00184575 0.10435329
v -0.00813174 0.00200144 0.10416210
v -0.00813174 0.00181697 0.10431683
v -0.00809355 0.00196900 0.10412561
v -0.00809355 0.00178671 0.10427850
v -0.00805853 0.00193512 0.10408749
v -0.00802679 0.00189993 0.10404790
v -0.00799842 0.00186358 0.10400700
v -0.00797353 0.00182621 0.10396495
v -0.00795218 0.00178797 0.10392193
v -0.00792034 0.00206898 0.10347290
v -0.00792034 0.00226733 0.10323668
v -0.00793443 0.00211340 0.10351249
v -0.00793443 0.00231395 0.10327366
v -0.00795218 0.00215719 0.10355152
v -0.00795218 0.00235991 0.10331010
v -0.00797353 0.00220016 0.10358983
v -0.00797353 0.00240501 0.10334587
v -0.00799842 0.00224215 0.10362726
v -0.00799842 0.00244909 0.10338082
v -0.00802679 0.00228300 0.10366367
v -0.00802679 0.00249196 0.10341482
v -0.00805853 0.00232254 0.10369892
v -0.00805853 0.00253347 0.10344774
v -0.00809355 0.00236062 0.10373285
v -0.00809355 0.00257343 0.10347942
v -0.00813174 0.00239707 0.10376535
v -0.00813174 0.00261169 0.10350977
v -0.00817296 0.00243175 0.10379626
v -0.00817296 0.00264810 0.10353863
v -0.00821701 0.00246447 0.10382543
v -0.00821701 0.00268244 0.10356587
v -0.00826386 0.00249519 0.10385281
v -0.00826386 0.00271468 0.10359143
v -0.00831328 0.00252372 0.10387824
v -0.00831328 0.00274463 0.10361518
v -0.00836509 0.00254994 0.10390161
v -0.00836509 0.00277215 0.10363700
v -0.00841912 0.00257373 0.10392282
v -0.00841912 0.00279712 0.10365681
v -0.00847515 0.00259499 0.10394178
v -0.00847515 0.00281944 0.10367451
v -0.00853298 0.00261362 0.10395838
v -0.00853298 0.00283899 0.10369001
v -0.00859239 0.00262952 0.10397255
v -0.00859239 0.00285568 0.10370325
v -0.00865317 0.00264262 0.10398423
v -0.00865317 0.00286943 0.10371415
v -0.00871507 0.00265284 0.10399334
v -0.00871507 0.00288016 0.10372265
v -0.00877785 0.00266013 0.10399984
v -0.00877785 0.00288780 0.10372872
v -0.00884121 0.00266443 0.10400367
v -0.00884121 0.00289232 0.10373230
v -0.00890000 0.00263940 0.10403406
v -0.00790019 0.00248021 0.10262766
v -0.00790320 0.00253114 0.10266070
v -0.00790992 0.00235492 0.10302275
v -0.00790992 0.00258193 0.10269365
v -0.00792034 0.00240339 0.10305835
v -0.00792034 0.00263237 0.10272638
v -0.00793443 0.00245135 0.10309358
v -0.00793443 0.00268229 0.10275878
v -0.00795218 0.00249862 0.10312829
v -0.00795218 0.00273149 0.10279071
v -0.00797353 0.00254501 0.10316237
v -0.00797353 0.00277978 0.10282204
v -0.00799842 0.00259035 0.10319567
v -0.00799842 0.00282697 0.10285266
v -0.00802679 0.00263445 0.10322805
v -0.00802679 0.00287287 0.10288244
v -0.00805853 0.00267714 0.10325941
v -0.00805853 0.00291731 0.10291127
v -0.00809355 0.00271825 0.10328960
v -0.00809355 0.00296009 0.10293903
v -0.00813174 0.00275760 0.10331850
v -0.00813174 0.00300106 0.10296561
v -0.00817296 0.00279505 0.10334600
v -0.00817296 0.00304003 0.10299090
v -0.00821701 0.00283038 0.10337195
v -0.00821701 0.00307680 0.10301476
v -0.00826386 0.00286354 0.10339630
v -0.00826386 0.00311132 0.10303716
v -0.00831328 0.00289434 0.10341892
v -0.00831328 0.00314338 0.10305796
v -0.00836509 0.00292265 0.10343971
v -0.00836509 0.00317284 0.10307708
v -0.00841912 0.00294834 0.10345858
v -0.00841912 0.00319958 0.10309442
v -0.00847515 0.00297129 0.10347544
v -0.00847515 0.00322347 0.10310993
v -0.00853298 0.00299140 0.10349020
v -0.00853298 0.00324440 0.10312351
v -0.00859239 0.00300857 0.10350282
v -0.00859239 0.00326227 0.10313510
v -0.00865317 0.00302271 0.10351320
v -0.00865317 0.00327699 0.10314465
v -0.00871507 0.00303375 0.10352130
v -0.00871507 0.00328847 0.10315210
v -0.00877785 0.00304161 0.10352708
v -0.00877785 0.00329666 0.10315742
v -0.00884121 0.00304625 0.10353049
v -0.00884121 0.00330149 0.10316055
v -0.00790019 0.00272160 0.10223050
v -0.00790320 0.00277431 0.10226061
v -0.00790992 0.00282688 0.10229064
v -0.00792034 0.00287910 0.10232046
v -0.00793443 0.00293078 0.10234997
v -0.00795218 0.00298171 0.10237905
v -0.00797353 0.00303169 0.10240760
v -0.00799842 0.00308054 0.10243549
v -0.00802679 0.00312805 0.10246263
v -0.00805853 0.00317405 0.10248890
v -0.00809355 0.00321834 0.10251419
v -0.00813174 0.00326074 0.10253841
v -0.00817296 0.00330108 0.10256144
v -0.00821701 0.00333914 0.10258318
v -0.00826386 0.00337487 0.10260358
v -0.00831328 0.00340806 0.10262254
v -0.00836509 0.00343856 0.10263996
v -0.00841912 0.00346624 0.10265576
v -0.00847515 0.00349097 0.10266989
v -0.00853298 0.00351263 0.10268226
v -0.00859239 0.00353113 0.10269282
v -0.00865317 0.00354637 0.10270152
v -0.00871507 0.00355826 0.10270832
v -0.00877785 0.00356673 0.10271315
v -0.00884121 0.00357173 0.10271601
v -0.00790019 0.00298972 0.10172733
v -0.00790320 0.00304406 0.10175440
v -0.00790992 0.00309825 0.10178140
v -0.00792034 0.00315207 0.10180821
v -0.00793443 0.00320534 0.10183475
v -0.00795218 0.00325783 0.10186090
v -0.00797353 0.00330935 0.10188658
v -0.00799842 0.00335970 0.10191166
v -0.00802679 0.00340867 0.10193606
v -0.00805853 0.00345608 0.10195968
v -0.00809355 0.00350173 0.10198243
v -0.00813174 0.00354544 0.10200421
v -0.00817296 0.00358702 0.10202492
v -0.00821701 0.00362625 0.10204447
v -0.00826386 0.00366308 0.10206282
v -0.00831328 0.00369728 0.10207986
v -0.00836509 0.00372872 0.10209552
v -0.00841912 0.00375725 0.10210974
v -0.00847515 0.00378274 0.10212244
v -0.00853298 0.00380507 0.10213356
v -0.00859239 0.00382414 0.10214306
v -0.00865317 0.00383984 0.10215089
v -0.00871507 0.00385210 0.10215700
v -0.00877785 0.00386083 0.10216135
v -0.00890000 0.00182067 0.10476100
v -0.00884121 0.00184659 0.10474098
v -0.00877785 0.00184329 0.10473625
v -0.00871507 0.00183769 0.10472826
v -0.00865317 0.00182985 0.10471704
v -0.00859239 0.00181979 0.10470266
v -0.00853298 0.00180758 0.10468520
v -0.00847515 0.00179328 0.10466476
v -0.00890000 0.00203990 0.10459929
v -0.00890000 0.00208063 0.10456675
v -0.00890000 0.00244804 0.10423537
v -0.00884121 0.00244682 0.10423414
v -0.00877785 0.00244275 0.10423007
v -0.00871507 0.00243585 0.10422316
v -0.00865317 0.00242618 0.10421347
v -0.00859239 0.00241378 0.10420106
v -0.00853298 0.00239873 0.10418598
v -0.00847515 0.00238110 0.10416833
v -0.00841912 0.00236098 0.10414817
v -0.00836509 0.00233845 0.10412562
v -0.00831328 0.00231364 0.10410076
v -0.00826386 0.00228663 0.10407373
v -0.00821701 0.00225756 0.10404461
v -0.00817296 0.00222659 0.10401359
v -0.00813174 0.00219376 0.10398072
v -0.00809355 0.00215926 0.10394616
v -0.00805853 0.00212322 0.10391007
v -0.00802679 0.00208580 0.10387260
v -0.00799842 0.00204713 0.10383388
v -0.00797353 0.00200739 0.10379408
v -0.00795218 0.00196671 0.10375334
v -0.00793443 0.00192527 0.10371184
v -0.00792034 0.00188323 0.10366973
v -0.00890000 0.00304764 0.10353151
v -0.00890000 0.00294711 0.10366504
v -0.00890000 0.00289366 0.10373336
v -0.00890000 0.00328111 0.10319481
v -0.00890000 0.00357325 0.10271688
v -0.00890000 0.00364846 0.10258286
v -0.00890000 0.00418434 0.10148025
v -0.00884121 0.00418275 0.10147956
v -0.00877785 0.00417746 0.10147728
v -0.00871507 0.00416850 0.10147342
v -0.00865317 0.00415592 0.10146800
v -0.00859239 0.00413981 0.10146106
v -0.00853298 0.00412025 0.10145263
v -0.00847515 0.00409733 0.10144276
v -0.00841912 0.00407118 0.10143149
v -0.00836509 0.00404191 0.10141888
v -0.00831328 0.00400965 0.10140498
v -0.00826386 0.00397455 0.10138986
v -0.00821701 0.00393677 0.10137358
v -0.00817296 0.00389651 0.10135623
v -0.00813174 0.00385385 0.10133785
v -0.00809355 0.00380900 0.10131853
v -0.00805853 0.00376216 0.10129835
v -0.00802679 0.00371352 0.10127739
v -0.00799842 0.00366327 0.10125574
v -0.00797353 0.00361161 0.10123348
v -0.00795218 0.00355874 0.10121071
v -0.00793443 0.00350488 0.10118750
v -0.00792034 0.00345023 0.10116395
v -0.00790992 0.00339500 0.10114016
v -0.00790320 0.00333941 0.10111620
v -0.00790019 0.00328365 0.10109217
v -0.00790000 0.00252502 0.10252163
v -0.00790000 0.00284971 0.10195767
v -0.00790000 0.00320988 0.10121327
v -0.00790019 0.00363227 0.10021044
v -0.00790320 0.00368932 0.10023119
v -0.00790992 0.00374621 0.10025188
v -0.00792034 0.00380273 0.10027243
v -0.00793443 0.00385866 0.10029277
v -0.00795218 0.00391377 0.10031281
v -0.00797353 0.00396787 0.10033248
v -0.00799842 0.00402073 0.10035171
v -0.00802679 0.00407216 0.10037041
v -0.00805853 0.00412194 0.10038851
v -0.00809355 0.00416987 0.10040595
v -0.00813174 0.00421576 0.10042264
v -0.00817296 0.00425942 0.10043851
v -0.00821701 0.00430061 0.10045350
v -0.00826386 0.00433928 0.10046756
v -0.00831328 0.00437519 0.10048062
v -0.00836509 0.00440820 0.10049262
v -0.00841912 0.00443816 0.10050351
v -0.00847515 0.00446492 0.10051325
v -0.00853298 0.00448837 0.10052177
v -0.00859239 0.00450839 0.10052905
v -0.00865317 0.00452488 0.10053505
v -0.00871507 0.00453775 0.10053973
v -0.00877785 0.00454692 0.10054307
v -0.00884121 0.00455233 0.10054503
v -0.00890000 0.00451820 0.10064300
v -0.00790000 0.00370446 0.09995016
v -0.00790019 0.00402023 0.09903657
v -0.00790320 0.00407836 0.09905408
v -0.00790992 0.00413633 0.09907153
v -0.00792034 0.00419391 0.09908888
v -0.00793443 0.00425088 0.09910604
v -0.00795218 0.00430704 0.09912296
v -0.00797353 0.00436216 0.09913956
v -0.00799842 0.00441602 0.09915578
v -0.00802679 0.00446841 0.09917156
v -0.00805853 0.00451913 0.09918684
v -0.00809355 0.00456796 0.09920155
v -0.00813174 0.00461472 0.09921563
v -0.00817296 0.00465920 0.09922902
v -0.00821701 0.00470117 0.09924167
v -0.00826386 0.00474056 0.09925354
v -0.00831328 0.00477716 0.09926455
v -0.00836509 0.00481079 0.09927469
v -0.00841912 0.00484131 0.09928387
v -0.00847515 0.00486857 0.09929209
v -0.00853298 0.00489246 0.09929929
v -0.00859239 0.00491286 0.09930543
v -0.00865317 0.00492966 0.09931049
v -0.00871507 0.00494277 0.09931444
v -0.00877785 0.00495212 0.09931725
v -0.01363585 0.00190220 0.10273892
v -0.01366855 0.00184748 0.10271887
v -0.01481057 0.00363611 0.09908213
v -0.01488251 0.00351203 0.09907424
v -0.01421909 0.00290205 0.10092714
v -0.01255269 0.00478499 0.09976532
v -0.01287816 0.00508132 0.09877548
v -0.01294077 0.00506493 0.09879377
v -0.01412983 0.00595744 0.09490436
v -0.01479194 0.00627111 0.09301162
v -0.01491958 0.00624316 0.09305386
v -0.01213440 0.00421504 0.10129786
v -0.01229320 0.00441776 0.10078691
v -0.01235507 0.00439908 0.10080252
v -0.01218729 0.00359052 0.10241605
v -0.01234503 0.00385214 0.10189109
v -0.01246700 0.00379601 0.10191026
v -0.01197815 0.00256556 0.10384923
v -0.01191956 0.00259291 0.10384967
v -0.01199632 0.00283799 0.10354263
v -0.01309115 0.00406066 0.10094523
v -0.01303141 0.00409688 0.10093689
v -0.01368964 0.00474641 0.09897891
v -0.01315035 0.00402303 0.10095286
v -0.01282539 0.00359475 0.10195024
v -0.01283580 0.00322011 0.10246463
v -0.01267468 0.00291878 0.10298264
v -0.01261857 0.00295755 0.10298485
v -0.01237853 0.00234556 0.10381989
v -0.01245850 0.00258121 0.10353026
v -0.01256907 0.00250651 0.10351797
v -0.01259576 0.00219879 0.10378216
v -0.01251536 0.00191964 0.10407563
v -0.01240875 0.00198981 0.10410248
v -0.01398611 0.00454771 0.09903228
v -0.01404327 0.00450358 0.09904097
v -0.01338081 0.00385880 0.10097598
v -0.01289198 0.00275298 0.10296493
v -0.01283882 0.00279598 0.10297069
v -0.01316371 0.00334681 0.10196194
v -0.01321738 0.00330132 0.10196103
v -0.01327014 0.00325472 0.10195929
v -0.01294430 0.00270900 0.10295829
v -0.01299572 0.00266407 0.10295077
v -0.01459233 0.00191994 0.10069966
v -0.01472763 0.00180337 0.10035363
v -0.01538408 0.00234800 0.09855004
v -0.01589414 0.00292922 0.09712159
v -0.01653624 0.00303410 0.09538452
v -0.01721579 0.00358697 0.09348971
v -0.01809579 0.00367351 0.09109969
v -0.01503435 0.00468974 0.09719125
v -0.01436672 0.00421074 0.09907831
v -0.01426297 0.00431344 0.09906874
v -0.01493018 0.00479412 0.09717602
v -0.01415502 0.00441117 0.09905627
v -0.01482166 0.00489327 0.09715807
v -0.01359854 0.00367400 0.10098686
v -0.01370165 0.00357456 0.10098760
v -0.01332195 0.00320705 0.10195672
v -0.01337276 0.00315834 0.10195332
v -0.01304621 0.00261821 0.10294238
v -0.01266985 0.00180876 0.10402810
v -0.01280114 0.00203847 0.10372934
v -0.01349147 0.00376885 0.10098298
v -0.01288310 0.00226003 0.10345892
v -0.01270009 0.00212022 0.10375762
v -0.01278171 0.00234570 0.10348227
v -0.01267692 0.00242793 0.10350196
v -0.01256762 0.00188341 0.10406074
v -0.01261913 0.00184644 0.10404490
v -0.01470921 0.00498686 0.09713748
v -0.01409959 0.00445806 0.09904897
v -0.01343656 0.00381445 0.10097986
v -0.01310919 0.00339116 0.10196203
v -0.01305385 0.00343434 0.10196130
v -0.01236927 0.00181563 0.10426135
v -0.01273012 0.00287891 0.10297954
v -0.01289161 0.00317899 0.10246413
v -0.01278485 0.00283797 0.10297556
v -0.01226064 0.00187921 0.10428805
v -0.01435279 0.00523161 0.09706095
v -0.01447431 0.00515625 0.09708880
v -0.01375017 0.00470968 0.09899086
v -0.01381013 0.00467142 0.09900218
v -0.01226632 0.00241338 0.10383302
v -0.01234557 0.00265185 0.10353883
v -0.01240231 0.00261704 0.10353501
v -0.01250453 0.00303170 0.10298665
v -0.01256184 0.00299519 0.10298619
v -0.01272216 0.00329881 0.10246310
v -0.01277930 0.00326006 0.10246428
v -0.01294094 0.00351706 0.10195738
v -0.01299776 0.00347632 0.10195974
v -0.01326696 0.00394361 0.10096592
v -0.01332425 0.00390186 0.10097133
v -0.01392816 0.00459042 0.09902291
v -0.01248846 0.00227397 0.10380293
v -0.01229963 0.00205675 0.10412540
v -0.01214989 0.00193967 0.10431071
v -0.01270760 0.00366722 0.10193994
v -0.01218832 0.00212033 0.10414438
v -0.01203733 0.00199688 0.10432935
v -0.01254738 0.00340764 0.10245456
v -0.01242857 0.00347384 0.10244482
v -0.01258800 0.00373434 0.10192658
v -0.01291058 0.00416502 0.10091811
v -0.01297121 0.00413167 0.10092784
v -0.01356715 0.00481524 0.09895322
v -0.01362862 0.00478161 0.09896636
v -0.01211411 0.00278035 0.10354497
v -0.01227058 0.00316591 0.10297985
v -0.01217256 0.00274986 0.10354480
v -0.01232968 0.00313416 0.10298283
v -0.01223065 0.00271827 0.10354373
v -0.01238841 0.00310120 0.10298496
v -0.01207516 0.00218039 0.10415939
v -0.01192331 0.00205073 0.10434395
v -0.01196050 0.00223683 0.10417047
v -0.01203648 0.00253717 0.10384787
v -0.01215218 0.00247729 0.10384233
v -0.01205535 0.00280973 0.10354424
v -0.01215144 0.00322572 0.10297142
v -0.01209150 0.00325377 0.10296598
v -0.01190271 0.00226366 0.10417454
v -0.01221115 0.00319643 0.10297605
v -0.01230840 0.00353482 0.10243195
v -0.01517650 0.00616740 0.09313597
v -0.01530491 0.00611933 0.09317547
v -0.01543266 0.00606439 0.09321370
v -0.01555926 0.00600256 0.09325046
v -0.01568420 0.00593387 0.09328560
v -0.01580699 0.00585843 0.09331893
v -0.01592712 0.00577637 0.09335030
v -0.01604409 0.00568791 0.09337956
v -0.01615742 0.00559328 0.09340656
v -0.01626665 0.00549279 0.09343118
v -0.01637134 0.00538679 0.09345333
v -0.01397777 0.00541869 0.09696510
v -0.01410404 0.00536290 0.09699894
v -0.01338069 0.00490671 0.09891047
v -0.01344313 0.00487780 0.09892526
v -0.01305201 0.00460831 0.09989136
v -0.01278830 0.00422734 0.10089666
v -0.01272675 0.00425629 0.10088497
v -0.01266500 0.00428377 0.10087267
v -0.01298976 0.00463574 0.09987734
v -0.01331803 0.00493404 0.09889516
v -0.01422921 0.00530052 0.09703095
v -0.01350530 0.00484731 0.09893952
v -0.01284960 0.00419691 0.10090771
v -0.01385086 0.00546790 0.09692960
v -0.01325523 0.00495978 0.09887937
v -0.01292735 0.00466164 0.09986279
v -0.01260310 0.00430978 0.10085975
v -0.01184467 0.00228955 0.10417765
v -0.01186076 0.00261921 0.10384919
v -0.01193707 0.00286512 0.10354014
v -0.01203138 0.00328058 0.10295974
v -0.01180817 0.00210114 0.10435455
v -0.01169222 0.00214804 0.10436121
v -0.01178643 0.00231450 0.10417978
v -0.01172803 0.00233849 0.10418098
v -0.01180180 0.00264445 0.10384782
v -0.01228834 0.00268559 0.10354174
v -0.01244671 0.00306704 0.10298623
v -0.01266443 0.00333633 0.10246107
v -0.01288347 0.00355654 0.10195421
v -0.01320897 0.00398400 0.10095976
v -0.01386949 0.00463166 0.09901287
v -0.01459327 0.00507461 0.09711435
v -0.01187765 0.00289111 0.10353680
v -0.01174270 0.00266863 0.10384555
v -0.01166951 0.00236152 0.10418123
v -0.01157581 0.00219138 0.10436399
v -0.01152493 0.00180359 0.10467553
v -0.01267728 0.00474991 0.09979960
v -0.01306642 0.00502755 0.09882925
v -0.01273976 0.00473013 0.09981611
v -0.01312937 0.00500653 0.09884639
v -0.01280230 0.00470882 0.09983215
v -0.01319232 0.00498394 0.09886310
v -0.01286485 0.00468599 0.09984773
v -0.01241704 0.00437895 0.10081763
v -0.01247907 0.00435736 0.10083222
v -0.01254111 0.00433431 0.10084627
v -0.01203847 0.00396820 0.10183167
v -0.01209977 0.00394775 0.10184480
v -0.01194377 0.00368597 0.10237572
v -0.01216113 0.00392593 0.10185732
v -0.01188663 0.00182102 0.10453219
v -0.01177230 0.00186806 0.10454706
v -0.01165719 0.00191194 0.10455786
v -0.01154163 0.00195263 0.10456465
v -0.01140974 0.00183934 0.10468080
v -0.01142593 0.00199009 0.10456752
v -0.01145924 0.00223114 0.10436298
v -0.01168353 0.00269174 0.10384240
v -0.01161091 0.00238359 0.10418055
v -0.01162432 0.00271378 0.10383839
v -0.01155228 0.00240469 0.10417896
v -0.01156511 0.00273476 0.10383353
v -0.01149364 0.00242483 0.10417646
v -0.01150594 0.00275467 0.10382784
v -0.01197112 0.00330613 0.10295273
v -0.01191078 0.00333042 0.10294496
v -0.01206561 0.00364090 0.10239726
v -0.01185040 0.00335347 0.10293643
v -0.01182213 0.00372574 0.10235158
v -0.01197727 0.00398727 0.10181797
v -0.01181810 0.00291596 0.10353260
v -0.01175846 0.00293967 0.10352757
v -0.01169879 0.00296223 0.10352172
v -0.01163912 0.00298365 0.10351507
v -0.01171416 0.00319287 0.10321494
v -0.01157949 0.00300393 0.10350762
v -0.01144686 0.00277351 0.10382133
v -0.01179002 0.00337526 0.10292718
v -0.01172969 0.00339580 0.10291722
v -0.01165416 0.00321333 0.10320611
v -0.01159424 0.00323259 0.10319656
v -0.01151996 0.00302307 0.10349941
v -0.01140130 0.00305796 0.10348076
v -0.01454032 0.00630804 0.09292559
v -0.01441681 0.00631737 0.09288285
v -0.01387940 0.00599632 0.09482016
v -0.01333019 0.00577154 0.09601607
v -0.01322187 0.00561804 0.09673330
v -0.01466540 0.00629266 0.09296880
v -0.01400389 0.00597993 0.09486254
v -0.01334560 0.00560032 0.09677449
v -0.01359691 0.00554676 0.09685431
v -0.01347073 0.00557663 0.09681488
v -0.01425684 0.00592865 0.09494545
v -0.01438454 0.00589338 0.09498563
v -0.01504791 0.00620864 0.09309538
v -0.01216995 0.00445082 0.10075428
v -0.01210867 0.00446523 0.10073731
v -0.01249067 0.00480031 0.09974757
v -0.01242891 0.00481417 0.09972946
v -0.01281575 0.00509619 0.09875686
v -0.01275360 0.00510957 0.09873791
v -0.01372376 0.00551056 0.09689262
v -0.01300354 0.00504701 0.09881171
v -0.01261491 0.00476820 0.09978266
v -0.01223148 0.00443501 0.10077082
v -0.01201176 0.00424861 0.10126684
v -0.01166945 0.00341510 0.10290656
v -0.01147485 0.00326756 0.10317535
v -0.01128347 0.00308837 0.10345926
v -0.01121213 0.00283835 0.10378749
v -0.01132910 0.00280803 0.10380593
v -0.01222248 0.00390272 0.10186922
v -0.01125989 0.00249575 0.10415775
v -0.01122689 0.00229990 0.10435004
v -0.01114401 0.00252549 0.10414339
v -0.01111167 0.00232895 0.10433836
v -0.01102916 0.00255147 0.10412590
v -0.01106616 0.00192860 0.10467357
v -0.01118008 0.00190184 0.10467971
v -0.01108085 0.00208310 0.10455361
v -0.01119526 0.00205531 0.10456188
v -0.01269175 0.00512148 0.09871867
v -0.01236743 0.00482659 0.09971099
v -0.01204767 0.00447825 0.10071992
v -0.01189006 0.00427667 0.10123393
v -0.01173433 0.00405007 0.10175777
v -0.01224552 0.00484720 0.09967312
v -0.01232087 0.00504523 0.09902821
v -0.01256911 0.00514096 0.09867937
v -0.01250053 0.00519808 0.09848003
v -0.01309989 0.00562998 0.09669150
v -0.01149632 0.00409204 0.10169001
v -0.01161456 0.00407359 0.10172475
v -0.01146188 0.00381409 0.10226517
v -0.01176963 0.00429937 0.10119930
v -0.01159809 0.00424370 0.10134062
v -0.01192668 0.00450020 0.10068400
v -0.01143504 0.00244400 0.10417307
v -0.01141125 0.00262785 0.10399106
v -0.01129402 0.00266199 0.10397766
v -0.01117756 0.00269211 0.10396110
v -0.01106216 0.00271827 0.10394152
v -0.01185534 0.00402134 0.10178890
v -0.01170105 0.00376029 0.10232499
v -0.01154942 0.00345000 0.10288325
v -0.01135629 0.00329784 0.10315146
v -0.01116674 0.00311439 0.10343508
v -0.01109624 0.00286455 0.10376616
v -0.01093210 0.00266241 0.10400845
v -0.01105140 0.00313612 0.10340838
v -0.01108323 0.00323364 0.10326642
v -0.01123888 0.00332352 0.10312506
v -0.01131224 0.00350531 0.10282922
v -0.01143025 0.00348004 0.10285741
v -0.01158086 0.00378970 0.10229614
v -0.01085954 0.00217162 0.10449111
v -0.01088118 0.00235224 0.10432854
v -0.01099746 0.00235449 0.10432340
v -0.01096742 0.00210772 0.10454188
v -0.01098221 0.00223930 0.10442927
v -0.01088940 0.00241101 0.10427199
v -0.01091560 0.00257377 0.10410544
v -0.01095320 0.00195241 0.10466389
v -0.01085056 0.00208068 0.10456672
v -0.01083891 0.00194023 0.10467559
v -0.01129469 0.00187209 0.10468216
v -0.01083087 0.00182068 0.10476097
v -0.01131037 0.00202432 0.10456656
v -0.01134284 0.00226731 0.10435829
v -0.01137653 0.00246221 0.10416882
v -0.01120333 0.00354358 0.10276848
v -0.01125108 0.00364872 0.10258239
v -0.01133964 0.00382473 0.10224975
v -0.01180884 0.00451870 0.10064163
v -0.01192034 0.00464776 0.10028189
v -0.01212525 0.00486233 0.09963412
v -0.01554902 0.00397691 0.09722366
v -0.01547773 0.00410373 0.09722528
v -0.01681409 0.00478908 0.09352449
v -0.01561410 0.00384805 0.09721935
v -0.01428625 0.00278115 0.10090686
v -0.01395946 0.00239300 0.10182288
v -0.01434757 0.00265887 0.10088394
v -0.01369991 0.00179252 0.10269820
v -0.01389137 0.00250939 0.10185041
v -0.01381775 0.00262408 0.10187516
v -0.01349181 0.00211779 0.10281237
v -0.01341207 0.00222298 0.10284477
v -0.01414618 0.00302116 0.10094467
v -0.01373872 0.00273669 0.10189701
v -0.01332742 0.00232596 0.10287409
v -0.01356645 0.00201074 0.10277704
v -0.01332909 0.00178977 0.10329052
v -0.01324885 0.00188842 0.10333069
v -0.01320695 0.00193702 0.10334963
v -0.01316391 0.00198509 0.10336776
v -0.01311974 0.00203257 0.10338508
v -0.01380042 0.00347087 0.10098519
v -0.01347123 0.00305801 0.10194407
v -0.01342253 0.00310865 0.10194910
v -0.01307448 0.00207944 0.10340157
v -0.01294591 0.00191041 0.10368013
v -0.01298079 0.00217119 0.10343199
v -0.01309573 0.00257148 0.10293312
v -0.01314423 0.00252391 0.10292299
v -0.01323806 0.00242638 0.10290020
v -0.01302815 0.00212566 0.10341721
v -0.01289861 0.00195378 0.10369743
v -0.01456591 0.00204177 0.10073511
v -0.01587247 0.00305910 0.09714193
v -0.01719645 0.00371987 0.09350269
v -0.01449610 0.00228813 0.10080084
v -0.01453387 0.00216461 0.10076889
v -0.01581125 0.00332194 0.09717677
v -0.01584489 0.00319014 0.09716037
v -0.01713946 0.00398893 0.09352245
v -0.01717106 0.00385399 0.09351364
v -0.01440299 0.00253566 0.10085852
v -0.01445249 0.00241195 0.10083078
v -0.01572531 0.00358615 0.09720290
v -0.01577142 0.00345410 0.09719099
v -0.01705707 0.00425945 0.09353319
v -0.01710150 0.00412424 0.09352901
v -0.01567287 0.00371763 0.09721240
v -0.01694860 0.00452754 0.09353407
v -0.01700611 0.00439405 0.09353491
v -0.01688457 0.00465939 0.09353062
v -0.01356523 0.00295404 0.10193155
v -0.01365448 0.00284681 0.10191584
v -0.01398370 0.00325220 0.10097101
v -0.01406765 0.00313802 0.10095932
v -0.01464919 0.00387649 0.09908937
v -0.01473274 0.00375776 0.09908719
v -0.01531709 0.00434918 0.09722015
v -0.01540036 0.00422798 0.09722412
v -0.01665438 0.00503983 0.09350412
v -0.01673730 0.00491607 0.09351566
v -0.01389454 0.00336329 0.10097965
v -0.01446590 0.00410341 0.09908494
v -0.01456016 0.00399186 0.09908863
v -0.01513379 0.00458052 0.09720371
v -0.01522814 0.00446685 0.09721335
v -0.01647110 0.00527567 0.09347291
v -0.01656556 0.00515986 0.09348986
v -0.01099180 0.00292676 0.10369126
v -0.01071543 0.00664647 0.09031424
v -0.01079217 0.00665806 0.09031424
v -0.00990000 0.00565783 0.09031424
v -0.01047525 0.00656854 0.09031424
v -0.01053298 0.00659358 0.09031424
v -0.01059386 0.00661543 0.09031424
v -0.01065284 0.00663255 0.09031424
v -0.01036608 0.00650842 0.09031424
v -0.01041863 0.00653959 0.09031424
v -0.01013182 0.00630205 0.09031424
v -0.01017296 0.00634866 0.09031424
v -0.01005853 0.00620159 0.09031424
v -0.01005899 0.00620228 0.09031424
v -0.01009331 0.00625252 0.09031424
v -0.00993443 0.00591993 0.09031424
v -0.00997333 0.00603625 0.09031424
v -0.00997386 0.00603753 0.09031424
v -0.00999835 0.00609318 0.09031424
v -0.00990992 0.00579965 0.09031424
v -0.00990998 0.00579999 0.09031424
v -0.00992028 0.00585981 0.09031424
v -0.01077785 0.00665621 0.09031424
v -0.01837145 0.00400182 0.09031424
v -0.01617956 0.00654134 0.09031424
v -0.01632329 0.00649934 0.09031424
v -0.01646599 0.00645022 0.09031424
v -0.01660710 0.00639392 0.09031424
v -0.01674604 0.00633046 0.09031424
v -0.01688224 0.00625990 0.09031424
v -0.01701511 0.00618235 0.09031424
v -0.01738824 0.00590979 0.09031424
v -0.01560497 0.00664064 0.09031424
v -0.01589120 0.00660439 0.09031424
v -0.01546380 0.00664927 0.09031424
v -0.01835664 0.00413724 0.09031424
v -0.01830622 0.00441063 0.09031424
v -0.01822669 0.00468430 0.09031424
v -0.01827017 0.00454767 0.09031424
v -0.01811707 0.00495419 0.09031424
v -0.01805089 0.00508637 0.09031424
v -0.01780780 0.00546525 0.09031424
v -0.01789610 0.00534244 0.09031424
v -0.01817567 0.00481998 0.09031424
v -0.01053374 0.00659387 0.09031424
v -0.01059141 0.00661466 0.09031424
v -0.01065317 0.00663263 0.09031424
v -0.01031366 0.00647279 0.09031424
v -0.01036509 0.00650782 0.09031424
v -0.01041912 0.00653987 0.09031424
v -0.01017346 0.00634917 0.09031424
v -0.01021646 0.00639219 0.09031424
v -0.01021802 0.00639363 0.09031424
v -0.01026373 0.00643398 0.09031424
v -0.01026386 0.00643409 0.09031424
v -0.01002694 0.00614860 0.09031424
v -0.01009355 0.00625286 0.09031424
v -0.00995218 0.00597890 0.09031424
v -0.00995230 0.00597925 0.09031424
v -0.00999842 0.00609332 0.09031424
v -0.00990018 0.00567761 0.09031424
v -0.00990019 0.00567775 0.09031424
v -0.00990321 0.00573885 0.09031424
v -0.00992034 0.00586011 0.09031424
v -0.01837531 0.00391627 0.09031424
v -0.01838167 0.00376655 0.09031424
v -0.01714410 0.00609798 0.09031424
v -0.01726865 0.00600703 0.09031424
v -0.01750238 0.00580658 0.09031424
v -0.01574758 0.00662576 0.09031424
v -0.01603536 0.00657632 0.09031424
v -0.01833498 0.00427366 0.09031424
v -0.01771254 0.00558386 0.09031424
v -0.01797719 0.00521597 0.09031424
v -0.01761061 0.00569780 0.09031424
v -0.01838167 0.00308694 0.09031424
v -0.00790019 0.00178179 0.10351306
v -0.00805853 0.00178179 0.10421609
v -0.00802679 0.00178179 0.10414699
v -0.00799842 0.00178179 0.10407560
v -0.00797353 0.00178179 0.10400222
v -0.00890000 0.00178179 0.10478632
v -0.00879878 0.00178179 0.10477890
v -0.00865317 0.00178179 0.10474859
v -0.00859239 0.00178179 0.10472761
v -0.00853298 0.00178179 0.10470214
v -0.00843567 0.00178179 0.10464831
v -0.00841912 0.00178179 0.10463783
v -0.00841755 0.00178179 0.10463668
v -0.00836509 0.00178179 0.10459812
v -0.00835777 0.00178179 0.10459193
v -0.00831328 0.00178179 0.10455436
v -0.00826386 0.00178179 0.10450675
v -0.00824433 0.00178179 0.10448538
v -0.00821701 0.00178179 0.10445549
v -0.00814147 0.00178179 0.10435667
v -0.00813174 0.00178179 0.10434300
v -0.00794936 0.00178179 0.10391497
v -0.00793443 0.00178179 0.10384718
v -0.01470765 0.00178179 0.10040853
v -0.01452606 0.00178179 0.10088824
v -0.01272321 0.00178179 0.10399842
v -0.01257416 0.00178179 0.10412784
v -0.01254347 0.00178179 0.10415299
v -0.01249789 0.00178179 0.10418931
v -0.01248311 0.00178179 0.10420095
v -0.01235204 0.00178179 0.10429582
v -0.01221239 0.00178179 0.10438538
v -0.01183371 0.00178179 0.10458055
v -0.01176175 0.00178179 0.10461005
v -0.01164196 0.00178179 0.10465376
v -0.01158966 0.00178179 0.10467031
v -0.01151530 0.00178179 0.10469212
v -0.01200956 0.00178179 0.10450013
v -0.01200168 0.00178179 0.10450434
v -0.01117085 0.00178179 0.10476226
v -0.01105540 0.00178179 0.10477571
v -0.01094126 0.00178179 0.10478400
v -0.01089971 0.00178179 0.10478560
v -0.01128740 0.00178179 0.10474356
v -0.01138511 0.00178179 0.10472393
v -0.01350489 0.00178179 0.10302669
v -0.01345102 0.00178179 0.10311220
v -0.01293068 0.00178179 0.10378747
v -0.01260352 0.00178179 0.10410353
v -0.01287005 0.00178179 0.10385187
v -0.01284501 0.00178179 0.10387771
v -0.01448358 0.00178179 0.10099874
v -0.01423703 0.00178179 0.10158802
v -0.01397225 0.00178179 0.10216408
v -0.01309107 0.00178179 0.10359751
v -0.01315069 0.00178179 0.10352530
v -0.01332349 0.00178179 0.10330306
v -0.01320975 0.00178179 0.10345156
v -0.01279822 0.00178179 0.10392500
v -0.01277410 0.00178179 0.10394863
v -0.01369506 0.00178179 0.10271213
v -0.01082859 0.00178179 0.10478736
v -0.01070397 0.00178179 0.10478736
v -0.00990000 0.00178179 0.09031424
v -0.00790000 0.00178179 0.10348343
v -0.00790405 0.00178179 0.10361007
v -0.00790320 0.00178179 0.10359960
v -0.00790207 0.00178179 0.10356815
v -0.00790992 0.00178179 0.10368278
v -0.00805268 0.00178179 0.10420336
v -0.00795316 0.00178179 0.10393058
v -0.00795218 0.00178179 0.10392713
v -0.00884121 0.00178179 0.10478352
v -0.00877785 0.00178179 0.10477663
v -0.00871507 0.00178179 0.10476496
v -0.00860537 0.00178179 0.10473209
v -0.00847902 0.00178179 0.10467430
v -0.00847515 0.00178179 0.10467231
v -0.00817296 0.00178179 0.10440088
v -0.00809355 0.00178179 0.10428216
v -0.00808809 0.00178179 0.10427225
v -0.00792034 0.00178179 0.10376542
v -0.01265084 0.00178179 0.10406321
v -0.01242328 0.00178179 0.10424575
v -0.01237118 0.00178179 0.10428264
v -0.01236300 0.00178179 0.10428842
v -0.01226674 0.00178179 0.10435113
v -0.01224324 0.00178179 0.10436635
v -0.01152934 0.00178179 0.10468816
v -0.01197525 0.00178179 0.10451733
v -0.01188162 0.00178179 0.10456059
v -0.01166170 0.00178179 0.10464668
v -0.01152298 0.00178179 0.10469004
v -0.01212271 0.00178179 0.10443833
v -0.01140485 0.00178179 0.10471951
v -0.01357418 0.00178179 0.10291606
v -0.01333508 0.00178179 0.10328709
v -0.01332610 0.00178179 0.10329960
v -0.01290530 0.00178179 0.10381500
v -0.01436274 0.00178179 0.10129463
v -0.01410676 0.00178179 0.10187811
v -0.01383384 0.00178179 0.10244518
v -0.01270493 0.00178179 0.10401563
v -0.01370561 0.00178179 0.10269401
v -0.01361955 0.00178179 0.10284095
v -0.00964470 0.00178179 0.10478689
v -0.00790000 0.00178179 0.09537500
v -0.01720050 0.00178179 0.09355948
v -0.01565225 0.00178179 0.09781327
v -0.01472163 0.00178179 0.10037013
v -0.01471778 0.00178179 0.10038069
v -0.01471617 0.00178179 0.10038512
v -0.01838167 0.00178179 0.09031424
f 69 71 17
f 18 19 17
f 17 19 69
f 70 71 69
f 73 71 70
f 19 771 828
f 69 19 828
f 828 829 69
f 843 956 951
f 360 71 73
f 332 360 333
f 75 831 63
f 65 63 783
f 63 831 783
f 770 802 2
f 802 607 2
f 3 20 608
f 608 609 3
f 3 609 20
f 843 951 833
f 765 764 767
f 755 758 756
f 738 737 740
f 738 735 737
f 706 386 743
f 360 332 359
f 18 17 359
f 359 358 18
f 332 358 359
f 359 17 71
f 71 360 359
f 328 332 333
f 241 326 242
f 830 787 70
f 69 829 830
f 830 70 69
f 72 787 74
f 70 787 72
f 72 74 73
f 73 70 72
f 789 75 74
f 831 75 789
f 65 783 825
f 24 814 26
f 16 22 14
f 20 609 14
f 609 654 14
f 25 24 26
f 37 39 372
f 817 772 31
f 31 772 773
f 31 773 33
f 1 2 607
f 608 20 1
f 1 607 608
f 770 2 4
f 26 814 769
f 610 653 654
f 610 654 609
f 522 617 512
f 491 464 492
f 514 515 464
f 799 836 519
f 512 794 795
f 792 793 510
f 952 833 951
f 429 833 952
f 750 808 807
f 433 429 431
f 433 833 429
f 435 434 764
f 758 760 702
f 702 808 750
f 809 767 840
f 757 758 755
f 757 760 758
f 437 438 439
f 437 439 519
f 767 764 766
f 764 434 766
f 842 840 766
f 766 840 767
f 706 743 741
f 385 700 386
f 432 433 431
f 386 700 703
f 805 806 745
f 327 328 333
f 327 326 241
f 241 240 327
f 327 240 328
f 331 240 330
f 328 240 331
f 331 358 332
f 332 328 331
f 164 166 275
f 217 242 243
f 217 168 216
f 241 242 216
f 216 242 217
f 192 191 189
f 220 221 176
f 171 172 174
f 174 220 176
f 170 168 217
f 186 183 184
f 223 180 222
f 176 221 178
f 178 177 176
f 180 177 178
f 221 222 178
f 178 222 180
f 190 228 192
f 192 189 190
f 656 659 658
f 673 297 300
f 302 695 301
f 9 696 302
f 302 696 695
f 655 659 656
f 656 696 655
f 9 8 655
f 655 696 9
f 304 8 305
f 768 297 673
f 74 787 788
f 788 789 74
f 651 699 6
f 651 653 652
f 6 699 698
f 5 22 16
f 5 651 6
f 653 651 5
f 355 305 306
f 304 305 355
f 29 4 2
f 770 4 29
f 349 376 377
f 369 341 368
f 369 368 46
f 784 68 67
f 65 825 67
f 59 46 368
f 58 60 59
f 59 60 46
f 26 14 27
f 27 25 26
f 27 14 22
f 815 816 42
f 42 40 815
f 24 25 23
f 23 36 24
f 23 25 379
f 815 40 822
f 39 37 52
f 770 29 790
f 454 553 517
f 464 515 465
f 534 617 521
f 617 522 521
f 522 530 521
f 536 530 529
f 534 521 564
f 513 522 512
f 512 795 513
f 513 795 796
f 796 514 513
f 797 798 515
f 797 514 796
f 515 514 797
f 515 798 516
f 517 553 516
f 516 798 834
f 516 834 517
f 516 465 515
f 553 465 516
f 518 799 519
f 519 439 518
f 439 454 518
f 518 454 517
f 606 607 802
f 608 607 606
f 606 611 608
f 837 801 392
f 392 611 837
f 608 611 612
f 612 609 608
f 612 611 392
f 392 391 612
f 511 510 793
f 511 793 794
f 511 794 512
f 512 617 511
f 617 510 511
f 429 952 953
f 895 427 868
f 429 427 430
f 431 429 430
f 430 432 431
f 589 600 571
f 436 447 438
f 438 437 436
f 434 435 436
f 436 437 434
f 764 765 762
f 762 435 764
f 808 702 841
f 841 760 810
f 841 702 760
f 759 765 767
f 759 757 765
f 760 757 759
f 759 767 809
f 809 810 759
f 810 760 759
f 520 766 434
f 520 437 519
f 434 437 520
f 519 836 520
f 836 842 520
f 842 766 520
f 735 944 897
f 744 741 743
f 752 729 751
f 751 729 728
f 706 741 705
f 705 741 945
f 752 751 753
f 755 756 753
f 701 756 758
f 701 385 756
f 700 385 701
f 758 702 701
f 750 700 701
f 701 702 750
f 734 738 740
f 432 734 791
f 747 743 386
f 386 703 747
f 747 745 743
f 805 745 749
f 749 747 703
f 745 747 749
f 66 63 65
f 65 67 66
f 372 345 344
f 218 243 244
f 217 243 218
f 218 170 217
f 172 170 218
f 330 240 215
f 215 240 241
f 241 216 215
f 193 195 145
f 195 147 145
f 145 191 193
f 148 146 147
f 289 136 138
f 141 140 138
f 176 177 175
f 169 172 171
f 169 170 172
f 131 177 179
f 179 177 180
f 131 179 133
f 187 190 189
f 129 177 131
f 127 175 129
f 129 175 177
f 230 196 194
f 194 229 230
f 192 228 194
f 228 229 194
f 194 191 192
f 193 191 194
f 194 195 193
f 194 196 195
f 254 229 228
f 230 229 254
f 525 491 492
f 532 491 525
f 525 524 532
f 635 589 571
f 394 666 629
f 263 305 8
f 659 655 303
f 303 8 304
f 303 655 8
f 201 199 202
f 679 680 683
f 692 644 637
f 692 637 693
f 693 637 636
f 689 887 883
f 643 637 644
f 24 36 774
f 774 36 813
f 7 5 6
f 22 5 382
f 382 27 22
f 381 27 382
f 5 7 382
f 382 7 355
f 15 5 16
f 653 5 15
f 654 653 15
f 16 14 15
f 15 14 654
f 6 698 356
f 356 7 6
f 355 7 356
f 304 355 356
f 28 14 26
f 28 29 14
f 28 790 29
f 769 790 28
f 26 769 28
f 21 1 20
f 20 14 21
f 14 29 21
f 2 1 21
f 21 29 2
f 348 376 349
f 48 47 50
f 369 46 48
f 784 67 826
f 826 67 825
f 56 823 58
f 56 827 823
f 54 827 56
f 367 59 368
f 813 36 35
f 33 773 35
f 36 23 35
f 44 42 816
f 34 31 33
f 33 35 34
f 34 35 23
f 778 779 49
f 47 778 49
f 50 47 49
f 819 52 51
f 51 49 779
f 51 52 37
f 51 37 50
f 50 49 51
f 38 822 40
f 39 52 38
f 562 560 534
f 534 564 562
f 530 536 535
f 535 521 530
f 535 564 521
f 535 536 565
f 565 564 535
f 531 514 464
f 531 513 514
f 522 513 531
f 464 491 531
f 531 491 532
f 532 524 531
f 531 524 522
f 799 518 835
f 517 834 835
f 835 518 517
f 800 837 611
f 800 606 802
f 611 606 800
f 618 510 617
f 617 616 618
f 618 838 792
f 792 510 618
f 391 616 615
f 613 610 609
f 609 612 613
f 613 615 645
f 613 612 391
f 391 615 613
f 613 645 652
f 652 653 613
f 653 610 613
f 429 953 428
f 428 427 429
f 738 734 733
f 432 430 733
f 733 734 432
f 739 804 839
f 739 839 740
f 740 737 739
f 737 744 739
f 602 600 597
f 399 489 488
f 486 483 407
f 588 589 397
f 763 762 765
f 763 757 755
f 765 757 763
f 721 762 763
f 438 447 456
f 742 897 945
f 945 741 742
f 735 897 742
f 741 744 742
f 737 735 742
f 742 744 737
f 943 427 895
f 714 729 752
f 752 713 714
f 714 713 711
f 711 710 717
f 722 751 728
f 722 723 721
f 422 447 440
f 447 436 440
f 440 436 435
f 708 387 704
f 704 705 708
f 706 705 704
f 704 386 706
f 704 387 386
f 711 713 709
f 709 710 711
f 708 710 709
f 709 387 708
f 761 753 751
f 761 722 721
f 751 722 761
f 721 763 761
f 755 753 761
f 761 763 755
f 756 385 754
f 754 753 756
f 754 713 752
f 752 753 754
f 803 791 734
f 740 839 803
f 803 734 740
f 833 433 832
f 805 749 811
f 750 807 748
f 748 749 703
f 807 811 748
f 748 811 749
f 748 700 750
f 748 703 700
f 333 360 361
f 361 360 73
f 335 362 363
f 363 362 64
f 64 66 363
f 64 75 63
f 63 66 64
f 366 338 365
f 366 365 55
f 54 56 55
f 340 368 341
f 340 367 368
f 372 344 371
f 371 37 372
f 50 37 371
f 343 344 317
f 343 371 344
f 91 277 276
f 277 162 276
f 164 275 276
f 276 162 164
f 158 277 278
f 220 174 219
f 219 218 244
f 219 174 172
f 172 218 219
f 219 244 245
f 245 220 219
f 167 216 168
f 167 215 216
f 149 148 147
f 149 195 197
f 149 147 195
f 143 140 141
f 191 145 143
f 141 189 143
f 143 189 191
f 847 848 119
f 117 115 845
f 846 847 118
f 118 847 119
f 119 848 120
f 289 115 290
f 290 115 117
f 290 291 134
f 117 118 290
f 290 118 291
f 290 136 289
f 290 134 136
f 119 120 292
f 292 118 119
f 291 118 292
f 134 291 132
f 132 292 130
f 291 292 132
f 132 130 131
f 131 133 132
f 100 97 98
f 288 115 289
f 113 115 288
f 289 138 288
f 288 138 140
f 111 286 109
f 113 288 111
f 144 143 145
f 147 146 144
f 144 145 147
f 173 174 176
f 176 175 173
f 171 174 173
f 173 175 127
f 79 169 171
f 79 122 80
f 168 170 77
f 170 169 77
f 169 79 77
f 181 184 183
f 181 133 179
f 185 183 186
f 190 187 188
f 186 226 188
f 188 185 186
f 187 185 188
f 139 189 141
f 139 187 189
f 139 185 187
f 141 138 139
f 139 138 136
f 131 130 128
f 128 129 131
f 253 254 228
f 186 184 225
f 225 226 186
f 251 226 225
f 526 525 533
f 533 525 489
f 399 526 533
f 533 489 399
f 524 525 523
f 523 530 522
f 522 524 523
f 529 530 523
f 523 525 529
f 537 536 529
f 398 526 399
f 399 397 398
f 397 589 398
f 589 635 398
f 648 658 647
f 656 658 648
f 620 648 647
f 629 648 620
f 394 629 628
f 673 300 674
f 300 675 674
f 207 159 205
f 9 302 10
f 10 8 9
f 10 263 8
f 262 236 261
f 306 305 262
f 305 263 262
f 666 667 678
f 678 676 695
f 239 302 301
f 239 10 302
f 239 238 263
f 263 10 239
f 236 262 237
f 263 238 237
f 237 262 263
f 200 199 197
f 200 202 199
f 98 97 96
f 268 92 267
f 267 851 268
f 88 265 90
f 90 265 266
f 266 267 90
f 90 267 92
f 688 690 264
f 687 688 272
f 688 264 272
f 272 265 88
f 272 264 265
f 680 679 12
f 683 680 681
f 662 693 636
f 636 663 662
f 543 557 545
f 577 887 689
f 683 643 682
f 682 679 683
f 687 679 682
f 641 643 644
f 814 24 775
f 24 774 775
f 379 352 351
f 351 352 309
f 380 352 379
f 379 25 380
f 380 27 381
f 25 27 380
f 381 382 354
f 354 382 355
f 354 355 306
f 307 354 306
f 306 262 307
f 307 262 261
f 372 39 373
f 373 345 372
f 376 348 375
f 347 374 375
f 375 348 347
f 317 344 316
f 316 251 317
f 316 344 345
f 345 315 316
f 312 348 349
f 46 60 61
f 61 48 46
f 47 48 61
f 60 782 61
f 785 68 784
f 54 68 785
f 780 60 58
f 58 823 780
f 812 35 773
f 813 35 812
f 817 31 45
f 45 777 817
f 44 777 45
f 42 44 43
f 43 375 374
f 378 23 379
f 378 34 23
f 377 34 378
f 379 351 378
f 819 51 818
f 818 51 779
f 820 52 819
f 820 38 52
f 560 562 561
f 393 618 616
f 393 391 392
f 393 616 391
f 392 801 393
f 801 838 393
f 838 618 393
f 624 615 623
f 645 615 624
f 624 646 645
f 867 428 955
f 746 739 744
f 743 745 746
f 746 744 743
f 746 745 806
f 806 804 746
f 804 739 746
f 668 630 631
f 571 600 601
f 601 630 571
f 600 602 601
f 668 667 591
f 591 630 668
f 571 630 591
f 487 488 483
f 483 486 487
f 551 479 477
f 483 488 404
f 404 403 483
f 587 541 597
f 597 588 587
f 397 541 587
f 587 588 397
f 600 589 590
f 589 588 590
f 597 600 590
f 590 588 597
f 412 460 413
f 449 415 414
f 449 414 450
f 422 461 457
f 457 447 422
f 457 456 447
f 419 418 455
f 438 456 455
f 455 456 419
f 439 438 455
f 455 454 439
f 455 418 454
f 454 418 417
f 553 454 417
f 417 479 553
f 477 479 417
f 478 418 419
f 419 476 478
f 477 417 478
f 478 417 418
f 735 738 736
f 738 733 736
f 736 896 944
f 736 944 735
f 711 717 718
f 718 714 711
f 719 714 718
f 899 718 717
f 422 440 423
f 423 461 422
f 721 723 441
f 723 443 441
f 441 440 435
f 442 440 441
f 441 443 442
f 435 762 441
f 441 762 721
f 716 717 710
f 947 705 945
f 947 707 705
f 384 707 948
f 383 705 384
f 705 707 384
f 712 754 385
f 386 387 712
f 712 385 386
f 387 709 712
f 712 709 713
f 713 754 712
f 334 361 362
f 362 335 334
f 333 361 334
f 334 335 326
f 334 327 333
f 326 327 334
f 337 365 338
f 244 243 324
f 62 64 362
f 62 361 73
f 362 361 62
f 75 64 62
f 73 74 62
f 74 75 62
f 363 66 364
f 365 337 364
f 57 367 366
f 366 55 57
f 59 367 57
f 57 55 56
f 58 59 57
f 57 56 58
f 53 55 365
f 53 364 66
f 365 364 53
f 53 67 68
f 53 66 67
f 53 68 54
f 54 55 53
f 342 319 341
f 342 341 369
f 371 343 370
f 369 48 370
f 370 342 369
f 343 342 370
f 370 48 50
f 50 371 370
f 160 277 158
f 160 162 277
f 205 159 157
f 157 203 205
f 155 203 157
f 157 159 158
f 155 157 154
f 283 148 150
f 150 282 283
f 283 282 101
f 684 681 680
f 672 685 166
f 269 96 268
f 158 278 279
f 329 167 87
f 330 215 329
f 215 167 329
f 81 87 86
f 126 128 294
f 127 129 126
f 129 128 126
f 85 79 80
f 201 203 153
f 153 203 155
f 155 154 153
f 846 118 913
f 110 111 109
f 112 111 110
f 110 922 112
f 855 100 854
f 860 108 106
f 102 104 101
f 101 100 102
f 100 855 102
f 99 100 101
f 97 100 99
f 280 97 99
f 854 100 271
f 286 111 287
f 287 111 288
f 287 288 140
f 142 144 286
f 142 287 140
f 286 287 142
f 140 143 142
f 143 144 142
f 171 173 125
f 125 173 127
f 127 126 125
f 123 79 171
f 122 79 123
f 171 125 123
f 123 125 122
f 86 87 76
f 87 167 76
f 76 167 168
f 168 77 76
f 184 181 182
f 182 180 223
f 182 179 180
f 182 181 179
f 137 139 136
f 185 139 137
f 130 292 293
f 293 128 130
f 294 128 293
f 293 292 120
f 293 121 294
f 120 121 293
f 252 226 251
f 251 316 252
f 315 253 252
f 252 316 315
f 230 254 255
f 255 256 230
f 255 312 256
f 224 225 184
f 224 182 223
f 184 182 224
f 251 225 250
f 317 251 250
f 250 224 249
f 225 224 250
f 526 398 527
f 527 525 526
f 635 537 528
f 528 398 635
f 528 527 398
f 525 527 528
f 529 525 528
f 528 537 529
f 572 635 571
f 592 667 666
f 592 666 394
f 394 569 592
f 592 591 667
f 569 591 592
f 656 648 649
f 666 678 649
f 649 629 666
f 649 648 629
f 629 620 619
f 619 628 629
f 395 628 627
f 395 396 394
f 394 628 395
f 675 676 677
f 676 678 677
f 677 667 668
f 677 678 667
f 301 695 694
f 695 676 694
f 694 300 301
f 694 675 300
f 694 676 675
f 657 696 656
f 656 649 657
f 657 649 678
f 695 696 657
f 657 678 695
f 212 237 238
f 238 239 212
f 198 200 197
f 197 195 198
f 195 196 198
f 200 198 232
f 886 905 690
f 916 264 849
f 265 264 916
f 91 92 94
f 94 92 268
f 268 96 94
f 95 96 97
f 95 97 280
f 280 279 95
f 851 267 918
f 266 917 918
f 918 267 266
f 849 264 949
f 685 684 274
f 274 275 166
f 166 685 274
f 273 12 679
f 273 679 687
f 687 272 273
f 273 272 88
f 91 276 89
f 89 92 91
f 89 90 92
f 88 90 89
f 636 637 639
f 683 681 639
f 639 643 683
f 637 643 639
f 665 664 640
f 640 684 685
f 681 684 640
f 640 672 665
f 685 672 640
f 663 664 634
f 585 579 692
f 574 500 573
f 480 481 411
f 411 413 480
f 411 412 413
f 558 880 938
f 938 577 558
f 578 577 689
f 578 579 557
f 686 641 885
f 686 690 688
f 686 688 687
f 687 682 686
f 686 682 643
f 643 641 686
f 885 641 884
f 642 641 644
f 689 883 642
f 883 884 642
f 642 884 641
f 349 377 350
f 377 378 350
f 350 378 351
f 352 380 353
f 354 307 353
f 353 380 381
f 381 354 353
f 309 352 308
f 352 353 308
f 308 353 307
f 357 356 698
f 698 697 357
f 659 303 357
f 357 658 659
f 357 697 658
f 357 303 304
f 304 356 357
f 647 658 660
f 658 697 660
f 660 697 698
f 660 646 647
f 698 646 660
f 346 374 347
f 346 373 374
f 345 373 346
f 346 315 345
f 347 348 313
f 348 312 313
f 313 255 254
f 312 255 313
f 824 61 782
f 824 778 47
f 47 61 824
f 786 827 54
f 54 785 786
f 781 782 60
f 60 780 781
f 776 44 816
f 776 777 44
f 31 34 32
f 32 45 31
f 32 34 377
f 32 377 376
f 39 38 41
f 41 38 40
f 41 43 374
f 40 42 41
f 42 43 41
f 41 373 39
f 374 373 41
f 44 45 30
f 30 43 44
f 45 32 30
f 30 32 376
f 376 375 30
f 375 43 30
f 822 38 821
f 38 820 821
f 627 390 626
f 625 617 534
f 625 626 390
f 534 560 625
f 560 626 625
f 563 561 562
f 563 564 565
f 563 562 564
f 565 567 563
f 622 620 647
f 647 646 622
f 622 624 623
f 646 624 622
f 650 698 699
f 650 646 698
f 699 651 650
f 645 646 650
f 650 651 652
f 652 645 650
f 954 428 953
f 954 955 428
f 603 631 630
f 603 601 602
f 630 601 603
f 675 677 669
f 668 631 669
f 669 677 668
f 509 397 399
f 399 488 509
f 488 487 509
f 509 541 397
f 494 487 486
f 486 496 494
f 549 486 407
f 550 549 407
f 473 549 550
f 407 551 550
f 550 551 477
f 474 476 408
f 472 473 474
f 490 488 489
f 490 404 488
f 489 525 490
f 465 467 466
f 403 404 466
f 466 467 403
f 479 551 552
f 553 479 552
f 552 465 553
f 552 467 465
f 421 461 420
f 470 411 468
f 412 411 470
f 460 412 409
f 408 461 409
f 461 460 409
f 451 450 414
f 480 413 451
f 451 414 480
f 451 421 420
f 413 421 451
f 442 443 426
f 727 722 728
f 723 722 727
f 456 457 458
f 458 476 419
f 419 456 458
f 458 457 461
f 408 476 458
f 458 461 408
f 427 943 732
f 732 736 733
f 732 943 896
f 896 736 732
f 732 430 427
f 732 733 430
f 725 891 942
f 731 446 726
f 449 450 448
f 448 446 449
f 726 446 448
f 728 726 448
f 448 727 728
f 901 899 717
f 898 891 725
f 725 719 898
f 719 718 898
f 718 899 898
f 730 724 725
f 725 731 730
f 730 731 726
f 729 724 730
f 728 729 730
f 730 726 728
f 729 714 720
f 720 724 729
f 720 714 719
f 720 719 725
f 725 724 720
f 452 415 449
f 449 453 452
f 415 459 416
f 416 481 480
f 416 463 481
f 459 463 416
f 480 414 416
f 416 414 415
f 424 440 442
f 424 423 440
f 461 423 424
f 420 461 424
f 383 939 889
f 941 716 940
f 715 716 710
f 715 710 708
f 708 705 715
f 715 705 383
f 948 707 904
f 707 947 904
f 336 335 363
f 363 364 336
f 336 364 337
f 337 324 336
f 326 335 325
f 325 324 243
f 335 336 325
f 325 336 324
f 325 242 326
f 325 243 242
f 323 324 337
f 338 322 323
f 323 337 338
f 323 322 245
f 245 244 323
f 244 324 323
f 245 322 246
f 322 321 246
f 246 220 245
f 221 220 246
f 248 319 249
f 223 222 248
f 248 224 223
f 249 224 248
f 339 322 338
f 339 321 322
f 340 321 339
f 339 338 366
f 366 367 339
f 367 340 339
f 319 342 318
f 317 250 318
f 318 343 317
f 318 342 343
f 249 319 318
f 318 250 249
f 280 99 281
f 101 282 281
f 281 99 101
f 146 148 284
f 148 283 284
f 283 105 284
f 853 269 852
f 280 154 156
f 156 279 280
f 158 279 156
f 156 157 158
f 156 154 157
f 912 296 925
f 925 296 295
f 294 121 295
f 295 126 294
f 844 85 911
f 83 85 844
f 83 81 86
f 844 908 83
f 908 81 83
f 86 76 78
f 78 76 77
f 78 83 86
f 85 83 78
f 78 77 79
f 79 85 78
f 197 199 151
f 151 149 197
f 151 199 201
f 201 153 151
f 150 148 151
f 148 149 151
f 152 153 154
f 150 151 152
f 152 151 153
f 152 282 150
f 152 281 282
f 152 154 280
f 280 281 152
f 924 116 923
f 924 845 115
f 115 116 924
f 923 116 114
f 113 111 114
f 114 111 112
f 114 115 113
f 114 116 115
f 865 121 915
f 922 110 862
f 107 110 109
f 108 110 107
f 107 106 108
f 105 106 107
f 103 283 101
f 103 105 283
f 101 104 103
f 104 106 103
f 103 106 105
f 856 857 104
f 860 106 859
f 854 271 921
f 270 269 853
f 270 100 98
f 270 271 100
f 98 96 270
f 96 269 270
f 136 134 135
f 135 137 136
f 134 132 135
f 135 132 133
f 135 181 183
f 133 181 135
f 183 185 135
f 185 137 135
f 226 252 227
f 228 190 227
f 227 253 228
f 227 252 253
f 190 188 227
f 227 188 226
f 394 396 566
f 566 567 394
f 566 563 567
f 396 561 566
f 561 563 566
f 570 569 394
f 394 572 570
f 570 572 571
f 571 591 570
f 570 591 569
f 394 567 568
f 568 572 394
f 536 537 568
f 568 537 635
f 635 572 568
f 565 536 568
f 568 567 565
f 559 395 627
f 627 626 559
f 559 561 396
f 396 395 559
f 560 561 559
f 559 626 560
f 165 163 211
f 164 162 165
f 162 163 165
f 158 159 161
f 161 160 158
f 162 160 161
f 161 163 162
f 159 207 161
f 161 207 209
f 209 211 161
f 211 163 161
f 211 212 214
f 214 212 239
f 301 300 214
f 214 239 301
f 210 211 209
f 210 212 211
f 237 212 210
f 231 256 257
f 257 232 231
f 230 256 231
f 231 232 198
f 231 196 230
f 231 198 196
f 259 234 258
f 258 232 257
f 309 259 258
f 233 234 202
f 202 200 233
f 200 232 233
f 233 258 234
f 232 258 233
f 260 234 259
f 260 235 234
f 261 236 260
f 236 235 260
f 260 307 261
f 260 308 307
f 260 259 309
f 309 308 260
f 850 917 266
f 93 94 96
f 96 95 93
f 91 94 93
f 93 277 91
f 93 278 277
f 93 279 278
f 93 95 279
f 906 949 264
f 13 276 275
f 13 89 276
f 88 89 13
f 13 273 88
f 12 273 13
f 638 639 681
f 681 640 638
f 636 639 638
f 638 640 664
f 638 663 636
f 638 664 663
f 631 603 605
f 586 662 599
f 599 662 663
f 663 634 599
f 544 545 539
f 543 545 544
f 544 538 543
f 692 693 661
f 661 585 692
f 693 662 661
f 662 585 661
f 557 579 581
f 573 934 876
f 933 934 573
f 573 500 485
f 500 499 485
f 542 575 543
f 542 574 575
f 500 574 542
f 507 500 542
f 542 538 507
f 543 538 542
f 935 574 877
f 501 500 507
f 501 499 500
f 507 502 501
f 507 538 400
f 400 502 507
f 936 880 558
f 887 577 888
f 577 938 888
f 691 578 689
f 689 642 691
f 691 642 644
f 691 644 692
f 692 579 691
f 579 578 691
f 576 578 557
f 576 557 543
f 543 575 576
f 576 575 558
f 558 577 576
f 577 578 576
f 310 351 309
f 310 350 351
f 310 258 257
f 309 258 310
f 314 346 347
f 347 313 314
f 315 346 314
f 314 313 254
f 254 253 314
f 314 253 315
f 623 615 614
f 614 389 623
f 614 615 616
f 390 389 614
f 614 625 390
f 614 616 617
f 617 625 614
f 627 628 388
f 628 619 388
f 388 390 627
f 388 389 390
f 493 494 496
f 502 400 493
f 498 496 486
f 486 549 498
f 476 474 475
f 475 478 476
f 473 550 475
f 475 474 473
f 477 478 475
f 475 550 477
f 492 464 405
f 405 525 492
f 464 465 405
f 465 466 405
f 405 490 525
f 404 490 405
f 405 466 404
f 403 467 406
f 467 552 406
f 406 552 551
f 406 551 407
f 407 483 406
f 483 403 406
f 413 460 462
f 462 421 413
f 462 460 461
f 461 421 462
f 469 470 468
f 472 470 469
f 408 409 410
f 472 474 410
f 410 474 408
f 410 470 472
f 412 470 410
f 410 409 412
f 425 426 450
f 425 451 420
f 450 451 425
f 442 426 425
f 420 424 425
f 425 424 442
f 723 727 444
f 444 443 723
f 444 426 443
f 727 448 444
f 450 426 444
f 444 448 450
f 725 942 893
f 902 731 894
f 900 716 941
f 449 446 445
f 445 453 449
f 319 248 320
f 320 321 340
f 341 319 320
f 320 340 341
f 247 246 321
f 321 320 247
f 247 320 248
f 247 248 222
f 247 222 221
f 221 246 247
f 285 144 146
f 146 284 285
f 286 144 285
f 109 286 285
f 285 107 109
f 285 284 105
f 105 107 285
f 919 852 269
f 296 912 84
f 80 122 84
f 122 296 84
f 925 295 866
f 126 295 124
f 122 125 124
f 124 125 126
f 124 296 122
f 124 295 296
f 923 114 864
f 914 915 121
f 861 862 110
f 858 859 106
f 920 921 271
f 213 165 211
f 211 214 213
f 213 300 297
f 213 214 300
f 297 768 298
f 298 213 297
f 165 213 298
f 209 207 208
f 208 210 209
f 208 207 205
f 236 237 208
f 237 210 208
f 275 274 11
f 11 13 275
f 12 13 11
f 680 12 11
f 11 684 680
f 11 274 684
f 633 664 665
f 665 671 633
f 633 634 664
f 633 605 634
f 670 768 673
f 670 671 768
f 675 669 670
f 673 674 670
f 670 674 675
f 634 605 604
f 604 599 634
f 604 603 602
f 604 605 603
f 556 545 557
f 557 581 556
f 579 585 583
f 583 581 579
f 482 463 937
f 481 463 482
f 499 501 503
f 503 501 502
f 468 499 503
f 547 469 503
f 503 469 468
f 401 544 539
f 538 544 401
f 401 400 538
f 558 879 932
f 932 936 558
f 311 310 257
f 257 256 311
f 256 312 311
f 311 312 349
f 349 350 311
f 350 310 311
f 389 388 621
f 623 389 621
f 621 622 623
f 620 622 621
f 621 619 620
f 621 388 619
f 505 509 487
f 597 541 593
f 541 554 593
f 547 503 497
f 497 503 502
f 471 473 472
f 471 549 473
f 472 469 471
f 471 469 547
f 869 446 903
f 453 892 870
f 926 445 946
f 872 452 871
f 937 463 875
f 463 931 875
f 459 929 874
f 910 911 82
f 82 911 85
f 82 85 80
f 80 84 82
f 863 864 114
f 299 298 768
f 165 298 299
f 768 671 299
f 299 671 665
f 665 672 299
f 299 672 166
f 299 166 164
f 164 165 299
f 206 208 205
f 234 235 206
f 206 235 236
f 236 208 206
f 605 633 632
f 632 670 669
f 632 633 671
f 671 670 632
f 632 669 631
f 631 605 632
f 599 604 598
f 598 596 586
f 586 599 598
f 597 596 598
f 598 602 597
f 598 604 602
f 555 556 581
f 555 593 554
f 881 482 937
f 481 482 484
f 484 499 468
f 484 482 485
f 484 485 499
f 484 411 481
f 468 411 484
f 506 554 541
f 541 509 506
f 509 505 506
f 487 494 508
f 508 505 487
f 597 593 594
f 502 493 495
f 495 497 502
f 498 497 495
f 495 493 496
f 496 498 495
f 548 498 549
f 549 471 548
f 548 497 498
f 547 497 548
f 548 471 547
f 459 927 928
f 928 929 459
f 930 931 463
f 910 82 909
f 201 202 204
f 204 203 201
f 202 234 204
f 234 206 204
f 205 203 204
f 204 206 205
f 581 583 580
f 580 555 581
f 593 555 580
f 580 594 593
f 546 555 554
f 556 555 546
f 539 545 546
f 545 556 546
f 505 508 402
f 402 401 539
f 595 596 597
f 597 594 595
f 582 583 585
f 582 580 583
f 582 585 662
f 594 580 582
f 582 595 594
f 494 493 504
f 504 508 494
f 504 402 508
f 401 402 504
f 504 493 400
f 400 401 504
f 539 546 540
f 540 402 539
f 540 546 554
f 505 402 540
f 554 506 540
f 540 506 505
f 584 662 586
f 584 582 662
f 595 582 584
f 586 596 584
f 596 595 584
f 771 950 907
f 19 950 771
f 867 868 428
f 428 868 427
f 433 432 832
f 432 791 832
f 948 939 384
f 384 939 383
f 81 908 950
f 81 950 19
f 81 19 18
f 81 331 330
f 18 358 81
f 358 331 81
f 330 329 81
f 81 329 87
f 117 845 913
f 913 118 117
f 879 575 878
f 558 575 879
f 686 886 690
f 885 886 686
f 821 802 770
f 829 828 821
f 821 842 836
f 821 956 843
f 907 956 821
f 805 811 821
f 821 771 907
f 773 772 821
f 821 780 823
f 821 779 778
f 821 797 796
f 843 833 821
f 831 789 821
f 821 793 792
f 821 828 771
f 836 799 821
f 839 804 821
f 821 830 829
f 821 783 831
f 821 820 819
f 821 816 815
f 821 788 787
f 770 790 821
f 796 795 821
f 821 807 808
f 808 841 821
f 821 810 809
f 792 838 821
f 787 830 821
f 809 840 821
f 821 825 783
f 821 772 817
f 821 812 773
f 815 822 821
f 821 769 814
f 834 798 821
f 784 826 821
f 821 795 794
f 794 793 821
f 821 835 834
f 833 832 821
f 821 806 805
f 821 840 842
f 789 788 821
f 821 800 802
f 814 775 821
f 819 818 821
f 817 777 821
f 821 790 769
f 798 797 821
f 801 837 821
f 821 838 801
f 821 804 806
f 821 841 810
f 821 803 839
f 821 774 813
f 823 827 821
f 821 785 784
f 821 826 825
f 799 835 821
f 837 800 821
f 791 803 821
f 821 832 791
f 821 811 807
f 821 775 774
f 778 824 821
f 827 786 821
f 813 812 821
f 782 781 821
f 821 818 779
f 821 776 816
f 821 824 782
f 821 786 785
f 821 781 780
f 777 776 821
f 715 889 890
f 383 889 715
f 890 940 715
f 715 940 716
f 104 102 856
f 856 102 855
f 266 265 850
f 265 916 850
f 690 905 906
f 906 264 690
f 876 574 573
f 877 574 876
f 485 933 573
f 882 933 485
f 878 575 935
f 575 574 935
f 893 731 725
f 894 731 893
f 717 716 900
f 900 901 717
f 926 892 445
f 445 892 453
f 268 851 919
f 919 269 268
f 866 121 865
f 866 295 121
f 914 120 848
f 914 121 120
f 861 108 860
f 861 110 108
f 104 857 858
f 858 106 104
f 920 270 853
f 271 270 920
f 446 731 903
f 731 902 903
f 871 452 870
f 870 452 453
f 946 446 869
f 946 445 446
f 927 459 415
f 415 873 927
f 872 873 415
f 415 452 872
f 112 922 863
f 863 114 112
f 882 485 881
f 485 482 881
f 930 463 459
f 459 874 930
f 846 913 909
f 950 908 909
f 909 956 907
f 909 954 953
f 909 951 956
f 907 950 909
f 851 918 909
f 909 863 922
f 880 936 909
f 891 898 909
f 849 949 909
f 945 897 909
f 909 886 885
f 909 919 851
f 860 859 909
f 909 952 951
f 895 868 909
f 844 911 909
f 925 866 909
f 909 900 941
f 848 847 909
f 909 953 952
f 909 868 867
f 909 897 944
f 944 896 909
f 909 943 895
f 909 939 948
f 890 889 909
f 909 908 844
f 909 872 871
f 909 883 887
f 896 943 909
f 867 955 909
f 909 942 891
f 948 904 909
f 909 912 925
f 909 847 846
f 909 947 945
f 909 924 923
f 923 864 909
f 857 856 909
f 909 855 854
f 909 916 849
f 934 933 909
f 909 879 878
f 885 884 909
f 894 893 909
f 909 932 879
f 869 903 909
f 941 940 909
f 909 913 845
f 909 914 848
f 905 886 909
f 854 921 909
f 909 918 917
f 917 850 909
f 909 906 905
f 909 876 934
f 878 935 909
f 909 938 880
f 909 884 883
f 955 954 909
f 887 888 909
f 899 901 909
f 909 898 899
f 871 870 909
f 909 881 937
f 909 889 939
f 909 940 890
f 909 904 947
f 853 852 909
f 931 930 909
f 909 911 910
f 845 924 909
f 865 915 909
f 922 862 909
f 909 856 855
f 909 861 860
f 909 858 857
f 909 850 916
f 949 906 909
f 877 876 909
f 909 933 882
f 909 935 877
f 909 920 853
f 909 888 938
f 909 893 942
f 909 902 894
f 901 900 909
f 909 892 926
f 909 946 869
f 937 875 909
f 852 919 909
f 909 866 865
f 909 874 929
f 915 914 909
f 862 861 909
f 859 858 909
f 921 920 909
f 936 932 909
f 909 903 902
f 909 870 892
f 926 946 909
f 909 927 873
f 873 872 909
f 909 875 931
f 929 928 909
f 864 863 909
f 882 881 909
f 909 928 927
f 909 930 874
f 909 84 912
f 909 82 84

