# https://github.com/mikedh/trimesh
v -0.01071366 0.02378179 0.01505173
v -0.01071366 0.02378179 0.02926004
v -0.00542014 0.02378179 0.02926004
v -0.01120067 0.02376695 0.01552865
v -0.01360805 0.02323984 0.01582708
v -0.01375413 0.02318148 0.01573310
v -0.01389151 0.02312353 0.01562680
v -0.01401914 0.02306696 0.01550897
v -0.01405507 0.02305055 0.01547185
v -0.01295951 0.02346008 0.01606713
v -0.01312887 0.02340850 0.01602851
v -0.01329423 0.02335414 0.01597535
v -0.01341666 0.02331131 0.01592537
v -0.01345436 0.02329767 0.01590804
v -0.01261396 0.02355281 0.01609966
v -0.01275835 0.02351608 0.01609343
v -0.01278744 0.02350833 0.01609090
v -0.01218271 0.02364575 0.01605569
v -0.01226799 0.02362934 0.01607196
v -0.01208524 0.02366333 0.02970211
v -0.01235384 0.02361184 0.01608450
v -0.01242336 0.02359696 0.02994982
v -0.01225465 0.02363197 0.02981917
v -0.01252744 0.02357346 0.01609839
v -0.01244038 0.02359322 0.01609333
v -0.01191519 0.02369104 0.02959870
v -0.01208524 0.02366333 0.01603233
v -0.01209813 0.02366108 0.01603571
v -0.01154146 0.02373884 0.01579661
v -0.01161617 0.02373072 0.01584099
v -0.01140200 0.02375212 0.02937076
v -0.01169254 0.02372167 0.01588199
v -0.01177097 0.02371161 0.01591979
v -0.01174458 0.02371508 0.02950898
v -0.01157349 0.02373544 0.02943299
v -0.01193202 0.02368847 0.01598486
v -0.01185106 0.02370052 0.01595419
v -0.01123020 0.02376509 0.02932234
v -0.01140200 0.02375212 0.01570121
v -0.01146881 0.02374606 0.01574907
v -0.01105815 0.02377436 0.02928773
v -0.01088595 0.02377993 0.02926696
v -0.01132994 0.02375801 0.01564468
v -0.01126426 0.02376281 0.01558827
v -0.00515353 0.02377001 0.02930399
v -0.00515741 0.02377037 0.02930264
v -0.00518848 0.02377304 0.02929266
v -0.00522007 0.02377536 0.02928401
v -0.00525216 0.02377732 0.02927669
v -0.00528477 0.02377893 0.02927070
v -0.00535147 0.02378107 0.02926270
v -0.00252223 0.02130273 0.02993624
v -0.00247913 0.02104325 0.02991769
v -0.00245731 0.02078179 0.02989114
v -0.00258608 0.02155754 0.02994661
v -0.00267048 0.02180694 0.02994879
v -0.00258629 0.02155824 0.02994663
v -0.00277467 0.02204854 0.02994274
v -0.00267083 0.02180785 0.02994878
v -0.00289786 0.02228053 0.02992851
v -0.00277519 0.02204964 0.02994269
v -0.00289859 0.02228179 0.02992840
v -0.00303912 0.02250113 0.02990619
v -0.00304009 0.02250252 0.02990602
v -0.00319738 0.02270867 0.02987597
v -0.00319861 0.02271015 0.02987571
v -0.00337143 0.02290156 0.02983806
v -0.00337294 0.02290311 0.02983772
v -0.00355995 0.02307836 0.02979277
v -0.00356176 0.02307992 0.02979232
v -0.00376151 0.02323771 0.02974043
v -0.00376362 0.02323924 0.02973986
v -0.00397458 0.02337841 0.02968144
v -0.00397700 0.02337986 0.02968075
v -0.00419754 0.02349938 0.02961625
v -0.00420027 0.02350071 0.02961543
v -0.00442869 0.02359970 0.02954535
v -0.00443173 0.02360086 0.02954439
v -0.00466628 0.02367862 0.02946928
v -0.00466962 0.02367956 0.02946819
v -0.00490851 0.02373553 0.02938863
v -0.00491212 0.02373621 0.02938740
v -0.01067152 0.02378179 0.01501046
v -0.01438038 0.02289199 0.01501046
v -0.03520000 0.01243197 0.01501046
v -0.03318058 0.01576025 0.01501046
v -0.03334338 0.01568786 0.01501046
v -0.03339456 0.01566246 0.01501046
v -0.03349647 0.01560777 0.01501046
v -0.03362426 0.01553112 0.01501046
v -0.03378873 0.01541853 0.01501046
v -0.03381385 0.01540066 0.01501046
v -0.03382163 0.01539474 0.01501046
v -0.03389393 0.01533835 0.01501046
v -0.03392844 0.01530963 0.01501046
v -0.03401657 0.01523458 0.01501046
v -0.03404403 0.01520859 0.01501046
v -0.03415412 0.01510402 0.01501046
v -0.03416756 0.01509014 0.01501046
v -0.03427469 0.01497566 0.01501046
v -0.03454566 0.01462737 0.01501046
v -0.03464208 0.01447732 0.01501046
v -0.03471649 0.01434854 0.01501046
v -0.03519742 0.01257656 0.01501046
v -0.03518438 0.01279045 0.01501046
v -0.03518680 0.01275357 0.01501046
v -0.03516381 0.01297589 0.01501046
v -0.03516999 0.01292365 0.01501046
v -0.03514048 0.01312963 0.01501046
v -0.03514346 0.01311111 0.01501046
v -0.03506887 0.01346151 0.01501046
v -0.03500739 0.01367323 0.01501046
v -0.03497116 0.01378079 0.01501046
v -0.03497797 0.01376068 0.01501046
v -0.03493473 0.01387961 0.01501046
v -0.03494309 0.01385702 0.01501046
v -0.03484945 0.01408376 0.01501046
v -0.03486648 0.01404314 0.01501046
v 0.00295629 0.02089032 0.01501046
v 0.00295422 0.02093489 0.01501046
v 0.00288776 0.02140926 0.01501046
v 0.00287754 0.02145261 0.01501046
v 0.00281768 0.02166253 0.01501046
v 0.00280350 0.02170483 0.01501046
v 0.00276628 0.02180785 0.01501046
v 0.00272438 0.02190909 0.01501046
v 0.00270634 0.02195003 0.01501046
v 0.00265970 0.02204964 0.01501046
v 0.00253122 0.02228157 0.01501046
v 0.00244582 0.02241200 0.01501046
v 0.00238162 0.02250228 0.01501046
v 0.00221213 0.02270990 0.01501046
v 0.00210386 0.02282447 0.01501046
v 0.00202374 0.02290311 0.01501046
v 0.00198885 0.02293317 0.01501046
v 0.00181874 0.02307965 0.01501046
v 0.00181840 0.02307992 0.01501046
v 0.00178078 0.02310707 0.01501046
v 0.00159784 0.02323898 0.01501046
v 0.00159744 0.02323924 0.01501046
v 0.00155736 0.02326326 0.01501046
v 0.00136254 0.02337986 0.01501046
v 0.00132027 0.02340057 0.01501046
v 0.00111603 0.02350048 0.01501046
v 0.00111550 0.02350071 0.01501046
v 0.00107133 0.02351793 0.01501046
v 0.00085878 0.02360066 0.01501046
v 0.00085819 0.02360086 0.01501046
v 0.00081243 0.02361445 0.01501046
v 0.00059322 0.02367940 0.01501046
v 0.00059257 0.02367956 0.01501046
v 0.00054555 0.02368939 0.01501046
v 0.00032066 0.02373621 0.01501046
v 0.00001996 0.02377188 0.01501046
v 0.00002612 0.02377160 0.01501046
v 0.00003226 0.02377125 0.01501046
v 0.00004453 0.02377037 0.01501046
v 0.00003840 0.02377084 0.01501046
v 0.00295881 0.01768178 0.01501046
v 0.00295881 0.02078179 0.01501046
v -0.00023372 0.02378179 0.01501046
v -0.03360603 0.01554294 0.01501046
v -0.03421262 0.01504349 0.01501046
v -0.03439819 0.01482848 0.01501046
v -0.03449683 0.01469690 0.01501046
v -0.03470659 0.01436679 0.01501046
v -0.03482954 0.01412455 0.01501046
v -0.03519825 0.01253865 0.01501046
v -0.03510590 0.01330641 0.01501046
v -0.03502097 0.01362673 0.01501046
v 0.00294666 0.02104325 0.01501046
v 0.00293408 0.02115120 0.01501046
v 0.00292789 0.02119538 0.01501046
v 0.00291031 0.02130273 0.01501046
v 0.00285006 0.02155812 0.01501046
v 0.00285003 0.02155824 0.01501046
v 0.00276634 0.02180769 0.01501046
v 0.00265979 0.02204945 0.01501046
v 0.00260857 0.02214706 0.01501046
v 0.00258682 0.02218635 0.01501046
v 0.00253109 0.02228179 0.01501046
v 0.00247114 0.02237463 0.01501046
v 0.00238145 0.02250252 0.01501046
v 0.00231312 0.02259008 0.01501046
v 0.00228443 0.02262525 0.01501046
v 0.00221190 0.02271015 0.01501046
v 0.00213574 0.02279175 0.01501046
v 0.00202402 0.02290284 0.01501046
v 0.00136301 0.02337961 0.01501046
v 0.00032137 0.02373609 0.01501046
v 0.00027272 0.02374217 0.01501046
v 0.00004529 0.02377031 0.01501046
v 0.00260699 0.01578179 0.01501046
v -0.01341623 0.02331147 0.03007122
v -0.01340854 0.02331416 0.03007122
v -0.01275830 0.02351609 0.03007122
v -0.01308467 0.02342232 0.03007122
v -0.01259130 0.02355832 0.03007122
v -0.01256474 0.02356443 0.03007122
v -0.00546716 0.02356443 0.03007122
v -0.00601652 0.02356443 0.03007122
v -0.00257136 0.02126655 0.03007122
v -0.00282406 0.02201891 0.03007122
v -0.00295330 0.02224743 0.03007122
v -0.00310380 0.02246247 0.03007122
v -0.00346425 0.02284562 0.03007122
v -0.00366130 0.02300375 0.03007122
v -0.00367154 0.02301063 0.03007122
v -0.00389493 0.02315615 0.03007122
v -0.00413266 0.02328091 0.03007122
v -0.00438298 0.02338389 0.03007122
v -0.00462009 0.02345880 0.03007122
v -0.00488537 0.02351733 0.03007122
v -0.00464400 0.02346422 0.03007122
v -0.00491373 0.02352117 0.03007122
v -0.00519010 0.02355421 0.03007122
v -0.00543278 0.02356443 0.03007122
v -0.00252286 0.02065467 0.03007122
v -0.03318058 0.01576025 0.03007122
v -0.03381385 0.01540066 0.03007122
v -0.03398618 0.01526047 0.03007122
v -0.03474109 0.01430317 0.03007122
v -0.03519940 0.01246876 0.03007122
v -0.03517942 0.01283639 0.03007122
v -0.03505235 0.01351849 0.03007122
v -0.03490881 0.01394220 0.03007122
v -0.03339456 0.01566246 0.03007122
v -0.03351857 0.01559519 0.03007122
v -0.03360603 0.01554294 0.03007122
v -0.03372631 0.01546291 0.03007122
v -0.03366958 0.01550175 0.03007122
v -0.03384096 0.01538002 0.03007122
v -0.03401657 0.01523458 0.03007122
v -0.03415023 0.01510793 0.03007122
v -0.03411226 0.01514400 0.03007122
v -0.03421262 0.01504349 0.03007122
v -0.03419708 0.01505958 0.03007122
v -0.03428217 0.01496722 0.03007122
v -0.03439819 0.01482848 0.03007122
v -0.03454566 0.01462737 0.03007122
v -0.03452882 0.01465135 0.03007122
v -0.03478008 0.01422592 0.03007122
v -0.03520000 0.01243197 0.03007122
v -0.03519282 0.01266192 0.03007122
v -0.03518438 0.01279045 0.03007122
v -0.03515788 0.01301846 0.03007122
v -0.03515086 0.01306509 0.03007122
v -0.03511248 0.01327566 0.03007122
v -0.03506887 0.01346151 0.03007122
v -0.03499489 0.01371071 0.03007122
v -0.03497116 0.01378079 0.03007122
v -0.03496148 0.01380708 0.03007122
v -0.03493235 0.01388580 0.03007122
v -0.00252286 0.01768178 0.03007122
v -0.01275646 0.02351656 0.03007122
v -0.01213038 0.02356443 0.03007122
v -0.00561931 0.02356443 0.03007122
v -0.00257180 0.02126870 0.03007122
v -0.00253529 0.02100460 0.03007122
v -0.00253500 0.02100211 0.03007122
v -0.00252292 0.02073652 0.03007122
v -0.00252286 0.02073353 0.03007122
v -0.00263203 0.02152609 0.03007122
v -0.00263144 0.02152415 0.03007122
v -0.00271580 0.02177597 0.03007122
v -0.00271504 0.02177413 0.03007122
v -0.00282143 0.02201412 0.03007122
v -0.00282241 0.02201598 0.03007122
v -0.00294980 0.02224229 0.03007122
v -0.00295110 0.02224425 0.03007122
v -0.00309918 0.02245691 0.03007122
v -0.00326844 0.02265635 0.03007122
v -0.00327454 0.02266241 0.03007122
v -0.00345629 0.02283909 0.03007122
v -0.00388191 0.02314908 0.03007122
v -0.00411645 0.02327397 0.03007122
v -0.00436313 0.02337747 0.03007122
v -0.00515696 0.02355263 0.03007122
v -0.03335566 0.01568187 0.03007122
v -0.03386589 0.01536057 0.03007122
v -0.03464765 0.01446812 0.03007122
v -0.03470659 0.01436679 0.03007122
v -0.03519648 0.01260087 0.03007122
v -0.03514048 0.01312963 0.03007122
v -0.03500504 0.01368055 0.03007122
v -0.03484945 0.01408376 0.03007122
v -0.03520000 0.00178179 0.03007122
v -0.03520000 0.00178179 0.01501046
v -0.01500000 0.00178179 0.01501046
v -0.01500000 0.00178179 0.03007122
f 290 289 193
f 193 254 290
f 193 159 254
f 54 159 160
f 5 84 6
f 14 84 5
f 83 84 1
f 6 84 7
f 84 8 7
f 86 7 8
f 6 7 86
f 86 5 6
f 219 5 86
f 162 229 228
f 84 86 9
f 9 8 84
f 9 86 8
f 219 86 87
f 54 262 218
f 261 54 53
f 261 262 54
f 52 259 53
f 161 50 154
f 161 3 51
f 51 50 161
f 3 2 51
f 45 191 192
f 216 278 82
f 219 87 279
f 89 228 227
f 162 228 89
f 174 52 173
f 120 171 53
f 53 259 260
f 260 261 53
f 59 266 56
f 177 56 124
f 82 278 81
f 1 84 24
f 10 17 84
f 84 11 10
f 22 24 199
f 100 238 236
f 88 89 227
f 227 279 88
f 88 279 87
f 132 65 185
f 53 171 172
f 119 54 160
f 183 184 64
f 259 52 202
f 56 266 263
f 127 178 58
f 63 130 131
f 62 269 60
f 60 180 129
f 121 52 174
f 190 81 152
f 80 215 213
f 213 79 80
f 42 2 1
f 1 4 42
f 42 4 41
f 31 40 35
f 1 24 25
f 25 24 22
f 194 5 219
f 14 5 194
f 15 24 84
f 111 169 249
f 249 169 248
f 284 248 109
f 109 248 169
f 164 239 238
f 164 238 100
f 100 236 163
f 282 281 166
f 68 274 67
f 273 67 274
f 206 274 68
f 68 69 206
f 75 143 144
f 149 150 79
f 78 214 212
f 212 77 78
f 138 139 71
f 258 202 52
f 57 263 264
f 56 263 57
f 181 182 62
f 271 63 64
f 266 59 265
f 265 59 58
f 58 267 265
f 4 43 44
f 39 4 40
f 39 43 4
f 39 40 31
f 31 43 39
f 2 42 38
f 38 51 2
f 31 35 38
f 38 42 41
f 41 4 38
f 4 44 38
f 38 43 31
f 38 44 43
f 18 4 19
f 36 37 4
f 4 27 36
f 21 4 1
f 1 25 21
f 19 4 21
f 21 25 22
f 12 11 84
f 197 10 11
f 11 12 197
f 84 17 16
f 16 15 84
f 49 47 48
f 50 51 49
f 51 47 49
f 241 239 165
f 239 164 165
f 102 166 281
f 281 240 102
f 102 240 101
f 188 67 133
f 66 272 65
f 66 273 272
f 67 273 66
f 66 186 187
f 207 206 69
f 69 70 207
f 141 189 73
f 77 146 147
f 135 136 69
f 123 57 176
f 55 122 175
f 55 258 52
f 264 258 55
f 55 57 264
f 125 126 59
f 205 271 64
f 64 65 205
f 65 272 205
f 61 267 58
f 4 37 33
f 33 32 4
f 4 32 30
f 30 32 35
f 28 27 4
f 4 18 28
f 37 36 26
f 51 201 257
f 13 84 14
f 13 12 84
f 14 194 13
f 195 197 12
f 17 10 196
f 10 197 196
f 196 16 17
f 208 207 70
f 208 70 71
f 71 72 275
f 72 209 275
f 275 208 71
f 73 74 276
f 62 204 270
f 270 269 62
f 179 61 128
f 268 61 203
f 267 61 268
f 29 35 40
f 29 30 35
f 40 4 29
f 4 30 29
f 34 33 37
f 37 26 34
f 34 26 35
f 35 32 34
f 32 33 34
f 22 199 20
f 35 26 20
f 20 28 18
f 199 256 20
f 27 28 20
f 20 38 35
f 20 36 27
f 20 26 36
f 51 38 20
f 20 256 201
f 20 201 51
f 198 199 24
f 24 15 198
f 46 47 45
f 75 76 277
f 22 20 23
f 19 21 23
f 23 21 22
f 23 18 19
f 23 20 18
f 255 198 15
f 210 276 74
f 211 277 76
f 290 287 289
f 289 287 288
f 288 287 85
f 287 243 85
f 254 159 218
f 159 54 218
f 161 83 2
f 2 83 1
f 2 3 161
f 153 191 45
f 82 153 45
f 82 45 216
f 216 45 217
f 184 65 64
f 185 65 184
f 95 96 221
f 221 96 233
f 94 221 280
f 95 221 94
f 168 223 283
f 168 283 104
f 168 85 243
f 243 223 168
f 90 231 229
f 90 229 162
f 172 52 53
f 172 173 52
f 53 54 119
f 119 120 53
f 63 182 130
f 62 182 63
f 131 183 63
f 63 183 64
f 190 153 82
f 82 81 190
f 80 150 151
f 79 150 80
f 151 152 80
f 152 81 80
f 278 215 80
f 80 81 278
f 93 232 220
f 220 92 93
f 280 232 93
f 93 94 280
f 220 230 91
f 91 92 220
f 230 231 91
f 231 90 91
f 72 139 140
f 71 139 72
f 142 143 74
f 74 143 75
f 74 189 142
f 73 189 74
f 76 144 145
f 75 144 76
f 145 146 76
f 76 146 77
f 148 149 78
f 78 149 79
f 213 214 78
f 78 79 213
f 137 138 70
f 70 138 71
f 70 136 137
f 69 136 70
f 57 123 124
f 57 124 56
f 58 59 126
f 126 127 58
f 181 60 129
f 62 60 181
f 217 45 47
f 47 200 217
f 251 252 113
f 113 252 116
f 115 252 253
f 116 252 115
f 283 244 106
f 104 283 106
f 106 244 245
f 245 105 106
f 108 105 224
f 224 105 245
f 107 224 246
f 108 224 107
f 233 96 235
f 96 97 235
f 235 97 98
f 98 234 235
f 240 165 101
f 241 165 240
f 188 134 68
f 68 67 188
f 187 133 66
f 133 67 66
f 132 186 66
f 65 132 66
f 141 72 140
f 73 72 141
f 148 78 147
f 147 78 77
f 68 134 135
f 135 69 68
f 175 176 55
f 55 176 57
f 55 121 122
f 52 121 55
f 125 56 177
f 125 59 56
f 62 63 204
f 63 271 204
f 61 179 180
f 180 60 61
f 269 203 61
f 61 60 269
f 200 47 257
f 257 47 51
f 195 13 194
f 12 13 195
f 158 156 48
f 48 47 158
f 155 154 50
f 50 49 155
f 48 156 155
f 155 49 48
f 170 225 285
f 170 285 112
f 249 225 170
f 170 111 249
f 285 250 114
f 112 285 114
f 114 250 251
f 251 113 114
f 118 226 286
f 118 286 117
f 253 226 118
f 118 115 253
f 110 247 284
f 284 109 110
f 246 247 110
f 110 107 246
f 237 99 163
f 237 163 236
f 98 99 237
f 237 234 98
f 286 242 167
f 117 286 167
f 276 72 73
f 276 209 72
f 58 178 128
f 128 61 58
f 103 222 282
f 282 166 103
f 103 167 242
f 242 222 103
f 15 16 255
f 16 196 255
f 160 159 157
f 157 193 289
f 157 289 288
f 288 85 157
f 174 173 157
f 162 89 157
f 159 193 157
f 157 183 131
f 157 164 100
f 157 83 161
f 100 163 157
f 145 144 157
f 192 191 157
f 84 83 157
f 157 168 104
f 161 154 157
f 157 86 84
f 157 172 171
f 148 147 157
f 157 152 151
f 157 135 134
f 95 94 157
f 157 87 86
f 187 186 157
f 157 88 87
f 151 150 157
f 185 184 157
f 177 124 157
f 157 121 174
f 157 191 153
f 153 190 157
f 169 111 157
f 157 170 112
f 157 96 95
f 157 93 92
f 157 90 162
f 157 132 185
f 157 102 101
f 157 149 148
f 157 138 137
f 140 139 157
f 171 120 157
f 157 119 160
f 131 130 157
f 157 176 175
f 129 180 157
f 175 122 157
f 157 125 177
f 112 114 157
f 157 109 169
f 98 97 157
f 85 168 157
f 157 110 109
f 89 88 157
f 92 91 157
f 157 133 187
f 157 143 142
f 134 188 157
f 157 146 145
f 173 172 157
f 120 119 157
f 184 183 157
f 178 127 157
f 130 182 157
f 157 181 129
f 124 123 157
f 122 121 157
f 157 190 152
f 157 103 166
f 154 155 157
f 117 167 157
f 157 105 108
f 104 106 157
f 157 97 96
f 94 93 157
f 108 107 157
f 101 165 157
f 157 99 98
f 157 91 90
f 157 186 132
f 157 144 143
f 142 189 157
f 150 149 157
f 157 141 140
f 139 138 157
f 137 136 157
f 127 126 157
f 182 181 157
f 180 179 157
f 157 113 116
f 116 115 157
f 157 106 105
f 157 118 117
f 157 165 164
f 163 99 157
f 166 102 157
f 157 188 133
f 189 141 157
f 157 147 146
f 136 135 157
f 123 176 157
f 126 125 157
f 156 158 157
f 157 155 156
f 111 170 157
f 157 114 113
f 115 118 157
f 107 110 157
f 157 128 178
f 179 128 157
f 167 103 157
f 157 45 192
f 157 46 45
f 157 158 47
f 47 46 157
f 210 74 75
f 75 277 210
f 266 265 211
f 211 228 229
f 290 254 211
f 211 287 290
f 229 231 211
f 211 243 287
f 211 194 219
f 249 248 211
f 211 203 269
f 213 215 211
f 211 258 264
f 219 279 211
f 211 242 286
f 211 239 241
f 211 223 243
f 254 218 211
f 272 273 211
f 211 216 217
f 211 252 251
f 245 244 211
f 211 230 220
f 227 228 211
f 211 205 272
f 211 218 262
f 262 261 211
f 211 260 259
f 278 216 211
f 286 226 211
f 211 221 233
f 220 232 211
f 211 244 283
f 283 223 211
f 211 231 230
f 211 279 227
f 241 240 211
f 211 214 213
f 211 215 278
f 261 260 211
f 259 202 211
f 211 263 266
f 251 250 211
f 211 195 194
f 280 221 211
f 211 232 280
f 238 239 211
f 211 236 238
f 284 247 211
f 233 235 211
f 212 214 211
f 282 222 211
f 274 206 211
f 264 263 211
f 211 275 209
f 209 276 211
f 217 200 211
f 211 226 253
f 211 225 249
f 211 248 284
f 211 224 245
f 267 268 211
f 211 281 282
f 211 273 274
f 202 258 211
f 271 205 211
f 269 270 211
f 211 265 267
f 211 256 199
f 211 257 201
f 285 225 211
f 211 250 285
f 253 252 211
f 246 224 211
f 211 247 246
f 211 235 234
f 211 240 281
f 211 237 236
f 206 207 211
f 207 208 211
f 211 204 271
f 201 256 211
f 200 257 211
f 197 195 211
f 211 196 197
f 234 237 211
f 211 222 242
f 208 275 211
f 199 198 211
f 211 270 204
f 211 268 203
f 276 210 211
f 211 255 196
f 198 255 211
f 211 210 277
f 211 76 77
f 211 77 212

