# https://github.com/mikedh/trimesh
v -0.01406416 0.01185257 0.04606567
v -0.01411505 0.01186420 0.04606567
v -0.01414076 0.01186897 0.04606567
v -0.01421814 0.01187896 0.04606567
v -0.01387511 0.01178190 0.04606567
v -0.01391529 0.01180079 0.04606567
v -0.01398897 0.01182985 0.04606567
v -0.01399239 0.01183103 0.04606567
v -0.01370808 0.01167654 0.04606567
v -0.01376507 0.01171783 0.04606567
v -0.01377448 0.01172408 0.04606567
v -0.01384361 0.01176548 0.04606567
v -0.01364482 0.01162293 0.04606567
v -0.01366382 0.01163998 0.04606567
v -0.01357802 0.01155549 0.04606567
v -0.01358521 0.01156338 0.04606567
v -0.01361697 0.01159632 0.04606567
v -0.01342905 0.01134288 0.04606567
v -0.01345851 0.01139471 0.04606567
v -0.01347346 0.01141867 0.04606567
v -0.01352317 0.01148952 0.04606567
v -0.01353172 0.01150056 0.04606567
v -0.01335815 0.01117831 0.04606567
v -0.01337353 0.01122102 0.04606567
v -0.01339044 0.01126256 0.04606567
v -0.01339842 0.01128060 0.04606567
v -0.01330000 0.01082272 0.04606567
v -0.01330019 0.01084312 0.04606567
v -0.01330339 0.01090969 0.04606567
v -0.01330992 0.01097137 0.04606567
v -0.01331436 0.01100131 0.04606567
v -0.01333270 0.01109108 0.04606567
v -0.01333443 0.01109797 0.04606567
v -0.03178009 0.00719069 0.05350237
v -0.01500000 0.01116527 0.04513197
v -0.01501859 0.01137633 0.04513197
v -0.01500747 0.01129959 0.04513197
v -0.01500992 0.01132183 0.04513197
v -0.01503443 0.01144934 0.04513197
v -0.01503502 0.01145161 0.04513197
v -0.01508860 0.01160961 0.04513197
v -0.01509780 0.01163182 0.04513197
v -0.01507353 0.01157322 0.04513197
v -0.01512678 0.01169154 0.04513197
v -0.01513090 0.01169918 0.04513197
v -0.01519007 0.01179731 0.04513197
v -0.01523173 0.01185452 0.04513197
v -0.01523348 0.01185673 0.04513197
v -0.01536079 0.01199204 0.04513197
v -0.01530872 0.01194235 0.04513197
v -0.01541562 0.01203734 0.04513197
v -0.01541327 0.01203554 0.04513197
v -0.01557062 0.01213516 0.04513197
v -0.01574014 0.01220172 0.04513197
v -0.01575316 0.01220558 0.04513197
v -0.01576346 0.01220816 0.04513197
v -0.01563298 0.01216410 0.04513197
v -0.01563355 0.01216434 0.04513197
v -0.01594164 0.01223680 0.04513197
v -0.03444473 0.01089176 0.04513197
v -0.03481611 0.00968461 0.04513197
v -0.03480604 0.00978614 0.04513197
v -0.03478341 0.00994481 0.04513197
v -0.03479360 0.00987655 0.04513197
v -0.03477124 0.01000899 0.04513197
v -0.03478051 0.00996188 0.04513197
v -0.03474299 0.01014043 0.04513197
v -0.03472904 0.01019761 0.04513197
v -0.03474106 0.01014913 0.04513197
v -0.03472046 0.01022997 0.04513197
v -0.03468577 0.01034691 0.04513197
v -0.03465362 0.01044130 0.04513197
v -0.03461858 0.01053222 0.04513197
v -0.03457494 0.01063714 0.04513197
v -0.03455969 0.01067038 0.04513197
v -0.03447542 0.01083646 0.04513197
v -0.03445781 0.01086941 0.04513197
v -0.03415684 0.01129762 0.04513197
v -0.03412445 0.01133467 0.04513197
v -0.03398305 0.01148065 0.04513197
v -0.03400748 0.01145729 0.04513197
v -0.03383040 0.01161640 0.04513197
v -0.03383252 0.01161469 0.04513197
v -0.03366635 0.01174022 0.04513197
v -0.03363492 0.01176202 0.04513197
v -0.03355420 0.01181463 0.04513197
v -0.03356771 0.01180622 0.04513197
v -0.03341581 0.01189548 0.04513197
v -0.03322772 0.01198889 0.04513197
v -0.03306176 0.01205700 0.04513197
v -0.03281290 0.01213684 0.04513197
v -0.03229864 0.01222154 0.04513197
v -0.03243197 0.01220717 0.04513197
v -0.03256352 0.01218697 0.04513197
v -0.03203146 0.01223411 0.04513197
v -0.03270136 0.01216465 0.04513197
v -0.03482667 0.00941249 0.04513197
v -0.01600000 0.01223865 0.04513197
v -0.01500368 0.01126313 0.04513197
v -0.01500019 0.01119262 0.04513197
v -0.01500187 0.01122878 0.04513197
v -0.01511522 0.01166774 0.04513197
v -0.01506921 0.01156143 0.04513197
v -0.01505655 0.01152495 0.04513197
v -0.01515852 0.01174802 0.04513197
v -0.01531699 0.01195084 0.04513197
v -0.01528012 0.01191192 0.04513197
v -0.01547296 0.01207817 0.04513197
v -0.01550949 0.01210122 0.04513197
v -0.01551910 0.01210705 0.04513197
v -0.01581506 0.01222020 0.04513197
v -0.01569789 0.01218867 0.04513197
v -0.01587391 0.01223008 0.04513197
v -0.03482502 0.00949987 0.04513197
v -0.03481112 0.00973747 0.04513197
v -0.03472157 0.01022591 0.04513197
v -0.03469831 0.01030479 0.04513197
v -0.03466924 0.01039619 0.04513197
v -0.03463434 0.01049372 0.04513197
v -0.03452171 0.01074959 0.04513197
v -0.03418032 0.01126974 0.04513197
v -0.03422132 0.01121995 0.04513197
v -0.03430774 0.01110481 0.04513197
v -0.03436315 0.01102425 0.04513197
v -0.03438288 0.01099390 0.04513197
v -0.03403345 0.01143149 0.04513197
v -0.03385746 0.01159331 0.04513197
v -0.03393156 0.01152914 0.04513197
v -0.03371790 0.01170372 0.04513197
v -0.03348746 0.01185505 0.04513197
v -0.03344934 0.01187703 0.04513197
v -0.03347459 0.01186260 0.04513197
v -0.03334194 0.01193425 0.04513197
v -0.03309094 0.01204584 0.04513197
v -0.03300407 0.01207764 0.04513197
v -0.03290175 0.01211109 0.04513197
v -0.03283124 0.01213177 0.04513197
v -0.03286710 0.01212135 0.04513197
v -0.03216417 0.01223001 0.04513197
v -0.03482667 0.00778389 0.04513197
v -0.01330921 0.00829104 0.06019273
v -0.01330328 0.00823738 0.06019273
v -0.01330285 0.00822929 0.06019273
v -0.01330002 0.00815854 0.06019273
v -0.01333442 0.00841738 0.06019273
v -0.01332034 0.00835768 0.06019273
v -0.01337353 0.00853414 0.06019273
v -0.01345853 0.00869878 0.06019273
v -0.01357525 0.00884805 0.06019273
v -0.01392728 0.00908790 0.06019273
v -0.01387550 0.00906546 0.06019273
v -0.01386926 0.00906229 0.06019273
v -0.01376893 0.00900701 0.06019273
v -0.01405201 0.00912906 0.06019273
v -0.01399239 0.00911174 0.06019273
v -0.01418151 0.00915330 0.06019273
v -0.01423831 0.00915849 0.06019273
v -0.02822865 0.00850308 0.06019273
v -0.02822538 0.00850552 0.06019273
v -0.02810343 0.00859389 0.06019273
v -0.02810059 0.00859579 0.06019273
v -0.02797135 0.00867946 0.06019273
v -0.02669694 0.00912791 0.06019273
v -0.02684168 0.00910530 0.06019273
v -0.02684553 0.00910456 0.06019273
v -0.02727702 0.00899619 0.06019273
v -0.02713435 0.00903897 0.06019273
v -0.02742072 0.00894563 0.06019273
v -0.02727827 0.00899576 0.06019273
v -0.02756283 0.00888844 0.06019273
v -0.02933477 0.00649730 0.06019273
v -0.02933407 0.00650377 0.06019273
v -0.02929824 0.00676948 0.06019273
v -0.02923334 0.00704373 0.06019273
v -0.02926944 0.00690658 0.06019273
v -0.02931889 0.00663958 0.06019273
v -0.02901015 0.00758894 0.06019273
v -0.02907998 0.00745045 0.06019273
v -0.02907675 0.00745700 0.06019273
v -0.02885851 0.00783877 0.06019273
v -0.02885459 0.00784432 0.06019273
v -0.02867441 0.00808018 0.06019273
v -0.02867035 0.00808479 0.06019273
v -0.02876997 0.00796158 0.06019273
v -0.02893605 0.00771823 0.06019273
v -0.02856813 0.00819817 0.06019273
v -0.01430000 0.00916350 0.06019273
v -0.02934500 0.00246234 0.06019273
v -0.02934500 0.00625503 0.06019273
v -0.01330000 0.00814561 0.06019273
v -0.01331055 0.00830125 0.06019273
v -0.01330992 0.00829729 0.06019273
v -0.01335315 0.00847912 0.06019273
v -0.01335218 0.00847634 0.06019273
v -0.01335013 0.00846954 0.06019273
v -0.01339795 0.00858963 0.06019273
v -0.01342767 0.00864714 0.06019273
v -0.01342679 0.00864558 0.06019273
v -0.01349225 0.00874818 0.06019273
v -0.01353210 0.00879946 0.06019273
v -0.01353174 0.00879903 0.06019273
v -0.01366328 0.00893055 0.06019273
v -0.01361701 0.00888971 0.06019273
v -0.01361454 0.00888731 0.06019273
v -0.01371482 0.00897051 0.06019273
v -0.01371328 0.00896941 0.06019273
v -0.01381912 0.00903669 0.06019273
v -0.01381723 0.00903563 0.06019273
v -0.01393570 0.00909138 0.06019273
v -0.01393298 0.00909035 0.06019273
v -0.01411630 0.00914334 0.06019273
v -0.01411507 0.00914311 0.06019273
v -0.02845962 0.00830635 0.06019273
v -0.02834882 0.00840594 0.06019273
v -0.02834522 0.00840893 0.06019273
v -0.02797368 0.00867807 0.06019273
v -0.02783996 0.00875538 0.06019273
v -0.02641726 0.00915332 0.06019273
v -0.02641089 0.00915369 0.06019273
v -0.02655875 0.00914339 0.06019273
v -0.02655319 0.00914396 0.06019273
v -0.02670165 0.00912722 0.06019273
v -0.02698993 0.00907520 0.06019273
v -0.02698696 0.00907591 0.06019273
v -0.02713224 0.00903958 0.06019273
v -0.02742115 0.00894546 0.06019273
v -0.02770275 0.00882471 0.06019273
v -0.02931994 0.00663290 0.06019273
v -0.02929683 0.00677630 0.06019273
v -0.02923116 0.00705065 0.06019273
v -0.02918979 0.00718044 0.06019273
v -0.02926765 0.00691348 0.06019273
v -0.02913578 0.00732294 0.06019273
v -0.02893980 0.00771229 0.06019273
v -0.02901367 0.00758267 0.06019273
v -0.02857212 0.00819408 0.06019273
v -0.02876594 0.00796668 0.06019273
v -0.02918724 0.00718731 0.06019273
v -0.02913869 0.00731620 0.06019273
v -0.02846346 0.00830281 0.06019273
v -0.01330000 0.00178179 0.04606567
v -0.03397568 0.00178179 0.04747005
v -0.01500000 0.00178179 0.04513197
v -0.03482667 0.00178179 0.04513197
v -0.02953639 0.00178179 0.05966691
v -0.01330000 0.00178179 0.06019273
v -0.02934500 0.00178179 0.06019273
f 140 244 242
f 190 27 144
f 34 97 140
f 140 189 34
f 34 189 97
f 188 189 140
f 140 242 188
f 247 188 245
f 245 188 242
f 144 27 28
f 173 63 176
f 63 228 176
f 189 171 114
f 171 61 114
f 97 189 114
f 139 219 95
f 92 221 218
f 218 139 92
f 219 139 218
f 95 219 187
f 122 123 184
f 172 62 171
f 228 62 172
f 115 61 171
f 171 62 115
f 64 228 63
f 64 62 228
f 31 30 38
f 38 36 31
f 156 3 4
f 98 187 59
f 95 187 98
f 157 156 59
f 59 187 157
f 89 133 227
f 234 125 60
f 120 75 178
f 118 231 72
f 71 231 118
f 66 63 173
f 173 65 66
f 37 30 29
f 37 38 30
f 5 53 6
f 215 158 83
f 79 236 126
f 170 89 227
f 220 221 92
f 94 96 164
f 78 121 182
f 79 78 182
f 182 121 122
f 180 124 125
f 123 124 180
f 178 75 74
f 239 74 73
f 117 174 71
f 70 174 117
f 230 231 71
f 71 174 230
f 68 174 116
f 116 174 70
f 68 69 175
f 175 69 67
f 67 65 175
f 99 37 29
f 33 39 40
f 40 104 33
f 33 104 23
f 18 105 19
f 44 18 26
f 145 33 23
f 129 160 84
f 160 85 84
f 159 160 129
f 129 158 159
f 217 88 131
f 133 88 217
f 227 133 217
f 82 158 129
f 82 83 158
f 214 127 128
f 83 127 214
f 215 83 214
f 126 240 81
f 186 126 236
f 186 240 126
f 89 170 134
f 134 168 90
f 222 94 164
f 163 220 93
f 93 220 92
f 93 222 163
f 94 222 93
f 223 224 96
f 164 96 165
f 96 224 165
f 225 223 91
f 91 223 96
f 167 136 166
f 166 136 135
f 135 169 166
f 168 169 135
f 90 168 135
f 183 236 79
f 79 182 183
f 237 122 184
f 237 182 122
f 125 234 185
f 185 180 125
f 184 123 181
f 123 180 181
f 178 74 233
f 74 239 233
f 119 239 73
f 72 231 119
f 179 120 178
f 179 235 120
f 77 234 60
f 232 174 68
f 68 175 232
f 229 65 173
f 229 175 65
f 100 27 35
f 100 28 27
f 105 46 20
f 19 105 20
f 107 15 48
f 23 104 103
f 43 24 103
f 24 23 103
f 36 39 32
f 39 33 32
f 31 36 32
f 33 145 32
f 105 18 45
f 18 44 45
f 12 53 5
f 5 207 12
f 5 6 151
f 193 23 24
f 192 30 31
f 111 2 1
f 3 2 111
f 58 7 6
f 86 87 216
f 216 130 86
f 162 130 216
f 132 217 131
f 162 217 132
f 132 130 162
f 128 240 213
f 213 214 128
f 80 240 128
f 80 81 240
f 168 134 226
f 226 134 170
f 225 91 137
f 137 167 225
f 238 119 231
f 239 119 238
f 120 235 76
f 235 77 76
f 234 77 177
f 177 77 235
f 29 28 101
f 28 100 101
f 101 99 29
f 21 46 47
f 21 20 46
f 16 15 107
f 106 49 13
f 13 17 106
f 31 32 146
f 146 32 145
f 102 44 26
f 26 42 102
f 51 9 52
f 208 12 207
f 53 12 110
f 110 12 11
f 14 49 52
f 52 9 14
f 13 49 14
f 152 207 5
f 5 151 152
f 6 7 210
f 23 193 194
f 147 193 24
f 29 30 142
f 1 55 56
f 56 111 1
f 3 111 113
f 113 4 3
f 59 156 113
f 156 4 113
f 57 6 53
f 57 58 6
f 8 7 112
f 7 58 112
f 161 216 87
f 161 87 85
f 161 85 160
f 136 167 138
f 167 137 138
f 47 48 22
f 22 21 47
f 22 48 15
f 200 201 22
f 22 15 200
f 50 16 107
f 17 16 50
f 50 106 17
f 191 192 31
f 31 146 191
f 10 51 108
f 10 108 11
f 9 51 10
f 11 12 153
f 12 208 153
f 153 10 11
f 11 108 109
f 109 110 11
f 150 151 6
f 6 210 150
f 155 7 8
f 8 1 155
f 195 145 23
f 23 194 195
f 25 147 24
f 25 42 26
f 25 41 42
f 43 41 25
f 25 24 43
f 26 18 196
f 196 25 26
f 147 25 196
f 144 28 143
f 143 28 29
f 29 142 143
f 30 192 141
f 141 142 30
f 8 112 54
f 54 1 8
f 54 55 1
f 19 20 148
f 20 21 199
f 199 148 20
f 21 22 199
f 199 22 201
f 9 10 206
f 209 210 7
f 7 155 209
f 212 2 3
f 197 18 19
f 19 148 197
f 10 153 205
f 205 206 10
f 202 14 9
f 9 206 202
f 211 3 156
f 211 212 3
f 1 2 154
f 2 212 154
f 154 155 1
f 198 196 18
f 18 197 198
f 13 14 203
f 14 202 203
f 203 17 13
f 200 15 149
f 15 16 149
f 149 16 17
f 17 203 204
f 204 149 17
f 27 243 35
f 27 241 243
f 190 246 241
f 241 27 190
f 243 241 245
f 245 244 243
f 245 246 247
f 241 246 245
f 245 242 244
f 35 243 54
f 43 103 54
f 140 97 54
f 243 244 54
f 54 244 140
f 99 101 54
f 133 89 54
f 54 117 71
f 54 98 59
f 60 125 54
f 54 46 105
f 68 116 54
f 61 115 54
f 72 119 54
f 97 114 54
f 54 39 36
f 92 139 54
f 79 126 54
f 54 124 123
f 54 118 72
f 54 114 61
f 54 69 68
f 54 64 63
f 54 100 35
f 54 139 95
f 54 88 133
f 128 127 54
f 123 122 54
f 54 78 79
f 90 135 54
f 54 74 75
f 54 65 67
f 67 69 54
f 54 115 62
f 62 64 54
f 63 66 54
f 36 38 54
f 107 48 54
f 95 98 54
f 54 87 86
f 54 51 52
f 54 132 131
f 54 134 90
f 54 91 96
f 125 124 54
f 122 121 54
f 75 120 54
f 71 118 54
f 54 66 65
f 40 39 54
f 38 37 54
f 54 77 60
f 105 45 54
f 131 88 54
f 129 84 54
f 86 130 54
f 54 82 129
f 96 94 54
f 54 93 92
f 54 121 78
f 73 74 54
f 70 117 54
f 54 116 70
f 37 99 54
f 47 46 54
f 54 104 40
f 44 102 54
f 52 49 54
f 54 56 55
f 54 84 85
f 85 87 54
f 59 113 54
f 54 127 83
f 83 82 54
f 126 81 54
f 89 134 54
f 94 93 54
f 54 80 128
f 54 135 136
f 54 119 73
f 54 109 108
f 120 76 54
f 54 48 47
f 54 103 104
f 136 138 54
f 54 45 44
f 54 41 43
f 53 110 54
f 54 57 53
f 130 132 54
f 81 80 54
f 54 137 91
f 54 76 77
f 54 101 100
f 49 106 54
f 54 102 42
f 42 41 54
f 108 51 54
f 54 50 107
f 111 56 54
f 54 113 111
f 58 57 54
f 54 112 58
f 54 138 137
f 106 50 54
f 110 109 54
f 247 246 204
f 231 230 204
f 204 190 144
f 204 188 247
f 156 157 204
f 173 176 204
f 246 190 204
f 204 171 189
f 189 188 204
f 164 165 204
f 204 172 171
f 236 183 204
f 204 218 221
f 204 222 164
f 204 170 227
f 204 176 228
f 219 218 204
f 204 187 219
f 204 158 215
f 221 220 204
f 204 185 234
f 228 172 204
f 204 157 187
f 204 229 173
f 160 159 204
f 227 217 204
f 204 169 168
f 184 181 204
f 178 233 204
f 174 232 204
f 234 177 204
f 193 147 204
f 215 214 204
f 204 186 236
f 204 213 240
f 204 220 163
f 204 223 225
f 225 167 204
f 204 237 184
f 168 226 204
f 204 238 231
f 204 230 174
f 204 179 178
f 204 146 145
f 207 152 204
f 204 159 158
f 204 217 162
f 147 196 204
f 240 186 204
f 166 169 204
f 163 222 204
f 224 223 204
f 204 165 224
f 204 167 166
f 204 183 182
f 182 237 204
f 180 185 204
f 204 181 180
f 204 233 239
f 235 179 204
f 204 232 175
f 175 229 204
f 192 191 204
f 151 150 204
f 204 201 200
f 162 216 204
f 214 213 204
f 204 226 170
f 239 238 204
f 204 177 235
f 210 209 204
f 204 199 201
f 204 208 207
f 204 152 151
f 148 199 204
f 204 194 193
f 204 161 160
f 144 143 204
f 216 161 204
f 145 195 204
f 204 191 146
f 204 153 208
f 204 150 210
f 204 205 153
f 204 195 194
f 204 141 192
f 204 143 142
f 142 141 204
f 196 198 204
f 155 154 204
f 204 209 155
f 204 211 156
f 204 197 148
f 206 205 204
f 204 202 206
f 212 211 204
f 204 154 212
f 204 198 197
f 204 203 202
f 200 149 204

