# https://github.com/mikedh/trimesh
v -0.01247364 0.00792101 0.07551420
v -0.01260000 0.00718469 0.08537500
v -0.01072703 0.00716956 0.08537500
v -0.01090000 0.00693872 0.08791111
v -0.00990000 0.00618061 0.08537500
v -0.01090000 0.00718469 0.08537500
v -0.01084121 0.00718296 0.08537500
v -0.01081319 0.00718090 0.08537500
v -0.01077785 0.00717717 0.08537500
v -0.01047879 0.00709127 0.08537500
v -0.01053298 0.00711462 0.08537500
v -0.01055920 0.00712458 0.08537500
v -0.01064216 0.00715074 0.08537500
v -0.01065317 0.00715362 0.08537500
v -0.01032798 0.00700420 0.08537500
v -0.01036509 0.00702897 0.08537500
v -0.01040152 0.00705105 0.08537500
v -0.01041911 0.00706097 0.08537500
v -0.01013524 0.00682756 0.08537500
v -0.01017296 0.00687001 0.08537500
v -0.01019433 0.00689204 0.08537500
v -0.01025874 0.00695107 0.08537500
v -0.01026386 0.00695533 0.08537500
v -0.01003486 0.00668418 0.08537500
v -0.01005853 0.00672312 0.08537500
v -0.01008194 0.00675810 0.08537500
v -0.01009355 0.00677433 0.08537500
v -0.00993434 0.00644147 0.08537500
v -0.00995218 0.00650072 0.08537500
v -0.00996075 0.00652526 0.08537500
v -0.00999435 0.00660637 0.08537500
v -0.00999842 0.00661500 0.08537500
v -0.00990019 0.00619996 0.08537500
v -0.00990384 0.00626847 0.08537500
v -0.00990992 0.00632170 0.08537500
v -0.00991531 0.00635565 0.08537500
v -0.00992034 0.00638208 0.08537500
v -0.01618053 0.00693968 0.08790195
v -0.01840848 0.00748961 0.08169892
v -0.01853325 0.00748321 0.08174385
v -0.01854595 0.00406446 0.08983476
v -0.01856367 0.00382578 0.08981421
v -0.01940330 0.00406779 0.08750733
v -0.02121245 0.00473940 0.08250825
v -0.02151789 0.00455887 0.08169754
v -0.02038610 0.00657585 0.08234854
v -0.02028080 0.00668317 0.08231845
v -0.02017074 0.00678467 0.08228619
v -0.02005637 0.00687998 0.08225188
v -0.01993819 0.00696879 0.08221569
v -0.01981669 0.00705084 0.08217777
v -0.01969240 0.00712593 0.08213830
v -0.01956585 0.00719392 0.08209746
v -0.01943757 0.00725473 0.08205544
v -0.01930809 0.00730833 0.08201244
v -0.01917792 0.00735473 0.08196862
v -0.01904755 0.00739403 0.08192419
v -0.01891747 0.00742634 0.08187933
v -0.01878812 0.00745183 0.08183420
v -0.01865992 0.00747071 0.08178899
v -0.01650904 0.00666418 0.08938739
v -0.01663833 0.00661690 0.08942911
v -0.01676694 0.00656259 0.08946978
v -0.01689438 0.00650122 0.08950922
v -0.01702013 0.00643283 0.08954725
v -0.01714367 0.00635751 0.08958370
v -0.01726448 0.00627539 0.08961838
v -0.01738206 0.00618669 0.08965115
v -0.01749591 0.00609165 0.08968183
v -0.01760555 0.00599059 0.08971032
v -0.01771056 0.00588385 0.08973646
v -0.01625035 0.00673792 0.08930158
v -0.01612186 0.00676466 0.08925784
v -0.01599448 0.00678490 0.08921377
v -0.01583974 0.00683674 0.08885792
v -0.01586861 0.00679885 0.08916953
v -0.01637956 0.00670448 0.08934483
v -0.01852797 0.00419888 0.08984341
v -0.02119582 0.00487515 0.08251262
v -0.01847347 0.00447108 0.08985436
v -0.01850387 0.00433456 0.08984999
v -0.02114379 0.00515011 0.08251481
v -0.02117300 0.00501220 0.08251484
v -0.01839316 0.00474477 0.08985608
v -0.01843660 0.00460798 0.08985642
v -0.02106558 0.00542661 0.08250757
v -0.02110803 0.00528841 0.08251241
v -0.01828632 0.00501599 0.08984787
v -0.01834308 0.00488095 0.08985326
v -0.02096035 0.00570058 0.08249032
v -0.02101636 0.00556418 0.08250023
v -0.01815291 0.00528046 0.08982923
v -0.01822290 0.00514934 0.08983987
v -0.02082806 0.00596763 0.08246268
v -0.02089756 0.00583525 0.08247781
v -0.01799376 0.00553383 0.08979996
v -0.01807647 0.00540881 0.08981592
v -0.02066947 0.00622326 0.08242460
v -0.02075197 0.00609715 0.08244494
v -0.01781050 0.00577185 0.08976017
v -0.01790501 0.00565501 0.08978136
v -0.02048623 0.00646312 0.08237632
v -0.02058079 0.00634543 0.08240170
v -0.01667849 0.00765493 0.07946879
v -0.01613129 0.00769317 0.07893294
v -0.01667849 0.00773096 0.07839708
v -0.01677878 0.00773674 0.07831460
v -0.01677663 0.00764911 0.07954980
v -0.01677903 0.00764899 0.07955144
v -0.01672707 0.00765180 0.07951239
v -0.01682919 0.00764672 0.07958300
v -0.01683430 0.00764651 0.07958592
v -0.01688429 0.00764465 0.07961174
v -0.01689235 0.00764438 0.07961547
v -0.01694145 0.00764292 0.07963577
v -0.01695274 0.00764262 0.07963987
v -0.01700049 0.00764153 0.07965501
v -0.01701503 0.00764125 0.07965894
v -0.01706081 0.00764050 0.07966929
v -0.01707873 0.00764026 0.07967253
v -0.01713177 0.00763976 0.07967953
v -0.01714337 0.00763969 0.07968055
v -0.01719366 0.00763952 0.07968288
v -0.01720847 0.00763951 0.07968292
v -0.01725571 0.00763965 0.07968110
v -0.01727353 0.00763975 0.07967964
v -0.01731746 0.00764015 0.07967419
v -0.01733805 0.00764040 0.07967072
v -0.01737818 0.00764101 0.07966225
v -0.01740156 0.00764144 0.07965624
v -0.01743774 0.00764223 0.07964534
v -0.01746357 0.00764288 0.07963631
v -0.01749424 0.00764375 0.07962418
v -0.01752362 0.00764470 0.07961106
v -0.01755047 0.00764566 0.07959771
v -0.01758125 0.00764689 0.07958070
v -0.01760424 0.00764789 0.07956673
v -0.01763603 0.00764942 0.07954546
v -0.01765518 0.00765043 0.07953148
v -0.01768755 0.00765229 0.07950560
v -0.01770312 0.00765326 0.07949205
v -0.01773541 0.00765546 0.07946141
v -0.01774774 0.00765637 0.07944871
v -0.01777926 0.00765892 0.07941324
v -0.01778860 0.00765974 0.07940182
v -0.01781876 0.00766263 0.07936145
v -0.01783619 0.00766451 0.07933526
v -0.01785363 0.00766657 0.07930642
v -0.01782533 0.00766332 0.07935186
v -0.01786732 0.00766835 0.07928148
v -0.01788358 0.00767070 0.07924858
v -0.01789396 0.00767238 0.07922516
v -0.01790840 0.00767500 0.07918836
v -0.01791587 0.00767655 0.07916673
v -0.01792790 0.00767943 0.07912621
v -0.01793280 0.00768081 0.07910683
v -0.01794194 0.00768396 0.07906260
v -0.01794471 0.00768516 0.07904568
v -0.01795041 0.00768855 0.07899801
v -0.01795151 0.00768956 0.07898373
v -0.01795323 0.00769317 0.07893294
v -0.01795315 0.00769398 0.07892147
v -0.01795041 0.00769778 0.07886786
v -0.01794961 0.00769839 0.07885927
v -0.01794194 0.00770235 0.07880328
v -0.01794091 0.00770276 0.07879756
v -0.01792790 0.00770685 0.07873967
v -0.01792714 0.00770705 0.07873684
v -0.01790836 0.00771124 0.07867742
v -0.01788476 0.00771530 0.07861985
v -0.01788358 0.00771548 0.07861730
v -0.01785650 0.00771919 0.07856451
v -0.01785363 0.00771955 0.07855945
v -0.01782811 0.00772245 0.07851817
v -0.01781877 0.00772342 0.07850443
v -0.01779155 0.00772600 0.07846776
v -0.01777926 0.00772706 0.07845263
v -0.01775087 0.00772931 0.07842050
v -0.01773541 0.00773044 0.07840446
v -0.01770658 0.00773237 0.07837693
v -0.01768755 0.00773354 0.07836028
v -0.01765888 0.00773515 0.07833721
v -0.01763603 0.00773633 0.07832041
v -0.01760799 0.00773765 0.07830153
v -0.01758125 0.00773880 0.07828517
v -0.01755425 0.00773985 0.07827015
v -0.01752362 0.00774092 0.07825481
v -0.01746357 0.00774269 0.07822957
v -0.01748223 0.00774219 0.07823677
v -0.01742383 0.00774363 0.07821611
v -0.01740156 0.00774408 0.07820964
v -0.01736382 0.00774473 0.07820033
v -0.01733805 0.00774509 0.07819515
v -0.01730262 0.00774548 0.07818955
v -0.01727353 0.00774572 0.07818624
v -0.01724084 0.00774588 0.07818388
v -0.01720847 0.00774595 0.07818296
v -0.01717899 0.00774592 0.07818333
v -0.01714337 0.00774578 0.07818533
v -0.01711720 0.00774560 0.07818789
v -0.01707873 0.00774522 0.07819334
v -0.01706323 0.00774503 0.07819612
v -0.01701503 0.00774427 0.07820693
v -0.01700272 0.00774404 0.07821023
v -0.01695274 0.00774294 0.07822601
v -0.01694368 0.00774271 0.07822928
v -0.01689235 0.00774123 0.07825041
v -0.01688647 0.00774104 0.07825311
v -0.01683430 0.00773916 0.07827996
v -0.01672914 0.00773413 0.07835179
v -0.01672696 0.00773401 0.07835358
v -0.01668502 0.00773140 0.07839076
v -0.01325829 0.00683587 0.08886572
v -0.01271109 0.00689438 0.08832987
v -0.01325829 0.00695090 0.08779401
v -0.01313892 0.00693874 0.08791091
v -0.01335648 0.00682684 0.08894675
v -0.01335883 0.00682666 0.08894837
v -0.01330689 0.00683102 0.08890934
v -0.01330676 0.00683103 0.08890923
v -0.01340901 0.00682313 0.08897995
v -0.01341409 0.00682280 0.08898284
v -0.01346399 0.00681991 0.08900862
v -0.01347214 0.00681949 0.08901239
v -0.01352110 0.00681722 0.08903264
v -0.01353254 0.00681675 0.08903680
v -0.01357997 0.00681506 0.08905185
v -0.01359482 0.00681460 0.08905587
v -0.01363999 0.00681345 0.08906610
v -0.01365853 0.00681307 0.08906946
v -0.01365281 0.00681318 0.08906847
v -0.01371397 0.00681226 0.08907668
v -0.01372317 0.00681217 0.08907747
v -0.01377573 0.00681190 0.08907983
v -0.01378827 0.00681190 0.08907984
v -0.01383764 0.00681212 0.08907788
v -0.01385333 0.00681227 0.08907656
v -0.01389896 0.00681292 0.08907085
v -0.01391785 0.00681328 0.08906765
v -0.01395941 0.00681427 0.08905883
v -0.01398136 0.00681491 0.08905317
v -0.01404337 0.00681715 0.08903323
v -0.01407466 0.00681854 0.08902084
v -0.01410342 0.00681998 0.08900799
v -0.01413071 0.00682151 0.08899441
v -0.01416105 0.00682339 0.08897763
v -0.01418420 0.00682496 0.08896355
v -0.01421584 0.00682733 0.08894239
v -0.01423508 0.00682890 0.08892833
v -0.01426735 0.00683178 0.08890252
v -0.01428300 0.00683329 0.08888891
v -0.01432760 0.00683811 0.08884557
v -0.01435906 0.00684203 0.08881017
v -0.01436834 0.00684329 0.08879881
v -0.01439856 0.00684776 0.08875837
v -0.01441705 0.00685083 0.08873051
v -0.01443342 0.00685382 0.08870335
v -0.01440512 0.00684881 0.08874881
v -0.01444811 0.00685677 0.08867653
v -0.01446338 0.00686017 0.08864551
v -0.01447465 0.00686296 0.08861998
v -0.01448820 0.00686675 0.08858529
v -0.01449639 0.00686935 0.08856142
v -0.01450770 0.00687352 0.08852313
v -0.01451317 0.00687588 0.08850133
v -0.01452174 0.00688041 0.08845953
v -0.01452491 0.00688253 0.08843993
v -0.01453020 0.00688739 0.08839494
v -0.01453303 0.00689438 0.08832987
v -0.01453150 0.00688923 0.08837780
v -0.01453289 0.00689594 0.08831533
v -0.01453020 0.00690135 0.08826479
v -0.01452908 0.00690261 0.08825295
v -0.01452174 0.00690824 0.08820020
v -0.01450598 0.00691566 0.08813024
v -0.01450770 0.00691499 0.08813659
v -0.01452008 0.00690921 0.08819108
v -0.01446338 0.00692791 0.08801422
v -0.01448686 0.00692195 0.08807077
v -0.01448820 0.00692156 0.08807445
v -0.01443425 0.00693383 0.08795782
v -0.01436373 0.00694455 0.08785521
v -0.01432226 0.00694939 0.08780859
v -0.01431521 0.00695014 0.08780139
v -0.01427717 0.00695384 0.08776566
v -0.01426735 0.00695472 0.08775721
v -0.01422886 0.00695786 0.08772676
v -0.01421583 0.00695884 0.08771734
v -0.01417746 0.00696145 0.08769196
v -0.01416105 0.00696247 0.08768210
v -0.01412330 0.00696459 0.08766150
v -0.01410342 0.00696559 0.08765174
v -0.01407478 0.00696691 0.08763894
v -0.01404337 0.00696819 0.08762650
v -0.01401690 0.00696913 0.08761726
v -0.01398136 0.00697023 0.08760656
v -0.01395740 0.00697086 0.08760042
v -0.01391785 0.00697172 0.08759208
v -0.01389663 0.00697208 0.08758852
v -0.01385333 0.00697263 0.08758317
v -0.01383501 0.00697278 0.08758166
v -0.01378827 0.00697296 0.08757988
v -0.01377323 0.00697296 0.08757993
v -0.01372317 0.00697272 0.08758226
v -0.01371163 0.00697262 0.08758327
v -0.01365853 0.00697190 0.08759027
v -0.01365041 0.00697176 0.08759169
v -0.01362204 0.00697118 0.08759735
v -0.01359482 0.00697051 0.08760386
v -0.01356219 0.00696956 0.08761311
v -0.01353254 0.00696855 0.08762293
v -0.01350378 0.00696744 0.08763379
v -0.01347214 0.00696605 0.08764733
v -0.01344739 0.00696483 0.08765917
v -0.01341409 0.00696301 0.08767688
v -0.01339317 0.00696174 0.08768915
v -0.01335883 0.00695945 0.08771136
v -0.01334166 0.00695820 0.08772349
v -0.01329311 0.00695422 0.08776200
v -0.01330676 0.00695541 0.08775050
v -0.01163408 0.00720498 0.07525349
v -0.01160000 0.00694596 0.07525349
v -0.01240563 0.00792893 0.07525349
v -0.01246808 0.00793927 0.07525349
v -0.01240491 0.00792879 0.07525349
v -0.01234121 0.00791390 0.07525349
v -0.01221867 0.00787227 0.07525349
v -0.01227792 0.00789463 0.07525349
v -0.01221606 0.00787119 0.07525349
v -0.01215771 0.00784466 0.07525349
v -0.01199239 0.00774172 0.07525349
v -0.01194121 0.00769973 0.07525349
v -0.01199021 0.00774005 0.07525349
v -0.01189293 0.00765444 0.07525349
v -0.01180750 0.00755687 0.07525349
v -0.01176893 0.00750305 0.07525349
v -0.01180589 0.00755477 0.07525349
v -0.01173400 0.00744680 0.07525349
v -0.01165328 0.00726835 0.07525349
v -0.01160874 0.00707751 0.07525349
v -0.01161911 0.00714048 0.07525349
v -0.01160219 0.00701162 0.07525349
v -0.01160843 0.00707516 0.07525349
v -0.02385293 0.00525133 0.07525349
v -0.02272631 0.00728375 0.07525349
v -0.02259904 0.00737661 0.07525349
v -0.02233154 0.00754207 0.07525349
v -0.02219248 0.00761424 0.07525349
v -0.02205067 0.00767919 0.07525349
v -0.02190672 0.00773683 0.07525349
v -0.02161477 0.00783021 0.07525349
v -0.02132124 0.00789493 0.07525349
v -0.02103034 0.00793227 0.07525349
v -0.02088705 0.00794125 0.07525349
v -0.02074474 0.00794634 0.07525349
v -0.02074727 0.00794628 0.07525349
v -0.02378643 0.00566322 0.07525349
v -0.02374966 0.00580161 0.07525349
v -0.02381576 0.00552507 0.07525349
v -0.02359337 0.00621293 0.07525349
v -0.02345048 0.00647845 0.07525349
v -0.02352577 0.00634694 0.07525349
v -0.02307583 0.00696844 0.07525349
v -0.02336762 0.00660691 0.07525349
v -0.02070247 0.00794656 0.07525349
v -0.02070179 0.00794657 0.07525349
v -0.02070061 0.00794657 0.07525349
v -0.02070150 0.00794657 0.07525349
v -0.02069921 0.00794657 0.07525349
v -0.02070032 0.00794657 0.07525349
v -0.02069893 0.00794657 0.07525349
v -0.02069757 0.00794658 0.07525349
v -0.02069734 0.00794658 0.07525349
v -0.02069553 0.00794658 0.07525349
v -0.02069571 0.00794658 0.07525349
v -0.02069363 0.00794659 0.07525349
v -0.02069353 0.00794659 0.07525349
v -0.02068892 0.00794659 0.07525349
v -0.02069132 0.00794659 0.07525349
v -0.02068881 0.00794659 0.07525349
v -0.02068610 0.00794660 0.07525349
v -0.02068635 0.00794660 0.07525349
v -0.02068397 0.00794660 0.07525349
v -0.02068321 0.00794660 0.07525349
v -0.02068017 0.00794660 0.07525349
v -0.02068110 0.00794660 0.07525349
v -0.02067809 0.00794661 0.07525349
v -0.02067699 0.00794661 0.07525349
v -0.02067500 0.00794661 0.07525349
v -0.02067372 0.00794661 0.07525349
v -0.01448954 0.00794577 0.07525349
v -0.01445969 0.00794577 0.07525349
v -0.01447770 0.00794577 0.07525349
v -0.01445223 0.00794577 0.07525349
v -0.01442829 0.00794576 0.07525349
v -0.01442200 0.00794576 0.07525349
v -0.01439570 0.00794574 0.07525349
v -0.01439081 0.00794574 0.07525349
v -0.01436229 0.00794573 0.07525349
v -0.01432841 0.00794571 0.07525349
v -0.01435894 0.00794573 0.07525349
v -0.01429427 0.00794568 0.07525349
v -0.01426214 0.00794565 0.07525349
v -0.01426069 0.00794565 0.07525349
v -0.01422754 0.00794562 0.07525349
v -0.01423212 0.00794563 0.07525349
v -0.01387824 0.00794519 0.07525349
v -0.02386334 0.00199514 0.07525349
v -0.02386334 0.00479176 0.07525349
v -0.02386333 0.00500910 0.07525349
v -0.01160214 0.00701104 0.07525349
v -0.01247469 0.00793988 0.07525349
v -0.01247526 0.00793992 0.07525349
v -0.01227856 0.00789485 0.07525349
v -0.01215838 0.00784499 0.07525349
v -0.01210004 0.00781376 0.07525349
v -0.01204443 0.00777909 0.07525349
v -0.01204390 0.00777873 0.07525349
v -0.01194065 0.00769925 0.07525349
v -0.01184776 0.00760605 0.07525349
v -0.01184816 0.00760652 0.07525349
v -0.01176853 0.00750247 0.07525349
v -0.01170313 0.00738890 0.07525349
v -0.01170287 0.00738836 0.07525349
v -0.01167568 0.00732799 0.07525349
v -0.01167664 0.00733032 0.07525349
v -0.01165307 0.00726774 0.07525349
v -0.01160855 0.00707633 0.07525349
v -0.01161921 0.00714106 0.07525349
v -0.02385305 0.00524848 0.07525349
v -0.02296519 0.00707929 0.07525349
v -0.02284853 0.00718453 0.07525349
v -0.02246726 0.00746280 0.07525349
v -0.02176123 0.00778715 0.07525349
v -0.02146793 0.00786609 0.07525349
v -0.02117521 0.00791692 0.07525349
v -0.02383785 0.00538762 0.07525349
v -0.02365321 0.00607700 0.07525349
v -0.02318001 0.00685243 0.07525349
v -0.02327738 0.00673175 0.07525349
v -0.02370529 0.00593971 0.07525349
v -0.01079217 0.00665806 0.09031424
v -0.01047525 0.00656854 0.09031424
v -0.01053374 0.00659387 0.09031424
v -0.01053298 0.00659358 0.09031424
v -0.01059386 0.00661543 0.09031424
v -0.01059141 0.00661466 0.09031424
v -0.01065284 0.00663255 0.09031424
v -0.01065317 0.00663263 0.09031424
v -0.01031366 0.00647279 0.09031424
v -0.01036509 0.00650782 0.09031424
v -0.01041912 0.00653987 0.09031424
v -0.01041863 0.00653959 0.09031424
v -0.01013182 0.00630205 0.09031424
v -0.01017346 0.00634917 0.09031424
v -0.01017296 0.00634866 0.09031424
v -0.01021802 0.00639363 0.09031424
v -0.01026373 0.00643398 0.09031424
v -0.01026386 0.00643409 0.09031424
v -0.01005853 0.00620159 0.09031424
v -0.01009331 0.00625252 0.09031424
v -0.01009355 0.00625286 0.09031424
v -0.00997386 0.00603753 0.09031424
v -0.00997333 0.00603625 0.09031424
v -0.00999842 0.00609332 0.09031424
v -0.00990019 0.00567775 0.09031424
v -0.00990018 0.00567761 0.09031424
v -0.00990321 0.00573885 0.09031424
v -0.00990998 0.00579999 0.09031424
v -0.00990992 0.00579965 0.09031424
v -0.00992034 0.00586011 0.09031424
v -0.01071543 0.00664647 0.09031424
v -0.01838167 0.00376655 0.09031424
v -0.01837531 0.00391627 0.09031424
v -0.01646599 0.00645022 0.09031424
v -0.01674604 0.00633046 0.09031424
v -0.01688224 0.00625990 0.09031424
v -0.01701511 0.00618235 0.09031424
v -0.01750238 0.00580658 0.09031424
v -0.01574758 0.00662576 0.09031424
v -0.01617956 0.00654134 0.09031424
v -0.01546380 0.00664927 0.09031424
v -0.01837145 0.00400182 0.09031424
v -0.01830622 0.00441063 0.09031424
v -0.01835664 0.00413724 0.09031424
v -0.01817567 0.00481998 0.09031424
v -0.01805089 0.00508637 0.09031424
v -0.01811707 0.00495419 0.09031424
v -0.01789610 0.00534244 0.09031424
v -0.01771254 0.00558386 0.09031424
v -0.01780780 0.00546525 0.09031424
v -0.01797719 0.00521597 0.09031424
v -0.01822669 0.00468430 0.09031424
v -0.01761061 0.00569780 0.09031424
v -0.00990000 0.00565783 0.09031424
v -0.01838167 0.00308694 0.09031424
v -0.01036608 0.00650842 0.09031424
v -0.01021646 0.00639219 0.09031424
v -0.01002694 0.00614860 0.09031424
v -0.01005899 0.00620228 0.09031424
v -0.00993443 0.00591993 0.09031424
v -0.00995218 0.00597890 0.09031424
v -0.00995230 0.00597925 0.09031424
v -0.00999835 0.00609318 0.09031424
v -0.00992028 0.00585981 0.09031424
v -0.01077785 0.00665621 0.09031424
v -0.01632329 0.00649934 0.09031424
v -0.01660710 0.00639392 0.09031424
v -0.01714410 0.00609798 0.09031424
v -0.01726865 0.00600703 0.09031424
v -0.01738824 0.00590979 0.09031424
v -0.01560497 0.00664064 0.09031424
v -0.01603536 0.00657632 0.09031424
v -0.01589120 0.00660439 0.09031424
v -0.01827017 0.00454767 0.09031424
v -0.01833498 0.00427366 0.09031424
v -0.00990000 0.00178179 0.08537500
v -0.01160000 0.00178179 0.07525349
v -0.02379288 0.00178179 0.07544707
v -0.01922364 0.00178179 0.08800096
v -0.01901778 0.00178179 0.08856655
v -0.02386333 0.00178179 0.07525349
v -0.00990000 0.00178179 0.09031424
v -0.01838167 0.00178179 0.09031424
f 408 522 519
f 6 1 105
f 408 519 409
f 407 105 413
f 413 105 1
f 413 1 6
f 6 7 413
f 413 8 412
f 413 7 8
f 6 39 2
f 39 38 2
f 38 59 73
f 93 88 487
f 93 90 88
f 95 94 362
f 90 93 95
f 49 345 48
f 48 69 68
f 68 49 48
f 47 69 48
f 431 46 47
f 52 347 51
f 347 52 348
f 348 52 53
f 496 521 524
f 87 358 357
f 344 44 79
f 36 340 341
f 341 429 36
f 4 7 6
f 8 7 4
f 4 9 8
f 3 9 4
f 60 59 38
f 324 9 3
f 412 8 324
f 8 9 324
f 351 434 56
f 56 57 351
f 351 57 435
f 364 99 98
f 98 440 364
f 102 46 363
f 363 46 431
f 103 440 98
f 103 100 102
f 97 99 94
f 360 438 90
f 360 95 362
f 90 95 360
f 86 358 87
f 50 66 51
f 100 494 479
f 431 47 432
f 48 345 432
f 432 47 48
f 477 476 66
f 53 52 64
f 55 434 350
f 350 54 55
f 56 434 55
f 55 54 62
f 349 348 53
f 349 54 350
f 53 54 349
f 410 45 430
f 43 45 410
f 44 45 43
f 410 409 43
f 520 521 43
f 43 496 473
f 521 496 43
f 43 519 520
f 43 409 519
f 344 79 437
f 82 357 359
f 87 357 82
f 467 495 5
f 35 428 340
f 340 36 35
f 425 30 339
f 30 427 339
f 31 30 425
f 6 2 302
f 506 4 442
f 482 442 76
f 76 75 38
f 12 328 414
f 199 391 390
f 436 352 59
f 436 60 353
f 59 60 436
f 62 507 481
f 58 73 59
f 59 352 58
f 58 352 435
f 435 57 58
f 3 325 323
f 323 324 3
f 40 356 354
f 40 38 39
f 40 60 38
f 40 354 353
f 353 60 40
f 362 94 361
f 94 99 361
f 99 364 361
f 440 103 439
f 102 363 439
f 439 103 102
f 92 97 94
f 94 95 92
f 92 95 93
f 100 103 101
f 101 103 98
f 101 494 100
f 487 88 488
f 358 86 441
f 90 438 91
f 88 90 91
f 438 441 91
f 91 441 86
f 84 86 87
f 49 68 67
f 67 50 49
f 66 50 67
f 67 68 478
f 478 477 67
f 67 477 66
f 345 49 346
f 49 50 346
f 478 68 509
f 509 68 69
f 69 510 509
f 100 479 71
f 71 479 511
f 102 100 71
f 71 46 102
f 66 476 65
f 65 64 52
f 51 66 65
f 65 52 51
f 508 65 476
f 64 65 508
f 63 507 62
f 62 54 63
f 63 54 53
f 53 64 63
f 42 43 473
f 83 82 359
f 359 437 83
f 83 437 79
f 80 82 83
f 332 22 419
f 334 20 421
f 19 420 421
f 421 20 19
f 21 20 334
f 21 334 419
f 419 22 21
f 335 420 19
f 343 428 34
f 428 35 34
f 34 342 343
f 411 342 34
f 501 28 502
f 426 31 425
f 422 25 338
f 338 25 24
f 24 423 338
f 32 423 24
f 336 337 26
f 26 422 336
f 25 422 26
f 482 76 74
f 38 73 74
f 74 76 38
f 442 4 217
f 328 12 327
f 6 105 104
f 77 57 56
f 96 101 98
f 98 99 96
f 99 97 96
f 97 491 96
f 97 92 489
f 489 491 97
f 494 101 490
f 101 96 490
f 490 96 491
f 486 84 493
f 89 91 86
f 86 84 89
f 88 91 89
f 89 84 486
f 486 488 89
f 89 488 88
f 85 84 87
f 87 82 85
f 85 82 80
f 85 80 515
f 515 493 85
f 85 493 84
f 433 346 50
f 51 347 433
f 433 50 51
f 70 71 511
f 511 510 70
f 70 510 69
f 69 47 70
f 70 47 46
f 46 71 70
f 507 63 475
f 64 508 475
f 475 63 64
f 515 80 484
f 78 79 44
f 411 34 33
f 322 411 33
f 5 322 33
f 468 466 33
f 33 34 468
f 468 34 470
f 470 34 35
f 37 28 501
f 37 36 429
f 429 321 37
f 321 28 37
f 30 464 503
f 29 502 28
f 29 427 30
f 29 321 427
f 29 28 321
f 31 426 424
f 424 423 32
f 32 31 424
f 32 24 499
f 27 26 337
f 337 335 27
f 27 335 19
f 27 19 454
f 4 506 472
f 3 4 472
f 13 414 326
f 13 12 414
f 444 12 447
f 482 74 512
f 73 480 512
f 512 74 73
f 11 327 12
f 329 327 11
f 11 10 329
f 330 10 18
f 416 330 18
f 17 416 18
f 329 10 415
f 415 10 330
f 23 15 450
f 23 332 333
f 22 332 23
f 333 331 23
f 331 15 23
f 16 15 417
f 417 416 16
f 16 416 17
f 417 15 418
f 418 15 331
f 443 18 10
f 452 18 443
f 62 481 61
f 61 77 56
f 56 55 61
f 61 55 62
f 514 77 513
f 513 61 481
f 77 61 513
f 72 77 514
f 514 480 72
f 72 480 73
f 73 58 72
f 72 58 57
f 57 77 72
f 492 489 92
f 492 93 487
f 492 92 93
f 516 78 485
f 41 78 44
f 44 43 41
f 41 485 78
f 43 42 41
f 81 83 79
f 79 78 81
f 81 78 516
f 80 83 81
f 516 484 81
f 81 484 80
f 454 19 456
f 19 20 456
f 36 505 469
f 471 37 501
f 460 24 25
f 460 499 24
f 32 499 465
f 38 4 282
f 282 283 38
f 215 282 4
f 283 282 215
f 14 472 449
f 3 472 14
f 14 325 3
f 326 325 14
f 14 13 326
f 38 278 281
f 281 278 4
f 280 275 4
f 38 275 280
f 221 222 442
f 4 214 213
f 273 214 274
f 38 273 274
f 75 244 245
f 459 23 450
f 450 15 451
f 15 16 451
f 445 443 10
f 10 11 445
f 210 107 211
f 205 189 207
f 207 186 209
f 202 205 203
f 151 104 105
f 105 152 151
f 151 152 39
f 6 104 110
f 132 130 115
f 483 41 474
f 485 41 483
f 21 498 455
f 462 27 454
f 4 320 319
f 319 215 4
f 306 4 6
f 316 317 4
f 318 320 4
f 4 317 318
f 299 2 38
f 286 319 320
f 448 446 13
f 216 4 38
f 38 281 216
f 216 281 4
f 4 278 279
f 279 280 4
f 279 278 38
f 38 280 279
f 272 273 38
f 38 271 272
f 272 214 273
f 272 271 214
f 270 214 269
f 214 271 269
f 38 270 269
f 269 271 38
f 442 217 218
f 218 221 442
f 217 221 218
f 222 221 223
f 223 245 244
f 221 245 223
f 442 222 223
f 38 274 277
f 277 274 214
f 231 230 442
f 442 229 231
f 231 229 230
f 234 235 442
f 442 233 234
f 442 230 232
f 232 233 442
f 230 233 232
f 75 241 242
f 228 229 442
f 230 229 228
f 228 241 230
f 198 199 390
f 106 212 177
f 191 202 199
f 191 205 202
f 191 189 205
f 390 186 187
f 187 189 390
f 186 207 187
f 187 207 189
f 105 106 171
f 171 169 105
f 200 199 201
f 199 202 201
f 208 207 209
f 125 126 39
f 39 124 125
f 39 120 121
f 122 121 120
f 39 121 122
f 131 132 39
f 39 130 131
f 131 130 132
f 39 152 153
f 153 154 39
f 153 152 105
f 105 154 153
f 155 355 39
f 39 154 155
f 365 355 155
f 156 365 155
f 105 156 155
f 155 154 105
f 119 120 39
f 132 115 113
f 118 115 130
f 118 122 120
f 130 122 118
f 120 119 118
f 118 119 39
f 504 463 31
f 308 309 4
f 297 304 299
f 2 299 300
f 300 304 302
f 299 304 300
f 285 286 38
f 215 319 285
f 319 286 285
f 313 314 4
f 251 213 75
f 75 250 251
f 4 213 220
f 213 251 220
f 220 251 250
f 38 75 268
f 268 270 38
f 268 214 270
f 75 213 252
f 276 277 214
f 4 275 276
f 276 214 4
f 276 275 38
f 38 277 276
f 238 233 230
f 226 242 241
f 241 228 226
f 442 225 226
f 243 244 75
f 75 242 243
f 242 226 243
f 458 457 22
f 17 453 497
f 181 212 211
f 185 107 209
f 209 186 185
f 185 186 390
f 212 181 179
f 179 181 180
f 175 174 106
f 106 177 175
f 193 191 199
f 390 189 188
f 189 191 188
f 169 171 170
f 106 174 173
f 173 171 106
f 205 207 206
f 204 203 205
f 127 122 130
f 39 126 127
f 127 128 39
f 129 130 39
f 39 128 129
f 129 127 130
f 128 127 129
f 141 110 104
f 39 111 112
f 112 113 39
f 111 113 112
f 114 115 39
f 39 113 114
f 114 113 115
f 117 118 39
f 115 118 117
f 26 461 500
f 4 306 307
f 307 308 4
f 306 304 307
f 307 297 308
f 304 297 307
f 295 311 310
f 309 308 310
f 4 309 310
f 310 311 4
f 6 302 303
f 303 304 6
f 302 304 303
f 305 306 6
f 6 304 305
f 305 304 306
f 298 299 38
f 38 297 298
f 298 297 299
f 301 302 2
f 2 300 301
f 301 300 302
f 314 290 315
f 315 290 316
f 4 314 315
f 315 316 4
f 314 313 292
f 317 316 289
f 316 290 289
f 289 290 38
f 283 215 284
f 215 285 284
f 38 283 284
f 284 285 38
f 4 311 312
f 312 313 4
f 311 313 312
f 219 217 4
f 4 220 219
f 219 220 217
f 247 221 217
f 217 248 247
f 247 248 75
f 217 220 249
f 249 248 217
f 249 220 250
f 249 250 75
f 75 248 249
f 213 254 253
f 253 252 213
f 253 254 75
f 75 252 253
f 236 234 233
f 233 238 236
f 235 234 236
f 236 76 442
f 442 235 236
f 230 241 239
f 239 238 230
f 75 238 239
f 227 228 442
f 442 226 227
f 227 226 228
f 224 223 244
f 244 243 224
f 224 243 226
f 224 226 225
f 224 225 442
f 442 223 224
f 182 183 390
f 390 181 182
f 107 183 182
f 211 107 182
f 182 181 211
f 184 183 107
f 107 185 184
f 390 183 184
f 184 185 390
f 178 177 212
f 212 179 178
f 176 175 177
f 197 198 390
f 199 198 197
f 197 193 199
f 390 191 192
f 192 193 390
f 191 193 192
f 190 191 390
f 390 188 190
f 190 188 191
f 105 169 168
f 105 168 165
f 165 168 166
f 161 160 105
f 123 127 126
f 122 127 123
f 126 125 123
f 123 125 124
f 123 124 39
f 39 122 123
f 144 143 104
f 39 143 144
f 104 143 142
f 142 141 104
f 142 143 39
f 39 141 142
f 39 115 116
f 116 117 39
f 115 117 116
f 308 297 296
f 296 310 308
f 295 310 296
f 38 295 296
f 296 297 38
f 291 290 314
f 314 292 291
f 38 290 291
f 291 292 38
f 294 295 38
f 294 311 295
f 294 313 311
f 288 318 317
f 317 289 288
f 288 289 38
f 246 245 221
f 221 247 246
f 75 245 246
f 246 247 75
f 260 213 214
f 214 261 260
f 260 261 75
f 267 268 75
f 214 268 267
f 76 236 237
f 237 236 238
f 75 76 237
f 237 238 75
f 240 241 75
f 75 239 240
f 240 239 241
f 193 197 196
f 390 195 196
f 196 197 390
f 171 173 172
f 164 163 105
f 105 165 164
f 105 163 162
f 162 161 105
f 157 156 105
f 105 158 157
f 104 146 145
f 145 144 104
f 145 146 39
f 39 144 145
f 147 148 39
f 147 146 104
f 104 148 147
f 104 151 150
f 150 148 104
f 150 151 39
f 39 148 150
f 110 138 108
f 6 110 108
f 108 39 6
f 110 141 140
f 140 141 39
f 137 138 39
f 111 108 137
f 137 108 138
f 38 292 293
f 293 294 38
f 293 292 313
f 313 294 293
f 318 288 287
f 320 318 287
f 287 286 320
f 38 286 287
f 287 288 38
f 259 257 213
f 213 260 259
f 75 257 259
f 259 260 75
f 256 257 75
f 75 258 256
f 213 257 256
f 256 258 213
f 255 254 213
f 213 258 255
f 75 254 255
f 255 258 75
f 214 265 264
f 264 263 214
f 264 265 75
f 75 263 264
f 75 261 262
f 262 263 75
f 262 261 214
f 214 263 262
f 75 265 266
f 266 267 75
f 266 265 214
f 214 267 266
f 194 196 195
f 193 196 194
f 194 195 390
f 390 193 194
f 166 168 167
f 105 160 159
f 159 158 105
f 39 146 149
f 149 147 39
f 146 147 149
f 109 111 39
f 39 108 109
f 109 108 111
f 139 138 110
f 110 140 139
f 39 138 139
f 139 140 39
f 135 113 111
f 111 137 135
f 132 113 134
f 113 135 134
f 134 135 39
f 136 137 39
f 39 135 136
f 136 135 137
f 39 132 133
f 133 134 39
f 132 134 133
f 518 322 517
f 517 322 5
f 521 522 518
f 521 519 522
f 521 523 524
f 518 517 521
f 521 517 523
f 520 519 521
f 523 517 495
f 495 517 5
f 430 44 344
f 430 45 44
f 407 405 106
f 106 105 407
f 355 40 39
f 356 40 355
f 33 467 5
f 466 467 33
f 29 503 502
f 30 503 29
f 406 106 405
f 406 212 106
f 406 404 211
f 211 212 406
f 41 473 474
f 41 42 473
f 469 35 36
f 469 470 35
f 471 505 36
f 36 37 471
f 12 13 446
f 446 447 12
f 445 12 444
f 445 11 12
f 393 199 200
f 391 199 393
f 400 107 402
f 209 107 400
f 404 403 210
f 211 404 210
f 210 403 402
f 402 107 210
f 20 21 455
f 455 456 20
f 463 464 30
f 30 31 463
f 448 14 449
f 13 14 448
f 457 21 22
f 457 498 21
f 17 18 453
f 453 18 452
f 208 400 401
f 209 400 208
f 401 399 208
f 208 399 207
f 395 394 202
f 202 203 395
f 26 27 461
f 27 462 461
f 504 31 32
f 32 465 504
f 22 23 458
f 23 459 458
f 497 16 17
f 497 451 16
f 202 394 392
f 392 201 202
f 392 393 200
f 200 201 392
f 524 523 500
f 500 479 494
f 523 495 500
f 500 481 507
f 500 442 482
f 500 506 442
f 500 466 468
f 515 484 500
f 482 512 500
f 474 473 500
f 500 496 524
f 500 503 464
f 500 493 515
f 487 488 500
f 478 509 500
f 473 496 500
f 500 477 478
f 495 467 500
f 500 492 487
f 444 447 500
f 494 490 500
f 500 510 511
f 511 479 500
f 476 477 500
f 500 467 466
f 500 445 444
f 468 470 500
f 500 472 506
f 500 480 514
f 450 451 500
f 514 513 500
f 500 488 486
f 500 509 510
f 500 508 476
f 507 475 500
f 500 469 505
f 501 502 500
f 500 471 501
f 500 459 450
f 491 489 500
f 500 490 491
f 486 493 500
f 500 475 508
f 500 484 516
f 464 463 500
f 454 456 500
f 502 503 500
f 500 455 498
f 449 472 500
f 500 462 454
f 500 512 480
f 452 443 500
f 500 513 481
f 489 492 500
f 516 485 500
f 500 483 474
f 470 469 500
f 505 471 500
f 499 460 500
f 500 465 499
f 447 446 500
f 500 448 449
f 498 457 500
f 443 445 500
f 485 483 500
f 456 455 500
f 500 453 452
f 451 497 500
f 446 448 500
f 500 504 465
f 500 458 459
f 500 461 462
f 463 504 500
f 457 458 500
f 500 497 453
f 25 26 500
f 500 460 25
f 378 379 169
f 169 170 378
f 378 170 171
f 171 380 378
f 397 205 398
f 205 206 398
f 207 399 398
f 398 206 207
f 396 205 397
f 396 204 205
f 396 395 203
f 203 204 396
f 174 175 383
f 383 175 384
f 383 381 173
f 383 173 174
f 388 178 179
f 388 387 178
f 178 387 385
f 177 178 385
f 382 380 171
f 171 172 382
f 173 381 382
f 382 172 173
f 169 379 377
f 377 168 169
f 167 377 376
f 168 377 167
f 366 365 156
f 156 157 366
f 158 368 366
f 366 157 158
f 389 181 390
f 180 181 389
f 389 388 179
f 389 179 180
f 384 175 386
f 175 176 386
f 177 385 386
f 386 176 177
f 374 167 376
f 166 167 374
f 374 165 166
f 374 375 165
f 367 160 370
f 367 159 160
f 367 368 158
f 158 159 367
f 371 162 163
f 163 372 371
f 165 375 373
f 373 164 165
f 373 372 163
f 163 164 373
f 369 522 408
f 356 355 369
f 425 339 369
f 369 322 518
f 369 428 343
f 369 411 322
f 369 400 402
f 518 522 369
f 369 351 435
f 358 441 369
f 369 321 429
f 369 323 325
f 343 342 369
f 369 363 431
f 369 349 350
f 369 426 425
f 369 429 341
f 341 340 369
f 369 342 411
f 369 357 358
f 369 430 344
f 369 413 412
f 369 422 338
f 408 409 369
f 340 428 369
f 435 352 369
f 412 324 369
f 390 391 369
f 369 360 362
f 369 409 410
f 347 348 369
f 419 334 369
f 427 321 369
f 369 405 407
f 407 413 369
f 369 325 326
f 326 414 369
f 350 434 369
f 353 354 369
f 369 406 405
f 440 439 369
f 431 432 369
f 359 357 369
f 344 437 369
f 329 415 369
f 423 424 369
f 369 421 420
f 338 423 369
f 369 327 329
f 369 436 353
f 414 328 369
f 434 351 369
f 354 356 369
f 369 364 440
f 362 361 369
f 438 360 369
f 369 432 345
f 348 349 369
f 410 430 369
f 369 437 359
f 369 416 417
f 369 332 419
f 369 337 336
f 369 339 427
f 420 335 369
f 417 418 369
f 391 393 369
f 352 436 369
f 324 323 369
f 402 403 369
f 369 361 364
f 369 439 363
f 369 441 438
f 345 346 369
f 369 330 416
f 333 332 369
f 369 331 333
f 334 421 369
f 369 335 337
f 369 433 347
f 336 422 369
f 328 327 369
f 369 403 404
f 369 355 365
f 346 433 369
f 369 424 426
f 369 415 330
f 369 418 331
f 369 396 397
f 404 406 369
f 369 392 394
f 401 400 369
f 397 398 369
f 369 399 401
f 394 395 369
f 393 392 369
f 369 398 399
f 395 396 369
f 370 160 369
f 160 161 369
f 162 371 369
f 161 162 369

