# https://github.com/mikedh/trimesh
v 0.02000000 -0.02420680 0.00921117
v 0.02000000 -0.02421821 0.00894971
v 0.01316711 -0.02421821 0.00894970
v -0.01070979 -0.02421821 0.00894971
v -0.01070979 -0.02421006 0.00872867
v 0.02000000 -0.02420680 0.00868824
v -0.01070979 -0.02420703 0.00869084
v -0.01070979 -0.02418136 0.00848089
v 0.02000000 -0.02417354 0.00843392
v -0.01070979 -0.02417354 0.00843392
v 0.02000000 -0.02417264 0.00842876
v -0.01070979 -0.02413217 0.00823635
v 0.02000000 -0.02411802 0.00818084
v -0.01070979 -0.02411801 0.00818084
v 0.02000000 -0.02411599 0.00817325
v -0.01070979 -0.02406284 0.00799675
v 0.02000000 -0.02404086 0.00793349
v -0.01070979 -0.02404086 0.00793349
v 0.02000000 -0.02403729 0.00792365
v -0.01070979 -0.02397384 0.00776373
v 0.02000000 -0.02394264 0.00769372
v -0.01070979 -0.02394264 0.00769372
v 0.02000000 -0.02393714 0.00768185
v -0.01070979 -0.02386579 0.00753891
v 0.02000000 -0.02382411 0.00746333
v -0.01070979 -0.02382411 0.00746333
v 0.02000000 -0.02381629 0.00744971
v -0.01070979 -0.02373944 0.00732384
v 0.02000000 -0.02368614 0.00724402
v -0.01070979 -0.02368614 0.00724402
v 0.02000000 -0.02367567 0.00722898
v -0.01070979 -0.02359566 0.00712001
v 0.02000000 -0.02352975 0.00703743
v -0.01070979 -0.02352975 0.00703743
v 0.02000000 -0.02351635 0.00702134
v -0.01070979 -0.02343544 0.00692883
v 0.02000000 -0.02335613 0.00684511
v -0.01070979 -0.02335613 0.00684511
v 0.02000000 -0.02333953 0.00682839
v 0.02000000 -0.02316656 0.00666849
v -0.01070979 -0.02325989 0.00675163
v -0.01070979 -0.02316656 0.00666849
v 0.02000000 -0.02314658 0.00665157
v 0.02000000 -0.02296245 0.00650888
v -0.01070979 -0.02307023 0.00658961
v -0.01070979 -0.02296245 0.00650888
v 0.02000000 -0.02293894 0.00649225
v 0.02000000 -0.02274534 0.00636748
v -0.01070979 -0.02286777 0.00644392
v -0.01070979 -0.02274534 0.00636748
v 0.02000000 -0.02271822 0.00635163
v -0.01341233 -0.02374791 0.00894970
v -0.01275443 -0.02395252 0.00894970
v -0.01139813 -0.02418855 0.00894970
v -0.01208137 -0.02409976 0.00894970
v -0.01073245 -0.02421818 0.01358432
v -0.01076988 -0.02421799 0.01375394
v -0.01079246 -0.02421779 0.01392617
v -0.01080000 -0.02421771 0.01409971
v -0.01079246 -0.02421779 0.01427324
v -0.01076988 -0.02421799 0.01444548
v -0.01073245 -0.02421818 0.01461510
v -0.03520000 -0.01243197 0.00894970
v -0.03519622 -0.01260829 0.00894970
v -0.03518438 -0.01279034 0.00894970
v -0.03517785 -0.01285851 0.00894970
v -0.03514170 -0.01312233 0.00894970
v -0.03498264 -0.01374779 0.00894970
v -0.03504228 -0.01355844 0.00894970
v -0.03507370 -0.01344261 0.00894970
v -0.03510253 -0.01332189 0.00894970
v -0.03512650 -0.01320617 0.00894970
v -0.03474047 -0.01430491 0.00894970
v -0.03481174 -0.01416456 0.00894970
v -0.03487062 -0.01403609 0.00894970
v -0.03469932 -0.01437972 0.00894970
v -0.03459499 -0.01455271 0.00894970
v -0.03454681 -0.01462569 0.00894970
v -0.03448396 -0.01471523 0.00894970
v -0.03443449 -0.01478178 0.00894970
v -0.03438538 -0.01484458 0.00894970
v -0.03421281 -0.01504329 0.00894970
v -0.03427174 -0.01497900 0.00894970
v -0.03365003 -0.01551498 0.00894970
v -0.03377163 -0.01543173 0.00894970
v -0.03384318 -0.01537840 0.00894970
v -0.03390551 -0.01532918 0.00894970
v -0.03403128 -0.01522136 0.00894970
v -0.03325172 -0.01573018 0.00894970
v -0.03345273 -0.01563196 0.00894970
v -0.03333826 -0.01569035 0.00894970
v -0.03334406 -0.01399350 0.00644897
v -0.03339435 -0.01392485 0.00644662
v -0.03330358 -0.01385900 0.00637633
v -0.03352922 -0.01414433 0.00662426
v -0.03355525 -0.01404156 0.00658994
v -0.03350222 -0.01400310 0.00653984
v -0.03334838 -0.01460114 0.00680646
v -0.03324810 -0.01467245 0.00680436
v -0.03330769 -0.01475938 0.00691299
v -0.03341236 -0.01468424 0.00691496
v -0.03336415 -0.01484181 0.00702676
v -0.03448085 -0.01471298 0.00880258
v -0.03390341 -0.01532689 0.00880318
v -0.03437860 -0.01484714 0.00880277
v -0.03447757 -0.01471060 0.00873852
v -0.03437015 -0.01483964 0.00865617
v -0.03435450 -0.01462132 0.00799862
v -0.03424374 -0.01473288 0.00793976
v -0.03427986 -0.01476311 0.00807974
v -0.03447162 -0.01470629 0.00865596
v -0.03446560 -0.01470191 0.00859111
v -0.03435594 -0.01482738 0.00851024
v -0.03445413 -0.01469360 0.00849238
v -0.03433608 -0.01481047 0.00836531
v -0.03443531 -0.01467995 0.00836545
v -0.03431068 -0.01478901 0.00822170
v -0.03441308 -0.01466382 0.00824462
v -0.03436946 -0.01463218 0.00805470
v -0.03426949 -0.01497620 0.00880292
v -0.03426161 -0.01496810 0.00865634
v -0.03424819 -0.01495483 0.00851032
v -0.03422935 -0.01493651 0.00836519
v -0.03420518 -0.01491325 0.00822130
v -0.03417582 -0.01488517 0.00807899
v -0.03414135 -0.01485241 0.00793860
v -0.03410190 -0.01481507 0.00780046
v -0.03420243 -0.01469841 0.00780209
v -0.03405757 -0.01477327 0.00766493
v -0.03415604 -0.01465982 0.00766705
v -0.03400846 -0.01472715 0.00753234
v -0.03410470 -0.01461721 0.00753497
v -0.03395469 -0.01467682 0.00740303
v -0.03404851 -0.01457069 0.00740618
v -0.03389637 -0.01462239 0.00727735
v -0.03398759 -0.01452036 0.00728100
v -0.03383361 -0.01456400 0.00715563
v -0.03392206 -0.01446633 0.00715977
v -0.03376650 -0.01450175 0.00703822
v -0.03385203 -0.01440870 0.00704281
v -0.03377762 -0.01434758 0.00693046
v -0.03383857 -0.01424707 0.00691632
v -0.03377173 -0.01419859 0.00682925
v -0.03402284 -0.01438074 0.00719872
v -0.03396570 -0.01433930 0.00710356
v -0.03393037 -0.01431367 0.00704838
v -0.03433818 -0.01460949 0.00794125
v -0.03431836 -0.01459511 0.00787601
v -0.03427903 -0.01456658 0.00775808
v -0.03424649 -0.01454298 0.00766973
v -0.03418791 -0.01450048 0.00752666
v -0.03410946 -0.01444358 0.00735940
v -0.03408282 -0.01442425 0.00730762
v -0.03348411 -0.01561038 0.00880328
v -0.03362936 -0.01552431 0.00880326
v -0.03347697 -0.01560095 0.00865673
v -0.03362232 -0.01551508 0.00865670
v -0.03346620 -0.01558441 0.00851043
v -0.03361126 -0.01549896 0.00851040
v -0.03345188 -0.01556094 0.00836475
v -0.03359627 -0.01547612 0.00836473
v -0.03343410 -0.01553071 0.00822008
v -0.03357745 -0.01544673 0.00822007
v -0.03341295 -0.01549389 0.00807678
v -0.03355489 -0.01541095 0.00807680
v -0.03338852 -0.01545064 0.00793524
v -0.03352867 -0.01536896 0.00793529
v -0.03336089 -0.01540115 0.00779583
v -0.03349889 -0.01532093 0.00779592
v -0.03333016 -0.01534558 0.00765893
v -0.03346565 -0.01526702 0.00765906
v -0.03329642 -0.01528409 0.00752492
v -0.03342904 -0.01520739 0.00752510
v -0.03325974 -0.01521688 0.00739418
v -0.03338914 -0.01514223 0.00739440
v -0.03322022 -0.01514409 0.00726707
v -0.03334605 -0.01507169 0.00726734
v -0.03317795 -0.01506591 0.00714399
v -0.03329987 -0.01499594 0.00714431
v -0.03313301 -0.01498251 0.00702531
v -0.03325067 -0.01491516 0.00702567
v -0.03308549 -0.01489405 0.00691140
v -0.03319857 -0.01482951 0.00691180
v -0.03303548 -0.01480071 0.00680264
v -0.03314364 -0.01473916 0.00680308
v -0.03308598 -0.01464428 0.00669989
v -0.03318547 -0.01458118 0.00670123
v -0.03311989 -0.01448573 0.00660398
v -0.03321053 -0.01442268 0.00660628
v -0.03313687 -0.01432767 0.00651531
v -0.03321864 -0.01426623 0.00651855
v -0.03313706 -0.01417280 0.00643402
v -0.03287142 -0.01449314 0.00651105
v -0.03305148 -0.01438631 0.00651298
v -0.03281254 -0.01438238 0.00642652
v -0.03298055 -0.01428335 0.00642846
v -0.03275204 -0.01426846 0.00634870
v -0.03290751 -0.01417749 0.00635061
v -0.03269029 -0.01415206 0.00627778
v -0.03283279 -0.01406931 0.00627961
v -0.03262763 -0.01403386 0.00621392
v -0.03275680 -0.01395944 0.00621562
v -0.03256435 -0.01391445 0.00615726
v -0.03267990 -0.01384841 0.00615877
v -0.03260232 -0.01373654 0.00610898
v -0.03269914 -0.01367484 0.00611259
v -0.03403167 -0.01521667 0.00880312
v -0.03415377 -0.01509957 0.00880303
v -0.03402446 -0.01520791 0.00865655
v -0.03414629 -0.01509107 0.00865646
v -0.03401225 -0.01519318 0.00851037
v -0.03413354 -0.01507700 0.00851036
v -0.03399514 -0.01517265 0.00836494
v -0.03411561 -0.01505748 0.00836506
v -0.03397323 -0.01514645 0.00822061
v -0.03409260 -0.01503264 0.00822094
v -0.03394661 -0.01511472 0.00807775
v -0.03406463 -0.01500264 0.00807832
v -0.03391539 -0.01507762 0.00793672
v -0.03403179 -0.01496759 0.00793758
v -0.03387967 -0.01503529 0.00779788
v -0.03399419 -0.01492763 0.00779906
v -0.03383955 -0.01498788 0.00766160
v -0.03395194 -0.01488290 0.00766311
v -0.03379514 -0.01493553 0.00752822
v -0.03390514 -0.01483352 0.00753009
v -0.03374653 -0.01487839 0.00739812
v -0.03385389 -0.01477965 0.00740034
v -0.03369381 -0.01481660 0.00727166
v -0.03379830 -0.01472139 0.00727423
v -0.03363711 -0.01475031 0.00714919
v -0.03373848 -0.01465891 0.00715210
v -0.03357651 -0.01467966 0.00703108
v -0.03367452 -0.01459231 0.00703431
v -0.03360653 -0.01452175 0.00692120
v -0.03369518 -0.01443578 0.00692545
v -0.03361973 -0.01436620 0.00681768
v -0.03369894 -0.01428307 0.00682303
v -0.03361610 -0.01421529 0.00672085
v -0.03370206 -0.01414806 0.00674559
v -0.03368598 -0.01413639 0.00672723
v -0.03361377 -0.01408401 0.00664886
v -0.03389636 -0.01531795 0.00865662
v -0.03388460 -0.01530270 0.00851038
v -0.03386824 -0.01528130 0.00836483
v -0.03384738 -0.01525390 0.00822035
v -0.03382210 -0.01522066 0.00807730
v -0.03379251 -0.01518173 0.00793604
v -0.03375871 -0.01513727 0.00779696
v -0.03372079 -0.01508743 0.00766041
v -0.03367885 -0.01503238 0.00752676
v -0.03363300 -0.01497226 0.00739638
v -0.03358332 -0.01490723 0.00726965
v -0.03352993 -0.01483745 0.00714692
v -0.03347290 -0.01476307 0.00702857
v -0.03351211 -0.01460481 0.00691770
v -0.03353462 -0.01444736 0.00681313
v -0.03354028 -0.01429313 0.00671523
v -0.03328107 -0.01451390 0.00670344
v -0.03337235 -0.01444305 0.00670652
v -0.03329718 -0.01435644 0.00660946
v -0.03337944 -0.01428759 0.00661352
v -0.03329641 -0.01420251 0.00652267
v -0.03336980 -0.01413703 0.00652768
v -0.03327923 -0.01405443 0.00644312
v -0.03318565 -0.01396929 0.00636492
v -0.03308949 -0.01388199 0.00629322
v -0.03376923 -0.01542963 0.00880323
v -0.03376223 -0.01542055 0.00865666
v -0.03375085 -0.01540485 0.00851038
v -0.03373519 -0.01538270 0.00836476
v -0.03371534 -0.01535424 0.00822016
v -0.03369141 -0.01531966 0.00807697
v -0.03366349 -0.01527910 0.00793556
v -0.03363166 -0.01523274 0.00779630
v -0.03359603 -0.01518074 0.00765956
v -0.03355669 -0.01512326 0.00752571
v -0.03351373 -0.01506046 0.00739514
v -0.03346726 -0.01499251 0.00726820
v -0.03341737 -0.01491957 0.00714529
v -0.03344402 -0.01452589 0.00680939
v -0.03345889 -0.01436926 0.00671045
v -0.03345693 -0.01421670 0.00661846
v -0.03343844 -0.01407032 0.00653356
v -0.03349958 -0.01400117 0.00653742
v -0.03305291 -0.01407666 0.00635605
v -0.03296662 -0.01397833 0.00628479
v -0.03287866 -0.01387831 0.00622041
v -0.03299119 -0.01379293 0.00622818
v -0.03278942 -0.01377705 0.00616302
v -0.03289113 -0.01370244 0.00616991
v -0.03278957 -0.01361076 0.00611843
v -0.03284629 -0.01352729 0.00611462
v -0.03275919 -0.01346411 0.00607982
v -0.03260802 -0.01357192 0.00606906
v -0.03268673 -0.01351811 0.00607377
v -0.03265098 -0.01338561 0.00604259
v -0.03322093 -0.01379905 0.00631817
v -0.03312463 -0.01372919 0.00625687
v -0.03303729 -0.01366584 0.00620688
v -0.03298352 -0.01362684 0.00617861
v -0.03250062 -0.01379417 0.00610769
v -0.03249380 -0.01409979 0.00621537
v -0.03254218 -0.01422452 0.00627935
v -0.03258994 -0.01434725 0.00635037
v -0.03263683 -0.01446726 0.00642824
v -0.03268261 -0.01458385 0.00651279
v -0.03282857 -0.01465059 0.00660251
v -0.03272701 -0.01469633 0.00660383
v -0.03276986 -0.01480416 0.00670111
v -0.03302568 -0.01454503 0.00660259
v -0.03292835 -0.01460007 0.00660210
v -0.03298308 -0.01470266 0.00669942
v -0.03287746 -0.01475605 0.00669983
v -0.03292437 -0.01485680 0.00680304
v -0.03281107 -0.01490716 0.00680428
v -0.03296922 -0.01495269 0.00691178
v -0.03285055 -0.01500514 0.00691295
v -0.03301192 -0.01504353 0.00702567
v -0.03288823 -0.01509795 0.00702676
v -0.03305240 -0.01512916 0.00714433
v -0.03292404 -0.01518540 0.00714532
v -0.03309056 -0.01520940 0.00726739
v -0.03295790 -0.01526733 0.00726828
v -0.03312632 -0.01528408 0.00739446
v -0.03298973 -0.01534356 0.00739524
v -0.03315961 -0.01535304 0.00752517
v -0.03301946 -0.01541394 0.00752584
v -0.03319034 -0.01541609 0.00765915
v -0.03304700 -0.01547828 0.00765971
v -0.03321842 -0.01547307 0.00779602
v -0.03307229 -0.01553642 0.00779647
v -0.03324378 -0.01552381 0.00793539
v -0.03309524 -0.01558818 0.00793574
v -0.03326633 -0.01556813 0.00807690
v -0.03311578 -0.01563340 0.00807716
v -0.03328598 -0.01560586 0.00822017
v -0.03313383 -0.01567190 0.00822034
v -0.03330266 -0.01563684 0.00836482
v -0.03314932 -0.01570352 0.00836492
v -0.03331628 -0.01566089 0.00851048
v -0.03316217 -0.01572808 0.00851052
v -0.03332676 -0.01567783 0.00865676
v -0.03317230 -0.01574542 0.00865677
v -0.03333401 -0.01568751 0.00880329
v -0.03317964 -0.01575536 0.00880329
v -0.01139743 -0.02418042 0.00872867
v -0.01139496 -0.02415183 0.00848089
v -0.01139073 -0.02410282 0.00823635
v -0.01138476 -0.02403374 0.00799675
v -0.01137711 -0.02394507 0.00776373
v -0.01136781 -0.02383743 0.00753891
v -0.01135694 -0.02371154 0.00732384
v -0.01134457 -0.02356830 0.00712001
v -0.01133078 -0.02340867 0.00692883
v -0.01131568 -0.02323378 0.00675163
v -0.01129936 -0.02304482 0.00658961
v -0.01128194 -0.02284311 0.00644392
v -0.01126353 -0.02263004 0.00631554
v -0.01207997 -0.02409173 0.00872867
v -0.01207505 -0.02406345 0.00848089
v -0.01206662 -0.02401499 0.00823635
v -0.01205473 -0.02394668 0.00799675
v -0.01203947 -0.02385900 0.00776373
v -0.01202095 -0.02375255 0.00753891
v -0.01199928 -0.02362807 0.00732384
v -0.01197463 -0.02348642 0.00712001
v -0.01194716 -0.02332857 0.00692883
v -0.01191707 -0.02315563 0.00675163
v -0.01188455 -0.02296878 0.00658961
v -0.01184984 -0.02276931 0.00644392
v -0.01181317 -0.02255861 0.00631554
v -0.01275235 -0.02394463 0.00872867
v -0.01274501 -0.02391689 0.00848089
v -0.01273244 -0.02386933 0.00823635
v -0.01271472 -0.02380230 0.00799675
v -0.01269197 -0.02371626 0.00776373
v -0.01266436 -0.02361180 0.00753891
v -0.01263207 -0.02348964 0.00732384
v -0.01259532 -0.02335064 0.00712001
v -0.01255437 -0.02319574 0.00692883
v -0.01250950 -0.02302602 0.00675163
v -0.01246103 -0.02284266 0.00658961
v -0.01240928 -0.02264692 0.00644392
v -0.01235462 -0.02244016 0.00631554
v -0.01340957 -0.02374023 0.00872867
v -0.01339988 -0.02371322 0.00848089
v -0.01338326 -0.02366692 0.00823635
v -0.01335984 -0.02360166 0.00799675
v -0.01332977 -0.02351790 0.00776373
v -0.01329327 -0.02341620 0.00753891
v -0.01325059 -0.02329728 0.00732384
v -0.01320202 -0.02316195 0.00712001
v -0.01314789 -0.02301115 0.00692883
v -0.01308859 -0.02284593 0.00675163
v -0.01302452 -0.02266742 0.00658961
v -0.01295613 -0.02247685 0.00644392
v -0.01288388 -0.02227556 0.00631554
v -0.01280828 -0.02206492 0.00620538
v -0.03519991 -0.01243197 0.00892614
v -0.03519440 -0.01243197 0.00876644
v -0.03518669 -0.01243197 0.00866738
v -0.03517847 -0.01243197 0.00859095
v -0.03515119 -0.01243197 0.00841072
v -0.03509367 -0.01243197 0.00815808
v -0.03506294 -0.01243197 0.00805329
v -0.03501457 -0.01243197 0.00791135
v -0.03491448 -0.01243197 0.00767237
v -0.03483962 -0.01243197 0.00752408
v -0.03479414 -0.01243197 0.00744291
v -0.03474196 -0.01243197 0.00735645
v -0.03465445 -0.01243197 0.00722469
v -0.03449645 -0.01243197 0.00701934
v -0.03439188 -0.01243197 0.00690137
v -0.03432132 -0.01243197 0.00682838
v -0.03426202 -0.01243197 0.00677070
v -0.03413037 -0.01243197 0.00665325
v -0.03392502 -0.01243197 0.00649526
v -0.03383799 -0.01243197 0.00643634
v -0.03370680 -0.01243197 0.00635556
v -0.03347734 -0.01243197 0.00623522
v -0.03335077 -0.01243197 0.00617919
v -0.03323835 -0.01243197 0.00613513
v -0.03299162 -0.01243197 0.00605603
v -0.03475377 -0.01426721 0.00876646
v -0.03480668 -0.01416213 0.00876646
v -0.03479159 -0.01415487 0.00859111
v -0.03467968 -0.01436862 0.00859111
v -0.03476639 -0.01414275 0.00841339
v -0.03514154 -0.01309111 0.00876646
v -0.03517208 -0.01285792 0.00876646
v -0.03515542 -0.01285619 0.00859111
v -0.03437252 -0.01277482 0.00690282
v -0.03438726 -0.01257365 0.00690282
v -0.03425844 -0.01256813 0.00677141
v -0.03510614 -0.01260443 0.00823424
v -0.03473399 -0.01258849 0.00735940
v -0.03462707 -0.01258392 0.00719872
v -0.03412218 -0.01256229 0.00664886
v -0.03398123 -0.01255625 0.00653742
v -0.03383551 -0.01255001 0.00643625
v -0.03368117 -0.01254340 0.00634252
v -0.03351844 -0.01253643 0.00625687
v -0.03317174 -0.01252158 0.00611353
v -0.03517356 -0.01260732 0.00859111
v -0.03514562 -0.01260612 0.00841339
v -0.03519028 -0.01260803 0.00876646
v -0.03518304 -0.01273280 0.00876646
v -0.03508114 -0.01331713 0.00859111
v -0.03512501 -0.01308843 0.00859111
v -0.03509740 -0.01308395 0.00841339
v -0.03512760 -0.01285330 0.00841339
v -0.03508829 -0.01284921 0.00823424
v -0.03505490 -0.01260224 0.00805470
v -0.03496874 -0.01377030 0.00876646
v -0.03503693 -0.01355690 0.00876646
v -0.03502084 -0.01355228 0.00859111
v -0.03505383 -0.01331106 0.00841339
v -0.03505838 -0.01307761 0.00823424
v -0.03503727 -0.01284391 0.00805470
v -0.03499183 -0.01259954 0.00787601
v -0.03506941 -0.01343787 0.00876646
v -0.03509749 -0.01332076 0.00876646
v -0.03512145 -0.01320522 0.00876646
v -0.03471773 -0.01281071 0.00735940
v -0.03481424 -0.01282074 0.00752684
v -0.03478635 -0.01303346 0.00752684
v -0.03487149 -0.01304728 0.00769955
v -0.03483041 -0.01326142 0.00769955
v -0.03490350 -0.01327766 0.00787601
v -0.03484597 -0.01350203 0.00787601
v -0.03490666 -0.01351947 0.00805470
v -0.03484084 -0.01372549 0.00805470
v -0.03488924 -0.01374245 0.00823424
v -0.03481776 -0.01393109 0.00823424
v -0.03485430 -0.01394614 0.00841339
v -0.03483091 -0.01259264 0.00752684
v -0.03490001 -0.01282965 0.00769955
v -0.03494539 -0.01305928 0.00787601
v -0.03496515 -0.01329136 0.00805470
v -0.03495596 -0.01353364 0.00823424
v -0.03492654 -0.01375552 0.00841339
v -0.03488017 -0.01395679 0.00859111
v -0.03485373 -0.01406098 0.00876646
v -0.03489565 -0.01396316 0.00876646
v -0.03495294 -0.01376477 0.00859111
v -0.03499395 -0.01354455 0.00841339
v -0.03501524 -0.01330249 0.00823424
v -0.03500773 -0.01306940 0.00805470
v -0.03497447 -0.01283739 0.00787601
v -0.03491705 -0.01259633 0.00769955
v -0.03265562 -0.01312687 0.00601288
v -0.03261632 -0.01320200 0.00601288
v -0.03277729 -0.01329305 0.00605753
v -0.03458306 -0.01452982 0.00859111
v -0.03465533 -0.01435486 0.00841339
v -0.03473077 -0.01412562 0.00823424
v -0.03477032 -0.01391156 0.00805470
v -0.03478125 -0.01370461 0.00787601
v -0.03477402 -0.01348135 0.00769955
v -0.03474621 -0.01324271 0.00752684
v -0.03469056 -0.01301791 0.00735940
v -0.03461128 -0.01279964 0.00719872
v -0.03451114 -0.01257895 0.00704614
v -0.03289308 -0.01345297 0.00611353
v -0.03273996 -0.01335535 0.00605753
v -0.03258400 -0.01325592 0.00601288
v -0.03271602 -0.01298066 0.00601288
v -0.03268819 -0.01305398 0.00601288
v -0.03285920 -0.01312444 0.00605753
v -0.03282226 -0.01320710 0.00605753
v -0.03298588 -0.01328588 0.00611353
v -0.03293534 -0.01338245 0.00611353
v -0.03308912 -0.01346943 0.00618024
v -0.03304207 -0.01354794 0.00618024
v -0.03318575 -0.01363951 0.00625687
v -0.03274265 -0.01289719 0.00601288
v -0.03289054 -0.01304186 0.00605753
v -0.03302712 -0.01319362 0.00611353
v -0.03314508 -0.01336251 0.00618024
v -0.03323741 -0.01355329 0.00625687
v -0.03332311 -0.01372706 0.00634252
v -0.03276687 -0.01280242 0.00601288
v -0.03292039 -0.01294833 0.00605753
v -0.03306190 -0.01310195 0.00611353
v -0.03319049 -0.01326093 0.00618024
v -0.03329859 -0.01343641 0.00625687
v -0.03337920 -0.01363347 0.00634252
v -0.03345340 -0.01381009 0.00643625
v -0.03280555 -0.01250589 0.00601288
v -0.03279781 -0.01261096 0.00601288
v -0.03298175 -0.01263011 0.00605753
v -0.03296752 -0.01273788 0.00605753
v -0.03314677 -0.01276704 0.00611353
v -0.03312469 -0.01288207 0.00611353
v -0.03329718 -0.01292045 0.00618024
v -0.03326470 -0.01304738 0.00618024
v -0.03342843 -0.01309448 0.00625687
v -0.03338939 -0.01321677 0.00625687
v -0.03354311 -0.01327066 0.00634252
v -0.03349865 -0.01338787 0.00634252
v -0.03364152 -0.01344672 0.00643625
v -0.03358458 -0.01357407 0.00643625
v -0.03371602 -0.01363733 0.00653742
v -0.03364065 -0.01378130 0.00653742
v -0.03376346 -0.01385074 0.00664886
v -0.03369540 -0.01396431 0.00664886
v -0.03381044 -0.01403762 0.00677141
v -0.03316235 -0.01264892 0.00611353
v -0.03333807 -0.01266721 0.00618024
v -0.03332117 -0.01279540 0.00618024
v -0.03348935 -0.01282274 0.00625687
v -0.03346350 -0.01295746 0.00625687
v -0.03362253 -0.01299284 0.00634252
v -0.03358498 -0.01313950 0.00634252
v -0.03373346 -0.01318220 0.00643625
v -0.03368890 -0.01332177 0.00643625
v -0.03382655 -0.01337002 0.00653742
v -0.03377640 -0.01350228 0.00653742
v -0.03390687 -0.01355601 0.00664886
v -0.03384315 -0.01369852 0.00664886
v -0.03396607 -0.01375767 0.00677141
v -0.03388220 -0.01391787 0.00677141
v -0.03399445 -0.01398133 0.00690282
v -0.03391919 -0.01410691 0.00690282
v -0.03402377 -0.01417354 0.00704614
v -0.03366952 -0.01270170 0.00634252
v -0.03382318 -0.01271769 0.00643625
v -0.03380265 -0.01287367 0.00643625
v -0.03394665 -0.01289707 0.00653742
v -0.03391577 -0.01305807 0.00653742
v -0.03405352 -0.01308870 0.00664886
v -0.03400926 -0.01326151 0.00664886
v -0.03414036 -0.01329920 0.00677141
v -0.03408842 -0.01346182 0.00677141
v -0.03421011 -0.01350447 0.00690282
v -0.03415226 -0.01365707 0.00690282
v -0.03426693 -0.01370429 0.00704614
v -0.03419401 -0.01386736 0.00704614
v -0.03429860 -0.01391769 0.00719872
v -0.03420343 -0.01409946 0.00719872
v -0.03429660 -0.01415212 0.00735940
v -0.03421192 -0.01429341 0.00735940
v -0.03429375 -0.01434554 0.00752684
v -0.03396825 -0.01273278 0.00653742
v -0.03408594 -0.01291970 0.00664886
v -0.03418670 -0.01311832 0.00677141
v -0.03426430 -0.01333483 0.00690282
v -0.03432713 -0.01354548 0.00704614
v -0.03437426 -0.01374849 0.00719872
v -0.03439504 -0.01396409 0.00735940
v -0.03438106 -0.01419986 0.00752684
v -0.03436648 -0.01439187 0.00769955
v -0.03424426 -0.01276148 0.00677141
v -0.03434790 -0.01296226 0.00690282
v -0.03447032 -0.01298214 0.00704614
v -0.03443367 -0.01317323 0.00704614
v -0.03454698 -0.01319842 0.00719872
v -0.03449502 -0.01340116 0.00719872
v -0.03459788 -0.01343073 0.00735940
v -0.03453766 -0.01361926 0.00735940
v -0.03462922 -0.01365134 0.00752684
v -0.03456296 -0.01382619 0.00752684
v -0.03464270 -0.01385902 0.00769955
v -0.03456018 -0.01404355 0.00769955
v -0.03462764 -0.01407600 0.00787601
v -0.03452130 -0.01427912 0.00787601
v -0.03457627 -0.01431018 0.00805470
v -0.03448287 -0.01446601 0.00805470
v -0.03452614 -0.01449357 0.00823424
v -0.03449585 -0.01278764 0.00704614
v -0.03458490 -0.01300075 0.00719872
v -0.03465148 -0.01322165 0.00735940
v -0.03469114 -0.01345753 0.00752684
v -0.03471060 -0.01367986 0.00769955
v -0.03471193 -0.01388752 0.00787601
v -0.03468454 -0.01410338 0.00805470
v -0.03462093 -0.01433542 0.00823424
v -0.03455947 -0.01451480 0.00841339
v -0.03278496 -0.01270819 0.00601288
v -0.03294742 -0.01284261 0.00605753
v -0.03309491 -0.01299854 0.00611353
v -0.03322862 -0.01316040 0.00618024
v -0.03334803 -0.01332583 0.00625687
v -0.03344537 -0.01350706 0.00634252
v -0.03351368 -0.01370951 0.00643625
v -0.03357641 -0.01388849 0.00653742
v -0.03334824 -0.01252914 0.00618024
v -0.03350751 -0.01268484 0.00625687
v -0.03365014 -0.01284888 0.00634252
v -0.03377336 -0.01302639 0.00643625
v -0.03387365 -0.01322252 0.00653742
v -0.03395969 -0.01341669 0.00664886
v -0.03403302 -0.01360796 0.00677141
v -0.03408227 -0.01381359 0.00690282
v -0.03410240 -0.01404235 0.00704614
v -0.03412165 -0.01423590 0.00719872
v -0.03410858 -0.01274738 0.00664886
v -0.03422060 -0.01294158 0.00677141
v -0.03431260 -0.01314631 0.00690282
v -0.03438348 -0.01336910 0.00704614
v -0.03443666 -0.01358386 0.00719872
v -0.03447323 -0.01378924 0.00735940
v -0.03448248 -0.01400616 0.00752684
v -0.03445613 -0.01424229 0.00769955
v -0.03442962 -0.01443209 0.00787601
v -0.03469426 -0.01437686 0.00876646
v -0.03459718 -0.01453881 0.00876646
v -0.03454199 -0.01462242 0.00876646
v -0.00307716 -0.00973300 -0.00005029
v 0.01190034 0.00132510 -0.00005029
v 0.01198891 0.00029749 -0.00005029
v 0.01198891 -0.00073392 -0.00005029
v 0.01190034 -0.00176153 -0.00005029
v 0.01172386 -0.00277774 -0.00005029
v 0.01146076 -0.00377504 -0.00005029
v 0.01111299 -0.00474606 -0.00005029
v 0.01068313 -0.00568363 -0.00005029
v 0.01017434 -0.00658082 -0.00005029
v 0.00959039 -0.00743101 -0.00005029
v 0.00893558 -0.00822792 -0.00005029
v 0.00821477 -0.00896565 -0.00005029
v 0.00743326 -0.00963875 -0.00005029
v 0.00659685 -0.01024227 -0.00005029
v 0.00571169 -0.01077172 -0.00005029
v 0.00478434 -0.01122322 -0.00005029
v 0.00382165 -0.01159341 -0.00005029
v 0.00283072 -0.01187956 -0.00005029
v 0.00181888 -0.01207957 -0.00005029
v 0.00079360 -0.01219194 -0.00005029
v -0.00023754 -0.01221586 -0.00005029
v -0.00126693 -0.01215115 -0.00005029
v -0.00228695 -0.01199828 -0.00005029
v -0.00307716 -0.01181697 -0.00005029
v -0.01112315 -0.00472106 0.00094971
v 0.02752094 -0.01421821 0.01190413
v 0.02777646 -0.01421821 0.01184748
v 0.02802606 -0.01421821 0.01176878
v 0.02826785 -0.01421821 0.01166863
v 0.02850000 -0.01421821 0.01154778
v 0.02872073 -0.01421821 0.01140716
v 0.02892836 -0.01421821 0.01124784
v 0.02912132 -0.01421821 0.01107103
v 0.02929813 -0.01421821 0.01087807
v 0.02945746 -0.01421821 0.01067044
v 0.02959808 -0.01421821 0.01044971
v 0.02971892 -0.01421821 0.01021756
v 0.02981908 -0.01421821 0.00997577
v 0.02989778 -0.01421821 0.00972616
v 0.02995442 -0.01421821 0.00947065
v 0.02998858 -0.01421821 0.00921117
v 0.03000000 -0.01421821 0.00894971
v 0.02998858 -0.01421821 0.00868824
v 0.02995442 -0.01421821 0.00842876
v 0.02989778 -0.01421821 0.00817325
v 0.02981908 -0.01421821 0.00792365
v 0.02971892 -0.01421821 0.00768185
v 0.02959808 -0.01421821 0.00744971
v 0.02945746 -0.01421821 0.00722898
v 0.02929813 -0.01421821 0.00702134
v 0.02912132 -0.01421821 0.00682839
v 0.02892836 -0.01421821 0.00665157
v 0.02872073 -0.01421821 0.00649225
v 0.02850000 -0.01421821 0.00635163
v 0.02826785 -0.01421821 0.00623078
v 0.02802606 -0.01421821 0.00613063
v 0.02086265 -0.02407833 0.00972616
v 0.02086758 -0.02413476 0.00947065
v 0.02087056 -0.02416879 0.00921117
v 0.02087156 -0.02418016 0.00894971
v 0.02087056 -0.02416879 0.00868824
v 0.02086758 -0.02413476 0.00842876
v 0.02086265 -0.02407833 0.00817325
v 0.02085579 -0.02399993 0.00792365
v 0.02084706 -0.02390015 0.00768185
v 0.02083653 -0.02377977 0.00744971
v 0.02082427 -0.02363968 0.00722898
v 0.02081038 -0.02348096 0.00702134
v 0.02079497 -0.02330483 0.00682839
v 0.02077816 -0.02311260 0.00665157
v 0.02076006 -0.02290576 0.00649225
v 0.02074082 -0.02268587 0.00635163
v 0.02072059 -0.02245461 0.00623078
v 0.02774687 -0.01489598 0.01184748
v 0.02799552 -0.01491773 0.01176878
v 0.02823639 -0.01493881 0.01166863
v 0.02846766 -0.01495904 0.01154778
v 0.02868754 -0.01497828 0.01140716
v 0.02889439 -0.01499637 0.01124784
v 0.02908661 -0.01501319 0.01107103
v 0.02926275 -0.01502860 0.01087807
v 0.02942147 -0.01504249 0.01067044
v 0.02956155 -0.01505474 0.01044971
v 0.02968194 -0.01506527 0.01021756
v 0.02978171 -0.01507400 0.00997577
v 0.02986011 -0.01508086 0.00972616
v 0.02991654 -0.01508580 0.00947065
v 0.02995057 -0.01508878 0.00921117
v 0.02996195 -0.01508977 0.00894971
v 0.02995057 -0.01508878 0.00868824
v 0.02991654 -0.01508580 0.00842876
v 0.02986011 -0.01508086 0.00817325
v 0.02978171 -0.01507400 0.00792365
v 0.02968194 -0.01506527 0.00768185
v 0.02956155 -0.01505474 0.00744971
v 0.02942147 -0.01504249 0.00722898
v 0.02926275 -0.01502860 0.00702134
v 0.02908661 -0.01501319 0.00682839
v 0.02889439 -0.01499637 0.00665157
v 0.02868754 -0.01497828 0.00649225
v 0.02846766 -0.01495904 0.00635163
v 0.02823639 -0.01493881 0.00623078
v 0.02799552 -0.01491773 0.00613063
v 0.02765832 -0.01556858 0.01184748
v 0.02790413 -0.01561193 0.01176878
v 0.02814225 -0.01565391 0.01166863
v 0.02837086 -0.01569422 0.01154778
v 0.02858824 -0.01573255 0.01140716
v 0.02879272 -0.01576861 0.01124784
v 0.02898275 -0.01580212 0.01107103
v 0.02915687 -0.01583282 0.01087807
v 0.02931377 -0.01586048 0.01067044
v 0.02945226 -0.01588490 0.01044971
v 0.02957127 -0.01590589 0.01021756
v 0.02966990 -0.01592328 0.00997577
v 0.02974741 -0.01593694 0.00972616
v 0.02980319 -0.01594678 0.00947065
v 0.02983683 -0.01595271 0.00921117
v 0.02984808 -0.01595470 0.00894971
v 0.02983683 -0.01595271 0.00868824
v 0.02980319 -0.01594678 0.00842876
v 0.02974741 -0.01593694 0.00817325
v 0.02966990 -0.01592328 0.00792365
v 0.02957127 -0.01590589 0.00768185
v 0.02945226 -0.01588490 0.00744971
v 0.02931377 -0.01586048 0.00722898
v 0.02915687 -0.01583282 0.00702134
v 0.02898275 -0.01580212 0.00682839
v 0.02879272 -0.01576861 0.00665157
v 0.02858824 -0.01573255 0.00649225
v 0.02837086 -0.01569422 0.00635163
v 0.02814225 -0.01565391 0.00623078
v 0.02790413 -0.01561193 0.00613063
v 0.02751148 -0.01623091 0.01184748
v 0.02775258 -0.01629551 0.01176878
v 0.02798613 -0.01635809 0.01166863
v 0.02821037 -0.01641818 0.01154778
v 0.02842358 -0.01647530 0.01140716
v 0.02862414 -0.01652904 0.01124784
v 0.02881052 -0.01657899 0.01107103
v 0.02898131 -0.01662475 0.01087807
v 0.02913520 -0.01666598 0.01067044
v 0.02927103 -0.01670238 0.01044971
v 0.02938776 -0.01673366 0.01021756
v 0.02948450 -0.01675958 0.00997577
v 0.02956052 -0.01677995 0.00972616
v 0.02961523 -0.01679461 0.00947065
v 0.02964823 -0.01680345 0.00921117
v 0.02965926 -0.01680641 0.00894971
v 0.02964823 -0.01680345 0.00868824
v 0.02961523 -0.01679461 0.00842876
v 0.02956052 -0.01677995 0.00817325
v 0.02948450 -0.01675958 0.00792365
v 0.02938776 -0.01673366 0.00768185
v 0.02927103 -0.01670238 0.00744971
v 0.02913520 -0.01666598 0.00722898
v 0.02898131 -0.01662475 0.00702134
v 0.02881052 -0.01657899 0.00682839
v 0.02862414 -0.01652904 0.00665157
v 0.02842358 -0.01647530 0.00649225
v 0.02821037 -0.01641818 0.00635163
v 0.02798613 -0.01635809 0.00623078
v 0.02775258 -0.01629551 0.00613063
v 0.02730748 -0.01687792 0.01184748
v 0.02754203 -0.01696329 0.01176878
v 0.02776924 -0.01704599 0.01166863
v 0.02798739 -0.01712538 0.01154778
v 0.02819480 -0.01720088 0.01140716
v 0.02838992 -0.01727189 0.01124784
v 0.02857124 -0.01733789 0.01107103
v 0.02873739 -0.01739836 0.01087807
v 0.02888710 -0.01745285 0.01067044
v 0.02901924 -0.01750095 0.01044971
v 0.02913280 -0.01754228 0.01021756
v 0.02922691 -0.01757654 0.00997577
v 0.02930087 -0.01760345 0.00972616
v 0.02935410 -0.01762283 0.00947065
v 0.02938620 -0.01763451 0.00921117
v 0.02939693 -0.01763842 0.00894971
v 0.02938620 -0.01763451 0.00868824
v 0.02935410 -0.01762283 0.00842876
v 0.02930087 -0.01760345 0.00817325
v 0.02922691 -0.01757654 0.00792365
v 0.02913280 -0.01754228 0.00768185
v 0.02901924 -0.01750095 0.00744971
v 0.02888710 -0.01745285 0.00722898
v 0.02873739 -0.01739836 0.00702134
v 0.02857124 -0.01733789 0.00682839
v 0.02838992 -0.01727189 0.00665157
v 0.02819480 -0.01720088 0.00649225
v 0.02798739 -0.01712538 0.00635163
v 0.02776924 -0.01704599 0.00623078
v 0.02754203 -0.01696329 0.00613063
v 0.02730748 -0.01687792 0.00605193
v 0.02704786 -0.01750469 0.01184748
v 0.02727408 -0.01761017 0.01176878
v 0.02749322 -0.01771236 0.01166863
v 0.02770361 -0.01781047 0.01154778
v 0.02790366 -0.01790375 0.01140716
v 0.02809184 -0.01799150 0.01124784
v 0.02826672 -0.01807305 0.01107103
v 0.02842697 -0.01814778 0.01087807
v 0.02857137 -0.01821511 0.01067044
v 0.02869881 -0.01827454 0.01044971
v 0.02880833 -0.01832561 0.01021756
v 0.02889911 -0.01836794 0.00997577
v 0.02897043 -0.01840120 0.00972616
v 0.02902177 -0.01842513 0.00947065
v 0.02905273 -0.01843957 0.00921117
v 0.02906308 -0.01844440 0.00894971
v 0.02905273 -0.01843957 0.00868824
v 0.02902177 -0.01842513 0.00842876
v 0.02897043 -0.01840120 0.00817325
v 0.02889911 -0.01836794 0.00792365
v 0.02880833 -0.01832561 0.00768185
v 0.02869881 -0.01827454 0.00744971
v 0.02857137 -0.01821511 0.00722898
v 0.02842697 -0.01814778 0.00702134
v 0.02826672 -0.01807305 0.00682839
v 0.02809184 -0.01799150 0.00665157
v 0.02790366 -0.01790375 0.00649225
v 0.02770361 -0.01781047 0.00635163
v 0.02749322 -0.01771236 0.00623078
v 0.02727408 -0.01761017 0.00613063
v 0.02704786 -0.01750469 0.00605193
v 0.02673461 -0.01810644 0.01184748
v 0.02695077 -0.01823124 0.01176878
v 0.02716017 -0.01835214 0.01166863
v 0.02736122 -0.01846821 0.01154778
v 0.02755237 -0.01857858 0.01140716
v 0.02773219 -0.01868240 0.01124784
v 0.02789930 -0.01877888 0.01107103
v 0.02805242 -0.01886728 0.01087807
v 0.02819040 -0.01894694 0.01067044
v 0.02831218 -0.01901725 0.01044971
v 0.02841683 -0.01907768 0.01021756
v 0.02850357 -0.01912775 0.00997577
v 0.02857173 -0.01916710 0.00972616
v 0.02862078 -0.01919543 0.00947065
v 0.02865037 -0.01921251 0.00921117
v 0.02866025 -0.01921821 0.00894971
v 0.02865037 -0.01921251 0.00868824
v 0.02862078 -0.01919543 0.00842876
v 0.02857173 -0.01916710 0.00817325
v 0.02850357 -0.01912775 0.00792365
v 0.02841683 -0.01907768 0.00768185
v 0.02831218 -0.01901725 0.00744971
v 0.02819040 -0.01894694 0.00722898
v 0.02805242 -0.01886728 0.00702134
v 0.02789930 -0.01877888 0.00682839
v 0.02773219 -0.01868240 0.00665157
v 0.02755237 -0.01857858 0.00649225
v 0.02736122 -0.01846821 0.00635163
v 0.02716017 -0.01835214 0.00623078
v 0.02695077 -0.01823124 0.00613063
v 0.02673461 -0.01810644 0.00605193
v 0.02657456 -0.01882177 0.01176878
v 0.02677263 -0.01896046 0.01166863
v 0.02696279 -0.01909361 0.01154778
v 0.02714360 -0.01922022 0.01140716
v 0.02731369 -0.01933931 0.01124784
v 0.02747175 -0.01944999 0.01107103
v 0.02761658 -0.01955140 0.01087807
v 0.02774709 -0.01964279 0.01067044
v 0.02786228 -0.01972345 0.01044971
v 0.02796127 -0.01979276 0.01021756
v 0.02804332 -0.01985021 0.00997577
v 0.02810778 -0.01989535 0.00972616
v 0.02815419 -0.01992784 0.00947065
v 0.02818217 -0.01994743 0.00921117
v 0.02819152 -0.01995398 0.00894971
v 0.02818217 -0.01994743 0.00868824
v 0.02815419 -0.01992784 0.00842876
v 0.02810778 -0.01989535 0.00817325
v 0.02804332 -0.01985021 0.00792365
v 0.02796127 -0.01979276 0.00768185
v 0.02786228 -0.01972345 0.00744971
v 0.02774709 -0.01964279 0.00722898
v 0.02761658 -0.01955140 0.00702134
v 0.02747175 -0.01944999 0.00682839
v 0.02731369 -0.01933931 0.00665157
v 0.02714360 -0.01922022 0.00649225
v 0.02696279 -0.01909361 0.00635163
v 0.02677263 -0.01896046 0.00623078
v 0.02657456 -0.01882177 0.00613063
v 0.02637010 -0.01867861 0.00605193
v 0.02614832 -0.01937727 0.01176878
v 0.02633354 -0.01953269 0.01166863
v 0.02651138 -0.01968191 0.01154778
v 0.02668047 -0.01982379 0.01140716
v 0.02683952 -0.01995726 0.01124784
v 0.02698734 -0.02008129 0.01107103
v 0.02712278 -0.02019494 0.01087807
v 0.02724483 -0.02029735 0.01067044
v 0.02735255 -0.02038774 0.01044971
v 0.02744513 -0.02046542 0.01021756
v 0.02752185 -0.02052980 0.00997577
v 0.02758214 -0.02058038 0.00972616
v 0.02762553 -0.02061679 0.00947065
v 0.02765170 -0.02063875 0.00921117
v 0.02766044 -0.02064609 0.00894971
v 0.02765170 -0.02063875 0.00868824
v 0.02762553 -0.02061679 0.00842876
v 0.02758214 -0.02058038 0.00817325
v 0.02752185 -0.02052980 0.00792365
v 0.02744513 -0.02046542 0.00768185
v 0.02735255 -0.02038774 0.00744971
v 0.02724483 -0.02029735 0.00722898
v 0.02712278 -0.02019494 0.00702134
v 0.02698734 -0.02008129 0.00682839
v 0.02683952 -0.01995726 0.00665157
v 0.02668047 -0.01982379 0.00649225
v 0.02651138 -0.01968191 0.00635163
v 0.02633354 -0.01953269 0.00623078
v 0.02614832 -0.01937727 0.00613063
v 0.02595711 -0.01921682 0.00605193
v 0.02584626 -0.02006447 0.01166863
v 0.02601041 -0.02022862 0.01154778
v 0.02616649 -0.02038470 0.01140716
v 0.02631330 -0.02053152 0.01124784
v 0.02644975 -0.02066796 0.01107103
v 0.02657477 -0.02079299 0.01087807
v 0.02668743 -0.02090565 0.01067044
v 0.02678686 -0.02100508 0.01044971
v 0.02687232 -0.02109053 0.01021756
v 0.02694314 -0.02116135 0.00997577
v 0.02699878 -0.02121700 0.00972616
v 0.02703884 -0.02125705 0.00947065
v 0.02706300 -0.02128121 0.00921117
v 0.02707107 -0.02128928 0.00894971
v 0.02706300 -0.02128121 0.00868824
v 0.02703884 -0.02125705 0.00842876
v 0.02699878 -0.02121700 0.00817325
v 0.02694314 -0.02116135 0.00792365
v 0.02687232 -0.02109053 0.00768185
v 0.02678686 -0.02100508 0.00744971
v 0.02668743 -0.02090565 0.00722898
v 0.02657477 -0.02079299 0.00702134
v 0.02644975 -0.02066796 0.00682839
v 0.02631330 -0.02053152 0.00665157
v 0.02616649 -0.02038470 0.00649225
v 0.02601041 -0.02022862 0.00635163
v 0.02584626 -0.02006447 0.00623078
v 0.02567528 -0.01989350 0.00613063
v 0.02549879 -0.01971700 0.00605193
v 0.02531447 -0.02055176 0.01166863
v 0.02546369 -0.02072959 0.01154778
v 0.02560558 -0.02089868 0.01140716
v 0.02573904 -0.02105774 0.01124784
v 0.02586307 -0.02120555 0.01107103
v 0.02597672 -0.02134100 0.01087807
v 0.02607914 -0.02146305 0.01067044
v 0.02616952 -0.02157077 0.01044971
v 0.02624720 -0.02166334 0.01021756
v 0.02631158 -0.02174006 0.00997577
v 0.02636217 -0.02180035 0.00972616
v 0.02639858 -0.02184374 0.00947065
v 0.02642054 -0.02186991 0.00921117
v 0.02642788 -0.02187866 0.00894971
v 0.02642054 -0.02186991 0.00868824
v 0.02639858 -0.02184374 0.00842876
v 0.02636217 -0.02180035 0.00817325
v 0.02631158 -0.02174006 0.00792365
v 0.02624720 -0.02166334 0.00768185
v 0.02616952 -0.02157077 0.00744971
v 0.02607914 -0.02146305 0.00722898
v 0.02597672 -0.02134100 0.00702134
v 0.02586307 -0.02120555 0.00682839
v 0.02573904 -0.02105774 0.00665157
v 0.02560558 -0.02089868 0.00649225
v 0.02546369 -0.02072959 0.00635163
v 0.02531447 -0.02055176 0.00623078
v 0.02515905 -0.02036653 0.00613063
v 0.02499861 -0.02017533 0.00605193
v 0.02487540 -0.02118101 0.01154778
v 0.02500200 -0.02136182 0.01140716
v 0.02512110 -0.02153190 0.01124784
v 0.02523177 -0.02168996 0.01107103
v 0.02533319 -0.02183480 0.01087807
v 0.02542457 -0.02196531 0.01067044
v 0.02550523 -0.02208050 0.01044971
v 0.02557454 -0.02217949 0.01021756
v 0.02563199 -0.02226153 0.00997577
v 0.02567713 -0.02232600 0.00972616
v 0.02570962 -0.02237240 0.00947065
v 0.02572922 -0.02240038 0.00921117
v 0.02573576 -0.02240974 0.00894971
v 0.02572922 -0.02240038 0.00868824
v 0.02570962 -0.02237240 0.00842876
v 0.02567713 -0.02232600 0.00817325
v 0.02563199 -0.02226153 0.00792365
v 0.02557454 -0.02217949 0.00768185
v 0.02550523 -0.02208050 0.00744971
v 0.02542457 -0.02196531 0.00722898
v 0.02533319 -0.02183480 0.00702134
v 0.02523177 -0.02168996 0.00682839
v 0.02512110 -0.02153190 0.00665157
v 0.02500200 -0.02136182 0.00649225
v 0.02487540 -0.02118101 0.00635163
v 0.02474225 -0.02099084 0.00623078
v 0.02460356 -0.02079278 0.00613063
v 0.02436036 -0.02177059 0.01140716
v 0.02446418 -0.02195040 0.01124784
v 0.02456066 -0.02211751 0.01107103
v 0.02464907 -0.02227063 0.01087807
v 0.02472873 -0.02240861 0.01067044
v 0.02479904 -0.02253039 0.01044971
v 0.02485946 -0.02263505 0.01021756
v 0.02490954 -0.02272179 0.00997577
v 0.02494889 -0.02278994 0.00972616
v 0.02497721 -0.02283900 0.00947065
v 0.02499429 -0.02286858 0.00921117
v 0.02500000 -0.02287847 0.00894971
v 0.02499429 -0.02286858 0.00868824
v 0.02497721 -0.02283900 0.00842876
v 0.02494889 -0.02278994 0.00817325
v 0.02490954 -0.02272179 0.00792365
v 0.02485946 -0.02263505 0.00768185
v 0.02479904 -0.02253039 0.00744971
v 0.02472873 -0.02240861 0.00722898
v 0.02464907 -0.02227063 0.00702134
v 0.02456066 -0.02211751 0.00682839
v 0.02446418 -0.02195040 0.00665157
v 0.02436036 -0.02177059 0.00649225
v 0.02425000 -0.02157943 0.00635163
v 0.02413393 -0.02137839 0.00623078
v 0.02401303 -0.02116899 0.00613063
v 0.02377329 -0.02231006 0.01124784
v 0.02385483 -0.02248494 0.01107103
v 0.02392956 -0.02264518 0.01087807
v 0.02399689 -0.02278958 0.01067044
v 0.02405632 -0.02291702 0.01044971
v 0.02410739 -0.02302655 0.01021756
v 0.02414972 -0.02311732 0.00997577
v 0.02418298 -0.02318865 0.00972616
v 0.02420692 -0.02323999 0.00947065
v 0.02422136 -0.02327095 0.00921117
v 0.02422618 -0.02328129 0.00894971
v 0.02422136 -0.02327095 0.00868824
v 0.02420692 -0.02323999 0.00842876
v 0.02418298 -0.02318865 0.00817325
v 0.02414972 -0.02311732 0.00792365
v 0.02410739 -0.02302655 0.00768185
v 0.02405632 -0.02291702 0.00744971
v 0.02399689 -0.02278958 0.00722898
v 0.02392956 -0.02264518 0.00702134
v 0.02385483 -0.02248494 0.00682839
v 0.02377329 -0.02231006 0.00665157
v 0.02368554 -0.02212188 0.00649225
v 0.02359225 -0.02192183 0.00635163
v 0.02349414 -0.02171144 0.00623078
v 0.02339196 -0.02149229 0.00613063
v 0.02318015 -0.02295560 0.01087807
v 0.02323464 -0.02310532 0.01067044
v 0.02328273 -0.02323746 0.01044971
v 0.02332407 -0.02335102 0.01021756
v 0.02335832 -0.02344513 0.00997577
v 0.02338524 -0.02351908 0.00972616
v 0.02340461 -0.02357231 0.00947065
v 0.02341630 -0.02360441 0.00921117
v 0.02342020 -0.02361514 0.00894971
v 0.02341630 -0.02360441 0.00868824
v 0.02340461 -0.02357231 0.00842876
v 0.02338524 -0.02351908 0.00817325
v 0.02335832 -0.02344513 0.00792365
v 0.02332407 -0.02335102 0.00768185
v 0.02328273 -0.02323746 0.00744971
v 0.02323464 -0.02310532 0.00722898
v 0.02318015 -0.02295560 0.00702134
v 0.02311967 -0.02278945 0.00682839
v 0.02305368 -0.02260813 0.00665157
v 0.02298266 -0.02241302 0.00649225
v 0.02290717 -0.02220560 0.00635163
v 0.02282777 -0.02198746 0.00623078
v 0.02274507 -0.02176024 0.00613063
v 0.02244777 -0.02335342 0.01067044
v 0.02248416 -0.02348924 0.01044971
v 0.02251544 -0.02360597 0.01021756
v 0.02254136 -0.02370271 0.00997577
v 0.02256173 -0.02377873 0.00972616
v 0.02257639 -0.02383345 0.00947065
v 0.02258524 -0.02386645 0.00921117
v 0.02258819 -0.02387747 0.00894971
v 0.02258524 -0.02386645 0.00868824
v 0.02257639 -0.02383345 0.00842876
v 0.02256173 -0.02377873 0.00817325
v 0.02254136 -0.02370271 0.00792365
v 0.02251544 -0.02360597 0.00768185
v 0.02248416 -0.02348924 0.00744971
v 0.02244777 -0.02335342 0.00722898
v 0.02240653 -0.02319952 0.00702134
v 0.02236077 -0.02302873 0.00682839
v 0.02231083 -0.02284235 0.00665157
v 0.02225709 -0.02264179 0.00649225
v 0.02219996 -0.02242858 0.00635163
v 0.02213988 -0.02220435 0.00623078
v 0.02207730 -0.02197079 0.00613063
v 0.02168767 -0.02378949 0.01021756
v 0.02170506 -0.02388812 0.00997577
v 0.02171873 -0.02396562 0.00972616
v 0.02172857 -0.02402141 0.00947065
v 0.02173450 -0.02405505 0.00921117
v 0.02173648 -0.02406629 0.00894971
v 0.02173450 -0.02405505 0.00868824
v 0.02172857 -0.02402141 0.00842876
v 0.02171873 -0.02396562 0.00817325
v 0.02170506 -0.02388812 0.00792365
v 0.02168767 -0.02378949 0.00768185
v 0.02166669 -0.02367047 0.00744971
v 0.02164227 -0.02353199 0.00722898
v 0.02161460 -0.02337509 0.00702134
v 0.02158390 -0.02320096 0.00682839
v 0.02155039 -0.02301094 0.00665157
v 0.02151434 -0.02280646 0.00649225
v 0.02147601 -0.02258908 0.00635163
v 0.02143570 -0.02236046 0.00623078
v -0.01341233 -0.02374791 0.01501046
v -0.01139813 -0.02418855 0.01501046
v -0.01208137 -0.02409976 0.01501046
v -0.01083567 -0.02421597 0.01501046
v -0.01079686 -0.02421772 0.01501046
v -0.01076759 -0.02421800 0.01501046
v -0.01070979 -0.02421821 0.01501046
v -0.01073184 -0.02421818 0.01501046
v -0.03518438 -0.01279034 0.01501046
v -0.03517625 -0.01287276 0.01501046
v -0.03514170 -0.01312233 0.01501046
v -0.03498264 -0.01374779 0.01501046
v -0.03502984 -0.01359794 0.01501046
v -0.03504252 -0.01355761 0.01501046
v -0.03510129 -0.01332734 0.01501046
v -0.03512027 -0.01323577 0.01501046
v -0.03479687 -0.01419384 0.01501046
v -0.03486001 -0.01405939 0.01501046
v -0.03487062 -0.01403609 0.01501046
v -0.03467756 -0.01441581 0.01501046
v -0.03459499 -0.01455271 0.01501046
v -0.03447364 -0.01472912 0.01501046
v -0.03443449 -0.01478178 0.01501046
v -0.03426703 -0.01498421 0.01501046
v -0.03365003 -0.01551498 0.01501046
v -0.03374626 -0.01544910 0.01501046
v -0.03377858 -0.01542663 0.01501046
v -0.03383521 -0.01538443 0.01501046
v -0.03384318 -0.01537840 0.01501046
v -0.03401651 -0.01523432 0.01501046
v -0.03403128 -0.01522136 0.01501046
v -0.03345273 -0.01563196 0.01501046
v -0.03336214 -0.01567817 0.01501046
v -0.03325172 -0.01573018 0.01501046
v -0.03332020 -0.01569866 0.01501046
v 0.01330005 -0.01621822 0.01501046
v 0.01326328 -0.02165440 0.01501046
v 0.01324713 -0.02173758 0.01501046
v 0.01323353 -0.02180297 0.01501046
v 0.01322060 -0.02185768 0.01501046
v 0.01317096 -0.02203141 0.01501046
v 0.01316161 -0.02205961 0.01501046
v 0.01313836 -0.02212444 0.01501046
v 0.01308854 -0.02225385 0.01501046
v 0.01308637 -0.02225887 0.01501046
v 0.01299508 -0.02245406 0.01501046
v 0.01302936 -0.02238638 0.01501046
v 0.01285070 -0.02270529 0.01501046
v 0.01283123 -0.02273498 0.01501046
v 0.01278990 -0.02279407 0.01501046
v 0.01272394 -0.02288625 0.01501046
v 0.01264624 -0.02298413 0.01501046
v 0.01258243 -0.02305879 0.01501046
v 0.01236663 -0.02327987 0.01501046
v 0.01231137 -0.02332967 0.01501046
v 0.01224738 -0.02338417 0.01501046
v 0.01219348 -0.02342884 0.01501046
v 0.01205063 -0.02353647 0.01501046
v 0.01201154 -0.02356383 0.01501046
v 0.01193354 -0.02361531 0.01501046
v 0.01184150 -0.02367425 0.01501046
v 0.01167935 -0.02376734 0.01501046
v 0.01106457 -0.02403060 0.01501046
v 0.01130067 -0.02394482 0.01501046
v 0.01126243 -0.02395984 0.01501046
v 0.01153227 -0.02384216 0.01501046
v 0.01149580 -0.02385987 0.01501046
v 0.01008355 -0.02421308 0.01501046
v 0.01027670 -0.02419779 0.01501046
v 0.01056322 -0.02415645 0.01501046
v 0.01047862 -0.02417099 0.01501046
v 0.01071829 -0.02412580 0.01501046
v 0.01091871 -0.02407500 0.01501046
v -0.01270655 -0.02396463 0.01501046
v -0.01275443 -0.02395252 0.01501046
v -0.01332089 -0.02377852 0.01501046
v -0.01198094 -0.02411502 0.01501046
v -0.01203146 -0.02410789 0.01501046
v -0.01265776 -0.02397586 0.01501046
v -0.01080531 -0.02421744 0.01501046
v -0.03520000 -0.01243197 0.01501046
v -0.03519500 -0.01263027 0.01501046
v -0.03506738 -0.01346595 0.01501046
v -0.03507370 -0.01344261 0.01501046
v -0.03474047 -0.01430491 0.01501046
v -0.03481341 -0.01416106 0.01501046
v -0.03496640 -0.01379104 0.01501046
v -0.03453810 -0.01463825 0.01501046
v -0.03438538 -0.01484458 0.01501046
v -0.03361345 -0.01553689 0.01501046
v -0.03389250 -0.01533945 0.01501046
v -0.03391698 -0.01531964 0.01501046
v -0.03419110 -0.01506531 0.01501046
v -0.03421281 -0.01504329 0.01501046
v -0.03322488 -0.01574117 0.01501046
v 0.01330572 -0.02121821 0.01501046
v 0.01329009 -0.02144740 0.01501046
v 0.01328971 -0.02145097 0.01501046
v 0.01320220 -0.02192286 0.01501046
v 0.01305833 -0.02232296 0.01501046
v 0.01295454 -0.02253150 0.01501046
v 0.01253072 -0.02311562 0.01501046
v 0.01248646 -0.02316295 0.01501046
v 0.01180528 -0.02369550 0.01501046
v 0.01172062 -0.02374439 0.01501046
v 0.01162284 -0.02379670 0.01501046
v 0.01116211 -0.02399659 0.01501046
v 0.01139693 -0.02390324 0.01501046
v 0.01067277 -0.02413585 0.01501046
v 0.01082592 -0.02409942 0.01501046
v 0.00988991 -0.02421821 0.01501046
v -0.03519991 0.00178179 0.00892614
v -0.03519755 0.00178179 0.00885774
v -0.03519439 0.00178179 0.00876642
v -0.03518669 0.00178179 0.00866738
v -0.03516287 0.00178179 0.00848792
v -0.03515119 0.00178179 0.00841072
v -0.03508051 0.00178179 0.00811320
v -0.03506291 0.00178179 0.00805319
v -0.03491448 0.00178179 0.00767237
v -0.03488242 0.00178179 0.00760885
v -0.03482007 0.00178179 0.00748918
v -0.03479414 0.00178179 0.00744291
v -0.03477179 0.00178179 0.00740587
v -0.03474187 0.00178179 0.00735632
v -0.03439177 0.00178179 0.00690126
v -0.03429592 0.00178179 0.00680367
v -0.03413037 0.00178179 0.00665325
v -0.03404644 0.00178179 0.00658706
v -0.03395848 0.00178179 0.00651938
v -0.03392502 0.00178179 0.00649526
v -0.03388774 0.00178179 0.00647002
v -0.03383788 0.00178179 0.00643627
v -0.03360050 0.00178179 0.00629872
v -0.03350222 0.00178179 0.00624718
v -0.03347734 0.00178179 0.00623522
v -0.03299162 0.00178179 0.00605603
v 0.01101019 0.00178179 -0.00005029
v 0.01182103 0.00178179 -0.00005029
v 0.02726147 0.00178179 0.01193829
v 0.02826785 0.00178179 0.01166863
v 0.02929813 0.00178179 0.01087807
v 0.02945746 0.00178179 0.01067044
v 0.02989778 0.00178179 0.00972616
v 0.02998858 0.00178179 0.00921117
v 0.03000000 0.00178179 0.00894971
v 0.02998858 0.00178179 0.00868824
v 0.02995442 0.00178179 0.00842876
v 0.02989778 0.00178179 0.00817325
v 0.02981908 0.00178179 0.00792365
v 0.02971892 0.00178179 0.00768185
v 0.02945746 0.00178179 0.00722898
v 0.02872073 0.00178179 0.00649225
v 0.02802606 0.00178179 0.00613063
v -0.03520000 0.00178179 0.00894970
v -0.01500000 0.00178179 0.01501046
v -0.03518317 0.00178179 0.00863464
v -0.03512948 0.00178179 0.00830930
v -0.03510484 0.00178179 0.00820109
v -0.03509367 0.00178179 0.00815808
v -0.03504219 0.00178179 0.00799239
v -0.03501457 0.00178179 0.00791135
v -0.03496359 0.00178179 0.00778746
v -0.03483955 0.00178179 0.00752395
v -0.03470439 0.00178179 0.00729988
v -0.03465445 0.00178179 0.00722469
v -0.03457577 0.00178179 0.00712130
v -0.03450810 0.00178179 0.00703334
v -0.03449645 0.00178179 0.00701934
v -0.03445166 0.00178179 0.00696881
v -0.03436155 0.00178179 0.00686999
v -0.03432132 0.00178179 0.00682838
v -0.03418676 0.00178179 0.00670356
v -0.03378169 0.00178179 0.00640167
v -0.03370680 0.00178179 0.00635556
v -0.03342312 0.00178179 0.00621122
v -0.03335068 0.00178179 0.00617916
v -0.03330252 0.00178179 0.00616028
v -0.03323835 0.00178179 0.00613513
v -0.01112315 0.00178179 0.00094971
v 0.02752094 0.00178179 0.01190413
v 0.02777646 0.00178179 0.01184748
v 0.02802606 0.00178179 0.01176878
v 0.02850000 0.00178179 0.01154778
v 0.02872073 0.00178179 0.01140716
v 0.02892836 0.00178179 0.01124784
v 0.02912132 0.00178179 0.01107103
v 0.02959808 0.00178179 0.01044971
v 0.02971892 0.00178179 0.01021756
v 0.02981908 0.00178179 0.00997577
v 0.02995442 0.00178179 0.00947065
v 0.02959808 0.00178179 0.00744971
v 0.02929813 0.00178179 0.00702134
v 0.02912132 0.00178179 0.00682839
v 0.02892836 0.00178179 0.00665157
v 0.02850000 0.00178179 0.00635163
v 0.02826785 0.00178179 0.00623078
v -0.03520000 0.00178179 0.01501046
f 650 1346 1304
f 201 674 303
f 303 674 399
f 52 1167 1261
f 1202 1262 1347
f 1347 1306 1202
f 1306 1322 1202
f 1347 1262 676
f 1234 1277 1
f 1 1277 2
f 711 2 6
f 671 48 50
f 729 682 681
f 677 1262 724
f 677 676 1262
f 391 378 390
f 379 392 380
f 378 391 379
f 379 391 392
f 201 303 199
f 5 6 2
f 5 4 347
f 64 1247 63
f 63 400 64
f 1176 67 1177
f 402 401 1281
f 401 1280 1281
f 660 659 936
f 936 659 906
f 721 48 722
f 995 662 661
f 54 55 347
f 347 4 54
f 1168 1243 54
f 54 1243 55
f 4 59 54
f 736 737 689
f 444 1345 1303
f 1303 424 444
f 201 199 202
f 199 200 202
f 724 1262 1263
f 678 677 724
f 729 681 728
f 347 55 360
f 360 348 347
f 390 378 377
f 377 389 390
f 376 389 377
f 376 377 363
f 387 386 344
f 392 391 326
f 399 674 398
f 674 385 398
f 1234 1 709
f 709 708 1234
f 709 1 2
f 3 5 2
f 4 5 3
f 350 14 349
f 349 363 350
f 348 349 10
f 1247 64 1248
f 447 400 401
f 447 64 400
f 447 401 402
f 1177 67 72
f 66 1176 1175
f 67 1176 66
f 1279 1280 401
f 405 1325 1326
f 906 659 658
f 655 813 656
f 783 813 655
f 689 737 690
f 737 691 690
f 1305 1320 651
f 651 1320 652
f 435 416 439
f 415 416 435
f 1288 1289 410
f 1330 409 1287
f 721 722 1165
f 722 723 1165
f 669 723 670
f 670 723 722
f 384 385 372
f 384 398 385
f 673 672 372
f 673 385 674
f 372 385 673
f 359 672 671
f 359 671 50
f 372 672 359
f 380 392 393
f 966 661 660
f 660 936 966
f 995 661 966
f 1246 59 1171
f 1171 59 60
f 1169 55 1244
f 55 1243 1244
f 1242 1167 52
f 1245 55 1169
f 52 386 53
f 1241 1242 53
f 53 1242 52
f 55 1245 53
f 732 686 685
f 732 733 686
f 1227 1052 1026
f 967 1269 1220
f 907 937 938
f 1053 1052 1227
f 1053 1054 1027
f 1027 1026 1053
f 1053 1026 1052
f 1155 1154 711
f 689 688 735
f 735 736 689
f 1302 421 1301
f 530 424 675
f 523 620 675
f 1345 444 423
f 203 674 201
f 203 302 674
f 509 675 674
f 674 492 509
f 508 675 509
f 1264 1203 724
f 724 1263 1264
f 1218 937 1217
f 1217 937 907
f 724 1203 754
f 1210 814 1209
f 877 876 1267
f 876 877 846
f 847 816 846
f 374 387 388
f 374 386 387
f 366 352 365
f 366 380 367
f 366 379 380
f 366 365 378
f 378 379 366
f 364 363 377
f 378 365 364
f 364 377 378
f 346 344 386
f 346 386 52
f 390 389 334
f 392 326 324
f 324 393 392
f 710 2 711
f 710 709 2
f 363 349 362
f 348 10 8
f 12 349 14
f 12 10 349
f 14 13 12
f 42 45 43
f 47 48 721
f 65 66 1175
f 1175 1248 65
f 65 1248 64
f 66 65 431
f 207 88 208
f 1324 404 1283
f 404 405 436
f 446 404 436
f 402 403 445
f 445 447 402
f 446 432 445
f 445 404 446
f 445 403 404
f 1282 403 1323
f 875 658 657
f 657 844 875
f 906 658 875
f 657 656 843
f 843 844 657
f 843 656 813
f 843 875 844
f 753 653 706
f 706 705 753
f 692 691 738
f 738 691 737
f 767 738 737
f 420 1341 1300
f 1340 1341 420
f 1297 418 1296
f 439 416 417
f 1339 416 1293
f 411 1290 1291
f 407 1328 1329
f 1329 408 407
f 1286 408 1329
f 669 668 1166
f 1166 668 1146
f 1166 723 669
f 1166 1165 723
f 671 670 51
f 48 671 51
f 51 722 48
f 51 670 722
f 358 359 50
f 372 359 358
f 396 384 383
f 383 395 396
f 382 395 383
f 369 368 381
f 381 382 369
f 367 380 381
f 381 368 367
f 380 393 381
f 381 393 394
f 394 395 381
f 381 395 382
f 1147 668 667
f 1146 668 1147
f 59 1246 1170
f 58 59 4
f 58 60 59
f 1241 53 1240
f 1240 53 1245
f 789 788 819
f 685 684 731
f 731 732 685
f 731 684 683
f 878 877 907
f 847 846 878
f 878 846 877
f 1219 937 1218
f 1219 938 937
f 1103 1230 1231
f 1276 1127 1239
f 1127 1229 1239
f 1126 1229 1127
f 1274 1079 1233
f 1230 1079 1274
f 1080 1230 1103
f 1080 1079 1230
f 1054 1079 1080
f 1128 1127 1276
f 1081 1080 1103
f 1095 1069 1094
f 1044 1015 1043
f 1042 1043 1014
f 1014 1043 1015
f 712 1155 711
f 6 8 9
f 9 8 10
f 711 6 9
f 9 712 711
f 16 14 350
f 36 38 37
f 355 368 369
f 38 36 355
f 355 36 34
f 367 368 355
f 1034 1059 1060
f 734 688 687
f 734 735 688
f 687 686 734
f 686 733 734
f 818 788 817
f 819 788 818
f 997 1026 998
f 967 997 968
f 968 938 967
f 997 998 968
f 968 998 969
f 521 528 625
f 297 507 674
f 675 620 531
f 531 530 675
f 620 533 531
f 424 530 531
f 1345 423 1344
f 422 1342 1343
f 620 523 621
f 621 533 620
f 907 1215 1216
f 1216 1217 907
f 814 784 1207
f 786 816 817
f 1205 1206 784
f 784 754 1205
f 1214 877 1267
f 1214 1215 907
f 907 877 1214
f 876 846 845
f 845 1211 1266
f 1210 1211 845
f 814 1210 845
f 679 678 725
f 725 726 679
f 725 678 724
f 680 679 727
f 679 726 727
f 727 681 680
f 727 728 681
f 375 374 388
f 388 389 375
f 375 389 376
f 375 362 374
f 376 363 375
f 363 362 375
f 373 374 360
f 373 360 55
f 55 53 373
f 373 53 386
f 386 374 373
f 365 352 351
f 351 364 365
f 350 363 351
f 363 364 351
f 52 1261 89
f 89 346 52
f 1261 1200 89
f 91 345 89
f 89 345 346
f 336 334 389
f 328 326 391
f 328 327 326
f 326 327 325
f 323 324 325
f 325 324 326
f 325 327 174
f 325 176 323
f 174 176 325
f 397 384 396
f 398 384 397
f 1234 708 1235
f 1150 1237 1235
f 1129 1128 1149
f 1149 1150 1129
f 1149 1237 1150
f 1129 1150 1130
f 1130 1108 1129
f 360 374 361
f 374 362 361
f 348 360 361
f 361 349 348
f 361 362 349
f 347 348 7
f 348 8 7
f 7 5 347
f 6 5 7
f 7 8 6
f 49 358 50
f 50 48 49
f 48 47 49
f 44 43 45
f 44 47 721
f 67 66 430
f 66 431 430
f 431 432 430
f 448 431 65
f 64 447 448
f 448 65 64
f 447 445 448
f 448 432 431
f 448 445 432
f 91 1201 1199
f 208 88 82
f 88 1259 82
f 1197 88 1196
f 1197 1259 88
f 1179 1180 69
f 1253 75 1185
f 68 1253 1178
f 75 1253 68
f 454 436 405
f 1327 1328 407
f 452 432 446
f 446 436 452
f 935 936 906
f 906 905 935
f 935 905 904
f 963 964 933
f 995 966 965
f 965 935 964
f 965 966 936
f 936 935 965
f 874 905 906
f 906 875 874
f 875 843 874
f 904 905 874
f 653 753 654
f 654 783 655
f 654 753 783
f 705 704 751
f 751 704 703
f 813 783 812
f 896 866 865
f 929 930 900
f 901 870 900
f 733 732 763
f 763 734 733
f 764 734 763
f 864 896 865
f 865 866 834
f 834 864 865
f 748 701 747
f 747 701 700
f 747 778 748
f 695 743 696
f 808 807 838
f 836 866 867
f 702 701 748
f 631 571 569
f 443 420 421
f 1295 417 1294
f 569 571 570
f 1337 1338 415
f 1331 1332 412
f 503 612 502
f 1335 413 1334
f 477 409 410
f 410 466 477
f 477 408 409
f 465 466 410
f 465 503 502
f 478 477 466
f 371 384 372
f 372 358 371
f 1140 1119 1118
f 1119 1095 1118
f 1017 1018 989
f 1146 1147 1124
f 822 853 854
f 854 823 822
f 729 728 759
f 788 789 759
f 730 731 683
f 683 682 730
f 730 682 729
f 729 759 730
f 1227 1026 1226
f 1026 1225 1226
f 1025 997 1223
f 1025 1026 997
f 1223 997 1222
f 997 1221 1222
f 996 997 967
f 996 1221 997
f 1220 1221 996
f 967 1220 996
f 1268 1269 967
f 967 938 1268
f 938 1219 1268
f 1105 1126 1127
f 1127 1128 1105
f 1105 1128 1106
f 1105 1106 1083
f 1271 1228 1053
f 1053 1228 1078
f 1078 1079 1054
f 1054 1053 1078
f 1083 1059 1058
f 1058 1032 1031
f 1058 1059 1032
f 1096 1095 1119
f 1072 1071 1096
f 1096 1071 1095
f 1044 1043 1070
f 1070 1043 1069
f 1069 1095 1070
f 1095 1071 1070
f 1066 1067 1040
f 713 712 13
f 13 712 11
f 712 9 11
f 11 12 13
f 10 12 11
f 11 9 10
f 15 13 14
f 14 16 15
f 15 713 13
f 18 16 350
f 18 351 20
f 350 351 18
f 714 21 715
f 1159 1140 1139
f 714 715 1157
f 356 41 38
f 38 355 356
f 42 41 356
f 356 355 369
f 1160 1140 1159
f 1160 1161 1140
f 1161 718 719
f 719 718 37
f 352 366 353
f 22 21 20
f 20 351 22
f 352 24 22
f 22 351 352
f 1033 1059 1034
f 1032 1059 1033
f 1085 1060 1059
f 1129 1108 1107
f 1107 1128 1129
f 1106 1128 1107
f 1037 1063 1064
f 1064 1088 1089
f 1063 1088 1064
f 1061 1085 1086
f 1060 1085 1061
f 1034 1060 1061
f 999 1026 1027
f 999 998 1026
f 296 297 674
f 424 531 532
f 532 531 533
f 517 621 523
f 517 675 508
f 517 523 675
f 784 1206 1265
f 1265 1207 784
f 1209 814 1208
f 814 1207 1208
f 785 754 784
f 785 784 814
f 816 786 785
f 757 727 756
f 756 727 726
f 817 788 787
f 787 786 817
f 787 788 757
f 757 756 787
f 787 756 786
f 1204 754 1203
f 1204 1205 754
f 1213 845 1266
f 1191 84 1256
f 155 269 157
f 157 154 155
f 244 245 270
f 270 269 244
f 157 269 270
f 174 327 172
f 174 172 175
f 330 328 391
f 330 391 390
f 304 199 303
f 304 303 399
f 399 398 304
f 708 1150 707
f 707 1235 708
f 1150 1235 707
f 1131 1130 1150
f 1132 1152 1153
f 711 1154 1153
f 1153 710 711
f 709 710 1153
f 1153 1152 709
f 46 49 47
f 47 44 46
f 46 44 45
f 358 49 46
f 1192 1193 85
f 86 1194 1195
f 88 207 104
f 104 87 88
f 207 209 104
f 104 86 87
f 1190 82 1260
f 1260 82 1259
f 208 82 120
f 213 245 244
f 1177 72 1182
f 76 1186 1251
f 1185 75 1184
f 436 454 453
f 453 452 436
f 407 454 406
f 406 454 405
f 406 1284 1285
f 450 430 432
f 934 935 904
f 964 935 934
f 934 933 964
f 963 933 932
f 752 753 705
f 705 751 752
f 783 753 752
f 750 751 703
f 989 960 959
f 959 930 929
f 960 930 959
f 991 990 1020
f 842 874 843
f 842 843 813
f 813 812 842
f 838 870 839
f 840 810 839
f 869 870 838
f 869 900 870
f 840 839 871
f 871 839 870
f 871 870 901
f 867 866 898
f 762 763 732
f 762 731 761
f 732 731 762
f 863 862 893
f 863 864 832
f 803 802 832
f 744 698 697
f 745 698 744
f 697 696 744
f 744 696 743
f 744 743 773
f 744 775 745
f 773 743 742
f 742 743 695
f 777 808 778
f 807 808 777
f 778 747 777
f 699 747 700
f 692 738 739
f 769 739 738
f 832 802 801
f 737 736 766
f 766 767 737
f 796 826 797
f 767 766 797
f 797 766 796
f 838 807 837
f 837 836 867
f 807 777 806
f 806 837 807
f 836 837 806
f 806 775 805
f 835 806 805
f 836 806 835
f 835 834 866
f 866 836 835
f 557 632 556
f 571 631 556
f 556 632 571
f 420 443 442
f 442 443 567
f 1299 419 1298
f 569 570 568
f 568 570 585
f 568 567 569
f 568 442 567
f 440 1295 1296
f 1296 418 440
f 417 1295 440
f 439 417 440
f 440 638 439
f 585 638 440
f 596 612 611
f 612 503 611
f 1292 414 1336
f 434 414 415
f 415 435 434
f 413 414 434
f 412 1332 1333
f 410 411 437
f 437 465 410
f 437 411 412
f 70 462 69
f 70 1249 1250
f 1250 1181 70
f 70 1181 71
f 457 462 449
f 449 458 457
f 463 70 71
f 462 70 463
f 449 462 463
f 370 383 384
f 384 371 370
f 369 382 370
f 382 383 370
f 370 371 358
f 1141 1119 1140
f 1140 1161 1141
f 1161 1142 1141
f 995 965 994
f 994 1023 995
f 664 663 1051
f 663 1023 1051
f 1024 663 662
f 1024 1023 663
f 1024 662 995
f 995 1023 1024
f 1016 1015 1044
f 1016 987 1015
f 1016 1017 987
f 1045 1046 1018
f 1018 1017 1045
f 1045 1016 1044
f 1017 1016 1045
f 1044 1070 1045
f 1045 1070 1071
f 1045 1071 1072
f 1072 1046 1045
f 988 1017 989
f 987 1017 988
f 989 959 988
f 988 959 987
f 1102 666 665
f 4 56 57
f 57 58 4
f 60 61 1172
f 1171 60 1172
f 853 822 821
f 792 823 793
f 792 822 823
f 792 821 822
f 792 762 761
f 793 763 792
f 763 762 792
f 760 730 759
f 761 731 760
f 731 730 760
f 758 759 728
f 758 727 757
f 728 727 758
f 757 788 758
f 788 759 758
f 1224 1025 1223
f 1224 1225 1026
f 1026 1025 1224
f 1104 1081 1103
f 1104 1105 1081
f 1273 1229 1104
f 1229 1126 1104
f 1126 1105 1104
f 1104 1231 1273
f 1103 1231 1104
f 1082 1105 1083
f 1081 1105 1082
f 1270 1053 1227
f 1270 1271 1053
f 1272 1078 1228
f 1080 1081 1055
f 1081 1056 1055
f 1054 1080 1055
f 1055 1029 1054
f 1056 1029 1055
f 1057 1058 1031
f 1031 1056 1057
f 1083 1058 1057
f 1057 1082 1083
f 1057 1056 1081
f 1081 1082 1057
f 1032 1033 1004
f 1031 1032 1004
f 1004 1003 1031
f 1030 1056 1031
f 1030 1029 1056
f 1031 1003 1030
f 1042 1067 1068
f 1068 1043 1042
f 1069 1043 1068
f 1012 1040 1013
f 1013 984 1012
f 1014 984 1013
f 17 15 16
f 16 18 17
f 714 713 17
f 713 15 17
f 1138 1157 1158
f 1159 1139 1158
f 1158 1139 1138
f 1158 715 1159
f 1158 1157 715
f 42 43 40
f 40 41 42
f 28 29 27
f 30 29 28
f 28 353 30
f 717 718 1161
f 1161 1160 717
f 717 1160 1159
f 718 717 33
f 33 32 34
f 26 353 28
f 28 27 26
f 26 24 352
f 352 353 26
f 354 355 34
f 34 32 354
f 367 355 354
f 32 30 354
f 354 30 353
f 354 366 367
f 354 353 366
f 1084 1059 1083
f 1084 1085 1059
f 1083 1106 1084
f 1106 1107 1084
f 1108 1085 1084
f 1084 1107 1108
f 917 886 916
f 1009 1036 1037
f 1008 1036 1009
f 1011 1040 1012
f 1066 1040 1065
f 1065 1064 1089
f 1062 1088 1063
f 1036 1061 1062
f 1062 1063 1037
f 1037 1036 1062
f 1034 1061 1035
f 1035 1061 1036
f 1035 1007 1034
f 1035 1036 1008
f 1008 1007 1035
f 824 823 854
f 1027 1054 1028
f 1054 1029 1028
f 946 917 916
f 999 971 970
f 969 998 970
f 998 999 970
f 1001 971 1000
f 1000 971 999
f 1000 1029 1001
f 1000 1028 1029
f 1000 999 1027
f 1027 1028 1000
f 973 1003 974
f 974 945 973
f 973 945 944
f 288 202 200
f 200 287 288
f 267 298 299
f 266 298 267
f 267 286 266
f 287 286 267
f 300 301 291
f 507 297 493
f 297 494 493
f 674 507 493
f 493 492 674
f 510 509 492
f 508 509 510
f 506 494 297
f 754 785 755
f 724 754 755
f 755 725 724
f 726 725 755
f 755 756 726
f 755 785 786
f 786 756 755
f 815 785 814
f 814 845 815
f 815 845 846
f 815 846 816
f 816 785 815
f 845 1213 1212
f 1267 876 1212
f 876 845 1212
f 387 344 342
f 345 154 156
f 156 154 157
f 90 345 91
f 90 154 345
f 1198 1256 90
f 90 1256 84
f 84 155 90
f 90 155 154
f 271 270 245
f 331 168 170
f 170 168 171
f 253 252 229
f 279 175 278
f 278 253 279
f 252 253 278
f 333 331 334
f 334 336 333
f 336 335 333
f 333 335 166
f 166 168 333
f 333 168 331
f 163 165 162
f 171 168 169
f 167 275 169
f 166 167 169
f 169 168 166
f 332 330 390
f 390 334 332
f 334 331 332
f 396 395 310
f 393 324 322
f 322 324 323
f 1237 1149 1236
f 1149 1275 1236
f 1238 1128 1276
f 1148 1149 1128
f 1148 1275 1149
f 1148 1238 1275
f 1128 1238 1148
f 1151 1152 1132
f 1132 1131 1151
f 1151 1131 1150
f 1151 1150 708
f 708 709 1151
f 709 1152 1151
f 1108 1130 1109
f 1130 1131 1109
f 1109 1131 1132
f 1086 1085 1109
f 1109 1085 1108
f 1091 1067 1066
f 1066 1065 1091
f 1140 1118 1117
f 1117 1139 1140
f 1138 1139 1117
f 1117 1116 1138
f 1117 1095 1094
f 1117 1118 1095
f 1156 1135 1155
f 1155 712 1156
f 712 713 1156
f 1156 713 714
f 714 1157 1156
f 1137 1157 1138
f 1137 1156 1157
f 1154 1155 1134
f 1155 1135 1134
f 1134 1153 1154
f 243 104 209
f 244 269 243
f 85 86 268
f 86 104 268
f 269 155 268
f 268 243 269
f 104 243 268
f 268 84 85
f 268 155 84
f 1257 1258 87
f 81 120 83
f 83 120 82
f 83 82 1190
f 1190 1255 83
f 83 1255 81
f 79 1188 1254
f 77 76 648
f 208 120 210
f 210 207 208
f 210 209 207
f 616 498 499
f 499 498 473
f 475 473 498
f 474 473 475
f 75 484 74
f 427 483 429
f 484 483 427
f 231 253 229
f 135 137 230
f 230 228 135
f 245 213 215
f 247 219 248
f 217 219 247
f 226 223 224
f 432 452 451
f 451 450 432
f 451 453 459
f 452 453 451
f 459 488 451
f 451 488 458
f 451 458 449
f 449 450 451
f 963 932 962
f 962 990 991
f 931 930 960
f 931 962 932
f 901 900 931
f 931 900 930
f 703 702 749
f 749 750 703
f 749 702 748
f 811 781 810
f 810 781 780
f 751 750 780
f 780 781 751
f 783 752 782
f 782 812 783
f 782 752 751
f 751 781 782
f 782 811 812
f 781 811 782
f 893 924 894
f 894 863 893
f 864 863 894
f 955 924 954
f 955 984 956
f 954 984 955
f 956 927 926
f 926 927 896
f 956 984 985
f 985 1014 1015
f 985 984 1014
f 928 959 929
f 1019 1020 990
f 989 1018 1019
f 1019 990 989
f 874 842 873
f 873 842 872
f 904 874 873
f 872 842 841
f 840 871 841
f 841 871 872
f 841 810 840
f 841 811 810
f 841 842 812
f 812 811 841
f 809 839 810
f 809 808 838
f 838 839 809
f 902 871 901
f 901 931 902
f 902 931 932
f 867 898 899
f 929 900 899
f 899 928 929
f 898 928 899
f 896 927 897
f 866 896 897
f 897 898 866
f 927 928 897
f 897 928 898
f 831 863 832
f 862 863 831
f 832 801 831
f 829 799 828
f 829 830 799
f 827 859 828
f 827 797 826
f 862 831 861
f 861 831 830
f 893 862 861
f 833 803 832
f 834 803 833
f 832 864 833
f 864 834 833
f 804 803 834
f 804 835 805
f 834 835 804
f 773 803 804
f 805 775 804
f 774 744 773
f 775 744 774
f 773 804 774
f 774 804 775
f 773 742 772
f 772 803 773
f 802 803 772
f 772 801 802
f 776 777 747
f 775 806 776
f 776 806 777
f 746 699 698
f 746 698 745
f 747 699 746
f 746 776 747
f 745 775 746
f 775 776 746
f 740 693 692
f 692 739 740
f 740 769 770
f 739 769 740
f 799 769 798
f 767 797 798
f 828 799 798
f 798 827 828
f 797 827 798
f 770 769 800
f 800 769 799
f 799 830 800
f 830 831 800
f 800 831 801
f 796 766 795
f 795 826 796
f 735 734 765
f 765 734 764
f 736 735 765
f 765 766 736
f 765 795 766
f 868 837 867
f 867 899 868
f 868 869 838
f 838 837 868
f 900 869 868
f 868 899 900
f 521 625 527
f 527 514 521
f 557 556 540
f 540 542 557
f 598 612 596
f 502 612 598
f 571 632 572
f 421 422 628
f 628 443 421
f 628 422 423
f 423 550 628
f 533 621 534
f 534 532 533
f 418 419 441
f 441 440 418
f 442 568 441
f 441 568 585
f 585 440 441
f 441 419 420
f 420 442 441
f 504 611 503
f 412 413 504
f 413 434 504
f 504 434 611
f 433 434 435
f 596 611 433
f 611 434 433
f 438 437 412
f 412 504 438
f 438 504 503
f 503 465 438
f 465 437 438
f 489 490 479
f 479 490 478
f 460 453 454
f 460 490 489
f 489 459 460
f 459 453 460
f 461 454 407
f 407 408 461
f 461 460 454
f 490 460 461
f 487 457 458
f 71 72 464
f 464 463 71
f 464 72 67
f 67 430 464
f 449 463 464
f 464 450 449
f 430 450 464
f 456 68 69
f 456 455 68
f 69 462 456
f 462 457 456
f 456 457 486
f 486 455 456
f 357 370 358
f 357 356 369
f 369 370 357
f 357 46 45
f 358 46 357
f 357 45 42
f 42 356 357
f 721 1163 720
f 720 1163 719
f 720 44 721
f 43 44 720
f 720 40 43
f 719 40 720
f 1162 1142 1161
f 1162 1163 1142
f 1161 719 1162
f 719 1163 1162
f 1145 1144 1165
f 1145 1166 1146
f 1165 1166 1145
f 1165 1144 1164
f 1164 1144 1163
f 721 1165 1164
f 1164 1163 721
f 1119 1141 1120
f 1120 1141 1142
f 1120 1096 1119
f 1098 1121 1099
f 1098 1120 1121
f 1144 1121 1143
f 1142 1163 1143
f 1163 1144 1143
f 1143 1120 1142
f 1121 1120 1143
f 993 965 964
f 993 994 965
f 1023 994 993
f 1077 1102 665
f 1077 665 664
f 664 1051 1077
f 1077 1051 1076
f 1076 1102 1077
f 667 666 1125
f 666 1102 1125
f 1125 1102 1124
f 1125 1147 667
f 1125 1124 1147
f 1076 1100 1101
f 1101 1102 1076
f 1124 1102 1101
f 820 789 819
f 879 909 910
f 847 878 879
f 907 938 908
f 938 909 908
f 908 878 907
f 908 879 878
f 909 879 908
f 938 968 939
f 939 909 938
f 910 909 939
f 854 853 884
f 819 818 849
f 849 818 817
f 1233 1079 1232
f 1079 1078 1232
f 1078 1272 1232
f 917 946 947
f 1001 1029 1002
f 1029 1030 1002
f 1002 1030 1003
f 1002 973 1001
f 1003 973 1002
f 1042 1014 1041
f 1014 1013 1041
f 1041 1013 1040
f 1041 1067 1042
f 1041 1040 1067
f 19 21 714
f 714 17 19
f 20 21 19
f 19 18 20
f 19 17 18
f 41 40 39
f 37 38 39
f 38 41 39
f 39 719 37
f 39 40 719
f 24 26 25
f 25 26 27
f 31 30 32
f 29 30 31
f 32 33 31
f 31 717 29
f 31 33 717
f 716 27 29
f 29 717 716
f 715 25 716
f 716 25 27
f 1159 715 716
f 716 717 1159
f 37 718 35
f 718 33 35
f 35 36 37
f 34 36 35
f 35 33 34
f 979 1007 1008
f 1008 1009 979
f 886 917 887
f 888 856 887
f 887 856 886
f 893 861 892
f 888 887 918
f 918 887 917
f 918 947 948
f 917 947 918
f 923 924 893
f 893 892 923
f 1038 1009 1037
f 1010 1009 1038
f 1037 1064 1038
f 1064 1065 1038
f 982 1011 1012
f 1088 1062 1087
f 1086 1109 1087
f 1087 1061 1086
f 1087 1062 1061
f 855 824 854
f 855 856 824
f 854 886 855
f 886 856 855
f 826 856 857
f 857 827 826
f 857 856 888
f 943 942 971
f 943 973 944
f 972 971 1001
f 1001 973 972
f 972 943 971
f 973 943 972
f 266 286 192
f 94 298 266
f 92 94 266
f 93 94 92
f 284 93 92
f 201 202 204
f 204 203 201
f 295 296 674
f 295 206 296
f 296 206 292
f 516 300 299
f 299 298 516
f 521 514 516
f 516 528 521
f 289 288 287
f 287 267 289
f 291 288 289
f 289 300 291
f 289 267 299
f 299 300 289
f 505 301 515
f 301 300 515
f 300 516 515
f 515 516 514
f 505 515 513
f 513 515 514
f 511 510 492
f 492 493 511
f 511 493 494
f 519 510 511
f 621 517 524
f 525 519 526
f 296 292 294
f 505 513 294
f 297 296 294
f 294 506 297
f 494 506 294
f 294 513 494
f 341 342 344
f 388 387 340
f 387 342 340
f 171 169 276
f 276 169 275
f 161 272 163
f 161 271 272
f 331 170 329
f 329 172 327
f 329 170 172
f 327 328 329
f 328 330 329
f 329 332 331
f 330 332 329
f 177 179 176
f 177 175 279
f 177 176 174
f 174 175 177
f 186 185 187
f 251 252 277
f 252 278 277
f 277 276 251
f 171 276 277
f 166 335 164
f 164 162 165
f 164 167 166
f 164 165 167
f 176 179 178
f 323 176 178
f 178 179 181
f 199 304 197
f 197 200 199
f 306 193 195
f 1132 1111 1110
f 1110 1109 1132
f 1110 1087 1109
f 1111 1088 1110
f 1088 1087 1110
f 1093 1117 1094
f 1116 1117 1093
f 1094 1069 1093
f 1069 1068 1093
f 1093 1068 1067
f 1090 1065 1089
f 1090 1091 1065
f 1138 1116 1115
f 1115 1137 1138
f 1135 1156 1136
f 1156 1137 1136
f 1132 1153 1133
f 1153 1134 1133
f 1133 1111 1132
f 1133 1134 1111
f 1111 1134 1112
f 1089 1088 1112
f 1112 1088 1111
f 78 79 1254
f 1254 1187 78
f 78 1187 77
f 647 648 76
f 79 78 103
f 121 107 113
f 121 210 120
f 211 213 244
f 244 243 211
f 211 243 209
f 213 211 214
f 1252 74 1183
f 73 76 1251
f 73 74 425
f 425 647 73
f 73 647 76
f 476 475 429
f 429 483 476
f 474 475 476
f 485 483 484
f 485 484 75
f 485 455 486
f 486 483 485
f 75 68 485
f 68 455 485
f 426 427 425
f 484 427 426
f 425 74 426
f 426 74 484
f 150 130 149
f 149 593 150
f 150 593 584
f 130 150 132
f 115 118 117
f 138 137 135
f 224 223 221
f 248 219 221
f 220 219 217
f 272 247 273
f 163 272 273
f 273 165 163
f 273 247 248
f 245 215 246
f 246 247 272
f 246 215 217
f 217 247 246
f 246 271 245
f 272 271 246
f 223 226 225
f 225 226 228
f 499 473 472
f 990 962 961
f 961 960 989
f 989 990 961
f 961 931 960
f 962 931 961
f 748 778 779
f 779 749 748
f 750 749 779
f 779 780 750
f 778 808 779
f 808 809 779
f 810 780 779
f 779 809 810
f 895 894 924
f 896 864 895
f 864 894 895
f 1015 987 986
f 986 985 1015
f 957 927 956
f 957 928 927
f 957 986 987
f 956 985 957
f 985 986 957
f 1047 1046 1072
f 1018 1046 1047
f 1047 1019 1018
f 903 932 933
f 903 902 932
f 903 934 904
f 933 934 903
f 904 873 903
f 903 873 872
f 872 871 903
f 871 902 903
f 828 859 860
f 860 829 828
f 859 890 860
f 860 892 861
f 830 829 860
f 860 861 830
f 741 694 693
f 693 740 741
f 695 694 741
f 741 742 695
f 741 772 742
f 767 798 768
f 768 798 769
f 738 767 768
f 768 769 738
f 794 763 793
f 764 763 794
f 824 795 794
f 794 765 764
f 795 765 794
f 793 823 794
f 823 824 794
f 826 795 825
f 825 795 824
f 825 856 826
f 824 856 825
f 541 527 625
f 625 542 541
f 542 540 541
f 597 598 596
f 578 580 590
f 586 570 571
f 571 572 586
f 586 638 585
f 585 570 586
f 586 572 587
f 549 423 444
f 549 550 423
f 532 534 549
f 549 444 424
f 424 532 549
f 535 534 621
f 535 524 622
f 621 524 535
f 622 536 535
f 535 536 534
f 537 536 622
f 622 525 537
f 534 536 551
f 550 549 551
f 551 549 534
f 594 433 435
f 594 435 439
f 439 638 594
f 614 500 469
f 478 490 491
f 490 461 491
f 491 461 408
f 408 477 491
f 477 478 491
f 1146 1124 1123
f 1123 1145 1146
f 1124 1101 1123
f 1123 1101 1100
f 1123 1100 1099
f 1144 1145 1123
f 1072 1096 1097
f 1097 1098 1072
f 1096 1120 1097
f 1120 1098 1097
f 963 962 992
f 992 962 991
f 992 964 963
f 992 993 964
f 991 1020 992
f 1076 1051 1050
f 1075 1100 1076
f 1076 1050 1075
f 1075 1050 1049
f 1099 1100 1075
f 1075 1074 1099
f 789 820 790
f 790 759 789
f 790 760 759
f 761 760 790
f 940 968 969
f 940 939 968
f 910 939 940
f 969 970 940
f 940 911 910
f 883 884 853
f 916 886 915
f 915 946 916
f 945 946 915
f 847 879 848
f 879 849 848
f 848 849 817
f 817 816 848
f 848 816 847
f 948 947 976
f 976 947 946
f 24 25 23
f 21 22 23
f 23 22 24
f 23 715 21
f 23 25 715
f 980 979 1009
f 919 890 889
f 888 918 889
f 889 918 919
f 889 857 888
f 889 890 859
f 891 860 890
f 892 860 891
f 1039 1011 1010
f 1010 1038 1039
f 1040 1011 1039
f 1039 1065 1040
f 1039 1038 1065
f 983 984 954
f 954 982 983
f 1012 984 983
f 983 982 1012
f 1010 1011 981
f 1011 982 981
f 981 1009 1010
f 981 980 1009
f 859 827 858
f 827 857 858
f 858 889 859
f 857 889 858
f 910 911 880
f 880 879 910
f 880 849 879
f 942 943 912
f 912 911 942
f 882 911 912
f 191 192 190
f 263 192 191
f 298 94 522
f 528 516 522
f 522 516 298
f 285 93 284
f 285 627 93
f 528 522 626
f 265 192 263
f 266 192 265
f 265 92 266
f 205 204 206
f 674 302 205
f 302 203 205
f 203 204 205
f 205 295 674
f 206 295 205
f 206 204 290
f 291 292 290
f 290 292 206
f 290 288 291
f 202 288 290
f 290 204 202
f 293 301 505
f 505 294 293
f 293 294 292
f 291 301 293
f 293 292 291
f 520 513 514
f 514 527 520
f 508 510 518
f 518 510 519
f 519 525 518
f 622 524 518
f 518 525 622
f 518 517 508
f 518 524 517
f 342 341 339
f 339 340 342
f 345 156 343
f 343 341 344
f 343 156 158
f 158 341 343
f 344 346 343
f 346 345 343
f 338 335 336
f 388 340 338
f 338 389 388
f 338 336 389
f 250 276 275
f 251 276 250
f 250 225 251
f 223 225 250
f 158 161 160
f 162 339 160
f 163 162 160
f 160 161 163
f 160 341 158
f 160 339 341
f 270 271 159
f 271 161 159
f 157 270 159
f 159 161 158
f 159 156 157
f 158 156 159
f 316 310 395
f 316 395 394
f 394 393 320
f 393 322 320
f 186 313 184
f 184 185 186
f 182 185 184
f 313 314 184
f 183 185 182
f 186 187 188
f 190 194 188
f 99 187 185
f 185 183 99
f 173 278 175
f 173 277 278
f 171 277 173
f 173 175 172
f 173 170 171
f 172 170 173
f 182 317 180
f 180 178 181
f 181 183 180
f 180 183 182
f 264 283 284
f 264 265 263
f 284 92 264
f 92 265 264
f 239 242 95
f 284 283 95
f 564 548 565
f 565 636 564
f 548 564 563
f 565 548 143
f 241 242 239
f 547 242 241
f 241 548 547
f 237 257 235
f 239 95 258
f 258 95 283
f 258 237 239
f 257 237 258
f 200 197 198
f 198 287 200
f 198 286 287
f 198 197 195
f 307 306 397
f 307 397 396
f 193 306 307
f 305 197 304
f 305 304 398
f 195 197 305
f 305 306 195
f 398 397 305
f 397 306 305
f 1067 1091 1092
f 1092 1093 1067
f 1116 1093 1092
f 1092 1115 1116
f 1137 1115 1114
f 1114 1136 1137
f 1114 1092 1091
f 1115 1092 1114
f 77 648 649
f 649 78 77
f 649 103 78
f 610 118 116
f 116 619 610
f 116 118 115
f 425 427 428
f 428 647 425
f 610 619 496
f 619 428 496
f 496 427 429
f 496 428 427
f 79 103 80
f 105 120 81
f 81 80 105
f 105 80 103
f 105 121 120
f 107 121 105
f 216 215 213
f 213 214 216
f 210 121 122
f 122 121 113
f 122 113 115
f 582 583 592
f 592 583 584
f 482 487 474
f 474 476 482
f 486 457 482
f 457 487 482
f 482 483 486
f 482 476 483
f 607 593 646
f 646 593 149
f 151 150 584
f 151 132 150
f 584 583 151
f 228 226 133
f 135 228 133
f 119 118 610
f 610 609 119
f 608 617 607
f 607 646 608
f 608 646 609
f 498 616 606
f 606 617 498
f 616 605 606
f 606 605 607
f 607 617 606
f 429 475 497
f 497 475 498
f 498 617 497
f 232 234 231
f 232 230 137
f 232 231 229
f 229 230 232
f 139 232 137
f 234 232 139
f 231 234 233
f 233 234 235
f 280 177 279
f 179 177 280
f 136 138 135
f 144 138 136
f 135 133 136
f 637 583 582
f 130 132 129
f 222 221 219
f 219 220 222
f 224 221 222
f 222 129 224
f 167 165 274
f 165 273 274
f 274 275 167
f 274 273 248
f 227 252 251
f 251 225 227
f 227 225 228
f 229 252 227
f 227 230 229
f 228 230 227
f 499 472 471
f 481 473 474
f 481 472 473
f 474 487 481
f 488 472 481
f 458 488 481
f 481 487 458
f 925 926 896
f 896 895 925
f 925 895 924
f 924 955 925
f 925 955 956
f 956 926 925
f 959 928 958
f 928 957 958
f 987 959 958
f 958 957 987
f 1073 1047 1072
f 1072 1098 1073
f 1099 1074 1073
f 1073 1098 1099
f 1020 1019 1048
f 1019 1047 1048
f 1074 1075 1048
f 1048 1075 1049
f 1048 1073 1074
f 1047 1073 1048
f 772 741 771
f 801 772 771
f 771 740 770
f 771 741 740
f 770 800 771
f 771 800 801
f 557 542 559
f 545 626 627
f 579 580 578
f 636 580 579
f 579 564 636
f 598 597 641
f 614 600 601
f 643 603 601
f 502 598 613
f 623 525 526
f 623 537 525
f 550 551 552
f 555 556 631
f 631 554 555
f 555 540 556
f 638 586 639
f 639 594 638
f 639 586 587
f 574 640 587
f 574 633 575
f 467 465 502
f 466 465 467
f 1099 1121 1122
f 1122 1123 1099
f 1122 1121 1144
f 1144 1123 1122
f 1021 992 1020
f 1020 1048 1021
f 1021 1048 1049
f 1049 1050 1021
f 993 992 1021
f 791 820 821
f 791 790 820
f 821 792 791
f 791 792 761
f 761 790 791
f 850 820 819
f 850 851 820
f 819 849 850
f 882 851 850
f 941 940 970
f 941 970 971
f 971 942 941
f 942 911 941
f 911 940 941
f 852 851 882
f 882 883 852
f 852 883 853
f 853 821 852
f 821 820 852
f 820 851 852
f 885 915 886
f 885 886 854
f 854 884 885
f 1034 1007 1006
f 1004 976 975
f 974 1003 975
f 1003 1004 975
f 975 976 946
f 975 945 974
f 975 946 945
f 914 943 944
f 944 945 914
f 945 915 914
f 884 883 914
f 914 885 884
f 915 885 914
f 543 625 528
f 528 626 543
f 543 542 625
f 543 559 542
f 93 627 529
f 627 626 529
f 529 94 93
f 529 522 94
f 529 626 522
f 526 519 512
f 512 520 526
f 513 520 512
f 519 511 512
f 494 513 512
f 512 511 494
f 340 339 337
f 337 338 340
f 335 338 337
f 337 339 162
f 337 164 335
f 162 164 337
f 249 221 223
f 223 250 249
f 248 221 249
f 249 250 275
f 249 274 248
f 275 274 249
f 318 316 394
f 317 316 318
f 394 320 318
f 319 180 317
f 317 318 319
f 319 318 320
f 310 316 315
f 315 314 310
f 315 184 314
f 315 316 317
f 315 317 182
f 182 184 315
f 308 314 313
f 193 307 308
f 263 191 261
f 100 99 183
f 100 183 181
f 98 99 100
f 96 95 242
f 96 242 547
f 284 95 96
f 547 627 96
f 565 143 142
f 141 146 142
f 240 143 548
f 548 241 240
f 240 241 239
f 101 281 98
f 98 100 101
f 239 237 238
f 238 240 239
f 143 240 238
f 141 142 238
f 238 142 143
f 98 281 260
f 196 192 286
f 286 198 196
f 196 194 190
f 190 192 196
f 196 198 195
f 196 193 194
f 195 193 196
f 1135 1136 1113
f 1136 1114 1113
f 1113 1134 1135
f 1113 1112 1134
f 1113 1090 1089
f 1089 1112 1113
f 1091 1090 1113
f 1113 1114 1091
f 113 107 112
f 124 216 214
f 210 122 212
f 212 214 211
f 209 210 212
f 212 211 209
f 584 593 645
f 645 592 584
f 605 592 645
f 607 605 645
f 645 593 607
f 499 471 615
f 615 471 500
f 615 616 499
f 591 603 643
f 643 590 591
f 591 590 580
f 131 133 226
f 131 129 132
f 131 226 224
f 224 129 131
f 110 117 118
f 118 119 110
f 110 124 117
f 108 110 119
f 108 119 609
f 610 496 618
f 618 609 610
f 618 608 609
f 618 496 429
f 429 497 618
f 617 608 618
f 618 497 617
f 137 138 140
f 140 139 137
f 140 146 141
f 141 139 140
f 236 139 141
f 236 237 235
f 235 234 236
f 234 139 236
f 141 238 236
f 236 238 237
f 279 253 254
f 254 280 279
f 253 231 254
f 255 280 254
f 231 233 254
f 254 233 255
f 152 151 583
f 581 637 582
f 582 591 581
f 581 591 580
f 581 580 636
f 636 637 581
f 144 637 145
f 145 138 144
f 145 140 138
f 146 140 145
f 566 637 636
f 566 636 565
f 146 145 566
f 566 145 637
f 565 142 566
f 566 142 146
f 470 469 500
f 500 471 470
f 479 469 470
f 546 627 547
f 546 545 627
f 546 563 562
f 547 548 546
f 548 563 546
f 545 546 561
f 561 546 562
f 634 577 575
f 634 561 562
f 560 561 634
f 634 633 560
f 575 633 634
f 558 559 560
f 560 633 558
f 558 632 557
f 557 559 558
f 564 579 635
f 578 577 635
f 635 579 578
f 562 563 635
f 635 563 564
f 635 634 562
f 577 634 635
f 597 640 588
f 588 641 597
f 640 574 588
f 588 574 575
f 614 601 602
f 602 601 603
f 602 500 614
f 602 615 500
f 642 590 643
f 643 601 642
f 578 590 642
f 642 589 578
f 642 601 600
f 641 589 642
f 624 623 526
f 526 520 624
f 624 520 527
f 527 541 624
f 569 567 630
f 630 631 569
f 630 554 631
f 567 443 629
f 629 630 567
f 552 630 629
f 550 552 629
f 443 628 629
f 629 628 550
f 538 555 554
f 537 623 538
f 596 433 595
f 433 594 595
f 594 639 595
f 587 640 595
f 595 639 587
f 595 597 596
f 595 640 597
f 633 574 573
f 573 572 632
f 587 572 573
f 573 574 587
f 632 558 573
f 573 558 633
f 502 613 501
f 501 467 502
f 501 600 614
f 501 613 600
f 614 469 501
f 468 478 466
f 466 467 468
f 468 479 478
f 468 469 479
f 468 501 469
f 467 501 468
f 1023 993 1022
f 993 1021 1022
f 1022 1021 1050
f 1022 1051 1023
f 1022 1050 1051
f 882 850 881
f 881 911 882
f 881 880 911
f 849 880 881
f 881 850 849
f 1005 976 1004
f 1005 1006 976
f 1005 1004 1033
f 1005 1033 1034
f 1034 1006 1005
f 976 1006 977
f 948 976 977
f 921 891 890
f 892 891 921
f 979 980 950
f 980 951 950
f 951 921 950
f 980 981 952
f 952 951 980
f 952 921 951
f 913 912 943
f 943 914 913
f 913 914 883
f 913 883 882
f 882 912 913
f 626 545 544
f 544 543 626
f 559 543 544
f 545 561 544
f 560 559 544
f 544 561 560
f 178 180 321
f 180 319 321
f 321 322 323
f 323 178 321
f 321 320 322
f 321 319 320
f 312 308 313
f 193 308 312
f 310 314 309
f 314 308 309
f 396 310 309
f 309 307 396
f 309 308 307
f 189 188 187
f 190 188 189
f 189 191 190
f 189 261 191
f 102 100 181
f 102 280 255
f 255 101 102
f 102 101 100
f 181 179 102
f 179 280 102
f 97 285 284
f 284 96 97
f 627 285 97
f 97 96 627
f 255 233 256
f 256 101 255
f 256 233 235
f 281 101 256
f 235 257 256
f 257 281 256
f 282 281 257
f 282 260 281
f 257 258 282
f 282 258 283
f 103 649 106
f 107 105 106
f 106 105 103
f 113 112 114
f 115 113 114
f 114 116 115
f 619 116 114
f 495 428 619
f 495 649 648
f 619 114 495
f 495 114 112
f 648 647 495
f 647 428 495
f 218 220 217
f 217 215 218
f 215 216 218
f 123 124 214
f 214 212 123
f 123 212 122
f 123 122 115
f 115 117 123
f 117 124 123
f 604 603 605
f 604 605 616
f 616 615 604
f 604 602 603
f 615 602 604
f 603 591 644
f 644 592 605
f 605 603 644
f 582 592 644
f 644 591 582
f 130 129 127
f 127 222 220
f 129 222 127
f 148 646 149
f 153 152 583
f 153 637 144
f 583 637 153
f 144 136 153
f 136 152 153
f 132 151 134
f 151 152 134
f 134 152 136
f 134 136 133
f 134 131 132
f 133 131 134
f 489 479 480
f 479 470 480
f 480 459 489
f 480 488 459
f 480 472 488
f 480 471 472
f 480 470 471
f 576 589 641
f 641 588 576
f 576 577 578
f 578 589 576
f 575 577 576
f 576 588 575
f 599 642 600
f 599 613 598
f 600 613 599
f 598 641 599
f 641 642 599
f 536 537 553
f 537 538 553
f 553 551 536
f 553 552 551
f 553 538 554
f 554 630 553
f 553 630 552
f 623 624 539
f 539 538 623
f 539 541 540
f 539 624 541
f 540 555 539
f 555 538 539
f 948 977 978
f 1007 979 978
f 978 1006 1007
f 978 977 1006
f 949 950 919
f 949 918 948
f 919 918 949
f 948 978 949
f 979 950 949
f 949 978 979
f 919 950 920
f 920 950 921
f 920 890 919
f 920 921 890
f 923 952 953
f 954 924 953
f 924 923 953
f 953 982 954
f 953 981 982
f 953 952 981
f 922 952 923
f 921 952 922
f 922 923 892
f 892 921 922
f 194 193 311
f 193 312 311
f 311 188 194
f 186 188 311
f 311 313 186
f 311 312 313
f 259 189 187
f 98 260 259
f 259 260 261
f 261 189 259
f 259 99 98
f 187 99 259
f 262 282 283
f 263 261 262
f 261 260 262
f 260 282 262
f 262 264 263
f 283 264 262
f 649 495 111
f 111 495 112
f 111 106 649
f 111 112 107
f 107 106 111
f 124 110 125
f 216 124 125
f 125 218 216
f 646 148 147
f 609 646 147
f 147 108 609
f 109 125 110
f 109 147 148
f 110 108 109
f 108 147 109
f 220 218 126
f 218 125 126
f 126 127 220
f 125 109 126
f 128 148 149
f 128 109 148
f 149 130 128
f 130 127 128
f 127 126 128
f 128 126 109
f 1364 1321 63
f 63 1247 1364
f 679 1350 1307
f 680 1350 679
f 650 674 675
f 675 1346 650
f 1351 1350 681
f 681 1350 680
f 1351 681 1352
f 1352 681 682
f 683 1353 1352
f 1352 682 683
f 1308 1353 684
f 684 1353 683
f 424 1303 1346
f 1346 675 424
f 677 1348 1347
f 1347 676 677
f 63 1321 1278
f 1278 400 63
f 1312 691 692
f 1311 691 1312
f 653 1320 706
f 652 1320 653
f 678 679 1307
f 1307 1349 678
f 678 1349 1348
f 1348 677 678
f 1277 1173 3
f 2 1277 3
f 3 1173 4
f 400 1278 1279
f 401 400 1279
f 403 1281 1323
f 402 1281 403
f 1362 704 1363
f 1363 704 705
f 706 1320 1363
f 1363 705 706
f 1319 704 1362
f 703 704 1319
f 410 409 1288
f 1288 409 1330
f 1286 1287 408
f 408 1287 409
f 1324 405 404
f 1325 405 1324
f 1283 404 1282
f 404 403 1282
f 1357 691 1311
f 1357 690 691
f 687 688 1356
f 1356 1355 687
f 687 1355 1354
f 1354 686 687
f 1301 421 1300
f 421 420 1300
f 1339 1294 417
f 417 416 1339
f 1293 416 415
f 415 1338 1293
f 1289 1290 411
f 410 1289 411
f 1168 54 1170
f 1170 54 59
f 1343 1344 422
f 422 1344 423
f 1302 1342 422
f 421 1302 422
f 89 1200 1201
f 89 1201 91
f 1178 1179 68
f 68 1179 69
f 654 674 650
f 1305 651 654
f 650 1304 654
f 654 663 664
f 655 656 654
f 669 670 654
f 654 1304 1305
f 657 658 654
f 654 668 669
f 654 659 660
f 654 666 667
f 660 661 654
f 664 665 654
f 652 653 654
f 671 672 654
f 654 661 662
f 662 663 654
f 667 668 654
f 654 673 674
f 654 658 659
f 654 656 657
f 654 651 652
f 654 670 671
f 672 673 654
f 665 666 654
f 1310 688 689
f 1310 1356 688
f 690 1357 1310
f 689 690 1310
f 1308 684 1309
f 1309 684 685
f 686 1354 1309
f 685 686 1309
f 693 1312 692
f 693 1313 1312
f 1316 1315 696
f 696 1315 695
f 702 1319 1361
f 703 1319 702
f 1360 702 1361
f 701 702 1360
f 1360 1359 700
f 700 701 1360
f 1299 1340 419
f 419 1340 420
f 1331 411 1291
f 412 411 1331
f 1292 1337 414
f 414 1337 415
f 85 84 1192
f 1192 84 1191
f 1193 1194 86
f 85 1193 86
f 1196 88 1258
f 88 87 1258
f 1182 72 71
f 71 1181 1182
f 1187 1186 76
f 77 1187 76
f 1285 1327 406
f 406 1327 407
f 1326 1284 406
f 406 405 1326
f 699 1359 1318
f 700 1359 699
f 1358 699 1318
f 698 699 1358
f 694 1315 1314
f 695 1315 694
f 1314 1313 694
f 1313 693 694
f 418 1297 1298
f 1298 419 418
f 1336 413 1335
f 1336 414 413
f 1333 413 412
f 1333 1334 413
f 1180 1249 70
f 69 1180 70
f 4 1173 62
f 1173 1174 62
f 62 56 4
f 56 62 57
f 57 62 61
f 60 58 57
f 57 61 60
f 1172 62 1174
f 61 62 1172
f 90 1199 1198
f 91 1199 90
f 1257 86 1195
f 87 86 1257
f 1252 1184 74
f 74 1184 75
f 1280 1279 1317
f 1307 1350 1317
f 1317 1320 1305
f 1305 1304 1317
f 1317 1306 1347
f 1317 1294 1339
f 1364 1322 1317
f 1321 1364 1317
f 1317 1353 1308
f 1317 1349 1307
f 1351 1352 1317
f 1317 1313 1314
f 1317 1304 1346
f 1317 1322 1306
f 1347 1348 1317
f 1299 1298 1317
f 1317 1324 1283
f 1326 1325 1317
f 1317 1319 1362
f 1339 1293 1317
f 1317 1350 1351
f 1346 1303 1317
f 1317 1278 1321
f 1328 1327 1317
f 1323 1281 1317
f 1317 1310 1357
f 1362 1363 1317
f 1317 1288 1330
f 1317 1352 1353
f 1348 1349 1317
f 1303 1345 1317
f 1317 1287 1286
f 1317 1281 1280
f 1311 1312 1317
f 1317 1282 1323
f 1356 1310 1317
f 1308 1309 1317
f 1317 1340 1299
f 1318 1359 1317
f 1291 1290 1317
f 1338 1337 1317
f 1343 1342 1317
f 1317 1279 1278
f 1317 1302 1301
f 1312 1313 1317
f 1317 1357 1311
f 1317 1363 1320
f 1361 1319 1317
f 1317 1360 1361
f 1301 1300 1317
f 1317 1358 1318
f 1317 1290 1289
f 1289 1288 1317
f 1330 1287 1317
f 1286 1329 1317
f 1325 1324 1317
f 1345 1344 1317
f 1283 1282 1317
f 1317 1284 1326
f 1355 1356 1317
f 1317 1354 1355
f 1335 1334 1317
f 1314 1315 1317
f 1317 1300 1341
f 1341 1340 1317
f 1317 1297 1296
f 1296 1295 1317
f 1317 1293 1338
f 1317 1331 1291
f 1317 1329 1328
f 1317 1342 1302
f 1317 1344 1343
f 1317 1327 1285
f 1285 1284 1317
f 1317 1309 1354
f 1317 1315 1316
f 1359 1360 1317
f 1317 1295 1294
f 1317 1337 1292
f 1332 1331 1317
f 1317 1336 1335
f 1317 1333 1332
f 1317 1298 1297
f 1292 1336 1317
f 1334 1333 1317
f 1316 696 1317
f 1317 696 697
f 698 1358 1317
f 697 698 1317
f 1183 1202 1322
f 1262 1202 1183
f 1183 1364 1247
f 1183 1176 1177
f 1169 1244 1183
f 1201 1200 1183
f 1183 1263 1262
f 1183 1274 1233
f 1183 1322 1364
f 1171 1172 1183
f 1183 1216 1215
f 1183 1261 1167
f 1183 1246 1171
f 1183 1249 1180
f 1183 1210 1209
f 1183 1277 1234
f 1251 1186 1183
f 1247 1248 1183
f 1183 1200 1261
f 1183 1197 1196
f 1241 1240 1183
f 1227 1226 1183
f 1218 1217 1183
f 1203 1264 1183
f 1183 1173 1277
f 1175 1176 1183
f 1195 1194 1183
f 1254 1188 1183
f 1183 1243 1168
f 1167 1242 1183
f 1183 1245 1169
f 1276 1239 1183
f 1273 1231 1183
f 1266 1211 1183
f 1183 1204 1203
f 1183 1248 1175
f 1183 1214 1267
f 1237 1236 1183
f 1183 1199 1201
f 1183 1253 1185
f 1183 1187 1254
f 1183 1244 1243
f 1183 1242 1241
f 1168 1170 1183
f 1183 1220 1269
f 1183 1219 1218
f 1183 1229 1273
f 1183 1264 1263
f 1183 1270 1227
f 1183 1265 1206
f 1209 1208 1183
f 1191 1256 1183
f 1234 1235 1183
f 1183 1189 1255
f 1196 1258 1183
f 1190 1260 1183
f 1180 1179 1183
f 1177 1182 1183
f 1183 1170 1246
f 1183 1240 1245
f 1185 1184 1183
f 1183 1221 1220
f 1223 1222 1183
f 1183 1231 1230
f 1183 1239 1229
f 1230 1274 1183
f 1269 1268 1183
f 1217 1216 1183
f 1183 1224 1223
f 1206 1205 1183
f 1183 1211 1210
f 1215 1214 1183
f 1183 1235 1237
f 1183 1192 1191
f 1198 1199 1183
f 1259 1197 1183
f 1183 1255 1190
f 1183 1179 1178
f 1250 1249 1183
f 1183 1181 1250
f 1178 1253 1183
f 1233 1232 1183
f 1183 1186 1187
f 1183 1174 1173
f 1183 1226 1225
f 1183 1222 1221
f 1183 1268 1219
f 1228 1271 1183
f 1207 1265 1183
f 1183 1208 1207
f 1205 1204 1183
f 1183 1213 1266
f 1183 1256 1198
f 1267 1212 1183
f 1193 1192 1183
f 1183 1194 1193
f 1183 1238 1276
f 1183 1260 1259
f 1183 1257 1195
f 1183 1182 1181
f 1183 1184 1252
f 1183 1172 1174
f 1225 1224 1183
f 1271 1270 1183
f 1183 1272 1228
f 1183 1212 1213
f 1183 1236 1275
f 1275 1238 1183
f 1258 1257 1183
f 1188 1189 1183
f 1183 1232 1272
f 1251 1183 73
f 73 1183 74
f 1255 1189 80
f 81 1255 80
f 80 1189 1188
f 1188 79 80

