# https://github.com/mikedh/trimesh
v 0.00000000 0.04000000 0.02000000
v 0.00088467 0.04000000 0.01998043
v 0.00176760 0.04000000 0.01992174
v 0.00352137 0.04000000 0.01968756
v 0.00438877 0.04000000 0.01951253
v 0.00524758 0.04000000 0.01929930
v 0.00693272 0.04000000 0.01876000
v 0.00775575 0.04000000 0.01843498
v 0.00935469 0.04000000 0.01767738
v 0.01012746 0.04000000 0.01724629
v 0.01161206 0.04000000 0.01628374
v 0.01232098 0.04000000 0.01575416
v 0.01366512 0.04000000 0.01460358
v 0.01429771 0.04000000 0.01398483
v 0.01490231 0.04000000 0.01333871
v 0.01602287 0.04000000 0.01196945
v 0.01653664 0.04000000 0.01124899
v 0.01746611 0.04000000 0.00974346
v 0.01860204 0.04000000 0.00734603
v 0.01890877 0.04000000 0.00651601
v 0.01917849 0.04000000 0.00567324
v 0.01941066 0.04000000 0.00481935
v 0.01960484 0.04000000 0.00395604
v 0.01976064 0.04000000 0.00308498
v 0.01987776 0.04000000 0.00220788
v 0.01995596 0.04000000 0.00132646
v 0.01999511 0.04000000 0.00044244
v 0.01999511 0.04000000 -0.00044244
v 0.01995596 0.04000000 -0.00132646
v 0.01976064 0.04000000 -0.00308498
v 0.01890877 0.04000000 -0.00651601
v 0.01860204 0.04000000 -0.00734603
v 0.01825889 0.04000000 -0.00816167
v 0.01788000 0.04000000 -0.00896134
v 0.01746611 0.04000000 -0.00974346
v 0.01701803 0.04000000 -0.01050651
v 0.01653664 0.04000000 -0.01124899
v 0.01602287 0.04000000 -0.01196945
v 0.01547774 0.04000000 -0.01266648
v 0.01490231 0.04000000 -0.01333871
v 0.01429771 0.04000000 -0.01398483
v 0.01366512 0.04000000 -0.01460358
v 0.01300578 0.04000000 -0.01519374
v 0.01232098 0.04000000 -0.01575416
v 0.00935469 0.04000000 -0.01767738
v 0.00856360 0.04000000 -0.01807387
v 0.00775575 0.04000000 -0.01843498
v 0.00524758 0.04000000 -0.01929930
v 0.00264708 0.04000000 -0.01982405
v 0.00176760 0.04000000 -0.01992174
v 0.00088467 0.04000000 -0.01998043
v 0.00000000 0.04000000 -0.02000000
v 0.00000000 0.00000000 0.02000000
v 0.00176760 0.00000000 0.01992174
v 0.00264708 0.00000000 0.01982405
v 0.00352137 0.00000000 0.01968756
v 0.00438877 0.00000000 0.01951253
v 0.00524758 0.00000000 0.01929930
v 0.00609612 0.00000000 0.01904829
v 0.00775575 0.00000000 0.01843498
v 0.00935469 0.00000000 0.01767738
v 0.01012746 0.00000000 0.01724629
v 0.01088041 0.00000000 0.01678144
v 0.01161206 0.00000000 0.01628374
v 0.01232098 0.00000000 0.01575416
v 0.01366512 0.00000000 0.01460358
v 0.01490231 0.00000000 0.01333871
v 0.01547774 0.00000000 0.01266648
v 0.01653664 0.00000000 0.01124899
v 0.01701803 0.00000000 0.01050651
v 0.01825889 0.00000000 0.00816167
v 0.01860204 0.00000000 0.00734603
v 0.01890877 0.00000000 0.00651601
v 0.01917849 0.00000000 0.00567324
v 0.01941066 0.00000000 0.00481935
v 0.01960484 0.00000000 0.00395604
v 0.01976064 0.00000000 0.00308498
v 0.01987776 0.00000000 0.00220788
v 0.01995596 0.00000000 0.00132646
v 0.01999511 0.00000000 0.00044244
v 0.01995596 0.00000000 -0.00132646
v 0.01987776 0.00000000 -0.00220788
v 0.01976064 0.00000000 -0.00308498
v 0.01960484 0.00000000 -0.00395604
v 0.01917849 0.00000000 -0.00567324
v 0.01890877 0.00000000 -0.00651601
v 0.01860204 0.00000000 -0.00734603
v 0.01825889 0.00000000 -0.00816167
v 0.01788000 0.00000000 -0.00896134
v 0.01746611 0.00000000 -0.00974346
v 0.01701803 0.00000000 -0.01050651
v 0.01653664 0.00000000 -0.01124899
v 0.01602287 0.00000000 -0.01196945
v 0.01547774 0.00000000 -0.01266648
v 0.01429771 0.00000000 -0.01398483
v 0.01300578 0.00000000 -0.01519374
v 0.01232098 0.00000000 -0.01575416
v 0.01088041 0.00000000 -0.01678144
v 0.00856360 0.00000000 -0.01807387
v 0.00609612 0.00000000 -0.01904829
v 0.00524758 0.00000000 -0.01929930
v 0.00352137 0.00000000 -0.01968756
v 0.00264708 0.00000000 -0.01982405
v 0.00088467 0.00000000 -0.01998043
v 0.00000000 0.00000000 -0.02000000
v -0.00088467 0.04000000 -0.01998043
v -0.00264708 0.04000000 -0.01982405
v -0.00352137 0.04000000 -0.01968756
v -0.00438877 0.04000000 -0.01951253
v -0.00609612 0.04000000 -0.01904829
v -0.00693272 0.04000000 -0.01876000
v -0.01012746 0.04000000 -0.01724629
v -0.01232098 0.04000000 -0.01575416
v -0.01300578 0.04000000 -0.01519374
v -0.01366512 0.04000000 -0.01460358
v -0.01429771 0.04000000 -0.01398483
v -0.01490231 0.04000000 -0.01333871
v -0.01547774 0.04000000 -0.01266648
v -0.01602287 0.04000000 -0.01196945
v -0.01653664 0.04000000 -0.01124899
v -0.01746611 0.04000000 -0.00974346
v -0.01788000 0.04000000 -0.00896134
v -0.01825889 0.04000000 -0.00816167
v -0.01860204 0.04000000 -0.00734603
v -0.01941066 0.04000000 -0.00481935
v -0.01976064 0.04000000 -0.00308498
v -0.01995596 0.04000000 -0.00132646
v -0.01999511 0.04000000 -0.00044244
v -0.01999511 0.04000000 0.00044244
v -0.01995596 0.04000000 0.00132646
v -0.01987776 0.04000000 0.00220788
v -0.01976064 0.04000000 0.00308498
v -0.01960484 0.04000000 0.00395604
v -0.01941066 0.04000000 0.00481935
v -0.01917849 0.04000000 0.00567324
v -0.01825889 0.04000000 0.00816167
v -0.01788000 0.04000000 0.00896134
v -0.01701803 0.04000000 0.01050651
v -0.01653664 0.04000000 0.01124899
v -0.01490231 0.04000000 0.01333871
v -0.01429771 0.04000000 0.01398483
v -0.01366512 0.04000000 0.01460358
v -0.01161206 0.04000000 0.01628374
v -0.01088041 0.04000000 0.01678144
v -0.00935469 0.04000000 0.01767738
v -0.00775575 0.04000000 0.01843498
v -0.00609612 0.04000000 0.01904829
v -0.00524758 0.04000000 0.01929930
v -0.00438877 0.04000000 0.01951253
v -0.00264708 0.04000000 0.01982405
v -0.00176760 0.04000000 0.01992174
v -0.00088467 0.04000000 0.01998043
v -0.00088467 0.00000000 -0.01998043
v -0.00176760 0.00000000 -0.01992174
v -0.00264708 0.00000000 -0.01982405
v -0.00438877 0.00000000 -0.01951253
v -0.00693272 0.00000000 -0.01876000
v -0.01012746 0.00000000 -0.01724629
v -0.01161206 0.00000000 -0.01628374
v -0.01232098 0.00000000 -0.01575416
v -0.01366512 0.00000000 -0.01460358
v -0.01490231 0.00000000 -0.01333871
v -0.01547774 0.00000000 -0.01266648
v -0.01602287 0.00000000 -0.01196945
v -0.01701803 0.00000000 -0.01050651
v -0.01746611 0.00000000 -0.00974346
v -0.01788000 0.00000000 -0.00896134
v -0.01825889 0.00000000 -0.00816167
v -0.01917849 0.00000000 -0.00567324
v -0.01941066 0.00000000 -0.00481935
v -0.01960484 0.00000000 -0.00395604
v -0.01976064 0.00000000 -0.00308498
v -0.01987776 0.00000000 -0.00220788
v -0.01995596 0.00000000 -0.00132646
v -0.01999511 0.00000000 -0.00044244
v -0.01999511 0.00000000 0.00044244
v -0.01995596 0.00000000 0.00132646
v -0.01987776 0.00000000 0.00220788
v -0.01976064 0.00000000 0.00308498
v -0.01960484 0.00000000 0.00395604
v -0.01941066 0.00000000 0.00481935
v -0.01890877 0.00000000 0.00651601
v -0.01860204 0.00000000 0.00734603
v -0.01825889 0.00000000 0.00816167
v -0.01746611 0.00000000 0.00974346
v -0.01653664 0.00000000 0.01124899
v -0.01490231 0.00000000 0.01333871
v -0.01366512 0.00000000 0.01460358
v -0.01232098 0.00000000 0.01575416
v -0.01012746 0.00000000 0.01724629
v -0.00775575 0.00000000 0.01843498
v -0.00693272 0.00000000 0.01876000
v -0.00524758 0.00000000 0.01929930
v -0.00352137 0.00000000 0.01968756
v -0.00264708 0.00000000 0.01982405
v -0.00176760 0.00000000 0.01992174
v -0.00088467 0.00000000 0.01998043
v -0.00176760 0.04000000 -0.01992174
v -0.00524758 0.04000000 -0.01929930
v -0.00775575 0.04000000 -0.01843498
v -0.00856360 0.04000000 -0.01807387
v -0.00935469 0.04000000 -0.01767738
v -0.01088041 0.04000000 -0.01678144
v -0.01161206 0.04000000 -0.01628374
v -0.01701803 0.04000000 -0.01050651
v -0.01890877 0.04000000 -0.00651601
v -0.01917849 0.04000000 -0.00567324
v -0.01960484 0.04000000 -0.00395604
v -0.01987776 0.04000000 -0.00220788
v -0.01890877 0.04000000 0.00651601
v -0.01860204 0.04000000 0.00734603
v -0.01746611 0.04000000 0.00974346
v -0.01602287 0.04000000 0.01196945
v -0.01547774 0.04000000 0.01266648
v -0.01300578 0.04000000 0.01519374
v -0.01232098 0.04000000 0.01575416
v -0.01012746 0.04000000 0.01724629
v -0.00856360 0.04000000 0.01807387
v -0.00693272 0.04000000 0.01876000
v -0.00352137 0.04000000 0.01968756
v 0.00264708 0.04000000 0.01982405
v 0.00609612 0.04000000 0.01904829
v 0.00856360 0.04000000 0.01807387
v 0.01088041 0.04000000 0.01678144
v 0.01300578 0.04000000 0.01519374
v 0.01547774 0.04000000 0.01266648
v 0.01701803 0.04000000 0.01050651
v 0.01788000 0.04000000 0.00896134
v 0.01825889 0.04000000 0.00816167
v 0.01987776 0.04000000 -0.00220788
v 0.01960484 0.04000000 -0.00395604
v 0.01941066 0.04000000 -0.00481935
v 0.01917849 0.04000000 -0.00567324
v 0.01161206 0.04000000 -0.01628374
v 0.01088041 0.04000000 -0.01678144
v 0.01012746 0.04000000 -0.01724629
v 0.00693272 0.04000000 -0.01876000
v 0.00609612 0.04000000 -0.01904829
v 0.00438877 0.04000000 -0.01951253
v 0.00352137 0.04000000 -0.01968756
v 0.00088467 0.00000000 0.01998043
v 0.00693272 0.00000000 0.01876000
v 0.00856360 0.00000000 0.01807387
v 0.01300578 0.00000000 0.01519374
v 0.01429771 0.00000000 0.01398483
v 0.01602287 0.00000000 0.01196945
v 0.01746611 0.00000000 0.00974346
v 0.01788000 0.00000000 0.00896134
v 0.01999511 0.00000000 -0.00044244
v 0.01941066 0.00000000 -0.00481935
v 0.01490231 0.00000000 -0.01333871
v 0.01366512 0.00000000 -0.01460358
v 0.01161206 0.00000000 -0.01628374
v 0.01012746 0.00000000 -0.01724629
v 0.00935469 0.00000000 -0.01767738
v 0.00775575 0.00000000 -0.01843498
v 0.00693272 0.00000000 -0.01876000
v 0.00438877 0.00000000 -0.01951253
v 0.00176760 0.00000000 -0.01992174
v -0.00352137 0.00000000 -0.01968756
v -0.00524758 0.00000000 -0.01929930
v -0.00609612 0.00000000 -0.01904829
v -0.00775575 0.00000000 -0.01843498
v -0.00856360 0.00000000 -0.01807387
v -0.00935469 0.00000000 -0.01767738
v -0.01088041 0.00000000 -0.01678144
v -0.01300578 0.00000000 -0.01519374
v -0.01429771 0.00000000 -0.01398483
v -0.01653664 0.00000000 -0.01124899
v -0.01860204 0.00000000 -0.00734603
v -0.01890877 0.00000000 -0.00651601
v -0.01917849 0.00000000 0.00567324
v -0.01788000 0.00000000 0.00896134
v -0.01701803 0.00000000 0.01050651
v -0.01602287 0.00000000 0.01196945
v -0.01547774 0.00000000 0.01266648
v -0.01429771 0.00000000 0.01398483
v -0.01300578 0.00000000 0.01519374
v -0.01161206 0.00000000 0.01628374
v -0.01088041 0.00000000 0.01678144
v -0.00935469 0.00000000 0.01767738
v -0.00856360 0.00000000 0.01807387
v -0.00609612 0.00000000 0.01904829
v -0.00438877 0.00000000 0.01951253
f 1 152 197
f 53 1 197
f 280 190 217
f 144 280 217
f 54 221 3
f 55 221 54
f 145 217 281
f 281 217 190
f 281 218 145
f 282 218 281
f 105 52 51
f 105 51 104
f 106 52 105
f 105 153 106
f 107 198 154
f 154 155 107
f 154 198 106
f 106 153 154
f 111 110 262
f 262 157 111
f 262 110 199
f 199 261 262
f 199 109 156
f 156 261 199
f 115 114 267
f 267 161 115
f 267 114 113
f 113 160 267
f 159 204 203
f 203 266 159
f 113 204 159
f 159 160 113
f 202 201 264
f 264 265 202
f 203 112 158
f 158 266 203
f 158 112 202
f 202 265 158
f 229 228 248
f 71 229 248
f 225 65 244
f 12 65 225
f 243 61 223
f 223 61 9
f 246 16 226
f 246 226 68
f 242 7 222
f 242 222 59
f 222 6 58
f 59 222 58
f 58 6 5
f 5 57 58
f 241 2 1
f 241 1 53
f 3 2 241
f 241 54 3
f 51 50 259
f 104 51 259
f 259 50 49
f 49 103 259
f 258 239 48
f 48 101 258
f 256 47 46
f 46 99 256
f 237 47 256
f 256 257 237
f 48 238 100
f 100 101 48
f 100 238 237
f 237 257 100
f 252 42 41
f 41 95 252
f 43 42 252
f 252 96 43
f 234 44 97
f 97 253 234
f 97 44 43
f 43 96 97
f 46 45 255
f 255 99 46
f 255 45 236
f 236 254 255
f 98 235 234
f 234 253 98
f 236 235 98
f 98 254 236
f 146 218 191
f 191 218 282
f 191 219 146
f 192 219 191
f 147 219 283
f 283 219 192
f 143 280 144
f 143 279 280
f 189 279 143
f 143 216 189
f 184 136 211
f 184 211 183
f 179 180 133
f 133 132 179
f 133 180 181
f 181 134 133
f 107 155 260
f 260 108 107
f 109 108 260
f 260 156 109
f 111 157 263
f 263 200 111
f 201 200 263
f 263 264 201
f 128 127 174
f 174 175 128
f 171 208 125
f 125 170 171
f 126 208 171
f 171 172 126
f 270 124 123
f 123 168 270
f 206 124 270
f 270 271 206
f 125 207 169
f 169 170 125
f 169 207 206
f 206 271 169
f 18 227 247
f 247 227 70
f 247 228 18
f 247 248 228
f 19 229 71
f 71 72 19
f 19 72 73
f 73 20 19
f 21 74 75
f 75 22 21
f 73 74 21
f 21 20 73
f 64 11 224
f 64 224 63
f 12 11 64
f 64 65 12
f 226 15 67
f 68 226 67
f 67 15 14
f 14 245 67
f 224 10 62
f 63 224 62
f 62 10 9
f 9 61 62
f 69 227 17
f 70 227 69
f 17 16 69
f 16 246 69
f 60 223 8
f 243 223 60
f 8 7 60
f 7 242 60
f 56 221 55
f 56 4 221
f 56 57 5
f 5 4 56
f 102 103 49
f 49 240 102
f 102 240 239
f 239 258 102
f 249 28 27
f 27 80 249
f 29 28 249
f 249 81 29
f 30 230 82
f 82 83 30
f 82 230 29
f 29 81 82
f 32 31 86
f 86 87 32
f 84 231 30
f 30 83 84
f 232 231 84
f 84 250 232
f 193 148 147
f 147 283 193
f 277 188 142
f 141 277 142
f 216 215 278
f 189 216 278
f 215 142 278
f 278 142 188
f 187 140 214
f 187 214 276
f 141 140 187
f 187 277 141
f 214 213 275
f 276 214 275
f 275 213 139
f 139 186 275
f 273 212 137
f 185 212 273
f 137 136 273
f 136 184 273
f 175 176 129
f 128 175 129
f 129 176 177
f 177 130 129
f 131 178 179
f 179 132 131
f 177 178 131
f 131 130 177
f 272 135 134
f 272 134 181
f 210 182 183
f 183 211 210
f 210 272 182
f 135 272 210
f 173 209 126
f 126 172 173
f 127 209 173
f 173 174 127
f 26 79 80
f 26 80 27
f 75 76 23
f 23 22 75
f 23 76 77
f 77 24 23
f 66 225 244
f 66 13 225
f 66 245 14
f 14 13 66
f 85 233 232
f 232 250 85
f 31 233 85
f 85 86 31
f 149 148 284
f 148 193 284
f 274 138 212
f 274 212 185
f 274 186 139
f 139 138 274
f 115 161 268
f 268 116 115
f 117 116 268
f 268 162 117
f 167 168 123
f 123 122 167
f 167 122 121
f 121 166 167
f 251 95 41
f 41 40 251
f 251 40 39
f 39 94 251
f 32 87 88
f 88 33 32
f 34 33 88
f 88 89 34
f 90 35 34
f 34 89 90
f 119 118 163
f 163 164 119
f 117 162 163
f 163 118 117
f 205 166 121
f 205 165 166
f 269 120 119
f 119 164 269
f 269 205 120
f 165 205 269
f 149 220 25
f 37 38 25
f 144 217 25
f 8 223 25
f 211 136 25
f 25 207 125
f 25 21 22
f 25 218 146
f 126 209 25
f 25 238 48
f 30 231 25
f 25 10 224
f 25 148 149
f 139 213 25
f 141 142 25
f 17 227 25
f 25 152 1
f 232 233 25
f 234 235 25
f 5 6 25
f 1 2 25
f 51 52 25
f 25 114 115
f 25 127 128
f 25 112 203
f 119 120 25
f 25 50 51
f 41 42 25
f 27 28 25
f 151 152 25
f 25 150 151
f 147 148 25
f 25 2 3
f 25 140 141
f 25 138 139
f 25 110 111
f 107 108 25
f 25 198 107
f 203 204 25
f 111 200 25
f 25 16 17
f 25 122 123
f 25 228 229
f 224 11 25
f 14 15 25
f 25 7 8
f 46 47 25
f 25 45 46
f 48 239 25
f 25 44 234
f 25 240 49
f 25 217 145
f 146 219 25
f 25 136 137
f 25 52 106
f 113 114 25
f 199 110 25
f 106 198 25
f 25 109 199
f 25 201 202
f 25 204 113
f 202 112 25
f 123 124 25
f 125 208 25
f 25 210 211
f 18 228 25
f 25 11 12
f 9 10 25
f 25 15 226
f 226 16 25
f 25 227 18
f 222 7 25
f 25 6 222
f 3 221 25
f 49 50 25
f 25 42 43
f 25 47 237
f 25 4 5
f 237 238 25
f 236 45 25
f 43 44 25
f 25 235 236
f 25 31 32
f 25 230 30
f 22 23 25
f 25 220 150
f 145 218 25
f 25 215 216
f 25 143 144
f 128 129 25
f 25 131 132
f 25 108 109
f 25 200 201
f 132 133 25
f 25 124 206
f 25 208 126
f 206 207 25
f 25 26 27
f 229 19 25
f 12 225 25
f 25 223 9
f 221 4 25
f 239 240 25
f 25 28 29
f 25 13 14
f 29 230 25
f 25 231 232
f 25 219 147
f 216 143 25
f 25 213 214
f 214 140 25
f 137 212 25
f 134 135 25
f 25 133 134
f 25 209 127
f 32 33 25
f 115 116 25
f 25 19 20
f 20 21 25
f 225 13 25
f 25 233 31
f 25 118 119
f 25 40 41
f 25 142 215
f 212 138 25
f 25 129 130
f 130 131 25
f 135 210 25
f 25 116 117
f 25 36 37
f 121 122 25
f 25 205 121
f 25 23 24
f 39 40 25
f 34 35 25
f 25 33 34
f 117 118 25
f 25 38 39
f 35 36 25
f 120 205 25
f 25 24 77
f 77 78 25
f 79 26 25
f 25 78 79
f 93 38 37
f 37 92 93
f 93 94 39
f 39 38 93
f 37 36 91
f 91 92 37
f 91 36 35
f 35 90 91
f 194 220 149
f 149 284 194
f 150 220 194
f 194 195 150
f 196 283 192
f 196 159 266
f 196 173 172
f 196 242 59
f 196 98 253
f 155 154 196
f 266 158 196
f 196 258 101
f 253 97 196
f 196 184 183
f 196 180 179
f 196 247 70
f 75 74 196
f 196 72 71
f 55 54 196
f 196 190 280
f 196 191 282
f 183 182 196
f 179 178 196
f 196 171 170
f 68 67 196
f 196 64 63
f 196 241 53
f 101 100 196
f 83 82 196
f 53 197 196
f 196 281 190
f 280 279 196
f 196 176 175
f 196 187 276
f 196 105 104
f 157 262 196
f 161 267 196
f 196 260 155
f 196 263 157
f 80 79 196
f 71 248 196
f 196 76 75
f 196 246 68
f 243 60 196
f 59 58 196
f 104 259 196
f 196 256 99
f 196 252 95
f 99 255 196
f 103 102 196
f 282 281 196
f 196 85 250
f 196 279 189
f 189 278 196
f 196 193 283
f 181 180 196
f 185 273 196
f 153 105 196
f 196 154 153
f 196 262 261
f 261 156 196
f 196 267 160
f 160 159 196
f 265 264 196
f 196 158 265
f 175 174 196
f 196 270 168
f 196 274 185
f 170 169 196
f 196 74 73
f 73 72 196
f 244 65 196
f 196 268 161
f 196 61 243
f 63 62 196
f 70 69 196
f 196 58 57
f 54 241 196
f 196 259 103
f 196 56 55
f 257 256 196
f 196 100 257
f 96 252 196
f 196 97 96
f 196 255 254
f 254 98 196
f 196 249 80
f 87 86 196
f 196 78 77
f 192 191 196
f 196 84 83
f 196 188 277
f 196 284 193
f 276 275 196
f 177 176 196
f 196 178 177
f 156 260 196
f 264 263 196
f 196 272 181
f 172 171 196
f 271 270 196
f 196 169 271
f 248 247 196
f 164 163 196
f 77 76 196
f 65 64 196
f 196 67 245
f 196 62 61
f 196 69 246
f 196 60 242
f 57 56 196
f 196 102 258
f 81 249 196
f 196 82 81
f 196 66 244
f 250 84 196
f 95 251 196
f 196 278 188
f 277 187 196
f 196 275 186
f 196 273 184
f 182 272 196
f 174 173 196
f 196 194 284
f 168 167 196
f 245 66 196
f 86 85 196
f 196 269 164
f 196 88 87
f 196 93 92
f 186 274 196
f 162 268 196
f 196 167 166
f 166 165 196
f 79 78 196
f 196 251 94
f 89 88 196
f 196 90 89
f 92 91 196
f 196 163 162
f 165 269 196
f 94 93 196
f 196 91 90
f 195 194 196
f 196 152 151
f 196 197 152
f 151 150 196
f 150 195 196

